<svg width="46" height="64" viewBox="0 0 46 64" fill="none" xmlns="http://www.w3.org/2000/svg">
<g id="Frame" clip-path="url(#clip0_405_7765)">
<path id="Vector" opacity="0.08" d="M34.1668 48.4303L26.0169 46.9438V47.022C25.6251 47.8826 24.7631 48.4303 23.901 48.4303C23.039 48.4303 22.0987 47.8826 21.7852 47.1002V47.022L13.6353 48.4303C13.4002 48.4303 13.2435 48.4303 13.1651 48.2738C13.0867 48.1956 13.0084 47.8826 13.0084 47.7262V44.4401C13.0084 44.2836 13.0867 43.8924 13.2435 43.8142L20.453 39.198L19.591 34.9731V34.8949V27.8533L2.50752 34.6601C2.42915 34.6601 2.35079 34.6601 2.35079 34.6601C2.27242 34.6601 2.1157 34.6601 1.95897 34.5819C1.72387 34.3472 1.64551 34.1907 1.64551 33.956V29.1051C1.64551 28.9487 1.72387 28.5575 2.03733 28.4792L4.62336 26.8362V24.9584C4.62336 23.7066 5.56374 22.6112 6.73921 22.6112C7.67958 22.6112 8.54159 23.2372 8.77668 24.2543V24.3325L11.2843 22.846V20.89C11.2843 19.6381 12.2247 18.5428 13.4002 18.5428C14.3406 18.5428 15.2026 19.2469 15.4377 20.2641V20.3423L19.4343 17.9951V9.38875C19.4343 6.80685 20.0612 4.22494 21.1583 1.79951C21.5501 0.704156 22.6472 0 23.901 0C24.1361 0 24.528 0 24.6847 0.0782396C25.6251 0.469438 26.4087 1.17359 26.7222 2.03423C27.6625 4.30318 28.2111 6.80685 28.2111 9.31051V18.0733L32.2077 20.4205V20.3423C32.4428 19.3252 33.3048 18.621 34.2452 18.621C35.4206 18.621 36.361 19.7164 36.361 20.9682V22.9242L38.8687 24.4108V24.3325C39.1038 23.3154 39.9658 22.6895 40.9062 22.6895C41.5331 22.6895 42.0033 22.846 42.3951 23.3154C42.7869 23.7848 43.022 24.4108 43.022 25.0367V26.9144L45.608 28.5575C45.7648 28.6357 45.9999 28.9487 45.9999 29.1834V34.0342C45.9999 34.1907 45.9215 34.5037 45.7648 34.5819C45.6864 34.6601 45.608 34.6601 45.3729 34.6601C45.2946 34.6601 45.2162 34.6601 45.2162 34.6601L28.2111 27.8533V34.8949V34.9731L27.4275 39.3545L34.637 43.9707C34.7937 44.0489 34.8721 44.3619 34.8721 44.5966V47.8826C34.8721 48.0391 34.7937 48.3521 34.7154 48.4303C34.5586 48.3521 34.4803 48.4303 34.1668 48.4303Z" fill="#BCC9DA"/>
<path id="Vector_2" d="M29.3867 63.8433L21.7853 62.5915V62.748C21.4719 63.3739 20.7666 63.8433 19.983 63.8433C19.1993 63.8433 18.4157 63.3739 18.1806 62.748V62.5915H18.0239L10.6576 63.8433C10.5009 63.8433 10.4225 63.8433 10.4225 63.8433C10.4225 63.8433 10.3441 63.6086 10.3441 63.4521V60.5572C10.3441 60.4008 10.4225 60.166 10.5009 60.166L17.0835 55.9411L16.2998 52.0291V45.3788L0.626917 51.4815H0.548552C0.391823 51.4815 0.391823 51.4815 0.313458 51.4815C0.0783646 51.325 0 51.1685 0 51.0903V46.7871C0 46.6306 0.0783646 46.3959 0.156729 46.3959L2.6644 44.9093V43.0316C2.6644 41.9362 3.52641 41.0756 4.46678 41.0756C5.25043 41.0756 5.87734 41.545 6.1908 42.4057V42.6404L8.77683 41.2321V39.3543C8.77683 38.259 9.63884 37.3983 10.5792 37.3983C11.3629 37.3983 12.0681 37.946 12.3032 38.8066V39.0414L12.5383 38.9631L16.2215 36.7724V29.1049C16.2215 26.9142 16.6917 24.6453 17.7104 22.3763C18.2589 21.4374 19.1993 20.8115 20.1397 20.8115C20.3748 20.8115 20.5315 20.8115 20.845 20.8898C21.6286 21.2027 22.2555 21.7504 22.6474 22.611C23.5877 24.8017 24.0579 26.9925 24.0579 29.0267V36.8506L27.9762 39.1196V38.7284C28.2112 37.946 28.9165 37.3983 29.7002 37.3983C30.6405 37.3983 31.5026 38.3372 31.5026 39.3543V41.2321L34.0886 42.6404V42.4057C34.3237 41.545 34.9506 41.0756 35.8126 41.0756C36.2828 41.0756 36.6746 41.2321 37.1448 41.6233C37.4583 42.0145 37.615 42.4839 37.615 42.9533V44.7528L40.1227 46.2394C40.201 46.3176 40.2794 46.4741 40.2794 46.6306V50.9338C40.2794 51.0903 40.201 51.2467 40.1227 51.2467C40.0443 51.325 40.0443 51.325 39.8876 51.325H39.7308L24.0579 45.2223V51.8727L23.1175 55.8629L29.7002 60.0878C29.7785 60.166 29.8569 60.3225 29.8569 60.479V63.3739C29.8569 63.5303 29.7785 63.6868 29.7785 63.7651C29.7002 63.8433 29.6218 63.9215 29.5434 63.9215L29.3867 63.8433ZM19.983 21.9069C19.356 21.9069 18.8075 22.2198 18.4157 22.924C17.5537 24.8017 17.1618 26.836 17.1618 29.1832V51.7162L18.9642 61.8091C19.0426 62.5132 19.4344 62.9044 20.0613 62.9044C20.6882 62.9044 21.0801 62.5132 21.1584 61.8091L23.0392 51.7162V29.1832C23.0392 26.9142 22.6474 24.9582 21.7853 23.1587C21.5503 22.611 21.0801 22.1416 20.6099 21.9851C20.2181 21.9069 20.0613 21.9069 19.983 21.9069ZM10.971 60.792V62.8262L17.8671 61.5744L17.0051 56.88L10.971 60.792ZM22.0204 61.4179L28.9165 62.748V60.5572L22.8825 56.7235L22.0204 61.4179ZM0.783646 47.1V50.3861L16.1431 44.2052V38.0242L0.783646 47.1ZM23.6661 44.3616L39.0256 50.3861V47.0218L23.6661 38.259V44.3616ZM4.46678 42.1709C3.99659 42.1709 3.52641 42.6404 3.52641 43.1881V44.4399L5.32879 43.4228V43.2663V42.8751C5.32879 42.4839 4.8586 42.1709 4.46678 42.1709ZM35.4208 42.0145C34.9506 42.0145 34.6371 42.2492 34.5588 42.7186V43.3445L36.3612 44.5181V43.0316C36.3612 42.4839 35.9693 42.0145 35.4208 42.0145ZM10.5009 38.5719C10.0307 38.5719 9.56048 39.0414 9.56048 39.589V40.9191L11.3629 39.902V39.6673C11.4412 39.3543 11.3629 39.1196 11.1278 38.8849C10.971 38.6502 10.7359 38.5719 10.5009 38.5719ZM29.3083 38.6502C28.8382 38.6502 28.368 39.1196 28.368 39.6673V39.902L30.2487 40.9191V39.6673C30.2487 39.1196 29.8569 38.6502 29.3083 38.6502Z" fill="#F3F3F3"/>
<path id="Vector_3" d="M20.6884 32.626H19.4346V48.3521H20.6884V32.626Z" fill="#9FCCFF"/>
<path id="Vector_4" d="M21.6287 26.2883C21.3936 25.5842 20.7667 25.193 20.1398 25.1147C19.4345 25.1147 18.8859 25.5842 18.6508 26.2883L18.1807 27.7749L19.4345 28.2443L19.8263 26.7578C19.8263 26.6795 19.983 26.6013 20.0614 26.6013C20.1398 26.6013 20.2181 26.6795 20.2965 26.7578L20.6883 28.2443L21.9422 27.7749L21.6287 26.2883Z" fill="#9FCCFF"/>
</g>
<defs>
<clipPath id="clip0_405_7765">
<rect width="46" height="64" fill="white"/>
</clipPath>
</defs>
</svg>
