<svg width="156" height="158" viewBox="0 0 156 158" fill="none" xmlns="http://www.w3.org/2000/svg">
<mask id="path-1-inside-1_405_9663" fill="white">
<path d="M-100.214 13.2625C-100.868 12.8743 -101.521 12.5347 -102.275 12.3891C-103.281 12.2436 -104.438 12.3406 -105.393 11.8554C-106.046 11.5157 -107.352 9.76893 -105.742 9.9145C-104.636 10.0115 -102.473 9.96302 -101.718 9.13814C-99.804 7.0517 -97.2455 12.0495 -95.0822 11.5157C-93.925 11.2246 -93.6717 9.76893 -92.4655 10.4482C-91.7116 10.8849 -90.9078 11.5642 -90.3555 12.2436C-89.552 13.214 -90.1059 13.7477 -91.263 13.9418C-92.3193 14.0874 -93.3754 13.9903 -94.4818 13.9903C-95.4877 13.9903 -96.4937 14.0874 -97.4997 14.1844C-98.5057 14.2815 -99.3601 13.7477 -100.214 13.2625ZM-88.6385 6.85761C-88.6385 6.85761 -88.0881 9.08962 -87.2838 9.38075C-86.5298 9.67189 -86.1279 10.0601 -85.6237 9.0411C-85.1195 8.07066 -86.2756 7.63396 -87.1296 6.85761C-87.9836 6.08126 -89.3391 4.1889 -88.6385 6.85761ZM-92.3269 19.9586C-93.7846 19.2792 -93.0793 18.3573 -93.5801 16.7561C-94.081 15.1549 -95.1393 16.7561 -96.5997 18.2603C-98.0602 19.7645 -99.5152 16.9987 -100.269 16.2709C-101.022 15.5431 -100.318 15.3975 -104.19 15.0578C-108.012 14.6697 -107.71 14.5726 -109.422 16.465C-111.135 18.3573 -107.966 17.8721 -105.753 18.1147C-103.54 18.3573 -103.492 19.6189 -103.695 20.929C-103.898 22.2391 -107.971 21.6083 -111.792 21.1716C-115.614 20.7349 -115.263 21.5598 -117.226 22.3847C-119.188 23.2095 -123.31 21.026 -125.019 20.4923C-126.728 19.9586 -138.397 20.6379 -140.107 20.6379C-141.817 20.6379 -142.774 21.8994 -144.083 22.4817C-145.391 23.064 -144.841 25.3445 -144.893 26.412C-144.944 27.4795 -147.458 26.509 -148.765 26.509C-150.073 26.509 -149.722 27.2369 -149.824 28.1588C-149.926 29.0807 -149.372 29.1777 -147.813 29.0807C-146.254 28.9836 -145.6 29.2263 -145.551 30.2452C-145.503 31.2642 -147.564 30.7304 -148.821 30.7304C-150.079 30.7304 -149.578 32.8654 -149.329 34.6607C-149.08 36.456 -147.873 36.1649 -147.169 36.6501C-146.466 37.1353 -145.461 37.8147 -151.399 40.2408C-157.336 42.6669 -151.602 41.5994 -150.595 41.2112C-149.589 40.823 -145.161 39.5129 -143.854 39.5129C-142.546 39.5129 -140.532 38.0573 -138.871 36.6986C-137.209 35.34 -132.03 35.9708 -128.308 36.0193C-124.586 36.0679 -121.378 43.9284 -119.569 45.1415C-117.76 46.3545 -117.571 56.2045 -117.625 59.1158C-117.68 62.0271 -115.469 64.0165 -114.464 64.9385C-113.46 65.8604 -111.002 71.1493 -108.291 74.6914C-105.58 78.282 -106.831 73.7695 -107.633 71.7315C-108.435 69.6451 -106.879 71.5375 -106.879 71.5375C-106.879 71.5375 -102.057 76.8749 -101.105 79.3495C-100.153 81.8241 -96.0312 83.9106 -93.2653 84.1047C-90.4993 84.2987 -90.5506 85.0266 -90.5506 85.0266C-90.5506 85.0266 -90.7028 86.0455 -87.3839 86.4337C-84.1153 86.8219 -84.6717 89.2965 -83.315 90.2669C-81.9583 91.2374 -79.8473 92.2564 -77.9864 92.2564C-76.1255 92.2564 -76.7791 92.0623 -76.4288 93.4209C-76.0785 94.7795 -77.3886 96.6233 -78.3454 97.5938C-79.3023 98.5642 -79.4058 100.796 -79.4092 103.416C-79.4126 106.037 -78.3571 106.57 -78.3571 106.57C-78.3571 106.57 -72.6353 115.595 -71.2784 116.42C-69.9215 117.245 -70.125 118.992 -70.125 118.992C-70.125 118.992 -70.1422 132.287 -70.1939 133.306C-70.2455 134.325 -70.3461 134.325 -71.2529 135.538C-72.1598 136.751 -72.0124 139.42 -72.0124 139.42C-72.0124 139.42 -72.1786 151.211 -72.1797 152.084C-72.1808 152.957 -70.7741 154.073 -66.2004 156.451C-61.6267 158.829 -64.9415 155.286 -65.4434 154.462C-65.9453 153.637 -65.5904 151.502 -65.5883 149.9C-65.5863 148.299 -64.177 147.474 -63.6225 146.504C-63.068 145.534 -63.57 144.806 -63.5678 143.107C-63.5656 141.409 -61.6029 140.536 -61.6029 140.536C-61.6029 140.536 -50.8263 129.958 -49.97 128.988C-49.1137 128.017 -48.9604 126.125 -49.0596 125.057C-49.1588 123.99 -45.8354 120.884 -43.9728 119.574C-42.1102 118.264 -40.6469 114.576 -40.5452 113.752C-40.4436 112.927 -40.3908 111.034 -39.1323 110.112C-37.8737 109.191 -37.9214 107.201 -37.4158 105.115C-36.9101 103.028 -40.9333 102.786 -43.3455 101.281C-45.7577 99.7773 -49.5795 99.3406 -49.8812 99.3406C-50.183 99.3406 -51.8932 99.5347 -51.7911 98.3216C-51.6889 97.1086 -52.7424 95.0221 -53.3446 94.0031C-53.9468 92.9842 -54.9024 93.0327 -56.0592 93.0327C-57.216 93.0327 -60.7325 89.8788 -62.24 88.9083C-63.7476 87.9379 -66.8165 88.7143 -68.8276 88.1805C-70.8387 87.6468 -69.8328 87.6468 -71.6428 87.1615C-73.4527 86.6763 -74.3109 89.1024 -75.1662 89.345C-76.0215 89.5876 -78.7875 89.4906 -79.7932 89.345C-80.7989 89.1995 -81.5511 87.5012 -81.8006 85.9485C-82.05 84.3958 -82.6024 83.7165 -83.9594 82.9886C-85.3164 82.2608 -85.5154 80.6111 -85.363 79.4465C-85.2106 78.282 -86.0655 78.185 -87.0713 78.1364C-88.0771 78.0879 -88.0274 78.4761 -88.2799 79.301C-88.5324 80.1258 -89.3377 80.514 -91.4999 80.1744C-93.662 79.7862 -94.5641 77.3116 -94.813 75.3222C-95.0619 73.3328 -95.0101 72.2168 -93.6004 71.0522C-92.1906 69.8877 -91.7891 70.5185 -89.8783 70.8096C-87.9675 71.1008 -86.6585 70.0818 -85.3995 68.8202C-84.1405 67.5587 -82.6345 69.6936 -82.6345 69.6936C-82.6345 69.6936 -82.6345 69.6936 -80.5765 72.799C-78.5184 75.9044 -78.7658 72.7505 -79.2648 69.7422C-79.7639 66.7338 -70.1453 57.1749 -68.685 55.8163C-67.2247 54.4577 -67.3763 55.04 -64.8614 54.8459C-62.3464 54.6518 -61.3876 52.1772 -59.9278 51.1582C-58.4679 50.1393 -61.8377 50.1878 -63.3455 49.4114C-64.8533 48.6351 -62.3384 48.441 -61.4325 48.0043C-60.5266 47.5676 -58.6151 47.325 -56.1006 47.4705C-53.5861 47.6161 -59.8115 39.0762 -60.8664 38.1058C-61.9213 37.1353 -61.6177 35.6797 -62.1188 34.2725C-62.6199 32.8654 -64.3329 35.1945 -65.5922 36.6986C-66.8515 38.2028 -66.7993 36.6986 -66.5969 35.7767C-66.3945 34.8548 -67.3992 33.8844 -67.8502 32.6228C-68.3012 31.3612 -71.5205 31.7494 -72.6772 31.7009C-73.8339 31.6524 -73.6328 31.7494 -73.9874 33.6418C-74.3419 35.5341 -73.7902 36.7472 -73.4404 38.494C-73.0906 40.2408 -75.1055 42.6183 -76.2638 43.8314C-77.4222 45.0444 -77.7221 43.5888 -77.7708 42.3757C-77.8195 41.1627 -78.4233 41.3568 -79.8313 41.1627C-81.2392 40.9686 -81.3398 40.9201 -81.8914 39.6585C-82.443 38.3969 -84.3025 37.3294 -86.0626 37.2324C-87.8228 37.1353 -87.2657 34.1755 -87.2137 32.8654C-87.1617 31.5068 -84.5463 31.4583 -83.691 31.2157C-82.8357 30.9731 -81.4263 30.0997 -80.0201 31.6524C-78.6138 33.1565 -77.2539 31.6524 -77.2539 31.6524C-77.2539 31.6524 -75.0892 30.0511 -75.0879 29.0807C-75.0867 28.1102 -75.5397 28.4014 -76.8976 28.4014C-78.2556 28.4014 -78.4567 28.4014 -78.4553 27.2854C-78.4538 26.1694 -78.4537 26.0723 -76.0395 26.0238C-73.6254 25.9753 -74.729 23.8403 -73.571 22.8214C-72.4129 21.8024 -71.3074 22.5787 -71.5113 24.6652C-71.7152 26.7516 -69.1984 25.1504 -67.7909 25.6841C-66.3833 26.2179 -67.038 26.8972 -68.2454 27.1398C-69.4528 27.3824 -68.6486 27.7706 -68.2981 29.0322C-67.9477 30.2937 -68.0982 29.9541 -64.2762 30.2452C-60.4542 30.5364 -63.7209 28.644 -63.9718 28.2558C-64.2228 27.8676 -65.3783 26.8972 -61.9083 27.0913C-58.4382 27.2854 -60.5973 24.5681 -60.5973 24.5681C-60.5973 24.5681 -63.0062 20.5408 -65.7711 19.5219C-68.5359 18.5029 -67.7816 18.5514 -69.2379 16.8046C-70.6941 15.0578 -76.2778 15.8827 -77.9374 15.7857C-79.597 15.6886 -79.4978 16.7561 -80.3541 17.7751C-81.1601 18.794 -79.1497 19.813 -78.9527 23.064C-78.7558 26.3149 -80.965 23.4521 -80.965 23.4521C-80.965 23.4521 -82.1702 22.045 -82.7218 20.7834C-83.2734 19.5219 -83.4737 18.8425 -82.6678 17.9206C-81.8619 16.9987 -81.5086 15.9797 -83.1656 13.9418C-84.8227 11.9039 -86.1796 11.1275 -86.8836 11.0305C-87.5876 10.9335 -87.3882 12.2921 -87.2891 13.4566C-87.19 14.6211 -86.4857 14.427 -85.6315 15.1064C-84.8277 15.7857 -85.1814 17.0472 -85.3843 18.3573C-85.5872 19.6674 -85.6363 18.7455 -86.891 16.7561C-88.1458 14.7667 -88.9519 15.8342 -90.0601 17.1928C-91.1684 18.5514 -88.1518 19.3763 -88.0544 21.8024C-87.9569 24.2285 -89.3626 22.2391 -89.3626 22.2391C-89.3626 22.2391 -90.8693 20.6379 -92.3269 19.9586ZM-138.155 66.7823C-138.155 66.7823 -137.056 72.0712 -135.647 71.8286C-132.83 71.3434 -134.94 69.5966 -137.401 66.7823C-137.602 66.4912 -138.456 65.5692 -138.155 66.7823ZM-77.7675 78.6217C-77.4659 78.7187 -77.1642 78.7672 -76.9129 78.9128C-76.5109 79.1554 -76.2097 79.5921 -75.7572 79.7377C-75.154 79.9803 -73.9462 79.398 -73.3425 79.2525C-70.7767 78.6702 -77.6139 76.5352 -78.8206 76.2441C-80.0273 75.953 -80.3791 75.7104 -83.0964 76.8749C-85.8138 78.0394 -80.7846 78.1364 -80.7846 78.1364C-79.7286 78.282 -78.7228 78.3791 -77.7675 78.6217ZM-71.6839 80.0773C-71.6842 80.3685 -71.6846 80.6596 -71.6344 80.7081C-71.3836 81.2419 -70.6792 81.0478 -70.1763 81.0478C-69.7236 81.0478 -66.907 80.9022 -68.214 80.417C-69.0183 80.1259 -69.8726 79.5921 -70.7775 79.301C-72.0846 78.8643 -71.6831 79.4951 -71.6839 80.0773ZM-83.1108 10.4968C-82.7096 11.3216 -82.1058 11.1761 -81.6032 11.4187C-81.1006 11.6613 -80.9505 12.2436 -80.8014 13.6507C-80.6524 15.0578 -76.0246 14.5241 -72.856 14.4756C-69.6874 14.427 -71.7474 12.8258 -75.771 12.9229C-77.5314 12.9714 -77.7322 12.6803 -78.2339 11.7583C-78.7357 10.8364 -79.5403 10.7879 -80.6965 10.3512C-81.8527 9.9145 -81.7514 9.33223 -82.8564 8.21623C-84.3633 6.71204 -83.5624 9.67188 -83.5624 9.67188C-83.5624 9.67188 -83.5121 9.67189 -83.1108 10.4968ZM-70.5385 11.4187C-68.2753 11.4187 -66.8627 8.11918 -66.7615 7.58544C-66.6602 7.0517 -65.3011 6.12978 -63.4905 6.12978C-61.6799 6.12978 -60.7243 6.12978 -59.9184 5.20786C-59.1125 4.28594 -59.968 4.72264 -57.3519 4.09185C-54.7358 3.46107 -54.7851 2.68472 -54.8341 1.71428C-54.8832 0.743835 -59.1079 0.792357 -60.2648 0.840879C-61.4216 0.889401 -61.3219 1.56871 -62.5803 2.34506C-63.8386 3.12141 -71.4321 2.39358 -73.8461 2.34506C-74.0976 2.34506 -74.3491 2.34506 -74.5504 2.44211C-74.2492 2.8788 -73.1931 2.97585 -72.7407 3.16994C-72.0872 3.41255 -71.7358 3.89777 -71.183 4.23742C-70.6301 4.52855 -69.9764 4.57707 -69.3729 4.6256C-63.0367 5.25638 -67.9159 5.79012 -68.4189 5.83865C-68.9219 5.88717 -69.7262 5.59604 -69.8788 6.85761C-70.0313 8.11918 -71.6902 7.4884 -72.5452 7.53692C-73.4003 7.58544 -73.0983 7.43987 -73.0963 5.88717C-73.0943 4.33446 -76.8164 4.6256 -78.4259 4.67412C-80.0354 4.72264 -79.3833 6.03273 -79.4858 7.53692C-79.5884 9.0411 -79.1859 8.99258 -77.5264 9.13814C-75.9172 9.28371 -76.4709 9.67189 -76.271 10.5938C-76.071 11.5157 -73.5561 11.3702 -73.5561 11.3702C-73.5561 11.3702 -72.8017 11.4187 -70.5385 11.4187ZM-52.2208 3.21846C-52.2208 3.21846 -53.6788 2.83028 -54.4346 3.84924C-55.1903 4.86821 -54.3857 4.96525 -56.1461 5.01377C-57.9064 5.06229 -57.806 5.15934 -58.2096 6.1783C-58.6133 7.19726 -59.4696 8.1677 -60.7269 8.1677C-61.9843 8.1677 -63.9955 7.73101 -63.7955 8.65292C-63.5956 9.62336 -61.8888 12.098 -61.0339 12.1465C-60.1789 12.195 -52.9859 11.4187 -52.235 14.1844C-51.4843 16.9987 -52.6974 21.6568 -51.3405 22.4332C-49.9835 23.2095 -50.5883 24.1314 -51.0412 24.3741C-51.4942 24.6167 -52.1976 24.0829 -52.1994 25.4901C-52.2013 26.8972 -51.7478 26.2664 -50.9446 27.4309C-50.1414 28.5955 -49.7385 28.1588 -49.7408 29.9056C-49.743 31.6524 -49.9451 32.3317 -48.5874 32.5258C-47.2297 32.7198 -46.0743 33.7873 -45.874 34.4181C-45.6736 35.0489 -44.3149 34.4666 -43.9618 33.6903C-43.6088 32.9139 -39.4272 27.4309 -38.1698 27.3339C-36.9123 27.2369 -34.7498 27.3824 -34.6981 26.3149C-34.6465 25.2475 -35.3486 23.6947 -33.7894 23.6462C-32.2302 23.5977 -29.2629 23.6462 -27.9534 22.2391C-26.644 20.8319 -23.9261 19.3278 -26.4403 18.9396C-27.5968 18.7455 -28.6518 17.7751 -28.0467 16.6105C-27.9962 16.465 -26.2361 16.6105 -25.9846 16.562C-25.3809 16.465 -24.576 16.2709 -24.2232 15.6886C-23.6686 14.6697 -23.114 13.6507 -22.5092 12.6317C-21.9549 11.8069 -20.142 10.0115 -22.4047 9.62336C-23.1086 9.4778 -23.4597 8.70145 -22.4527 7.87657C-22.4527 7.87657 -20.9397 4.6256 -19.4309 4.6256C-18.9782 4.6256 -14.703 4.43151 -15.3056 3.7522C-15.7074 3.3155 -15.7074 3.3155 -18.7248 3.12141C-19.1271 3.07289 -19.3781 2.73324 -19.73 2.58767C-20.2327 2.44211 -20.8866 2.49063 -21.3896 2.49063C-24.1056 2.63619 -23.2004 2.68472 -24.356 1.7628C-25.5116 0.840879 -26.618 0.840879 -31.4966 0.889401C-36.4255 0.937923 -38.2857 0.452703 -39.4941 1.47167C-40.7025 2.49063 -40.1501 3.12141 -42.7151 3.12141C-45.2801 3.12141 -52.2208 3.21846 -52.2208 3.21846ZM-25.9501 28.741C-25.9503 28.8866 -25.9506 29.0807 -25.9508 29.2263C-25.9513 29.6144 -25.9522 30.3423 -25.399 30.3423C-24.5943 30.3423 -23.7895 30.2937 -22.9847 30.2452C-22.5823 30.1967 -22.1299 30.3908 -21.8278 30.1482C-21.1231 29.663 -20.8205 29.0322 -19.8647 28.8866C-19.4623 28.8381 -18.3561 29.0322 -18.305 28.4499C-18.3047 28.2073 -18.6033 25.7812 -19.0053 25.4901C-20.0103 24.7622 -22.5268 26.1694 -24.2368 26.1694C-24.8403 26.1694 -25.4436 25.9753 -26.0975 26.0723C-26.6509 26.1694 -26.4505 26.8002 -26.3505 27.1883C-26.0997 27.7706 -25.9997 28.2073 -25.9501 28.741ZM-12.8888 40.3863C-12.8888 40.3863 -14.9024 41.7935 -14.9542 42.958C-15.0059 44.074 -15.3607 46.1604 -13.9513 45.287C-12.4916 44.4137 -11.4329 42.4728 -11.4329 42.4728C-11.4329 42.4728 -11.0759 38.591 -12.8888 40.3863ZM-9.71974 39.9981C-9.46897 40.5319 -9.36918 41.1627 -9.21906 41.7449C-8.96898 42.8124 -9.624 43.7343 -10.2285 44.5107C-10.7827 45.19 -11.5382 46.0634 -10.5332 46.7427C-9.17641 47.6161 -7.36309 45.5297 -6.1046 44.6563C-5.09783 43.977 -5.59922 42.7639 -6.20174 41.9875C-6.95476 40.9201 -7.85885 39.9981 -8.30993 38.7851C-8.71078 37.6206 -9.5647 36.7957 -10.3179 35.8253C-10.8702 35.1459 -11.625 35.4371 -11.9284 36.6986C-12.1813 37.8147 -11.3774 38.3969 -10.674 38.9792C-10.272 39.2703 -9.92041 39.61 -9.71974 39.9981ZM7.37794 41.7935C5.51661 42.1331 4.51022 42.5213 2.70019 42.0846C1.69462 41.842 2.15075 39.1733 1.09482 38.9792C0.742877 38.8821 0.19008 38.5425 -0.0618255 38.8821C-0.212956 39.0762 -0.113048 39.61 -0.113363 39.8526C-0.0637006 40.3378 0.236467 41.5508 -0.518069 41.6479C-1.52415 41.7935 -1.07066 41.1627 -1.67684 43.2006C-2.28302 45.2385 -4.44679 46.1119 -5.15142 46.5001C-5.85604 46.8883 -6.96376 47.8587 -8.67376 47.8587C-10.3837 47.8102 -10.6359 48.3439 -9.27914 49.2659C-8.2239 49.9937 -8.07441 51.0612 -7.97533 52.2257C-7.97533 52.2257 -7.97533 52.2257 -7.9754 52.2742C-7.92573 52.7594 -7.67646 54.4577 -8.43106 54.6033C-9.33654 54.7488 -12.354 54.6033 -13.6114 54.6033C-14.8687 54.6033 -14.3682 56.4956 -14.42 57.6602C-14.4718 58.8247 -14.1706 59.2129 -13.7684 59.3099C-13.3662 59.4555 -12.4112 59.8922 -11.9096 60.9597C-11.408 62.0271 -9.74767 61.4934 -8.03779 61.5904C-6.32791 61.6875 -6.62714 59.7466 -6.37473 59.0188C-6.12232 58.2909 -6.72529 57.8543 -5.01522 57.8057C-3.35546 57.7572 -2.75054 56.6897 -2.54779 55.4767C-2.34498 54.2151 -1.08911 55.3796 0.571912 54.3607C2.23293 53.3417 4.84431 56.3501 6 57.1749C6.55274 57.5631 8.00982 58.6791 7.90885 58.9703C7.5559 59.6496 4.89142 58.8247 5.69429 60.2318C6.74795 62.1727 7.85553 61.2993 9.41717 59.3584C11.029 57.4661 7.30943 55.8163 6.60601 55.2826C5.90265 54.7003 4.19403 53.6328 5.40292 52.2257C6.61174 50.8671 9.42391 54.1666 9.42391 54.1666C10.68 55.137 12.5376 57.7087 13.1383 59.8436C13.7894 61.9301 14.0407 62.1242 16.0019 62.2697C17.9632 62.4153 16.4576 59.9407 16.1571 58.9703C15.8062 58.0483 15.8065 57.8057 17.0638 57.8542C18.3211 57.9028 18.9719 60.2803 19.6749 61.1537C20.3778 62.0271 22.8414 62.6579 23.8478 62.2697C24.9045 61.8816 25.2068 61.4934 26.4123 62.6579C27.6179 63.8224 24.848 66.6853 23.9928 66.8308C23.1376 66.9764 21.5772 67.9468 19.5668 66.9279C17.5564 65.8604 17.2041 66.0545 14.9413 65.6663C12.6786 65.2781 13.0292 66.3941 12.4743 67.7042C11.9193 69.0143 10.8141 68.0439 10.3119 67.4616C9.80974 66.8793 5.63789 64.9385 4.13045 63.871C2.62302 62.8035 2.87586 61.736 2.324 60.6685C1.77215 59.601 0.0105934 60.5715 -0.291606 60.9111C-0.593804 61.2508 -2.05241 61.2993 -3.41035 61.2993C-4.76829 61.2993 -5.27092 61.0567 -6.07695 62.0757C-6.88297 63.0946 -6.83192 62.5124 -8.342 63.4828C-9.85208 64.4532 -11.3605 64.1136 -13.5738 64.4047C-15.7871 64.6959 -15.1386 68.7717 -15.1395 69.4995C-15.1405 70.2274 -15.4936 71.0522 -16.3987 70.8581C-17.3037 70.6641 -18.8685 75.031 -19.9258 75.953C-20.9832 76.8749 -20.3833 79.6892 -20.3343 80.6596C-20.2853 81.63 -21.1413 82.4064 -21.6948 82.6005C-22.2483 82.7946 -21.5484 86.0455 -21.9518 86.8704C-22.3552 87.6953 -19.4389 88.229 -19.4389 88.229C-19.1878 88.5687 -17.2775 89.1995 -16.0224 90.9948C-14.4662 93.2268 -12.9572 93.0812 -12.9572 93.0812C-12.9572 93.0812 -2.64686 93.0327 -0.283028 93.0327C0.722862 93.0327 1.67802 93.3724 2.33083 94.1487C2.93336 94.9251 3.53523 96.1866 2.9808 97.1086C2.47672 97.982 2.22324 99.5347 2.97658 100.36C3.37837 100.796 4.0318 101.087 4.5343 101.427C6.14251 102.349 6.69052 106.376 6.68781 108.463C6.68605 109.821 6.53335 111.228 6.12923 112.587C6.02808 113.024 5.87663 113.46 5.57437 113.849C5.17125 114.431 5.01992 114.771 5.06933 115.45C5.06794 116.517 4.86524 117.682 6.07174 118.119C6.82577 118.41 7.97819 121.758 7.97819 121.758C7.97819 121.758 10.9352 129.715 11.3353 131.462C11.7354 133.209 12.5905 133.112 13.1438 133.112C13.697 133.112 14.3004 133.209 14.4522 132.481C14.604 131.802 15.2576 131.947 15.2576 131.947C15.2576 131.947 15.861 132.044 18.4764 131.947C21.1421 131.85 23.0586 127.823 23.7132 127.192C24.3679 126.561 24.4184 126.367 24.3697 125.106C24.2708 123.796 24.5224 123.699 25.8302 123.602C27.1883 123.505 26.9885 122.437 27.042 119.914C27.0956 117.391 28.4043 116.614 30.2171 114.916C32.0299 113.218 30.7814 106.376 30.6341 103.611C30.4868 100.845 32.3494 99.5347 32.3494 99.5347C32.3494 99.5347 38.5469 90.8007 40.8133 88.4231C43.0796 86.0455 39.4073 86.6278 39.4073 86.6278C39.4073 86.6278 36.0375 86.7248 34.4787 86.5308C32.9197 86.3852 31.2641 83.2313 30.5108 82.4064C29.7574 81.5815 27.999 80.1259 27.6995 78.4276C27.3999 76.7293 26.7481 75.1766 26.7481 75.1766C26.5977 74.837 24.9903 73.2842 24.7915 71.4404C24.3442 67.316 25.9494 70.5185 25.9494 70.5185C25.9494 70.5185 26.5515 71.6345 28.7122 73.1387C30.8729 74.6914 32.0729 80.0773 33.1264 82.1638C34.1799 84.2502 34.029 84.2502 37.3483 84.2987C40.6676 84.3958 45.2002 79.6892 46.5593 78.8158C47.9183 77.9424 47.4671 76.8264 46.9154 75.6618C46.3637 74.4973 45.2066 74.7399 42.9942 74.3032C40.7818 73.915 40.0308 71.2948 38.0206 70.0818C36.0104 68.8687 37.8712 68.9658 39.2792 69.1114C40.6873 69.2569 40.8372 69.9848 41.5403 70.8096C42.2432 71.683 43.3491 72.1682 45.5623 71.9742C47.7754 71.8286 49.2328 72.6535 49.735 73.2842C50.2371 73.915 51.7452 74.4488 51.7452 74.4488C51.7452 74.4488 55.5173 74.4488 55.9693 74.934C56.4213 75.4192 56.1681 76.7293 58.6322 76.9719C61.0963 77.2145 62.2973 81.9212 62.2973 81.9212C62.2973 81.9212 62.9936 87.9379 64.7023 88.9569C68.0191 90.9463 67.1727 84.2988 67.3252 83.0372C67.4778 81.7756 71.2021 79.8347 72.5105 79.2525C73.064 79.0098 73.3162 78.4276 73.3673 77.8453C73.4181 77.4571 73.1175 76.5837 73.4196 76.2926C73.6713 76.0985 74.6772 76.147 74.9789 76.1956C75.6326 76.2926 76.8402 75.8074 77.1402 77.166C77.4402 78.5246 79.2486 80.2229 79.2486 80.2229C79.8012 80.7566 80.5049 81.0478 81.2591 81.1933C81.9128 81.2904 82.7179 80.9992 83.321 81.3389C84.1754 81.8241 83.62 83.4739 83.5687 84.2017C83.5677 84.9781 83.3655 85.7544 83.4651 86.5793C83.5645 87.4527 84.1168 88.1805 84.3169 89.0539C84.467 89.6362 84.5669 90.1699 84.6164 90.7522C84.6164 90.7522 86.6716 96.0896 89.5893 95.5559C91.5512 95.2162 88.1354 92.0137 86.6787 90.5581C85.2221 89.1024 85.1234 87.6468 85.7792 86.1426C86.4349 84.6384 87.6898 86.5308 89.8508 87.8408C92.0117 89.1509 91.1574 88.6657 92.9204 86.5308C94.6834 84.4443 93.1276 81.9212 92.5751 81.3874C92.0225 80.8537 89.7128 77.9424 92.4298 77.0204C95.0966 76.0985 97.7122 75.9044 99.171 75.7103C100.63 75.5163 100.481 74.0121 102.899 70.7126C105.318 67.4131 103.01 63.2402 102.006 61.5419C100.952 59.8436 100.752 58.9703 102.263 57.272C103.774 55.5737 105.228 58.6306 105.228 58.6306C105.228 58.6306 106.734 61.1052 108.743 63.5313C110.751 65.9574 111.208 62.6579 111.561 61.8816C111.914 61.0567 110.608 60.0377 109.855 58.9217C109.102 57.8057 109.959 56.0589 110.161 55.4281C110.363 54.7974 114.037 53.0991 115.194 52.6624C116.352 52.2257 117.561 50.3333 118.07 46.209C118.578 42.0846 119.578 46.5971 119.578 46.5971C119.578 46.5971 119.717 55.8648 119.664 57.5631C119.612 59.2614 119.711 59.9892 117.547 61.2993C115.383 62.6094 115.132 62.3183 113.975 62.5609C112.817 62.8035 112.415 63.1917 112.311 65.8604C112.206 68.5291 113.566 67.0734 113.718 66.4426C113.87 65.8119 114.375 63.968 115.833 64.1136C117.292 64.2592 119.607 62.6579 120.967 61.6875C122.326 60.717 121.726 58.0969 121.677 56.5927C121.629 55.0885 121.477 55.5252 122.836 55.4281C124.194 55.3311 123.691 55.2341 123.894 54.021C124.096 52.808 123.493 52.6624 122.236 52.6139C120.978 52.5654 121.231 51.4008 121.231 51.4008C121.231 51.4008 121.491 45.4326 121.191 44.0255C120.891 42.6669 119.133 40.6289 115.461 40.8715C111.789 41.1142 117.378 36.2619 119.141 34.5152C120.853 32.7684 122.562 33.9329 122.562 33.9329C122.562 33.9329 124.622 34.9033 127.488 35.4856C130.354 36.0679 128.999 33.8844 129.353 32.4287C129.707 30.9731 130.964 31.5553 133.326 33.108C135.688 34.6607 131.258 37.5235 130.704 38.3969C130.149 39.2703 131.454 41.5509 132.909 44.1225C134.364 46.6942 134.117 43.5403 134.319 42.5213C134.472 41.5023 134.372 40.5804 135.429 39.8041C136.487 39.0277 135.885 37.6691 135.887 35.5826C135.89 33.4962 137.399 33.7873 139.762 33.7873C142.126 33.8359 142.429 33.011 142.983 32.6713C143.536 32.3317 143.236 31.5553 146.757 31.1186C150.278 30.7304 142.946 22.045 142.344 21.4142C141.741 20.7834 131.43 21.3172 128.915 21.2201C126.401 21.1231 126.503 19.5704 126.001 18.9881C125.499 18.4058 119.815 18.8911 118.759 18.8425C117.703 18.794 116.599 16.6591 115.694 16.562C114.789 16.465 114.436 17.3384 113.529 18.1147C112.623 18.8911 112.625 17.0472 112.526 16.2709C112.426 15.4945 111.873 15.2519 110.868 14.9608C109.862 14.6697 109.859 17.2413 109.807 18.1147C109.756 18.9881 101.659 18.697 100.1 18.6485C98.541 18.5999 98.0402 16.9502 97.7407 15.2034C97.4412 13.4566 95.8294 15.3004 95.8294 15.3004L92.0068 15.4945C92.0068 15.4945 85.5694 15.3004 83.8591 15.543C82.1991 15.7857 83.8617 13.5536 84.7683 12.5347C85.6749 11.4672 81.5026 9.9145 81.0002 9.4778C80.4978 9.0411 77.1274 9.57484 76.4236 9.33223C75.7701 9.08962 75.2686 8.02214 75.067 8.36179C74.8653 8.70145 74.6125 9.72041 73.8574 10.2542C73.1023 10.7879 72.3985 10.5938 71.3924 10.7394C70.3863 10.8849 70.9893 11.3216 67.5695 11.1275C64.1497 10.982 63.996 13.1655 62.9382 14.3785C61.8302 15.5916 60.0197 15.4945 59.1647 15.543C58.3095 15.6401 58.6092 17.2898 58.2055 18.3088C57.8018 19.3278 56.1954 16.9987 55.5923 16.7076C54.9892 16.3679 55.1879 18.2603 55.1879 18.2603C55.1879 18.2603 55.1303 23.8888 54.8781 24.4711C54.6259 25.0534 52.721 20.2012 52.7224 19.0852C52.7742 17.9692 51.8217 15.543 51.6211 15.1064C51.4707 14.7182 50.967 15.349 50.312 16.2224C49.657 17.0958 50.0572 18.8425 49.9047 20.0556C49.7522 21.2686 49.0489 20.6379 47.0875 20.6379C45.126 20.6379 44.7731 21.2686 43.9675 21.9965C43.1618 22.7243 40.1947 22.5302 38.4847 22.5302C36.7747 22.5302 35.9185 23.4521 34.3582 24.3741C32.7979 25.296 33.2021 23.8403 32.1979 22.5302C31.1435 21.1716 30.7886 23.4036 30.2341 24.3741C29.6796 25.3445 26.7659 22.7728 25.3591 21.6568C23.9523 20.5408 23.0962 21.3657 22.3418 21.3657C21.5874 21.3657 20.732 21.6568 19.9289 20.3953C19.1259 19.1337 17.0133 19.2792 14.7511 18.5514C12.4888 17.8236 11.7826 19.4248 9.36737 20.2497C6.95218 21.0746 6.3469 22.4332 6.3469 22.4332C6.3469 22.4332 6.34688 22.4332 6.1943 23.7433C6.04172 25.0534 4.38015 26.509 3.32233 27.7706C2.2645 29.0322 0.252613 29.1292 -0.854619 29.7115C-1.96185 30.2937 -1.2119 33.7388 -1.16343 35.1459C-1.11491 36.5046 1.19988 35.5341 2.7087 35.5341C4.16722 35.5341 3.36096 36.7472 3.15903 37.3294C3.05788 37.7661 2.30358 37.6691 2.15232 37.9602C2.10197 38.0087 2.10184 38.1058 2.15195 38.2514C2.35249 38.7366 2.90524 39.1247 3.20636 39.61C4.15999 41.1141 4.86625 39.4644 4.86625 39.4644C4.86625 39.4644 6.32717 37.6206 7.63734 35.6797C8.79632 33.9814 6.68565 32.6713 7.94508 31.0701C9.00303 29.7115 10.3122 28.4984 11.6211 27.528C13.8866 25.8297 14.2373 26.8487 14.8899 27.8191C15.5425 28.7896 11.6178 30.1482 10.5081 32.6228C9.39838 35.0974 13.1726 33.4477 12.1136 35.5826C9.99492 40.4834 9.3902 41.4053 7.37794 41.7935ZM39.2442 18.5999C39.9476 19.1337 40.7014 19.6189 41.5056 20.0556C41.7568 20.2012 42.9127 20.8805 42.612 20.1041C42.4115 19.5704 41.9596 19.0366 41.6081 18.5999C40.9051 17.7265 41.0064 17.1443 41.0079 15.9797C41.0094 14.8152 43.4248 13.8448 43.4248 13.8448C51.7285 9.86597 43.9803 12.098 42.7731 12.2436C41.6162 12.3406 40.4592 12.4862 39.8554 12.6803C39.2517 12.8743 37.8917 14.427 37.2362 15.7371C37.0345 16.1253 37.1345 16.6105 37.2848 16.9987C37.4353 17.2898 37.6362 17.5325 37.9377 17.7265C38.39 18.0177 38.8925 18.3088 39.2442 18.5999ZM35.2978 114.14C34.6434 114.625 34.7923 116.129 34.7386 118.701C34.7377 119.429 35.6866 124.572 36.9463 122.777C36.9464 122.728 38.6091 120.399 38.6611 119.089C38.7131 117.73 39.8717 116.372 40.3255 115.45C40.7794 114.528 40.5295 113.315 39.5765 111.326C38.6235 109.336 37.5126 112.684 37.5126 112.684C37.2102 113.218 35.9523 113.655 35.2978 114.14ZM86.3654 99.4376C87.0685 100.214 87.7716 101.039 88.4747 101.815C88.8262 102.203 89.1778 102.592 89.5294 102.98C89.9312 103.368 90.4337 103.756 90.6342 104.241C90.8347 104.727 90.7835 105.406 91.1854 105.794C91.537 106.134 92.0903 106.134 92.543 106.085C94.5045 106.037 96.4658 106.134 98.4776 106.134C110.045 106.134 101.295 105.357 100.792 105.26C100.289 105.163 99.233 105.406 98.2783 104.727C97.3236 104.047 92.998 104.241 92.998 104.241C92.998 104.241 91.4891 104.29 91.6919 103.077C91.8946 101.864 91.291 101.961 89.3838 98.9039C87.4766 95.847 87.5744 97.982 84.5606 95.0221C81.5468 92.0623 83.4037 95.0706 84.0058 96.2351C84.6078 97.3997 85.9638 98.9039 85.9638 98.9039C86.0641 99.098 86.2147 99.292 86.3654 99.4376ZM102.911 100.651C102.709 101.281 102.708 101.864 103.462 102.106C104.87 102.495 104.619 102.058 106.028 101.184C106.28 101.039 107.035 100.602 106.985 100.262C106.935 99.9714 106.281 99.9714 106.03 99.8258C105.779 99.6317 105.528 99.3891 105.226 99.3891C104.823 99.3406 104.421 99.3406 104.019 99.3891C103.516 99.4376 103.264 99.5832 103.113 99.9714C103.012 100.165 102.961 100.408 102.911 100.651ZM98.4352 100.068C98.8879 100.068 99.3908 100.068 99.8437 99.8743C100.246 99.7287 100.498 99.3891 100.8 99.1465C101.354 98.7098 101.455 98.2246 101.556 97.7393C101.86 96.4292 101.761 95.0221 101.763 93.712C101.766 91.383 101.413 91.8197 101.012 90.8492C100.812 90.3155 99.1009 90.9463 98.3961 91.48C97.6913 92.0137 98.0924 92.9357 98.0412 93.615C98.0401 94.4884 97.1346 94.6339 96.5305 95.0706C95.7754 95.6044 95.0705 96.1866 94.3657 96.7689C93.4594 97.4967 94.3134 98.2731 94.7147 99.0494C94.8151 99.2435 94.9657 99.4861 95.1667 99.6317C95.5183 99.9228 95.9709 99.9714 96.3732 100.02C96.4235 100.02 96.4235 100.02 96.4738 100.02C97.1275 100.068 97.7814 100.068 98.4352 100.068ZM106.546 89.345C106.898 90.0729 107.4 90.8007 107.851 91.48C108.102 91.8682 108.655 92.499 109.158 92.1108C109.813 91.6256 109.663 90.8007 109.664 90.1699C109.666 88.7143 109.819 86.5793 109.217 85.5603C108.564 84.5414 107.358 83.9591 106.605 82.9886C106.002 82.2608 105.499 82.3579 104.748 79.6406C103.947 76.9234 104.194 80.3199 104.041 82.0182C103.888 83.7165 105.496 85.0751 105.496 85.0751C106.651 86.3367 105.895 87.8894 106.546 89.345ZM118.851 102.786C119.455 102.834 120.008 103.028 120.409 103.513C120.911 104.096 121.061 104.775 121.463 105.406C121.714 105.843 122.115 106.425 122.769 106.279C123.373 106.085 123.978 105.503 124.48 106.134C125.183 107.007 125.535 106.619 125.535 106.619C125.737 106.473 127.297 105.551 128.051 106.134C132.422 109.579 130.564 107.007 129.459 105.648C128.355 104.29 125.541 102.3 124.285 101.087C123.029 99.8743 120.463 100.942 119.055 100.748C117.647 100.554 118.101 99.3406 117.348 98.5157C116.594 97.6908 113.576 98.5642 112.872 98.2246C112.168 97.8849 111.816 97.7393 111.818 96.8174C111.818 96.6719 111.518 95.4588 111.165 95.8955C111.014 96.0896 111.114 96.6233 111.113 96.866C111.113 97.2541 111.112 97.6423 111.162 98.0305C111.312 98.9524 112.067 98.5642 113.323 99.292C114.58 99.9714 115.031 101.184 115.281 102.203C115.481 103.028 116.537 102.98 117.342 102.883C117.845 102.834 118.348 102.786 118.851 102.786ZM125.644 138.837C125.393 138.789 124.89 138.74 124.789 139.032C124.688 139.323 125.241 139.662 125.241 139.905C125.24 140.293 125.138 141.506 126.345 141.603C127.501 141.7 127.703 141.021 127.956 139.905C128.007 139.711 128.007 139.517 127.907 139.323C127.756 139.08 127.404 139.032 127.153 139.032C126.901 138.983 126.65 138.983 126.348 138.935C126.097 138.886 125.896 138.886 125.644 138.837ZM112 110.986C110.642 111.131 109.384 111.956 108.226 112.587C107.471 112.975 106.666 113.46 106.313 114.285C106.01 114.965 106.059 116.129 105.958 116.857C105.806 117.73 103.443 116.954 102.537 117.1C101.632 117.245 101.932 118.119 101.63 118.41C101.278 118.701 100.021 118.361 98.9644 118.555C97.7068 118.798 98.3075 120.933 98.2059 121.758C98.1042 122.583 97.8014 123.407 97.5991 124.232C97.1947 125.785 98.1505 125.64 98.9547 126.028C99.7589 126.416 99.0016 128.648 99.1509 129.861C99.3004 130.977 100.808 132.044 101.763 132.433C102.416 132.724 103.221 132.578 103.925 132.578C104.73 132.578 105.535 132.627 106.289 132.433C107.044 132.238 107.598 131.656 108.252 131.22C109.259 130.492 110.366 130.152 111.623 130.249C112.931 130.346 114.188 130.492 115.496 130.54C116.2 130.54 117.407 130.298 117.607 131.171C117.757 131.802 117.656 132.481 117.806 133.112C118.106 134.471 119.062 133.985 120.219 133.985C121.376 133.985 121.425 134.859 121.725 135.684C122.226 137.091 123.283 136.994 124.59 136.994C125.496 136.994 126.401 136.994 127.306 136.945C128.866 136.8 129.823 135.295 129.823 135.295C129.823 135.295 131.89 131.899 132.897 130.54C133.905 129.182 134.311 126.125 134.314 123.747C134.318 121.37 130.902 118.022 130.902 118.022C130.902 118.022 126.332 112.539 125.529 111.714C124.725 110.889 125.229 109.87 124.929 108.948C124.678 108.026 123.922 109.53 123.067 109.773C122.211 110.015 122.66 113.315 122.659 113.8C122.658 114.285 121.602 114.188 121.05 113.509C120.498 112.83 120.145 112.975 119.341 112.539C118.537 112.102 118.035 111.277 117.936 109.967C117.888 108.657 116.479 109.093 114.87 109.045C113.26 108.996 113.914 109.482 113.611 110.307C113.409 110.84 112.805 110.889 112.302 110.937C112.151 110.937 112.051 110.986 112 110.986ZM146.612 142.428L146.562 142.477C146.008 143.107 144.345 145.242 145.351 145.388C146.306 145.534 147.513 146.067 148.117 145.436C148.722 144.709 148.521 144.126 150.333 143.447C151.238 143.107 151.996 140.439 151.996 140.439C151.996 140.439 151.696 139.468 151.093 138.886C150.591 138.449 149.381 140.099 148.928 140.536C148.173 141.215 147.267 141.749 146.612 142.428ZM154.716 137.479C155.069 136.46 155.823 137.042 155.824 136.314C155.825 135.586 153.614 134.276 152.86 133.646C151.353 132.433 152.758 135.004 152.405 135.684C151.951 136.46 151.901 136.46 152.252 137.382C152.352 137.624 152.602 138.789 152.853 138.886C154.311 139.371 154.363 138.546 154.716 137.479Z"/>
</mask>
<path d="M-100.214 13.2625C-100.868 12.8743 -101.521 12.5347 -102.275 12.3891C-103.281 12.2436 -104.438 12.3406 -105.393 11.8554C-106.046 11.5157 -107.352 9.76893 -105.742 9.9145C-104.636 10.0115 -102.473 9.96302 -101.718 9.13814C-99.804 7.0517 -97.2455 12.0495 -95.0822 11.5157C-93.925 11.2246 -93.6717 9.76893 -92.4655 10.4482C-91.7116 10.8849 -90.9078 11.5642 -90.3555 12.2436C-89.552 13.214 -90.1059 13.7477 -91.263 13.9418C-92.3193 14.0874 -93.3754 13.9903 -94.4818 13.9903C-95.4877 13.9903 -96.4937 14.0874 -97.4997 14.1844C-98.5057 14.2815 -99.3601 13.7477 -100.214 13.2625ZM-88.6385 6.85761C-88.6385 6.85761 -88.0881 9.08962 -87.2838 9.38075C-86.5298 9.67189 -86.1279 10.0601 -85.6237 9.0411C-85.1195 8.07066 -86.2756 7.63396 -87.1296 6.85761C-87.9836 6.08126 -89.3391 4.1889 -88.6385 6.85761ZM-92.3269 19.9586C-93.7846 19.2792 -93.0793 18.3573 -93.5801 16.7561C-94.081 15.1549 -95.1393 16.7561 -96.5997 18.2603C-98.0602 19.7645 -99.5152 16.9987 -100.269 16.2709C-101.022 15.5431 -100.318 15.3975 -104.19 15.0578C-108.012 14.6697 -107.71 14.5726 -109.422 16.465C-111.135 18.3573 -107.966 17.8721 -105.753 18.1147C-103.54 18.3573 -103.492 19.6189 -103.695 20.929C-103.898 22.2391 -107.971 21.6083 -111.792 21.1716C-115.614 20.7349 -115.263 21.5598 -117.226 22.3847C-119.188 23.2095 -123.31 21.026 -125.019 20.4923C-126.728 19.9586 -138.397 20.6379 -140.107 20.6379C-141.817 20.6379 -142.774 21.8994 -144.083 22.4817C-145.391 23.064 -144.841 25.3445 -144.893 26.412C-144.944 27.4795 -147.458 26.509 -148.765 26.509C-150.073 26.509 -149.722 27.2369 -149.824 28.1588C-149.926 29.0807 -149.372 29.1777 -147.813 29.0807C-146.254 28.9836 -145.6 29.2263 -145.551 30.2452C-145.503 31.2642 -147.564 30.7304 -148.821 30.7304C-150.079 30.7304 -149.578 32.8654 -149.329 34.6607C-149.08 36.456 -147.873 36.1649 -147.169 36.6501C-146.466 37.1353 -145.461 37.8147 -151.399 40.2408C-157.336 42.6669 -151.602 41.5994 -150.595 41.2112C-149.589 40.823 -145.161 39.5129 -143.854 39.5129C-142.546 39.5129 -140.532 38.0573 -138.871 36.6986C-137.209 35.34 -132.03 35.9708 -128.308 36.0193C-124.586 36.0679 -121.378 43.9284 -119.569 45.1415C-117.76 46.3545 -117.571 56.2045 -117.625 59.1158C-117.68 62.0271 -115.469 64.0165 -114.464 64.9385C-113.46 65.8604 -111.002 71.1493 -108.291 74.6914C-105.58 78.282 -106.831 73.7695 -107.633 71.7315C-108.435 69.6451 -106.879 71.5375 -106.879 71.5375C-106.879 71.5375 -102.057 76.8749 -101.105 79.3495C-100.153 81.8241 -96.0312 83.9106 -93.2653 84.1047C-90.4993 84.2987 -90.5506 85.0266 -90.5506 85.0266C-90.5506 85.0266 -90.7028 86.0455 -87.3839 86.4337C-84.1153 86.8219 -84.6717 89.2965 -83.315 90.2669C-81.9583 91.2374 -79.8473 92.2564 -77.9864 92.2564C-76.1255 92.2564 -76.7791 92.0623 -76.4288 93.4209C-76.0785 94.7795 -77.3886 96.6233 -78.3454 97.5938C-79.3023 98.5642 -79.4058 100.796 -79.4092 103.416C-79.4126 106.037 -78.3571 106.57 -78.3571 106.57C-78.3571 106.57 -72.6353 115.595 -71.2784 116.42C-69.9215 117.245 -70.125 118.992 -70.125 118.992C-70.125 118.992 -70.1422 132.287 -70.1939 133.306C-70.2455 134.325 -70.3461 134.325 -71.2529 135.538C-72.1598 136.751 -72.0124 139.42 -72.0124 139.42C-72.0124 139.42 -72.1786 151.211 -72.1797 152.084C-72.1808 152.957 -70.7741 154.073 -66.2004 156.451C-61.6267 158.829 -64.9415 155.286 -65.4434 154.462C-65.9453 153.637 -65.5904 151.502 -65.5883 149.9C-65.5863 148.299 -64.177 147.474 -63.6225 146.504C-63.068 145.534 -63.57 144.806 -63.5678 143.107C-63.5656 141.409 -61.6029 140.536 -61.6029 140.536C-61.6029 140.536 -50.8263 129.958 -49.97 128.988C-49.1137 128.017 -48.9604 126.125 -49.0596 125.057C-49.1588 123.99 -45.8354 120.884 -43.9728 119.574C-42.1102 118.264 -40.6469 114.576 -40.5452 113.752C-40.4436 112.927 -40.3908 111.034 -39.1323 110.112C-37.8737 109.191 -37.9214 107.201 -37.4158 105.115C-36.9101 103.028 -40.9333 102.786 -43.3455 101.281C-45.7577 99.7773 -49.5795 99.3406 -49.8812 99.3406C-50.183 99.3406 -51.8932 99.5347 -51.7911 98.3216C-51.6889 97.1086 -52.7424 95.0221 -53.3446 94.0031C-53.9468 92.9842 -54.9024 93.0327 -56.0592 93.0327C-57.216 93.0327 -60.7325 89.8788 -62.24 88.9083C-63.7476 87.9379 -66.8165 88.7143 -68.8276 88.1805C-70.8387 87.6468 -69.8328 87.6468 -71.6428 87.1615C-73.4527 86.6763 -74.3109 89.1024 -75.1662 89.345C-76.0215 89.5876 -78.7875 89.4906 -79.7932 89.345C-80.7989 89.1995 -81.5511 87.5012 -81.8006 85.9485C-82.05 84.3958 -82.6024 83.7165 -83.9594 82.9886C-85.3164 82.2608 -85.5154 80.6111 -85.363 79.4465C-85.2106 78.282 -86.0655 78.185 -87.0713 78.1364C-88.0771 78.0879 -88.0274 78.4761 -88.2799 79.301C-88.5324 80.1258 -89.3377 80.514 -91.4999 80.1744C-93.662 79.7862 -94.5641 77.3116 -94.813 75.3222C-95.0619 73.3328 -95.0101 72.2168 -93.6004 71.0522C-92.1906 69.8877 -91.7891 70.5185 -89.8783 70.8096C-87.9675 71.1008 -86.6585 70.0818 -85.3995 68.8202C-84.1405 67.5587 -82.6345 69.6936 -82.6345 69.6936C-82.6345 69.6936 -82.6345 69.6936 -80.5765 72.799C-78.5184 75.9044 -78.7658 72.7505 -79.2648 69.7422C-79.7639 66.7338 -70.1453 57.1749 -68.685 55.8163C-67.2247 54.4577 -67.3763 55.04 -64.8614 54.8459C-62.3464 54.6518 -61.3876 52.1772 -59.9278 51.1582C-58.4679 50.1393 -61.8377 50.1878 -63.3455 49.4114C-64.8533 48.6351 -62.3384 48.441 -61.4325 48.0043C-60.5266 47.5676 -58.6151 47.325 -56.1006 47.4705C-53.5861 47.6161 -59.8115 39.0762 -60.8664 38.1058C-61.9213 37.1353 -61.6177 35.6797 -62.1188 34.2725C-62.6199 32.8654 -64.3329 35.1945 -65.5922 36.6986C-66.8515 38.2028 -66.7993 36.6986 -66.5969 35.7767C-66.3945 34.8548 -67.3992 33.8844 -67.8502 32.6228C-68.3012 31.3612 -71.5205 31.7494 -72.6772 31.7009C-73.8339 31.6524 -73.6328 31.7494 -73.9874 33.6418C-74.3419 35.5341 -73.7902 36.7472 -73.4404 38.494C-73.0906 40.2408 -75.1055 42.6183 -76.2638 43.8314C-77.4222 45.0444 -77.7221 43.5888 -77.7708 42.3757C-77.8195 41.1627 -78.4233 41.3568 -79.8313 41.1627C-81.2392 40.9686 -81.3398 40.9201 -81.8914 39.6585C-82.443 38.3969 -84.3025 37.3294 -86.0626 37.2324C-87.8228 37.1353 -87.2657 34.1755 -87.2137 32.8654C-87.1617 31.5068 -84.5463 31.4583 -83.691 31.2157C-82.8357 30.9731 -81.4263 30.0997 -80.0201 31.6524C-78.6138 33.1565 -77.2539 31.6524 -77.2539 31.6524C-77.2539 31.6524 -75.0892 30.0511 -75.0879 29.0807C-75.0867 28.1102 -75.5397 28.4014 -76.8976 28.4014C-78.2556 28.4014 -78.4567 28.4014 -78.4553 27.2854C-78.4538 26.1694 -78.4537 26.0723 -76.0395 26.0238C-73.6254 25.9753 -74.729 23.8403 -73.571 22.8214C-72.4129 21.8024 -71.3074 22.5787 -71.5113 24.6652C-71.7152 26.7516 -69.1984 25.1504 -67.7909 25.6841C-66.3833 26.2179 -67.038 26.8972 -68.2454 27.1398C-69.4528 27.3824 -68.6486 27.7706 -68.2981 29.0322C-67.9477 30.2937 -68.0982 29.9541 -64.2762 30.2452C-60.4542 30.5364 -63.7209 28.644 -63.9718 28.2558C-64.2228 27.8676 -65.3783 26.8972 -61.9083 27.0913C-58.4382 27.2854 -60.5973 24.5681 -60.5973 24.5681C-60.5973 24.5681 -63.0062 20.5408 -65.7711 19.5219C-68.5359 18.5029 -67.7816 18.5514 -69.2379 16.8046C-70.6941 15.0578 -76.2778 15.8827 -77.9374 15.7857C-79.597 15.6886 -79.4978 16.7561 -80.3541 17.7751C-81.1601 18.794 -79.1497 19.813 -78.9527 23.064C-78.7558 26.3149 -80.965 23.4521 -80.965 23.4521C-80.965 23.4521 -82.1702 22.045 -82.7218 20.7834C-83.2734 19.5219 -83.4737 18.8425 -82.6678 17.9206C-81.8619 16.9987 -81.5086 15.9797 -83.1656 13.9418C-84.8227 11.9039 -86.1796 11.1275 -86.8836 11.0305C-87.5876 10.9335 -87.3882 12.2921 -87.2891 13.4566C-87.19 14.6211 -86.4857 14.427 -85.6315 15.1064C-84.8277 15.7857 -85.1814 17.0472 -85.3843 18.3573C-85.5872 19.6674 -85.6363 18.7455 -86.891 16.7561C-88.1458 14.7667 -88.9519 15.8342 -90.0601 17.1928C-91.1684 18.5514 -88.1518 19.3763 -88.0544 21.8024C-87.9569 24.2285 -89.3626 22.2391 -89.3626 22.2391C-89.3626 22.2391 -90.8693 20.6379 -92.3269 19.9586ZM-138.155 66.7823C-138.155 66.7823 -137.056 72.0712 -135.647 71.8286C-132.83 71.3434 -134.94 69.5966 -137.401 66.7823C-137.602 66.4912 -138.456 65.5692 -138.155 66.7823ZM-77.7675 78.6217C-77.4659 78.7187 -77.1642 78.7672 -76.9129 78.9128C-76.5109 79.1554 -76.2097 79.5921 -75.7572 79.7377C-75.154 79.9803 -73.9462 79.398 -73.3425 79.2525C-70.7767 78.6702 -77.6139 76.5352 -78.8206 76.2441C-80.0273 75.953 -80.3791 75.7104 -83.0964 76.8749C-85.8138 78.0394 -80.7846 78.1364 -80.7846 78.1364C-79.7286 78.282 -78.7228 78.3791 -77.7675 78.6217ZM-71.6839 80.0773C-71.6842 80.3685 -71.6846 80.6596 -71.6344 80.7081C-71.3836 81.2419 -70.6792 81.0478 -70.1763 81.0478C-69.7236 81.0478 -66.907 80.9022 -68.214 80.417C-69.0183 80.1259 -69.8726 79.5921 -70.7775 79.301C-72.0846 78.8643 -71.6831 79.4951 -71.6839 80.0773ZM-83.1108 10.4968C-82.7096 11.3216 -82.1058 11.1761 -81.6032 11.4187C-81.1006 11.6613 -80.9505 12.2436 -80.8014 13.6507C-80.6524 15.0578 -76.0246 14.5241 -72.856 14.4756C-69.6874 14.427 -71.7474 12.8258 -75.771 12.9229C-77.5314 12.9714 -77.7322 12.6803 -78.2339 11.7583C-78.7357 10.8364 -79.5403 10.7879 -80.6965 10.3512C-81.8527 9.9145 -81.7514 9.33223 -82.8564 8.21623C-84.3633 6.71204 -83.5624 9.67188 -83.5624 9.67188C-83.5624 9.67188 -83.5121 9.67189 -83.1108 10.4968ZM-70.5385 11.4187C-68.2753 11.4187 -66.8627 8.11918 -66.7615 7.58544C-66.6602 7.0517 -65.3011 6.12978 -63.4905 6.12978C-61.6799 6.12978 -60.7243 6.12978 -59.9184 5.20786C-59.1125 4.28594 -59.968 4.72264 -57.3519 4.09185C-54.7358 3.46107 -54.7851 2.68472 -54.8341 1.71428C-54.8832 0.743835 -59.1079 0.792357 -60.2648 0.840879C-61.4216 0.889401 -61.3219 1.56871 -62.5803 2.34506C-63.8386 3.12141 -71.4321 2.39358 -73.8461 2.34506C-74.0976 2.34506 -74.3491 2.34506 -74.5504 2.44211C-74.2492 2.8788 -73.1931 2.97585 -72.7407 3.16994C-72.0872 3.41255 -71.7358 3.89777 -71.183 4.23742C-70.6301 4.52855 -69.9764 4.57707 -69.3729 4.6256C-63.0367 5.25638 -67.9159 5.79012 -68.4189 5.83865C-68.9219 5.88717 -69.7262 5.59604 -69.8788 6.85761C-70.0313 8.11918 -71.6902 7.4884 -72.5452 7.53692C-73.4003 7.58544 -73.0983 7.43987 -73.0963 5.88717C-73.0943 4.33446 -76.8164 4.6256 -78.4259 4.67412C-80.0354 4.72264 -79.3833 6.03273 -79.4858 7.53692C-79.5884 9.0411 -79.1859 8.99258 -77.5264 9.13814C-75.9172 9.28371 -76.4709 9.67189 -76.271 10.5938C-76.071 11.5157 -73.5561 11.3702 -73.5561 11.3702C-73.5561 11.3702 -72.8017 11.4187 -70.5385 11.4187ZM-52.2208 3.21846C-52.2208 3.21846 -53.6788 2.83028 -54.4346 3.84924C-55.1903 4.86821 -54.3857 4.96525 -56.1461 5.01377C-57.9064 5.06229 -57.806 5.15934 -58.2096 6.1783C-58.6133 7.19726 -59.4696 8.1677 -60.7269 8.1677C-61.9843 8.1677 -63.9955 7.73101 -63.7955 8.65292C-63.5956 9.62336 -61.8888 12.098 -61.0339 12.1465C-60.1789 12.195 -52.9859 11.4187 -52.235 14.1844C-51.4843 16.9987 -52.6974 21.6568 -51.3405 22.4332C-49.9835 23.2095 -50.5883 24.1314 -51.0412 24.3741C-51.4942 24.6167 -52.1976 24.0829 -52.1994 25.4901C-52.2013 26.8972 -51.7478 26.2664 -50.9446 27.4309C-50.1414 28.5955 -49.7385 28.1588 -49.7408 29.9056C-49.743 31.6524 -49.9451 32.3317 -48.5874 32.5258C-47.2297 32.7198 -46.0743 33.7873 -45.874 34.4181C-45.6736 35.0489 -44.3149 34.4666 -43.9618 33.6903C-43.6088 32.9139 -39.4272 27.4309 -38.1698 27.3339C-36.9123 27.2369 -34.7498 27.3824 -34.6981 26.3149C-34.6465 25.2475 -35.3486 23.6947 -33.7894 23.6462C-32.2302 23.5977 -29.2629 23.6462 -27.9534 22.2391C-26.644 20.8319 -23.9261 19.3278 -26.4403 18.9396C-27.5968 18.7455 -28.6518 17.7751 -28.0467 16.6105C-27.9962 16.465 -26.2361 16.6105 -25.9846 16.562C-25.3809 16.465 -24.576 16.2709 -24.2232 15.6886C-23.6686 14.6697 -23.114 13.6507 -22.5092 12.6317C-21.9549 11.8069 -20.142 10.0115 -22.4047 9.62336C-23.1086 9.4778 -23.4597 8.70145 -22.4527 7.87657C-22.4527 7.87657 -20.9397 4.6256 -19.4309 4.6256C-18.9782 4.6256 -14.703 4.43151 -15.3056 3.7522C-15.7074 3.3155 -15.7074 3.3155 -18.7248 3.12141C-19.1271 3.07289 -19.3781 2.73324 -19.73 2.58767C-20.2327 2.44211 -20.8866 2.49063 -21.3896 2.49063C-24.1056 2.63619 -23.2004 2.68472 -24.356 1.7628C-25.5116 0.840879 -26.618 0.840879 -31.4966 0.889401C-36.4255 0.937923 -38.2857 0.452703 -39.4941 1.47167C-40.7025 2.49063 -40.1501 3.12141 -42.7151 3.12141C-45.2801 3.12141 -52.2208 3.21846 -52.2208 3.21846ZM-25.9501 28.741C-25.9503 28.8866 -25.9506 29.0807 -25.9508 29.2263C-25.9513 29.6144 -25.9522 30.3423 -25.399 30.3423C-24.5943 30.3423 -23.7895 30.2937 -22.9847 30.2452C-22.5823 30.1967 -22.1299 30.3908 -21.8278 30.1482C-21.1231 29.663 -20.8205 29.0322 -19.8647 28.8866C-19.4623 28.8381 -18.3561 29.0322 -18.305 28.4499C-18.3047 28.2073 -18.6033 25.7812 -19.0053 25.4901C-20.0103 24.7622 -22.5268 26.1694 -24.2368 26.1694C-24.8403 26.1694 -25.4436 25.9753 -26.0975 26.0723C-26.6509 26.1694 -26.4505 26.8002 -26.3505 27.1883C-26.0997 27.7706 -25.9997 28.2073 -25.9501 28.741ZM-12.8888 40.3863C-12.8888 40.3863 -14.9024 41.7935 -14.9542 42.958C-15.0059 44.074 -15.3607 46.1604 -13.9513 45.287C-12.4916 44.4137 -11.4329 42.4728 -11.4329 42.4728C-11.4329 42.4728 -11.0759 38.591 -12.8888 40.3863ZM-9.71974 39.9981C-9.46897 40.5319 -9.36918 41.1627 -9.21906 41.7449C-8.96898 42.8124 -9.624 43.7343 -10.2285 44.5107C-10.7827 45.19 -11.5382 46.0634 -10.5332 46.7427C-9.17641 47.6161 -7.36309 45.5297 -6.1046 44.6563C-5.09783 43.977 -5.59922 42.7639 -6.20174 41.9875C-6.95476 40.9201 -7.85885 39.9981 -8.30993 38.7851C-8.71078 37.6206 -9.5647 36.7957 -10.3179 35.8253C-10.8702 35.1459 -11.625 35.4371 -11.9284 36.6986C-12.1813 37.8147 -11.3774 38.3969 -10.674 38.9792C-10.272 39.2703 -9.92041 39.61 -9.71974 39.9981ZM7.37794 41.7935C5.51661 42.1331 4.51022 42.5213 2.70019 42.0846C1.69462 41.842 2.15075 39.1733 1.09482 38.9792C0.742877 38.8821 0.19008 38.5425 -0.0618255 38.8821C-0.212956 39.0762 -0.113048 39.61 -0.113363 39.8526C-0.0637006 40.3378 0.236467 41.5508 -0.518069 41.6479C-1.52415 41.7935 -1.07066 41.1627 -1.67684 43.2006C-2.28302 45.2385 -4.44679 46.1119 -5.15142 46.5001C-5.85604 46.8883 -6.96376 47.8587 -8.67376 47.8587C-10.3837 47.8102 -10.6359 48.3439 -9.27914 49.2659C-8.2239 49.9937 -8.07441 51.0612 -7.97533 52.2257C-7.97533 52.2257 -7.97533 52.2257 -7.9754 52.2742C-7.92573 52.7594 -7.67646 54.4577 -8.43106 54.6033C-9.33654 54.7488 -12.354 54.6033 -13.6114 54.6033C-14.8687 54.6033 -14.3682 56.4956 -14.42 57.6602C-14.4718 58.8247 -14.1706 59.2129 -13.7684 59.3099C-13.3662 59.4555 -12.4112 59.8922 -11.9096 60.9597C-11.408 62.0271 -9.74767 61.4934 -8.03779 61.5904C-6.32791 61.6875 -6.62714 59.7466 -6.37473 59.0188C-6.12232 58.2909 -6.72529 57.8543 -5.01522 57.8057C-3.35546 57.7572 -2.75054 56.6897 -2.54779 55.4767C-2.34498 54.2151 -1.08911 55.3796 0.571912 54.3607C2.23293 53.3417 4.84431 56.3501 6 57.1749C6.55274 57.5631 8.00982 58.6791 7.90885 58.9703C7.5559 59.6496 4.89142 58.8247 5.69429 60.2318C6.74795 62.1727 7.85553 61.2993 9.41717 59.3584C11.029 57.4661 7.30943 55.8163 6.60601 55.2826C5.90265 54.7003 4.19403 53.6328 5.40292 52.2257C6.61174 50.8671 9.42391 54.1666 9.42391 54.1666C10.68 55.137 12.5376 57.7087 13.1383 59.8436C13.7894 61.9301 14.0407 62.1242 16.0019 62.2697C17.9632 62.4153 16.4576 59.9407 16.1571 58.9703C15.8062 58.0483 15.8065 57.8057 17.0638 57.8542C18.3211 57.9028 18.9719 60.2803 19.6749 61.1537C20.3778 62.0271 22.8414 62.6579 23.8478 62.2697C24.9045 61.8816 25.2068 61.4934 26.4123 62.6579C27.6179 63.8224 24.848 66.6853 23.9928 66.8308C23.1376 66.9764 21.5772 67.9468 19.5668 66.9279C17.5564 65.8604 17.2041 66.0545 14.9413 65.6663C12.6786 65.2781 13.0292 66.3941 12.4743 67.7042C11.9193 69.0143 10.8141 68.0439 10.3119 67.4616C9.80974 66.8793 5.63789 64.9385 4.13045 63.871C2.62302 62.8035 2.87586 61.736 2.324 60.6685C1.77215 59.601 0.0105934 60.5715 -0.291606 60.9111C-0.593804 61.2508 -2.05241 61.2993 -3.41035 61.2993C-4.76829 61.2993 -5.27092 61.0567 -6.07695 62.0757C-6.88297 63.0946 -6.83192 62.5124 -8.342 63.4828C-9.85208 64.4532 -11.3605 64.1136 -13.5738 64.4047C-15.7871 64.6959 -15.1386 68.7717 -15.1395 69.4995C-15.1405 70.2274 -15.4936 71.0522 -16.3987 70.8581C-17.3037 70.6641 -18.8685 75.031 -19.9258 75.953C-20.9832 76.8749 -20.3833 79.6892 -20.3343 80.6596C-20.2853 81.63 -21.1413 82.4064 -21.6948 82.6005C-22.2483 82.7946 -21.5484 86.0455 -21.9518 86.8704C-22.3552 87.6953 -19.4389 88.229 -19.4389 88.229C-19.1878 88.5687 -17.2775 89.1995 -16.0224 90.9948C-14.4662 93.2268 -12.9572 93.0812 -12.9572 93.0812C-12.9572 93.0812 -2.64686 93.0327 -0.283028 93.0327C0.722862 93.0327 1.67802 93.3724 2.33083 94.1487C2.93336 94.9251 3.53523 96.1866 2.9808 97.1086C2.47672 97.982 2.22324 99.5347 2.97658 100.36C3.37837 100.796 4.0318 101.087 4.5343 101.427C6.14251 102.349 6.69052 106.376 6.68781 108.463C6.68605 109.821 6.53335 111.228 6.12923 112.587C6.02808 113.024 5.87663 113.46 5.57437 113.849C5.17125 114.431 5.01992 114.771 5.06933 115.45C5.06794 116.517 4.86524 117.682 6.07174 118.119C6.82577 118.41 7.97819 121.758 7.97819 121.758C7.97819 121.758 10.9352 129.715 11.3353 131.462C11.7354 133.209 12.5905 133.112 13.1438 133.112C13.697 133.112 14.3004 133.209 14.4522 132.481C14.604 131.802 15.2576 131.947 15.2576 131.947C15.2576 131.947 15.861 132.044 18.4764 131.947C21.1421 131.85 23.0586 127.823 23.7132 127.192C24.3679 126.561 24.4184 126.367 24.3697 125.106C24.2708 123.796 24.5224 123.699 25.8302 123.602C27.1883 123.505 26.9885 122.437 27.042 119.914C27.0956 117.391 28.4043 116.614 30.2171 114.916C32.0299 113.218 30.7814 106.376 30.6341 103.611C30.4868 100.845 32.3494 99.5347 32.3494 99.5347C32.3494 99.5347 38.5469 90.8007 40.8133 88.4231C43.0796 86.0455 39.4073 86.6278 39.4073 86.6278C39.4073 86.6278 36.0375 86.7248 34.4787 86.5308C32.9197 86.3852 31.2641 83.2313 30.5108 82.4064C29.7574 81.5815 27.999 80.1259 27.6995 78.4276C27.3999 76.7293 26.7481 75.1766 26.7481 75.1766C26.5977 74.837 24.9903 73.2842 24.7915 71.4404C24.3442 67.316 25.9494 70.5185 25.9494 70.5185C25.9494 70.5185 26.5515 71.6345 28.7122 73.1387C30.8729 74.6914 32.0729 80.0773 33.1264 82.1638C34.1799 84.2502 34.029 84.2502 37.3483 84.2987C40.6676 84.3958 45.2002 79.6892 46.5593 78.8158C47.9183 77.9424 47.4671 76.8264 46.9154 75.6618C46.3637 74.4973 45.2066 74.7399 42.9942 74.3032C40.7818 73.915 40.0308 71.2948 38.0206 70.0818C36.0104 68.8687 37.8712 68.9658 39.2792 69.1114C40.6873 69.2569 40.8372 69.9848 41.5403 70.8096C42.2432 71.683 43.3491 72.1682 45.5623 71.9742C47.7754 71.8286 49.2328 72.6535 49.735 73.2842C50.2371 73.915 51.7452 74.4488 51.7452 74.4488C51.7452 74.4488 55.5173 74.4488 55.9693 74.934C56.4213 75.4192 56.1681 76.7293 58.6322 76.9719C61.0963 77.2145 62.2973 81.9212 62.2973 81.9212C62.2973 81.9212 62.9936 87.9379 64.7023 88.9569C68.0191 90.9463 67.1727 84.2988 67.3252 83.0372C67.4778 81.7756 71.2021 79.8347 72.5105 79.2525C73.064 79.0098 73.3162 78.4276 73.3673 77.8453C73.4181 77.4571 73.1175 76.5837 73.4196 76.2926C73.6713 76.0985 74.6772 76.147 74.9789 76.1956C75.6326 76.2926 76.8402 75.8074 77.1402 77.166C77.4402 78.5246 79.2486 80.2229 79.2486 80.2229C79.8012 80.7566 80.5049 81.0478 81.2591 81.1933C81.9128 81.2904 82.7179 80.9992 83.321 81.3389C84.1754 81.8241 83.62 83.4739 83.5687 84.2017C83.5677 84.9781 83.3655 85.7544 83.4651 86.5793C83.5645 87.4527 84.1168 88.1805 84.3169 89.0539C84.467 89.6362 84.5669 90.1699 84.6164 90.7522C84.6164 90.7522 86.6716 96.0896 89.5893 95.5559C91.5512 95.2162 88.1354 92.0137 86.6787 90.5581C85.2221 89.1024 85.1234 87.6468 85.7792 86.1426C86.4349 84.6384 87.6898 86.5308 89.8508 87.8408C92.0117 89.1509 91.1574 88.6657 92.9204 86.5308C94.6834 84.4443 93.1276 81.9212 92.5751 81.3874C92.0225 80.8537 89.7128 77.9424 92.4298 77.0204C95.0966 76.0985 97.7122 75.9044 99.171 75.7103C100.63 75.5163 100.481 74.0121 102.899 70.7126C105.318 67.4131 103.01 63.2402 102.006 61.5419C100.952 59.8436 100.752 58.9703 102.263 57.272C103.774 55.5737 105.228 58.6306 105.228 58.6306C105.228 58.6306 106.734 61.1052 108.743 63.5313C110.751 65.9574 111.208 62.6579 111.561 61.8816C111.914 61.0567 110.608 60.0377 109.855 58.9217C109.102 57.8057 109.959 56.0589 110.161 55.4281C110.363 54.7974 114.037 53.0991 115.194 52.6624C116.352 52.2257 117.561 50.3333 118.07 46.209C118.578 42.0846 119.578 46.5971 119.578 46.5971C119.578 46.5971 119.717 55.8648 119.664 57.5631C119.612 59.2614 119.711 59.9892 117.547 61.2993C115.383 62.6094 115.132 62.3183 113.975 62.5609C112.817 62.8035 112.415 63.1917 112.311 65.8604C112.206 68.5291 113.566 67.0734 113.718 66.4426C113.87 65.8119 114.375 63.968 115.833 64.1136C117.292 64.2592 119.607 62.6579 120.967 61.6875C122.326 60.717 121.726 58.0969 121.677 56.5927C121.629 55.0885 121.477 55.5252 122.836 55.4281C124.194 55.3311 123.691 55.2341 123.894 54.021C124.096 52.808 123.493 52.6624 122.236 52.6139C120.978 52.5654 121.231 51.4008 121.231 51.4008C121.231 51.4008 121.491 45.4326 121.191 44.0255C120.891 42.6669 119.133 40.6289 115.461 40.8715C111.789 41.1142 117.378 36.2619 119.141 34.5152C120.853 32.7684 122.562 33.9329 122.562 33.9329C122.562 33.9329 124.622 34.9033 127.488 35.4856C130.354 36.0679 128.999 33.8844 129.353 32.4287C129.707 30.9731 130.964 31.5553 133.326 33.108C135.688 34.6607 131.258 37.5235 130.704 38.3969C130.149 39.2703 131.454 41.5509 132.909 44.1225C134.364 46.6942 134.117 43.5403 134.319 42.5213C134.472 41.5023 134.372 40.5804 135.429 39.8041C136.487 39.0277 135.885 37.6691 135.887 35.5826C135.89 33.4962 137.399 33.7873 139.762 33.7873C142.126 33.8359 142.429 33.011 142.983 32.6713C143.536 32.3317 143.236 31.5553 146.757 31.1186C150.278 30.7304 142.946 22.045 142.344 21.4142C141.741 20.7834 131.43 21.3172 128.915 21.2201C126.401 21.1231 126.503 19.5704 126.001 18.9881C125.499 18.4058 119.815 18.8911 118.759 18.8425C117.703 18.794 116.599 16.6591 115.694 16.562C114.789 16.465 114.436 17.3384 113.529 18.1147C112.623 18.8911 112.625 17.0472 112.526 16.2709C112.426 15.4945 111.873 15.2519 110.868 14.9608C109.862 14.6697 109.859 17.2413 109.807 18.1147C109.756 18.9881 101.659 18.697 100.1 18.6485C98.541 18.5999 98.0402 16.9502 97.7407 15.2034C97.4412 13.4566 95.8294 15.3004 95.8294 15.3004L92.0068 15.4945C92.0068 15.4945 85.5694 15.3004 83.8591 15.543C82.1991 15.7857 83.8617 13.5536 84.7683 12.5347C85.6749 11.4672 81.5026 9.9145 81.0002 9.4778C80.4978 9.0411 77.1274 9.57484 76.4236 9.33223C75.7701 9.08962 75.2686 8.02214 75.067 8.36179C74.8653 8.70145 74.6125 9.72041 73.8574 10.2542C73.1023 10.7879 72.3985 10.5938 71.3924 10.7394C70.3863 10.8849 70.9893 11.3216 67.5695 11.1275C64.1497 10.982 63.996 13.1655 62.9382 14.3785C61.8302 15.5916 60.0197 15.4945 59.1647 15.543C58.3095 15.6401 58.6092 17.2898 58.2055 18.3088C57.8018 19.3278 56.1954 16.9987 55.5923 16.7076C54.9892 16.3679 55.1879 18.2603 55.1879 18.2603C55.1879 18.2603 55.1303 23.8888 54.8781 24.4711C54.6259 25.0534 52.721 20.2012 52.7224 19.0852C52.7742 17.9692 51.8217 15.543 51.6211 15.1064C51.4707 14.7182 50.967 15.349 50.312 16.2224C49.657 17.0958 50.0572 18.8425 49.9047 20.0556C49.7522 21.2686 49.0489 20.6379 47.0875 20.6379C45.126 20.6379 44.7731 21.2686 43.9675 21.9965C43.1618 22.7243 40.1947 22.5302 38.4847 22.5302C36.7747 22.5302 35.9185 23.4521 34.3582 24.3741C32.7979 25.296 33.2021 23.8403 32.1979 22.5302C31.1435 21.1716 30.7886 23.4036 30.2341 24.3741C29.6796 25.3445 26.7659 22.7728 25.3591 21.6568C23.9523 20.5408 23.0962 21.3657 22.3418 21.3657C21.5874 21.3657 20.732 21.6568 19.9289 20.3953C19.1259 19.1337 17.0133 19.2792 14.7511 18.5514C12.4888 17.8236 11.7826 19.4248 9.36737 20.2497C6.95218 21.0746 6.3469 22.4332 6.3469 22.4332C6.3469 22.4332 6.34688 22.4332 6.1943 23.7433C6.04172 25.0534 4.38015 26.509 3.32233 27.7706C2.2645 29.0322 0.252613 29.1292 -0.854619 29.7115C-1.96185 30.2937 -1.2119 33.7388 -1.16343 35.1459C-1.11491 36.5046 1.19988 35.5341 2.7087 35.5341C4.16722 35.5341 3.36096 36.7472 3.15903 37.3294C3.05788 37.7661 2.30358 37.6691 2.15232 37.9602C2.10197 38.0087 2.10184 38.1058 2.15195 38.2514C2.35249 38.7366 2.90524 39.1247 3.20636 39.61C4.15999 41.1141 4.86625 39.4644 4.86625 39.4644C4.86625 39.4644 6.32717 37.6206 7.63734 35.6797C8.79632 33.9814 6.68565 32.6713 7.94508 31.0701C9.00303 29.7115 10.3122 28.4984 11.6211 27.528C13.8866 25.8297 14.2373 26.8487 14.8899 27.8191C15.5425 28.7896 11.6178 30.1482 10.5081 32.6228C9.39838 35.0974 13.1726 33.4477 12.1136 35.5826C9.99492 40.4834 9.3902 41.4053 7.37794 41.7935ZM39.2442 18.5999C39.9476 19.1337 40.7014 19.6189 41.5056 20.0556C41.7568 20.2012 42.9127 20.8805 42.612 20.1041C42.4115 19.5704 41.9596 19.0366 41.6081 18.5999C40.9051 17.7265 41.0064 17.1443 41.0079 15.9797C41.0094 14.8152 43.4248 13.8448 43.4248 13.8448C51.7285 9.86597 43.9803 12.098 42.7731 12.2436C41.6162 12.3406 40.4592 12.4862 39.8554 12.6803C39.2517 12.8743 37.8917 14.427 37.2362 15.7371C37.0345 16.1253 37.1345 16.6105 37.2848 16.9987C37.4353 17.2898 37.6362 17.5325 37.9377 17.7265C38.39 18.0177 38.8925 18.3088 39.2442 18.5999ZM35.2978 114.14C34.6434 114.625 34.7923 116.129 34.7386 118.701C34.7377 119.429 35.6866 124.572 36.9463 122.777C36.9464 122.728 38.6091 120.399 38.6611 119.089C38.7131 117.73 39.8717 116.372 40.3255 115.45C40.7794 114.528 40.5295 113.315 39.5765 111.326C38.6235 109.336 37.5126 112.684 37.5126 112.684C37.2102 113.218 35.9523 113.655 35.2978 114.14ZM86.3654 99.4376C87.0685 100.214 87.7716 101.039 88.4747 101.815C88.8262 102.203 89.1778 102.592 89.5294 102.98C89.9312 103.368 90.4337 103.756 90.6342 104.241C90.8347 104.727 90.7835 105.406 91.1854 105.794C91.537 106.134 92.0903 106.134 92.543 106.085C94.5045 106.037 96.4658 106.134 98.4776 106.134C110.045 106.134 101.295 105.357 100.792 105.26C100.289 105.163 99.233 105.406 98.2783 104.727C97.3236 104.047 92.998 104.241 92.998 104.241C92.998 104.241 91.4891 104.29 91.6919 103.077C91.8946 101.864 91.291 101.961 89.3838 98.9039C87.4766 95.847 87.5744 97.982 84.5606 95.0221C81.5468 92.0623 83.4037 95.0706 84.0058 96.2351C84.6078 97.3997 85.9638 98.9039 85.9638 98.9039C86.0641 99.098 86.2147 99.292 86.3654 99.4376ZM102.911 100.651C102.709 101.281 102.708 101.864 103.462 102.106C104.87 102.495 104.619 102.058 106.028 101.184C106.28 101.039 107.035 100.602 106.985 100.262C106.935 99.9714 106.281 99.9714 106.03 99.8258C105.779 99.6317 105.528 99.3891 105.226 99.3891C104.823 99.3406 104.421 99.3406 104.019 99.3891C103.516 99.4376 103.264 99.5832 103.113 99.9714C103.012 100.165 102.961 100.408 102.911 100.651ZM98.4352 100.068C98.8879 100.068 99.3908 100.068 99.8437 99.8743C100.246 99.7287 100.498 99.3891 100.8 99.1465C101.354 98.7098 101.455 98.2246 101.556 97.7393C101.86 96.4292 101.761 95.0221 101.763 93.712C101.766 91.383 101.413 91.8197 101.012 90.8492C100.812 90.3155 99.1009 90.9463 98.3961 91.48C97.6913 92.0137 98.0924 92.9357 98.0412 93.615C98.0401 94.4884 97.1346 94.6339 96.5305 95.0706C95.7754 95.6044 95.0705 96.1866 94.3657 96.7689C93.4594 97.4967 94.3134 98.2731 94.7147 99.0494C94.8151 99.2435 94.9657 99.4861 95.1667 99.6317C95.5183 99.9228 95.9709 99.9714 96.3732 100.02C96.4235 100.02 96.4235 100.02 96.4738 100.02C97.1275 100.068 97.7814 100.068 98.4352 100.068ZM106.546 89.345C106.898 90.0729 107.4 90.8007 107.851 91.48C108.102 91.8682 108.655 92.499 109.158 92.1108C109.813 91.6256 109.663 90.8007 109.664 90.1699C109.666 88.7143 109.819 86.5793 109.217 85.5603C108.564 84.5414 107.358 83.9591 106.605 82.9886C106.002 82.2608 105.499 82.3579 104.748 79.6406C103.947 76.9234 104.194 80.3199 104.041 82.0182C103.888 83.7165 105.496 85.0751 105.496 85.0751C106.651 86.3367 105.895 87.8894 106.546 89.345ZM118.851 102.786C119.455 102.834 120.008 103.028 120.409 103.513C120.911 104.096 121.061 104.775 121.463 105.406C121.714 105.843 122.115 106.425 122.769 106.279C123.373 106.085 123.978 105.503 124.48 106.134C125.183 107.007 125.535 106.619 125.535 106.619C125.737 106.473 127.297 105.551 128.051 106.134C132.422 109.579 130.564 107.007 129.459 105.648C128.355 104.29 125.541 102.3 124.285 101.087C123.029 99.8743 120.463 100.942 119.055 100.748C117.647 100.554 118.101 99.3406 117.348 98.5157C116.594 97.6908 113.576 98.5642 112.872 98.2246C112.168 97.8849 111.816 97.7393 111.818 96.8174C111.818 96.6719 111.518 95.4588 111.165 95.8955C111.014 96.0896 111.114 96.6233 111.113 96.866C111.113 97.2541 111.112 97.6423 111.162 98.0305C111.312 98.9524 112.067 98.5642 113.323 99.292C114.58 99.9714 115.031 101.184 115.281 102.203C115.481 103.028 116.537 102.98 117.342 102.883C117.845 102.834 118.348 102.786 118.851 102.786ZM125.644 138.837C125.393 138.789 124.89 138.74 124.789 139.032C124.688 139.323 125.241 139.662 125.241 139.905C125.24 140.293 125.138 141.506 126.345 141.603C127.501 141.7 127.703 141.021 127.956 139.905C128.007 139.711 128.007 139.517 127.907 139.323C127.756 139.08 127.404 139.032 127.153 139.032C126.901 138.983 126.65 138.983 126.348 138.935C126.097 138.886 125.896 138.886 125.644 138.837ZM112 110.986C110.642 111.131 109.384 111.956 108.226 112.587C107.471 112.975 106.666 113.46 106.313 114.285C106.01 114.965 106.059 116.129 105.958 116.857C105.806 117.73 103.443 116.954 102.537 117.1C101.632 117.245 101.932 118.119 101.63 118.41C101.278 118.701 100.021 118.361 98.9644 118.555C97.7068 118.798 98.3075 120.933 98.2059 121.758C98.1042 122.583 97.8014 123.407 97.5991 124.232C97.1947 125.785 98.1505 125.64 98.9547 126.028C99.7589 126.416 99.0016 128.648 99.1509 129.861C99.3004 130.977 100.808 132.044 101.763 132.433C102.416 132.724 103.221 132.578 103.925 132.578C104.73 132.578 105.535 132.627 106.289 132.433C107.044 132.238 107.598 131.656 108.252 131.22C109.259 130.492 110.366 130.152 111.623 130.249C112.931 130.346 114.188 130.492 115.496 130.54C116.2 130.54 117.407 130.298 117.607 131.171C117.757 131.802 117.656 132.481 117.806 133.112C118.106 134.471 119.062 133.985 120.219 133.985C121.376 133.985 121.425 134.859 121.725 135.684C122.226 137.091 123.283 136.994 124.59 136.994C125.496 136.994 126.401 136.994 127.306 136.945C128.866 136.8 129.823 135.295 129.823 135.295C129.823 135.295 131.89 131.899 132.897 130.54C133.905 129.182 134.311 126.125 134.314 123.747C134.318 121.37 130.902 118.022 130.902 118.022C130.902 118.022 126.332 112.539 125.529 111.714C124.725 110.889 125.229 109.87 124.929 108.948C124.678 108.026 123.922 109.53 123.067 109.773C122.211 110.015 122.66 113.315 122.659 113.8C122.658 114.285 121.602 114.188 121.05 113.509C120.498 112.83 120.145 112.975 119.341 112.539C118.537 112.102 118.035 111.277 117.936 109.967C117.888 108.657 116.479 109.093 114.87 109.045C113.26 108.996 113.914 109.482 113.611 110.307C113.409 110.84 112.805 110.889 112.302 110.937C112.151 110.937 112.051 110.986 112 110.986ZM146.612 142.428L146.562 142.477C146.008 143.107 144.345 145.242 145.351 145.388C146.306 145.534 147.513 146.067 148.117 145.436C148.722 144.709 148.521 144.126 150.333 143.447C151.238 143.107 151.996 140.439 151.996 140.439C151.996 140.439 151.696 139.468 151.093 138.886C150.591 138.449 149.381 140.099 148.928 140.536C148.173 141.215 147.267 141.749 146.612 142.428ZM154.716 137.479C155.069 136.46 155.823 137.042 155.824 136.314C155.825 135.586 153.614 134.276 152.86 133.646C151.353 132.433 152.758 135.004 152.405 135.684C151.951 136.46 151.901 136.46 152.252 137.382C152.352 137.624 152.602 138.789 152.853 138.886C154.311 139.371 154.363 138.546 154.716 137.479Z" stroke="#475566" stroke-opacity="0.3" stroke-width="2" mask="url(#path-1-inside-1_405_9663)"/>
</svg>
