<svg width="169" height="385" viewBox="0 0 169 385" fill="none" xmlns="http://www.w3.org/2000/svg">
<mask id="path-1-inside-1_405_5841" fill="white">
<path d="M-449.486 40.9936C-451.074 40.1508 -452.655 39.4256 -454.441 39.1856C-456.814 38.9832 -459.503 39.391 -461.812 38.3582C-463.392 37.633 -466.719 33.5965 -462.935 33.7088C-460.334 33.7787 -455.287 33.3381 -453.651 31.2271C-449.507 25.887 -442.738 37.6116 -437.766 35.9956C-435.108 35.1176 -434.745 31.5535 -431.819 33.0189C-429.988 33.9642 -428.002 35.4898 -426.604 37.0528C-424.573 39.2837 -425.783 40.6593 -428.457 41.3023C-430.903 41.8127 -433.387 41.7353 -435.973 41.9005C-438.324 42.0508 -440.66 42.4361 -442.996 42.8214C-445.332 43.2067 -447.413 42.0414 -449.486 40.9936ZM-423.441 23.7494C-423.441 23.7494 -421.802 29.0741 -419.877 29.6592C-418.068 30.2518 -417.068 31.1322 -416.05 28.5885C-415.025 26.1624 -417.796 25.2772 -419.914 23.5241C-422.033 21.7709 -425.5 17.3893 -423.441 23.7494ZM-429.994 56.0362C-433.508 54.6084 -432.005 52.2698 -433.429 48.4657C-434.852 44.6617 -437.073 48.6985 -440.249 52.5604C-443.425 56.4223 -447.262 49.9398 -449.138 48.2892C-451.014 46.6386 -449.391 46.1808 -458.495 45.9363C-467.489 45.5667 -466.798 45.2865 -470.502 50.1264C-474.206 54.9662 -466.875 53.3175 -461.665 53.5748C-456.456 53.832 -456.143 56.8808 -456.41 60.0847C-456.678 63.2886 -466.297 62.3689 -475.298 61.8818C-484.3 61.3947 -483.349 63.3404 -487.806 65.6317C-492.263 67.923 -502.24 63.2491 -506.319 62.2115C-510.398 61.1738 -537.565 64.562 -541.562 64.8174C-545.558 65.0728 -547.597 68.2718 -550.563 69.8777C-553.529 71.4836 -551.883 76.9258 -551.835 79.5194C-551.787 82.1131 -557.815 80.1376 -560.871 80.3329C-563.928 80.5282 -562.992 82.2389 -563.085 84.4873C-563.177 86.7358 -561.869 86.8883 -558.24 86.4203C-554.611 85.9524 -553.045 86.4425 -552.77 88.9035C-552.495 91.3646 -557.397 90.3795 -560.336 90.5673C-563.274 90.755 -561.768 95.8521 -560.903 100.164C-560.037 104.476 -557.261 103.59 -555.54 104.661C-553.819 105.731 -551.363 107.226 -564.858 113.99C-578.354 120.754 -565.118 117.312 -562.827 116.221C-560.537 115.13 -550.395 111.296 -547.339 111.1C-544.282 110.905 -539.806 107.078 -536.137 103.539C-532.468 99.9995 -520.263 100.754 -511.556 100.316C-502.85 99.8775 -494.11 118.44 -489.691 121.108C-485.271 123.777 -483.276 147.609 -482.943 154.67C-482.61 161.73 -477.13 166.219 -474.636 168.303C-472.142 170.386 -465.564 182.831 -458.668 191.006C-451.764 199.299 -455.401 188.555 -457.598 183.738C-459.801 178.804 -455.864 183.155 -455.864 183.155C-455.864 183.155 -443.753 195.365 -441.137 201.217C-438.52 207.069 -428.558 211.508 -422.063 211.565C-415.568 211.622 -415.573 213.393 -415.573 213.393C-415.573 213.393 -415.767 215.884 -407.949 216.329C-400.248 216.781 -401.158 222.859 -397.834 225.007C-394.51 227.155 -389.415 229.308 -385.066 229.03C-380.716 228.752 -382.275 228.38 -381.242 231.619C-380.208 234.857 -382.979 239.52 -385.062 242.013C-387.146 244.507 -387.035 249.929 -386.63 256.277C-386.224 262.625 -383.673 263.76 -383.673 263.76C-383.673 263.76 -368.875 284.768 -365.574 286.564C-362.272 288.359 -362.472 292.621 -362.472 292.621C-362.472 292.621 -360.414 324.83 -360.374 327.306C-360.334 329.782 -360.569 329.797 -362.497 332.871C-364.425 335.945 -363.659 342.388 -363.659 342.388C-363.659 342.388 -362.187 370.975 -362.051 373.091C-361.916 375.207 -358.452 377.7 -347.387 382.777C-336.322 387.853 -344.628 379.768 -345.932 377.844C-347.235 375.921 -346.742 370.696 -346.99 366.817C-347.238 362.938 -344.074 360.729 -342.932 358.296C-341.789 355.862 -343.077 354.174 -343.34 350.06C-343.603 345.945 -339.153 343.537 -339.153 343.537C-339.153 343.537 -315.635 316.303 -313.787 313.825C-311.939 311.346 -311.879 306.739 -312.279 304.168C-312.68 301.597 -305.402 293.578 -301.256 290.126C-297.109 286.674 -294.271 277.523 -294.164 275.509C-294.056 273.496 -294.232 268.904 -291.436 266.483C-288.639 264.062 -289.065 259.249 -288.212 254.12C-287.36 248.99 -296.801 249.003 -302.677 245.72C-308.552 242.436 -317.553 241.949 -318.259 241.994C-318.964 242.039 -322.931 242.765 -322.883 239.811C-322.836 236.857 -325.628 231.96 -327.196 229.582C-328.764 227.203 -330.99 227.464 -333.694 227.636C-336.397 227.809 -345.114 220.694 -348.791 218.568C-352.468 216.443 -359.518 218.782 -364.303 217.789C-369.087 216.796 -366.736 216.646 -371.043 215.741C-375.35 214.836 -376.973 220.841 -378.934 221.557C-380.895 222.272 -387.375 222.45 -389.748 222.248C-392.122 222.045 -394.148 218.044 -394.976 214.32C-395.804 210.596 -397.202 209.032 -400.489 207.472C-403.775 205.912 -404.501 201.945 -404.329 199.101C-404.156 196.257 -406.17 196.15 -408.528 196.183C-410.887 196.215 -410.709 197.148 -411.169 199.184C-411.629 201.22 -413.45 202.281 -418.557 201.781C-423.672 201.163 -426.171 195.304 -427.066 190.522C-427.962 185.74 -428.017 183.028 -424.906 179.997C-421.795 176.965 -420.757 178.433 -416.245 178.853C-411.733 179.273 -408.835 176.609 -406.091 173.365C-403.348 170.121 -399.491 175.068 -399.491 175.068C-399.491 175.068 -399.491 175.068 -394.19 182.283C-388.89 189.499 -389.966 181.895 -391.607 174.682C-393.248 167.469 -372.276 142.877 -369.077 139.368C-365.879 135.859 -366.141 137.292 -360.294 136.446C-354.446 135.601 -352.596 129.463 -349.345 126.776C-346.094 124.09 -353.962 124.711 -357.609 123.055C-361.255 121.4 -355.408 120.554 -353.359 119.361C-351.311 118.168 -346.882 117.295 -340.982 117.272C-335.082 117.249 -350.98 97.4914 -353.599 95.2981C-356.217 93.1048 -355.737 89.5333 -357.131 86.1994C-358.524 82.8656 -362.16 88.7633 -364.866 92.5952C-367.572 96.427 -367.687 92.7754 -367.36 90.512C-367.032 88.2485 -369.534 86.0477 -370.787 83.059C-372.04 80.0703 -379.503 81.4914 -382.214 81.5466C-384.926 81.6018 -384.44 81.8068 -384.97 86.4439C-385.5 91.0809 -384.019 93.937 -382.926 98.1163C-381.833 102.295 -386.167 108.356 -388.683 111.467C-391.199 114.579 -392.129 111.097 -392.435 108.166C-392.74 105.235 -394.12 105.795 -397.442 105.535C-400.763 105.276 -401.006 105.173 -402.494 102.199C-403.983 99.2256 -408.497 96.9174 -412.626 96.9452C-416.756 96.973 -415.921 89.7198 -416.006 86.5385C-416.099 83.2395 -409.994 82.7314 -408.033 82.016C-406.072 81.3005 -402.916 78.9743 -399.384 82.5256C-395.86 85.9594 -392.919 82.1125 -392.919 82.1125C-392.919 82.1125 -388.112 77.9104 -388.262 75.5594C-388.413 73.2084 -389.426 73.9813 -392.599 74.1841C-395.773 74.3869 -396.243 74.4169 -396.416 71.7133C-396.589 69.0096 -396.604 68.7745 -390.969 68.2964C-385.334 67.8184 -388.251 62.8114 -385.705 60.1701C-383.159 57.5288 -380.453 59.2443 -380.6 64.329C-380.747 69.4137 -375.117 65.159 -371.743 66.2418C-368.369 67.3245 -369.792 69.0679 -372.576 69.8359C-375.36 70.6039 -373.419 71.4241 -372.401 74.4279C-371.383 77.4316 -371.788 76.6313 -362.809 76.7657C-353.83 76.9002 -361.764 72.8039 -362.411 71.9011C-363.059 70.9982 -365.913 68.82 -357.772 68.7719C-349.631 68.7239 -355.106 62.464 -355.106 62.464C-355.106 62.464 -361.372 53.0679 -367.995 51.0125C-374.618 48.957 -372.848 48.9619 -376.527 44.9479C-380.206 40.9339 -393.127 43.766 -397.021 43.7788C-400.915 43.7915 -400.515 46.3626 -402.355 48.9589C-404.078 51.5476 -399.219 53.7157 -398.245 61.5615C-397.272 69.4073 -402.887 62.8024 -402.887 62.8024C-402.887 62.8024 -405.926 59.5737 -407.414 56.6C-408.903 53.6263 -409.478 52.0106 -407.74 49.657C-406.002 47.3034 -405.337 44.7823 -409.531 40.093C-413.726 35.4038 -417.02 33.7258 -418.681 33.5958C-420.342 33.4659 -419.661 36.7272 -419.246 39.5334C-418.83 42.3396 -417.215 41.7642 -415.111 43.2823C-413.125 44.8078 -413.753 47.9167 -414.02 51.1206C-414.288 54.3245 -414.548 52.0985 -417.794 47.4667C-421.041 42.835 -422.757 45.5412 -425.133 48.9979C-427.508 52.4545 -420.328 54.0022 -419.717 59.8647C-419.106 65.7272 -422.706 61.1179 -422.706 61.1179C-422.706 61.1179 -426.48 57.4641 -429.994 56.0362ZM-529.717 176.307C-529.717 176.307 -526.312 188.955 -523.058 188.157C-516.55 186.561 -521.758 182.644 -527.953 176.195C-528.469 175.519 -530.61 173.413 -529.717 176.307ZM-386.706 195.969C-385.986 196.159 -385.273 196.231 -384.663 196.546C-383.685 197.074 -382.912 198.087 -381.831 198.372C-380.383 198.87 -377.652 197.279 -376.264 196.836C-370.359 195.042 -386.677 190.891 -389.543 190.366C-392.409 189.841 -393.27 189.306 -399.437 192.533C-405.604 195.76 -393.834 195.244 -393.834 195.244C-391.343 195.439 -388.977 195.524 -386.706 195.969ZM-372.257 198.586C-372.212 199.292 -372.167 199.997 -372.042 200.107C-371.372 201.362 -369.756 200.787 -368.581 200.712C-367.523 200.644 -360.962 199.871 -364.094 198.891C-366.02 198.306 -368.101 197.14 -370.262 196.57C-373.386 195.708 -372.347 197.176 -372.257 198.586ZM-409.947 31.7394C-408.879 33.6777 -407.491 33.2349 -406.278 33.7476C-405.065 34.2602 -404.622 35.6483 -404.052 39.0347C-403.481 42.4211 -392.749 40.4371 -385.351 39.8463C-377.953 39.2556 -383.02 35.6844 -392.409 36.5203C-396.516 36.9008 -397.031 36.2255 -398.35 34.0672C-399.668 31.9088 -401.556 31.9115 -404.327 31.0263C-407.099 30.1411 -406.954 28.7154 -409.712 26.177C-413.472 22.7583 -411.133 29.8087 -411.133 29.8087C-411.133 29.8087 -411.015 29.8012 -409.947 31.7394ZM-380.417 32.0951C-375.127 31.7571 -372.346 23.5534 -372.194 22.2453C-372.042 20.9373 -369.01 18.501 -364.779 18.2306C-360.547 17.9602 -358.313 17.8175 -356.575 15.4639C-354.837 13.1103 -356.768 14.2959 -350.753 12.3772C-344.738 10.4584 -344.976 8.58516 -345.243 6.24167C-345.511 3.89817 -355.378 4.64665 -358.074 4.93695C-360.77 5.22726 -360.43 6.85794 -363.249 8.92652C-366.067 10.9951 -383.93 10.366 -389.58 10.609C-390.168 10.6465 -390.755 10.6841 -391.21 10.9492C-390.438 11.9621 -387.954 12.0395 -386.866 12.4421C-385.3 12.9322 -384.402 14.0551 -383.057 14.7954C-381.719 15.418 -380.183 15.4379 -378.765 15.4654C-363.856 16.0471 -375.176 18.0687 -376.344 18.2614C-377.512 18.4541 -379.437 17.8689 -379.595 20.9478C-379.752 24.0266 -383.729 22.7463 -385.72 22.9916C-387.711 23.2368 -387.028 22.8391 -387.268 19.0775C-387.509 15.3159 -396.162 16.577 -399.916 16.9349C-403.67 17.2928 -401.939 20.369 -401.942 24.0281C-401.944 27.6872 -401.011 27.5095 -397.109 27.6143C-393.325 27.7266 -394.558 28.7496 -393.945 30.953C-393.332 33.1565 -387.477 32.4282 -387.477 32.4282C-387.477 32.4282 -385.707 32.4331 -380.417 32.0951ZM-338.898 9.49515C-338.898 9.49515 -342.367 8.77257 -343.973 11.3538C-345.578 13.935 -343.682 14.0499 -347.789 14.4304C-351.896 14.8108 -351.646 15.0309 -352.428 17.5595C-353.211 20.0882 -355.059 22.5668 -357.998 22.7546C-360.937 22.9424 -365.706 22.1849 -365.093 24.3883C-364.473 26.7093 -360.093 32.4489 -358.087 32.4388C-356.081 32.4287 -339.392 29.4738 -337.201 36.0615C-335.002 42.7667 -337.102 54.2318 -333.808 55.9098C-330.514 57.5878 -331.782 59.9114 -332.802 60.5667C-333.822 61.2221 -335.551 60.0342 -335.333 63.4432C-335.115 66.8521 -334.155 65.2564 -332.094 67.9574C-330.033 70.6584 -329.16 69.5404 -328.889 73.7722C-328.619 78.004 -328.984 79.6797 -325.78 79.9471C-322.576 80.2145 -319.707 82.6279 -319.14 84.126C-318.572 85.6241 -315.488 84.0107 -314.785 82.0773C-314.083 80.144 -305.175 66.2374 -302.251 65.8145C-299.327 65.3916 -294.25 65.4213 -294.298 62.8277C-294.345 60.2341 -296.231 56.5776 -292.595 56.2272C-288.958 55.8768 -282.015 55.5512 -279.177 51.947C-276.338 48.3427 -270.224 44.2931 -276.161 43.7282C-278.895 43.4308 -281.514 41.2375 -280.283 38.3262C-280.188 37.966 -276.052 38.0558 -275.471 37.9007C-274.076 37.5754 -272.225 36.9851 -271.492 35.5219C-270.357 32.9707 -269.222 30.4195 -267.969 27.8609C-266.803 25.7799 -262.849 21.1601 -268.199 20.5577C-269.868 20.3102 -270.811 18.482 -268.587 16.3334C-268.587 16.3334 -265.564 8.23224 -262.038 8.00691C-260.98 7.93931 -251.018 6.83067 -252.534 5.2751C-253.542 4.27724 -253.542 4.27724 -260.625 4.2577C-261.573 4.20024 -262.213 3.41494 -263.058 3.11487C-264.256 2.83733 -265.777 3.05252 -266.952 3.12763C-273.278 3.88588 -271.154 3.86823 -274.001 1.80753C-276.847 -0.253166 -279.433 -0.0879257 -290.828 0.758193C-302.34 1.61183 -306.765 0.714231 -309.428 3.36305C-312.092 6.01187 -310.701 7.4574 -316.696 7.84046C-322.691 8.22352 -338.898 9.49515 -338.898 9.49515ZM-273.468 67.3983C-273.446 67.7509 -273.416 68.2211 -273.393 68.5738C-273.333 69.5142 -273.221 71.2774 -271.928 71.1948C-270.047 71.0746 -268.173 70.8369 -266.3 70.5992C-265.367 70.4215 -264.279 70.8241 -263.612 70.1913C-262.041 68.9107 -261.433 67.3374 -259.222 66.8421C-258.289 66.6644 -255.673 66.9694 -255.646 65.5513C-255.683 64.9635 -256.764 59.1311 -257.75 58.4859C-260.213 56.8728 -265.873 60.6574 -269.87 60.9127C-271.28 61.0029 -272.721 60.6228 -274.234 60.9555C-275.512 61.2733 -274.944 62.7714 -274.649 63.6967C-273.971 65.0698 -273.669 66.1127 -273.468 67.3983ZM-241.103 93.6574C-241.103 93.6574 -245.587 97.3668 -245.524 100.196C-245.469 102.907 -245.969 108.014 -242.813 105.688C-239.539 103.354 -237.371 98.4943 -237.371 98.4943C-237.371 98.4943 -237.149 89.0377 -241.103 93.6574ZM-233.757 92.2438C-233.087 93.4993 -232.754 95.0125 -232.311 96.4005C-231.558 98.9491 -232.944 101.28 -234.234 103.251C-235.422 104.979 -237.05 107.208 -234.594 108.703C-231.285 110.617 -227.376 105.292 -224.573 102.988C-222.327 101.192 -223.69 98.3283 -225.221 96.5376C-227.149 94.0642 -229.408 91.9659 -230.654 89.0948C-231.774 86.3337 -233.9 84.463 -235.814 82.2247C-237.212 80.6616 -238.93 81.4795 -239.44 84.5809C-239.855 87.3221 -237.884 88.6125 -236.148 89.918C-235.163 90.5632 -234.288 91.3335 -233.757 92.2438ZM-193.512 94.0394C-197.809 95.1402 -200.1 96.2308 -204.399 95.4433C-206.788 95.0057 -206.143 88.4729 -208.642 88.1604C-209.48 87.9779 -210.825 87.2377 -211.36 88.0981C-211.683 88.5908 -211.365 89.8688 -211.328 90.4566C-211.135 91.6246 -210.242 94.5183 -211.99 94.866C-214.319 95.3689 -213.358 93.7731 -214.453 98.8004C-215.549 103.828 -220.468 106.266 -222.054 107.312C-223.639 108.358 -226.075 110.874 -230.072 111.129C-234.076 111.267 -234.581 112.598 -231.265 114.628C-228.683 116.234 -228.166 118.797 -227.75 121.604C-227.75 121.604 -227.75 121.604 -227.743 121.721C-227.55 122.889 -226.699 126.966 -228.44 127.431C-230.533 127.919 -237.609 128.017 -240.548 128.205C-243.487 128.393 -242.018 132.902 -241.955 135.731C-241.893 138.559 -241.127 139.455 -240.172 139.63C-239.209 139.922 -236.908 140.837 -235.567 143.348C-234.226 145.859 -230.43 144.319 -226.418 144.298C-222.406 144.278 -223.412 139.621 -222.937 137.82C-222.462 136.019 -223.94 135.052 -219.951 134.679C-216.079 134.313 -214.834 131.637 -214.552 128.668C-214.277 125.582 -211.158 128.215 -207.436 125.499C-203.715 122.783 -197.136 129.68 -194.305 131.506C-192.952 132.363 -189.37 134.849 -189.56 135.57C-190.278 137.268 -196.636 135.668 -194.537 138.956C-191.768 143.501 -189.317 141.219 -185.974 136.285C-182.505 131.46 -191.459 128.019 -193.187 126.831C-194.923 125.526 -199.085 123.195 -196.482 119.606C-193.871 116.134 -186.777 123.707 -186.777 123.707C-183.688 125.87 -178.941 131.822 -177.2 136.904C-175.349 141.861 -174.731 142.294 -170.124 142.354C-165.517 142.413 -169.427 136.644 -170.282 134.338C-171.248 132.157 -171.285 131.569 -168.339 131.499C-165.393 131.429 -163.496 137.091 -161.716 139.102C-159.935 141.113 -154.077 142.273 -151.786 141.182C-149.378 140.084 -148.732 139.098 -145.731 141.739C-142.73 144.38 -148.752 151.729 -150.727 152.209C-152.703 152.69 -156.197 155.273 -161.057 153.105C-165.924 150.82 -166.717 151.342 -172.067 150.74C-177.417 150.138 -176.421 152.789 -177.511 156.045C-178.602 159.302 -181.338 157.116 -182.603 155.78C-183.869 154.445 -193.926 150.366 -197.618 148.005C-201.31 145.645 -200.887 143.021 -202.345 140.518C-203.804 138.014 -207.768 140.628 -208.421 141.496C-209.073 142.364 -212.475 142.699 -215.649 142.902C-218.822 143.105 -220.035 142.592 -221.759 145.181C-223.482 147.77 -223.454 146.351 -226.83 148.928C-230.207 151.504 -233.786 150.907 -238.913 151.942C-244.04 152.978 -241.881 162.755 -241.768 164.518C-241.656 166.281 -242.351 168.332 -244.497 167.997C-246.643 167.662 -249.611 178.475 -251.937 180.866C-254.263 183.257 -252.416 189.985 -252.149 192.328C-251.881 194.672 -253.759 196.68 -255.022 197.233C-256.285 197.786 -254.136 205.557 -254.949 207.615C-255.761 209.673 -248.861 210.531 -248.861 210.531C-248.221 211.316 -243.656 212.559 -240.439 216.72C-236.45 221.895 -232.946 221.317 -232.946 221.317C-232.946 221.317 -208.856 219.66 -203.331 219.307C-200.98 219.156 -198.694 219.836 -197.045 221.62C-195.515 223.41 -193.909 226.376 -195.059 228.693C-196.099 230.884 -196.447 234.683 -194.556 236.568C-193.548 237.566 -191.975 238.174 -190.746 238.922C-186.842 240.915 -184.926 250.589 -184.603 255.643C-184.392 258.935 -184.527 262.366 -185.257 265.718C-185.425 266.791 -185.71 267.871 -186.355 268.857C-187.205 270.327 -187.505 271.173 -187.283 272.811C-187.117 275.397 -187.407 278.248 -184.519 279.126C-182.71 279.719 -179.488 287.657 -179.488 287.657C-179.488 287.657 -171.321 306.492 -170.11 310.664C-168.9 314.835 -166.916 314.473 -165.623 314.39C-164.33 314.307 -162.904 314.452 -162.664 312.667C-162.417 310.998 -160.866 311.253 -160.866 311.253C-160.866 311.253 -159.441 311.398 -153.343 310.773C-147.128 310.139 -143.284 300.097 -141.854 298.472C-140.423 296.846 -140.336 296.368 -140.649 293.319C-141.087 290.16 -140.514 289.888 -137.473 289.457C-134.314 289.02 -134.949 286.463 -135.222 280.343C-135.495 274.223 -132.559 272.147 -128.59 267.763C-124.621 263.378 -128.619 246.991 -129.4 240.313C-130.181 233.635 -126.034 230.184 -126.034 230.184C-126.034 230.184 -112.927 208.101 -108.006 202.003C-103.084 195.905 -111.575 197.864 -111.575 197.864C-111.575 197.864 -119.436 198.602 -123.11 198.365C-126.777 198.245 -131.144 190.852 -133.035 188.966C-134.926 187.081 -139.265 183.817 -140.234 179.748C-141.202 175.679 -142.97 172.015 -142.97 172.015C-143.376 171.214 -147.377 167.693 -148.133 163.256C-149.829 153.332 -145.572 160.85 -145.572 160.85C-145.572 160.85 -143.989 163.464 -138.701 166.785C-133.406 170.223 -129.751 183.091 -126.96 187.988C-124.168 192.885 -124.521 192.907 -116.755 192.529C-108.982 192.269 -99.1309 180.19 -96.0922 177.872C-93.0536 175.553 -94.2842 172.917 -95.7576 170.178C-97.2309 167.44 -99.897 168.2 -105.137 167.473C-110.369 166.863 -112.538 160.628 -117.428 157.989C-122.318 155.351 -117.953 155.308 -114.639 155.451C-111.325 155.593 -110.86 157.334 -109.087 159.227C-107.306 161.238 -104.644 162.248 -99.5023 161.447C-94.3526 160.764 -90.816 162.545 -89.5428 163.998C-88.2697 165.451 -84.6606 166.518 -84.6606 166.518C-84.6606 166.518 -75.8443 165.955 -74.7112 167.063C-73.5782 168.171 -73.9631 171.382 -68.1656 171.602C-62.3681 171.822 -58.8183 183.044 -58.8183 183.044C-58.8183 183.044 -56.2412 197.515 -52.0868 199.728C-44.0205 204.052 -47.0479 188.075 -46.8906 184.996C-46.7332 181.918 -38.3349 176.66 -35.3687 175.054C-34.1132 174.383 -33.6156 172.935 -33.5882 171.517C-33.5308 170.569 -34.3713 168.498 -33.711 167.748C-33.1533 167.24 -30.7948 167.208 -30.082 167.28C-28.5388 167.418 -25.7927 166.062 -24.8771 169.308C-23.9615 172.555 -19.4668 176.398 -19.4668 176.398C-18.0911 177.609 -16.4004 178.209 -14.6146 178.449C-13.0714 178.586 -11.2356 177.761 -9.77248 178.494C-7.699 179.541 -8.73671 183.621 -8.7416 185.392C-8.62142 187.272 -8.97142 189.183 -8.60868 191.167C-8.23836 193.267 -6.83262 194.948 -6.22725 197.034C-5.78444 198.422 -5.4667 199.7 -5.25901 201.103C-5.25901 201.103 0.386719 213.726 7.12204 211.997C11.6539 210.881 3.16473 203.634 -0.469539 200.325C-4.10381 197.016 -4.56426 193.505 -3.26897 189.763C-1.97362 186.021 1.25809 190.418 6.51552 193.269C11.7729 196.12 9.69953 195.072 13.4833 189.637C17.2746 184.319 13.2399 178.44 11.8643 177.229C10.4886 176.019 4.63065 169.311 10.8356 166.672C16.9231 164.041 23.0057 163.18 26.3845 162.492C29.7634 161.804 29.1779 158.182 34.3096 149.828C39.4413 141.474 33.388 131.711 30.7742 127.747C28.0427 123.79 27.4373 121.704 30.7009 117.365C33.9645 113.025 37.8467 120.213 37.8467 120.213C37.8467 120.213 41.7562 125.983 46.8337 131.56C51.9113 137.137 52.4586 129.076 53.1613 127.142C53.8564 125.091 50.6424 122.818 48.7063 120.227C46.7703 117.636 48.4983 113.277 48.8709 111.718C49.2434 110.16 57.5617 105.498 60.1978 104.267C62.8338 103.036 65.3621 98.2716 65.8991 88.2047C66.4362 78.1379 69.4857 88.9198 69.4857 88.9198C69.4857 88.9198 71.273 111.349 71.4183 115.471C71.5636 119.593 71.9114 121.341 67.0596 124.838C62.2077 128.335 61.5749 127.667 58.9088 128.428C56.2427 129.188 55.3624 130.189 55.5404 136.669C55.7184 143.149 58.6669 139.42 58.9219 137.869C59.177 136.318 60.067 131.776 63.4985 131.911C66.93 132.046 72.0894 127.821 75.1131 125.268C78.1367 122.714 76.3205 116.456 75.9701 112.82C75.6197 109.183 75.3346 110.264 78.4935 109.826C81.6523 109.388 80.4618 109.228 80.7443 106.259C81.0267 103.29 79.5935 103.028 76.6473 103.098C73.701 103.168 74.1085 100.309 74.1085 100.309C74.1085 100.309 73.7724 85.8132 72.8492 82.4493C71.9336 79.203 67.5039 74.5287 58.9603 75.6648C50.4168 76.8008 62.7137 64.2121 66.5575 59.7174C70.2839 55.2302 74.4608 57.7961 74.4608 57.7961C74.4608 57.7961 79.4306 59.8391 86.2211 60.8216C93.0116 61.8041 89.4997 56.7171 90.0972 53.138C90.6948 49.5589 93.7237 50.7818 99.4889 54.1903C105.254 57.5989 95.3528 65.1954 94.195 67.3939C93.0371 69.5924 96.4464 74.922 100.253 80.9343C104.06 86.9467 102.985 79.3435 103.297 76.8449C103.492 74.3538 103.114 72.1353 105.462 70.0968C107.811 68.0583 106.19 64.857 105.867 59.8023C105.544 54.7477 109.116 55.2277 114.64 54.8746C120.173 54.6392 120.75 52.5957 121.991 51.6903C123.231 50.7848 122.406 48.9491 130.567 47.3653C138.735 45.8992 120.228 25.9543 118.72 24.5163C117.212 23.0783 93.1968 25.9111 87.3042 26.0515C81.4117 26.192 81.4065 22.4153 80.1408 21.0799C78.8752 19.7444 65.6672 21.7686 63.1911 21.8088C60.715 21.849 57.7984 16.842 55.6675 16.7421C53.5365 16.6422 52.8489 18.8107 50.8532 20.8267C48.8575 22.8427 48.572 18.3758 48.2167 16.51C47.8615 14.6442 46.5309 14.1391 44.1348 13.584C41.7387 13.0289 42.1368 19.2591 42.1545 21.3825C42.1721 23.5059 23.2015 24.0099 19.5499 24.1252C15.8983 24.2405 14.4675 20.3189 13.4918 16.1321C12.5161 11.9454 9.03985 16.6527 9.03985 16.6527L0.136149 17.6937C0.136149 17.6937 -14.9404 18.1849 -18.8995 19.028C-22.7411 19.8637 -19.2075 14.2085 -17.2493 11.6047C-15.2986 8.88343 -25.2956 5.74524 -26.5387 4.7624C-27.7819 3.77956 -35.5751 5.57585 -37.2583 5.09325C-38.824 4.60314 -40.1648 2.09215 -40.5824 2.94505C-41 3.79794 -41.43 6.30405 -43.1107 7.70977C-44.7913 9.11548 -46.467 8.75044 -48.7955 9.25331C-51.124 9.75618 -49.6458 10.724 -57.6693 10.7645C-65.6852 10.9226 -65.6999 16.2349 -67.9806 19.3314C-70.3789 22.4354 -74.6258 22.4707 -76.6166 22.716C-78.6 23.0787 -77.6393 27.0304 -78.4219 29.559C-79.2046 32.0877 -83.3268 26.6856 -84.7824 26.0704C-86.2456 25.3377 -85.4825 29.8921 -85.4825 29.8921C-85.4825 29.8921 -84.7288 43.5355 -85.2264 44.9836C-85.724 46.4318 -90.942 34.9622 -91.1147 32.2585C-91.1699 29.5474 -93.7789 23.8126 -94.3167 22.7847C-94.7295 21.8668 -95.8074 23.4701 -97.2003 25.6836C-98.5933 27.8971 -97.3824 32.0689 -97.5473 35.0301C-97.7122 37.9914 -99.4556 36.5684 -104.04 36.8614C-108.624 37.1543 -109.35 38.735 -111.118 40.6185C-112.886 42.5019 -119.851 42.4748 -123.848 42.7302C-127.845 42.9856 -129.7 45.3467 -133.202 47.813C-136.703 50.2793 -135.988 46.6927 -138.542 43.6691C-141.221 40.5354 -141.698 45.9953 -142.841 48.4289C-143.984 50.8626 -151.2 45.068 -154.664 42.5747C-158.128 40.0813 -159.999 42.2074 -161.762 42.3201C-163.525 42.4327 -165.479 43.2657 -167.555 40.3296C-169.631 37.3934 -174.545 38.0616 -179.948 36.6363C-185.35 35.211 -186.748 39.1954 -192.263 41.5542C-197.777 43.9131 -198.978 47.2947 -198.978 47.2947C-198.978 47.2947 -198.978 47.2947 -199.128 50.491C-199.277 53.6874 -202.931 57.4618 -205.205 60.6758C-207.478 63.8899 -212.165 64.4254 -214.661 66.0013C-217.157 67.5771 -214.86 75.8105 -214.525 79.212C-214.197 82.4958 -208.94 79.7993 -205.413 79.574C-202.004 79.3562 -203.697 82.4151 -204.077 83.8558C-204.245 84.9287 -206.023 84.8063 -206.331 85.5341C-206.441 85.6592 -206.426 85.8943 -206.286 86.2394C-205.74 87.3849 -204.387 88.2427 -203.607 89.3731C-201.141 92.8744 -199.75 88.7726 -199.75 88.7726C-199.75 88.7726 -196.627 84.0879 -193.871 79.1906C-191.43 74.9036 -196.57 72.0452 -193.879 67.9782C-191.621 64.5291 -188.752 61.3951 -185.846 58.8488C-180.819 54.3965 -179.839 56.8125 -178.16 59.0659C-176.482 61.3192 -185.441 65.1965 -187.644 71.3568C-189.847 77.5171 -181.286 72.957 -183.424 78.287C-187.602 90.475 -188.87 92.7986 -193.512 94.0394ZM-122.693 33.096C-120.965 34.2839 -119.127 35.3467 -117.178 36.2845C-116.568 36.5996 -113.759 38.0725 -114.585 36.2368C-115.137 34.9738 -116.278 33.7483 -117.168 32.743C-118.949 30.7322 -118.804 29.3066 -118.985 26.4854C-119.165 23.6642 -113.673 20.9527 -113.673 20.9527C-94.8928 10.0742 -112.65 16.6382 -115.449 17.1711C-118.137 17.579 -120.818 18.1044 -122.199 18.6647C-123.58 19.2251 -126.513 23.1895 -127.838 26.461C-128.249 27.4314 -127.938 28.5919 -127.526 29.5098C-127.128 30.1925 -126.62 30.7502 -125.885 31.1754C-124.782 31.8131 -123.561 32.4433 -122.693 33.096ZM-116.838 265.123C-118.291 266.396 -117.705 270.018 -117.425 276.255C-117.312 278.019 -114.283 290.336 -111.622 285.799C-111.629 285.682 -108.111 279.791 -108.196 276.61C-108.289 273.311 -105.795 269.847 -104.88 267.546C-103.965 265.245 -104.74 262.344 -107.282 257.667C-109.823 252.99 -111.891 261.266 -111.891 261.266C-112.514 262.604 -115.385 263.85 -116.838 265.123ZM0.199691 221.882C1.96556 223.657 3.73894 225.551 5.50481 227.326C6.38774 228.214 7.27074 229.102 8.15367 229.99C9.15416 230.87 10.3898 231.735 10.9351 232.881C11.4804 234.026 11.4679 235.679 12.4684 236.56C13.3438 237.33 14.6369 237.247 15.6874 237.062C20.2643 236.652 24.8638 236.594 29.5658 236.293C56.6023 234.566 36.0284 233.992 34.8379 233.832C33.6474 233.672 31.2164 234.418 28.8778 232.915C26.5391 231.412 16.4599 232.528 16.4599 232.528C16.4599 232.528 12.9409 232.871 13.2233 229.902C13.5057 226.933 12.1102 227.258 7.17007 220.138C2.22997 213.018 2.79557 218.175 -4.7156 211.455C-12.2268 204.735 -7.41174 211.745 -5.8209 214.476C-4.23006 217.207 -0.823334 220.649 -0.823334 220.649C-0.558174 221.104 -0.175455 221.552 0.199691 221.882ZM39.0615 222.349C38.6889 223.908 38.7791 225.318 40.5799 225.793C43.9313 226.523 43.276 225.503 46.4322 223.177C46.9974 222.786 48.6931 221.616 48.523 220.801C48.3604 220.103 46.8322 220.2 46.2219 219.885C45.6041 219.453 44.9788 218.902 44.2735 218.948C43.3256 218.89 42.3852 218.95 41.4523 219.128C40.2843 219.32 39.7191 219.711 39.4265 220.674C39.2215 221.159 39.1415 221.754 39.0615 222.349ZM28.5094 221.607C29.5674 221.54 30.7428 221.464 31.7707 220.927C32.6886 220.514 33.2238 219.654 33.8915 219.021C35.117 217.88 35.277 216.69 35.4369 215.499C35.9395 212.28 35.4865 208.886 35.2837 205.712C34.9232 200.07 34.168 201.181 33.0773 198.89C32.5245 197.627 28.6255 199.41 27.0624 200.808C25.4993 202.207 26.5824 204.38 26.57 206.033C26.7052 208.149 24.6118 208.637 23.2688 209.785C21.5882 211.191 20.0326 212.706 18.477 214.222C16.4738 216.121 18.5923 217.874 19.6529 219.694C19.9181 220.15 20.3083 220.715 20.801 221.037C21.6689 221.69 22.7344 221.74 23.6823 221.798C23.7999 221.79 23.7999 221.79 23.9174 221.783C25.4531 221.802 26.9812 221.705 28.5094 221.607ZM45.775 194.419C46.7105 196.13 47.9987 197.818 49.1618 199.396C49.8097 200.299 51.2003 201.745 52.3158 200.729C53.7688 199.456 53.2884 197.48 53.1908 195.952C52.9654 192.426 52.9876 187.231 51.4193 184.852C49.7334 182.481 46.8221 181.251 44.9086 179.013C43.3853 177.34 42.2248 177.65 40.041 171.18C37.7396 164.717 38.8531 172.908 38.7633 177.045C38.6735 181.182 42.6455 184.233 42.6455 184.233C45.5444 187.116 44.0215 190.99 45.775 194.419ZM76.6553 225.141C78.0735 225.168 79.3966 225.556 80.4121 226.671C81.6778 228.006 82.1355 229.63 83.1736 231.098C83.8289 232.118 84.8594 233.469 86.365 233.018C87.7456 232.458 89.0661 230.957 90.3392 232.41C92.1201 234.421 92.8829 233.428 92.8829 233.428C93.3305 233.045 96.8319 230.579 98.6853 231.877C109.445 239.57 104.698 233.617 101.902 230.491C99.1052 227.365 92.2144 222.966 89.0879 220.215C85.9613 217.464 80.1316 220.433 76.8101 220.173C73.4887 219.913 74.3588 216.907 72.4678 215.021C70.5769 213.136 63.6592 215.702 61.9609 214.985C60.2626 214.267 59.4172 213.967 59.2745 211.733C59.2519 211.381 58.3589 208.487 57.6036 209.598C57.281 210.09 57.5987 211.368 57.6363 211.956C57.6964 212.897 57.7565 213.837 57.9341 214.77C58.4294 216.981 60.1326 215.928 63.184 217.503C66.2279 218.961 67.4737 221.832 68.2192 224.263C68.817 226.232 71.2781 225.956 73.1438 225.601C74.3118 225.408 75.4799 225.216 76.6553 225.141ZM98.2229 311.459C97.6276 311.379 96.4446 311.336 96.2546 312.057C96.0645 312.777 97.4101 313.517 97.4477 314.105C97.5077 315.045 97.4605 317.999 100.297 318.054C103.015 318.116 103.38 316.441 103.795 313.699C103.883 313.222 103.853 312.751 103.588 312.296C103.198 311.731 102.367 311.666 101.779 311.704C101.184 311.624 100.596 311.661 99.8836 311.589C99.2883 311.509 98.8182 311.539 98.2229 311.459ZM61.9379 246.028C58.7866 246.583 55.9755 248.77 53.3695 250.47C51.6663 251.524 49.8607 252.819 49.1655 254.87C48.5653 256.561 48.8632 259.375 48.7407 261.153C48.5233 263.291 42.8782 261.764 40.7849 262.251C38.6915 262.739 39.532 264.81 38.8717 265.56C38.094 266.318 35.1026 265.683 32.6641 266.311C29.7629 267.087 31.504 272.169 31.3966 274.182C31.2892 276.196 30.7116 278.239 30.3691 280.267C29.669 284.089 31.8799 283.594 33.8208 284.414C35.7617 285.234 34.344 290.754 34.8844 293.67C35.4098 296.351 39.1015 298.712 41.3951 299.51C42.9683 300.118 44.8266 299.645 46.4723 299.54C48.3531 299.419 50.2414 299.417 51.9747 298.834C53.7079 298.251 54.9107 296.758 56.3713 295.602C58.6096 293.689 61.1431 292.701 64.0969 292.748C67.1683 292.788 70.1296 292.953 73.1933 292.875C74.8391 292.77 77.6227 292.002 78.2281 294.088C78.6784 295.593 78.5484 297.254 78.9987 298.76C79.9143 302.006 82.0726 300.688 84.7763 300.515C87.4799 300.342 87.7327 302.451 88.5657 304.404C89.959 307.738 92.4126 307.345 95.4689 307.15C97.5848 307.014 99.7007 306.879 101.809 306.626C105.431 306.041 107.431 302.254 107.431 302.254C107.431 302.254 111.725 293.718 113.866 290.276C116.006 286.834 116.474 279.369 116.106 273.609C115.738 267.849 107.226 260.249 107.226 260.249C107.226 260.249 95.68 247.649 93.6715 245.771C91.663 243.893 92.6808 241.349 91.8328 239.161C91.1024 236.965 89.572 240.721 87.6112 241.437C85.6504 242.152 87.2191 250.078 87.2942 251.254C87.3693 252.429 84.8857 252.352 83.4875 250.789C82.0893 249.226 81.289 249.631 79.3406 248.693C77.3921 247.755 76.089 245.832 75.6511 242.673C75.3307 239.507 72.1069 240.775 68.3378 240.898C64.5687 241.021 66.172 242.099 65.5944 244.142C65.2068 245.465 63.8037 245.673 62.6357 245.865C62.283 245.888 62.0554 246.02 61.9379 246.028ZM147.797 317.025L147.687 317.15C146.492 318.761 142.943 324.181 145.316 324.384C147.572 324.594 150.476 325.706 151.789 324.088C153.087 322.235 152.527 320.854 156.654 318.938C158.717 317.98 160.067 311.402 160.067 311.402C160.067 311.402 159.211 309.096 157.711 307.776C156.468 306.793 153.902 310.97 152.911 312.095C151.253 313.854 149.22 315.282 147.797 317.025ZM165.957 303.826C166.622 301.305 168.475 302.603 168.362 300.84C168.25 299.076 162.875 296.233 161.014 294.817C157.3 292.104 160.989 298.124 160.271 299.822C159.334 301.771 159.216 301.778 160.182 303.959C160.454 304.532 161.222 307.315 161.825 307.513C165.309 308.471 165.299 306.465 165.957 303.826Z"/>
</mask>
<path d="M-449.486 40.9936C-451.074 40.1508 -452.655 39.4256 -454.441 39.1856C-456.814 38.9832 -459.503 39.391 -461.812 38.3582C-463.392 37.633 -466.719 33.5965 -462.935 33.7088C-460.334 33.7787 -455.287 33.3381 -453.651 31.2271C-449.507 25.887 -442.738 37.6116 -437.766 35.9956C-435.108 35.1176 -434.745 31.5535 -431.819 33.0189C-429.988 33.9642 -428.002 35.4898 -426.604 37.0528C-424.573 39.2837 -425.783 40.6593 -428.457 41.3023C-430.903 41.8127 -433.387 41.7353 -435.973 41.9005C-438.324 42.0508 -440.66 42.4361 -442.996 42.8214C-445.332 43.2067 -447.413 42.0414 -449.486 40.9936ZM-423.441 23.7494C-423.441 23.7494 -421.802 29.0741 -419.877 29.6592C-418.068 30.2518 -417.068 31.1322 -416.05 28.5885C-415.025 26.1624 -417.796 25.2772 -419.914 23.5241C-422.033 21.7709 -425.5 17.3893 -423.441 23.7494ZM-429.994 56.0362C-433.508 54.6084 -432.005 52.2698 -433.429 48.4657C-434.852 44.6617 -437.073 48.6985 -440.249 52.5604C-443.425 56.4223 -447.262 49.9398 -449.138 48.2892C-451.014 46.6386 -449.391 46.1808 -458.495 45.9363C-467.489 45.5667 -466.798 45.2865 -470.502 50.1264C-474.206 54.9662 -466.875 53.3175 -461.665 53.5748C-456.456 53.832 -456.143 56.8808 -456.41 60.0847C-456.678 63.2886 -466.297 62.3689 -475.298 61.8818C-484.3 61.3947 -483.349 63.3404 -487.806 65.6317C-492.263 67.923 -502.24 63.2491 -506.319 62.2115C-510.398 61.1738 -537.565 64.562 -541.562 64.8174C-545.558 65.0728 -547.597 68.2718 -550.563 69.8777C-553.529 71.4836 -551.883 76.9258 -551.835 79.5194C-551.787 82.1131 -557.815 80.1376 -560.871 80.3329C-563.928 80.5282 -562.992 82.2389 -563.085 84.4873C-563.177 86.7358 -561.869 86.8883 -558.24 86.4203C-554.611 85.9524 -553.045 86.4425 -552.77 88.9035C-552.495 91.3646 -557.397 90.3795 -560.336 90.5673C-563.274 90.755 -561.768 95.8521 -560.903 100.164C-560.037 104.476 -557.261 103.59 -555.54 104.661C-553.819 105.731 -551.363 107.226 -564.858 113.99C-578.354 120.754 -565.118 117.312 -562.827 116.221C-560.537 115.13 -550.395 111.296 -547.339 111.1C-544.282 110.905 -539.806 107.078 -536.137 103.539C-532.468 99.9995 -520.263 100.754 -511.556 100.316C-502.85 99.8775 -494.11 118.44 -489.691 121.108C-485.271 123.777 -483.276 147.609 -482.943 154.67C-482.61 161.73 -477.13 166.219 -474.636 168.303C-472.142 170.386 -465.564 182.831 -458.668 191.006C-451.764 199.299 -455.401 188.555 -457.598 183.738C-459.801 178.804 -455.864 183.155 -455.864 183.155C-455.864 183.155 -443.753 195.365 -441.137 201.217C-438.52 207.069 -428.558 211.508 -422.063 211.565C-415.568 211.622 -415.573 213.393 -415.573 213.393C-415.573 213.393 -415.767 215.884 -407.949 216.329C-400.248 216.781 -401.158 222.859 -397.834 225.007C-394.51 227.155 -389.415 229.308 -385.066 229.03C-380.716 228.752 -382.275 228.38 -381.242 231.619C-380.208 234.857 -382.979 239.52 -385.062 242.013C-387.146 244.507 -387.035 249.929 -386.63 256.277C-386.224 262.625 -383.673 263.76 -383.673 263.76C-383.673 263.76 -368.875 284.768 -365.574 286.564C-362.272 288.359 -362.472 292.621 -362.472 292.621C-362.472 292.621 -360.414 324.83 -360.374 327.306C-360.334 329.782 -360.569 329.797 -362.497 332.871C-364.425 335.945 -363.659 342.388 -363.659 342.388C-363.659 342.388 -362.187 370.975 -362.051 373.091C-361.916 375.207 -358.452 377.7 -347.387 382.777C-336.322 387.853 -344.628 379.768 -345.932 377.844C-347.235 375.921 -346.742 370.696 -346.99 366.817C-347.238 362.938 -344.074 360.729 -342.932 358.296C-341.789 355.862 -343.077 354.174 -343.34 350.06C-343.603 345.945 -339.153 343.537 -339.153 343.537C-339.153 343.537 -315.635 316.303 -313.787 313.825C-311.939 311.346 -311.879 306.739 -312.279 304.168C-312.68 301.597 -305.402 293.578 -301.256 290.126C-297.109 286.674 -294.271 277.523 -294.164 275.509C-294.056 273.496 -294.232 268.904 -291.436 266.483C-288.639 264.062 -289.065 259.249 -288.212 254.12C-287.36 248.99 -296.801 249.003 -302.677 245.72C-308.552 242.436 -317.553 241.949 -318.259 241.994C-318.964 242.039 -322.931 242.765 -322.883 239.811C-322.836 236.857 -325.628 231.96 -327.196 229.582C-328.764 227.203 -330.99 227.464 -333.694 227.636C-336.397 227.809 -345.114 220.694 -348.791 218.568C-352.468 216.443 -359.518 218.782 -364.303 217.789C-369.087 216.796 -366.736 216.646 -371.043 215.741C-375.35 214.836 -376.973 220.841 -378.934 221.557C-380.895 222.272 -387.375 222.45 -389.748 222.248C-392.122 222.045 -394.148 218.044 -394.976 214.32C-395.804 210.596 -397.202 209.032 -400.489 207.472C-403.775 205.912 -404.501 201.945 -404.329 199.101C-404.156 196.257 -406.17 196.15 -408.528 196.183C-410.887 196.215 -410.709 197.148 -411.169 199.184C-411.629 201.22 -413.45 202.281 -418.557 201.781C-423.672 201.163 -426.171 195.304 -427.066 190.522C-427.962 185.74 -428.017 183.028 -424.906 179.997C-421.795 176.965 -420.757 178.433 -416.245 178.853C-411.733 179.273 -408.835 176.609 -406.091 173.365C-403.348 170.121 -399.491 175.068 -399.491 175.068C-399.491 175.068 -399.491 175.068 -394.19 182.283C-388.89 189.499 -389.966 181.895 -391.607 174.682C-393.248 167.469 -372.276 142.877 -369.077 139.368C-365.879 135.859 -366.141 137.292 -360.294 136.446C-354.446 135.601 -352.596 129.463 -349.345 126.776C-346.094 124.09 -353.962 124.711 -357.609 123.055C-361.255 121.4 -355.408 120.554 -353.359 119.361C-351.311 118.168 -346.882 117.295 -340.982 117.272C-335.082 117.249 -350.98 97.4914 -353.599 95.2981C-356.217 93.1048 -355.737 89.5333 -357.131 86.1994C-358.524 82.8656 -362.16 88.7633 -364.866 92.5952C-367.572 96.427 -367.687 92.7754 -367.36 90.512C-367.032 88.2485 -369.534 86.0477 -370.787 83.059C-372.04 80.0703 -379.503 81.4914 -382.214 81.5466C-384.926 81.6018 -384.44 81.8068 -384.97 86.4439C-385.5 91.0809 -384.019 93.937 -382.926 98.1163C-381.833 102.295 -386.167 108.356 -388.683 111.467C-391.199 114.579 -392.129 111.097 -392.435 108.166C-392.74 105.235 -394.12 105.795 -397.442 105.535C-400.763 105.276 -401.006 105.173 -402.494 102.199C-403.983 99.2256 -408.497 96.9174 -412.626 96.9452C-416.756 96.973 -415.921 89.7198 -416.006 86.5385C-416.099 83.2395 -409.994 82.7314 -408.033 82.016C-406.072 81.3005 -402.916 78.9743 -399.384 82.5256C-395.86 85.9594 -392.919 82.1125 -392.919 82.1125C-392.919 82.1125 -388.112 77.9104 -388.262 75.5594C-388.413 73.2084 -389.426 73.9813 -392.599 74.1841C-395.773 74.3869 -396.243 74.4169 -396.416 71.7133C-396.589 69.0096 -396.604 68.7745 -390.969 68.2964C-385.334 67.8184 -388.251 62.8114 -385.705 60.1701C-383.159 57.5288 -380.453 59.2443 -380.6 64.329C-380.747 69.4137 -375.117 65.159 -371.743 66.2418C-368.369 67.3245 -369.792 69.0679 -372.576 69.8359C-375.36 70.6039 -373.419 71.4241 -372.401 74.4279C-371.383 77.4316 -371.788 76.6313 -362.809 76.7657C-353.83 76.9002 -361.764 72.8039 -362.411 71.9011C-363.059 70.9982 -365.913 68.82 -357.772 68.7719C-349.631 68.7239 -355.106 62.464 -355.106 62.464C-355.106 62.464 -361.372 53.0679 -367.995 51.0125C-374.618 48.957 -372.848 48.9619 -376.527 44.9479C-380.206 40.9339 -393.127 43.766 -397.021 43.7788C-400.915 43.7915 -400.515 46.3626 -402.355 48.9589C-404.078 51.5476 -399.219 53.7157 -398.245 61.5615C-397.272 69.4073 -402.887 62.8024 -402.887 62.8024C-402.887 62.8024 -405.926 59.5737 -407.414 56.6C-408.903 53.6263 -409.478 52.0106 -407.74 49.657C-406.002 47.3034 -405.337 44.7823 -409.531 40.093C-413.726 35.4038 -417.02 33.7258 -418.681 33.5958C-420.342 33.4659 -419.661 36.7272 -419.246 39.5334C-418.83 42.3396 -417.215 41.7642 -415.111 43.2823C-413.125 44.8078 -413.753 47.9167 -414.02 51.1206C-414.288 54.3245 -414.548 52.0985 -417.794 47.4667C-421.041 42.835 -422.757 45.5412 -425.133 48.9979C-427.508 52.4545 -420.328 54.0022 -419.717 59.8647C-419.106 65.7272 -422.706 61.1179 -422.706 61.1179C-422.706 61.1179 -426.48 57.4641 -429.994 56.0362ZM-529.717 176.307C-529.717 176.307 -526.312 188.955 -523.058 188.157C-516.55 186.561 -521.758 182.644 -527.953 176.195C-528.469 175.519 -530.61 173.413 -529.717 176.307ZM-386.706 195.969C-385.986 196.159 -385.273 196.231 -384.663 196.546C-383.685 197.074 -382.912 198.087 -381.831 198.372C-380.383 198.87 -377.652 197.279 -376.264 196.836C-370.359 195.042 -386.677 190.891 -389.543 190.366C-392.409 189.841 -393.27 189.306 -399.437 192.533C-405.604 195.76 -393.834 195.244 -393.834 195.244C-391.343 195.439 -388.977 195.524 -386.706 195.969ZM-372.257 198.586C-372.212 199.292 -372.167 199.997 -372.042 200.107C-371.372 201.362 -369.756 200.787 -368.581 200.712C-367.523 200.644 -360.962 199.871 -364.094 198.891C-366.02 198.306 -368.101 197.14 -370.262 196.57C-373.386 195.708 -372.347 197.176 -372.257 198.586ZM-409.947 31.7394C-408.879 33.6777 -407.491 33.2349 -406.278 33.7476C-405.065 34.2602 -404.622 35.6483 -404.052 39.0347C-403.481 42.4211 -392.749 40.4371 -385.351 39.8463C-377.953 39.2556 -383.02 35.6844 -392.409 36.5203C-396.516 36.9008 -397.031 36.2255 -398.35 34.0672C-399.668 31.9088 -401.556 31.9115 -404.327 31.0263C-407.099 30.1411 -406.954 28.7154 -409.712 26.177C-413.472 22.7583 -411.133 29.8087 -411.133 29.8087C-411.133 29.8087 -411.015 29.8012 -409.947 31.7394ZM-380.417 32.0951C-375.127 31.7571 -372.346 23.5534 -372.194 22.2453C-372.042 20.9373 -369.01 18.501 -364.779 18.2306C-360.547 17.9602 -358.313 17.8175 -356.575 15.4639C-354.837 13.1103 -356.768 14.2959 -350.753 12.3772C-344.738 10.4584 -344.976 8.58516 -345.243 6.24167C-345.511 3.89817 -355.378 4.64665 -358.074 4.93695C-360.77 5.22726 -360.43 6.85794 -363.249 8.92652C-366.067 10.9951 -383.93 10.366 -389.58 10.609C-390.168 10.6465 -390.755 10.6841 -391.21 10.9492C-390.438 11.9621 -387.954 12.0395 -386.866 12.4421C-385.3 12.9322 -384.402 14.0551 -383.057 14.7954C-381.719 15.418 -380.183 15.4379 -378.765 15.4654C-363.856 16.0471 -375.176 18.0687 -376.344 18.2614C-377.512 18.4541 -379.437 17.8689 -379.595 20.9478C-379.752 24.0266 -383.729 22.7463 -385.72 22.9916C-387.711 23.2368 -387.028 22.8391 -387.268 19.0775C-387.509 15.3159 -396.162 16.577 -399.916 16.9349C-403.67 17.2928 -401.939 20.369 -401.942 24.0281C-401.944 27.6872 -401.011 27.5095 -397.109 27.6143C-393.325 27.7266 -394.558 28.7496 -393.945 30.953C-393.332 33.1565 -387.477 32.4282 -387.477 32.4282C-387.477 32.4282 -385.707 32.4331 -380.417 32.0951ZM-338.898 9.49515C-338.898 9.49515 -342.367 8.77257 -343.973 11.3538C-345.578 13.935 -343.682 14.0499 -347.789 14.4304C-351.896 14.8108 -351.646 15.0309 -352.428 17.5595C-353.211 20.0882 -355.059 22.5668 -357.998 22.7546C-360.937 22.9424 -365.706 22.1849 -365.093 24.3883C-364.473 26.7093 -360.093 32.4489 -358.087 32.4388C-356.081 32.4287 -339.392 29.4738 -337.201 36.0615C-335.002 42.7667 -337.102 54.2318 -333.808 55.9098C-330.514 57.5878 -331.782 59.9114 -332.802 60.5667C-333.822 61.2221 -335.551 60.0342 -335.333 63.4432C-335.115 66.8521 -334.155 65.2564 -332.094 67.9574C-330.033 70.6584 -329.16 69.5404 -328.889 73.7722C-328.619 78.004 -328.984 79.6797 -325.78 79.9471C-322.576 80.2145 -319.707 82.6279 -319.14 84.126C-318.572 85.6241 -315.488 84.0107 -314.785 82.0773C-314.083 80.144 -305.175 66.2374 -302.251 65.8145C-299.327 65.3916 -294.25 65.4213 -294.298 62.8277C-294.345 60.2341 -296.231 56.5776 -292.595 56.2272C-288.958 55.8768 -282.015 55.5512 -279.177 51.947C-276.338 48.3427 -270.224 44.2931 -276.161 43.7282C-278.895 43.4308 -281.514 41.2375 -280.283 38.3262C-280.188 37.966 -276.052 38.0558 -275.471 37.9007C-274.076 37.5754 -272.225 36.9851 -271.492 35.5219C-270.357 32.9707 -269.222 30.4195 -267.969 27.8609C-266.803 25.7799 -262.849 21.1601 -268.199 20.5577C-269.868 20.3102 -270.811 18.482 -268.587 16.3334C-268.587 16.3334 -265.564 8.23224 -262.038 8.00691C-260.98 7.93931 -251.018 6.83067 -252.534 5.2751C-253.542 4.27724 -253.542 4.27724 -260.625 4.2577C-261.573 4.20024 -262.213 3.41494 -263.058 3.11487C-264.256 2.83733 -265.777 3.05252 -266.952 3.12763C-273.278 3.88588 -271.154 3.86823 -274.001 1.80753C-276.847 -0.253166 -279.433 -0.0879257 -290.828 0.758193C-302.34 1.61183 -306.765 0.714231 -309.428 3.36305C-312.092 6.01187 -310.701 7.4574 -316.696 7.84046C-322.691 8.22352 -338.898 9.49515 -338.898 9.49515ZM-273.468 67.3983C-273.446 67.7509 -273.416 68.2211 -273.393 68.5738C-273.333 69.5142 -273.221 71.2774 -271.928 71.1948C-270.047 71.0746 -268.173 70.8369 -266.3 70.5992C-265.367 70.4215 -264.279 70.8241 -263.612 70.1913C-262.041 68.9107 -261.433 67.3374 -259.222 66.8421C-258.289 66.6644 -255.673 66.9694 -255.646 65.5513C-255.683 64.9635 -256.764 59.1311 -257.75 58.4859C-260.213 56.8728 -265.873 60.6574 -269.87 60.9127C-271.28 61.0029 -272.721 60.6228 -274.234 60.9555C-275.512 61.2733 -274.944 62.7714 -274.649 63.6967C-273.971 65.0698 -273.669 66.1127 -273.468 67.3983ZM-241.103 93.6574C-241.103 93.6574 -245.587 97.3668 -245.524 100.196C-245.469 102.907 -245.969 108.014 -242.813 105.688C-239.539 103.354 -237.371 98.4943 -237.371 98.4943C-237.371 98.4943 -237.149 89.0377 -241.103 93.6574ZM-233.757 92.2438C-233.087 93.4993 -232.754 95.0125 -232.311 96.4005C-231.558 98.9491 -232.944 101.28 -234.234 103.251C-235.422 104.979 -237.05 107.208 -234.594 108.703C-231.285 110.617 -227.376 105.292 -224.573 102.988C-222.327 101.192 -223.69 98.3283 -225.221 96.5376C-227.149 94.0642 -229.408 91.9659 -230.654 89.0948C-231.774 86.3337 -233.9 84.463 -235.814 82.2247C-237.212 80.6616 -238.93 81.4795 -239.44 84.5809C-239.855 87.3221 -237.884 88.6125 -236.148 89.918C-235.163 90.5632 -234.288 91.3335 -233.757 92.2438ZM-193.512 94.0394C-197.809 95.1402 -200.1 96.2308 -204.399 95.4433C-206.788 95.0057 -206.143 88.4729 -208.642 88.1604C-209.48 87.9779 -210.825 87.2377 -211.36 88.0981C-211.683 88.5908 -211.365 89.8688 -211.328 90.4566C-211.135 91.6246 -210.242 94.5183 -211.99 94.866C-214.319 95.3689 -213.358 93.7731 -214.453 98.8004C-215.549 103.828 -220.468 106.266 -222.054 107.312C-223.639 108.358 -226.075 110.874 -230.072 111.129C-234.076 111.267 -234.581 112.598 -231.265 114.628C-228.683 116.234 -228.166 118.797 -227.75 121.604C-227.75 121.604 -227.75 121.604 -227.743 121.721C-227.55 122.889 -226.699 126.966 -228.44 127.431C-230.533 127.919 -237.609 128.017 -240.548 128.205C-243.487 128.393 -242.018 132.902 -241.955 135.731C-241.893 138.559 -241.127 139.455 -240.172 139.63C-239.209 139.922 -236.908 140.837 -235.567 143.348C-234.226 145.859 -230.43 144.319 -226.418 144.298C-222.406 144.278 -223.412 139.621 -222.937 137.82C-222.462 136.019 -223.94 135.052 -219.951 134.679C-216.079 134.313 -214.834 131.637 -214.552 128.668C-214.277 125.582 -211.158 128.215 -207.436 125.499C-203.715 122.783 -197.136 129.68 -194.305 131.506C-192.952 132.363 -189.37 134.849 -189.56 135.57C-190.278 137.268 -196.636 135.668 -194.537 138.956C-191.768 143.501 -189.317 141.219 -185.974 136.285C-182.505 131.46 -191.459 128.019 -193.187 126.831C-194.923 125.526 -199.085 123.195 -196.482 119.606C-193.871 116.134 -186.777 123.707 -186.777 123.707C-183.688 125.87 -178.941 131.822 -177.2 136.904C-175.349 141.861 -174.731 142.294 -170.124 142.354C-165.517 142.413 -169.427 136.644 -170.282 134.338C-171.248 132.157 -171.285 131.569 -168.339 131.499C-165.393 131.429 -163.496 137.091 -161.716 139.102C-159.935 141.113 -154.077 142.273 -151.786 141.182C-149.378 140.084 -148.732 139.098 -145.731 141.739C-142.73 144.38 -148.752 151.729 -150.727 152.209C-152.703 152.69 -156.197 155.273 -161.057 153.105C-165.924 150.82 -166.717 151.342 -172.067 150.74C-177.417 150.138 -176.421 152.789 -177.511 156.045C-178.602 159.302 -181.338 157.116 -182.603 155.78C-183.869 154.445 -193.926 150.366 -197.618 148.005C-201.31 145.645 -200.887 143.021 -202.345 140.518C-203.804 138.014 -207.768 140.628 -208.421 141.496C-209.073 142.364 -212.475 142.699 -215.649 142.902C-218.822 143.105 -220.035 142.592 -221.759 145.181C-223.482 147.77 -223.454 146.351 -226.83 148.928C-230.207 151.504 -233.786 150.907 -238.913 151.942C-244.04 152.978 -241.881 162.755 -241.768 164.518C-241.656 166.281 -242.351 168.332 -244.497 167.997C-246.643 167.662 -249.611 178.475 -251.937 180.866C-254.263 183.257 -252.416 189.985 -252.149 192.328C-251.881 194.672 -253.759 196.68 -255.022 197.233C-256.285 197.786 -254.136 205.557 -254.949 207.615C-255.761 209.673 -248.861 210.531 -248.861 210.531C-248.221 211.316 -243.656 212.559 -240.439 216.72C-236.45 221.895 -232.946 221.317 -232.946 221.317C-232.946 221.317 -208.856 219.66 -203.331 219.307C-200.98 219.156 -198.694 219.836 -197.045 221.62C-195.515 223.41 -193.909 226.376 -195.059 228.693C-196.099 230.884 -196.447 234.683 -194.556 236.568C-193.548 237.566 -191.975 238.174 -190.746 238.922C-186.842 240.915 -184.926 250.589 -184.603 255.643C-184.392 258.935 -184.527 262.366 -185.257 265.718C-185.425 266.791 -185.71 267.871 -186.355 268.857C-187.205 270.327 -187.505 271.173 -187.283 272.811C-187.117 275.397 -187.407 278.248 -184.519 279.126C-182.71 279.719 -179.488 287.657 -179.488 287.657C-179.488 287.657 -171.321 306.492 -170.11 310.664C-168.9 314.835 -166.916 314.473 -165.623 314.39C-164.33 314.307 -162.904 314.452 -162.664 312.667C-162.417 310.998 -160.866 311.253 -160.866 311.253C-160.866 311.253 -159.441 311.398 -153.343 310.773C-147.128 310.139 -143.284 300.097 -141.854 298.472C-140.423 296.846 -140.336 296.368 -140.649 293.319C-141.087 290.16 -140.514 289.888 -137.473 289.457C-134.314 289.02 -134.949 286.463 -135.222 280.343C-135.495 274.223 -132.559 272.147 -128.59 267.763C-124.621 263.378 -128.619 246.991 -129.4 240.313C-130.181 233.635 -126.034 230.184 -126.034 230.184C-126.034 230.184 -112.927 208.101 -108.006 202.003C-103.084 195.905 -111.575 197.864 -111.575 197.864C-111.575 197.864 -119.436 198.602 -123.11 198.365C-126.777 198.245 -131.144 190.852 -133.035 188.966C-134.926 187.081 -139.265 183.817 -140.234 179.748C-141.202 175.679 -142.97 172.015 -142.97 172.015C-143.376 171.214 -147.377 167.693 -148.133 163.256C-149.829 153.332 -145.572 160.85 -145.572 160.85C-145.572 160.85 -143.989 163.464 -138.701 166.785C-133.406 170.223 -129.751 183.091 -126.96 187.988C-124.168 192.885 -124.521 192.907 -116.755 192.529C-108.982 192.269 -99.1309 180.19 -96.0922 177.872C-93.0536 175.553 -94.2842 172.917 -95.7576 170.178C-97.2309 167.44 -99.897 168.2 -105.137 167.473C-110.369 166.863 -112.538 160.628 -117.428 157.989C-122.318 155.351 -117.953 155.308 -114.639 155.451C-111.325 155.593 -110.86 157.334 -109.087 159.227C-107.306 161.238 -104.644 162.248 -99.5023 161.447C-94.3526 160.764 -90.816 162.545 -89.5428 163.998C-88.2697 165.451 -84.6606 166.518 -84.6606 166.518C-84.6606 166.518 -75.8443 165.955 -74.7112 167.063C-73.5782 168.171 -73.9631 171.382 -68.1656 171.602C-62.3681 171.822 -58.8183 183.044 -58.8183 183.044C-58.8183 183.044 -56.2412 197.515 -52.0868 199.728C-44.0205 204.052 -47.0479 188.075 -46.8906 184.996C-46.7332 181.918 -38.3349 176.66 -35.3687 175.054C-34.1132 174.383 -33.6156 172.935 -33.5882 171.517C-33.5308 170.569 -34.3713 168.498 -33.711 167.748C-33.1533 167.24 -30.7948 167.208 -30.082 167.28C-28.5388 167.418 -25.7927 166.062 -24.8771 169.308C-23.9615 172.555 -19.4668 176.398 -19.4668 176.398C-18.0911 177.609 -16.4004 178.209 -14.6146 178.449C-13.0714 178.586 -11.2356 177.761 -9.77248 178.494C-7.699 179.541 -8.73671 183.621 -8.7416 185.392C-8.62142 187.272 -8.97142 189.183 -8.60868 191.167C-8.23836 193.267 -6.83262 194.948 -6.22725 197.034C-5.78444 198.422 -5.4667 199.7 -5.25901 201.103C-5.25901 201.103 0.386719 213.726 7.12204 211.997C11.6539 210.881 3.16473 203.634 -0.469539 200.325C-4.10381 197.016 -4.56426 193.505 -3.26897 189.763C-1.97362 186.021 1.25809 190.418 6.51552 193.269C11.7729 196.12 9.69953 195.072 13.4833 189.637C17.2746 184.319 13.2399 178.44 11.8643 177.229C10.4886 176.019 4.63065 169.311 10.8356 166.672C16.9231 164.041 23.0057 163.18 26.3845 162.492C29.7634 161.804 29.1779 158.182 34.3096 149.828C39.4413 141.474 33.388 131.711 30.7742 127.747C28.0427 123.79 27.4373 121.704 30.7009 117.365C33.9645 113.025 37.8467 120.213 37.8467 120.213C37.8467 120.213 41.7562 125.983 46.8337 131.56C51.9113 137.137 52.4586 129.076 53.1613 127.142C53.8564 125.091 50.6424 122.818 48.7063 120.227C46.7703 117.636 48.4983 113.277 48.8709 111.718C49.2434 110.16 57.5617 105.498 60.1978 104.267C62.8338 103.036 65.3621 98.2716 65.8991 88.2047C66.4362 78.1379 69.4857 88.9198 69.4857 88.9198C69.4857 88.9198 71.273 111.349 71.4183 115.471C71.5636 119.593 71.9114 121.341 67.0596 124.838C62.2077 128.335 61.5749 127.667 58.9088 128.428C56.2427 129.188 55.3624 130.189 55.5404 136.669C55.7184 143.149 58.6669 139.42 58.9219 137.869C59.177 136.318 60.067 131.776 63.4985 131.911C66.93 132.046 72.0894 127.821 75.1131 125.268C78.1367 122.714 76.3205 116.456 75.9701 112.82C75.6197 109.183 75.3346 110.264 78.4935 109.826C81.6523 109.388 80.4618 109.228 80.7443 106.259C81.0267 103.29 79.5935 103.028 76.6473 103.098C73.701 103.168 74.1085 100.309 74.1085 100.309C74.1085 100.309 73.7724 85.8132 72.8492 82.4493C71.9336 79.203 67.5039 74.5287 58.9603 75.6648C50.4168 76.8008 62.7137 64.2121 66.5575 59.7174C70.2839 55.2302 74.4608 57.7961 74.4608 57.7961C74.4608 57.7961 79.4306 59.8391 86.2211 60.8216C93.0116 61.8041 89.4997 56.7171 90.0972 53.138C90.6948 49.5589 93.7237 50.7818 99.4889 54.1903C105.254 57.5989 95.3528 65.1954 94.195 67.3939C93.0371 69.5924 96.4464 74.922 100.253 80.9343C104.06 86.9467 102.985 79.3435 103.297 76.8449C103.492 74.3538 103.114 72.1353 105.462 70.0968C107.811 68.0583 106.19 64.857 105.867 59.8023C105.544 54.7477 109.116 55.2277 114.64 54.8746C120.173 54.6392 120.75 52.5957 121.991 51.6903C123.231 50.7848 122.406 48.9491 130.567 47.3653C138.735 45.8992 120.228 25.9543 118.72 24.5163C117.212 23.0783 93.1968 25.9111 87.3042 26.0515C81.4117 26.192 81.4065 22.4153 80.1408 21.0799C78.8752 19.7444 65.6672 21.7686 63.1911 21.8088C60.715 21.849 57.7984 16.842 55.6675 16.7421C53.5365 16.6422 52.8489 18.8107 50.8532 20.8267C48.8575 22.8427 48.572 18.3758 48.2167 16.51C47.8615 14.6442 46.5309 14.1391 44.1348 13.584C41.7387 13.0289 42.1368 19.2591 42.1545 21.3825C42.1721 23.5059 23.2015 24.0099 19.5499 24.1252C15.8983 24.2405 14.4675 20.3189 13.4918 16.1321C12.5161 11.9454 9.03985 16.6527 9.03985 16.6527L0.136149 17.6937C0.136149 17.6937 -14.9404 18.1849 -18.8995 19.028C-22.7411 19.8637 -19.2075 14.2085 -17.2493 11.6047C-15.2986 8.88343 -25.2956 5.74524 -26.5387 4.7624C-27.7819 3.77956 -35.5751 5.57585 -37.2583 5.09325C-38.824 4.60314 -40.1648 2.09215 -40.5824 2.94505C-41 3.79794 -41.43 6.30405 -43.1107 7.70977C-44.7913 9.11548 -46.467 8.75044 -48.7955 9.25331C-51.124 9.75618 -49.6458 10.724 -57.6693 10.7645C-65.6852 10.9226 -65.6999 16.2349 -67.9806 19.3314C-70.3789 22.4354 -74.6258 22.4707 -76.6166 22.716C-78.6 23.0787 -77.6393 27.0304 -78.4219 29.559C-79.2046 32.0877 -83.3268 26.6856 -84.7824 26.0704C-86.2456 25.3377 -85.4825 29.8921 -85.4825 29.8921C-85.4825 29.8921 -84.7288 43.5355 -85.2264 44.9836C-85.724 46.4318 -90.942 34.9622 -91.1147 32.2585C-91.1699 29.5474 -93.7789 23.8126 -94.3167 22.7847C-94.7295 21.8668 -95.8074 23.4701 -97.2003 25.6836C-98.5933 27.8971 -97.3824 32.0689 -97.5473 35.0301C-97.7122 37.9914 -99.4556 36.5684 -104.04 36.8614C-108.624 37.1543 -109.35 38.735 -111.118 40.6185C-112.886 42.5019 -119.851 42.4748 -123.848 42.7302C-127.845 42.9856 -129.7 45.3467 -133.202 47.813C-136.703 50.2793 -135.988 46.6927 -138.542 43.6691C-141.221 40.5354 -141.698 45.9953 -142.841 48.4289C-143.984 50.8626 -151.2 45.068 -154.664 42.5747C-158.128 40.0813 -159.999 42.2074 -161.762 42.3201C-163.525 42.4327 -165.479 43.2657 -167.555 40.3296C-169.631 37.3934 -174.545 38.0616 -179.948 36.6363C-185.35 35.211 -186.748 39.1954 -192.263 41.5542C-197.777 43.9131 -198.978 47.2947 -198.978 47.2947C-198.978 47.2947 -198.978 47.2947 -199.128 50.491C-199.277 53.6874 -202.931 57.4618 -205.205 60.6758C-207.478 63.8899 -212.165 64.4254 -214.661 66.0013C-217.157 67.5771 -214.86 75.8105 -214.525 79.212C-214.197 82.4958 -208.94 79.7993 -205.413 79.574C-202.004 79.3562 -203.697 82.4151 -204.077 83.8558C-204.245 84.9287 -206.023 84.8063 -206.331 85.5341C-206.441 85.6592 -206.426 85.8943 -206.286 86.2394C-205.74 87.3849 -204.387 88.2427 -203.607 89.3731C-201.141 92.8744 -199.75 88.7726 -199.75 88.7726C-199.75 88.7726 -196.627 84.0879 -193.871 79.1906C-191.43 74.9036 -196.57 72.0452 -193.879 67.9782C-191.621 64.5291 -188.752 61.3951 -185.846 58.8488C-180.819 54.3965 -179.839 56.8125 -178.16 59.0659C-176.482 61.3192 -185.441 65.1965 -187.644 71.3568C-189.847 77.5171 -181.286 72.957 -183.424 78.287C-187.602 90.475 -188.87 92.7986 -193.512 94.0394ZM-122.693 33.096C-120.965 34.2839 -119.127 35.3467 -117.178 36.2845C-116.568 36.5996 -113.759 38.0725 -114.585 36.2368C-115.137 34.9738 -116.278 33.7483 -117.168 32.743C-118.949 30.7322 -118.804 29.3066 -118.985 26.4854C-119.165 23.6642 -113.673 20.9527 -113.673 20.9527C-94.8928 10.0742 -112.65 16.6382 -115.449 17.1711C-118.137 17.579 -120.818 18.1044 -122.199 18.6647C-123.58 19.2251 -126.513 23.1895 -127.838 26.461C-128.249 27.4314 -127.938 28.5919 -127.526 29.5098C-127.128 30.1925 -126.62 30.7502 -125.885 31.1754C-124.782 31.8131 -123.561 32.4433 -122.693 33.096ZM-116.838 265.123C-118.291 266.396 -117.705 270.018 -117.425 276.255C-117.312 278.019 -114.283 290.336 -111.622 285.799C-111.629 285.682 -108.111 279.791 -108.196 276.61C-108.289 273.311 -105.795 269.847 -104.88 267.546C-103.965 265.245 -104.74 262.344 -107.282 257.667C-109.823 252.99 -111.891 261.266 -111.891 261.266C-112.514 262.604 -115.385 263.85 -116.838 265.123ZM0.199691 221.882C1.96556 223.657 3.73894 225.551 5.50481 227.326C6.38774 228.214 7.27074 229.102 8.15367 229.99C9.15416 230.87 10.3898 231.735 10.9351 232.881C11.4804 234.026 11.4679 235.679 12.4684 236.56C13.3438 237.33 14.6369 237.247 15.6874 237.062C20.2643 236.652 24.8638 236.594 29.5658 236.293C56.6023 234.566 36.0284 233.992 34.8379 233.832C33.6474 233.672 31.2164 234.418 28.8778 232.915C26.5391 231.412 16.4599 232.528 16.4599 232.528C16.4599 232.528 12.9409 232.871 13.2233 229.902C13.5057 226.933 12.1102 227.258 7.17007 220.138C2.22997 213.018 2.79557 218.175 -4.7156 211.455C-12.2268 204.735 -7.41174 211.745 -5.8209 214.476C-4.23006 217.207 -0.823334 220.649 -0.823334 220.649C-0.558174 221.104 -0.175455 221.552 0.199691 221.882ZM39.0615 222.349C38.6889 223.908 38.7791 225.318 40.5799 225.793C43.9313 226.523 43.276 225.503 46.4322 223.177C46.9974 222.786 48.6931 221.616 48.523 220.801C48.3604 220.103 46.8322 220.2 46.2219 219.885C45.6041 219.453 44.9788 218.902 44.2735 218.948C43.3256 218.89 42.3852 218.95 41.4523 219.128C40.2843 219.32 39.7191 219.711 39.4265 220.674C39.2215 221.159 39.1415 221.754 39.0615 222.349ZM28.5094 221.607C29.5674 221.54 30.7428 221.464 31.7707 220.927C32.6886 220.514 33.2238 219.654 33.8915 219.021C35.117 217.88 35.277 216.69 35.4369 215.499C35.9395 212.28 35.4865 208.886 35.2837 205.712C34.9232 200.07 34.168 201.181 33.0773 198.89C32.5245 197.627 28.6255 199.41 27.0624 200.808C25.4993 202.207 26.5824 204.38 26.57 206.033C26.7052 208.149 24.6118 208.637 23.2688 209.785C21.5882 211.191 20.0326 212.706 18.477 214.222C16.4738 216.121 18.5923 217.874 19.6529 219.694C19.9181 220.15 20.3083 220.715 20.801 221.037C21.6689 221.69 22.7344 221.74 23.6823 221.798C23.7999 221.79 23.7999 221.79 23.9174 221.783C25.4531 221.802 26.9812 221.705 28.5094 221.607ZM45.775 194.419C46.7105 196.13 47.9987 197.818 49.1618 199.396C49.8097 200.299 51.2003 201.745 52.3158 200.729C53.7688 199.456 53.2884 197.48 53.1908 195.952C52.9654 192.426 52.9876 187.231 51.4193 184.852C49.7334 182.481 46.8221 181.251 44.9086 179.013C43.3853 177.34 42.2248 177.65 40.041 171.18C37.7396 164.717 38.8531 172.908 38.7633 177.045C38.6735 181.182 42.6455 184.233 42.6455 184.233C45.5444 187.116 44.0215 190.99 45.775 194.419ZM76.6553 225.141C78.0735 225.168 79.3966 225.556 80.4121 226.671C81.6778 228.006 82.1355 229.63 83.1736 231.098C83.8289 232.118 84.8594 233.469 86.365 233.018C87.7456 232.458 89.0661 230.957 90.3392 232.41C92.1201 234.421 92.8829 233.428 92.8829 233.428C93.3305 233.045 96.8319 230.579 98.6853 231.877C109.445 239.57 104.698 233.617 101.902 230.491C99.1052 227.365 92.2144 222.966 89.0879 220.215C85.9613 217.464 80.1316 220.433 76.8101 220.173C73.4887 219.913 74.3588 216.907 72.4678 215.021C70.5769 213.136 63.6592 215.702 61.9609 214.985C60.2626 214.267 59.4172 213.967 59.2745 211.733C59.2519 211.381 58.3589 208.487 57.6036 209.598C57.281 210.09 57.5987 211.368 57.6363 211.956C57.6964 212.897 57.7565 213.837 57.9341 214.77C58.4294 216.981 60.1326 215.928 63.184 217.503C66.2279 218.961 67.4737 221.832 68.2192 224.263C68.817 226.232 71.2781 225.956 73.1438 225.601C74.3118 225.408 75.4799 225.216 76.6553 225.141ZM98.2229 311.459C97.6276 311.379 96.4446 311.336 96.2546 312.057C96.0645 312.777 97.4101 313.517 97.4477 314.105C97.5077 315.045 97.4605 317.999 100.297 318.054C103.015 318.116 103.38 316.441 103.795 313.699C103.883 313.222 103.853 312.751 103.588 312.296C103.198 311.731 102.367 311.666 101.779 311.704C101.184 311.624 100.596 311.661 99.8836 311.589C99.2883 311.509 98.8182 311.539 98.2229 311.459ZM61.9379 246.028C58.7866 246.583 55.9755 248.77 53.3695 250.47C51.6663 251.524 49.8607 252.819 49.1655 254.87C48.5653 256.561 48.8632 259.375 48.7407 261.153C48.5233 263.291 42.8782 261.764 40.7849 262.251C38.6915 262.739 39.532 264.81 38.8717 265.56C38.094 266.318 35.1026 265.683 32.6641 266.311C29.7629 267.087 31.504 272.169 31.3966 274.182C31.2892 276.196 30.7116 278.239 30.3691 280.267C29.669 284.089 31.8799 283.594 33.8208 284.414C35.7617 285.234 34.344 290.754 34.8844 293.67C35.4098 296.351 39.1015 298.712 41.3951 299.51C42.9683 300.118 44.8266 299.645 46.4723 299.54C48.3531 299.419 50.2414 299.417 51.9747 298.834C53.7079 298.251 54.9107 296.758 56.3713 295.602C58.6096 293.689 61.1431 292.701 64.0969 292.748C67.1683 292.788 70.1296 292.953 73.1933 292.875C74.8391 292.77 77.6227 292.002 78.2281 294.088C78.6784 295.593 78.5484 297.254 78.9987 298.76C79.9143 302.006 82.0726 300.688 84.7763 300.515C87.4799 300.342 87.7327 302.451 88.5657 304.404C89.959 307.738 92.4126 307.345 95.4689 307.15C97.5848 307.014 99.7007 306.879 101.809 306.626C105.431 306.041 107.431 302.254 107.431 302.254C107.431 302.254 111.725 293.718 113.866 290.276C116.006 286.834 116.474 279.369 116.106 273.609C115.738 267.849 107.226 260.249 107.226 260.249C107.226 260.249 95.68 247.649 93.6715 245.771C91.663 243.893 92.6808 241.349 91.8328 239.161C91.1024 236.965 89.572 240.721 87.6112 241.437C85.6504 242.152 87.2191 250.078 87.2942 251.254C87.3693 252.429 84.8857 252.352 83.4875 250.789C82.0893 249.226 81.289 249.631 79.3406 248.693C77.3921 247.755 76.089 245.832 75.6511 242.673C75.3307 239.507 72.1069 240.775 68.3378 240.898C64.5687 241.021 66.172 242.099 65.5944 244.142C65.2068 245.465 63.8037 245.673 62.6357 245.865C62.283 245.888 62.0554 246.02 61.9379 246.028ZM147.797 317.025L147.687 317.15C146.492 318.761 142.943 324.181 145.316 324.384C147.572 324.594 150.476 325.706 151.789 324.088C153.087 322.235 152.527 320.854 156.654 318.938C158.717 317.98 160.067 311.402 160.067 311.402C160.067 311.402 159.211 309.096 157.711 307.776C156.468 306.793 153.902 310.97 152.911 312.095C151.253 313.854 149.22 315.282 147.797 317.025ZM165.957 303.826C166.622 301.305 168.475 302.603 168.362 300.84C168.25 299.076 162.875 296.233 161.014 294.817C157.3 292.104 160.989 298.124 160.271 299.822C159.334 301.771 159.216 301.778 160.182 303.959C160.454 304.532 161.222 307.315 161.825 307.513C165.309 308.471 165.299 306.465 165.957 303.826Z" stroke="#475566" stroke-opacity="0.3" stroke-width="2" mask="url(#path-1-inside-1_405_5841)"/>
</svg>
