<svg width="405" height="380" viewBox="0 0 405 380" fill="none" xmlns="http://www.w3.org/2000/svg">
<mask id="path-1-inside-1_405_7137" fill="white">
<path d="M-195.628 30.9151C-197.159 29.9747 -198.69 29.1519 -200.457 28.7992C-202.813 28.4466 -205.522 28.6817 -207.76 27.5062C-209.291 26.6834 -212.353 22.4516 -208.584 22.8042C-205.993 23.0393 -200.928 22.9218 -199.161 20.9234C-194.685 15.8688 -188.678 27.9764 -183.614 26.6834C-180.905 25.9781 -180.316 22.4516 -177.489 24.0973C-175.722 25.1552 -173.837 26.8009 -172.542 28.4466C-170.657 30.7976 -171.953 32.0906 -174.662 32.5608C-177.135 32.9135 -179.609 32.6784 -182.2 32.6784C-184.556 32.6784 -186.912 32.9135 -189.267 33.1486C-191.623 33.3837 -193.625 32.0906 -195.628 30.9151ZM-168.537 15.3986C-168.537 15.3986 -167.241 20.8059 -165.357 21.5112C-163.59 22.2165 -162.648 23.1569 -161.47 20.6883C-160.292 18.3374 -163.001 17.2794 -165.003 15.3986C-167.006 13.5178 -170.186 8.93343 -168.537 15.3986ZM-177.135 47.1369C-180.551 45.4912 -178.902 43.2578 -180.08 39.3787C-181.258 35.4995 -183.731 39.3787 -187.147 43.0227C-190.563 46.6667 -193.979 39.9664 -195.746 38.2032C-197.512 36.4399 -195.863 36.0873 -204.933 35.2644C-213.885 34.324 -213.178 34.0889 -217.183 38.6734C-221.187 43.2578 -213.767 42.0823 -208.584 42.67C-203.402 43.2578 -203.284 46.3141 -203.755 49.4879C-204.226 52.6617 -213.767 51.1336 -222.718 50.0756C-231.67 49.0177 -230.846 51.016 -235.439 53.0144C-240.033 55.0127 -249.691 49.723 -253.696 48.4299C-257.701 47.1369 -285.027 48.7826 -289.032 48.7826C-293.036 48.7826 -295.274 51.8389 -298.337 53.2495C-301.399 54.6601 -300.104 60.1849 -300.221 62.7709C-300.339 65.357 -306.228 63.006 -309.291 63.006C-312.353 63.006 -311.529 64.7693 -311.764 67.0027C-312 69.2361 -310.704 69.4712 -307.053 69.2361C-303.402 69.001 -301.87 69.5888 -301.753 72.0573C-301.635 74.5259 -306.464 73.2328 -309.409 73.2328C-312.353 73.2328 -311.175 78.405 -310.586 82.7543C-309.998 87.1036 -307.171 86.3983 -305.522 87.5738C-303.873 88.7493 -301.517 90.395 -315.416 96.2725C-329.314 102.15 -315.887 99.5638 -313.531 98.6234C-311.175 97.6831 -300.81 94.5092 -297.748 94.5092C-294.685 94.5092 -289.974 90.9827 -286.087 87.6914C-282.2 84.4 -270.068 85.9281 -261.352 86.0457C-252.636 86.1632 -245.098 105.206 -240.857 108.145C-236.617 111.084 -236.146 134.946 -236.264 141.999C-236.382 149.052 -231.199 153.872 -228.843 156.105C-226.488 158.338 -220.716 171.151 -214.356 179.732C-207.995 188.431 -210.94 177.499 -212.824 172.562C-214.709 167.507 -211.058 172.092 -211.058 172.092C-211.058 172.092 -199.75 185.022 -197.512 191.017C-195.274 197.012 -185.616 202.067 -179.138 202.537C-172.66 203.007 -172.777 204.77 -172.777 204.77C-172.777 204.77 -173.131 207.239 -165.357 208.179C-157.701 209.12 -158.996 215.115 -155.816 217.466C-152.636 219.817 -147.689 222.285 -143.331 222.285C-138.973 222.285 -140.504 221.815 -139.68 225.106C-138.855 228.398 -141.918 232.865 -144.155 235.216C-146.393 237.567 -146.629 242.974 -146.629 249.321C-146.629 255.669 -144.155 256.962 -144.155 256.962C-144.155 256.962 -130.728 278.826 -127.548 280.825C-124.367 282.823 -124.839 287.055 -124.839 287.055C-124.839 287.055 -124.839 319.263 -124.956 321.732C-125.074 324.2 -125.31 324.2 -127.43 327.139C-129.55 330.078 -129.197 336.543 -129.197 336.543C-129.197 336.543 -129.55 365.107 -129.55 367.223C-129.55 369.339 -126.252 372.043 -115.534 377.803C-104.815 383.563 -112.589 374.982 -113.767 372.983C-114.945 370.985 -114.12 365.813 -114.12 361.934C-114.12 358.054 -110.822 356.056 -109.526 353.705C-108.231 351.354 -109.409 349.591 -109.409 345.477C-109.409 341.362 -104.815 339.247 -104.815 339.247C-104.815 339.247 -79.6089 313.621 -77.6066 311.27C-75.6042 308.919 -75.2509 304.334 -75.4865 301.748C-75.722 299.162 -67.9482 291.639 -63.5901 288.465C-59.232 285.292 -55.8163 276.358 -55.5807 274.359C-55.3451 272.361 -55.2273 267.777 -52.2827 265.543C-49.338 263.31 -49.4558 258.49 -48.278 253.436C-47.1001 248.381 -56.523 247.793 -62.1767 244.149C-67.8304 240.505 -76.7821 239.447 -77.4888 239.447C-78.1955 239.447 -82.2002 239.918 -81.9647 236.979C-81.7291 234.04 -84.2026 228.985 -85.616 226.517C-87.0294 224.048 -89.2674 224.166 -91.9764 224.166C-94.6855 224.166 -102.93 216.525 -106.464 214.174C-109.998 211.823 -117.183 213.704 -121.894 212.411C-126.605 211.118 -124.25 211.118 -128.49 209.942C-132.73 208.767 -134.733 214.644 -136.735 215.232C-138.737 215.82 -145.216 215.585 -147.571 215.232C-149.927 214.88 -151.694 210.765 -152.283 207.004C-152.872 203.242 -154.167 201.596 -157.347 199.833C-160.528 198.07 -160.999 194.073 -160.645 191.252C-160.292 188.431 -162.294 188.196 -164.65 188.078C-167.006 187.961 -166.888 188.901 -167.477 190.9C-168.066 192.898 -169.95 193.838 -175.015 193.015C-180.08 192.075 -182.2 186.08 -182.789 181.26C-183.378 176.441 -183.26 173.737 -179.962 170.916C-176.664 168.095 -175.722 169.623 -171.246 170.328C-166.77 171.034 -163.708 168.565 -160.763 165.509C-157.819 162.453 -154.285 167.625 -154.285 167.625C-154.285 167.625 -154.285 167.625 -149.456 175.148C-144.627 182.671 -145.216 175.03 -146.393 167.742C-147.571 160.454 -125.074 137.297 -121.658 134.006C-118.243 130.714 -118.596 132.125 -112.707 131.655C-106.817 131.185 -104.579 125.19 -101.164 122.721C-97.7479 120.252 -105.64 120.37 -109.173 118.489C-112.707 116.608 -106.817 116.138 -104.697 115.08C-102.577 114.022 -98.1013 113.435 -92.212 113.787C-86.3227 114.14 -100.928 93.4513 -103.402 91.1003C-105.875 88.7493 -105.168 85.2228 -106.346 81.8139C-107.524 78.405 -111.529 84.0473 -114.473 87.6914C-117.418 91.3354 -117.3 87.6914 -116.829 85.4579C-116.358 83.2245 -118.714 80.8735 -119.774 77.8172C-120.834 74.761 -128.372 75.7013 -131.081 75.5838C-133.79 75.4663 -133.319 75.7013 -134.144 80.2858C-134.968 84.8702 -133.673 87.8089 -132.848 92.0407C-132.024 96.2725 -136.735 102.032 -139.444 104.971C-142.153 107.91 -142.86 104.383 -142.978 101.445C-143.095 98.5059 -144.509 98.9761 -147.807 98.5059C-151.105 98.0357 -151.34 97.9181 -152.636 94.8619C-153.932 91.8056 -158.29 89.2195 -162.412 88.9844C-166.535 88.7493 -165.239 81.5788 -165.121 78.405C-165.003 75.1136 -158.879 74.9961 -156.876 74.4083C-154.874 73.8206 -151.576 71.7047 -148.278 75.4662C-144.98 79.1103 -141.8 75.4662 -141.8 75.4662C-141.8 75.4662 -136.735 71.5871 -136.735 69.2361C-136.735 66.8852 -137.795 67.5905 -140.975 67.5905C-144.155 67.5905 -144.627 67.5905 -144.627 64.8868C-144.627 62.1832 -144.627 61.9481 -138.973 61.8306C-133.319 61.713 -135.91 56.5408 -133.201 54.0723C-130.492 51.6038 -127.901 53.4846 -128.372 58.5392C-128.843 63.5938 -122.954 59.7147 -119.656 61.0077C-116.358 62.3007 -117.889 63.9464 -120.716 64.5342C-123.543 65.1219 -121.658 66.0623 -120.834 69.1186C-120.009 72.1749 -120.363 71.352 -111.411 72.0573C-102.459 72.7626 -110.115 68.1782 -110.704 67.2378C-111.293 66.2974 -114.002 63.9464 -105.875 64.4166C-97.7479 64.8868 -102.813 58.3041 -102.813 58.3041C-102.813 58.3041 -108.466 48.5475 -114.945 46.079C-121.423 43.6104 -119.656 43.728 -123.072 39.4962C-126.488 35.2644 -139.562 37.2628 -143.449 37.0277C-147.336 36.7926 -147.1 39.3787 -149.102 41.8472C-150.987 44.3157 -146.276 46.7843 -145.804 54.6601C-145.333 62.5358 -150.516 55.6004 -150.516 55.6004C-150.516 55.6004 -153.343 52.1915 -154.638 49.1352C-155.934 46.079 -156.405 44.4333 -154.521 42.1998C-152.636 39.9664 -151.812 37.4979 -155.698 32.5608C-159.585 27.6237 -162.766 25.743 -164.415 25.5079C-166.064 25.2728 -165.592 28.5641 -165.357 31.3853C-165.121 34.2065 -163.472 33.7363 -161.47 35.382C-159.585 37.0277 -160.41 40.084 -160.881 43.2578C-161.352 46.4316 -161.47 44.1982 -164.415 39.3787C-167.359 34.5591 -169.244 37.1452 -171.835 40.4366C-174.426 43.728 -167.359 45.7263 -167.124 51.6038C-166.888 57.4812 -170.186 52.6617 -170.186 52.6617C-170.186 52.6617 -173.72 48.7826 -177.135 47.1369ZM-284.32 160.572C-284.32 160.572 -281.729 173.385 -278.431 172.797C-271.835 171.621 -276.782 167.39 -282.554 160.572C-283.025 159.867 -285.027 157.633 -284.32 160.572ZM-142.86 189.254C-142.153 189.489 -141.446 189.606 -140.857 189.959C-139.915 190.547 -139.208 191.605 -138.148 191.957C-136.735 192.545 -133.908 191.135 -132.495 190.782C-126.488 189.371 -142.506 184.199 -145.333 183.494C-148.16 182.789 -148.985 182.201 -155.345 185.022C-161.706 187.843 -149.927 188.078 -149.927 188.078C-147.453 188.431 -145.098 188.666 -142.86 189.254ZM-128.608 192.78C-128.608 193.486 -128.608 194.191 -128.49 194.308C-127.901 195.601 -126.252 195.131 -125.074 195.131C-124.014 195.131 -117.418 194.779 -120.481 193.603C-122.365 192.898 -124.367 191.605 -126.488 190.9C-129.55 189.842 -128.608 191.37 -128.608 192.78ZM-155.581 24.2148C-154.638 26.2132 -153.225 25.8605 -152.047 26.4483C-150.869 27.036 -150.516 28.4466 -150.163 31.8555C-149.809 35.2644 -138.973 33.9714 -131.552 33.8539C-124.132 33.7363 -128.961 29.8572 -138.384 30.0923C-142.506 30.2098 -142.978 29.5045 -144.155 27.2711C-145.333 25.0377 -147.218 24.9201 -149.927 23.8622C-152.636 22.8042 -152.4 21.3936 -154.992 18.69C-158.525 15.046 -156.641 22.2165 -156.641 22.2165C-156.641 22.2165 -156.523 22.2165 -155.581 24.2148ZM-126.134 26.4483C-120.834 26.4483 -117.536 18.4549 -117.3 17.1619C-117.065 15.8688 -113.885 13.6354 -109.644 13.6354C-105.404 13.6354 -103.166 13.6354 -101.281 11.402C-99.3969 9.16853 -101.399 10.2265 -95.2744 8.69833C-89.1496 7.17019 -89.2674 5.2894 -89.3851 2.93842C-89.5029 0.587439 -99.3969 0.704988 -102.106 0.822537C-104.815 0.940086 -104.579 2.58577 -107.524 4.46656C-110.469 6.34735 -128.254 4.58411 -133.908 4.46656C-134.497 4.46656 -135.086 4.46656 -135.557 4.70166C-134.85 5.7596 -132.377 5.9947 -131.317 6.4649C-129.786 7.05264 -128.961 8.22813 -127.665 9.05098C-126.37 9.75627 -124.839 9.87382 -123.425 9.99137C-108.584 11.5195 -120.009 12.8126 -121.187 12.9301C-122.365 13.0476 -124.25 12.3424 -124.603 15.3986C-124.956 18.4549 -128.843 16.9268 -130.846 17.0443C-132.848 17.1619 -132.141 16.8092 -132.141 13.0476C-132.141 9.28608 -140.857 9.99137 -144.627 10.1089C-148.396 10.2265 -146.865 13.4003 -147.1 17.0443C-147.336 20.6883 -146.393 20.5708 -142.506 20.9234C-138.737 21.2761 -140.033 22.2165 -139.562 24.4499C-139.091 26.6834 -133.201 26.3307 -133.201 26.3307C-133.201 26.3307 -131.435 26.4483 -126.134 26.4483ZM-83.2603 6.58245C-83.2603 6.58245 -86.6761 5.64205 -88.4429 8.11058C-90.2096 10.5791 -88.3251 10.8142 -92.4476 10.9318C-96.5701 11.0493 -96.3345 11.2844 -97.2768 13.7529C-98.2191 16.2215 -100.221 18.5725 -103.166 18.5725C-106.111 18.5725 -110.822 17.5145 -110.351 19.748C-109.88 22.0989 -105.875 28.0939 -103.873 28.2115C-101.87 28.329 -85.0271 26.4483 -83.2603 33.1486C-81.4935 39.9664 -84.3204 51.2511 -81.1402 53.1319C-77.9599 55.0127 -79.3734 57.2461 -80.4334 57.8339C-81.4935 58.4216 -83.1425 57.1286 -83.1425 60.5375C-83.1425 63.9464 -82.0824 62.4183 -80.1979 65.2395C-78.3133 68.0607 -77.371 67.0027 -77.371 71.2345C-77.371 75.4663 -77.8422 77.1119 -74.662 77.5821C-71.4817 78.0523 -68.7727 80.6384 -68.3015 82.1666C-67.8304 83.6947 -64.6502 82.2841 -63.8257 80.4033C-63.0012 78.5225 -53.225 65.2395 -50.2803 65.0044C-47.3357 64.7693 -42.2709 65.1219 -42.1531 62.5358C-42.0353 59.9498 -43.6843 56.1882 -40.033 56.0706C-36.3816 55.9531 -29.4323 56.0706 -26.3699 52.6617C-23.3074 49.2528 -16.947 45.6088 -22.8363 44.6684C-25.5454 44.1982 -28.0189 41.8472 -26.6054 39.026C-26.4876 38.6734 -22.3651 39.026 -21.7762 38.9085C-20.3628 38.6734 -18.4782 38.2032 -17.6537 36.7926C-16.3581 34.324 -15.0625 31.8555 -13.649 29.387C-12.3534 27.3886 -8.1131 23.0393 -13.4135 22.0989C-15.0624 21.7463 -15.887 19.8655 -13.5312 17.8672C-13.5312 17.8672 -9.99768 9.99137 -6.46411 9.99137C-5.40402 9.99137 4.60773 9.52117 3.19427 7.87549C2.25201 6.81754 2.25201 6.81754 -4.81512 6.34735C-5.75742 6.2298 -6.34631 5.40695 -7.17084 5.05431C-8.34869 4.70166 -9.87988 4.81921 -11.0577 4.81921C-17.4182 5.17186 -15.298 5.2894 -18.0071 3.05597C-20.7162 0.822537 -23.3074 0.822537 -34.7326 0.940086C-46.2756 1.05764 -50.6337 -0.117856 -53.4605 2.35068C-56.2874 4.81921 -54.9918 6.34735 -60.9988 6.34735C-67.0059 6.34735 -83.2603 6.58245 -83.2603 6.58245ZM-21.6584 68.4133C-21.6584 68.7659 -21.6584 69.2361 -21.6584 69.5888C-21.6584 70.5292 -21.6584 72.2924 -20.3628 72.2924C-18.4782 72.2924 -16.5937 72.1749 -14.7091 72.0573C-13.7668 71.9398 -12.7068 72.41 -12 71.8222C-10.351 70.6467 -9.64435 69.1186 -7.4064 68.766C-6.46414 68.6484 -3.87283 69.1186 -3.75507 67.708C-3.75507 67.1203 -4.46176 61.2428 -5.40405 60.5375C-7.75977 58.7743 -13.649 62.1832 -17.6537 62.1832C-19.0672 62.1832 -20.4806 61.713 -22.0118 61.9481C-23.3074 62.1832 -22.8363 63.7113 -22.6007 64.6517C-22.0118 66.0623 -21.7762 67.1203 -21.6584 68.4133ZM8.96582 96.6251C8.96582 96.6251 4.25439 100.034 4.1366 102.855C4.0188 105.559 3.19431 110.613 6.49231 108.498C9.90808 106.382 12.3816 101.68 12.3816 101.68C12.3816 101.68 13.2061 92.2758 8.96582 96.6251ZM16.3863 95.6847C16.9752 96.9778 17.2108 98.5059 17.5641 99.9165C18.1531 102.503 16.6219 104.736 15.2084 106.617C13.9128 108.262 12.146 110.378 14.5017 112.024C17.6819 114.14 21.9222 109.085 24.8669 106.969C27.2226 105.324 26.0447 102.385 24.6313 100.504C22.8645 97.9181 20.7444 95.6847 19.6843 92.746C18.742 89.9248 16.7396 87.9265 14.9728 85.5755C13.6772 83.9298 11.9104 84.6351 11.2037 87.6914C10.6148 90.395 12.4994 91.8056 14.1484 93.2162C15.0907 93.9215 15.9152 94.7443 16.3863 95.6847ZM56.4334 100.034C52.0753 100.857 49.7196 101.797 45.4793 100.739C43.1236 100.152 44.1837 93.6864 41.7102 93.2162C40.8857 92.9811 39.5901 92.1582 39.0011 92.9811C38.6478 93.4513 38.8833 94.7443 38.8833 95.3321C39.0011 96.5076 39.7078 99.4463 37.941 99.6814C35.5853 100.034 36.6454 98.5059 35.232 103.443C33.8185 108.38 28.7538 110.496 27.1048 111.436C25.4558 112.377 22.8645 114.728 18.8598 114.728C14.8551 114.61 14.2661 115.903 17.4464 118.137C19.9199 119.9 20.2732 122.486 20.5088 125.307C20.5088 125.307 20.5088 125.307 20.5088 125.425C20.6266 126.6 21.2155 130.714 19.4487 131.067C17.3286 131.42 10.2614 131.067 7.31677 131.067C4.37213 131.067 5.55002 135.651 5.43225 138.473C5.31445 141.294 6.02115 142.234 6.96344 142.469C7.90573 142.822 10.1437 143.88 11.3215 146.466C12.4994 149.052 16.3863 147.759 20.391 147.994C24.3957 148.229 23.689 143.527 24.2779 141.764C24.8669 140.001 23.4534 138.943 27.4581 138.825C31.3451 138.708 32.7585 136.122 33.2296 133.183C33.7007 130.127 36.6454 132.948 40.5323 130.479C44.4193 128.011 50.5441 135.299 53.2532 137.297C54.5488 138.238 57.9646 140.941 57.729 141.646C56.9045 143.292 50.6619 141.294 52.5465 144.703C55.02 149.405 57.6112 147.289 61.2626 142.587C65.0317 138.002 56.3156 134.006 54.6666 132.713C53.0176 131.302 49.0129 128.716 51.8398 125.307C54.6666 122.016 61.2626 130.009 61.2626 130.009C64.2072 132.36 68.5653 138.59 69.9787 143.762C71.5099 148.817 72.0989 149.287 76.6925 149.64C81.2862 149.992 77.7526 143.997 77.0459 141.646C76.2214 139.413 76.2213 138.825 79.166 138.943C82.1106 139.06 83.6418 144.82 85.2909 146.936C86.9398 149.052 92.7113 150.58 95.067 149.64C97.5406 148.699 98.2473 147.759 101.074 150.58C103.901 153.401 97.4228 160.337 95.4204 160.689C93.4181 161.042 89.7667 163.393 85.0553 160.924C80.3438 158.338 79.5194 158.809 74.219 157.868C68.9187 156.928 69.7432 159.631 68.4475 162.805C67.1519 165.979 64.5606 163.628 63.3827 162.218C62.2049 160.807 52.4287 156.105 48.8951 153.519C45.3615 150.933 45.9505 148.347 44.6548 145.761C43.3592 143.175 39.2367 145.526 38.53 146.348C37.8232 147.171 34.4075 147.289 31.2273 147.289C28.0471 147.289 26.8692 146.701 24.9846 149.17C23.1001 151.638 23.2178 150.228 19.6843 152.579C16.1507 154.929 12.6172 154.107 7.43457 154.812C2.25201 155.517 3.7832 165.391 3.7832 167.155C3.7832 168.918 2.95871 170.916 0.838593 170.446C-1.28156 169.976 -4.93292 180.555 -7.4064 182.789C-9.87991 185.022 -8.46646 191.84 -8.34869 194.191C-8.2309 196.542 -10.2333 198.423 -11.5289 198.893C-12.8246 199.363 -11.1755 207.239 -12.1178 209.237C-13.0601 211.236 -6.22855 212.529 -6.22855 212.529C-5.63962 213.351 -1.16376 214.88 1.78088 219.229C5.43225 224.636 8.96582 224.283 8.96582 224.283C8.96582 224.283 33.1118 224.166 38.6478 224.166C41.0035 224.166 43.2414 224.989 44.7726 226.87C46.186 228.75 47.5995 231.807 46.3038 234.04C45.126 236.156 44.537 239.918 46.3038 241.916C47.2461 242.974 48.7773 243.679 49.9552 244.502C53.7243 246.735 55.02 256.492 55.02 261.547C55.02 264.838 54.6666 268.247 53.7243 271.538C53.4888 272.596 53.1354 273.654 52.4287 274.595C51.4864 276.005 51.1331 276.828 51.2508 278.474C51.2508 281.06 50.7797 283.881 53.6065 284.939C55.3733 285.644 58.0824 293.755 58.0824 293.755C58.0824 293.755 65.0317 313.033 65.974 317.265C66.9163 321.497 68.9187 321.262 70.2143 321.262C71.5099 321.262 72.9234 321.497 73.2767 319.733C73.6301 318.088 75.1613 318.44 75.1613 318.44C75.1613 318.44 76.5747 318.675 82.6996 318.44C88.9422 318.205 93.4181 308.449 94.9493 306.921C96.4805 305.392 96.5983 304.922 96.4805 301.866C96.2449 298.692 96.8338 298.457 99.8963 298.222C103.076 297.987 102.605 295.401 102.723 289.288C102.841 283.176 105.903 281.295 110.144 277.181C114.384 273.066 111.439 256.492 111.086 249.792C110.733 243.091 115.091 239.918 115.091 239.918C115.091 239.918 129.578 218.759 134.879 212.999C140.179 207.239 131.581 208.649 131.581 208.649C131.581 208.649 123.689 208.885 120.038 208.414C116.386 208.062 112.499 200.421 110.733 198.423C108.966 196.424 104.843 192.898 104.137 188.784C103.43 184.669 101.899 180.908 101.899 180.908C101.545 180.085 97.7762 176.323 97.305 171.857C96.2449 161.865 100.014 169.623 100.014 169.623C100.014 169.623 101.427 172.327 106.492 175.971C111.557 179.732 114.384 192.78 116.857 197.835C119.331 202.89 118.978 202.89 126.751 203.007C134.525 203.242 145.126 191.84 148.306 189.724C151.486 187.608 150.426 184.905 149.131 182.083C147.835 179.262 145.126 179.85 139.943 178.792C134.761 177.852 132.994 171.504 128.283 168.565C123.571 165.626 127.929 165.862 131.227 166.214C134.525 166.567 134.879 168.33 136.528 170.328C138.177 172.444 140.768 173.62 145.95 173.15C151.133 172.797 154.549 174.795 155.727 176.323C156.904 177.852 160.438 179.145 160.438 179.145C160.438 179.145 169.272 179.145 170.332 180.32C171.392 181.496 170.803 184.669 176.575 185.257C182.346 185.845 185.173 197.247 185.173 197.247C185.173 197.247 186.822 211.823 190.827 214.292C198.601 219.111 196.598 203.007 196.952 199.951C197.305 196.895 206.021 192.193 209.083 190.782C210.379 190.194 210.968 188.784 211.086 187.373C211.204 186.433 210.497 184.317 211.204 183.611C211.793 183.141 214.148 183.259 214.855 183.376C216.386 183.611 219.213 182.436 219.92 185.727C220.626 189.019 224.867 193.133 224.867 193.133C226.162 194.426 227.811 195.131 229.578 195.484C231.109 195.719 232.994 195.014 234.407 195.837C236.41 197.012 235.114 201.009 234.996 202.772C234.996 204.653 234.525 206.534 234.761 208.532C234.996 210.648 236.292 212.411 236.763 214.527C237.116 215.937 237.352 217.231 237.47 218.641C237.47 218.641 242.299 231.572 249.131 230.279C253.724 229.456 245.715 221.697 242.299 218.171C238.883 214.644 238.648 211.118 240.179 207.474C241.71 203.83 244.655 208.414 249.72 211.588C254.784 214.762 252.782 213.587 256.904 208.414C261.027 203.36 257.376 197.247 256.08 195.954C254.784 194.661 249.366 187.608 255.727 185.375C261.969 183.141 268.094 182.671 271.51 182.201C274.926 181.731 274.572 178.087 280.226 170.093C285.88 162.1 280.462 151.991 278.106 147.877C275.632 143.762 275.161 141.646 278.695 137.532C282.228 133.418 285.644 140.824 285.644 140.824C285.644 140.824 289.178 146.819 293.889 152.696C298.601 158.574 299.661 150.58 300.485 148.699C301.31 146.701 298.247 144.233 296.48 141.529C294.714 138.825 296.716 134.593 297.187 133.065C297.658 131.537 306.257 127.423 308.966 126.365C311.675 125.307 314.502 120.723 315.679 110.731C316.857 100.739 319.213 111.671 319.213 111.671C319.213 111.671 319.566 134.123 319.449 138.238C319.331 142.352 319.566 144.115 314.502 147.289C309.437 150.463 308.848 149.757 306.139 150.345C303.43 150.933 302.487 151.873 302.252 158.338C302.016 164.804 305.197 161.277 305.55 159.749C305.903 158.221 307.081 153.754 310.497 154.107C313.913 154.459 319.331 150.58 322.511 148.229C325.691 145.878 324.278 139.531 324.16 135.887C324.042 132.242 323.689 133.3 326.869 133.065C330.049 132.83 328.871 132.595 329.343 129.656C329.814 126.718 328.4 126.365 325.456 126.247C322.511 126.13 323.1 123.309 323.1 123.309C323.1 123.309 323.689 108.85 322.982 105.441C322.275 102.15 318.153 97.2128 309.555 97.8006C300.956 98.3883 314.03 86.6334 318.153 82.4017C322.158 78.1699 326.162 80.9911 326.162 80.9911C326.162 80.9911 330.992 83.342 337.705 84.7526C344.419 86.1632 341.239 80.8735 342.063 77.347C342.888 73.8206 345.833 75.2312 351.369 78.9927C356.904 82.7543 346.539 89.6897 345.244 91.8056C343.948 93.9215 347.01 99.4463 350.426 105.676C353.842 111.907 353.253 104.266 353.724 101.797C354.078 99.3287 353.842 97.0953 356.315 95.2145C358.789 93.3337 357.376 90.0424 357.376 84.9877C357.376 79.9331 360.909 80.6384 366.445 80.6384C371.981 80.756 372.688 78.7576 373.983 77.9348C375.279 77.1119 374.572 75.2312 382.817 74.1732C391.062 73.2328 373.866 52.1915 372.452 50.6634C371.039 49.1352 346.893 50.4283 341.003 50.1932C335.114 49.9581 335.35 46.1965 334.172 44.7859C332.994 43.3753 319.684 44.5508 317.211 44.4333C314.737 44.3157 312.146 39.1436 310.026 38.9085C307.906 38.6734 307.081 40.7892 304.961 42.67C302.841 44.5508 302.841 40.084 302.605 38.2032C302.37 36.3224 301.074 35.7346 298.718 35.0293C296.363 34.324 296.363 40.5542 296.245 42.67C296.127 44.7859 277.164 44.0806 273.512 43.9631C269.861 43.8455 268.683 39.8489 267.976 35.6171C267.27 31.3853 263.5 35.8522 263.5 35.8522L254.549 36.3224C254.549 36.3224 239.472 35.8522 235.467 36.4399C231.581 37.0277 235.467 31.6204 237.588 29.1519C239.708 26.5658 229.932 22.8042 228.754 21.7463C227.576 20.6883 219.684 21.9814 218.035 21.3936C216.504 20.8059 215.326 18.2198 214.855 19.0427C214.384 19.8655 213.795 22.334 212.028 23.6271C210.261 24.9201 208.612 24.4499 206.257 24.8026C203.901 25.1552 205.314 26.2132 197.305 25.743C189.296 25.3903 188.942 30.68 186.469 33.6188C183.877 36.5575 179.637 36.3224 177.635 36.4399C175.632 36.675 176.339 40.6717 175.397 43.1402C174.455 45.6088 170.685 39.9664 169.272 39.2611C167.859 38.4383 168.33 43.0227 168.33 43.0227C168.33 43.0227 168.212 56.6584 167.623 58.069C167.034 59.4796 162.558 47.7247 162.558 45.021C162.676 42.3174 160.438 36.4399 159.967 35.382C159.614 34.4416 158.436 35.9697 156.904 38.0856C155.373 40.2015 156.316 44.4333 155.962 47.372C155.609 50.3107 153.96 48.7826 149.366 48.7826C144.773 48.7826 143.948 50.3107 142.064 52.074C140.179 53.8372 133.23 53.367 129.225 53.367C125.22 53.367 123.218 55.6004 119.566 57.8339C115.915 60.0673 116.857 56.5408 114.502 53.367C112.028 50.0756 111.204 55.4829 109.908 57.8339C108.612 60.1849 101.781 53.9548 98.4828 51.2511C95.1848 48.5475 93.1825 50.5458 91.4157 50.5458C89.6489 50.5458 87.6466 51.2511 85.762 48.1949C83.8774 45.1386 78.9305 45.4912 73.6301 43.728C68.3297 41.9647 66.6807 45.8439 61.027 47.8422C55.3733 49.8405 53.9599 53.1319 53.9599 53.1319C53.9599 53.1319 53.9599 53.1319 53.6065 56.3057C53.2532 59.4796 49.3662 63.006 46.8928 66.0623C44.4193 69.1186 39.7079 69.3537 37.1165 70.7643C34.5253 72.1749 36.2921 80.5209 36.4099 83.9298C36.5276 87.2212 41.9458 84.8702 45.4793 84.8702C48.8951 84.8702 47.0106 87.8089 46.5394 89.2195C46.3038 90.2775 44.537 90.0424 44.1837 90.7476C44.0659 90.8652 44.0659 91.1003 44.1837 91.4529C44.6548 92.6284 45.9505 93.5688 46.6572 94.7443C48.8951 98.3883 50.5441 94.3917 50.5441 94.3917C50.5441 94.3917 53.9599 89.9248 57.0223 85.2228C59.7314 81.1086 54.7844 77.9348 57.729 74.0557C60.2025 70.7643 63.265 67.8256 66.3274 65.4746C71.6277 61.3604 72.4522 63.8289 73.9834 66.1799C75.5146 68.5309 66.3274 71.8222 63.7361 77.8172C61.1448 83.8122 69.9787 79.8156 67.5052 84.9877C62.5582 96.8602 61.1448 99.0936 56.4334 100.034ZM130.992 43.8455C132.641 45.1386 134.407 46.3141 136.292 47.372C136.881 47.7247 139.59 49.3703 138.883 47.4896C138.412 46.1965 137.352 44.9035 136.528 43.8455C134.879 41.7296 135.114 40.3191 135.114 37.4979C135.114 34.6767 140.768 32.3257 140.768 32.3257C160.202 22.6867 142.064 28.0939 139.237 28.4466C136.528 28.6817 133.819 29.0343 132.405 29.5045C130.992 29.9747 127.811 33.7363 126.28 36.9101C125.809 37.8505 126.045 39.026 126.398 39.9664C126.751 40.6717 127.223 41.2594 127.929 41.7296C128.989 42.4349 130.167 43.1402 130.992 43.8455ZM122.04 275.3C120.509 276.475 120.862 280.119 120.744 286.349C120.744 288.113 122.982 300.573 125.927 296.224C125.927 296.106 129.814 290.464 129.932 287.29C130.049 283.998 132.758 280.707 133.819 278.474C134.879 276.24 134.29 273.301 132.052 268.482C129.814 263.662 127.223 271.773 127.223 271.773C126.516 273.066 123.571 274.124 122.04 275.3ZM241.592 239.682C243.241 241.563 244.89 243.562 246.539 245.442C247.364 246.383 248.188 247.323 249.013 248.264C249.955 249.204 251.133 250.144 251.604 251.32C252.075 252.495 251.957 254.141 252.9 255.081C253.724 255.904 255.02 255.904 256.08 255.787C260.674 255.669 265.267 255.904 269.979 255.904C297.069 255.904 276.575 254.023 275.397 253.788C274.219 253.553 271.745 254.141 269.508 252.495C267.27 250.85 257.14 251.32 257.14 251.32C257.14 251.32 253.606 251.437 254.078 248.499C254.549 245.56 253.135 245.795 248.659 238.389C244.184 230.984 244.419 236.156 237.352 228.985C230.285 221.815 234.643 229.103 236.056 231.924C237.47 234.745 240.65 238.389 240.65 238.389C240.886 238.86 241.239 239.33 241.592 239.682ZM280.344 242.621C279.873 244.149 279.873 245.56 281.639 246.148C284.937 247.088 284.349 246.03 287.646 243.914C288.235 243.562 290.002 242.504 289.884 241.681C289.767 240.975 288.235 240.975 287.646 240.623C287.058 240.153 286.469 239.565 285.762 239.565C284.82 239.447 283.877 239.447 282.935 239.565C281.757 239.682 281.168 240.035 280.815 240.975C280.579 241.446 280.462 242.033 280.344 242.621ZM269.861 241.211C270.921 241.211 272.099 241.211 273.159 240.74C274.101 240.388 274.69 239.565 275.397 238.977C276.692 237.919 276.928 236.744 277.164 235.568C277.87 232.394 277.635 228.985 277.635 225.812C277.635 220.169 276.81 221.227 275.868 218.876C275.397 217.583 271.392 219.111 269.743 220.404C268.094 221.697 269.036 223.931 268.919 225.577C268.919 227.692 266.798 228.045 265.385 229.103C263.618 230.396 261.969 231.807 260.32 233.217C258.2 234.98 260.202 236.861 261.145 238.742C261.38 239.212 261.734 239.8 262.205 240.153C263.029 240.858 264.089 240.975 265.032 241.093C265.149 241.093 265.149 241.093 265.267 241.093C266.798 241.211 268.33 241.211 269.861 241.211ZM288.824 215.232C289.649 216.995 290.827 218.759 291.887 220.404C292.476 221.345 293.771 222.873 294.949 221.932C296.48 220.757 296.127 218.759 296.127 217.231C296.127 213.704 296.48 208.532 295.067 206.063C293.536 203.595 290.709 202.184 288.942 199.833C287.529 198.07 286.351 198.305 284.584 191.722C282.7 185.14 283.288 193.368 282.935 197.482C282.582 201.596 286.351 204.888 286.351 204.888C289.06 207.944 287.293 211.706 288.824 215.232ZM317.682 247.793C319.095 247.911 320.391 248.381 321.333 249.557C322.511 250.967 322.864 252.613 323.807 254.141C324.396 255.199 325.338 256.609 326.869 256.257C328.282 255.787 329.696 254.376 330.874 255.904C332.523 258.02 333.347 257.08 333.347 257.08C333.818 256.727 337.47 254.494 339.237 255.904C349.484 264.25 345.126 258.02 342.535 254.729C339.943 251.437 333.347 246.618 330.403 243.679C327.458 240.74 321.451 243.326 318.153 242.856C314.855 242.386 315.915 239.447 314.148 237.449C312.381 235.451 305.314 237.567 303.665 236.744C302.016 235.921 301.192 235.568 301.192 233.335C301.192 232.982 300.485 230.043 299.661 231.101C299.307 231.572 299.543 232.865 299.543 233.452C299.543 234.393 299.543 235.333 299.661 236.273C300.014 238.507 301.781 237.567 304.725 239.33C307.67 240.975 308.73 243.914 309.319 246.383C309.79 248.381 312.264 248.264 314.148 248.028C315.326 247.911 316.504 247.793 317.682 247.793ZM333.701 335.132C333.112 335.015 331.934 334.897 331.698 335.603C331.463 336.308 332.758 337.131 332.758 337.718C332.758 338.659 332.523 341.598 335.35 341.833C338.059 342.068 338.53 340.422 339.119 337.718C339.237 337.248 339.237 336.778 339.001 336.308C338.648 335.72 337.823 335.603 337.234 335.603C336.645 335.485 336.056 335.485 335.35 335.367C334.761 335.25 334.29 335.25 333.701 335.132ZM301.663 267.659C298.483 268.012 295.538 270.01 292.829 271.538C291.062 272.479 289.178 273.654 288.353 275.652C287.647 277.298 287.764 280.119 287.529 281.883C287.175 283.998 281.639 282.118 279.519 282.47C277.399 282.823 278.106 284.939 277.399 285.644C276.575 286.349 273.63 285.527 271.156 285.997C268.212 286.585 269.625 291.757 269.39 293.755C269.154 295.753 268.447 297.752 267.976 299.75C267.034 303.512 269.272 303.159 271.156 304.099C273.041 305.04 271.274 310.447 271.628 313.386C271.981 316.089 275.515 318.675 277.753 319.616C279.284 320.321 281.168 319.969 282.817 319.969C284.702 319.969 286.586 320.086 288.353 319.616C290.12 319.146 291.416 317.735 292.947 316.677C295.303 314.914 297.894 314.091 300.839 314.326C303.901 314.561 306.846 314.914 309.908 315.031C311.557 315.031 314.384 314.444 314.855 316.56C315.208 318.088 314.973 319.733 315.326 321.262C316.033 324.553 318.271 323.377 320.98 323.377C323.689 323.377 323.807 325.493 324.513 327.492C325.691 330.901 328.165 330.665 331.227 330.665C333.347 330.665 335.467 330.665 337.588 330.548C341.239 330.195 343.477 326.551 343.477 326.551C343.477 326.551 348.306 318.323 350.662 315.031C353.017 311.74 353.96 304.334 353.96 298.575C353.96 292.815 345.95 284.704 345.95 284.704C345.95 284.704 335.232 271.421 333.347 269.422C331.463 267.424 332.641 264.956 331.934 262.722C331.345 260.489 329.578 264.133 327.576 264.72C325.573 265.308 326.634 273.301 326.634 274.477C326.634 275.652 324.16 275.417 322.864 273.772C321.569 272.126 320.744 272.479 318.86 271.421C316.975 270.363 315.797 268.364 315.562 265.191C315.444 262.017 312.146 263.075 308.377 262.957C304.608 262.84 306.139 264.015 305.432 266.013C304.961 267.306 303.548 267.424 302.37 267.542C302.016 267.542 301.781 267.659 301.663 267.659ZM382.817 343.831L382.699 343.949C381.404 345.477 377.517 350.649 379.873 351.001C382.11 351.354 384.937 352.647 386.351 351.119C387.764 349.356 387.293 347.945 391.533 346.299C393.654 345.477 395.42 339.011 395.42 339.011C395.42 339.011 394.714 336.66 393.3 335.25C392.122 334.192 389.295 338.189 388.235 339.247C386.469 340.892 384.348 342.185 382.817 343.831ZM401.781 331.841C402.605 329.372 404.372 330.783 404.372 329.02C404.372 327.257 399.189 324.083 397.423 322.555C393.889 319.616 397.187 325.846 396.363 327.492C395.302 329.372 395.185 329.372 396.009 331.606C396.245 332.194 396.834 335.015 397.423 335.25C400.838 336.425 400.956 334.427 401.781 331.841Z"/>
</mask>
<path d="M-195.628 30.9151C-197.159 29.9747 -198.69 29.1519 -200.457 28.7992C-202.813 28.4466 -205.522 28.6817 -207.76 27.5062C-209.291 26.6834 -212.353 22.4516 -208.584 22.8042C-205.993 23.0393 -200.928 22.9218 -199.161 20.9234C-194.685 15.8688 -188.678 27.9764 -183.614 26.6834C-180.905 25.9781 -180.316 22.4516 -177.489 24.0973C-175.722 25.1552 -173.837 26.8009 -172.542 28.4466C-170.657 30.7976 -171.953 32.0906 -174.662 32.5608C-177.135 32.9135 -179.609 32.6784 -182.2 32.6784C-184.556 32.6784 -186.912 32.9135 -189.267 33.1486C-191.623 33.3837 -193.625 32.0906 -195.628 30.9151ZM-168.537 15.3986C-168.537 15.3986 -167.241 20.8059 -165.357 21.5112C-163.59 22.2165 -162.648 23.1569 -161.47 20.6883C-160.292 18.3374 -163.001 17.2794 -165.003 15.3986C-167.006 13.5178 -170.186 8.93343 -168.537 15.3986ZM-177.135 47.1369C-180.551 45.4912 -178.902 43.2578 -180.08 39.3787C-181.258 35.4995 -183.731 39.3787 -187.147 43.0227C-190.563 46.6667 -193.979 39.9664 -195.746 38.2032C-197.512 36.4399 -195.863 36.0873 -204.933 35.2644C-213.885 34.324 -213.178 34.0889 -217.183 38.6734C-221.187 43.2578 -213.767 42.0823 -208.584 42.67C-203.402 43.2578 -203.284 46.3141 -203.755 49.4879C-204.226 52.6617 -213.767 51.1336 -222.718 50.0756C-231.67 49.0177 -230.846 51.016 -235.439 53.0144C-240.033 55.0127 -249.691 49.723 -253.696 48.4299C-257.701 47.1369 -285.027 48.7826 -289.032 48.7826C-293.036 48.7826 -295.274 51.8389 -298.337 53.2495C-301.399 54.6601 -300.104 60.1849 -300.221 62.7709C-300.339 65.357 -306.228 63.006 -309.291 63.006C-312.353 63.006 -311.529 64.7693 -311.764 67.0027C-312 69.2361 -310.704 69.4712 -307.053 69.2361C-303.402 69.001 -301.87 69.5888 -301.753 72.0573C-301.635 74.5259 -306.464 73.2328 -309.409 73.2328C-312.353 73.2328 -311.175 78.405 -310.586 82.7543C-309.998 87.1036 -307.171 86.3983 -305.522 87.5738C-303.873 88.7493 -301.517 90.395 -315.416 96.2725C-329.314 102.15 -315.887 99.5638 -313.531 98.6234C-311.175 97.6831 -300.81 94.5092 -297.748 94.5092C-294.685 94.5092 -289.974 90.9827 -286.087 87.6914C-282.2 84.4 -270.068 85.9281 -261.352 86.0457C-252.636 86.1632 -245.098 105.206 -240.857 108.145C-236.617 111.084 -236.146 134.946 -236.264 141.999C-236.382 149.052 -231.199 153.872 -228.843 156.105C-226.488 158.338 -220.716 171.151 -214.356 179.732C-207.995 188.431 -210.94 177.499 -212.824 172.562C-214.709 167.507 -211.058 172.092 -211.058 172.092C-211.058 172.092 -199.75 185.022 -197.512 191.017C-195.274 197.012 -185.616 202.067 -179.138 202.537C-172.66 203.007 -172.777 204.77 -172.777 204.77C-172.777 204.77 -173.131 207.239 -165.357 208.179C-157.701 209.12 -158.996 215.115 -155.816 217.466C-152.636 219.817 -147.689 222.285 -143.331 222.285C-138.973 222.285 -140.504 221.815 -139.68 225.106C-138.855 228.398 -141.918 232.865 -144.155 235.216C-146.393 237.567 -146.629 242.974 -146.629 249.321C-146.629 255.669 -144.155 256.962 -144.155 256.962C-144.155 256.962 -130.728 278.826 -127.548 280.825C-124.367 282.823 -124.839 287.055 -124.839 287.055C-124.839 287.055 -124.839 319.263 -124.956 321.732C-125.074 324.2 -125.31 324.2 -127.43 327.139C-129.55 330.078 -129.197 336.543 -129.197 336.543C-129.197 336.543 -129.55 365.107 -129.55 367.223C-129.55 369.339 -126.252 372.043 -115.534 377.803C-104.815 383.563 -112.589 374.982 -113.767 372.983C-114.945 370.985 -114.12 365.813 -114.12 361.934C-114.12 358.054 -110.822 356.056 -109.526 353.705C-108.231 351.354 -109.409 349.591 -109.409 345.477C-109.409 341.362 -104.815 339.247 -104.815 339.247C-104.815 339.247 -79.6089 313.621 -77.6066 311.27C-75.6042 308.919 -75.2509 304.334 -75.4865 301.748C-75.722 299.162 -67.9482 291.639 -63.5901 288.465C-59.232 285.292 -55.8163 276.358 -55.5807 274.359C-55.3451 272.361 -55.2273 267.777 -52.2827 265.543C-49.338 263.31 -49.4558 258.49 -48.278 253.436C-47.1001 248.381 -56.523 247.793 -62.1767 244.149C-67.8304 240.505 -76.7821 239.447 -77.4888 239.447C-78.1955 239.447 -82.2002 239.918 -81.9647 236.979C-81.7291 234.04 -84.2026 228.985 -85.616 226.517C-87.0294 224.048 -89.2674 224.166 -91.9764 224.166C-94.6855 224.166 -102.93 216.525 -106.464 214.174C-109.998 211.823 -117.183 213.704 -121.894 212.411C-126.605 211.118 -124.25 211.118 -128.49 209.942C-132.73 208.767 -134.733 214.644 -136.735 215.232C-138.737 215.82 -145.216 215.585 -147.571 215.232C-149.927 214.88 -151.694 210.765 -152.283 207.004C-152.872 203.242 -154.167 201.596 -157.347 199.833C-160.528 198.07 -160.999 194.073 -160.645 191.252C-160.292 188.431 -162.294 188.196 -164.65 188.078C-167.006 187.961 -166.888 188.901 -167.477 190.9C-168.066 192.898 -169.95 193.838 -175.015 193.015C-180.08 192.075 -182.2 186.08 -182.789 181.26C-183.378 176.441 -183.26 173.737 -179.962 170.916C-176.664 168.095 -175.722 169.623 -171.246 170.328C-166.77 171.034 -163.708 168.565 -160.763 165.509C-157.819 162.453 -154.285 167.625 -154.285 167.625C-154.285 167.625 -154.285 167.625 -149.456 175.148C-144.627 182.671 -145.216 175.03 -146.393 167.742C-147.571 160.454 -125.074 137.297 -121.658 134.006C-118.243 130.714 -118.596 132.125 -112.707 131.655C-106.817 131.185 -104.579 125.19 -101.164 122.721C-97.7479 120.252 -105.64 120.37 -109.173 118.489C-112.707 116.608 -106.817 116.138 -104.697 115.08C-102.577 114.022 -98.1013 113.435 -92.212 113.787C-86.3227 114.14 -100.928 93.4513 -103.402 91.1003C-105.875 88.7493 -105.168 85.2228 -106.346 81.8139C-107.524 78.405 -111.529 84.0473 -114.473 87.6914C-117.418 91.3354 -117.3 87.6914 -116.829 85.4579C-116.358 83.2245 -118.714 80.8735 -119.774 77.8172C-120.834 74.761 -128.372 75.7013 -131.081 75.5838C-133.79 75.4663 -133.319 75.7013 -134.144 80.2858C-134.968 84.8702 -133.673 87.8089 -132.848 92.0407C-132.024 96.2725 -136.735 102.032 -139.444 104.971C-142.153 107.91 -142.86 104.383 -142.978 101.445C-143.095 98.5059 -144.509 98.9761 -147.807 98.5059C-151.105 98.0357 -151.34 97.9181 -152.636 94.8619C-153.932 91.8056 -158.29 89.2195 -162.412 88.9844C-166.535 88.7493 -165.239 81.5788 -165.121 78.405C-165.003 75.1136 -158.879 74.9961 -156.876 74.4083C-154.874 73.8206 -151.576 71.7047 -148.278 75.4662C-144.98 79.1103 -141.8 75.4662 -141.8 75.4662C-141.8 75.4662 -136.735 71.5871 -136.735 69.2361C-136.735 66.8852 -137.795 67.5905 -140.975 67.5905C-144.155 67.5905 -144.627 67.5905 -144.627 64.8868C-144.627 62.1832 -144.627 61.9481 -138.973 61.8306C-133.319 61.713 -135.91 56.5408 -133.201 54.0723C-130.492 51.6038 -127.901 53.4846 -128.372 58.5392C-128.843 63.5938 -122.954 59.7147 -119.656 61.0077C-116.358 62.3007 -117.889 63.9464 -120.716 64.5342C-123.543 65.1219 -121.658 66.0623 -120.834 69.1186C-120.009 72.1749 -120.363 71.352 -111.411 72.0573C-102.459 72.7626 -110.115 68.1782 -110.704 67.2378C-111.293 66.2974 -114.002 63.9464 -105.875 64.4166C-97.7479 64.8868 -102.813 58.3041 -102.813 58.3041C-102.813 58.3041 -108.466 48.5475 -114.945 46.079C-121.423 43.6104 -119.656 43.728 -123.072 39.4962C-126.488 35.2644 -139.562 37.2628 -143.449 37.0277C-147.336 36.7926 -147.1 39.3787 -149.102 41.8472C-150.987 44.3157 -146.276 46.7843 -145.804 54.6601C-145.333 62.5358 -150.516 55.6004 -150.516 55.6004C-150.516 55.6004 -153.343 52.1915 -154.638 49.1352C-155.934 46.079 -156.405 44.4333 -154.521 42.1998C-152.636 39.9664 -151.812 37.4979 -155.698 32.5608C-159.585 27.6237 -162.766 25.743 -164.415 25.5079C-166.064 25.2728 -165.592 28.5641 -165.357 31.3853C-165.121 34.2065 -163.472 33.7363 -161.47 35.382C-159.585 37.0277 -160.41 40.084 -160.881 43.2578C-161.352 46.4316 -161.47 44.1982 -164.415 39.3787C-167.359 34.5591 -169.244 37.1452 -171.835 40.4366C-174.426 43.728 -167.359 45.7263 -167.124 51.6038C-166.888 57.4812 -170.186 52.6617 -170.186 52.6617C-170.186 52.6617 -173.72 48.7826 -177.135 47.1369ZM-284.32 160.572C-284.32 160.572 -281.729 173.385 -278.431 172.797C-271.835 171.621 -276.782 167.39 -282.554 160.572C-283.025 159.867 -285.027 157.633 -284.32 160.572ZM-142.86 189.254C-142.153 189.489 -141.446 189.606 -140.857 189.959C-139.915 190.547 -139.208 191.605 -138.148 191.957C-136.735 192.545 -133.908 191.135 -132.495 190.782C-126.488 189.371 -142.506 184.199 -145.333 183.494C-148.16 182.789 -148.985 182.201 -155.345 185.022C-161.706 187.843 -149.927 188.078 -149.927 188.078C-147.453 188.431 -145.098 188.666 -142.86 189.254ZM-128.608 192.78C-128.608 193.486 -128.608 194.191 -128.49 194.308C-127.901 195.601 -126.252 195.131 -125.074 195.131C-124.014 195.131 -117.418 194.779 -120.481 193.603C-122.365 192.898 -124.367 191.605 -126.488 190.9C-129.55 189.842 -128.608 191.37 -128.608 192.78ZM-155.581 24.2148C-154.638 26.2132 -153.225 25.8605 -152.047 26.4483C-150.869 27.036 -150.516 28.4466 -150.163 31.8555C-149.809 35.2644 -138.973 33.9714 -131.552 33.8539C-124.132 33.7363 -128.961 29.8572 -138.384 30.0923C-142.506 30.2098 -142.978 29.5045 -144.155 27.2711C-145.333 25.0377 -147.218 24.9201 -149.927 23.8622C-152.636 22.8042 -152.4 21.3936 -154.992 18.69C-158.525 15.046 -156.641 22.2165 -156.641 22.2165C-156.641 22.2165 -156.523 22.2165 -155.581 24.2148ZM-126.134 26.4483C-120.834 26.4483 -117.536 18.4549 -117.3 17.1619C-117.065 15.8688 -113.885 13.6354 -109.644 13.6354C-105.404 13.6354 -103.166 13.6354 -101.281 11.402C-99.3969 9.16853 -101.399 10.2265 -95.2744 8.69833C-89.1496 7.17019 -89.2674 5.2894 -89.3851 2.93842C-89.5029 0.587439 -99.3969 0.704988 -102.106 0.822537C-104.815 0.940086 -104.579 2.58577 -107.524 4.46656C-110.469 6.34735 -128.254 4.58411 -133.908 4.46656C-134.497 4.46656 -135.086 4.46656 -135.557 4.70166C-134.85 5.7596 -132.377 5.9947 -131.317 6.4649C-129.786 7.05264 -128.961 8.22813 -127.665 9.05098C-126.37 9.75627 -124.839 9.87382 -123.425 9.99137C-108.584 11.5195 -120.009 12.8126 -121.187 12.9301C-122.365 13.0476 -124.25 12.3424 -124.603 15.3986C-124.956 18.4549 -128.843 16.9268 -130.846 17.0443C-132.848 17.1619 -132.141 16.8092 -132.141 13.0476C-132.141 9.28608 -140.857 9.99137 -144.627 10.1089C-148.396 10.2265 -146.865 13.4003 -147.1 17.0443C-147.336 20.6883 -146.393 20.5708 -142.506 20.9234C-138.737 21.2761 -140.033 22.2165 -139.562 24.4499C-139.091 26.6834 -133.201 26.3307 -133.201 26.3307C-133.201 26.3307 -131.435 26.4483 -126.134 26.4483ZM-83.2603 6.58245C-83.2603 6.58245 -86.6761 5.64205 -88.4429 8.11058C-90.2096 10.5791 -88.3251 10.8142 -92.4476 10.9318C-96.5701 11.0493 -96.3345 11.2844 -97.2768 13.7529C-98.2191 16.2215 -100.221 18.5725 -103.166 18.5725C-106.111 18.5725 -110.822 17.5145 -110.351 19.748C-109.88 22.0989 -105.875 28.0939 -103.873 28.2115C-101.87 28.329 -85.0271 26.4483 -83.2603 33.1486C-81.4935 39.9664 -84.3204 51.2511 -81.1402 53.1319C-77.9599 55.0127 -79.3734 57.2461 -80.4334 57.8339C-81.4935 58.4216 -83.1425 57.1286 -83.1425 60.5375C-83.1425 63.9464 -82.0824 62.4183 -80.1979 65.2395C-78.3133 68.0607 -77.371 67.0027 -77.371 71.2345C-77.371 75.4663 -77.8422 77.1119 -74.662 77.5821C-71.4817 78.0523 -68.7727 80.6384 -68.3015 82.1666C-67.8304 83.6947 -64.6502 82.2841 -63.8257 80.4033C-63.0012 78.5225 -53.225 65.2395 -50.2803 65.0044C-47.3357 64.7693 -42.2709 65.1219 -42.1531 62.5358C-42.0353 59.9498 -43.6843 56.1882 -40.033 56.0706C-36.3816 55.9531 -29.4323 56.0706 -26.3699 52.6617C-23.3074 49.2528 -16.947 45.6088 -22.8363 44.6684C-25.5454 44.1982 -28.0189 41.8472 -26.6054 39.026C-26.4876 38.6734 -22.3651 39.026 -21.7762 38.9085C-20.3628 38.6734 -18.4782 38.2032 -17.6537 36.7926C-16.3581 34.324 -15.0625 31.8555 -13.649 29.387C-12.3534 27.3886 -8.1131 23.0393 -13.4135 22.0989C-15.0624 21.7463 -15.887 19.8655 -13.5312 17.8672C-13.5312 17.8672 -9.99768 9.99137 -6.46411 9.99137C-5.40402 9.99137 4.60773 9.52117 3.19427 7.87549C2.25201 6.81754 2.25201 6.81754 -4.81512 6.34735C-5.75742 6.2298 -6.34631 5.40695 -7.17084 5.05431C-8.34869 4.70166 -9.87988 4.81921 -11.0577 4.81921C-17.4182 5.17186 -15.298 5.2894 -18.0071 3.05597C-20.7162 0.822537 -23.3074 0.822537 -34.7326 0.940086C-46.2756 1.05764 -50.6337 -0.117856 -53.4605 2.35068C-56.2874 4.81921 -54.9918 6.34735 -60.9988 6.34735C-67.0059 6.34735 -83.2603 6.58245 -83.2603 6.58245ZM-21.6584 68.4133C-21.6584 68.7659 -21.6584 69.2361 -21.6584 69.5888C-21.6584 70.5292 -21.6584 72.2924 -20.3628 72.2924C-18.4782 72.2924 -16.5937 72.1749 -14.7091 72.0573C-13.7668 71.9398 -12.7068 72.41 -12 71.8222C-10.351 70.6467 -9.64435 69.1186 -7.4064 68.766C-6.46414 68.6484 -3.87283 69.1186 -3.75507 67.708C-3.75507 67.1203 -4.46176 61.2428 -5.40405 60.5375C-7.75977 58.7743 -13.649 62.1832 -17.6537 62.1832C-19.0672 62.1832 -20.4806 61.713 -22.0118 61.9481C-23.3074 62.1832 -22.8363 63.7113 -22.6007 64.6517C-22.0118 66.0623 -21.7762 67.1203 -21.6584 68.4133ZM8.96582 96.6251C8.96582 96.6251 4.25439 100.034 4.1366 102.855C4.0188 105.559 3.19431 110.613 6.49231 108.498C9.90808 106.382 12.3816 101.68 12.3816 101.68C12.3816 101.68 13.2061 92.2758 8.96582 96.6251ZM16.3863 95.6847C16.9752 96.9778 17.2108 98.5059 17.5641 99.9165C18.1531 102.503 16.6219 104.736 15.2084 106.617C13.9128 108.262 12.146 110.378 14.5017 112.024C17.6819 114.14 21.9222 109.085 24.8669 106.969C27.2226 105.324 26.0447 102.385 24.6313 100.504C22.8645 97.9181 20.7444 95.6847 19.6843 92.746C18.742 89.9248 16.7396 87.9265 14.9728 85.5755C13.6772 83.9298 11.9104 84.6351 11.2037 87.6914C10.6148 90.395 12.4994 91.8056 14.1484 93.2162C15.0907 93.9215 15.9152 94.7443 16.3863 95.6847ZM56.4334 100.034C52.0753 100.857 49.7196 101.797 45.4793 100.739C43.1236 100.152 44.1837 93.6864 41.7102 93.2162C40.8857 92.9811 39.5901 92.1582 39.0011 92.9811C38.6478 93.4513 38.8833 94.7443 38.8833 95.3321C39.0011 96.5076 39.7078 99.4463 37.941 99.6814C35.5853 100.034 36.6454 98.5059 35.232 103.443C33.8185 108.38 28.7538 110.496 27.1048 111.436C25.4558 112.377 22.8645 114.728 18.8598 114.728C14.8551 114.61 14.2661 115.903 17.4464 118.137C19.9199 119.9 20.2732 122.486 20.5088 125.307C20.5088 125.307 20.5088 125.307 20.5088 125.425C20.6266 126.6 21.2155 130.714 19.4487 131.067C17.3286 131.42 10.2614 131.067 7.31677 131.067C4.37213 131.067 5.55002 135.651 5.43225 138.473C5.31445 141.294 6.02115 142.234 6.96344 142.469C7.90573 142.822 10.1437 143.88 11.3215 146.466C12.4994 149.052 16.3863 147.759 20.391 147.994C24.3957 148.229 23.689 143.527 24.2779 141.764C24.8669 140.001 23.4534 138.943 27.4581 138.825C31.3451 138.708 32.7585 136.122 33.2296 133.183C33.7007 130.127 36.6454 132.948 40.5323 130.479C44.4193 128.011 50.5441 135.299 53.2532 137.297C54.5488 138.238 57.9646 140.941 57.729 141.646C56.9045 143.292 50.6619 141.294 52.5465 144.703C55.02 149.405 57.6112 147.289 61.2626 142.587C65.0317 138.002 56.3156 134.006 54.6666 132.713C53.0176 131.302 49.0129 128.716 51.8398 125.307C54.6666 122.016 61.2626 130.009 61.2626 130.009C64.2072 132.36 68.5653 138.59 69.9787 143.762C71.5099 148.817 72.0989 149.287 76.6925 149.64C81.2862 149.992 77.7526 143.997 77.0459 141.646C76.2214 139.413 76.2213 138.825 79.166 138.943C82.1106 139.06 83.6418 144.82 85.2909 146.936C86.9398 149.052 92.7113 150.58 95.067 149.64C97.5406 148.699 98.2473 147.759 101.074 150.58C103.901 153.401 97.4228 160.337 95.4204 160.689C93.4181 161.042 89.7667 163.393 85.0553 160.924C80.3438 158.338 79.5194 158.809 74.219 157.868C68.9187 156.928 69.7432 159.631 68.4475 162.805C67.1519 165.979 64.5606 163.628 63.3827 162.218C62.2049 160.807 52.4287 156.105 48.8951 153.519C45.3615 150.933 45.9505 148.347 44.6548 145.761C43.3592 143.175 39.2367 145.526 38.53 146.348C37.8232 147.171 34.4075 147.289 31.2273 147.289C28.0471 147.289 26.8692 146.701 24.9846 149.17C23.1001 151.638 23.2178 150.228 19.6843 152.579C16.1507 154.929 12.6172 154.107 7.43457 154.812C2.25201 155.517 3.7832 165.391 3.7832 167.155C3.7832 168.918 2.95871 170.916 0.838593 170.446C-1.28156 169.976 -4.93292 180.555 -7.4064 182.789C-9.87991 185.022 -8.46646 191.84 -8.34869 194.191C-8.2309 196.542 -10.2333 198.423 -11.5289 198.893C-12.8246 199.363 -11.1755 207.239 -12.1178 209.237C-13.0601 211.236 -6.22855 212.529 -6.22855 212.529C-5.63962 213.351 -1.16376 214.88 1.78088 219.229C5.43225 224.636 8.96582 224.283 8.96582 224.283C8.96582 224.283 33.1118 224.166 38.6478 224.166C41.0035 224.166 43.2414 224.989 44.7726 226.87C46.186 228.75 47.5995 231.807 46.3038 234.04C45.126 236.156 44.537 239.918 46.3038 241.916C47.2461 242.974 48.7773 243.679 49.9552 244.502C53.7243 246.735 55.02 256.492 55.02 261.547C55.02 264.838 54.6666 268.247 53.7243 271.538C53.4888 272.596 53.1354 273.654 52.4287 274.595C51.4864 276.005 51.1331 276.828 51.2508 278.474C51.2508 281.06 50.7797 283.881 53.6065 284.939C55.3733 285.644 58.0824 293.755 58.0824 293.755C58.0824 293.755 65.0317 313.033 65.974 317.265C66.9163 321.497 68.9187 321.262 70.2143 321.262C71.5099 321.262 72.9234 321.497 73.2767 319.733C73.6301 318.088 75.1613 318.44 75.1613 318.44C75.1613 318.44 76.5747 318.675 82.6996 318.44C88.9422 318.205 93.4181 308.449 94.9493 306.921C96.4805 305.392 96.5983 304.922 96.4805 301.866C96.2449 298.692 96.8338 298.457 99.8963 298.222C103.076 297.987 102.605 295.401 102.723 289.288C102.841 283.176 105.903 281.295 110.144 277.181C114.384 273.066 111.439 256.492 111.086 249.792C110.733 243.091 115.091 239.918 115.091 239.918C115.091 239.918 129.578 218.759 134.879 212.999C140.179 207.239 131.581 208.649 131.581 208.649C131.581 208.649 123.689 208.885 120.038 208.414C116.386 208.062 112.499 200.421 110.733 198.423C108.966 196.424 104.843 192.898 104.137 188.784C103.43 184.669 101.899 180.908 101.899 180.908C101.545 180.085 97.7762 176.323 97.305 171.857C96.2449 161.865 100.014 169.623 100.014 169.623C100.014 169.623 101.427 172.327 106.492 175.971C111.557 179.732 114.384 192.78 116.857 197.835C119.331 202.89 118.978 202.89 126.751 203.007C134.525 203.242 145.126 191.84 148.306 189.724C151.486 187.608 150.426 184.905 149.131 182.083C147.835 179.262 145.126 179.85 139.943 178.792C134.761 177.852 132.994 171.504 128.283 168.565C123.571 165.626 127.929 165.862 131.227 166.214C134.525 166.567 134.879 168.33 136.528 170.328C138.177 172.444 140.768 173.62 145.95 173.15C151.133 172.797 154.549 174.795 155.727 176.323C156.904 177.852 160.438 179.145 160.438 179.145C160.438 179.145 169.272 179.145 170.332 180.32C171.392 181.496 170.803 184.669 176.575 185.257C182.346 185.845 185.173 197.247 185.173 197.247C185.173 197.247 186.822 211.823 190.827 214.292C198.601 219.111 196.598 203.007 196.952 199.951C197.305 196.895 206.021 192.193 209.083 190.782C210.379 190.194 210.968 188.784 211.086 187.373C211.204 186.433 210.497 184.317 211.204 183.611C211.793 183.141 214.148 183.259 214.855 183.376C216.386 183.611 219.213 182.436 219.92 185.727C220.626 189.019 224.867 193.133 224.867 193.133C226.162 194.426 227.811 195.131 229.578 195.484C231.109 195.719 232.994 195.014 234.407 195.837C236.41 197.012 235.114 201.009 234.996 202.772C234.996 204.653 234.525 206.534 234.761 208.532C234.996 210.648 236.292 212.411 236.763 214.527C237.116 215.937 237.352 217.231 237.47 218.641C237.47 218.641 242.299 231.572 249.131 230.279C253.724 229.456 245.715 221.697 242.299 218.171C238.883 214.644 238.648 211.118 240.179 207.474C241.71 203.83 244.655 208.414 249.72 211.588C254.784 214.762 252.782 213.587 256.904 208.414C261.027 203.36 257.376 197.247 256.08 195.954C254.784 194.661 249.366 187.608 255.727 185.375C261.969 183.141 268.094 182.671 271.51 182.201C274.926 181.731 274.572 178.087 280.226 170.093C285.88 162.1 280.462 151.991 278.106 147.877C275.632 143.762 275.161 141.646 278.695 137.532C282.228 133.418 285.644 140.824 285.644 140.824C285.644 140.824 289.178 146.819 293.889 152.696C298.601 158.574 299.661 150.58 300.485 148.699C301.31 146.701 298.247 144.233 296.48 141.529C294.714 138.825 296.716 134.593 297.187 133.065C297.658 131.537 306.257 127.423 308.966 126.365C311.675 125.307 314.502 120.723 315.679 110.731C316.857 100.739 319.213 111.671 319.213 111.671C319.213 111.671 319.566 134.123 319.449 138.238C319.331 142.352 319.566 144.115 314.502 147.289C309.437 150.463 308.848 149.757 306.139 150.345C303.43 150.933 302.487 151.873 302.252 158.338C302.016 164.804 305.197 161.277 305.55 159.749C305.903 158.221 307.081 153.754 310.497 154.107C313.913 154.459 319.331 150.58 322.511 148.229C325.691 145.878 324.278 139.531 324.16 135.887C324.042 132.242 323.689 133.3 326.869 133.065C330.049 132.83 328.871 132.595 329.343 129.656C329.814 126.718 328.4 126.365 325.456 126.247C322.511 126.13 323.1 123.309 323.1 123.309C323.1 123.309 323.689 108.85 322.982 105.441C322.275 102.15 318.153 97.2128 309.555 97.8006C300.956 98.3883 314.03 86.6334 318.153 82.4017C322.158 78.1699 326.162 80.9911 326.162 80.9911C326.162 80.9911 330.992 83.342 337.705 84.7526C344.419 86.1632 341.239 80.8735 342.063 77.347C342.888 73.8206 345.833 75.2312 351.369 78.9927C356.904 82.7543 346.539 89.6897 345.244 91.8056C343.948 93.9215 347.01 99.4463 350.426 105.676C353.842 111.907 353.253 104.266 353.724 101.797C354.078 99.3287 353.842 97.0953 356.315 95.2145C358.789 93.3337 357.376 90.0424 357.376 84.9877C357.376 79.9331 360.909 80.6384 366.445 80.6384C371.981 80.756 372.688 78.7576 373.983 77.9348C375.279 77.1119 374.572 75.2312 382.817 74.1732C391.062 73.2328 373.866 52.1915 372.452 50.6634C371.039 49.1352 346.893 50.4283 341.003 50.1932C335.114 49.9581 335.35 46.1965 334.172 44.7859C332.994 43.3753 319.684 44.5508 317.211 44.4333C314.737 44.3157 312.146 39.1436 310.026 38.9085C307.906 38.6734 307.081 40.7892 304.961 42.67C302.841 44.5508 302.841 40.084 302.605 38.2032C302.37 36.3224 301.074 35.7346 298.718 35.0293C296.363 34.324 296.363 40.5542 296.245 42.67C296.127 44.7859 277.164 44.0806 273.512 43.9631C269.861 43.8455 268.683 39.8489 267.976 35.6171C267.27 31.3853 263.5 35.8522 263.5 35.8522L254.549 36.3224C254.549 36.3224 239.472 35.8522 235.467 36.4399C231.581 37.0277 235.467 31.6204 237.588 29.1519C239.708 26.5658 229.932 22.8042 228.754 21.7463C227.576 20.6883 219.684 21.9814 218.035 21.3936C216.504 20.8059 215.326 18.2198 214.855 19.0427C214.384 19.8655 213.795 22.334 212.028 23.6271C210.261 24.9201 208.612 24.4499 206.257 24.8026C203.901 25.1552 205.314 26.2132 197.305 25.743C189.296 25.3903 188.942 30.68 186.469 33.6188C183.877 36.5575 179.637 36.3224 177.635 36.4399C175.632 36.675 176.339 40.6717 175.397 43.1402C174.455 45.6088 170.685 39.9664 169.272 39.2611C167.859 38.4383 168.33 43.0227 168.33 43.0227C168.33 43.0227 168.212 56.6584 167.623 58.069C167.034 59.4796 162.558 47.7247 162.558 45.021C162.676 42.3174 160.438 36.4399 159.967 35.382C159.614 34.4416 158.436 35.9697 156.904 38.0856C155.373 40.2015 156.316 44.4333 155.962 47.372C155.609 50.3107 153.96 48.7826 149.366 48.7826C144.773 48.7826 143.948 50.3107 142.064 52.074C140.179 53.8372 133.23 53.367 129.225 53.367C125.22 53.367 123.218 55.6004 119.566 57.8339C115.915 60.0673 116.857 56.5408 114.502 53.367C112.028 50.0756 111.204 55.4829 109.908 57.8339C108.612 60.1849 101.781 53.9548 98.4828 51.2511C95.1848 48.5475 93.1825 50.5458 91.4157 50.5458C89.6489 50.5458 87.6466 51.2511 85.762 48.1949C83.8774 45.1386 78.9305 45.4912 73.6301 43.728C68.3297 41.9647 66.6807 45.8439 61.027 47.8422C55.3733 49.8405 53.9599 53.1319 53.9599 53.1319C53.9599 53.1319 53.9599 53.1319 53.6065 56.3057C53.2532 59.4796 49.3662 63.006 46.8928 66.0623C44.4193 69.1186 39.7079 69.3537 37.1165 70.7643C34.5253 72.1749 36.2921 80.5209 36.4099 83.9298C36.5276 87.2212 41.9458 84.8702 45.4793 84.8702C48.8951 84.8702 47.0106 87.8089 46.5394 89.2195C46.3038 90.2775 44.537 90.0424 44.1837 90.7476C44.0659 90.8652 44.0659 91.1003 44.1837 91.4529C44.6548 92.6284 45.9505 93.5688 46.6572 94.7443C48.8951 98.3883 50.5441 94.3917 50.5441 94.3917C50.5441 94.3917 53.9599 89.9248 57.0223 85.2228C59.7314 81.1086 54.7844 77.9348 57.729 74.0557C60.2025 70.7643 63.265 67.8256 66.3274 65.4746C71.6277 61.3604 72.4522 63.8289 73.9834 66.1799C75.5146 68.5309 66.3274 71.8222 63.7361 77.8172C61.1448 83.8122 69.9787 79.8156 67.5052 84.9877C62.5582 96.8602 61.1448 99.0936 56.4334 100.034ZM130.992 43.8455C132.641 45.1386 134.407 46.3141 136.292 47.372C136.881 47.7247 139.59 49.3703 138.883 47.4896C138.412 46.1965 137.352 44.9035 136.528 43.8455C134.879 41.7296 135.114 40.3191 135.114 37.4979C135.114 34.6767 140.768 32.3257 140.768 32.3257C160.202 22.6867 142.064 28.0939 139.237 28.4466C136.528 28.6817 133.819 29.0343 132.405 29.5045C130.992 29.9747 127.811 33.7363 126.28 36.9101C125.809 37.8505 126.045 39.026 126.398 39.9664C126.751 40.6717 127.223 41.2594 127.929 41.7296C128.989 42.4349 130.167 43.1402 130.992 43.8455ZM122.04 275.3C120.509 276.475 120.862 280.119 120.744 286.349C120.744 288.113 122.982 300.573 125.927 296.224C125.927 296.106 129.814 290.464 129.932 287.29C130.049 283.998 132.758 280.707 133.819 278.474C134.879 276.24 134.29 273.301 132.052 268.482C129.814 263.662 127.223 271.773 127.223 271.773C126.516 273.066 123.571 274.124 122.04 275.3ZM241.592 239.682C243.241 241.563 244.89 243.562 246.539 245.442C247.364 246.383 248.188 247.323 249.013 248.264C249.955 249.204 251.133 250.144 251.604 251.32C252.075 252.495 251.957 254.141 252.9 255.081C253.724 255.904 255.02 255.904 256.08 255.787C260.674 255.669 265.267 255.904 269.979 255.904C297.069 255.904 276.575 254.023 275.397 253.788C274.219 253.553 271.745 254.141 269.508 252.495C267.27 250.85 257.14 251.32 257.14 251.32C257.14 251.32 253.606 251.437 254.078 248.499C254.549 245.56 253.135 245.795 248.659 238.389C244.184 230.984 244.419 236.156 237.352 228.985C230.285 221.815 234.643 229.103 236.056 231.924C237.47 234.745 240.65 238.389 240.65 238.389C240.886 238.86 241.239 239.33 241.592 239.682ZM280.344 242.621C279.873 244.149 279.873 245.56 281.639 246.148C284.937 247.088 284.349 246.03 287.646 243.914C288.235 243.562 290.002 242.504 289.884 241.681C289.767 240.975 288.235 240.975 287.646 240.623C287.058 240.153 286.469 239.565 285.762 239.565C284.82 239.447 283.877 239.447 282.935 239.565C281.757 239.682 281.168 240.035 280.815 240.975C280.579 241.446 280.462 242.033 280.344 242.621ZM269.861 241.211C270.921 241.211 272.099 241.211 273.159 240.74C274.101 240.388 274.69 239.565 275.397 238.977C276.692 237.919 276.928 236.744 277.164 235.568C277.87 232.394 277.635 228.985 277.635 225.812C277.635 220.169 276.81 221.227 275.868 218.876C275.397 217.583 271.392 219.111 269.743 220.404C268.094 221.697 269.036 223.931 268.919 225.577C268.919 227.692 266.798 228.045 265.385 229.103C263.618 230.396 261.969 231.807 260.32 233.217C258.2 234.98 260.202 236.861 261.145 238.742C261.38 239.212 261.734 239.8 262.205 240.153C263.029 240.858 264.089 240.975 265.032 241.093C265.149 241.093 265.149 241.093 265.267 241.093C266.798 241.211 268.33 241.211 269.861 241.211ZM288.824 215.232C289.649 216.995 290.827 218.759 291.887 220.404C292.476 221.345 293.771 222.873 294.949 221.932C296.48 220.757 296.127 218.759 296.127 217.231C296.127 213.704 296.48 208.532 295.067 206.063C293.536 203.595 290.709 202.184 288.942 199.833C287.529 198.07 286.351 198.305 284.584 191.722C282.7 185.14 283.288 193.368 282.935 197.482C282.582 201.596 286.351 204.888 286.351 204.888C289.06 207.944 287.293 211.706 288.824 215.232ZM317.682 247.793C319.095 247.911 320.391 248.381 321.333 249.557C322.511 250.967 322.864 252.613 323.807 254.141C324.396 255.199 325.338 256.609 326.869 256.257C328.282 255.787 329.696 254.376 330.874 255.904C332.523 258.02 333.347 257.08 333.347 257.08C333.818 256.727 337.47 254.494 339.237 255.904C349.484 264.25 345.126 258.02 342.535 254.729C339.943 251.437 333.347 246.618 330.403 243.679C327.458 240.74 321.451 243.326 318.153 242.856C314.855 242.386 315.915 239.447 314.148 237.449C312.381 235.451 305.314 237.567 303.665 236.744C302.016 235.921 301.192 235.568 301.192 233.335C301.192 232.982 300.485 230.043 299.661 231.101C299.307 231.572 299.543 232.865 299.543 233.452C299.543 234.393 299.543 235.333 299.661 236.273C300.014 238.507 301.781 237.567 304.725 239.33C307.67 240.975 308.73 243.914 309.319 246.383C309.79 248.381 312.264 248.264 314.148 248.028C315.326 247.911 316.504 247.793 317.682 247.793ZM333.701 335.132C333.112 335.015 331.934 334.897 331.698 335.603C331.463 336.308 332.758 337.131 332.758 337.718C332.758 338.659 332.523 341.598 335.35 341.833C338.059 342.068 338.53 340.422 339.119 337.718C339.237 337.248 339.237 336.778 339.001 336.308C338.648 335.72 337.823 335.603 337.234 335.603C336.645 335.485 336.056 335.485 335.35 335.367C334.761 335.25 334.29 335.25 333.701 335.132ZM301.663 267.659C298.483 268.012 295.538 270.01 292.829 271.538C291.062 272.479 289.178 273.654 288.353 275.652C287.647 277.298 287.764 280.119 287.529 281.883C287.175 283.998 281.639 282.118 279.519 282.47C277.399 282.823 278.106 284.939 277.399 285.644C276.575 286.349 273.63 285.527 271.156 285.997C268.212 286.585 269.625 291.757 269.39 293.755C269.154 295.753 268.447 297.752 267.976 299.75C267.034 303.512 269.272 303.159 271.156 304.099C273.041 305.04 271.274 310.447 271.628 313.386C271.981 316.089 275.515 318.675 277.753 319.616C279.284 320.321 281.168 319.969 282.817 319.969C284.702 319.969 286.586 320.086 288.353 319.616C290.12 319.146 291.416 317.735 292.947 316.677C295.303 314.914 297.894 314.091 300.839 314.326C303.901 314.561 306.846 314.914 309.908 315.031C311.557 315.031 314.384 314.444 314.855 316.56C315.208 318.088 314.973 319.733 315.326 321.262C316.033 324.553 318.271 323.377 320.98 323.377C323.689 323.377 323.807 325.493 324.513 327.492C325.691 330.901 328.165 330.665 331.227 330.665C333.347 330.665 335.467 330.665 337.588 330.548C341.239 330.195 343.477 326.551 343.477 326.551C343.477 326.551 348.306 318.323 350.662 315.031C353.017 311.74 353.96 304.334 353.96 298.575C353.96 292.815 345.95 284.704 345.95 284.704C345.95 284.704 335.232 271.421 333.347 269.422C331.463 267.424 332.641 264.956 331.934 262.722C331.345 260.489 329.578 264.133 327.576 264.72C325.573 265.308 326.634 273.301 326.634 274.477C326.634 275.652 324.16 275.417 322.864 273.772C321.569 272.126 320.744 272.479 318.86 271.421C316.975 270.363 315.797 268.364 315.562 265.191C315.444 262.017 312.146 263.075 308.377 262.957C304.608 262.84 306.139 264.015 305.432 266.013C304.961 267.306 303.548 267.424 302.37 267.542C302.016 267.542 301.781 267.659 301.663 267.659ZM382.817 343.831L382.699 343.949C381.404 345.477 377.517 350.649 379.873 351.001C382.11 351.354 384.937 352.647 386.351 351.119C387.764 349.356 387.293 347.945 391.533 346.299C393.654 345.477 395.42 339.011 395.42 339.011C395.42 339.011 394.714 336.66 393.3 335.25C392.122 334.192 389.295 338.189 388.235 339.247C386.469 340.892 384.348 342.185 382.817 343.831ZM401.781 331.841C402.605 329.372 404.372 330.783 404.372 329.02C404.372 327.257 399.189 324.083 397.423 322.555C393.889 319.616 397.187 325.846 396.363 327.492C395.302 329.372 395.185 329.372 396.009 331.606C396.245 332.194 396.834 335.015 397.423 335.25C400.838 336.425 400.956 334.427 401.781 331.841Z" stroke="#475566" stroke-opacity="0.3" stroke-width="2" mask="url(#path-1-inside-1_405_7137)"/>
</svg>
