<svg width="143" height="373" viewBox="0 0 143 373" fill="none" xmlns="http://www.w3.org/2000/svg">
<g opacity="0.4">
<path d="M12.4888 36.8135L17.5962 31.0577C17.8138 30.8175 18.0613 30.7331 18.3139 30.7611C18.5366 30.6333 18.8338 30.6358 19.0916 30.7762L25.8725 34.15C26.1055 34.2469 26.2296 34.4639 26.2844 34.6631L26.7039 36.844C26.7989 37.4237 26.2053 37.9373 25.5562 37.7332L19.4379 36.862L14.0293 40.0232C13.5445 40.4167 12.7814 40.2203 12.6616 39.5972L12.2421 37.4163C12.2567 37.235 12.291 36.9847 12.4888 36.8135Z" fill="#475566"/>
<path d="M15.5132 13.4569C15.8104 13.4593 16.296 13.5843 16.5983 13.6991L32.9684 20.392C33.2707 20.5068 33.5139 20.8285 33.6184 21.1145L34.002 22.5088C34.1064 22.7948 33.8889 23.035 33.5917 23.0325L17.1635 23.58C16.8663 23.5775 16.391 23.6773 16.099 23.7872L0.808556 29.7358C0.516496 29.8457 0.258717 29.7053 0.243338 29.3682L0.12267 28.2267C0.0627351 27.9151 0.25034 27.5192 0.467889 27.279L14.1026 14.0933C14.3202 13.8531 14.6961 13.5797 14.9882 13.4698L15.5132 13.4569Z" fill="#475566"/>
<path d="M28.2443 21.0271L30.8042 20.5383L30.3445 17.977C30.2444 17.2849 29.6303 17.3489 28.9272 17.4641C28.224 17.5793 27.6845 17.7736 27.7846 18.4657L28.2443 21.0271Z" fill="#475566"/>
<path d="M22.9808 18.8582L25.5407 18.3695L25.0811 15.8081C24.9809 15.116 24.3668 15.18 23.6637 15.2952C22.9606 15.4104 22.421 15.6047 22.5211 16.2968L22.9808 18.8582Z" fill="#475566"/>
<path d="M5.69058 25.5507L3.13066 26.0394L2.67097 23.478C2.57085 22.786 3.1104 22.5917 3.81354 22.4765C4.51668 22.3613 5.10592 22.2538 5.23089 22.9893L5.69058 25.5507Z" fill="#475566"/>
<path d="M9.77014 21.3072L7.21022 21.7959L6.75053 19.2345C6.65038 18.5424 7.19509 18.4605 7.89824 18.3453C8.60137 18.2301 9.14095 18.0358 9.31045 18.7457L9.77014 21.3072Z" fill="#475566"/>
<path d="M17.3571 33.3282L19.5216 39.6968C19.6064 40.0518 19.9583 40.2535 20.3446 40.2048C20.706 40.1127 20.9878 39.778 20.9031 39.4231L20.7092 32.6732C20.5543 31.7819 19.297 32.2727 18.9356 32.3648C18.5048 32.439 17.1576 32.4625 17.3571 33.3282Z" fill="#475566"/>
<path d="M10.8673 10.2994L16.8097 34.8531C16.9843 35.6754 17.7379 36.1654 18.4856 36.0247L20.5008 35.6179C21.2485 35.4771 21.7624 34.721 21.6769 33.8476C21.6769 33.8476 18.6464 9.0068 18.6113 8.73864C18.4307 7.28553 17.953 5.82998 17.2774 4.5456C16.9049 3.89449 16.4878 3.26894 16.0066 2.73791C15.1382 1.73711 13.7236 -0.218688 12.3292 1.27332C11.3057 2.37954 10.8927 4.34618 10.6819 5.7356C10.4317 7.26294 10.4786 8.79271 10.8673 10.2994Z" fill="#475566"/>
<path d="M184.992 360.165C185.274 360.349 185.661 360.3 185.853 360.016C186.046 359.733 186.006 359.352 185.723 359.168C185.084 358.671 184.399 358.198 183.76 357.701C183.477 357.517 183.091 357.566 182.898 357.849C182.705 358.133 182.745 358.513 182.984 358.723C183.643 359.151 184.327 359.624 184.992 360.165ZM189.053 363.024C189.737 363.496 190.421 363.968 191.105 364.44C191.388 364.624 191.774 364.575 191.967 364.292C192.16 364.008 192.095 363.584 191.837 363.444C191.153 362.972 190.493 362.543 189.809 362.071C189.526 361.887 189.14 361.936 188.947 362.219C188.66 362.441 188.745 362.796 189.053 363.024ZM179.14 355.623C179.423 355.807 179.764 355.784 180.002 355.475C180.219 355.235 180.199 354.785 179.916 354.602C179.276 354.104 178.612 353.563 178.017 353.039C177.754 352.787 177.368 352.835 177.13 353.144C176.913 353.385 176.908 353.791 177.216 354.018C177.811 354.541 178.476 355.082 179.14 355.623ZM195.226 367.092C195.954 367.539 196.639 368.011 197.342 368.414C197.625 368.598 198.031 368.481 198.224 368.197C198.417 367.913 198.351 367.49 198.024 367.331C197.32 366.928 196.636 366.456 195.932 366.053C195.65 365.869 195.244 365.986 195.051 366.27C194.858 366.554 194.943 366.909 195.226 367.092ZM201.571 370.946C201.571 370.946 201.596 370.99 201.641 370.964C202.345 371.367 203.073 371.814 203.822 372.192C204.105 372.376 204.511 372.258 204.678 371.931C204.871 371.647 204.762 371.249 204.434 371.091C203.73 370.688 203.026 370.284 202.298 369.838C202.015 369.654 201.609 369.772 201.416 370.055C201.204 370.408 201.289 370.763 201.571 370.946ZM173.506 350.842C173.789 351.026 174.13 351.003 174.348 350.763C174.566 350.522 174.57 350.116 174.307 349.864C173.687 349.297 173.092 348.774 172.472 348.207C172.234 347.997 171.823 348.003 171.605 348.243C171.343 348.509 171.383 348.889 171.621 349.098C172.241 349.665 172.836 350.189 173.456 350.755C173.437 350.824 173.481 350.799 173.506 350.842ZM168.109 345.752C168.323 345.917 168.709 345.869 168.907 345.698C169.169 345.432 169.128 345.051 168.935 344.817C168.359 344.224 167.784 343.632 167.233 343.083C167.04 342.848 166.604 342.81 166.342 343.076C166.08 343.341 166.051 343.704 166.313 343.957C166.889 344.549 167.464 345.141 168.04 345.734C168.04 345.734 168.04 345.734 168.109 345.752ZM162.975 340.395C163.188 340.561 163.53 340.538 163.772 340.341C164.059 340.119 164.063 339.713 163.8 339.46C163.269 338.842 162.694 338.25 162.163 337.632C161.945 337.354 161.533 337.359 161.291 337.556C161.004 337.778 161 338.184 161.193 338.419C161.724 339.037 162.255 339.655 162.831 340.247C162.905 340.377 162.975 340.395 162.975 340.395ZM158.216 334.766C158.429 334.932 158.726 334.934 158.969 334.737C159.256 334.515 159.285 334.152 159.066 333.874C158.58 333.231 158.049 332.613 157.538 331.926C157.319 331.648 156.953 331.627 156.641 331.806C156.354 332.029 156.325 332.391 156.499 332.695C156.985 333.339 157.497 334.025 158.027 334.643C158.122 334.704 158.146 334.748 158.216 334.766ZM153.789 328.888C154.002 329.054 154.299 329.057 154.497 328.885C154.784 328.663 154.857 328.275 154.664 328.04C154.222 327.371 153.711 326.684 153.269 326.015C153.051 325.737 152.704 325.648 152.417 325.87C152.105 326.049 152.031 326.437 152.25 326.715C152.692 327.384 153.158 328.097 153.645 328.74C153.67 328.784 153.694 328.827 153.789 328.888ZM149.713 322.694C149.901 322.816 150.154 322.844 150.376 322.717C150.688 322.538 150.762 322.15 150.588 321.846L150.464 321.629C150.091 320.978 149.699 320.395 149.327 319.744C149.153 319.44 148.761 319.377 148.494 319.53C148.182 319.709 148.109 320.097 148.258 320.358C148.63 321.009 148.978 321.616 149.395 322.242L149.519 322.459C149.593 322.589 149.643 322.676 149.713 322.694ZM146.107 316.288C146.295 316.41 146.548 316.438 146.77 316.31C147.082 316.131 147.225 315.761 147.051 315.457C146.699 314.737 146.321 313.974 145.968 313.254C145.794 312.95 145.423 312.817 145.155 312.97C144.844 313.149 144.701 313.52 144.85 313.78C145.202 314.5 145.58 315.264 145.933 315.984C145.963 316.139 146.057 316.201 146.107 316.288ZM142.966 309.557C143.154 309.679 143.362 309.733 143.585 309.605C143.922 309.469 144.065 309.099 143.935 308.77C143.627 308.024 143.319 307.278 142.986 306.489C142.856 306.16 142.485 306.027 142.193 306.137C141.856 306.273 141.713 306.643 141.818 306.929C142.126 307.675 142.459 308.464 142.767 309.209C142.822 309.408 142.872 309.495 142.966 309.557ZM140.365 302.631C140.553 302.754 140.736 302.764 140.939 302.705C141.276 302.57 141.444 302.243 141.314 301.913C141.051 301.142 140.787 300.371 140.568 299.574C140.483 299.219 140.111 299.087 139.794 299.153C139.458 299.289 139.29 299.616 139.35 299.927C139.569 300.724 139.833 301.495 140.121 302.31C140.176 302.509 140.27 302.57 140.365 302.631ZM138.214 295.563C138.333 295.668 138.541 295.721 138.744 295.662C139.105 295.57 139.273 295.243 139.189 294.888C138.969 294.092 138.82 293.313 138.6 292.516C138.516 292.161 138.188 292.003 137.872 292.069C137.51 292.161 137.342 292.488 137.402 292.8C137.577 293.622 137.796 294.419 138.015 295.216C138.045 295.371 138.12 295.502 138.214 295.563ZM136.672 288.318C136.791 288.423 136.974 288.433 137.158 288.443C137.474 288.376 137.712 288.067 137.672 287.687C137.522 286.908 137.392 286.06 137.286 285.256C137.226 284.944 136.919 284.717 136.577 284.74C136.26 284.807 136.023 285.116 136.039 285.453C136.144 286.257 136.318 287.079 136.449 287.927C136.434 288.109 136.578 288.257 136.672 288.318ZM107.331 266.294C107.613 266.477 108 266.429 108.192 266.145C108.385 265.862 108.345 265.481 108.062 265.297C107.378 264.825 106.738 264.327 106.099 263.83C105.816 263.646 105.43 263.694 105.212 263.935C105.02 264.218 105.06 264.599 105.298 264.808C105.982 265.28 106.647 265.821 107.331 266.294ZM111.367 269.109C112.051 269.581 112.78 270.028 113.464 270.5C113.747 270.684 114.153 270.566 114.346 270.283C114.538 269.999 114.454 269.644 114.146 269.417C113.487 268.988 112.758 268.542 112.074 268.069C111.791 267.886 111.405 267.934 111.212 268.218C111.044 268.545 111.084 268.925 111.367 269.109ZM101.479 261.752C101.762 261.936 102.104 261.913 102.321 261.673C102.539 261.433 102.543 261.027 102.236 260.799C101.64 260.276 100.976 259.735 100.381 259.212C100.118 258.959 99.7315 259.008 99.4694 259.273C99.2518 259.513 99.2475 259.919 99.5104 260.172C100.195 260.644 100.79 261.168 101.479 261.752C101.454 261.709 101.454 261.709 101.479 261.752ZM117.693 273.032C117.693 273.032 117.718 273.076 117.762 273.05C118.466 273.453 119.24 273.874 119.944 274.278C120.226 274.461 120.632 274.344 120.8 274.017C120.993 273.733 120.883 273.335 120.556 273.177C119.852 272.773 119.104 272.396 118.4 271.992C118.117 271.809 117.711 271.926 117.518 272.21C117.37 272.468 117.41 272.848 117.693 273.032ZM95.9736 256.782C96.1869 256.948 96.5731 256.899 96.8155 256.702C97.0776 256.437 97.0374 256.056 96.7993 255.847C96.2239 255.255 95.6287 254.731 95.0532 254.139C94.7903 253.886 94.4238 253.866 94.1617 254.132C93.8996 254.397 93.8704 254.76 94.1333 255.013C94.7088 255.605 95.2843 256.197 95.9043 256.764L95.9736 256.782ZM124.251 276.534C124.276 276.577 124.321 276.552 124.346 276.595C125.094 276.973 125.843 277.35 126.611 277.659C126.938 277.817 127.319 277.656 127.442 277.355C127.61 277.028 127.456 276.655 127.154 276.54C126.43 276.206 125.682 275.828 124.933 275.451C124.606 275.292 124.269 275.428 124.077 275.711C123.909 276.038 124.013 276.324 124.251 276.534ZM90.8638 251.469C91.077 251.635 91.4187 251.612 91.6611 251.415C91.948 251.193 91.9524 250.787 91.734 250.508C91.203 249.891 90.6721 249.273 90.1412 248.655C89.9228 248.377 89.5117 248.382 89.2693 248.579C88.9824 248.801 88.9781 249.207 89.1716 249.442C89.7026 250.06 90.2583 250.721 90.7893 251.339C90.7696 251.408 90.8389 251.426 90.8638 251.469ZM131.017 279.57C131.042 279.614 131.111 279.632 131.111 279.632C131.879 279.94 132.647 280.249 133.416 280.558C133.718 280.673 134.099 280.512 134.222 280.21C134.346 279.909 134.192 279.536 133.889 279.421C133.121 279.112 132.353 278.804 131.585 278.495C131.283 278.38 130.901 278.541 130.778 278.843C130.699 279.118 130.804 279.404 131.017 279.57ZM86.1693 245.745C86.3825 245.911 86.6797 245.913 86.9221 245.717C87.209 245.494 87.2827 245.106 87.0644 244.828C86.5779 244.184 86.0916 243.541 85.6249 242.829C85.4065 242.55 85.0151 242.487 84.7727 242.683C84.4858 242.906 84.4121 243.294 84.6057 243.529C85.092 244.172 85.5587 244.884 86.0451 245.528C86.0751 245.684 86.1445 245.702 86.1693 245.745ZM135.675 280.991C135.794 281.096 135.933 281.132 136.091 281.098C136.433 281.075 136.67 280.766 136.655 280.429C136.594 279.599 136.489 278.795 136.453 278.008C136.437 277.671 136.13 277.444 135.788 277.467C135.447 277.49 135.165 277.825 135.225 278.136C135.285 278.966 135.346 279.796 135.407 280.626C135.457 280.713 135.556 280.886 135.675 280.991ZM138.059 282.16C138.084 282.203 138.153 282.221 138.223 282.239C139.011 282.479 139.823 282.762 140.611 283.002C140.958 283.091 141.27 282.912 141.393 282.611C141.492 282.266 141.318 281.962 141.016 281.847C140.228 281.608 139.44 281.368 138.652 281.128C138.35 281.013 137.968 281.174 137.87 281.519C137.741 281.708 137.801 282.02 138.059 282.16ZM81.9844 239.671C82.1728 239.793 82.47 239.796 82.6927 239.668C83.0045 239.489 83.0782 239.101 82.9043 238.797C82.4625 238.128 82.0403 237.39 81.643 236.696C81.4692 236.392 81.0778 236.328 80.8105 236.481C80.4988 236.66 80.4251 237.048 80.5741 237.309C80.9963 238.047 81.4381 238.716 81.8603 239.454C81.8654 239.566 81.9348 239.584 81.9844 239.671ZM145.239 284.267C145.309 284.285 145.358 284.372 145.472 284.364C146.305 284.578 147.112 284.749 147.945 284.963C148.292 285.052 148.623 284.805 148.702 284.529C148.8 284.184 148.557 283.862 148.235 283.816C147.428 283.645 146.595 283.431 145.832 283.235C145.485 283.146 145.129 283.35 145.075 283.669C144.946 283.858 145.026 284.101 145.239 284.267ZM78.3537 233.221C78.5421 233.343 78.7948 233.371 79.0175 233.244C79.3292 233.065 79.4723 232.694 79.2984 232.391C78.9457 231.67 78.568 230.907 78.2153 230.187C78.086 229.857 77.6697 229.75 77.4025 229.904C77.0659 230.039 76.9477 230.453 77.0967 230.713C77.4495 231.433 77.8271 232.197 78.1799 232.917C78.2099 233.073 78.2595 233.16 78.3537 233.221ZM135.336 273.575C135.431 273.636 135.569 273.672 135.708 273.707C136.05 273.684 136.312 273.419 136.341 273.056C136.35 272.244 136.358 271.432 136.342 270.576C136.327 270.239 136.108 269.961 135.742 269.94C135.4 269.963 135.138 270.229 135.084 270.548C135.075 271.361 135.047 272.242 135.083 273.028C135.049 273.279 135.148 273.452 135.336 273.575ZM152.533 285.848C152.627 285.909 152.696 285.927 152.765 285.945C153.618 286.09 154.4 286.217 155.253 286.363C155.575 286.408 155.931 286.204 155.96 285.841C156.014 285.522 155.815 285.175 155.449 285.154C154.621 285.053 153.814 284.882 153.006 284.711C152.684 284.665 152.328 284.87 152.274 285.189C152.264 285.483 152.344 285.725 152.533 285.848ZM75.3268 226.482C75.5152 226.605 75.7233 226.658 75.9015 226.556C76.2381 226.421 76.3811 226.05 76.2767 225.764C75.9684 225.019 75.7047 224.247 75.441 223.476C75.3117 223.147 74.9846 222.989 74.648 223.124C74.3114 223.26 74.1435 223.587 74.2728 223.916C74.5365 224.687 74.8251 225.502 75.1333 226.247C75.183 226.334 75.2326 226.421 75.3268 226.482ZM159.964 286.946C160.058 287.007 160.152 287.068 160.266 287.06C161.093 287.162 161.965 287.239 162.768 287.297C163.134 287.317 163.421 287.095 163.45 286.732C163.479 286.37 163.217 286.117 162.894 286.071C162.092 286.013 161.265 285.911 160.393 285.835C160.071 285.789 159.739 286.037 159.71 286.399C159.696 286.581 159.82 286.798 159.964 286.946ZM135.567 266.12C135.662 266.181 135.756 266.242 135.87 266.235C136.236 266.255 136.498 265.989 136.552 265.67C136.606 264.832 136.684 264.038 136.806 263.218C136.86 262.899 136.617 262.577 136.25 262.557C135.884 262.537 135.597 262.759 135.568 263.121C135.445 263.941 135.392 264.779 135.339 265.617C135.324 265.798 135.448 266.015 135.567 266.12ZM167.458 287.431C167.553 287.492 167.691 287.528 167.805 287.52C168.652 287.553 169.499 287.586 170.321 287.575C170.688 287.595 170.95 287.33 170.979 286.967C170.964 286.63 170.701 286.377 170.379 286.331C169.557 286.342 168.71 286.309 167.907 286.251C167.541 286.23 167.279 286.496 167.249 286.859C167.171 287.135 167.295 287.352 167.458 287.431ZM72.9928 219.404C73.1118 219.508 73.3199 219.562 73.5229 219.503C73.8843 219.411 74.0771 219.127 73.9923 218.772L73.9623 218.617C73.7928 217.907 73.5985 217.153 73.4041 216.4C73.3442 216.089 72.9922 215.887 72.6754 215.953C72.3139 216.045 72.1461 216.372 72.206 216.684C72.4003 217.437 72.5947 218.191 72.789 218.944C72.7993 219.169 72.8738 219.299 72.9928 219.404ZM174.977 287.441C175.071 287.502 175.235 287.581 175.349 287.573C176.215 287.537 177.013 287.483 177.879 287.447C178.221 287.424 178.483 287.158 178.488 286.752C178.472 286.415 178.165 286.188 177.823 286.211C176.981 286.291 176.159 286.301 175.362 286.355C175.02 286.378 174.758 286.644 174.729 287.007C174.734 287.119 174.833 287.293 174.977 287.441ZM71.4313 212.228C71.5503 212.332 71.7336 212.343 71.9169 212.353C72.2338 212.286 72.471 211.977 72.4556 211.64C72.3504 210.836 72.2451 210.031 72.1398 209.227C72.1244 208.889 71.7922 208.619 71.4307 208.711C71.089 208.734 70.8518 209.043 70.892 209.424C70.9972 210.228 71.1274 211.076 71.2326 211.88C71.1932 212.018 71.3123 212.123 71.4313 212.228ZM136.556 258.749C136.651 258.81 136.72 258.828 136.814 258.889C137.136 258.935 137.468 258.687 137.522 258.368C137.644 257.548 137.836 256.746 137.983 255.97C138.037 255.65 137.839 255.303 137.517 255.257C137.195 255.211 136.838 255.416 136.784 255.735C136.617 256.581 136.47 257.357 136.303 258.202C136.244 258.409 136.368 258.626 136.556 258.749ZM182.465 286.776C182.584 286.881 182.723 286.917 182.881 286.884C183.723 286.804 184.54 286.681 185.402 286.533C185.718 286.466 185.956 286.157 185.94 285.82C185.88 285.508 185.573 285.281 185.231 285.304C184.414 285.427 183.597 285.55 182.755 285.63C182.413 285.653 182.176 285.962 182.192 286.299C182.271 286.542 182.346 286.672 182.465 286.776ZM70.7065 204.86C70.8256 204.965 70.9643 205 71.1227 204.967C71.4645 204.944 71.7266 204.678 71.7557 204.316C71.695 203.486 71.7036 202.673 71.7122 201.861C71.6969 201.524 71.434 201.271 71.0674 201.251C70.7257 201.274 70.4636 201.54 70.4344 201.903C70.4506 202.758 70.442 203.57 70.5027 204.4C70.4436 204.607 70.543 204.781 70.7065 204.86ZM138.189 251.47C138.259 251.487 138.308 251.574 138.422 251.567C138.769 251.656 139.125 251.451 139.179 251.132L139.317 250.649C139.495 250.029 139.717 249.382 139.894 248.762C139.992 248.417 139.819 248.113 139.472 248.024C139.125 247.935 138.813 248.114 138.715 248.458C138.493 249.105 138.315 249.725 138.118 250.415L137.98 250.898C137.897 251.061 137.976 251.304 138.189 251.47ZM189.902 285.507C190.021 285.612 190.229 285.665 190.388 285.632C191.224 285.44 192.017 285.274 192.853 285.082C193.215 284.99 193.383 284.663 193.323 284.351C193.263 284.04 192.911 283.838 192.594 283.905C191.782 284.14 190.99 284.306 190.153 284.498C189.836 284.565 189.599 284.874 189.684 285.229C189.709 285.272 189.808 285.446 189.902 285.507ZM70.7791 197.438C70.8733 197.499 70.9675 197.561 71.126 197.527C71.4925 197.548 71.7546 197.282 71.7838 196.919C71.8369 196.082 71.9149 195.287 71.9681 194.45C71.9972 194.087 71.7343 193.834 71.4123 193.788C71.0458 193.768 70.7837 194.034 70.7297 194.353C70.6765 195.191 70.554 196.011 70.5008 196.848C70.4914 197.142 70.5907 197.316 70.7791 197.438ZM140.561 244.343C140.585 244.387 140.655 244.405 140.724 244.422C141.027 244.537 141.408 244.376 141.531 244.075C141.862 243.308 142.148 242.568 142.478 241.801C142.602 241.5 142.492 241.102 142.145 241.012C141.843 240.898 141.462 241.059 141.339 241.36C141.008 242.126 140.677 242.893 140.371 243.702C140.243 243.891 140.347 244.177 140.561 244.343ZM197.195 283.571C197.358 283.65 197.567 283.704 197.77 283.645C198.581 283.41 199.369 283.131 200.2 282.827C200.537 282.691 200.705 282.364 200.575 282.035C200.446 281.705 200.119 281.547 199.782 281.683C198.995 281.961 198.208 282.24 197.396 282.475C197.06 282.611 196.892 282.938 196.952 283.249C197.026 283.38 197.101 283.51 197.195 283.571ZM71.6293 190.032C71.7235 190.093 71.7929 190.111 71.9316 190.146C72.2537 190.192 72.5851 189.944 72.6391 189.625C72.7616 188.805 72.9536 188.003 73.0761 187.183C73.1301 186.864 72.9314 186.517 72.6094 186.471C72.2874 186.425 71.9311 186.63 71.8771 186.949C71.71 187.794 71.5627 188.571 71.3956 189.416C71.3613 189.666 71.4409 189.909 71.6293 190.032ZM204.293 280.882C204.482 281.004 204.69 281.058 204.912 280.93C205.675 280.608 206.457 280.217 207.194 279.851C207.506 279.672 207.649 279.302 207.5 279.042C207.371 278.712 206.954 278.605 206.687 278.758C205.95 279.124 205.187 279.446 204.45 279.812C204.113 279.947 203.97 280.317 204.1 280.647C204.149 280.734 204.199 280.82 204.293 280.882ZM143.675 237.482C143.7 237.526 143.745 237.5 143.769 237.544C144.097 237.702 144.433 237.566 144.601 237.239C145.001 236.491 145.357 235.768 145.781 235.063C145.949 234.736 145.82 234.407 145.537 234.223C145.21 234.065 144.849 234.157 144.681 234.484C144.281 235.232 143.881 235.981 143.481 236.729C143.358 237.03 143.462 237.316 143.675 237.482ZM73.2623 182.752C73.3317 182.77 73.3814 182.857 73.4953 182.849C73.8421 182.939 74.1984 182.734 74.2524 182.415C74.4443 181.613 74.7056 180.829 74.9669 180.045C75.0654 179.7 74.8916 179.396 74.5892 179.281C74.2424 179.192 73.9306 179.371 73.8073 179.672C73.546 180.456 73.3096 181.284 73.0731 182.111C72.9695 182.344 73.0491 182.586 73.2623 182.752ZM211.014 277.429C211.202 277.551 211.455 277.579 211.678 277.452C212.435 277.017 213.123 276.565 213.88 276.13C214.191 275.952 214.265 275.563 214.091 275.259C213.873 274.981 213.526 274.892 213.214 275.071C212.527 275.523 211.814 275.932 211.057 276.366C210.745 276.545 210.671 276.934 210.82 277.194C210.895 277.324 210.92 277.368 211.014 277.429ZM147.469 230.981C147.494 231.025 147.494 231.025 147.469 230.981C147.776 231.208 148.182 231.091 148.375 230.807C148.8 230.102 149.294 229.415 149.788 228.728C149.981 228.444 149.941 228.064 149.658 227.88C149.376 227.696 148.989 227.745 148.797 228.028C148.302 228.716 147.833 229.446 147.383 230.108C147.171 230.46 147.256 230.815 147.469 230.981ZM75.7029 175.644C75.7278 175.687 75.7971 175.705 75.8665 175.723C76.1688 175.838 76.5499 175.677 76.6733 175.375C77.0039 174.609 77.3346 173.843 77.6652 173.077C77.7886 172.775 77.679 172.377 77.3767 172.262C77.0744 172.147 76.6684 172.265 76.5451 172.566C76.2144 173.332 75.8838 174.099 75.5531 174.865C75.3852 175.192 75.4897 175.478 75.7029 175.644ZM217.288 273.195C217.501 273.361 217.798 273.363 218.04 273.166C218.703 272.671 219.386 272.106 220.024 271.567C220.311 271.345 220.315 270.939 220.122 270.704C219.903 270.425 219.492 270.431 219.25 270.627C218.612 271.166 217.949 271.662 217.311 272.201C217.024 272.424 216.995 272.786 217.169 273.09C217.193 273.133 217.263 273.151 217.288 273.195ZM151.922 224.909C152.205 225.093 152.591 225.044 152.784 224.761C153.303 224.117 153.822 223.473 154.41 222.847C154.628 222.607 154.632 222.201 154.325 221.974C154.062 221.721 153.675 221.77 153.438 222.079C152.875 222.748 152.356 223.392 151.836 224.036C151.619 224.276 151.659 224.656 151.922 224.909ZM78.9117 168.844C78.9365 168.888 78.9811 168.862 79.0059 168.905C79.3331 169.064 79.6945 168.972 79.8624 168.645C80.2624 167.896 80.6872 167.191 81.1121 166.486C81.3048 166.203 81.1952 165.804 80.9126 165.62C80.63 165.437 80.224 165.554 80.0313 165.838C79.6065 166.543 79.1619 167.317 78.7619 168.065C78.5692 168.349 78.6736 168.635 78.9117 168.844ZM223.025 268.23C223.239 268.396 223.625 268.348 223.823 268.176C224.436 267.594 225.024 266.968 225.613 266.342C225.83 266.102 225.835 265.696 225.597 265.487C225.359 265.277 224.947 265.282 224.73 265.523C224.141 266.149 223.573 266.705 222.984 267.331C222.722 267.597 222.762 267.978 222.956 268.213C223.001 268.187 223.025 268.23 223.025 268.23ZM156.965 219.248C157.178 219.414 157.565 219.365 157.807 219.168C158.42 218.586 158.964 217.985 159.577 217.403C159.84 217.137 159.869 216.774 159.606 216.522C159.343 216.269 158.976 216.249 158.714 216.514C158.101 217.097 157.488 217.679 156.899 218.305C156.637 218.571 156.677 218.951 156.916 219.161C156.94 219.204 156.94 219.204 156.965 219.248ZM82.9384 162.44C83.221 162.624 83.6072 162.575 83.7999 162.292C83.9927 162.008 84.1854 161.725 84.4029 161.484C84.7044 161.081 85.0059 160.677 85.3323 160.317C85.525 160.033 85.4848 159.653 85.2467 159.443C84.9641 159.26 84.5778 159.308 84.3851 159.592C84.0836 159.996 83.7821 160.399 83.4806 160.803C83.2879 161.086 83.0952 161.37 82.8776 161.61C82.6155 161.876 82.6557 162.256 82.9384 162.44ZM228.093 262.612C228.376 262.796 228.762 262.748 228.955 262.464L229.429 261.846C229.795 261.348 230.116 260.875 230.482 260.377C230.675 260.093 230.59 259.738 230.352 259.529C230.069 259.345 229.683 259.394 229.49 259.677C229.169 260.15 228.848 260.623 228.457 261.077L228.027 261.67C227.746 262.005 227.786 262.385 228.093 262.612C228.069 262.569 228.069 262.569 228.093 262.612ZM162.559 214.135C162.772 214.301 163.114 214.278 163.312 214.107C163.95 213.568 164.613 213.072 165.276 212.576C165.563 212.354 165.592 211.991 165.418 211.687C165.2 211.409 164.833 211.389 164.521 211.568C163.858 212.064 163.176 212.628 162.538 213.167C162.251 213.39 162.222 213.752 162.44 214.031C162.465 214.074 162.49 214.117 162.559 214.135ZM91.1944 162.085C91.7844 162.496 92.3745 162.907 92.9645 163.317C93.2471 163.501 93.6531 163.384 93.8458 163.1C94.0386 162.817 93.9983 162.436 93.6464 162.234C93.0811 161.867 92.4911 161.456 91.9011 161.045L91.6184 160.861C91.3358 160.677 90.9496 160.726 90.7569 161.01C90.5641 161.293 90.6044 161.674 90.8424 161.883L91.1944 162.085ZM87.0684 158.802C87.351 158.986 87.6927 158.962 87.9103 158.722C88.1278 158.482 88.1321 158.076 87.8692 157.823C87.2741 157.3 86.6541 156.733 86.0341 156.167C85.796 155.957 85.3849 155.962 85.1673 156.203C84.9053 156.468 84.9455 156.849 85.1835 157.058C85.8036 157.625 86.4236 158.192 87.0187 158.715C87.0436 158.758 87.0684 158.802 87.0684 158.802ZM97.3219 165.66C97.3467 165.704 97.3912 165.678 97.4161 165.722C98.2091 166.074 98.9773 166.383 99.79 166.666C100.092 166.781 100.473 166.619 100.572 166.275C100.695 165.973 100.541 165.6 100.194 165.511C99.451 165.246 98.6828 164.937 97.9146 164.628C97.5875 164.47 97.2063 164.631 97.083 164.933C96.9793 165.165 97.0838 165.451 97.3219 165.66ZM81.7607 153.66C81.9739 153.826 82.3156 153.803 82.558 153.606C82.8201 153.341 82.8493 152.978 82.5864 152.725L80.9045 150.923C80.7109 150.688 80.275 150.65 80.0129 150.915C79.726 151.138 79.7217 151.544 79.9846 151.796L81.6665 153.599C81.711 153.573 81.7358 153.617 81.7607 153.66ZM87.6989 156.595C87.9815 156.779 88.3232 156.756 88.5408 156.515C89.1292 155.89 89.6979 155.333 90.2864 154.707C90.5485 154.441 90.5331 154.104 90.3147 153.826C90.0518 153.573 89.6852 153.553 89.4232 153.818C88.8099 154.401 88.2215 155.027 87.6331 155.653C87.371 155.918 87.4112 156.299 87.6493 156.508C87.6989 156.595 87.6989 156.595 87.6989 156.595ZM76.7596 148.227C76.9728 148.393 77.3145 148.37 77.5569 148.173C77.8438 147.951 77.8482 147.545 77.6298 147.267C77.0989 146.649 76.5234 146.057 75.9925 145.439C75.7741 145.16 75.363 145.166 75.1206 145.362C74.8337 145.585 74.8294 145.991 75.0229 146.226C75.5538 146.844 76.0848 147.461 76.6602 148.054C76.7099 148.14 76.7347 148.184 76.7596 148.227ZM104.472 167.611C104.566 167.673 104.66 167.734 104.774 167.726C105.646 167.803 106.493 167.835 107.385 167.843C107.726 167.82 107.989 167.554 108.018 167.191C108.002 166.854 107.739 166.602 107.373 166.581C106.551 166.592 105.773 166.577 104.946 166.475C104.624 166.429 104.292 166.677 104.263 167.039C104.229 167.29 104.328 167.463 104.472 167.611ZM71.9315 142.58C72.1447 142.746 72.4864 142.723 72.6843 142.551C72.9712 142.329 72.9756 141.923 72.782 141.688C72.2511 141.07 71.7202 140.452 71.2337 139.809C71.0154 139.531 70.6488 139.51 70.3619 139.733C70.075 139.955 70.0458 140.318 70.2642 140.596C70.7951 141.214 71.2815 141.857 71.8373 142.519C71.8621 142.562 71.887 142.605 71.9315 142.58ZM232.17 256.295C232.194 256.339 232.239 256.313 232.264 256.356C232.591 256.515 232.952 256.423 233.12 256.096C233.52 255.347 233.92 254.599 234.32 253.85C234.488 253.523 234.334 253.15 234.032 253.036C233.705 252.877 233.324 253.038 233.2 253.34C232.845 254.063 232.445 254.811 232.045 255.56C231.872 255.774 231.956 256.129 232.17 256.295ZM168.684 209.641C168.897 209.807 169.194 209.809 169.392 209.638C170.08 209.185 170.768 208.733 171.525 208.299C171.836 208.12 171.91 207.732 171.736 207.428C171.562 207.124 171.171 207.06 170.859 207.239C170.102 207.674 169.414 208.126 168.682 208.604C168.37 208.783 168.297 209.171 168.471 209.475C168.565 209.536 168.614 209.623 168.684 209.641ZM67.2619 136.899C67.4751 137.065 67.7723 137.067 68.0147 136.871C68.3016 136.648 68.3307 136.286 68.1124 136.007C67.626 135.364 67.095 134.746 66.5838 134.059C66.3654 133.781 65.9989 133.761 65.6871 133.94C65.4002 134.162 65.3711 134.525 65.5449 134.828C66.0313 135.472 66.5871 136.133 67.0735 136.777C67.1677 136.838 67.237 136.856 67.2619 136.899ZM111.905 166.748C112.094 166.871 112.302 166.924 112.48 166.822C113.287 166.474 114.069 166.083 114.826 165.649C115.137 165.47 115.211 165.082 115.037 164.778C114.863 164.474 114.472 164.41 114.16 164.589C113.448 164.998 112.71 165.364 111.993 165.66C111.656 165.796 111.513 166.166 111.617 166.452C111.761 166.6 111.811 166.687 111.905 166.748ZM62.7652 131.004C62.9785 131.17 63.2757 131.172 63.5181 130.975C63.805 130.753 63.8787 130.365 63.6603 130.087C63.1739 129.443 62.6627 128.756 62.2208 128.087C62.0024 127.809 61.611 127.745 61.3241 127.968C61.0372 128.19 60.9635 128.578 61.1819 128.856C61.6683 129.5 62.1795 130.187 62.6659 130.83C62.671 130.942 62.6959 130.986 62.7652 131.004ZM93.2679 151.439C93.4811 151.605 93.8229 151.582 94.0207 151.411C94.6588 150.872 95.3217 150.376 95.9846 149.88C96.2716 149.658 96.3452 149.27 96.1269 148.991C95.9085 148.713 95.5171 148.649 95.2302 148.872C94.5227 149.393 93.8598 149.889 93.2217 150.428C92.9348 150.65 92.9057 151.013 93.124 151.291C93.1737 151.378 93.1985 151.421 93.2679 151.439ZM58.4022 125.032C58.6155 125.198 58.9126 125.2 59.1105 125.029C59.3974 124.807 59.4711 124.418 59.2776 124.184C58.8357 123.515 58.3245 122.828 57.8826 122.159C57.7088 121.855 57.3174 121.791 57.0305 122.014C56.7436 122.236 56.645 122.581 56.8634 122.859C57.3053 123.528 57.8165 124.215 58.2584 124.884C58.308 124.97 58.3774 124.988 58.4022 125.032ZM235.354 249.452C235.378 249.495 235.448 249.513 235.517 249.531C235.819 249.646 236.201 249.485 236.299 249.14C236.605 248.33 236.866 247.546 237.128 246.762C237.226 246.417 237.052 246.113 236.75 245.999C236.403 245.909 236.091 246.088 235.993 246.433C235.731 247.217 235.47 248.001 235.184 248.742C235.036 249 235.096 249.312 235.354 249.452ZM175.231 205.884C175.419 206.006 175.672 206.034 175.894 205.907C176.632 205.541 177.369 205.176 178.176 204.828C178.513 204.693 178.656 204.322 178.526 203.993C178.397 203.663 178.025 203.531 177.714 203.71C176.951 204.032 176.169 204.423 175.387 204.814C175.076 204.993 174.933 205.363 175.106 205.667C175.087 205.736 175.136 205.823 175.231 205.884ZM54.2619 118.932C54.4751 119.098 54.7723 119.1 54.9702 118.929C55.2819 118.75 55.3556 118.362 55.1818 118.058L53.8314 116.008C53.6575 115.704 53.2662 115.64 52.9544 115.819C52.6427 115.998 52.569 116.386 52.7428 116.69L54.0932 118.74C54.1429 118.827 54.2371 118.889 54.2619 118.932ZM118.06 162.409C118.342 162.593 118.684 162.57 118.902 162.33C119.337 161.85 119.747 161.326 120.157 160.802C120.286 160.613 120.439 160.467 120.523 160.304C120.716 160.02 120.676 159.64 120.393 159.456C120.11 159.272 119.724 159.321 119.531 159.605C119.447 159.768 119.294 159.914 119.166 160.103C118.8 160.601 118.409 161.056 118.019 161.51C117.801 161.75 117.797 162.157 118.06 162.409C118.015 162.435 118.015 162.435 118.06 162.409ZM50.2997 112.73C50.4881 112.852 50.7408 112.88 51.008 112.727C51.3198 112.548 51.3934 112.16 51.2196 111.856C50.7777 111.187 50.3556 110.449 49.9583 109.755C49.7844 109.451 49.3931 109.387 49.0813 109.566C48.7696 109.745 48.6959 110.133 48.8697 110.437C49.267 111.132 49.7337 111.844 50.131 112.538C50.1807 112.625 50.2501 112.643 50.2997 112.73ZM99.492 147.118C99.6804 147.241 99.933 147.269 100.111 147.166L100.2 147.115C100.868 146.732 101.581 146.323 102.274 145.983C102.586 145.804 102.729 145.434 102.555 145.13C102.381 144.826 102.009 144.694 101.697 144.872C100.96 145.238 100.203 145.672 99.4903 146.081C99.1786 146.26 99.0604 146.674 99.2094 146.934C99.3729 147.014 99.4671 147.075 99.492 147.118ZM46.4909 106.382C46.6793 106.505 46.9319 106.533 47.1546 106.405C47.4664 106.226 47.5401 105.838 47.391 105.578C46.9937 104.883 46.5716 104.145 46.1743 103.451C46.0004 103.147 45.6536 103.057 45.3418 103.236C45.0301 103.415 44.9315 103.76 45.1054 104.064C45.5027 104.758 45.9248 105.496 46.3222 106.191C46.3718 106.278 46.4412 106.296 46.4909 106.382ZM182.225 202.909C182.413 203.031 182.596 203.041 182.799 202.982C183.586 202.704 184.373 202.425 185.185 202.19C185.547 202.098 185.69 201.727 185.63 201.416C185.545 201.061 185.173 200.928 184.857 200.995C184.045 201.23 183.258 201.509 182.426 201.813C182.089 201.948 181.921 202.275 182.051 202.605C182.011 202.743 182.13 202.847 182.225 202.909ZM237.403 242.28C237.497 242.341 237.566 242.359 237.636 242.377C237.958 242.423 238.314 242.218 238.368 241.899C238.535 241.054 238.683 240.277 238.825 239.388C238.879 239.069 238.636 238.747 238.314 238.702C237.992 238.656 237.66 238.904 237.606 239.223C237.484 240.043 237.336 240.819 237.169 241.664C237.135 241.915 237.214 242.157 237.403 242.28ZM42.9047 99.9069C43.0931 100.029 43.3457 100.057 43.5684 99.9297C43.8802 99.7508 43.9787 99.406 43.8494 99.0766C43.4521 98.382 43.0745 97.6186 42.6771 96.924C42.5033 96.6202 42.1565 96.5309 41.8199 96.6664C41.5081 96.8453 41.3651 97.2157 41.5389 97.5195C41.8917 98.2396 42.3138 98.9775 42.7112 99.6721C42.7857 99.8023 42.8353 99.8891 42.9047 99.9069ZM121.834 155.977C121.903 155.995 121.928 156.038 122.022 156.1C122.369 156.189 122.725 155.984 122.779 155.665C123.06 154.812 123.227 153.967 123.325 153.103C123.354 152.741 123.136 152.462 122.769 152.442C122.403 152.422 122.116 152.644 122.087 153.007C121.984 153.758 121.837 154.534 121.62 155.293C121.541 155.569 121.645 155.855 121.834 155.977ZM106.367 144.038C106.486 144.143 106.694 144.196 106.897 144.138C107.709 143.902 108.546 143.71 109.293 143.57C109.61 143.503 109.847 143.194 109.832 142.857C109.772 142.545 109.465 142.318 109.123 142.341C108.306 142.464 107.469 142.656 106.613 142.917C106.251 143.009 106.083 143.336 106.168 143.691C106.198 143.847 106.273 143.977 106.367 144.038ZM189.512 200.86C189.631 200.965 189.839 201.018 189.998 200.985C190.201 200.926 190.359 200.893 190.587 200.878C191.221 200.745 191.81 200.637 192.469 200.548C192.785 200.481 193.023 200.172 193.007 199.835C192.947 199.523 192.64 199.296 192.298 199.319C191.664 199.452 191.006 199.542 190.417 199.649C190.214 199.708 189.986 199.724 189.783 199.782C189.421 199.874 189.229 200.158 189.313 200.513C189.274 200.651 189.349 200.781 189.512 200.86ZM39.477 93.3983C39.6654 93.5208 39.918 93.5488 40.1407 93.421C40.4524 93.2421 40.5955 92.8717 40.4217 92.5679C40.0689 91.8478 39.6913 91.0844 39.3385 90.3643C39.1647 90.0604 38.793 89.9278 38.4812 90.1066C38.1694 90.2855 38.0264 90.6559 38.2002 90.9598C38.553 91.6798 38.9306 92.4433 39.2834 93.1634C39.3331 93.2502 39.3827 93.337 39.477 93.3983ZM238.322 234.891C238.417 234.952 238.555 234.988 238.694 235.024C239.061 235.044 239.323 234.778 239.352 234.416C239.405 233.578 239.389 232.722 239.353 231.936C239.338 231.599 239.075 231.346 238.708 231.326C238.366 231.349 238.104 231.614 238.075 231.977C238.111 232.764 238.102 233.576 238.049 234.414C238.035 234.595 238.134 234.769 238.322 234.891ZM113.83 143.331C113.924 143.392 113.993 143.41 114.132 143.445C114.959 143.547 115.723 143.744 116.397 143.991C116.699 144.106 117.08 143.945 117.203 143.643C117.327 143.342 117.173 142.969 116.87 142.854C116.057 142.571 115.225 142.357 114.328 142.237C114.006 142.191 113.675 142.439 113.621 142.759C113.562 142.965 113.641 143.208 113.83 143.331ZM121.639 148.709C121.828 148.831 122.08 148.859 122.258 148.757C122.595 148.622 122.738 148.251 122.564 147.947C122.231 147.158 121.74 146.403 121.139 145.767C120.921 145.489 120.51 145.494 120.267 145.691C119.981 145.913 119.976 146.319 120.17 146.554C120.676 147.128 121.093 147.754 121.376 148.456C121.495 148.561 121.545 148.648 121.639 148.709ZM36.2471 86.7184C36.4355 86.8409 36.6881 86.869 36.8663 86.7667C37.2028 86.6312 37.3211 86.2174 37.1721 85.957C36.8193 85.2369 36.4862 84.4479 36.1334 83.7278C36.0041 83.3984 35.6325 83.2658 35.3207 83.4447C34.9841 83.5801 34.841 83.9505 35.0149 84.2544C35.3677 84.9744 35.7007 85.7635 36.0535 86.4835C36.0587 86.5959 36.1777 86.7006 36.2471 86.7184ZM196.935 199.772C197.054 199.877 197.193 199.913 197.351 199.879C198.193 199.8 199.015 199.789 199.837 199.779C200.179 199.756 200.441 199.49 200.47 199.127C200.455 198.79 200.192 198.537 199.825 198.517C199.003 198.528 198.137 198.564 197.295 198.643C196.953 198.666 196.646 198.958 196.687 199.338C196.717 199.494 196.816 199.667 196.935 199.772ZM237.87 227.482C237.989 227.587 238.172 227.597 238.356 227.607C238.672 227.541 238.91 227.232 238.894 226.895C238.764 226.047 238.59 225.224 238.415 224.402C238.33 224.047 238.003 223.889 237.686 223.955C237.325 224.048 237.157 224.375 237.217 224.686C237.367 225.465 237.541 226.287 237.691 227.066C237.632 227.273 237.751 227.378 237.87 227.482ZM33.1756 80.0053C33.364 80.1278 33.5721 80.1814 33.7948 80.0536C34.1314 79.9181 34.2745 79.5478 34.1452 79.2184C33.8369 78.4727 33.5038 77.6837 33.1511 76.9636C33.0218 76.6342 32.6501 76.5015 32.3135 76.637C31.9769 76.7725 31.8338 77.1429 31.9631 77.4723C32.2714 78.2179 32.6045 79.0069 32.9573 79.727C33.0318 79.8572 33.0814 79.9441 33.1756 80.0053ZM204.478 199.826C204.573 199.887 204.667 199.948 204.781 199.94C205.583 199.999 206.41 200.101 207.238 200.203C207.56 200.248 207.891 200 207.945 199.681C207.999 199.362 207.756 199.04 207.434 198.994C206.607 198.893 205.779 198.791 204.908 198.714C204.541 198.694 204.254 198.916 204.225 199.279C204.21 199.46 204.29 199.703 204.478 199.826ZM235.922 220.355C236.111 220.478 236.319 220.531 236.541 220.403C236.878 220.268 237.021 219.898 236.892 219.568C236.559 218.779 236.25 218.033 235.873 217.27C235.744 216.941 235.327 216.833 235.016 217.012C234.704 217.191 234.561 217.562 234.735 217.865C235.087 218.586 235.44 219.306 235.704 220.077C235.734 220.233 235.828 220.294 235.922 220.355ZM30.3517 73.2079C30.5401 73.3304 30.7482 73.3839 30.9709 73.2562C31.3075 73.1207 31.4505 72.7503 31.3212 72.4209C31.013 71.6752 30.7048 70.9296 30.4162 70.115C30.2869 69.7856 29.9152 69.6529 29.6232 69.7629C29.2866 69.8984 29.1435 70.2687 29.248 70.5547C29.5562 71.3004 29.8448 72.115 30.1531 72.8606C30.183 73.0164 30.2575 73.1466 30.3517 73.2079ZM211.865 200.949C211.934 200.967 212.029 201.028 212.098 201.046C212.906 201.217 213.693 201.457 214.481 201.696C214.828 201.786 215.14 201.607 215.263 201.305C215.362 200.961 215.188 200.657 214.886 200.542C214.098 200.302 213.265 200.088 212.433 199.874C212.086 199.784 211.73 199.989 211.676 200.308C211.572 200.541 211.677 200.827 211.865 200.949ZM232.361 213.923C232.574 214.089 232.871 214.091 233.069 213.92C233.356 213.698 233.43 213.31 233.236 213.075C232.968 212.71 232.7 212.345 232.432 211.98C232.189 211.658 231.971 211.38 231.683 211.083C231.464 210.805 231.053 210.81 230.811 211.007C230.524 211.229 230.52 211.635 230.713 211.87C230.932 212.149 231.219 212.445 231.438 212.723C231.681 213.045 231.949 213.41 232.217 213.775C232.267 213.862 232.336 213.88 232.361 213.923ZM218.966 203.332C218.991 203.375 219.036 203.35 219.061 203.393C219.784 203.727 220.533 204.105 221.256 204.439C221.583 204.598 221.945 204.506 222.113 204.179C222.281 203.852 222.151 203.522 221.869 203.338C221.12 202.961 220.372 202.583 219.579 202.231C219.252 202.073 218.871 202.234 218.747 202.535C218.624 202.837 218.709 203.191 218.966 203.332ZM27.7059 66.3081C27.8943 66.4307 28.0776 66.4408 28.2806 66.382C28.6172 66.2465 28.7851 65.9195 28.6558 65.5901C28.3921 64.819 28.0838 64.0733 27.8201 63.3022C27.6908 62.9727 27.3636 62.8145 27.0271 62.95C26.6905 63.0855 26.5226 63.4124 26.6519 63.7418C26.9156 64.513 27.1793 65.2842 27.5124 66.0733C27.5372 66.1167 27.6117 66.2469 27.7059 66.3081ZM227.315 208.516C227.598 208.7 227.94 208.676 228.157 208.436C228.375 208.196 228.379 207.79 228.072 207.563C227.407 207.022 226.767 206.524 226.058 206.008C225.776 205.825 225.389 205.873 225.197 206.157C225.004 206.44 225.044 206.821 225.327 207.005C226.056 207.451 226.695 207.949 227.315 208.516ZM25.2383 59.3062C25.4267 59.4287 25.61 59.4389 25.813 59.3801C26.1495 59.2446 26.3174 58.9176 26.1881 58.5882C25.9244 57.817 25.6607 57.0459 25.4415 56.2491C25.3123 55.9197 24.9851 55.7615 24.6237 55.8536C24.2871 55.9891 24.1192 56.316 24.204 56.671C24.4677 57.4422 24.7314 58.2133 24.9506 59.0101C25.0696 59.1148 25.1441 59.245 25.2383 59.3062ZM22.9985 52.2889C23.162 52.368 23.3702 52.4216 23.5731 52.3628C23.9097 52.2273 24.0776 51.9003 24.0177 51.5888C23.7985 50.792 23.5348 50.0208 23.3156 49.2241C23.2309 48.8691 22.8592 48.7365 22.5423 48.803C22.1809 48.895 22.0378 49.2654 22.0977 49.577C22.3169 50.3737 22.5806 51.1449 22.7998 51.9416C22.8298 52.0974 22.8794 52.1842 22.9985 52.2889ZM20.9813 45.1438C21.1004 45.2484 21.3085 45.302 21.5115 45.2432C21.8729 45.1511 22.0408 44.8242 21.956 44.4692L21.5125 42.7633C21.4278 42.4084 21.1006 42.2501 20.7392 42.3422C20.3778 42.4343 20.2099 42.7613 20.2947 43.1162L20.7381 44.8221C20.7681 44.9779 20.8426 45.1081 20.9813 45.1438Z" fill="#475566"/>
</g>
</svg>
