<svg width="228" height="94" viewBox="0 0 228 94" fill="none" xmlns="http://www.w3.org/2000/svg">
<mask id="path-1-inside-1_405_9667" fill="white">
<path d="M74.7028 15.8899C73.8307 15.349 72.9569 14.8733 71.9404 14.6547C70.5834 14.4284 69.0139 14.5229 67.7365 13.8426C66.8627 13.3668 65.1512 10.9836 67.3253 11.2285C68.8202 11.3928 71.7499 11.3946 72.7991 10.3115C75.4572 7.57209 78.7613 14.3545 81.7074 13.7054C83.2834 13.3507 83.6731 11.406 85.2844 12.3544C86.2911 12.9634 87.3577 13.8994 88.0838 14.8276C89.1406 16.154 88.3735 16.8528 86.8008 17.0774C85.3659 17.2401 83.9391 17.0773 82.4411 17.0431C81.0791 17.0121 79.714 17.1111 78.3488 17.2102C76.9836 17.3093 75.844 16.5671 74.7028 15.8899ZM90.5808 7.65657C90.5808 7.65657 91.2545 10.6673 92.3342 11.0826C93.3458 11.4964 93.8775 12.0295 94.5928 10.6783C95.3065 9.39228 93.7551 8.77084 92.6237 7.70317C91.4923 6.63549 89.7176 4.05545 90.5808 7.65657ZM85.1677 25.1147C83.2159 24.1585 84.2003 22.9438 83.5734 20.7806C82.9465 18.6175 81.4625 20.7325 79.4369 22.7049C77.4114 24.6773 75.53 20.9227 74.5332 19.9232C73.5363 18.9238 74.4945 18.7503 69.2627 18.1751C64.1006 17.5364 64.5124 17.4156 62.1333 19.9009C59.7542 22.3862 64.0606 21.8332 67.0486 22.227C70.0365 22.6207 70.0621 24.3143 69.7455 26.0653C69.4289 27.8162 63.9345 26.8444 58.774 26.1406C53.6135 25.4369 54.0623 26.5541 51.3788 27.5999C48.6952 28.6456 43.1851 25.5897 40.8879 24.821C38.5907 24.0523 22.7697 24.6031 20.4545 24.5503C18.1393 24.4975 16.8029 26.1601 15.0127 26.9006C13.2226 27.6412 13.8947 30.717 13.7906 32.1472C13.6864 33.5774 10.3144 32.1982 8.54397 32.1578C6.7735 32.1174 7.2256 33.1045 7.05829 34.3379C6.89099 35.5713 7.63675 35.7185 9.75098 35.6365C11.8652 35.5545 12.7422 35.9001 12.7759 37.2683C12.8096 38.6366 10.0358 37.857 8.33339 37.8182C6.63102 37.7794 7.2399 40.6584 7.51978 43.0741C7.79966 45.4898 9.44377 45.1366 10.3807 45.8092C11.3177 46.4817 12.6566 47.4239 4.53954 50.4946C-3.57756 53.5653 4.2213 52.3106 5.5963 51.821C6.97131 51.3315 13.0079 49.711 14.7784 49.7514C16.5488 49.7917 19.3218 47.9015 21.6148 46.1305C23.9078 44.3595 30.9002 45.3655 35.9376 45.5456C40.975 45.7256 45.0678 56.3679 47.4783 58.0508C49.8887 59.7337 49.8287 72.9511 49.6623 76.8543C49.4959 80.7575 52.425 83.4941 53.7558 84.7617C55.0865 86.0293 58.2447 93.1991 61.8022 98.0338C65.3582 102.934 63.8081 96.8423 62.7874 94.0841C61.7683 91.2608 63.8154 93.8471 63.8154 93.8471C63.8154 93.8471 70.1723 101.155 71.3826 104.503C72.5929 107.852 78.1063 110.778 81.8449 111.124C85.5836 111.469 85.4909 112.444 85.4909 112.444C85.4909 112.444 85.2523 113.806 89.7334 114.429C94.1465 115.051 93.3139 118.353 95.1197 119.696C96.9256 121.04 99.7511 122.472 102.271 122.529C104.79 122.587 103.912 122.306 104.342 124.139C104.773 125.972 102.94 128.405 101.614 129.677C100.287 130.949 100.076 133.94 99.9873 137.454C99.8989 140.968 101.311 141.717 101.311 141.717C101.311 141.717 108.769 153.999 110.58 155.147C112.391 156.295 112.059 158.632 112.059 158.632C112.059 158.632 111.61 176.464 111.508 177.829C111.405 179.194 111.269 179.191 110.003 180.79C108.736 182.389 108.85 185.973 108.85 185.973C108.85 185.973 108.248 201.783 108.218 202.954C108.189 204.126 110.058 205.666 116.174 208.996C122.291 212.326 117.916 207.473 117.263 206.351C116.61 205.229 117.158 202.377 117.213 200.229C117.267 198.081 119.201 197.018 119.983 195.734C120.765 194.449 120.108 193.458 120.166 191.18C120.223 188.902 122.908 187.791 122.908 187.791C122.908 187.791 137.838 173.936 139.028 172.661C140.218 171.386 140.486 168.852 140.386 167.418C140.286 165.983 144.885 161.92 147.449 160.22C150.013 158.521 152.112 153.62 152.276 152.517C152.44 151.413 152.572 148.877 154.305 147.679C156.039 146.481 156.038 143.812 156.789 141.029C157.541 138.246 152.101 137.796 148.884 135.704C145.666 133.612 140.505 132.908 140.097 132.899C139.688 132.89 137.366 133.097 137.543 131.473C137.721 129.849 136.361 127.018 135.578 125.633C134.796 124.248 133.5 124.283 131.934 124.248C130.368 124.212 125.708 119.873 123.697 118.525C121.687 117.177 117.507 118.123 114.802 117.345C112.096 116.567 113.458 116.598 111.023 115.891C108.588 115.185 107.348 118.412 106.182 118.711C105.016 119.01 101.275 118.795 99.9175 118.568C98.5605 118.342 97.5964 116.041 97.3084 113.951C97.0203 111.86 96.2942 110.932 94.4802 109.914C92.6662 108.896 92.4495 106.677 92.6931 105.12C92.9367 103.563 91.7823 103.406 90.4221 103.31C89.0618 103.214 89.1168 103.736 88.7485 104.834C88.3802 105.933 87.2775 106.429 84.3609 105.907C81.4459 105.319 80.3037 101.972 80.0304 99.296C79.7571 96.62 79.8629 95.1247 81.8088 93.6063C83.7548 92.0879 84.2783 92.9463 86.856 93.3958C89.4338 93.8453 91.2387 92.519 92.9837 90.8658C94.7286 89.2126 96.6994 92.1227 96.6994 92.1227C96.6994 92.1227 96.6994 92.1227 99.3865 96.3514C102.074 100.58 101.84 96.3423 101.26 92.2918C100.681 88.2413 114.01 75.7173 116.03 73.9401C118.051 72.1629 117.827 72.9392 121.238 72.7566C124.649 72.5739 126.027 69.2843 128.036 67.9627C130.045 66.6411 125.481 66.6021 123.464 65.5142C121.448 64.4264 124.859 64.2437 126.099 63.6859C127.34 63.1282 129.936 62.8618 133.336 63.1347C136.735 63.4076 128.58 51.761 127.183 50.4268C125.785 49.0926 126.243 47.1495 125.61 45.2466C124.976 43.3438 122.582 46.4148 120.829 48.3935C119.076 50.3721 119.195 48.3562 119.498 47.1259C119.802 45.8956 118.473 44.5629 117.902 42.8569C117.332 41.1508 112.961 41.5721 111.397 41.4713C109.832 41.3705 110.101 41.5068 109.561 44.0341C109.02 46.5613 109.728 48.2054 110.146 50.5591C110.564 52.9129 107.759 56.0396 106.152 57.6309C104.545 59.2222 104.186 57.2605 104.159 55.6319C104.131 54.0034 103.308 54.245 101.408 53.9412C99.5075 53.6374 99.373 53.5693 98.6665 51.8601C97.9601 50.1509 95.4766 48.6617 93.0965 48.4772C90.7165 48.2927 91.5654 44.3399 91.6777 42.5843C91.7917 40.7636 95.3343 40.7793 96.5001 40.4803C97.6659 40.1813 99.602 39.0534 101.456 41.1794C103.312 43.2404 105.201 41.2648 105.201 41.2648C105.201 41.2648 108.184 39.184 108.216 37.8824C108.249 36.5808 107.626 36.9573 105.788 36.9154C103.949 36.8734 103.677 36.8672 103.715 35.3704C103.752 33.8736 103.756 33.7434 107.026 33.7529C110.296 33.7624 108.87 30.8647 110.471 29.5337C112.071 28.2028 113.543 29.2782 113.2 32.0704C112.857 34.8626 116.316 32.7927 118.205 33.552C120.093 34.3114 119.185 35.2023 117.543 35.4905C115.9 35.7786 116.977 36.3241 117.411 38.027C117.845 39.7299 117.652 39.2697 122.817 39.7783C127.983 40.2868 123.621 37.6477 123.293 37.1193C122.966 36.5909 121.432 35.2536 126.124 35.6211C130.816 35.9886 127.98 32.2773 127.98 32.2773C127.98 32.2773 124.847 26.8011 121.137 25.3491C117.426 23.897 118.446 23.9853 116.53 21.5974C114.614 19.2095 107.028 20.1435 104.784 19.9621C102.54 19.7806 102.64 21.2155 101.448 22.5558C100.324 23.8976 103.014 25.3264 103.176 29.6929C103.339 34.0595 100.439 30.1514 100.439 30.1514C100.439 30.1514 98.8525 28.2269 98.146 26.5177C97.4395 24.8086 97.1901 23.8912 98.3107 22.6796C99.4314 21.4679 99.9424 20.1121 97.7641 17.3275C95.5857 14.5429 93.7734 13.4597 92.8233 13.3078C91.8732 13.1559 92.0998 14.9843 92.1967 16.5493C92.2935 18.1144 93.2534 17.8758 94.3881 18.8133C95.4547 19.7493 94.9355 21.4305 94.6189 23.1814C94.3023 24.9323 94.2653 23.6943 92.63 20.9872C90.9948 18.2801 89.8693 19.687 88.3253 21.475C86.7814 23.2631 90.8392 24.4627 90.8935 27.7197C90.9478 30.9768 89.1083 28.2651 89.1083 28.2651C89.1083 28.2651 87.1195 26.0709 85.1677 25.1147ZM21.6208 86.5032C21.6208 86.5032 22.9403 93.631 24.8552 93.3491C28.6849 92.7853 25.8838 90.3772 22.6422 86.5265C22.3796 86.1298 21.2531 84.8669 21.6208 86.5032ZM103.003 104.248C103.409 104.387 103.815 104.462 104.151 104.665C104.688 105.003 105.081 105.598 105.689 105.807C106.498 106.151 108.152 105.407 108.974 105.231C112.467 104.529 103.278 101.454 101.654 101.026C100.029 100.599 99.5606 100.262 95.8441 101.74C92.1277 103.219 98.9339 103.504 98.9339 103.504C100.359 103.732 101.718 103.893 103.003 104.248ZM111.194 106.388C111.184 106.779 111.174 107.169 111.24 107.236C111.563 107.96 112.523 107.721 113.204 107.736C113.817 107.75 117.635 107.642 115.881 106.951C114.801 106.536 113.661 105.793 112.446 105.375C110.69 104.749 111.213 105.607 111.194 106.388ZM97.9484 12.7084C98.4654 13.8272 99.2874 13.6506 99.9602 13.9915C100.633 14.3324 100.818 15.118 100.974 17.01C101.131 18.902 107.414 18.329 111.706 18.3618C115.997 18.3945 113.259 16.1832 107.808 16.1891C105.423 16.1999 105.161 15.8032 104.511 14.5511C103.861 13.2991 102.773 13.2091 101.222 12.5877C99.6705 11.9663 99.8263 11.1884 98.3659 9.65741C96.3738 7.59335 97.3634 11.5881 97.3634 11.5881C97.3634 11.5881 97.4315 11.5896 97.9484 12.7084ZM114.941 14.3332C118.005 14.4031 120.023 10.0212 120.178 9.30839C120.332 8.59562 122.201 7.40104 124.653 7.45696C127.104 7.51287 128.398 7.54238 129.519 6.33072C130.639 5.11906 129.467 5.67837 133.029 4.9131C136.592 4.14783 136.55 3.105 136.514 1.80185C136.479 0.498705 130.757 0.433319 129.19 0.462676C127.622 0.492033 127.735 1.40625 126.006 2.4087C124.278 3.41115 114.02 2.20042 110.753 2.06079C110.413 2.05303 110.072 2.04526 109.796 2.16921C110.19 2.76424 111.617 2.92702 112.223 3.20132C113.1 3.54691 113.561 4.20857 114.298 4.68122C115.037 5.08878 115.921 5.17405 116.737 5.25777C125.295 6.2995 118.672 6.86472 117.989 6.91427C117.307 6.96382 116.227 6.54849 115.98 8.2359C115.733 9.92331 113.508 9.02602 112.348 9.0647C111.189 9.10337 111.603 8.91745 111.655 6.8349C111.707 4.75236 106.659 5.0279 104.478 5.04328C102.297 5.05866 103.138 6.836 102.951 8.85036C102.764 10.8647 103.311 10.8121 105.553 11.0586C107.727 11.3035 106.965 11.8071 107.206 13.0498C107.447 14.2925 110.857 14.1749 110.857 14.1749C110.857 14.1749 111.877 14.2633 114.941 14.3332ZM140.004 3.90008C140.004 3.90008 138.043 3.33441 136.987 4.67778C135.931 6.02116 137.017 6.17617 134.632 6.18689C132.247 6.1976 132.38 6.33087 131.801 7.68512C131.222 9.03937 130.032 10.3146 128.329 10.2757C126.627 10.2369 123.918 9.58905 124.159 10.8318C124.399 12.1396 126.63 15.5115 127.786 15.6029C128.942 15.6944 138.706 14.8753 139.634 18.6081C140.561 22.406 138.769 28.6164 140.582 29.6996C142.394 30.7828 141.546 32.0007 140.925 32.3121C140.304 32.6235 139.368 31.8859 139.321 33.7732C139.273 35.6605 139.907 34.8285 140.958 36.4152C142.008 38.002 142.567 37.4287 142.508 39.7716C142.449 42.1144 142.154 43.0193 143.986 43.3216C145.818 43.6238 147.348 45.0913 147.599 45.9436C147.851 46.7958 149.709 46.0568 150.212 45.0264C150.714 43.996 156.551 36.7709 158.257 36.6796C159.963 36.5882 162.886 36.8503 162.99 35.4201C163.094 33.9899 162.193 31.8856 164.306 31.8686C166.418 31.8517 170.434 32.0084 172.252 30.1615C174.07 28.3146 177.798 26.381 174.407 25.7827C172.847 25.4866 171.45 24.1524 172.306 22.6091C172.379 22.4155 174.758 22.6651 175.1 22.6077C175.92 22.4962 177.016 22.2607 177.512 21.4907C178.296 20.1411 179.079 18.7915 179.931 17.4435C180.708 16.3542 183.22 14.0022 180.169 13.4116C179.22 13.1946 178.77 12.1425 180.159 11.0672C180.159 11.0672 182.312 6.75346 184.355 6.80006C184.968 6.81403 190.762 6.68573 189.968 5.75598C189.438 5.15784 189.438 5.15784 185.359 4.80433C184.816 4.72683 184.487 4.2635 184.015 4.05739C183.339 3.84662 182.452 3.89151 181.771 3.87598C178.089 3.98735 179.313 4.08038 177.778 2.80815C176.243 1.53591 174.745 1.50174 168.138 1.41616C161.463 1.32903 158.96 0.62077 157.291 1.95017C155.623 3.27956 156.351 4.14268 152.878 4.06347C149.405 3.98426 140.004 3.90008 140.004 3.90008ZM174.757 38.9443C174.752 39.1395 174.745 39.3998 174.74 39.5951C174.727 40.1157 174.703 41.0919 175.452 41.109C176.541 41.1339 177.632 41.0936 178.724 41.0534C179.27 41.0007 179.876 41.275 180.293 40.959C181.263 40.3299 181.693 39.4932 182.991 39.3275C183.538 39.2748 185.029 39.5693 185.117 38.7899C185.125 38.4645 184.798 35.2012 184.264 34.7983C182.926 33.791 179.474 35.6007 177.159 35.5479C176.342 35.5292 175.531 35.2503 174.642 35.3602C173.89 35.4733 174.141 36.3256 174.264 36.8493C174.585 37.638 174.707 38.2269 174.757 38.9443ZM192.068 54.9672C192.068 54.9672 189.297 56.7924 189.19 58.3528C189.084 59.848 188.537 62.6356 190.473 61.5077C192.477 60.3813 193.973 57.8107 193.973 57.8107C193.973 57.8107 194.58 52.6152 192.068 54.9672ZM196.371 54.5444C196.694 55.2681 196.809 56.1172 196.993 56.9028C197.298 58.3424 196.381 59.5587 195.538 60.5813C194.766 61.4753 193.715 62.6235 195.054 63.5657C196.863 64.779 199.385 62.0365 201.117 60.9039C202.502 60.0239 201.862 58.3813 201.071 57.3214C200.086 55.8664 198.891 54.6019 198.319 52.9609C197.814 51.3866 196.684 50.2538 195.695 48.9289C194.969 48.0007 193.938 48.3679 193.487 50.0507C193.108 51.5398 194.178 52.3456 195.112 53.1483C195.647 53.5512 196.112 54.0176 196.371 54.5444ZM219.463 57.4805C216.932 57.8786 215.557 58.3681 213.12 57.7265C211.767 57.37 212.47 53.8046 211.046 53.5117C210.573 53.3707 209.835 52.898 209.483 53.3458C209.272 53.6015 209.391 54.3205 209.382 54.6459C209.434 55.2982 209.802 56.9345 208.777 57.0414C207.41 57.2056 208.044 56.3735 207.159 59.0882C206.273 61.8029 203.315 62.9076 202.349 63.4065C201.382 63.9053 199.851 65.1728 197.536 65.12C195.222 65.0021 194.864 65.7102 196.671 66.9886C198.077 67.9974 198.245 69.4339 198.342 70.9989C198.342 70.9989 198.342 70.9989 198.34 71.064C198.392 71.7163 198.675 74.0019 197.649 74.1738C196.418 74.3411 192.337 74.0526 190.635 74.0138C188.933 73.975 189.55 76.5286 189.442 78.089C189.335 79.6494 189.73 80.1793 190.272 80.3219C190.812 80.5296 192.091 81.1448 192.736 82.5921C193.381 84.0394 195.646 83.3747 197.958 83.5577C200.27 83.7407 199.927 81.1282 200.292 80.1597C200.657 79.1913 199.854 78.5869 202.171 78.5747C204.42 78.5608 205.273 77.1477 205.587 75.527C205.901 73.8411 207.565 75.4418 209.846 74.1264C212.128 72.811 215.567 76.9267 217.105 78.0688C217.841 78.6065 219.778 80.1484 219.632 80.5357C219.133 81.436 215.552 80.2473 216.594 82.1595C217.958 84.7953 219.486 83.658 221.662 81.103C223.905 78.6146 218.922 76.2869 217.986 75.5493C217.053 74.7466 214.774 73.262 216.455 71.412C218.135 69.6271 221.837 74.1395 221.837 74.1395C223.507 75.4799 225.94 78.9866 226.685 81.8687C227.5 84.6873 227.834 84.9554 230.484 85.2112C233.135 85.467 231.176 82.1014 230.8 80.7905C230.354 79.5431 230.363 79.2177 232.063 79.3216C233.764 79.4255 234.569 82.6346 235.493 83.8278C236.417 85.021 239.732 85.9431 241.107 85.4535C242.55 84.9655 242.972 84.4542 244.567 86.0534C246.162 87.6525 242.32 91.4068 241.157 91.5757C239.995 91.7445 237.851 92.9979 235.162 91.5691C232.474 90.0753 231.991 90.3247 228.94 89.7342C225.888 89.1436 226.327 90.6514 225.534 92.3914C224.741 94.1315 223.276 92.7957 222.614 91.9992C221.953 91.2027 216.367 88.4706 214.36 86.9923C212.353 85.514 212.73 84.09 212.017 82.6411C211.303 81.1923 208.887 82.4395 208.467 82.8858C208.047 83.332 206.071 83.352 204.232 83.3101C202.394 83.2682 201.721 82.9272 200.597 84.2691C199.473 85.6109 199.561 84.8315 197.485 86.0865C195.41 87.3415 193.378 86.8393 190.372 87.1615C187.366 87.4836 188.114 92.9705 188.089 93.9467C188.065 94.9229 187.56 96.0184 186.341 95.7301C185.122 95.4418 182.864 101.251 181.403 102.455C179.941 103.659 180.664 107.452 180.699 108.755C180.734 110.058 179.55 111.073 178.795 111.316C178.039 111.56 178.883 115.942 178.31 117.036C177.738 118.129 181.669 118.935 181.669 118.935C181.998 119.399 184.565 120.304 186.206 122.751C188.242 125.792 190.29 125.644 190.29 125.644C190.29 125.644 204.251 125.897 207.451 125.97C208.813 126.001 210.096 126.486 210.955 127.548C211.745 128.608 212.52 130.318 211.74 131.538C211.029 132.694 210.637 134.768 211.63 135.898C212.16 136.496 213.036 136.907 213.705 137.378C215.853 138.664 216.466 144.083 216.396 146.881C216.35 148.703 216.098 150.586 215.507 152.396C215.356 152.979 215.137 153.56 214.716 154.071C214.151 154.839 213.936 155.29 213.981 156.203C213.945 157.635 213.633 159.191 215.253 159.813C216.264 160.227 217.717 164.753 217.717 164.753C217.717 164.753 221.466 175.518 221.952 177.873C222.438 180.229 223.599 180.125 224.348 180.142C225.097 180.159 225.911 180.308 226.14 179.336C226.367 178.43 227.247 178.645 227.247 178.645C227.247 178.645 228.061 178.794 231.605 178.745C235.218 178.697 237.941 173.354 238.848 172.529C239.754 171.703 239.829 171.444 239.803 169.75C239.711 167.99 240.055 167.868 241.829 167.778C243.671 167.69 243.434 166.252 243.588 162.869C243.741 159.487 245.538 158.486 248.046 156.264C250.555 154.042 249.084 144.827 248.973 141.113C248.862 137.398 251.425 135.699 251.425 135.699C251.425 135.699 260.096 124.175 263.24 121.056C266.385 117.937 261.394 118.605 261.394 118.605C261.394 118.605 256.829 118.631 254.724 118.323C252.618 118.079 250.478 113.798 249.484 112.668C248.491 111.538 246.156 109.532 245.805 107.245C245.454 104.958 244.621 102.855 244.621 102.855C244.428 102.395 242.302 100.262 242.091 97.7831C241.618 92.2373 243.689 96.5823 243.689 96.5823C243.689 96.5823 244.468 98.0978 247.345 100.182C250.221 102.331 251.674 109.592 253.033 112.424C254.393 115.255 254.189 115.25 258.681 115.417C263.172 115.65 269.46 109.477 271.328 108.348C273.196 107.218 272.62 105.707 271.911 104.128C271.201 102.549 269.627 102.839 266.645 102.185C263.662 101.596 262.729 98.0585 260.046 96.3693C257.363 94.6802 259.88 94.8678 261.781 95.1066C263.683 95.3453 263.863 96.3262 264.788 97.4543C265.712 98.6474 267.194 99.3324 270.197 99.1404C273.198 99.0135 275.145 100.165 275.804 101.026C276.464 101.888 278.489 102.651 278.489 102.651C278.489 102.651 283.596 102.767 284.192 103.432C284.789 104.097 284.404 105.846 287.733 106.247C291.061 106.649 292.537 112.999 292.537 112.999C292.537 112.999 293.287 121.091 295.568 122.51C299.995 125.281 299.061 116.339 299.308 114.651C299.555 112.964 304.66 110.475 306.45 109.735C307.207 109.427 307.567 108.653 307.655 107.874C307.736 107.355 307.357 106.174 307.776 105.793C308.123 105.54 309.483 105.637 309.89 105.711C310.772 105.861 312.422 105.248 312.785 107.079C313.148 108.911 315.542 111.245 315.542 111.245C316.273 111.978 317.216 112.39 318.233 112.608C319.115 112.759 320.214 112.393 321.02 112.867C322.161 113.544 321.356 115.74 321.264 116.715C321.238 117.756 320.939 118.791 321.047 119.9C321.154 121.075 321.878 122.068 322.121 123.246C322.306 124.032 322.424 124.751 322.473 125.533C322.473 125.533 325.084 132.755 329.052 132.13C331.719 131.735 327.197 127.334 325.271 125.336C323.345 123.339 323.258 121.383 324.194 119.386C325.13 117.389 326.769 119.966 329.653 121.79C332.537 123.614 331.395 122.937 333.851 120.127C336.305 117.383 334.279 113.951 333.548 113.218C332.817 112.485 329.783 108.509 333.491 107.356C337.131 106.202 340.679 106.022 342.66 105.807C344.641 105.592 344.488 103.57 347.868 99.2189C351.247 94.8681 348.256 89.1998 346.951 86.8909C345.579 84.5805 345.336 83.4029 347.436 81.1717C349.536 78.9405 351.408 83.0856 351.408 83.0856C351.408 83.0856 353.367 86.4512 356.009 89.7673C358.651 93.0834 359.375 88.672 359.878 87.6416C360.382 86.5461 358.646 85.1391 357.663 83.6189C356.679 82.0988 357.895 79.7823 358.189 78.9425C358.483 78.1027 363.511 75.9383 365.092 75.3883C366.673 74.8383 368.371 72.3375 369.191 66.8212C370.011 61.305 371.221 67.3884 371.221 67.3884C371.221 67.3884 371.112 79.8233 370.987 82.0996C370.862 84.3758 370.973 85.3551 368.001 87.0455C365.029 88.7358 364.698 88.3376 363.124 88.6273C361.549 88.9169 360.991 89.4251 360.765 93.0014C360.539 96.5777 362.427 94.6672 362.652 93.8259C362.878 92.9845 363.621 90.527 365.591 90.7673C367.561 91.0076 370.747 88.9314 372.618 87.6717C374.49 86.4121 373.761 82.8791 373.744 80.8601C373.726 78.8411 373.507 79.4221 375.349 79.3339C377.191 79.2457 376.513 79.1 376.827 77.4792C377.14 75.8584 376.328 75.6446 374.627 75.5406C372.926 75.4367 373.306 73.8826 373.306 73.8826C373.306 73.8826 373.848 65.8856 373.487 63.9889C373.124 62.1574 370.81 59.3697 365.83 59.5817C360.851 59.7937 368.574 53.4581 371.016 51.1696C373.39 48.8796 375.666 50.4943 375.666 50.4943C375.666 50.4943 378.425 51.8596 382.287 52.7291C386.149 53.5985 384.384 50.628 384.91 48.6865C385.435 46.745 387.118 47.5648 390.266 49.7203C393.414 51.8759 387.325 55.5789 386.547 56.7332C385.768 57.8876 387.462 60.9867 389.35 64.481C391.238 67.9752 391.004 63.7373 391.31 62.3768C391.549 61.0148 391.444 59.7752 392.9 58.7665C394.356 57.7579 393.585 55.917 393.656 53.1186C393.726 50.3202 395.759 50.7572 398.959 50.8302C402.158 50.9683 402.595 49.8713 403.355 49.4328C404.116 48.9943 403.733 47.9437 408.515 47.4667C413.294 47.0548 403.646 35.1788 402.85 34.3141C402.054 33.4495 388.077 33.8469 384.675 33.6391C381.274 33.4313 381.462 31.3519 380.801 30.5554C380.14 29.7589 372.429 30.2342 371 30.1365C369.572 30.0388 368.146 27.1411 366.923 26.983C365.701 26.8249 365.195 27.9854 363.943 28.9988C362.691 30.0121 362.753 27.539 362.643 26.4947C362.533 25.4503 361.792 25.1078 360.44 24.6863C359.088 24.2647 359.001 27.7139 358.904 28.8838C358.806 30.0537 347.853 29.4132 345.743 29.2999C343.634 29.1867 343.009 26.9585 342.659 24.6063C342.31 22.2541 340.068 24.6774 340.068 24.6774L334.887 24.8197C334.887 24.8197 326.177 24.3606 323.854 24.6332C321.598 24.9073 323.921 21.9649 325.181 20.6262C326.443 19.2224 320.843 17.0109 320.177 16.4097C319.511 15.8084 314.93 16.4202 313.985 16.0731C313.108 15.7275 312.463 14.2802 312.179 14.7296C311.896 15.1789 311.521 16.5378 310.481 17.2304C309.442 17.923 308.495 17.6409 307.128 17.8051C305.761 17.9693 306.564 18.5736 301.94 18.2077C297.314 17.9068 297.036 20.8308 295.565 22.4251C294.026 24.018 291.578 23.8319 290.419 23.8706C289.258 23.9743 289.611 26.1963 289.032 27.5506C288.453 28.9048 286.352 25.7313 285.545 25.3222C284.739 24.848 284.948 27.3923 284.948 27.3923C284.948 27.3923 284.69 34.94 284.329 35.7132C283.969 36.4864 281.546 29.9194 281.583 28.4226C281.689 26.9273 280.477 23.6438 280.219 23.0519C280.028 22.5266 279.326 23.3571 278.411 24.5083C277.497 25.6596 277.982 28.0149 277.737 29.6372C277.492 31.2595 276.56 30.3917 273.904 30.3312C271.248 30.2706 270.751 31.1058 269.636 32.0571C268.522 33.0085 264.511 32.6565 262.196 32.6037C259.881 32.5509 258.692 33.761 256.55 34.9494C254.408 36.1377 255.002 34.1978 253.684 32.4095C252.3 30.5547 251.748 33.5375 250.966 34.822C250.184 36.1065 246.322 32.5672 244.453 31.0269C242.584 29.4866 241.398 30.5665 240.377 30.5432C239.355 30.5199 238.188 30.884 237.141 29.1671C236.094 27.4501 233.229 27.5802 230.189 26.5341C227.15 25.488 226.142 27.6139 222.846 28.6457C219.55 29.6775 218.687 31.4811 218.687 31.4811C218.687 31.4811 218.687 31.4811 218.438 33.2336C218.19 34.986 215.893 36.8872 214.421 38.5466C212.948 40.2061 210.221 40.2741 208.703 41.0209C207.186 41.7677 208.091 46.4117 208.111 48.3005C208.134 50.1243 211.299 48.8941 213.342 48.9407C215.316 48.9858 214.186 50.5879 213.894 51.3627C213.743 51.9453 212.725 51.7918 212.511 52.1776C212.441 52.2412 212.438 52.3713 212.501 52.5681C212.757 53.2251 213.493 53.7628 213.885 54.423C215.128 56.4699 216.137 54.279 216.137 54.279C216.137 54.279 218.174 51.851 220.01 49.2882C221.633 47.0461 218.818 45.2237 220.574 43.1149C222.05 41.3253 223.861 39.7387 225.665 38.4775C228.786 36.2696 229.228 37.6472 230.081 38.9689C230.933 40.2907 225.576 41.9918 223.995 45.2767C222.413 48.5616 227.576 46.4654 226.074 49.2963C223.048 55.8041 222.2 57.022 219.463 57.4805ZM263.35 27.3555C264.285 28.0932 265.29 28.7672 266.365 29.3778C266.701 29.5808 268.244 30.5277 267.862 29.4771C267.607 28.755 267.013 28.0251 266.551 27.4285C265.627 26.2354 265.783 25.4575 265.822 23.8956C265.861 22.3337 269.163 21.1066 269.163 21.1066C280.533 16.0264 269.97 18.7809 268.331 18.9388C266.762 19.0333 265.191 19.1928 264.367 19.4345C263.543 19.6761 261.652 21.7167 260.723 23.4537C260.437 23.9681 260.557 24.622 260.748 25.1473C260.943 25.5425 261.207 25.8741 261.609 26.1437C262.212 26.5482 262.883 26.9542 263.35 27.3555ZM254.95 155.379C254.049 156.01 254.202 158.032 254.047 161.48C254.023 162.456 255.143 169.384 256.906 167.015C256.907 166.95 259.233 163.877 259.345 162.122C259.459 160.301 261.071 158.514 261.715 157.292C262.359 156.069 262.06 154.435 260.833 151.737C259.606 149.039 257.995 153.495 257.995 153.495C257.569 154.202 255.852 154.749 254.95 155.379ZM324.563 137.237C325.49 138.3 326.415 139.428 327.343 140.491C327.806 141.022 328.27 141.554 328.733 142.085C329.265 142.618 329.933 143.155 330.189 143.812C330.445 144.469 330.354 145.378 330.885 145.911C331.351 146.378 332.1 146.395 332.714 146.344C335.371 146.339 338.024 146.53 340.748 146.592C356.41 146.949 344.587 145.638 343.91 145.492C343.232 145.346 341.794 145.639 340.523 144.698C339.252 143.758 333.389 143.885 333.389 143.885C333.389 143.885 331.345 143.903 331.658 142.282C331.971 140.661 331.151 140.773 328.667 136.614C326.182 132.455 326.246 135.322 322.26 131.258C318.275 127.195 320.693 131.288 321.47 132.868C322.248 134.449 324.036 136.508 324.036 136.508C324.166 136.772 324.363 137.037 324.563 137.237ZM346.925 139.375C346.631 140.214 346.612 140.995 347.625 141.344C349.519 141.908 349.193 141.315 351.129 140.187C351.474 139.999 352.511 139.437 352.454 138.98C352.396 138.588 351.51 138.568 351.175 138.365C350.841 138.097 350.509 137.763 350.1 137.754C349.557 137.677 349.012 137.664 348.466 137.717C347.783 137.766 347.438 137.954 347.22 138.47C347.078 138.727 347.001 139.051 346.925 139.375ZM340.884 138.455C341.497 138.469 342.178 138.485 342.798 138.239C343.347 138.056 343.699 137.608 344.116 137.292C344.88 136.723 345.032 136.076 345.185 135.428C345.638 133.68 345.549 131.79 345.593 130.033C345.672 126.909 345.18 127.484 344.668 126.17C344.414 125.447 342.077 126.241 341.106 126.935C340.135 127.629 340.648 128.878 340.557 129.787C340.528 130.959 339.297 131.126 338.465 131.693C337.426 132.386 336.453 133.145 335.48 133.904C334.23 134.852 335.361 135.92 335.88 136.974C336.009 137.237 336.205 137.567 336.473 137.769C336.94 138.17 337.551 138.249 338.094 138.327C338.162 138.328 338.162 138.328 338.23 138.33C339.114 138.415 339.999 138.435 340.884 138.455ZM352.21 124.323C352.662 125.31 353.318 126.302 353.908 127.227C354.235 127.755 354.963 128.618 355.657 128.113C356.559 127.483 356.382 126.372 356.404 125.526C356.453 123.573 356.729 120.714 355.946 119.329C355.095 117.942 353.481 117.124 352.492 115.799C351.7 114.804 351.015 114.919 350.086 111.251C349.088 107.582 349.314 112.145 349.052 114.418C348.79 116.691 350.924 118.563 350.924 118.563C352.447 120.291 351.373 122.35 352.21 124.323ZM368.439 142.731C369.255 142.814 369.997 143.092 370.526 143.755C371.187 144.551 371.368 145.467 371.892 146.326C372.217 146.919 372.742 147.712 373.633 147.537C374.456 147.296 375.293 146.533 375.953 147.395C376.877 148.588 377.366 148.078 377.366 148.078C377.644 147.889 379.786 146.701 380.788 147.505C386.596 152.261 384.163 148.754 382.711 146.898C381.258 145.042 377.512 142.286 375.851 140.62C374.189 138.955 370.68 140.307 368.78 140.003C366.88 139.7 367.534 138.087 366.54 136.957C365.547 135.827 361.432 136.906 360.49 136.428C359.548 135.951 359.076 135.745 359.107 134.508C359.112 134.313 358.745 132.677 358.253 133.252C358.042 133.507 358.161 134.226 358.152 134.552C358.139 135.072 358.126 135.593 358.181 136.115C358.354 137.356 359.389 136.859 361.067 137.874C362.746 138.824 363.318 140.465 363.624 141.839C363.869 142.952 365.3 142.919 366.393 142.814C367.076 142.765 367.758 142.715 368.439 142.731ZM376.483 191.296C376.144 191.223 375.465 191.142 375.319 191.53C375.173 191.917 375.911 192.39 375.902 192.715C375.889 193.236 375.712 194.86 377.343 195.027C378.906 195.193 379.201 194.288 379.58 192.799C379.654 192.54 379.661 192.28 379.531 192.017C379.335 191.687 378.86 191.611 378.52 191.603C378.181 191.53 377.84 191.522 377.433 191.448C377.094 191.375 376.822 191.369 376.483 191.296ZM358.901 153.518C357.058 153.671 355.328 154.739 353.74 155.549C352.706 156.046 351.6 156.672 351.095 157.768C350.664 158.669 350.693 160.233 350.532 161.206C350.298 162.373 347.124 161.258 345.893 161.426C344.663 161.593 345.042 162.774 344.623 163.155C344.137 163.535 342.446 163.04 341.009 163.268C339.299 163.554 340.044 166.437 339.88 167.54C339.716 168.643 339.279 169.74 338.979 170.84C338.382 172.91 339.681 172.745 340.757 173.29C341.834 173.836 340.737 176.806 340.9 178.438C341.067 179.939 343.074 181.417 344.354 181.968C345.23 182.378 346.324 182.208 347.277 182.23C348.367 182.255 349.455 182.344 350.483 182.107C351.511 181.87 352.279 181.107 353.179 180.541C354.566 179.596 356.075 179.174 357.775 179.343C359.542 179.514 361.239 179.748 363.008 179.854C363.961 179.875 365.604 179.587 365.847 180.765C366.03 181.616 365.871 182.524 366.054 183.374C366.416 185.206 367.727 184.584 369.293 184.62C370.859 184.656 370.898 185.829 371.278 186.945C371.912 188.847 373.345 188.75 375.115 188.79C376.341 188.818 377.567 188.846 378.794 188.809C380.91 188.662 382.255 186.674 382.255 186.674C382.255 186.674 385.161 182.182 386.569 180.391C387.977 178.6 388.625 174.512 388.705 171.323C388.785 168.134 384.268 163.538 384.268 163.538C384.268 163.538 378.256 156.043 377.194 154.912C376.133 153.781 376.848 152.429 376.471 151.184C376.161 149.939 375.089 151.933 373.923 152.232C372.758 152.531 373.259 156.971 373.243 157.622C373.226 158.272 371.8 158.11 371.073 157.181C370.347 156.253 369.866 156.438 368.791 155.827C367.716 155.216 367.063 154.095 366.971 152.334C366.947 150.576 365.026 151.118 362.848 151.003C360.671 150.888 361.54 151.559 361.103 152.656C360.813 153.366 359.994 153.412 359.312 153.462C359.107 153.457 358.97 153.519 358.901 153.518ZM404.758 196.759L404.688 196.823C403.918 197.652 401.598 200.464 402.955 200.69C404.244 200.915 405.861 201.668 406.699 200.841C407.541 199.883 407.288 199.096 409.762 198.241C410.999 197.813 412.111 194.257 412.111 194.257C412.111 194.257 411.735 192.946 410.938 192.147C410.271 191.546 408.581 193.721 407.954 194.293C406.91 195.181 405.666 195.869 404.758 196.759ZM415.888 190.371C416.399 189.016 417.401 189.82 417.425 188.844C417.45 187.867 414.498 186.042 413.498 185.173C411.496 183.499 413.316 186.992 412.816 187.892C412.177 188.919 412.109 188.918 412.555 190.165C412.683 190.494 412.984 192.063 413.321 192.201C415.279 192.897 415.375 191.792 415.888 190.371Z"/>
</mask>
<path d="M74.7028 15.8899C73.8307 15.349 72.9569 14.8733 71.9404 14.6547C70.5834 14.4284 69.0139 14.5229 67.7365 13.8426C66.8627 13.3668 65.1512 10.9836 67.3253 11.2285C68.8202 11.3928 71.7499 11.3946 72.7991 10.3115C75.4572 7.57209 78.7613 14.3545 81.7074 13.7054C83.2834 13.3507 83.6731 11.406 85.2844 12.3544C86.2911 12.9634 87.3577 13.8994 88.0838 14.8276C89.1406 16.154 88.3735 16.8528 86.8008 17.0774C85.3659 17.2401 83.9391 17.0773 82.4411 17.0431C81.0791 17.0121 79.714 17.1111 78.3488 17.2102C76.9836 17.3093 75.844 16.5671 74.7028 15.8899ZM90.5808 7.65657C90.5808 7.65657 91.2545 10.6673 92.3342 11.0826C93.3458 11.4964 93.8775 12.0295 94.5928 10.6783C95.3065 9.39228 93.7551 8.77084 92.6237 7.70317C91.4923 6.63549 89.7176 4.05545 90.5808 7.65657ZM85.1677 25.1147C83.2159 24.1585 84.2003 22.9438 83.5734 20.7806C82.9465 18.6175 81.4625 20.7325 79.4369 22.7049C77.4114 24.6773 75.53 20.9227 74.5332 19.9232C73.5363 18.9238 74.4945 18.7503 69.2627 18.1751C64.1006 17.5364 64.5124 17.4156 62.1333 19.9009C59.7542 22.3862 64.0606 21.8332 67.0486 22.227C70.0365 22.6207 70.0621 24.3143 69.7455 26.0653C69.4289 27.8162 63.9345 26.8444 58.774 26.1406C53.6135 25.4369 54.0623 26.5541 51.3788 27.5999C48.6952 28.6456 43.1851 25.5897 40.8879 24.821C38.5907 24.0523 22.7697 24.6031 20.4545 24.5503C18.1393 24.4975 16.8029 26.1601 15.0127 26.9006C13.2226 27.6412 13.8947 30.717 13.7906 32.1472C13.6864 33.5774 10.3144 32.1982 8.54397 32.1578C6.7735 32.1174 7.2256 33.1045 7.05829 34.3379C6.89099 35.5713 7.63675 35.7185 9.75098 35.6365C11.8652 35.5545 12.7422 35.9001 12.7759 37.2683C12.8096 38.6366 10.0358 37.857 8.33339 37.8182C6.63102 37.7794 7.2399 40.6584 7.51978 43.0741C7.79966 45.4898 9.44377 45.1366 10.3807 45.8092C11.3177 46.4817 12.6566 47.4239 4.53954 50.4946C-3.57756 53.5653 4.2213 52.3106 5.5963 51.821C6.97131 51.3315 13.0079 49.711 14.7784 49.7514C16.5488 49.7917 19.3218 47.9015 21.6148 46.1305C23.9078 44.3595 30.9002 45.3655 35.9376 45.5456C40.975 45.7256 45.0678 56.3679 47.4783 58.0508C49.8887 59.7337 49.8287 72.9511 49.6623 76.8543C49.4959 80.7575 52.425 83.4941 53.7558 84.7617C55.0865 86.0293 58.2447 93.1991 61.8022 98.0338C65.3582 102.934 63.8081 96.8423 62.7874 94.0841C61.7683 91.2608 63.8154 93.8471 63.8154 93.8471C63.8154 93.8471 70.1723 101.155 71.3826 104.503C72.5929 107.852 78.1063 110.778 81.8449 111.124C85.5836 111.469 85.4909 112.444 85.4909 112.444C85.4909 112.444 85.2523 113.806 89.7334 114.429C94.1465 115.051 93.3139 118.353 95.1197 119.696C96.9256 121.04 99.7511 122.472 102.271 122.529C104.79 122.587 103.912 122.306 104.342 124.139C104.773 125.972 102.94 128.405 101.614 129.677C100.287 130.949 100.076 133.94 99.9873 137.454C99.8989 140.968 101.311 141.717 101.311 141.717C101.311 141.717 108.769 153.999 110.58 155.147C112.391 156.295 112.059 158.632 112.059 158.632C112.059 158.632 111.61 176.464 111.508 177.829C111.405 179.194 111.269 179.191 110.003 180.79C108.736 182.389 108.85 185.973 108.85 185.973C108.85 185.973 108.248 201.783 108.218 202.954C108.189 204.126 110.058 205.666 116.174 208.996C122.291 212.326 117.916 207.473 117.263 206.351C116.61 205.229 117.158 202.377 117.213 200.229C117.267 198.081 119.201 197.018 119.983 195.734C120.765 194.449 120.108 193.458 120.166 191.18C120.223 188.902 122.908 187.791 122.908 187.791C122.908 187.791 137.838 173.936 139.028 172.661C140.218 171.386 140.486 168.852 140.386 167.418C140.286 165.983 144.885 161.92 147.449 160.22C150.013 158.521 152.112 153.62 152.276 152.517C152.44 151.413 152.572 148.877 154.305 147.679C156.039 146.481 156.038 143.812 156.789 141.029C157.541 138.246 152.101 137.796 148.884 135.704C145.666 133.612 140.505 132.908 140.097 132.899C139.688 132.89 137.366 133.097 137.543 131.473C137.721 129.849 136.361 127.018 135.578 125.633C134.796 124.248 133.5 124.283 131.934 124.248C130.368 124.212 125.708 119.873 123.697 118.525C121.687 117.177 117.507 118.123 114.802 117.345C112.096 116.567 113.458 116.598 111.023 115.891C108.588 115.185 107.348 118.412 106.182 118.711C105.016 119.01 101.275 118.795 99.9175 118.568C98.5605 118.342 97.5964 116.041 97.3084 113.951C97.0203 111.86 96.2942 110.932 94.4802 109.914C92.6662 108.896 92.4495 106.677 92.6931 105.12C92.9367 103.563 91.7823 103.406 90.4221 103.31C89.0618 103.214 89.1168 103.736 88.7485 104.834C88.3802 105.933 87.2775 106.429 84.3609 105.907C81.4459 105.319 80.3037 101.972 80.0304 99.296C79.7571 96.62 79.8629 95.1247 81.8088 93.6063C83.7548 92.0879 84.2783 92.9463 86.856 93.3958C89.4338 93.8453 91.2387 92.519 92.9837 90.8658C94.7286 89.2126 96.6994 92.1227 96.6994 92.1227C96.6994 92.1227 96.6994 92.1227 99.3865 96.3514C102.074 100.58 101.84 96.3423 101.26 92.2918C100.681 88.2413 114.01 75.7173 116.03 73.9401C118.051 72.1629 117.827 72.9392 121.238 72.7566C124.649 72.5739 126.027 69.2843 128.036 67.9627C130.045 66.6411 125.481 66.6021 123.464 65.5142C121.448 64.4264 124.859 64.2437 126.099 63.6859C127.34 63.1282 129.936 62.8618 133.336 63.1347C136.735 63.4076 128.58 51.761 127.183 50.4268C125.785 49.0926 126.243 47.1495 125.61 45.2466C124.976 43.3438 122.582 46.4148 120.829 48.3935C119.076 50.3721 119.195 48.3562 119.498 47.1259C119.802 45.8956 118.473 44.5629 117.902 42.8569C117.332 41.1508 112.961 41.5721 111.397 41.4713C109.832 41.3705 110.101 41.5068 109.561 44.0341C109.02 46.5613 109.728 48.2054 110.146 50.5591C110.564 52.9129 107.759 56.0396 106.152 57.6309C104.545 59.2222 104.186 57.2605 104.159 55.6319C104.131 54.0034 103.308 54.245 101.408 53.9412C99.5075 53.6374 99.373 53.5693 98.6665 51.8601C97.9601 50.1509 95.4766 48.6617 93.0965 48.4772C90.7165 48.2927 91.5654 44.3399 91.6777 42.5843C91.7917 40.7636 95.3343 40.7793 96.5001 40.4803C97.6659 40.1813 99.602 39.0534 101.456 41.1794C103.312 43.2404 105.201 41.2648 105.201 41.2648C105.201 41.2648 108.184 39.184 108.216 37.8824C108.249 36.5808 107.626 36.9573 105.788 36.9154C103.949 36.8734 103.677 36.8672 103.715 35.3704C103.752 33.8736 103.756 33.7434 107.026 33.7529C110.296 33.7624 108.87 30.8647 110.471 29.5337C112.071 28.2028 113.543 29.2782 113.2 32.0704C112.857 34.8626 116.316 32.7927 118.205 33.552C120.093 34.3114 119.185 35.2023 117.543 35.4905C115.9 35.7786 116.977 36.3241 117.411 38.027C117.845 39.7299 117.652 39.2697 122.817 39.7783C127.983 40.2868 123.621 37.6477 123.293 37.1193C122.966 36.5909 121.432 35.2536 126.124 35.6211C130.816 35.9886 127.98 32.2773 127.98 32.2773C127.98 32.2773 124.847 26.8011 121.137 25.3491C117.426 23.897 118.446 23.9853 116.53 21.5974C114.614 19.2095 107.028 20.1435 104.784 19.9621C102.54 19.7806 102.64 21.2155 101.448 22.5558C100.324 23.8976 103.014 25.3264 103.176 29.6929C103.339 34.0595 100.439 30.1514 100.439 30.1514C100.439 30.1514 98.8525 28.2269 98.146 26.5177C97.4395 24.8086 97.1901 23.8912 98.3107 22.6796C99.4314 21.4679 99.9424 20.1121 97.7641 17.3275C95.5857 14.5429 93.7734 13.4597 92.8233 13.3078C91.8732 13.1559 92.0998 14.9843 92.1967 16.5493C92.2935 18.1144 93.2534 17.8758 94.3881 18.8133C95.4547 19.7493 94.9355 21.4305 94.6189 23.1814C94.3023 24.9323 94.2653 23.6943 92.63 20.9872C90.9948 18.2801 89.8693 19.687 88.3253 21.475C86.7814 23.2631 90.8392 24.4627 90.8935 27.7197C90.9478 30.9768 89.1083 28.2651 89.1083 28.2651C89.1083 28.2651 87.1195 26.0709 85.1677 25.1147ZM21.6208 86.5032C21.6208 86.5032 22.9403 93.631 24.8552 93.3491C28.6849 92.7853 25.8838 90.3772 22.6422 86.5265C22.3796 86.1298 21.2531 84.8669 21.6208 86.5032ZM103.003 104.248C103.409 104.387 103.815 104.462 104.151 104.665C104.688 105.003 105.081 105.598 105.689 105.807C106.498 106.151 108.152 105.407 108.974 105.231C112.467 104.529 103.278 101.454 101.654 101.026C100.029 100.599 99.5606 100.262 95.8441 101.74C92.1277 103.219 98.9339 103.504 98.9339 103.504C100.359 103.732 101.718 103.893 103.003 104.248ZM111.194 106.388C111.184 106.779 111.174 107.169 111.24 107.236C111.563 107.96 112.523 107.721 113.204 107.736C113.817 107.75 117.635 107.642 115.881 106.951C114.801 106.536 113.661 105.793 112.446 105.375C110.69 104.749 111.213 105.607 111.194 106.388ZM97.9484 12.7084C98.4654 13.8272 99.2874 13.6506 99.9602 13.9915C100.633 14.3324 100.818 15.118 100.974 17.01C101.131 18.902 107.414 18.329 111.706 18.3618C115.997 18.3945 113.259 16.1832 107.808 16.1891C105.423 16.1999 105.161 15.8032 104.511 14.5511C103.861 13.2991 102.773 13.2091 101.222 12.5877C99.6705 11.9663 99.8263 11.1884 98.3659 9.65741C96.3738 7.59335 97.3634 11.5881 97.3634 11.5881C97.3634 11.5881 97.4315 11.5896 97.9484 12.7084ZM114.941 14.3332C118.005 14.4031 120.023 10.0212 120.178 9.30839C120.332 8.59562 122.201 7.40104 124.653 7.45696C127.104 7.51287 128.398 7.54238 129.519 6.33072C130.639 5.11906 129.467 5.67837 133.029 4.9131C136.592 4.14783 136.55 3.105 136.514 1.80185C136.479 0.498705 130.757 0.433319 129.19 0.462676C127.622 0.492033 127.735 1.40625 126.006 2.4087C124.278 3.41115 114.02 2.20042 110.753 2.06079C110.413 2.05303 110.072 2.04526 109.796 2.16921C110.19 2.76424 111.617 2.92702 112.223 3.20132C113.1 3.54691 113.561 4.20857 114.298 4.68122C115.037 5.08878 115.921 5.17405 116.737 5.25777C125.295 6.2995 118.672 6.86472 117.989 6.91427C117.307 6.96382 116.227 6.54849 115.98 8.2359C115.733 9.92331 113.508 9.02602 112.348 9.0647C111.189 9.10337 111.603 8.91745 111.655 6.8349C111.707 4.75236 106.659 5.0279 104.478 5.04328C102.297 5.05866 103.138 6.836 102.951 8.85036C102.764 10.8647 103.311 10.8121 105.553 11.0586C107.727 11.3035 106.965 11.8071 107.206 13.0498C107.447 14.2925 110.857 14.1749 110.857 14.1749C110.857 14.1749 111.877 14.2633 114.941 14.3332ZM140.004 3.90008C140.004 3.90008 138.043 3.33441 136.987 4.67778C135.931 6.02116 137.017 6.17617 134.632 6.18689C132.247 6.1976 132.38 6.33087 131.801 7.68512C131.222 9.03937 130.032 10.3146 128.329 10.2757C126.627 10.2369 123.918 9.58905 124.159 10.8318C124.399 12.1396 126.63 15.5115 127.786 15.6029C128.942 15.6944 138.706 14.8753 139.634 18.6081C140.561 22.406 138.769 28.6164 140.582 29.6996C142.394 30.7828 141.546 32.0007 140.925 32.3121C140.304 32.6235 139.368 31.8859 139.321 33.7732C139.273 35.6605 139.907 34.8285 140.958 36.4152C142.008 38.002 142.567 37.4287 142.508 39.7716C142.449 42.1144 142.154 43.0193 143.986 43.3216C145.818 43.6238 147.348 45.0913 147.599 45.9436C147.851 46.7958 149.709 46.0568 150.212 45.0264C150.714 43.996 156.551 36.7709 158.257 36.6796C159.963 36.5882 162.886 36.8503 162.99 35.4201C163.094 33.9899 162.193 31.8856 164.306 31.8686C166.418 31.8517 170.434 32.0084 172.252 30.1615C174.07 28.3146 177.798 26.381 174.407 25.7827C172.847 25.4866 171.45 24.1524 172.306 22.6091C172.379 22.4155 174.758 22.6651 175.1 22.6077C175.92 22.4962 177.016 22.2607 177.512 21.4907C178.296 20.1411 179.079 18.7915 179.931 17.4435C180.708 16.3542 183.22 14.0022 180.169 13.4116C179.22 13.1946 178.77 12.1425 180.159 11.0672C180.159 11.0672 182.312 6.75346 184.355 6.80006C184.968 6.81403 190.762 6.68573 189.968 5.75598C189.438 5.15784 189.438 5.15784 185.359 4.80433C184.816 4.72683 184.487 4.2635 184.015 4.05739C183.339 3.84662 182.452 3.89151 181.771 3.87598C178.089 3.98735 179.313 4.08038 177.778 2.80815C176.243 1.53591 174.745 1.50174 168.138 1.41616C161.463 1.32903 158.96 0.62077 157.291 1.95017C155.623 3.27956 156.351 4.14268 152.878 4.06347C149.405 3.98426 140.004 3.90008 140.004 3.90008ZM174.757 38.9443C174.752 39.1395 174.745 39.3998 174.74 39.5951C174.727 40.1157 174.703 41.0919 175.452 41.109C176.541 41.1339 177.632 41.0936 178.724 41.0534C179.27 41.0007 179.876 41.275 180.293 40.959C181.263 40.3299 181.693 39.4932 182.991 39.3275C183.538 39.2748 185.029 39.5693 185.117 38.7899C185.125 38.4645 184.798 35.2012 184.264 34.7983C182.926 33.791 179.474 35.6007 177.159 35.5479C176.342 35.5292 175.531 35.2503 174.642 35.3602C173.89 35.4733 174.141 36.3256 174.264 36.8493C174.585 37.638 174.707 38.2269 174.757 38.9443ZM192.068 54.9672C192.068 54.9672 189.297 56.7924 189.19 58.3528C189.084 59.848 188.537 62.6356 190.473 61.5077C192.477 60.3813 193.973 57.8107 193.973 57.8107C193.973 57.8107 194.58 52.6152 192.068 54.9672ZM196.371 54.5444C196.694 55.2681 196.809 56.1172 196.993 56.9028C197.298 58.3424 196.381 59.5587 195.538 60.5813C194.766 61.4753 193.715 62.6235 195.054 63.5657C196.863 64.779 199.385 62.0365 201.117 60.9039C202.502 60.0239 201.862 58.3813 201.071 57.3214C200.086 55.8664 198.891 54.6019 198.319 52.9609C197.814 51.3866 196.684 50.2538 195.695 48.9289C194.969 48.0007 193.938 48.3679 193.487 50.0507C193.108 51.5398 194.178 52.3456 195.112 53.1483C195.647 53.5512 196.112 54.0176 196.371 54.5444ZM219.463 57.4805C216.932 57.8786 215.557 58.3681 213.12 57.7265C211.767 57.37 212.47 53.8046 211.046 53.5117C210.573 53.3707 209.835 52.898 209.483 53.3458C209.272 53.6015 209.391 54.3205 209.382 54.6459C209.434 55.2982 209.802 56.9345 208.777 57.0414C207.41 57.2056 208.044 56.3735 207.159 59.0882C206.273 61.8029 203.315 62.9076 202.349 63.4065C201.382 63.9053 199.851 65.1728 197.536 65.12C195.222 65.0021 194.864 65.7102 196.671 66.9886C198.077 67.9974 198.245 69.4339 198.342 70.9989C198.342 70.9989 198.342 70.9989 198.34 71.064C198.392 71.7163 198.675 74.0019 197.649 74.1738C196.418 74.3411 192.337 74.0526 190.635 74.0138C188.933 73.975 189.55 76.5286 189.442 78.089C189.335 79.6494 189.73 80.1793 190.272 80.3219C190.812 80.5296 192.091 81.1448 192.736 82.5921C193.381 84.0394 195.646 83.3747 197.958 83.5577C200.27 83.7407 199.927 81.1282 200.292 80.1597C200.657 79.1913 199.854 78.5869 202.171 78.5747C204.42 78.5608 205.273 77.1477 205.587 75.527C205.901 73.8411 207.565 75.4418 209.846 74.1264C212.128 72.811 215.567 76.9267 217.105 78.0688C217.841 78.6065 219.778 80.1484 219.632 80.5357C219.133 81.436 215.552 80.2473 216.594 82.1595C217.958 84.7953 219.486 83.658 221.662 81.103C223.905 78.6146 218.922 76.2869 217.986 75.5493C217.053 74.7466 214.774 73.262 216.455 71.412C218.135 69.6271 221.837 74.1395 221.837 74.1395C223.507 75.4799 225.94 78.9866 226.685 81.8687C227.5 84.6873 227.834 84.9554 230.484 85.2112C233.135 85.467 231.176 82.1014 230.8 80.7905C230.354 79.5431 230.363 79.2177 232.063 79.3216C233.764 79.4255 234.569 82.6346 235.493 83.8278C236.417 85.021 239.732 85.9431 241.107 85.4535C242.55 84.9655 242.972 84.4542 244.567 86.0534C246.162 87.6525 242.32 91.4068 241.157 91.5757C239.995 91.7445 237.851 92.9979 235.162 91.5691C232.474 90.0753 231.991 90.3247 228.94 89.7342C225.888 89.1436 226.327 90.6514 225.534 92.3914C224.741 94.1315 223.276 92.7957 222.614 91.9992C221.953 91.2027 216.367 88.4706 214.36 86.9923C212.353 85.514 212.73 84.09 212.017 82.6411C211.303 81.1923 208.887 82.4395 208.467 82.8858C208.047 83.332 206.071 83.352 204.232 83.3101C202.394 83.2682 201.721 82.9272 200.597 84.2691C199.473 85.6109 199.561 84.8315 197.485 86.0865C195.41 87.3415 193.378 86.8393 190.372 87.1615C187.366 87.4836 188.114 92.9705 188.089 93.9467C188.065 94.9229 187.56 96.0184 186.341 95.7301C185.122 95.4418 182.864 101.251 181.403 102.455C179.941 103.659 180.664 107.452 180.699 108.755C180.734 110.058 179.55 111.073 178.795 111.316C178.039 111.56 178.883 115.942 178.31 117.036C177.738 118.129 181.669 118.935 181.669 118.935C181.998 119.399 184.565 120.304 186.206 122.751C188.242 125.792 190.29 125.644 190.29 125.644C190.29 125.644 204.251 125.897 207.451 125.97C208.813 126.001 210.096 126.486 210.955 127.548C211.745 128.608 212.52 130.318 211.74 131.538C211.029 132.694 210.637 134.768 211.63 135.898C212.16 136.496 213.036 136.907 213.705 137.378C215.853 138.664 216.466 144.083 216.396 146.881C216.35 148.703 216.098 150.586 215.507 152.396C215.356 152.979 215.137 153.56 214.716 154.071C214.151 154.839 213.936 155.29 213.981 156.203C213.945 157.635 213.633 159.191 215.253 159.813C216.264 160.227 217.717 164.753 217.717 164.753C217.717 164.753 221.466 175.518 221.952 177.873C222.438 180.229 223.599 180.125 224.348 180.142C225.097 180.159 225.911 180.308 226.14 179.336C226.367 178.43 227.247 178.645 227.247 178.645C227.247 178.645 228.061 178.794 231.605 178.745C235.218 178.697 237.941 173.354 238.848 172.529C239.754 171.703 239.829 171.444 239.803 169.75C239.711 167.99 240.055 167.868 241.829 167.778C243.671 167.69 243.434 166.252 243.588 162.869C243.741 159.487 245.538 158.486 248.046 156.264C250.555 154.042 249.084 144.827 248.973 141.113C248.862 137.398 251.425 135.699 251.425 135.699C251.425 135.699 260.096 124.175 263.24 121.056C266.385 117.937 261.394 118.605 261.394 118.605C261.394 118.605 256.829 118.631 254.724 118.323C252.618 118.079 250.478 113.798 249.484 112.668C248.491 111.538 246.156 109.532 245.805 107.245C245.454 104.958 244.621 102.855 244.621 102.855C244.428 102.395 242.302 100.262 242.091 97.7831C241.618 92.2373 243.689 96.5823 243.689 96.5823C243.689 96.5823 244.468 98.0978 247.345 100.182C250.221 102.331 251.674 109.592 253.033 112.424C254.393 115.255 254.189 115.25 258.681 115.417C263.172 115.65 269.46 109.477 271.328 108.348C273.196 107.218 272.62 105.707 271.911 104.128C271.201 102.549 269.627 102.839 266.645 102.185C263.662 101.596 262.729 98.0585 260.046 96.3693C257.363 94.6802 259.88 94.8678 261.781 95.1066C263.683 95.3453 263.863 96.3262 264.788 97.4543C265.712 98.6474 267.194 99.3324 270.197 99.1404C273.198 99.0135 275.145 100.165 275.804 101.026C276.464 101.888 278.489 102.651 278.489 102.651C278.489 102.651 283.596 102.767 284.192 103.432C284.789 104.097 284.404 105.846 287.733 106.247C291.061 106.649 292.537 112.999 292.537 112.999C292.537 112.999 293.287 121.091 295.568 122.51C299.995 125.281 299.061 116.339 299.308 114.651C299.555 112.964 304.66 110.475 306.45 109.735C307.207 109.427 307.567 108.653 307.655 107.874C307.736 107.355 307.357 106.174 307.776 105.793C308.123 105.54 309.483 105.637 309.89 105.711C310.772 105.861 312.422 105.248 312.785 107.079C313.148 108.911 315.542 111.245 315.542 111.245C316.273 111.978 317.216 112.39 318.233 112.608C319.115 112.759 320.214 112.393 321.02 112.867C322.161 113.544 321.356 115.74 321.264 116.715C321.238 117.756 320.939 118.791 321.047 119.9C321.154 121.075 321.878 122.068 322.121 123.246C322.306 124.032 322.424 124.751 322.473 125.533C322.473 125.533 325.084 132.755 329.052 132.13C331.719 131.735 327.197 127.334 325.271 125.336C323.345 123.339 323.258 121.383 324.194 119.386C325.13 117.389 326.769 119.966 329.653 121.79C332.537 123.614 331.395 122.937 333.851 120.127C336.305 117.383 334.279 113.951 333.548 113.218C332.817 112.485 329.783 108.509 333.491 107.356C337.131 106.202 340.679 106.022 342.66 105.807C344.641 105.592 344.488 103.57 347.868 99.2189C351.247 94.8681 348.256 89.1998 346.951 86.8909C345.579 84.5805 345.336 83.4029 347.436 81.1717C349.536 78.9405 351.408 83.0856 351.408 83.0856C351.408 83.0856 353.367 86.4512 356.009 89.7673C358.651 93.0834 359.375 88.672 359.878 87.6416C360.382 86.5461 358.646 85.1391 357.663 83.6189C356.679 82.0988 357.895 79.7823 358.189 78.9425C358.483 78.1027 363.511 75.9383 365.092 75.3883C366.673 74.8383 368.371 72.3375 369.191 66.8212C370.011 61.305 371.221 67.3884 371.221 67.3884C371.221 67.3884 371.112 79.8233 370.987 82.0996C370.862 84.3758 370.973 85.3551 368.001 87.0455C365.029 88.7358 364.698 88.3376 363.124 88.6273C361.549 88.9169 360.991 89.4251 360.765 93.0014C360.539 96.5777 362.427 94.6672 362.652 93.8259C362.878 92.9845 363.621 90.527 365.591 90.7673C367.561 91.0076 370.747 88.9314 372.618 87.6717C374.49 86.4121 373.761 82.8791 373.744 80.8601C373.726 78.8411 373.507 79.4221 375.349 79.3339C377.191 79.2457 376.513 79.1 376.827 77.4792C377.14 75.8584 376.328 75.6446 374.627 75.5406C372.926 75.4367 373.306 73.8826 373.306 73.8826C373.306 73.8826 373.848 65.8856 373.487 63.9889C373.124 62.1574 370.81 59.3697 365.83 59.5817C360.851 59.7937 368.574 53.4581 371.016 51.1696C373.39 48.8796 375.666 50.4943 375.666 50.4943C375.666 50.4943 378.425 51.8596 382.287 52.7291C386.149 53.5985 384.384 50.628 384.91 48.6865C385.435 46.745 387.118 47.5648 390.266 49.7203C393.414 51.8759 387.325 55.5789 386.547 56.7332C385.768 57.8876 387.462 60.9867 389.35 64.481C391.238 67.9752 391.004 63.7373 391.31 62.3768C391.549 61.0148 391.444 59.7752 392.9 58.7665C394.356 57.7579 393.585 55.917 393.656 53.1186C393.726 50.3202 395.759 50.7572 398.959 50.8302C402.158 50.9683 402.595 49.8713 403.355 49.4328C404.116 48.9943 403.733 47.9437 408.515 47.4667C413.294 47.0548 403.646 35.1788 402.85 34.3141C402.054 33.4495 388.077 33.8469 384.675 33.6391C381.274 33.4313 381.462 31.3519 380.801 30.5554C380.14 29.7589 372.429 30.2342 371 30.1365C369.572 30.0388 368.146 27.1411 366.923 26.983C365.701 26.8249 365.195 27.9854 363.943 28.9988C362.691 30.0121 362.753 27.539 362.643 26.4947C362.533 25.4503 361.792 25.1078 360.44 24.6863C359.088 24.2647 359.001 27.7139 358.904 28.8838C358.806 30.0537 347.853 29.4132 345.743 29.2999C343.634 29.1867 343.009 26.9585 342.659 24.6063C342.31 22.2541 340.068 24.6774 340.068 24.6774L334.887 24.8197C334.887 24.8197 326.177 24.3606 323.854 24.6332C321.598 24.9073 323.921 21.9649 325.181 20.6262C326.443 19.2224 320.843 17.0109 320.177 16.4097C319.511 15.8084 314.93 16.4202 313.985 16.0731C313.108 15.7275 312.463 14.2802 312.179 14.7296C311.896 15.1789 311.521 16.5378 310.481 17.2304C309.442 17.923 308.495 17.6409 307.128 17.8051C305.761 17.9693 306.564 18.5736 301.94 18.2077C297.314 17.9068 297.036 20.8308 295.565 22.4251C294.026 24.018 291.578 23.8319 290.419 23.8706C289.258 23.9743 289.611 26.1963 289.032 27.5506C288.453 28.9048 286.352 25.7313 285.545 25.3222C284.739 24.848 284.948 27.3923 284.948 27.3923C284.948 27.3923 284.69 34.94 284.329 35.7132C283.969 36.4864 281.546 29.9194 281.583 28.4226C281.689 26.9273 280.477 23.6438 280.219 23.0519C280.028 22.5266 279.326 23.3571 278.411 24.5083C277.497 25.6596 277.982 28.0149 277.737 29.6372C277.492 31.2595 276.56 30.3917 273.904 30.3312C271.248 30.2706 270.751 31.1058 269.636 32.0571C268.522 33.0085 264.511 32.6565 262.196 32.6037C259.881 32.5509 258.692 33.761 256.55 34.9494C254.408 36.1377 255.002 34.1978 253.684 32.4095C252.3 30.5547 251.748 33.5375 250.966 34.822C250.184 36.1065 246.322 32.5672 244.453 31.0269C242.584 29.4866 241.398 30.5665 240.377 30.5432C239.355 30.5199 238.188 30.884 237.141 29.1671C236.094 27.4501 233.229 27.5802 230.189 26.5341C227.15 25.488 226.142 27.6139 222.846 28.6457C219.55 29.6775 218.687 31.4811 218.687 31.4811C218.687 31.4811 218.687 31.4811 218.438 33.2336C218.19 34.986 215.893 36.8872 214.421 38.5466C212.948 40.2061 210.221 40.2741 208.703 41.0209C207.186 41.7677 208.091 46.4117 208.111 48.3005C208.134 50.1243 211.299 48.8941 213.342 48.9407C215.316 48.9858 214.186 50.5879 213.894 51.3627C213.743 51.9453 212.725 51.7918 212.511 52.1776C212.441 52.2412 212.438 52.3713 212.501 52.5681C212.757 53.2251 213.493 53.7628 213.885 54.423C215.128 56.4699 216.137 54.279 216.137 54.279C216.137 54.279 218.174 51.851 220.01 49.2882C221.633 47.0461 218.818 45.2237 220.574 43.1149C222.05 41.3253 223.861 39.7387 225.665 38.4775C228.786 36.2696 229.228 37.6472 230.081 38.9689C230.933 40.2907 225.576 41.9918 223.995 45.2767C222.413 48.5616 227.576 46.4654 226.074 49.2963C223.048 55.8041 222.2 57.022 219.463 57.4805ZM263.35 27.3555C264.285 28.0932 265.29 28.7672 266.365 29.3778C266.701 29.5808 268.244 30.5277 267.862 29.4771C267.607 28.755 267.013 28.0251 266.551 27.4285C265.627 26.2354 265.783 25.4575 265.822 23.8956C265.861 22.3337 269.163 21.1066 269.163 21.1066C280.533 16.0264 269.97 18.7809 268.331 18.9388C266.762 19.0333 265.191 19.1928 264.367 19.4345C263.543 19.6761 261.652 21.7167 260.723 23.4537C260.437 23.9681 260.557 24.622 260.748 25.1473C260.943 25.5425 261.207 25.8741 261.609 26.1437C262.212 26.5482 262.883 26.9542 263.35 27.3555ZM254.95 155.379C254.049 156.01 254.202 158.032 254.047 161.48C254.023 162.456 255.143 169.384 256.906 167.015C256.907 166.95 259.233 163.877 259.345 162.122C259.459 160.301 261.071 158.514 261.715 157.292C262.359 156.069 262.06 154.435 260.833 151.737C259.606 149.039 257.995 153.495 257.995 153.495C257.569 154.202 255.852 154.749 254.95 155.379ZM324.563 137.237C325.49 138.3 326.415 139.428 327.343 140.491C327.806 141.022 328.27 141.554 328.733 142.085C329.265 142.618 329.933 143.155 330.189 143.812C330.445 144.469 330.354 145.378 330.885 145.911C331.351 146.378 332.1 146.395 332.714 146.344C335.371 146.339 338.024 146.53 340.748 146.592C356.41 146.949 344.587 145.638 343.91 145.492C343.232 145.346 341.794 145.639 340.523 144.698C339.252 143.758 333.389 143.885 333.389 143.885C333.389 143.885 331.345 143.903 331.658 142.282C331.971 140.661 331.151 140.773 328.667 136.614C326.182 132.455 326.246 135.322 322.26 131.258C318.275 127.195 320.693 131.288 321.47 132.868C322.248 134.449 324.036 136.508 324.036 136.508C324.166 136.772 324.363 137.037 324.563 137.237ZM346.925 139.375C346.631 140.214 346.612 140.995 347.625 141.344C349.519 141.908 349.193 141.315 351.129 140.187C351.474 139.999 352.511 139.437 352.454 138.98C352.396 138.588 351.51 138.568 351.175 138.365C350.841 138.097 350.509 137.763 350.1 137.754C349.557 137.677 349.012 137.664 348.466 137.717C347.783 137.766 347.438 137.954 347.22 138.47C347.078 138.727 347.001 139.051 346.925 139.375ZM340.884 138.455C341.497 138.469 342.178 138.485 342.798 138.239C343.347 138.056 343.699 137.608 344.116 137.292C344.88 136.723 345.032 136.076 345.185 135.428C345.638 133.68 345.549 131.79 345.593 130.033C345.672 126.909 345.18 127.484 344.668 126.17C344.414 125.447 342.077 126.241 341.106 126.935C340.135 127.629 340.648 128.878 340.557 129.787C340.528 130.959 339.297 131.126 338.465 131.693C337.426 132.386 336.453 133.145 335.48 133.904C334.23 134.852 335.361 135.92 335.88 136.974C336.009 137.237 336.205 137.567 336.473 137.769C336.94 138.17 337.551 138.249 338.094 138.327C338.162 138.328 338.162 138.328 338.23 138.33C339.114 138.415 339.999 138.435 340.884 138.455ZM352.21 124.323C352.662 125.31 353.318 126.302 353.908 127.227C354.235 127.755 354.963 128.618 355.657 128.113C356.559 127.483 356.382 126.372 356.404 125.526C356.453 123.573 356.729 120.714 355.946 119.329C355.095 117.942 353.481 117.124 352.492 115.799C351.7 114.804 351.015 114.919 350.086 111.251C349.088 107.582 349.314 112.145 349.052 114.418C348.79 116.691 350.924 118.563 350.924 118.563C352.447 120.291 351.373 122.35 352.21 124.323ZM368.439 142.731C369.255 142.814 369.997 143.092 370.526 143.755C371.187 144.551 371.368 145.467 371.892 146.326C372.217 146.919 372.742 147.712 373.633 147.537C374.456 147.296 375.293 146.533 375.953 147.395C376.877 148.588 377.366 148.078 377.366 148.078C377.644 147.889 379.786 146.701 380.788 147.505C386.596 152.261 384.163 148.754 382.711 146.898C381.258 145.042 377.512 142.286 375.851 140.62C374.189 138.955 370.68 140.307 368.78 140.003C366.88 139.7 367.534 138.087 366.54 136.957C365.547 135.827 361.432 136.906 360.49 136.428C359.548 135.951 359.076 135.745 359.107 134.508C359.112 134.313 358.745 132.677 358.253 133.252C358.042 133.507 358.161 134.226 358.152 134.552C358.139 135.072 358.126 135.593 358.181 136.115C358.354 137.356 359.389 136.859 361.067 137.874C362.746 138.824 363.318 140.465 363.624 141.839C363.869 142.952 365.3 142.919 366.393 142.814C367.076 142.765 367.758 142.715 368.439 142.731ZM376.483 191.296C376.144 191.223 375.465 191.142 375.319 191.53C375.173 191.917 375.911 192.39 375.902 192.715C375.889 193.236 375.712 194.86 377.343 195.027C378.906 195.193 379.201 194.288 379.58 192.799C379.654 192.54 379.661 192.28 379.531 192.017C379.335 191.687 378.86 191.611 378.52 191.603C378.181 191.53 377.84 191.522 377.433 191.448C377.094 191.375 376.822 191.369 376.483 191.296ZM358.901 153.518C357.058 153.671 355.328 154.739 353.74 155.549C352.706 156.046 351.6 156.672 351.095 157.768C350.664 158.669 350.693 160.233 350.532 161.206C350.298 162.373 347.124 161.258 345.893 161.426C344.663 161.593 345.042 162.774 344.623 163.155C344.137 163.535 342.446 163.04 341.009 163.268C339.299 163.554 340.044 166.437 339.88 167.54C339.716 168.643 339.279 169.74 338.979 170.84C338.382 172.91 339.681 172.745 340.757 173.29C341.834 173.836 340.737 176.806 340.9 178.438C341.067 179.939 343.074 181.417 344.354 181.968C345.23 182.378 346.324 182.208 347.277 182.23C348.367 182.255 349.455 182.344 350.483 182.107C351.511 181.87 352.279 181.107 353.179 180.541C354.566 179.596 356.075 179.174 357.775 179.343C359.542 179.514 361.239 179.748 363.008 179.854C363.961 179.875 365.604 179.587 365.847 180.765C366.03 181.616 365.871 182.524 366.054 183.374C366.416 185.206 367.727 184.584 369.293 184.62C370.859 184.656 370.898 185.829 371.278 186.945C371.912 188.847 373.345 188.75 375.115 188.79C376.341 188.818 377.567 188.846 378.794 188.809C380.91 188.662 382.255 186.674 382.255 186.674C382.255 186.674 385.161 182.182 386.569 180.391C387.977 178.6 388.625 174.512 388.705 171.323C388.785 168.134 384.268 163.538 384.268 163.538C384.268 163.538 378.256 156.043 377.194 154.912C376.133 153.781 376.848 152.429 376.471 151.184C376.161 149.939 375.089 151.933 373.923 152.232C372.758 152.531 373.259 156.971 373.243 157.622C373.226 158.272 371.8 158.11 371.073 157.181C370.347 156.253 369.866 156.438 368.791 155.827C367.716 155.216 367.063 154.095 366.971 152.334C366.947 150.576 365.026 151.118 362.848 151.003C360.671 150.888 361.54 151.559 361.103 152.656C360.813 153.366 359.994 153.412 359.312 153.462C359.107 153.457 358.97 153.519 358.901 153.518ZM404.758 196.759L404.688 196.823C403.918 197.652 401.598 200.464 402.955 200.69C404.244 200.915 405.861 201.668 406.699 200.841C407.541 199.883 407.288 199.096 409.762 198.241C410.999 197.813 412.111 194.257 412.111 194.257C412.111 194.257 411.735 192.946 410.938 192.147C410.271 191.546 408.581 193.721 407.954 194.293C406.91 195.181 405.666 195.869 404.758 196.759ZM415.888 190.371C416.399 189.016 417.401 189.82 417.425 188.844C417.45 187.867 414.498 186.042 413.498 185.173C411.496 183.499 413.316 186.992 412.816 187.892C412.177 188.919 412.109 188.918 412.555 190.165C412.683 190.494 412.984 192.063 413.321 192.201C415.279 192.897 415.375 191.792 415.888 190.371Z" stroke="#475566" stroke-opacity="0.3" stroke-width="2" mask="url(#path-1-inside-1_405_9667)"/>
</svg>
