<svg width="46" height="64" viewBox="0 0 46 64" fill="none" xmlns="http://www.w3.org/2000/svg">
<g id="Frame" clip-path="url(#clip0_405_7734)">
<path id="Vector" opacity="0.08" d="M46.0003 4.14164V40.8694C46.0003 41.8071 45.3091 42.5104 44.3876 42.5104H9.59964V42.3541H9.52284C8.60131 42.3541 7.91016 41.6508 7.91016 40.7131V4.06349C7.91016 3.12576 8.60131 2.42247 9.52284 2.42247H14.5145V0.703297C14.5145 0.312576 14.8985 0 15.2056 0C15.5896 0 15.8968 0.39072 15.8968 0.703297V2.57875H38.1672V0.703297C38.1672 0.312576 38.5512 0 38.8584 0C39.2424 0 39.5495 0.39072 39.5495 0.703297V2.57875H44.5412C45.3091 2.50061 46.0003 3.20391 46.0003 4.14164Z" fill="#BCC9DA"/>
<path id="Vector_2" d="M1.68948 64.0001V63.8438H1.4591C0.614357 63.8438 0 63.1405 0 62.359V25.5532C0 24.6936 0.691152 24.0684 1.4591 24.0684H6.60434V22.2711C6.60434 22.0367 6.91152 21.7241 7.1419 21.7241C7.37229 21.7241 7.67947 22.0367 7.67947 22.2711V24.3029H30.2571V22.2711C30.2571 22.0367 30.5643 21.7241 30.7947 21.7241C31.025 21.7241 31.3322 22.0367 31.3322 22.2711V24.3029H36.4775C37.3222 24.3029 37.9366 25.0062 37.9366 25.7876V62.5153C37.9366 63.3749 37.2454 64.0001 36.4775 64.0001H1.68948ZM0.99833 62.359C0.99833 62.6716 1.22871 62.9061 1.53589 62.9061H36.3239C36.6311 62.9061 36.8614 62.6716 36.8614 62.359V32.508H0.99833V62.359ZM1.3823 25.1625C1.07513 25.1625 0.921536 25.3187 0.921536 25.475V31.414H36.7846V25.5532C36.7846 25.2406 36.7846 25.2406 36.4775 25.2406H31.3322V26.5691C31.3322 26.8035 31.025 27.1161 30.7947 27.1161C30.5643 27.1161 30.1803 26.8816 30.1803 26.5691V25.0843H7.60267V26.4128C7.60267 26.6472 7.29549 26.9598 7.06511 26.9598C6.83472 26.9598 6.52755 26.6472 6.52755 26.4128V25.0843H1.3823V25.1625Z" fill="#F3F3F3"/>
<path id="Vector_3" d="M14.5909 57.6702L22.9616 40.5567V39.7752H13.1318V38.5249H24.7278V39.8534L16.2036 57.6702H14.5909Z" fill="#9FCCFF"/>
</g>
<defs>
<clipPath id="clip0_405_7734">
<rect width="46" height="64" fill="white"/>
</clipPath>
</defs>
</svg>
