<svg width="361" height="156" viewBox="0 0 361 156" fill="none" xmlns="http://www.w3.org/2000/svg">
<rect opacity="0.36" x="75" width="1" height="49.9246" fill="#BCC9DA"/>
<path opacity="0.36" d="M73.93 68.7513L72.79 67.6413L71 67.6413L71 66.3413L78 66.3413L78 67.6413L74.41 67.6413L78 71.1013L78 72.5613L74.87 69.6213L71 72.7413L71 71.2213L73.93 68.7513ZM48.09 71.5913L47 71.5913L47 66.3413L54 66.3413L54 71.4513L52.91 71.4513L52.91 67.6413L51.09 67.6413L51.09 71.0213L50.02 71.0213L50.02 67.6413L48.09 67.6413L48.09 71.5913Z" fill="#BCC9DA"/>
<rect opacity="0.8" x="149" width="1" height="49.9246" fill="#BCC9DA"/>
<path opacity="0.8" d="M144.9 70.5796C144.9 69.8729 145.053 69.2329 145.36 68.6596C145.673 68.0929 146.103 67.6463 146.65 67.3196C147.197 66.9996 147.813 66.8396 148.5 66.8396C149.187 66.8396 149.803 67.0029 150.35 67.3296C150.897 67.6563 151.323 68.1029 151.63 68.6696C151.943 69.2429 152.1 69.8829 152.1 70.5896C152.1 71.1629 152 71.6863 151.8 72.1596C151.6 72.6329 151.31 73.0329 150.93 73.3596L150.14 72.5196C150.687 72.0129 150.96 71.3896 150.96 70.6496C150.96 70.1696 150.853 69.7396 150.64 69.3596C150.433 68.9796 150.143 68.6829 149.77 68.4696C149.397 68.2563 148.973 68.1496 148.5 68.1496C148.027 68.1496 147.603 68.2563 147.23 68.4696C146.857 68.6829 146.563 68.9796 146.35 69.3596C146.143 69.7396 146.04 70.1696 146.04 70.6496C146.04 71.3896 146.317 72.0129 146.87 72.5196L146.07 73.3596C145.69 73.0329 145.4 72.6296 145.2 72.1496C145 71.6763 144.9 71.1529 144.9 70.5796ZM144.9 77.7287C144.9 77.0154 145.053 76.3721 145.36 75.7987C145.673 75.2254 146.103 74.7754 146.65 74.4487C147.203 74.1221 147.82 73.9587 148.5 73.9587C149.18 73.9587 149.793 74.1221 150.34 74.4487C150.893 74.7754 151.323 75.2254 151.63 75.7987C151.943 76.3721 152.1 77.0154 152.1 77.7287C152.1 78.4421 151.943 79.0854 151.63 79.6587C151.323 80.2321 150.897 80.6821 150.35 81.0087C149.803 81.3354 149.187 81.4987 148.5 81.4987C147.813 81.4987 147.197 81.3354 146.65 81.0087C146.103 80.6821 145.673 80.2321 145.36 79.6587C145.053 79.0854 144.9 78.4421 144.9 77.7287ZM146.04 77.7287C146.04 78.1954 146.143 78.6154 146.35 78.9887C146.563 79.3621 146.857 79.6554 147.23 79.8687C147.61 80.0821 148.033 80.1887 148.5 80.1887C148.967 80.1887 149.387 80.0821 149.76 79.8687C150.14 79.6554 150.433 79.3621 150.64 78.9887C150.853 78.6154 150.96 78.1954 150.96 77.7287C150.96 77.2621 150.853 76.8421 150.64 76.4687C150.433 76.0954 150.14 75.8021 149.76 75.5887C149.387 75.3754 148.967 75.2687 148.5 75.2687C148.033 75.2687 147.61 75.3754 147.23 75.5887C146.857 75.8021 146.563 76.0954 146.35 76.4687C146.143 76.8421 146.04 77.2621 146.04 77.7287Z" fill="#BCC9DA"/>
<rect opacity="0.36" x="212" width="1" height="49.9246" fill="#BCC9DA"/>
<path opacity="0.36" d="M207.9 70.5796C207.9 69.8729 208.053 69.2329 208.36 68.6596C208.673 68.0929 209.103 67.6463 209.65 67.3196C210.197 66.9996 210.813 66.8396 211.5 66.8396C212.187 66.8396 212.803 67.0029 213.35 67.3296C213.897 67.6563 214.323 68.1029 214.63 68.6696C214.943 69.2429 215.1 69.8829 215.1 70.5896C215.1 71.1629 215 71.6863 214.8 72.1596C214.6 72.6329 214.31 73.0329 213.93 73.3596L213.14 72.5196C213.687 72.0129 213.96 71.3896 213.96 70.6496C213.96 70.1696 213.853 69.7396 213.64 69.3596C213.433 68.9796 213.143 68.6829 212.77 68.4696C212.397 68.2563 211.973 68.1496 211.5 68.1496C211.027 68.1496 210.603 68.2563 210.23 68.4696C209.857 68.6829 209.563 68.9796 209.35 69.3596C209.143 69.7396 209.04 70.1696 209.04 70.6496C209.04 71.3896 209.317 72.0129 209.87 72.5196L209.07 73.3596C208.69 73.0329 208.4 72.6296 208.2 72.1496C208 71.6763 207.9 71.1529 207.9 70.5796ZM215 74.6052L215 75.9052L209.1 75.9052L209.1 79.5652L208 79.5652L208 74.6052L215 74.6052Z" fill="#BCC9DA"/>
<rect opacity="0.36" x="275" width="1" height="49.9246" fill="#BCC9DA"/>
<path opacity="0.36" d="M278 73.5596L271 73.5596L271 72.2596L274 72.2596L274 68.6396L271 68.6396L271 67.3396L278 67.3396L278 68.6396L275.11 68.6396L275.11 72.2596L278 72.2596L278 73.5596ZM270.9 78.7053C270.9 77.992 271.053 77.3486 271.36 76.7753C271.673 76.202 272.103 75.752 272.65 75.4253C273.203 75.0986 273.82 74.9353 274.5 74.9353C275.18 74.9353 275.793 75.0986 276.34 75.4253C276.893 75.752 277.323 76.202 277.63 76.7753C277.943 77.3486 278.1 77.992 278.1 78.7053C278.1 79.4186 277.943 80.062 277.63 80.6353C277.323 81.2086 276.897 81.6586 276.35 81.9853C275.803 82.312 275.187 82.4753 274.5 82.4753C273.813 82.4753 273.197 82.312 272.65 81.9853C272.103 81.6586 271.673 81.2086 271.36 80.6353C271.053 80.062 270.9 79.4186 270.9 78.7053ZM272.04 78.7053C272.04 79.172 272.143 79.592 272.35 79.9653C272.563 80.3386 272.857 80.632 273.23 80.8453C273.61 81.0586 274.033 81.1653 274.5 81.1653C274.967 81.1653 275.387 81.0586 275.76 80.8453C276.14 80.632 276.433 80.3386 276.64 79.9653C276.853 79.592 276.96 79.172 276.96 78.7053C276.96 78.2386 276.853 77.8186 276.64 77.4453C276.433 77.072 276.14 76.7786 275.76 76.5653C275.387 76.352 274.967 76.2453 274.5 76.2453C274.033 76.2453 273.61 76.352 273.23 76.5653C272.857 76.7786 272.563 77.072 272.35 77.4453C272.143 77.8186 272.04 78.2386 272.04 78.7053ZM278 83.8533L278 85.1533L272.1 85.1533L272.1 88.8133L271 88.8133L271 83.8533L278 83.8533ZM278 89.8396L278 91.1396L272.1 91.1396L272.1 94.7996L271 94.7996L271 89.8396L278 89.8396Z" fill="#BCC9DA"/>
<rect opacity="0.36" x="349" width="1" height="49.9246" fill="#BCC9DA"/>
<path opacity="0.36" d="M352 67.3396L352 68.6396L345 68.6396L345 67.3396L352 67.3396ZM344.9 72.703C344.9 72.163 344.977 71.6396 345.13 71.133C345.283 70.633 345.487 70.2363 345.74 69.943L346.75 70.393C346.523 70.6796 346.337 71.0296 346.19 71.443C346.05 71.863 345.98 72.283 345.98 72.703C345.98 73.223 346.063 73.6096 346.23 73.863C346.397 74.123 346.617 74.253 346.89 74.253C347.09 74.253 347.253 74.1796 347.38 74.033C347.513 73.893 347.617 73.713 347.69 73.493C347.763 73.273 347.847 72.973 347.94 72.593C348.067 72.0596 348.193 71.6263 348.32 71.293C348.447 70.9663 348.643 70.683 348.91 70.443C349.183 70.2096 349.55 70.093 350.01 70.093C350.397 70.093 350.747 70.1963 351.06 70.403C351.38 70.6163 351.633 70.933 351.82 71.353C352.007 71.7796 352.1 72.2996 352.1 72.913C352.1 73.3396 352.047 73.7596 351.94 74.173C351.833 74.5863 351.68 74.943 351.48 75.243L350.47 74.833C350.65 74.5263 350.787 74.2063 350.88 73.873C350.973 73.5396 351.02 73.2163 351.02 72.903C351.02 72.3896 350.933 72.0063 350.76 71.753C350.587 71.5063 350.357 71.383 350.07 71.383C349.87 71.383 349.707 71.453 349.58 71.593C349.453 71.7396 349.353 71.923 349.28 72.143C349.207 72.363 349.123 72.663 349.03 73.043C348.91 73.563 348.783 73.9896 348.65 74.323C348.523 74.6563 348.327 74.9396 348.06 75.173C347.793 75.413 347.433 75.533 346.98 75.533C346.593 75.533 346.243 75.4263 345.93 75.213C345.617 75.0063 345.367 74.6896 345.18 74.263C344.993 73.8363 344.9 73.3163 344.9 72.703ZM345 81.402L347.05 79.972C347.043 79.912 347.04 79.822 347.04 79.702L347.04 78.122L345 78.122L345 76.822L352 76.822L352 79.702C352 80.3087 351.9 80.8354 351.7 81.282C351.5 81.7354 351.213 82.082 350.84 82.322C350.467 82.562 350.023 82.682 349.51 82.682C348.983 82.682 348.53 82.552 348.15 82.292C347.77 82.0387 347.487 81.672 347.3 81.192L345 82.802L345 81.402ZM349.51 81.372C349.957 81.372 350.3 81.2254 350.54 80.932C350.78 80.6387 350.9 80.2087 350.9 79.642L350.9 78.122L348.11 78.122L348.11 79.642C348.11 80.2087 348.23 80.6387 348.47 80.932C348.717 81.2254 349.063 81.372 349.51 81.372Z" fill="#BCC9DA"/>
<path d="M9.09 107.939L8 107.939L8 102.689L15 102.689L15 107.799L13.91 107.799L13.91 103.989L12.09 103.989L12.09 107.369L11.02 107.369L11.02 103.989L9.09 103.989L9.09 107.939ZM7.9 112.599C7.9 111.892 8.05333 111.252 8.36 110.679C8.67333 110.112 9.10333 109.665 9.65 109.339C10.1967 109.019 10.8133 108.859 11.5 108.859C12.1867 108.859 12.8033 109.022 13.35 109.349C13.8967 109.675 14.3233 110.122 14.63 110.689C14.9433 111.262 15.1 111.902 15.1 112.609C15.1 113.182 15 113.705 14.8 114.179C14.6 114.652 14.31 115.052 13.93 115.379L13.14 114.539C13.6867 114.032 13.96 113.409 13.96 112.669C13.96 112.189 13.8533 111.759 13.64 111.379C13.4333 110.999 13.1433 110.702 12.77 110.489C12.3967 110.275 11.9733 110.169 11.5 110.169C11.0267 110.169 10.6033 110.275 10.23 110.489C9.85667 110.702 9.56333 110.999 9.35 111.379C9.14333 111.759 9.04 112.189 9.04 112.669C9.04 113.409 9.31667 114.032 9.87 114.539L9.07 115.379C8.69 115.052 8.4 114.649 8.2 114.169C8 113.695 7.9 113.172 7.9 112.599ZM7.9 119.585C7.9 118.619 8.17 117.865 8.71 117.325C9.25667 116.785 10.0367 116.515 11.05 116.515L15 116.515L15 117.815L11.1 117.815C9.72667 117.815 9.04 118.409 9.04 119.595C9.04 120.775 9.72667 121.365 11.1 121.365L15 121.365L15 122.645L11.05 122.645C10.0367 122.645 9.25667 122.375 8.71 121.835C8.17 121.302 7.9 120.552 7.9 119.585ZM9.62 128.859L9.62 125.359L8 124.669L8 123.329L15 126.479L15 127.759L8 130.919L8 129.559L9.62 128.859ZM10.64 128.429L13.7 127.109L10.64 125.799L10.64 128.429ZM15 131.81L15 134.87C15 135.616 14.8533 136.28 14.56 136.86C14.2733 137.44 13.8633 137.89 13.33 138.21C12.8033 138.53 12.1933 138.69 11.5 138.69C10.8067 138.69 10.1933 138.53 9.66 138.21C9.13333 137.89 8.72333 137.44 8.43 136.86C8.14333 136.28 8 135.616 8 134.87L8 131.81L15 131.81ZM9.1 134.81C9.1 135.323 9.19667 135.773 9.39 136.16C9.59 136.553 9.87 136.853 10.23 137.06C10.5967 137.273 11.02 137.38 11.5 137.38C11.98 137.38 12.4 137.273 12.76 137.06C13.1267 136.853 13.4067 136.553 13.6 136.16C13.8 135.773 13.9 135.323 13.9 134.81L13.9 133.11L9.1 133.11L9.1 134.81ZM7.9 143.341C7.9 142.628 8.05333 141.985 8.36 141.411C8.67333 140.838 9.10333 140.388 9.65 140.061C10.2033 139.735 10.82 139.571 11.5 139.571C12.18 139.571 12.7933 139.735 13.34 140.061C13.8933 140.388 14.3233 140.838 14.63 141.411C14.9433 141.985 15.1 142.628 15.1 143.341C15.1 144.055 14.9433 144.698 14.63 145.271C14.3233 145.845 13.8967 146.295 13.35 146.621C12.8033 146.948 12.1867 147.111 11.5 147.111C10.8133 147.111 10.1967 146.948 9.65 146.621C9.10333 146.295 8.67333 145.845 8.36 145.271C8.05333 144.698 7.9 144.055 7.9 143.341ZM9.04 143.341C9.04 143.808 9.14333 144.228 9.35 144.601C9.56333 144.975 9.85666 145.268 10.23 145.481C10.61 145.695 11.0333 145.801 11.5 145.801C11.9667 145.801 12.3867 145.695 12.76 145.481C13.14 145.268 13.4333 144.975 13.64 144.601C13.8533 144.228 13.96 143.808 13.96 143.341C13.96 142.875 13.8533 142.455 13.64 142.081C13.4333 141.708 13.14 141.415 12.76 141.201C12.3867 140.988 11.9667 140.881 11.5 140.881C11.0333 140.881 10.61 140.988 10.23 141.201C9.85666 141.415 9.56333 141.708 9.35 142.081C9.14333 142.455 9.04 142.875 9.04 143.341ZM8 153.069L10.05 151.639C10.0433 151.579 10.04 151.489 10.04 151.369L10.04 149.789L8 149.789L8 148.489L15 148.489L15 151.369C15 151.976 14.9 152.503 14.7 152.949C14.5 153.403 14.2133 153.749 13.84 153.989C13.4667 154.229 13.0233 154.349 12.51 154.349C11.9833 154.349 11.53 154.219 11.15 153.959C10.77 153.706 10.4867 153.339 10.3 152.859L8 154.469L8 153.069ZM12.51 153.039C12.9567 153.039 13.3 152.893 13.54 152.599C13.78 152.306 13.9 151.876 13.9 151.309L13.9 149.789L11.11 149.789L11.11 151.309C11.11 151.876 11.23 152.306 11.47 152.599C11.7167 152.893 12.0633 153.039 12.51 153.039Z" fill="#227CE4"/>
<rect x="12" width="1" height="79.8793" fill="#227CE4"/>
</svg>
