<svg width="289" height="117" viewBox="0 0 289 117" fill="none" xmlns="http://www.w3.org/2000/svg">
<rect x="11" y="77" width="1" height="40" fill="#227CE4"/>
<path d="M14.692 56.9411L16 56.9411L16 63.2411L7.6 63.2411L7.6 57.1091L8.908 57.1091L8.908 61.6811L11.092 61.6811L11.092 57.6251L12.376 57.6251L12.376 61.6811L14.692 61.6811L14.692 56.9411ZM16.12 51.3492C16.12 52.1972 15.936 52.9652 15.568 53.6532C15.192 54.3332 14.676 54.8692 14.02 55.2612C13.364 55.6452 12.624 55.8372 11.8 55.8372C10.976 55.8372 10.236 55.6412 9.58 55.2492C8.924 54.8572 8.412 54.3212 8.044 53.6412C7.668 52.9532 7.48 52.1852 7.48 51.3372C7.48 50.6492 7.6 50.0212 7.84 49.4532C8.08 48.8852 8.428 48.4052 8.884 48.0132L9.832 49.0212C9.176 49.6292 8.848 50.3772 8.848 51.2652C8.848 51.8412 8.976 52.3572 9.232 52.8132C9.48 53.2692 9.828 53.6252 10.276 53.8812C10.724 54.1372 11.232 54.2652 11.8 54.2652C12.368 54.2652 12.876 54.1372 13.324 53.8812C13.772 53.6252 14.124 53.2692 14.38 52.8132C14.628 52.3572 14.752 51.8412 14.752 51.2652C14.752 50.3772 14.42 49.6292 13.756 49.0212L14.716 48.0132C15.172 48.4052 15.52 48.8892 15.76 49.4652C16 50.0332 16.12 50.6612 16.12 51.3492ZM16.12 42.9651C16.12 44.1251 15.796 45.0291 15.148 45.6771C14.492 46.3251 13.556 46.6491 12.34 46.6491L7.6 46.6491L7.6 45.0891L12.28 45.0891C13.928 45.0891 14.752 44.3771 14.752 42.9531C14.752 41.5371 13.928 40.8291 12.28 40.8291L7.6 40.8291L7.6 39.2931L12.34 39.2931C13.556 39.2931 14.492 39.6171 15.148 40.2651C15.796 40.9051 16.12 41.8051 16.12 42.9651ZM14.056 31.8361L14.056 36.0361L16 36.8641L16 38.4721L7.6 34.6921L7.6 33.1561L16 29.3641L16 30.9961L14.056 31.8361ZM12.832 32.3521L9.16 33.9361L12.832 35.5081L12.832 32.3521ZM7.6 28.2958L7.6 24.6238C7.6 23.7278 7.776 22.9318 8.128 22.2358C8.472 21.5398 8.964 20.9998 9.604 20.6158C10.236 20.2318 10.968 20.0398 11.8 20.0398C12.632 20.0398 13.368 20.2318 14.008 20.6158C14.64 20.9998 15.132 21.5398 15.484 22.2358C15.828 22.9318 16 23.7278 16 24.6238L16 28.2958L7.6 28.2958ZM14.68 24.6958C14.68 24.0798 14.564 23.5398 14.332 23.0758C14.092 22.6038 13.756 22.2438 13.324 21.9958C12.884 21.7398 12.376 21.6118 11.8 21.6118C11.224 21.6118 10.72 21.7398 10.288 21.9958C9.848 22.2438 9.512 22.6038 9.28 23.0758C9.04 23.5398 8.92 24.0798 8.92 24.6958L8.92 26.7358L14.68 26.7358L14.68 24.6958ZM16.12 14.4578C16.12 15.3138 15.936 16.0858 15.568 16.7738C15.192 17.4618 14.676 18.0018 14.02 18.3938C13.356 18.7858 12.616 18.9818 11.8 18.9818C10.984 18.9818 10.248 18.7858 9.592 18.3938C8.928 18.0018 8.412 17.4618 8.044 16.7738C7.668 16.0858 7.48 15.3138 7.48 14.4578C7.48 13.6018 7.668 12.8298 8.044 12.1418C8.412 11.4538 8.924 10.9138 9.58 10.5218C10.236 10.1298 10.976 9.93377 11.8 9.93377C12.624 9.93377 13.364 10.1298 14.02 10.5218C14.676 10.9138 15.192 11.4538 15.568 12.1418C15.936 12.8298 16.12 13.6018 16.12 14.4578ZM14.752 14.4578C14.752 13.8978 14.628 13.3938 14.38 12.9458C14.124 12.4978 13.772 12.1458 13.324 11.8898C12.868 11.6338 12.36 11.5058 11.8 11.5058C11.24 11.5058 10.736 11.6338 10.288 11.8898C9.832 12.1458 9.48 12.4978 9.232 12.9458C8.976 13.3938 8.848 13.8978 8.848 14.4578C8.848 15.0178 8.976 15.5218 9.232 15.9698C9.48 16.4178 9.832 16.7698 10.288 17.0258C10.736 17.2818 11.24 17.4098 11.8 17.4098C12.36 17.4098 12.868 17.2818 13.324 17.0258C13.772 16.7698 14.124 16.4178 14.38 15.9698C14.628 15.5218 14.752 15.0178 14.752 14.4578ZM16 2.7842L13.54 4.5002C13.548 4.5722 13.552 4.6802 13.552 4.8242L13.552 6.7202L16 6.7202L16 8.2802L7.6 8.2802L7.6 4.8242C7.6 4.0962 7.72 3.4642 7.96 2.9282C8.2 2.3842 8.544 1.9682 8.992 1.6802C9.44 1.3922 9.972 1.2482 10.588 1.2482C11.22 1.2482 11.764 1.4042 12.22 1.7162C12.676 2.0202 13.016 2.4602 13.24 3.0362L16 1.1042L16 2.7842ZM10.588 2.8202C10.052 2.8202 9.64 2.9962 9.352 3.3482C9.064 3.7002 8.92 4.2162 8.92 4.8962L8.92 6.7202L12.268 6.7202L12.268 4.8962C12.268 4.2162 12.124 3.7002 11.836 3.3482C11.54 2.9962 11.124 2.8202 10.588 2.8202Z" fill="#227CE4"/>
<rect opacity="0.36" x="64" y="97" width="1" height="20" fill="#BCC9DA"/>
<path opacity="0.36" d="M65.484 80.98L66.852 82.312L69 82.312L69 83.872L60.6 83.872L60.6 82.312L64.908 82.312L60.6 78.16L60.6 76.408L64.356 79.936L69 76.192L69 78.016L65.484 80.98ZM67.692 68.8298L69 68.8298L69 75.1298L60.6 75.1298L60.6 68.9978L61.908 68.9978L61.908 73.5698L64.092 73.5698L64.092 69.5138L65.376 69.5138L65.376 73.5698L67.692 73.5698L67.692 68.8298Z" fill="#BCC9DA"/>
<rect opacity="0.36" x="117" y="97" width="1" height="20" fill="#BCC9DA"/>
<path opacity="0.36" d="M122.12 79.984C122.12 80.832 121.936 81.6 121.568 82.288C121.192 82.968 120.676 83.504 120.02 83.896C119.364 84.28 118.624 84.472 117.8 84.472C116.976 84.472 116.236 84.276 115.58 83.884C114.924 83.492 114.412 82.956 114.044 82.276C113.668 81.588 113.48 80.82 113.48 79.972C113.48 79.284 113.6 78.656 113.84 78.088C114.08 77.52 114.428 77.04 114.884 76.648L115.832 77.656C115.176 78.264 114.848 79.012 114.848 79.9C114.848 80.476 114.976 80.992 115.232 81.448C115.48 81.904 115.828 82.26 116.276 82.516C116.724 82.772 117.232 82.9 117.8 82.9C118.368 82.9 118.876 82.772 119.324 82.516C119.772 82.26 120.124 81.904 120.38 81.448C120.628 80.992 120.752 80.476 120.752 79.9C120.752 79.012 120.42 78.264 119.756 77.656L120.716 76.648C121.172 77.04 121.52 77.524 121.76 78.1C122 78.668 122.12 79.296 122.12 79.984ZM122.12 71.405C122.12 72.261 121.936 73.033 121.568 73.721C121.192 74.409 120.676 74.949 120.02 75.341C119.356 75.733 118.616 75.929 117.8 75.929C116.984 75.929 116.248 75.733 115.592 75.341C114.928 74.949 114.412 74.409 114.044 73.721C113.668 73.033 113.48 72.261 113.48 71.405C113.48 70.549 113.668 69.777 114.044 69.089C114.412 68.401 114.924 67.861 115.58 67.469C116.236 67.077 116.976 66.881 117.8 66.881C118.624 66.881 119.364 67.077 120.02 67.469C120.676 67.861 121.192 68.401 121.568 69.089C121.936 69.777 122.12 70.549 122.12 71.405ZM120.752 71.405C120.752 70.845 120.628 70.341 120.38 69.893C120.124 69.445 119.772 69.093 119.324 68.837C118.868 68.581 118.36 68.453 117.8 68.453C117.24 68.453 116.736 68.581 116.288 68.837C115.832 69.093 115.48 69.445 115.232 69.893C114.976 70.341 114.848 70.845 114.848 71.405C114.848 71.965 114.976 72.469 115.232 72.917C115.48 73.365 115.832 73.717 116.288 73.973C116.736 74.229 117.24 74.357 117.8 74.357C118.36 74.357 118.868 74.229 119.324 73.973C119.772 73.717 120.124 73.365 120.38 72.917C120.628 72.469 120.752 71.965 120.752 71.405Z" fill="#BCC9DA"/>
<rect opacity="0.36" x="170" y="97" width="1" height="20" fill="#BCC9DA"/>
<path opacity="0.36" d="M175.12 79.984C175.12 80.832 174.936 81.6 174.568 82.288C174.192 82.968 173.676 83.504 173.02 83.896C172.364 84.28 171.624 84.472 170.8 84.472C169.976 84.472 169.236 84.276 168.58 83.884C167.924 83.492 167.412 82.956 167.044 82.276C166.668 81.588 166.48 80.82 166.48 79.972C166.48 79.284 166.6 78.656 166.84 78.088C167.08 77.52 167.428 77.04 167.884 76.648L168.832 77.656C168.176 78.264 167.848 79.012 167.848 79.9C167.848 80.476 167.976 80.992 168.232 81.448C168.48 81.904 168.828 82.26 169.276 82.516C169.724 82.772 170.232 82.9 170.8 82.9C171.368 82.9 171.876 82.772 172.324 82.516C172.772 82.26 173.124 81.904 173.38 81.448C173.628 80.992 173.752 80.476 173.752 79.9C173.752 79.012 173.42 78.264 172.756 77.656L173.716 76.648C174.172 77.04 174.52 77.524 174.76 78.1C175 78.668 175.12 79.296 175.12 79.984ZM166.6 75.1533L166.6 73.5933L173.68 73.5933L173.68 69.2012L175 69.2012L175 75.1533L166.6 75.1533Z" fill="#BCC9DA"/>
<rect opacity="0.36" x="223" y="97" width="1" height="20" fill="#BCC9DA"/>
<path opacity="0.36" d="M219.6 76.408L228 76.408L228 77.968L224.4 77.968L224.4 82.312L228 82.312L228 83.872L219.6 83.872L219.6 82.312L223.068 82.312L223.068 77.968L219.6 77.968L219.6 76.408ZM228.12 70.2332C228.12 71.0892 227.936 71.8612 227.568 72.5492C227.192 73.2372 226.676 73.7772 226.02 74.1692C225.356 74.5612 224.616 74.7572 223.8 74.7572C222.984 74.7572 222.248 74.5612 221.592 74.1692C220.928 73.7772 220.412 73.2372 220.044 72.5492C219.668 71.8612 219.48 71.0892 219.48 70.2332C219.48 69.3772 219.668 68.6052 220.044 67.9172C220.412 67.2292 220.924 66.6892 221.58 66.2972C222.236 65.9052 222.976 65.7092 223.8 65.7092C224.624 65.7092 225.364 65.9052 226.02 66.2972C226.676 66.6892 227.192 67.2292 227.568 67.9172C227.936 68.6052 228.12 69.3772 228.12 70.2332ZM226.752 70.2332C226.752 69.6732 226.628 69.1692 226.38 68.7212C226.124 68.2732 225.772 67.9212 225.324 67.6652C224.868 67.4092 224.36 67.2812 223.8 67.2812C223.24 67.2812 222.736 67.4092 222.288 67.6652C221.832 67.9212 221.48 68.2732 221.232 68.7212C220.976 69.1692 220.848 69.6732 220.848 70.2332C220.848 70.7932 220.976 71.2972 221.232 71.7452C221.48 72.1932 221.832 72.5452 222.288 72.8012C222.736 73.0572 223.24 73.1852 223.8 73.1852C224.36 73.1852 224.868 73.0572 225.324 72.8012C225.772 72.5452 226.124 72.1932 226.38 71.7452C226.628 71.2972 226.752 70.7932 226.752 70.2332ZM219.6 64.0556L219.6 62.4956L226.68 62.4956L226.68 58.1036L228 58.1036L228 64.0556L219.6 64.0556ZM219.6 56.872L219.6 55.312L226.68 55.312L226.68 50.92L228 50.92L228 56.872L219.6 56.872Z" fill="#BCC9DA"/>
<rect opacity="0.36" x="276" y="97" width="1" height="20" fill="#BCC9DA"/>
<path opacity="0.36" d="M272.6 83.872L272.6 82.312L281 82.312L281 83.872L272.6 83.872ZM281.12 77.436C281.12 78.084 281.028 78.712 280.844 79.32C280.66 79.92 280.416 80.396 280.112 80.748L278.9 80.208C279.172 79.864 279.396 79.444 279.572 78.948C279.74 78.444 279.824 77.94 279.824 77.436C279.824 76.812 279.724 76.348 279.524 76.044C279.324 75.732 279.06 75.576 278.732 75.576C278.492 75.576 278.296 75.664 278.144 75.84C277.984 76.008 277.86 76.224 277.772 76.488C277.684 76.752 277.584 77.112 277.472 77.568C277.32 78.208 277.168 78.728 277.016 79.128C276.864 79.52 276.628 79.86 276.308 80.148C275.98 80.428 275.54 80.568 274.988 80.568C274.524 80.568 274.104 80.444 273.728 80.196C273.344 79.94 273.04 79.56 272.816 79.056C272.592 78.544 272.48 77.92 272.48 77.184C272.48 76.672 272.544 76.168 272.672 75.672C272.8 75.176 272.984 74.748 273.224 74.388L274.436 74.88C274.22 75.248 274.056 75.632 273.944 76.032C273.832 76.432 273.776 76.82 273.776 77.196C273.776 77.812 273.88 78.272 274.088 78.576C274.296 78.872 274.572 79.02 274.916 79.02C275.156 79.02 275.352 78.936 275.504 78.768C275.656 78.592 275.776 78.372 275.864 78.108C275.952 77.844 276.052 77.484 276.164 77.028C276.308 76.404 276.46 75.892 276.62 75.492C276.772 75.092 277.008 74.752 277.328 74.472C277.648 74.184 278.08 74.04 278.624 74.04C279.088 74.04 279.508 74.168 279.884 74.424C280.26 74.672 280.56 75.052 280.784 75.564C281.008 76.076 281.12 76.7 281.12 77.436ZM281 66.9971L278.54 68.7131C278.548 68.7851 278.552 68.8931 278.552 69.0371L278.552 70.9331L281 70.9331L281 72.4931L272.6 72.4931L272.6 69.0371C272.6 68.3091 272.72 67.6771 272.96 67.1411C273.2 66.5971 273.544 66.1811 273.992 65.8931C274.44 65.6051 274.972 65.4611 275.588 65.4611C276.22 65.4611 276.764 65.6171 277.22 65.9291C277.676 66.2331 278.016 66.6731 278.24 67.2491L281 65.3171L281 66.9971ZM275.588 67.0331C275.052 67.0331 274.64 67.2091 274.352 67.5611C274.064 67.9131 273.92 68.4291 273.92 69.1091L273.92 70.9331L277.268 70.9331L277.268 69.1091C277.268 68.4291 277.124 67.9131 276.836 67.5611C276.54 67.2091 276.124 67.0331 275.588 67.0331Z" fill="#BCC9DA"/>
</svg>
