<svg width="10" height="7" viewBox="0 0 10 7" fill="none" xmlns="http://www.w3.org/2000/svg">
<g id="Frame" clip-path="url(#clip0_405_6483)">
<path id="Vector" d="M9.9375 0.495575L6.875 3.46903L9.9375 6.44248C10 6.31858 10 6.19469 10 6.0708V0.867257C10 0.743363 9.9375 0.619469 9.9375 0.495575ZM9.125 0H0.875C0.75 0 0.625 0.0619469 0.5 0.0619469L4.375 3.90265C4.6875 4.21239 5.25 4.21239 5.625 3.90265L9.5 0.0619469C9.375 0.0619469 9.25 0 9.125 0ZM0.0625 0.495575C0.0625 0.619469 0 0.743363 0 0.867257V6.0708C0 6.19469 0.0625 6.31858 0.0625 6.44248L3.125 3.46903L0.0625 0.495575ZM6.4375 3.90265L6.0625 4.33628C5.4375 4.89381 4.5625 4.89381 3.9375 4.33628L3.5625 3.90265L0.5 6.87611C0.625 6.93805 0.75 6.93805 0.875 6.93805H9.125C9.25 6.93805 9.375 6.87611 9.5 6.87611L6.4375 3.90265Z" fill="white"/>
</g>
<defs>
<clipPath id="clip0_405_6483">
<rect width="10" height="7" fill="white"/>
</clipPath>
</defs>
</svg>
