<svg width="239" height="380" viewBox="0 0 239 380" fill="none" xmlns="http://www.w3.org/2000/svg">
<mask id="path-1-inside-1_405_5373" fill="white">
<path d="M128.202 28.191C126.694 27.2123 125.183 26.3513 123.425 25.9557C121.078 25.5461 118.364 25.7167 116.155 24.4855C114.644 23.6245 111.684 19.312 115.443 19.7555C118.028 20.0531 123.095 20.0567 124.909 18.0971C129.505 13.1408 135.22 25.4136 140.315 24.2396C143.04 23.5979 143.713 20.0794 146.5 21.7956C148.241 22.8978 150.086 24.5915 151.341 26.2711C153.169 28.6714 151.843 29.9357 149.123 30.3418C146.642 30.6358 144.174 30.3411 141.584 30.279C139.229 30.2226 136.868 30.4017 134.507 30.5807C132.146 30.7598 130.176 29.4166 128.202 28.191ZM155.658 13.2961C155.658 13.2961 156.824 18.7439 158.691 19.4956C160.44 20.2445 161.36 21.2091 162.597 18.7644C163.831 16.4375 161.148 15.3128 159.191 13.3807C157.234 11.4487 154.165 6.78003 155.658 13.2961ZM146.3 44.8843C142.925 43.1539 144.627 40.956 143.543 37.0419C142.458 33.1277 139.892 36.9544 136.39 40.523C132.887 44.0917 129.633 37.2977 127.909 35.4891C126.185 33.6804 127.842 33.3667 118.795 32.3251C109.868 31.1687 110.58 30.9501 106.466 35.4466C102.353 39.9432 109.799 38.9434 114.967 39.6563C120.134 40.3692 120.178 43.4337 119.631 46.6018C119.084 49.77 109.582 48.0106 100.658 46.7364C91.7341 45.4622 92.5104 47.4838 87.87 49.3756C83.2295 51.2674 73.7005 45.7371 69.7278 44.3458C65.7552 42.9546 38.3963 43.9486 34.3925 43.8527C30.3888 43.7568 28.0781 46.7648 24.9826 48.1046C21.8871 49.4443 23.0498 55.0099 22.87 57.5977C22.6902 60.1855 16.8588 57.6893 13.7971 57.6159C10.7355 57.5426 11.5174 59.3287 11.2283 61.5604C10.9392 63.7921 12.2289 64.0587 15.885 63.9106C19.5411 63.7626 21.0578 64.388 21.1163 66.8637C21.1748 69.3394 16.3778 67.9284 13.4339 67.8579C10.49 67.7874 11.5435 72.9969 12.0278 77.3679C12.5122 81.739 15.3553 81.1002 16.9757 82.3172C18.5961 83.5343 20.9117 85.2393 6.87541 90.7942C-7.16087 96.3491 6.32539 94.0801 8.70308 93.1945C11.0808 92.3089 21.5195 89.3777 24.5811 89.4511C27.6428 89.5244 32.4377 86.1046 36.4026 82.9005C40.3676 79.6964 52.4598 81.5179 61.1709 81.8444C69.882 82.1709 76.9614 101.428 81.1301 104.473C85.2987 107.519 85.1971 131.435 84.91 138.497C84.623 145.56 89.6886 150.512 91.9901 152.806C94.2916 155.099 99.7542 168.073 105.907 176.822C112.057 185.688 109.376 174.666 107.61 169.675C105.847 164.567 109.388 169.247 109.388 169.247C109.388 169.247 120.382 182.471 122.475 188.53C124.569 194.589 134.104 199.884 140.569 200.51C147.034 201.136 146.874 202.9 146.874 202.9C146.874 202.9 146.462 205.364 154.211 206.492C161.842 207.618 160.403 213.592 163.526 216.024C166.649 218.455 171.536 221.046 175.893 221.151C180.25 221.255 178.73 220.747 179.475 224.064C180.221 227.381 177.052 231.782 174.758 234.084C172.464 236.386 172.099 241.797 171.947 248.155C171.794 254.514 174.236 255.869 174.236 255.869C174.236 255.869 187.136 278.093 190.267 280.171C193.398 282.249 192.826 286.477 192.826 286.477C192.826 286.477 192.053 318.742 191.876 321.212C191.699 323.682 191.463 323.677 189.273 326.57C187.083 329.463 187.281 335.948 187.281 335.948C187.281 335.948 186.242 364.554 186.192 366.674C186.141 368.793 189.373 371.581 199.951 377.608C210.528 383.634 202.962 374.852 201.833 372.822C200.703 370.792 201.651 365.63 201.745 361.744C201.838 357.858 205.183 355.936 206.535 353.612C207.886 351.287 206.751 349.493 206.85 345.371C206.949 341.25 211.592 339.24 211.592 339.24C211.592 339.24 237.407 314.173 239.465 311.866C241.523 309.559 241.986 304.975 241.813 302.379C241.64 299.782 249.592 292.432 254.025 289.357C258.458 286.282 262.088 277.415 262.371 275.418C262.655 273.422 262.882 268.832 265.88 266.666C268.877 264.499 268.875 259.668 270.174 254.633C271.473 249.597 262.067 248.783 256.502 244.997C250.937 241.211 242.013 239.937 241.306 239.92C240.6 239.903 236.585 240.278 236.891 237.34C237.197 234.402 234.845 229.279 233.492 226.772C232.138 224.265 229.898 224.33 227.189 224.265C224.481 224.2 216.421 216.348 212.945 213.908C209.469 211.469 202.24 213.181 197.561 211.773C192.882 210.364 195.237 210.421 191.026 209.142C186.815 207.863 184.672 213.702 182.656 214.243C180.64 214.784 174.169 214.393 171.823 213.984C169.476 213.574 167.808 209.41 167.31 205.628C166.811 201.846 165.556 200.166 162.419 198.323C159.281 196.481 158.906 192.466 159.327 189.648C159.748 186.831 157.752 186.547 155.4 186.373C153.048 186.199 153.143 187.144 152.506 189.131C151.869 191.119 149.963 192.016 144.919 191.07C139.878 190.007 137.902 183.951 137.429 179.109C136.956 174.266 137.139 171.561 140.503 168.814C143.868 166.067 144.774 167.62 149.231 168.434C153.689 169.247 156.81 166.848 159.827 163.857C162.845 160.866 166.253 166.132 166.253 166.132C166.253 166.132 166.253 166.132 170.901 173.784C175.548 181.436 175.143 173.767 174.14 166.438C173.137 159.109 196.185 136.45 199.679 133.235C203.172 130.02 202.785 131.424 208.684 131.094C214.584 130.764 216.965 124.812 220.439 122.421C223.913 120.03 216.021 119.959 212.533 117.99C209.046 116.021 214.945 115.691 217.09 114.682C219.235 113.673 223.723 113.192 229.603 113.686C235.482 114.18 221.377 93.1055 218.96 90.6912C216.544 88.2768 217.335 84.7611 216.239 81.3179C215.144 77.8748 211.005 83.4311 207.973 87.0111C204.942 90.591 205.147 86.9433 205.672 84.7173C206.196 82.4912 203.898 80.0796 202.911 76.9926C201.925 73.9055 194.366 74.667 191.66 74.4844C188.955 74.3017 189.42 74.5485 188.486 79.1213C187.551 83.694 188.776 86.6689 189.499 90.9279C190.222 95.1869 185.373 100.844 182.594 103.723C179.815 106.602 179.193 103.052 179.146 100.106C179.099 97.159 177.675 97.5962 174.389 97.0462C171.103 96.4962 170.87 96.3728 169.648 93.2801C168.426 90.1874 164.131 87.4924 160.015 87.1581C155.9 86.8239 157.367 79.6718 157.561 76.4952C157.758 73.2008 163.884 73.2298 165.9 72.689C167.916 72.1481 171.264 70.1075 174.471 73.9547C177.68 77.6842 180.947 74.1099 180.947 74.1099C180.947 74.1099 186.104 70.3453 186.16 67.9901C186.217 65.635 185.14 66.3162 181.961 66.24C178.781 66.1638 178.31 66.1525 178.375 63.4441C178.44 60.7357 178.446 60.5002 184.101 60.5179C189.756 60.5356 187.289 55.2922 190.057 52.8842C192.825 50.4762 195.37 52.4224 194.778 57.4746C194.185 62.5269 200.166 58.782 203.432 60.1563C206.699 61.5306 205.128 63.1425 202.288 63.6636C199.448 64.1846 201.309 65.1718 202.06 68.2532C202.811 71.3347 202.478 70.5019 211.41 71.4228C220.343 72.3438 212.799 67.5679 212.232 66.6118C211.666 65.6556 209.014 63.2356 217.128 63.9013C225.242 64.567 220.336 57.8513 220.336 57.8513C220.336 57.8513 214.918 47.9422 208.501 45.3141C202.084 42.6861 203.847 42.8461 200.534 38.5251C197.22 34.2041 184.101 35.8928 180.221 35.5642C176.341 35.2355 176.514 37.8318 174.453 40.2567C172.51 42.6845 177.161 45.2702 177.443 53.1711C177.725 61.0721 172.71 54.0003 172.71 54.0003C172.71 54.0003 169.966 50.5177 168.744 47.425C167.522 44.3323 167.09 42.6724 169.028 40.4802C170.966 38.288 171.849 35.8349 168.082 30.796C164.314 25.7572 161.18 23.7969 159.537 23.5219C157.894 23.2469 158.286 26.5553 158.454 29.3871C158.622 32.2189 160.282 31.7874 162.244 33.4839C164.089 35.1776 163.191 38.2196 162.644 41.3877C162.097 44.5558 162.032 42.3156 159.204 37.4171C156.376 32.5186 154.43 35.0641 151.76 38.2992C149.091 41.5343 156.108 43.7054 156.202 49.5988C156.297 55.4923 153.115 50.5853 153.115 50.5853C153.115 50.5853 149.676 46.6147 146.3 44.8843ZM36.4198 155.952C36.4198 155.952 38.7029 168.849 42.0142 168.339C48.6367 167.32 43.7925 162.962 38.1861 155.994C37.732 155.276 35.7838 152.991 36.4198 155.952ZM177.156 188.072C177.857 188.325 178.561 188.46 179.141 188.827C180.069 189.438 180.75 190.515 181.802 190.894C183.201 191.516 186.061 190.171 187.482 189.851C193.522 188.582 177.631 183.017 174.822 182.243C172.013 181.469 171.202 180.86 164.776 183.534C158.349 186.208 170.119 186.726 170.119 186.726C172.584 187.138 174.933 187.43 177.156 188.072ZM191.32 191.946C191.303 192.653 191.286 193.36 191.401 193.48C191.959 194.79 193.619 194.358 194.797 194.386C195.856 194.412 202.459 194.216 199.426 192.965C197.559 192.214 195.588 190.87 193.485 190.113C190.449 188.98 191.354 190.533 191.32 191.946ZM168.4 22.4382C169.294 24.4626 170.715 24.1432 171.879 24.7602C173.042 25.3771 173.362 26.7987 173.633 30.2221C173.905 33.6455 184.769 32.6097 192.191 32.6697C199.612 32.7297 194.877 28.728 185.451 28.7379C181.327 28.7569 180.873 28.0391 179.749 25.7735C178.625 23.5079 176.744 23.345 174.061 22.2203C171.378 21.0956 171.647 19.6882 169.121 16.9177C165.676 13.1826 167.388 20.4109 167.388 20.4109C167.388 20.4109 167.506 20.4137 168.4 22.4382ZM197.785 25.3808C203.084 25.5078 206.573 17.5794 206.84 16.2897C207.106 15 210.339 12.8388 214.579 12.9404C218.818 13.042 221.055 13.0956 222.993 10.9033C224.931 8.71111 222.903 9.72295 229.063 8.33883C235.223 6.9547 235.151 5.06778 235.089 2.70984C235.028 0.351897 225.134 0.232669 222.422 0.285536C219.711 0.338404 219.907 1.99263 216.918 3.8062C213.929 5.61976 196.19 3.42742 190.541 3.17424C189.952 3.16013 189.363 3.14603 188.887 3.37026C189.568 4.44699 192.035 4.74175 193.084 5.23816C194.6 5.86362 195.396 7.06093 196.672 7.91625C197.95 8.65382 199.478 8.80826 200.889 8.95987C215.689 10.8462 204.236 11.8678 203.055 11.9574C201.875 12.0469 200.008 11.2952 199.581 14.3484C199.155 17.4016 195.305 15.7777 193.301 15.8475C191.296 15.9173 192.011 15.5809 192.101 11.8128C192.192 8.04456 183.461 8.54232 179.69 8.5698C175.919 8.59728 177.373 11.8134 177.05 15.4582C176.727 19.103 177.672 19.0078 181.55 19.4541C185.309 19.8977 183.992 20.8087 184.409 23.0574C184.826 25.306 190.723 25.0938 190.723 25.0938C190.723 25.0938 192.486 25.2539 197.785 25.3808ZM241.125 6.50698C241.125 6.50698 237.733 5.48312 235.907 7.91368C234.082 10.3442 235.96 10.6249 231.836 10.6439C227.712 10.6629 227.941 10.9041 226.94 13.3544C225.939 15.8047 223.881 18.1118 220.937 18.0413C217.993 17.9708 213.308 16.7981 213.725 19.0468C214.14 21.4132 218 27.5147 219.999 27.6804C221.998 27.8461 238.882 26.3654 240.488 33.1199C242.09 39.992 238.993 51.2289 242.128 53.1892C245.262 55.1494 243.795 57.353 242.721 57.9163C241.647 58.4797 240.03 57.1449 239.948 60.5598C239.866 63.9748 240.963 62.4693 242.779 65.3406C244.595 68.2119 245.563 67.1747 245.461 71.4139C245.36 75.6531 244.849 77.2904 248.017 77.8376C251.186 78.3848 253.832 81.0403 254.266 82.5824C254.701 84.1246 257.914 82.7877 258.783 80.9233C259.653 79.059 269.745 65.9867 272.695 65.8217C275.644 65.6567 280.699 66.1313 280.879 63.5435C281.059 60.9557 279.501 57.148 283.154 57.1177C286.807 57.0874 293.752 57.3716 296.896 54.03C300.039 50.6884 306.485 47.1904 300.62 46.1072C297.923 45.5713 295.506 43.157 296.987 40.3647C297.113 40.0142 301.226 40.4662 301.818 40.3626C303.237 40.1609 305.132 39.735 305.99 38.3417C307.345 35.8999 308.699 33.458 310.172 31.019C311.515 29.0482 315.859 24.7928 310.582 23.7238C308.942 23.331 308.163 21.4272 310.566 19.4817C310.566 19.4817 314.288 11.6767 317.82 11.7614C318.88 11.7867 328.901 11.5555 327.527 9.87309C326.61 8.79071 326.611 8.79071 319.556 8.15041C318.617 8.01009 318.048 7.17169 317.232 6.79867C316.063 6.41719 314.53 6.49827 313.352 6.47006C306.985 6.67098 309.101 6.83952 306.447 4.53726C303.792 2.23501 301.201 2.17294 289.776 2.01704C278.233 1.85832 273.904 0.576369 271.019 2.98154C268.134 5.3867 269.392 6.94857 263.387 6.80468C257.381 6.6608 241.125 6.50698 241.125 6.50698ZM301.228 69.9222C301.219 70.2755 301.208 70.7465 301.199 71.0997C301.177 72.0418 301.135 73.8081 302.43 73.8392C304.314 73.8843 306.201 73.8117 308.088 73.7391C309.033 73.6439 310.081 74.1403 310.802 73.5685C312.479 72.4304 313.222 70.9165 315.468 70.6168C316.413 70.5216 318.992 71.0547 319.144 69.6445C319.158 69.0557 318.592 63.151 317.667 62.4219C315.354 60.5991 309.385 63.873 305.381 63.777C303.968 63.7432 302.566 63.2383 301.03 63.4371C299.729 63.6416 300.163 65.1837 300.376 66.1314C300.931 67.5586 301.141 68.624 301.228 69.9222ZM331.167 98.9172C331.167 98.9172 326.375 102.219 326.19 105.043C326.007 107.748 325.061 112.792 328.409 110.751C331.875 108.713 334.461 104.063 334.461 104.063C334.461 104.063 335.511 94.6618 331.167 98.9172ZM338.608 98.1529C339.166 99.4623 339.365 100.999 339.684 102.42C340.211 105.025 338.627 107.226 337.168 109.076C335.834 110.694 334.016 112.771 336.332 114.476C339.461 116.672 343.821 111.71 346.816 109.661C349.211 108.068 348.104 105.096 346.736 103.178C345.031 100.545 342.965 98.2572 341.976 95.288C341.102 92.4392 339.148 90.3894 337.438 87.992C336.182 86.3124 334.399 86.9766 333.619 90.0213C332.965 92.7156 334.816 94.1738 336.43 95.6264C337.355 96.3555 338.16 97.1995 338.608 98.1529ZM378.541 103.469C374.164 104.189 371.787 105.075 367.573 103.913C365.232 103.268 366.447 96.8168 363.985 96.2865C363.167 96.0313 361.891 95.176 361.282 95.9861C360.918 96.4487 361.122 97.7497 361.108 98.3384C361.198 99.5188 361.834 102.48 360.062 102.673C357.698 102.97 358.795 101.464 357.263 106.376C355.732 111.288 350.617 113.286 348.946 114.189C347.275 115.091 344.628 117.385 340.624 117.289C336.623 117.075 336.004 118.356 339.129 120.67C341.56 122.495 341.851 125.094 342.019 127.926C342.019 127.926 342.019 127.926 342.016 128.044C342.106 129.224 342.596 133.36 340.821 133.671C338.693 133.973 331.636 133.451 328.692 133.38C325.748 133.31 326.816 137.93 326.63 140.754C326.445 143.577 327.129 144.536 328.065 144.794C328.999 145.17 331.211 146.283 332.326 148.902C333.442 151.521 337.359 150.319 341.357 150.65C345.355 150.982 344.761 146.255 345.392 144.502C346.023 142.75 344.636 141.656 348.642 141.635C352.531 141.61 354.006 139.053 354.548 136.12C355.092 133.07 357.968 135.967 361.913 133.587C365.858 131.207 371.807 138.655 374.467 140.722C375.74 141.695 379.09 144.485 378.838 145.186C377.974 146.815 371.781 144.663 373.583 148.123C375.943 152.893 378.584 150.835 382.348 146.212C386.226 141.71 377.608 137.498 375.99 136.163C374.376 134.71 370.434 132.024 373.342 128.677C376.247 125.447 382.65 133.613 382.65 133.613C385.537 136.038 389.745 142.384 391.034 147.599C392.443 152.699 393.021 153.184 397.605 153.647C402.189 154.111 398.8 148.02 398.15 145.648C397.379 143.391 397.393 142.803 400.334 142.991C403.275 143.179 404.668 148.986 406.266 151.145C407.863 153.304 413.597 154.973 415.974 154.087C418.47 153.205 419.199 152.28 421.957 155.173C424.716 158.067 418.073 164.86 416.063 165.165C414.052 165.47 410.345 167.738 405.694 165.152C401.046 162.449 400.211 162.9 394.934 161.831C389.658 160.762 390.417 163.49 389.046 166.639C387.674 169.787 385.14 167.37 383.996 165.928C382.853 164.487 373.192 159.543 369.721 156.868C366.25 154.192 366.901 151.616 365.668 148.994C364.435 146.372 360.257 148.629 359.531 149.436C358.804 150.243 355.387 150.279 352.207 150.203C349.028 150.127 347.864 149.51 345.921 151.938C343.978 154.366 344.129 152.955 340.54 155.226C336.951 157.496 333.438 156.587 328.24 157.17C323.042 157.752 324.335 167.68 324.293 169.447C324.251 171.213 323.379 173.195 321.27 172.673C319.162 172.152 315.258 182.662 312.731 184.84C310.205 187.018 311.454 193.882 311.515 196.24C311.577 198.598 309.53 200.434 308.223 200.874C306.917 201.314 308.376 209.243 307.386 211.222C306.396 213.202 313.195 214.661 313.195 214.661C313.764 215.499 318.202 217.137 321.041 221.565C324.562 227.069 328.103 226.8 328.103 226.8C328.103 226.8 352.246 227.261 357.781 227.393C360.136 227.45 362.353 228.328 363.839 230.249C365.207 232.167 366.547 235.262 365.198 237.468C363.969 239.56 363.29 243.314 365.009 245.358C365.925 246.44 367.439 247.184 368.597 248.036C372.312 250.364 373.373 260.169 373.252 265.232C373.173 268.529 372.738 271.936 371.716 275.21C371.456 276.264 371.077 277.316 370.348 278.241C369.372 279.631 368.999 280.447 369.077 282.099C369.015 284.689 368.476 287.504 371.277 288.632C373.027 289.381 375.54 297.571 375.54 297.571C375.54 297.571 382.025 317.049 382.866 321.311C383.706 325.573 385.714 325.385 387.009 325.416C388.304 325.447 389.712 325.716 390.107 323.959C390.5 322.318 392.022 322.708 392.022 322.708C392.022 322.708 393.43 322.978 399.559 322.889C405.805 322.803 410.514 313.136 412.082 311.642C413.649 310.148 413.778 309.68 413.734 306.615C413.575 303.43 414.169 303.209 417.236 303.047C420.421 302.888 420.013 300.286 420.277 294.165C420.541 288.045 423.648 286.234 427.986 282.214C432.324 278.194 429.778 261.52 429.586 254.799C429.393 248.079 433.826 245.004 433.826 245.004C433.826 245.004 448.818 224.155 454.255 218.512C459.693 212.869 451.063 214.076 451.063 214.076C451.063 214.076 443.167 214.122 439.528 213.564C435.886 213.123 432.184 205.376 430.465 203.331C428.747 201.287 424.71 197.656 424.102 193.518C423.494 189.379 422.054 185.574 422.054 185.574C421.72 184.741 418.042 180.883 417.679 176.397C416.859 166.362 420.441 174.225 420.441 174.225C420.441 174.225 421.789 176.967 426.765 180.739C431.738 184.628 434.251 197.767 436.603 202.889C438.954 208.012 438.601 208.004 446.37 208.308C454.136 208.729 465.008 197.561 468.238 195.518C471.468 193.474 470.473 190.74 469.246 187.883C468.018 185.026 465.296 185.55 460.14 184.366C454.981 183.3 453.367 176.899 448.727 173.842C444.088 170.785 448.439 171.125 451.728 171.557C455.016 171.989 455.327 173.764 456.928 175.806C458.526 177.965 461.088 179.204 466.281 178.857C471.471 178.628 474.838 180.712 475.978 182.271C477.119 183.83 480.621 185.21 480.621 185.21C480.621 185.21 489.453 185.422 490.484 186.625C491.516 187.828 490.851 190.993 496.607 191.72C502.363 192.447 504.915 203.937 504.915 203.937C504.915 203.937 506.214 218.578 510.158 221.147C517.815 226.161 516.199 209.981 516.626 206.927C517.053 203.874 525.879 199.373 528.975 198.033C530.284 197.475 530.907 196.076 531.059 194.666C531.199 193.727 530.543 191.59 531.267 190.901C531.867 190.444 534.219 190.618 534.923 190.753C536.448 191.025 539.302 189.915 539.93 193.229C540.557 196.543 544.698 200.766 544.698 200.766C545.962 202.093 547.594 202.839 549.352 203.234C550.877 203.506 552.778 202.845 554.171 203.703C556.145 204.929 554.754 208.901 554.593 210.665C554.548 212.549 554.032 214.422 554.22 216.429C554.404 218.555 555.657 220.352 556.078 222.483C556.397 223.904 556.602 225.205 556.686 226.621C556.686 226.621 561.203 239.69 568.064 238.558C572.676 237.844 564.855 229.88 561.525 226.266C558.195 222.651 558.044 219.113 559.662 215.499C561.28 211.885 564.114 216.548 569.101 219.849C574.089 223.15 572.115 221.924 576.361 216.842C580.604 211.877 577.1 205.666 575.835 204.34C574.571 203.014 569.324 195.819 575.736 193.734C582.031 191.646 588.165 191.321 591.592 190.932C595.018 190.543 594.752 186.884 600.596 179.012C606.44 171.14 601.266 160.883 599.01 156.705C596.636 152.525 596.215 150.394 599.847 146.357C603.478 142.32 606.715 149.821 606.715 149.821C606.715 149.821 610.104 155.911 614.673 161.911C619.243 167.912 620.494 159.93 621.364 158.066C622.236 156.084 619.233 153.537 617.532 150.787C615.831 148.036 617.934 143.845 618.442 142.325C618.949 140.806 627.644 136.89 630.378 135.895C633.112 134.9 636.048 130.375 637.465 120.394C638.883 110.413 640.976 121.421 640.976 121.421C640.976 121.421 640.79 143.921 640.573 148.04C640.357 152.158 640.55 153.93 635.41 156.988C630.271 160.046 629.699 159.326 626.976 159.85C624.254 160.374 623.289 161.293 622.899 167.764C622.508 174.235 625.772 170.778 626.162 169.256C626.552 167.734 627.837 163.287 631.243 163.722C634.65 164.157 640.16 160.401 643.395 158.122C646.631 155.843 645.37 149.451 645.34 145.797C645.31 142.144 644.931 143.195 648.116 143.036C651.301 142.877 650.129 142.613 650.671 139.68C651.212 136.748 649.808 136.361 646.867 136.172C643.926 135.984 644.582 133.172 644.582 133.172C644.582 133.172 645.518 118.702 644.893 115.27C644.266 111.956 640.263 106.912 631.652 107.295C623.042 107.677 636.395 96.2149 640.618 92.0744C644.724 87.9311 648.66 90.8532 648.66 90.8532C648.66 90.8532 653.431 93.324 660.109 94.8979C666.788 96.4718 663.735 91.0966 664.644 87.5836C665.553 84.0707 668.463 85.5543 673.907 89.4551C679.352 93.3559 668.823 100.055 667.476 102.144C666.13 104.232 669.059 109.84 672.325 116.163C675.59 122.486 675.185 114.818 675.715 112.356C676.128 109.892 675.946 107.649 678.464 105.824C680.982 103.999 679.648 100.668 679.769 95.6045C679.89 90.541 683.406 91.3322 688.941 91.4648C694.472 91.7152 695.227 89.7302 696.542 88.937C697.857 88.1437 697.195 86.2427 705.464 85.3804C713.729 84.6358 697.042 63.1456 695.666 61.5809C694.289 60.0162 670.118 60.7332 664.236 60.3566C658.354 59.98 658.68 56.2175 657.536 54.7762C656.392 53.3349 643.058 54.1936 640.587 54.0166C638.117 53.8396 635.651 48.5963 633.537 48.31C631.423 48.0237 630.548 50.1236 628.383 51.9569C626.218 53.7902 626.326 49.3155 626.135 47.4257C625.945 45.536 624.664 44.9162 622.325 44.1532C619.987 43.3903 619.838 49.6313 619.669 51.7481C619.501 53.8649 600.559 52.7042 596.911 52.4989C593.264 52.2937 592.182 48.2618 591.577 44.0057C590.972 39.7495 587.097 44.134 587.097 44.134L578.136 44.3906C578.136 44.3906 563.074 43.5584 559.057 44.0513C555.157 44.547 559.172 39.2233 561.351 36.8012C563.533 34.2613 553.849 30.259 552.697 29.171C551.545 28.083 543.624 29.1892 541.99 28.561C540.473 27.9355 539.358 25.3167 538.867 26.1297C538.376 26.9427 537.728 29.4015 535.931 30.6545C534.133 31.9075 532.496 31.3969 530.132 31.6938C527.769 31.9906 529.156 33.0843 521.16 32.4214C513.161 31.8763 512.681 37.1669 510.138 40.0515C507.477 42.9333 503.243 42.5963 501.238 42.6661C499.231 42.8536 499.841 46.8743 498.84 49.3246C497.839 51.7749 494.206 46.0323 492.81 45.2919C491.417 44.4338 491.778 49.0375 491.778 49.0375C491.778 49.0375 491.333 62.6944 490.71 64.0934C490.087 65.4923 485.895 53.6095 485.96 50.9011C486.142 48.1956 484.046 42.2542 483.6 41.1831C483.27 40.2326 482.055 41.7352 480.474 43.8181C478.892 45.901 479.733 50.1628 479.309 53.0983C478.885 56.0337 477.273 54.4634 472.681 54.3534C468.088 54.2433 467.227 55.7544 465.301 57.4756C463.374 59.1968 456.438 58.5593 452.434 58.4634C448.431 58.3675 446.375 60.5569 442.671 62.7068C438.967 64.8567 439.994 61.3466 437.715 58.1108C435.321 54.7543 434.367 60.1514 433.015 62.4755C431.663 64.7995 424.983 58.3948 421.751 55.6075C418.519 52.8201 416.469 54.774 414.702 54.7317C412.936 54.6893 410.917 55.3479 409.106 52.2411C407.296 49.1343 402.342 49.3691 397.085 47.4758C391.828 45.5825 390.086 49.4289 384.386 51.2954C378.686 53.1618 377.194 56.4251 377.194 56.4251C377.194 56.4251 377.194 56.4251 376.764 59.5961C376.335 62.767 372.364 66.2066 369.818 69.209C367.272 72.2114 362.556 72.3341 359.932 73.6851C357.307 75.0361 358.873 83.4391 358.909 86.8569C358.948 90.1569 364.421 87.9315 367.954 88.0161C371.369 88.098 369.414 90.9967 368.909 92.3985C368.648 93.4527 366.887 93.1748 366.517 93.8729C366.397 93.9879 366.391 94.2234 366.5 94.5794C366.943 95.7683 368.216 96.7414 368.894 97.9359C371.044 101.64 372.789 97.6757 372.789 97.6757C372.789 97.6757 376.311 93.2828 379.485 88.6459C382.292 84.5893 377.423 81.2914 380.46 77.476C383.012 74.2381 386.144 71.3675 389.262 69.0857C394.66 65.0912 395.425 67.5839 396.899 69.9757C398.374 72.3675 389.11 75.4446 386.375 81.3881C383.641 87.3316 392.568 83.5395 389.971 88.6615C384.741 100.436 383.274 102.64 378.541 103.469ZM454.429 48.9675C456.047 50.3023 457.785 51.5222 459.644 52.6271C460.224 52.9945 462.893 54.708 462.231 52.807C461.791 51.5003 460.763 50.1796 459.964 49.1001C458.366 46.941 458.635 45.5335 458.703 42.7074C458.771 39.8813 464.479 37.6616 464.479 37.6616C484.141 28.4711 465.876 33.4534 463.042 33.7389C460.328 33.9096 457.611 34.1979 456.186 34.6351C454.762 35.0723 451.492 38.7643 449.885 41.907C449.392 42.8378 449.599 44.021 449.93 44.9715C450.266 45.6865 450.723 46.2866 451.418 46.7745C452.461 47.5065 453.622 48.2412 454.429 48.9675ZM439.925 280.615C438.366 281.756 438.631 285.415 438.364 291.653C438.322 293.419 440.26 305.955 443.308 301.668C443.311 301.551 447.333 295.992 447.527 292.815C447.723 289.521 450.511 286.288 451.624 284.076C452.738 281.864 452.219 278.906 450.098 274.025C447.976 269.143 445.191 277.206 445.191 277.206C444.453 278.485 441.484 279.474 439.925 280.615ZM560.302 247.798C561.905 249.722 563.506 251.763 565.109 253.687C565.911 254.649 566.713 255.61 567.515 256.572C568.434 257.537 569.589 258.507 570.032 259.696C570.475 260.885 570.317 262.531 571.237 263.495C572.041 264.339 573.337 264.37 574.399 264.278C578.995 264.27 583.582 264.616 588.292 264.729C615.376 265.377 594.931 263.002 593.759 262.739C592.588 262.475 590.1 263.004 587.903 261.302C585.705 259.6 575.566 259.829 575.566 259.829C575.566 259.829 572.031 259.862 572.573 256.929C573.114 253.996 571.695 254.198 567.398 246.672C563.101 239.146 563.213 244.333 556.32 236.981C549.426 229.628 553.608 237.034 554.954 239.894C556.299 242.754 559.391 246.48 559.391 246.48C559.615 246.957 559.957 247.437 560.302 247.798ZM598.973 251.67C598.466 253.19 598.432 254.603 600.184 255.234C603.458 256.255 602.895 255.181 606.243 253.141C606.84 252.801 608.632 251.784 608.534 250.957C608.433 250.247 606.902 250.211 606.322 249.843C605.745 249.358 605.17 248.755 604.463 248.738C603.524 248.598 602.582 248.576 601.637 248.671C600.457 248.76 599.86 249.099 599.484 250.033C599.237 250.498 599.105 251.084 598.973 251.67ZM588.527 250.006C589.587 250.032 590.764 250.06 591.835 249.614C592.786 249.283 593.394 248.473 594.115 247.901C595.436 246.873 595.699 245.701 595.963 244.529C596.746 241.366 596.592 237.946 596.668 234.766C596.804 229.114 595.954 230.154 595.068 227.776C594.628 226.47 590.588 227.905 588.908 229.161C587.229 230.416 588.117 232.676 587.96 234.322C587.909 236.442 585.781 236.744 584.343 237.77C582.545 239.023 580.863 240.397 579.18 241.77C577.018 243.486 578.975 245.418 579.872 247.325C580.096 247.801 580.435 248.398 580.898 248.763C581.705 249.489 582.762 249.632 583.702 249.773C583.819 249.776 583.819 249.776 583.937 249.778C585.465 249.933 586.996 249.97 588.527 250.006ZM608.109 224.436C608.891 226.222 610.026 228.017 611.047 229.691C611.613 230.647 612.871 232.209 614.072 231.295C615.631 230.154 615.325 228.144 615.362 226.613C615.447 223.08 615.924 217.908 614.57 215.401C613.099 212.891 610.306 211.411 608.596 209.013C607.226 207.213 606.042 207.42 604.434 200.784C602.708 194.144 603.099 202.401 602.647 206.514C602.195 210.627 605.884 214.015 605.884 214.015C608.519 217.141 606.663 220.867 608.109 224.436ZM636.178 257.746C637.588 257.898 638.872 258.4 639.786 259.6C640.93 261.041 641.243 262.698 642.149 264.251C642.712 265.325 643.62 266.761 645.16 266.444C646.584 266.007 648.031 264.628 649.172 266.187C650.77 268.346 651.616 267.424 651.616 267.424C652.096 267.082 655.8 264.932 657.532 266.387C667.577 274.994 663.37 268.648 660.858 265.289C658.346 261.93 651.868 256.944 648.994 253.929C646.121 250.915 640.053 253.361 636.767 252.811C633.481 252.261 634.612 249.343 632.893 247.299C631.175 245.255 624.059 247.205 622.43 246.341C620.801 245.477 619.985 245.104 620.039 242.867C620.047 242.514 619.411 239.553 618.562 240.593C618.197 241.055 618.402 242.356 618.388 242.945C618.365 243.887 618.342 244.829 618.438 245.774C618.737 248.02 620.526 247.12 623.428 248.957C626.332 250.676 627.321 253.646 627.851 256.133C628.274 258.146 630.75 258.087 632.639 257.897C633.82 257.807 635 257.718 636.178 257.746ZM650.096 345.622C649.51 345.491 648.336 345.345 648.083 346.045C647.831 346.746 649.106 347.602 649.092 348.19C649.07 349.133 648.764 352.071 651.584 352.374C654.287 352.674 654.797 351.037 655.451 348.343C655.58 347.875 655.591 347.404 655.367 346.927C655.028 346.33 654.207 346.192 653.618 346.178C653.032 346.046 652.443 346.032 651.739 345.897C651.153 345.766 650.682 345.754 650.096 345.622ZM619.686 277.263C616.498 277.54 613.506 279.471 610.761 280.937C608.972 281.837 607.06 282.97 606.188 284.952C605.442 286.583 605.492 289.412 605.214 291.173C604.81 293.284 599.321 291.267 597.193 291.57C595.064 291.872 595.72 294.009 594.997 294.699C594.155 295.385 591.231 294.491 588.747 294.902C585.789 295.421 587.078 300.636 586.795 302.632C586.511 304.628 585.757 306.613 585.238 308.604C584.205 312.349 586.451 312.05 588.313 313.037C590.174 314.024 588.278 319.398 588.561 322.351C588.849 325.068 592.32 327.743 594.535 328.738C596.049 329.482 597.941 329.174 599.59 329.213C601.474 329.258 603.355 329.421 605.133 328.992C606.91 328.564 608.239 327.182 609.796 326.159C612.193 324.449 614.804 323.686 617.742 323.992C620.798 324.301 623.733 324.725 626.792 324.916C628.441 324.956 631.281 324.435 631.701 326.566C632.018 328.105 631.743 329.748 632.059 331.287C632.687 334.601 634.952 333.477 637.661 333.542C640.369 333.607 640.436 335.729 641.095 337.748C642.19 341.191 644.669 341.015 647.731 341.088C649.85 341.139 651.97 341.19 654.092 341.123C657.751 340.857 660.076 337.26 660.076 337.26C660.076 337.26 665.102 329.133 667.536 325.892C669.97 322.652 671.09 315.256 671.228 309.486C671.366 303.715 663.553 295.398 663.553 295.398C663.553 295.398 653.156 281.835 651.32 279.788C649.484 277.741 650.721 275.297 650.068 273.042C649.533 270.791 647.679 274.399 645.663 274.94C643.647 275.481 644.515 283.513 644.487 284.691C644.459 285.869 641.991 285.574 640.736 283.894C639.48 282.215 638.647 282.548 636.788 281.443C634.93 280.338 633.8 278.308 633.641 275.123C633.599 271.941 630.276 272.922 626.511 272.714C622.746 272.506 624.248 273.72 623.494 275.705C622.992 276.989 621.576 277.073 620.395 277.162C620.042 277.154 619.804 277.266 619.686 277.263ZM698.992 355.513L698.871 355.628C697.539 357.128 693.529 362.216 695.876 362.625C698.105 363.032 700.9 364.395 702.35 362.898C703.805 361.166 703.368 359.741 707.647 358.194C709.786 357.421 711.707 350.987 711.707 350.987C711.707 350.987 711.057 348.615 709.678 347.168C708.526 346.08 705.604 350.016 704.519 351.05C702.713 352.656 700.562 353.901 698.992 355.513ZM718.238 343.956C719.122 341.503 720.854 342.958 720.897 341.192C720.939 339.425 715.834 336.122 714.104 334.549C710.642 331.52 713.79 337.84 712.926 339.469C711.821 341.328 711.703 341.325 712.474 343.582C712.695 344.177 713.216 347.017 713.8 347.266C717.186 348.526 717.352 346.527 718.238 343.956Z"/>
</mask>
<path d="M128.202 28.191C126.694 27.2123 125.183 26.3513 123.425 25.9557C121.078 25.5461 118.364 25.7167 116.155 24.4855C114.644 23.6245 111.684 19.312 115.443 19.7555C118.028 20.0531 123.095 20.0567 124.909 18.0971C129.505 13.1408 135.22 25.4136 140.315 24.2396C143.04 23.5979 143.713 20.0794 146.5 21.7956C148.241 22.8978 150.086 24.5915 151.341 26.2711C153.169 28.6714 151.843 29.9357 149.123 30.3418C146.642 30.6358 144.174 30.3411 141.584 30.279C139.229 30.2226 136.868 30.4017 134.507 30.5807C132.146 30.7598 130.176 29.4166 128.202 28.191ZM155.658 13.2961C155.658 13.2961 156.824 18.7439 158.691 19.4956C160.44 20.2445 161.36 21.2091 162.597 18.7644C163.831 16.4375 161.148 15.3128 159.191 13.3807C157.234 11.4487 154.165 6.78003 155.658 13.2961ZM146.3 44.8843C142.925 43.1539 144.627 40.956 143.543 37.0419C142.458 33.1277 139.892 36.9544 136.39 40.523C132.887 44.0917 129.633 37.2977 127.909 35.4891C126.185 33.6804 127.842 33.3667 118.795 32.3251C109.868 31.1687 110.58 30.9501 106.466 35.4466C102.353 39.9432 109.799 38.9434 114.967 39.6563C120.134 40.3692 120.178 43.4337 119.631 46.6018C119.084 49.77 109.582 48.0106 100.658 46.7364C91.7341 45.4622 92.5104 47.4838 87.87 49.3756C83.2295 51.2674 73.7005 45.7371 69.7278 44.3458C65.7552 42.9546 38.3963 43.9486 34.3925 43.8527C30.3888 43.7568 28.0781 46.7648 24.9826 48.1046C21.8871 49.4443 23.0498 55.0099 22.87 57.5977C22.6902 60.1855 16.8588 57.6893 13.7971 57.6159C10.7355 57.5426 11.5174 59.3287 11.2283 61.5604C10.9392 63.7921 12.2289 64.0587 15.885 63.9106C19.5411 63.7626 21.0578 64.388 21.1163 66.8637C21.1748 69.3394 16.3778 67.9284 13.4339 67.8579C10.49 67.7874 11.5435 72.9969 12.0278 77.3679C12.5122 81.739 15.3553 81.1002 16.9757 82.3172C18.5961 83.5343 20.9117 85.2393 6.87541 90.7942C-7.16087 96.3491 6.32539 94.0801 8.70308 93.1945C11.0808 92.3089 21.5195 89.3777 24.5811 89.4511C27.6428 89.5244 32.4377 86.1046 36.4026 82.9005C40.3676 79.6964 52.4598 81.5179 61.1709 81.8444C69.882 82.1709 76.9614 101.428 81.1301 104.473C85.2987 107.519 85.1971 131.435 84.91 138.497C84.623 145.56 89.6886 150.512 91.9901 152.806C94.2916 155.099 99.7542 168.073 105.907 176.822C112.057 185.688 109.376 174.666 107.61 169.675C105.847 164.567 109.388 169.247 109.388 169.247C109.388 169.247 120.382 182.471 122.475 188.53C124.569 194.589 134.104 199.884 140.569 200.51C147.034 201.136 146.874 202.9 146.874 202.9C146.874 202.9 146.462 205.364 154.211 206.492C161.842 207.618 160.403 213.592 163.526 216.024C166.649 218.455 171.536 221.046 175.893 221.151C180.25 221.255 178.73 220.747 179.475 224.064C180.221 227.381 177.052 231.782 174.758 234.084C172.464 236.386 172.099 241.797 171.947 248.155C171.794 254.514 174.236 255.869 174.236 255.869C174.236 255.869 187.136 278.093 190.267 280.171C193.398 282.249 192.826 286.477 192.826 286.477C192.826 286.477 192.053 318.742 191.876 321.212C191.699 323.682 191.463 323.677 189.273 326.57C187.083 329.463 187.281 335.948 187.281 335.948C187.281 335.948 186.242 364.554 186.192 366.674C186.141 368.793 189.373 371.581 199.951 377.608C210.528 383.634 202.962 374.852 201.833 372.822C200.703 370.792 201.651 365.63 201.745 361.744C201.838 357.858 205.183 355.936 206.535 353.612C207.886 351.287 206.751 349.493 206.85 345.371C206.949 341.25 211.592 339.24 211.592 339.24C211.592 339.24 237.407 314.173 239.465 311.866C241.523 309.559 241.986 304.975 241.813 302.379C241.64 299.782 249.592 292.432 254.025 289.357C258.458 286.282 262.088 277.415 262.371 275.418C262.655 273.422 262.882 268.832 265.88 266.666C268.877 264.499 268.875 259.668 270.174 254.633C271.473 249.597 262.067 248.783 256.502 244.997C250.937 241.211 242.013 239.937 241.306 239.92C240.6 239.903 236.585 240.278 236.891 237.34C237.197 234.402 234.845 229.279 233.492 226.772C232.138 224.265 229.898 224.33 227.189 224.265C224.481 224.2 216.421 216.348 212.945 213.908C209.469 211.469 202.24 213.181 197.561 211.773C192.882 210.364 195.237 210.421 191.026 209.142C186.815 207.863 184.672 213.702 182.656 214.243C180.64 214.784 174.169 214.393 171.823 213.984C169.476 213.574 167.808 209.41 167.31 205.628C166.811 201.846 165.556 200.166 162.419 198.323C159.281 196.481 158.906 192.466 159.327 189.648C159.748 186.831 157.752 186.547 155.4 186.373C153.048 186.199 153.143 187.144 152.506 189.131C151.869 191.119 149.963 192.016 144.919 191.07C139.878 190.007 137.902 183.951 137.429 179.109C136.956 174.266 137.139 171.561 140.503 168.814C143.868 166.067 144.774 167.62 149.231 168.434C153.689 169.247 156.81 166.848 159.827 163.857C162.845 160.866 166.253 166.132 166.253 166.132C166.253 166.132 166.253 166.132 170.901 173.784C175.548 181.436 175.143 173.767 174.14 166.438C173.137 159.109 196.185 136.45 199.679 133.235C203.172 130.02 202.785 131.424 208.684 131.094C214.584 130.764 216.965 124.812 220.439 122.421C223.913 120.03 216.021 119.959 212.533 117.99C209.046 116.021 214.945 115.691 217.09 114.682C219.235 113.673 223.723 113.192 229.603 113.686C235.482 114.18 221.377 93.1055 218.96 90.6912C216.544 88.2768 217.335 84.7611 216.239 81.3179C215.144 77.8748 211.005 83.4311 207.973 87.0111C204.942 90.591 205.147 86.9433 205.672 84.7173C206.196 82.4912 203.898 80.0796 202.911 76.9926C201.925 73.9055 194.366 74.667 191.66 74.4844C188.955 74.3017 189.42 74.5485 188.486 79.1213C187.551 83.694 188.776 86.6689 189.499 90.9279C190.222 95.1869 185.373 100.844 182.594 103.723C179.815 106.602 179.193 103.052 179.146 100.106C179.099 97.159 177.675 97.5962 174.389 97.0462C171.103 96.4962 170.87 96.3728 169.648 93.2801C168.426 90.1874 164.131 87.4924 160.015 87.1581C155.9 86.8239 157.367 79.6718 157.561 76.4952C157.758 73.2008 163.884 73.2298 165.9 72.689C167.916 72.1481 171.264 70.1075 174.471 73.9547C177.68 77.6842 180.947 74.1099 180.947 74.1099C180.947 74.1099 186.104 70.3453 186.16 67.9901C186.217 65.635 185.14 66.3162 181.961 66.24C178.781 66.1638 178.31 66.1525 178.375 63.4441C178.44 60.7357 178.446 60.5002 184.101 60.5179C189.756 60.5356 187.289 55.2922 190.057 52.8842C192.825 50.4762 195.37 52.4224 194.778 57.4746C194.185 62.5269 200.166 58.782 203.432 60.1563C206.699 61.5306 205.128 63.1425 202.288 63.6636C199.448 64.1846 201.309 65.1718 202.06 68.2532C202.811 71.3347 202.478 70.5019 211.41 71.4228C220.343 72.3438 212.799 67.5679 212.232 66.6118C211.666 65.6556 209.014 63.2356 217.128 63.9013C225.242 64.567 220.336 57.8513 220.336 57.8513C220.336 57.8513 214.918 47.9422 208.501 45.3141C202.084 42.6861 203.847 42.8461 200.534 38.5251C197.22 34.2041 184.101 35.8928 180.221 35.5642C176.341 35.2355 176.514 37.8318 174.453 40.2567C172.51 42.6845 177.161 45.2702 177.443 53.1711C177.725 61.0721 172.71 54.0003 172.71 54.0003C172.71 54.0003 169.966 50.5177 168.744 47.425C167.522 44.3323 167.09 42.6724 169.028 40.4802C170.966 38.288 171.849 35.8349 168.082 30.796C164.314 25.7572 161.18 23.7969 159.537 23.5219C157.894 23.2469 158.286 26.5553 158.454 29.3871C158.622 32.2189 160.282 31.7874 162.244 33.4839C164.089 35.1776 163.191 38.2196 162.644 41.3877C162.097 44.5558 162.032 42.3156 159.204 37.4171C156.376 32.5186 154.43 35.0641 151.76 38.2992C149.091 41.5343 156.108 43.7054 156.202 49.5988C156.297 55.4923 153.115 50.5853 153.115 50.5853C153.115 50.5853 149.676 46.6147 146.3 44.8843ZM36.4198 155.952C36.4198 155.952 38.7029 168.849 42.0142 168.339C48.6367 167.32 43.7925 162.962 38.1861 155.994C37.732 155.276 35.7838 152.991 36.4198 155.952ZM177.156 188.072C177.857 188.325 178.561 188.46 179.141 188.827C180.069 189.438 180.75 190.515 181.802 190.894C183.201 191.516 186.061 190.171 187.482 189.851C193.522 188.582 177.631 183.017 174.822 182.243C172.013 181.469 171.202 180.86 164.776 183.534C158.349 186.208 170.119 186.726 170.119 186.726C172.584 187.138 174.933 187.43 177.156 188.072ZM191.32 191.946C191.303 192.653 191.286 193.36 191.401 193.48C191.959 194.79 193.619 194.358 194.797 194.386C195.856 194.412 202.459 194.216 199.426 192.965C197.559 192.214 195.588 190.87 193.485 190.113C190.449 188.98 191.354 190.533 191.32 191.946ZM168.4 22.4382C169.294 24.4626 170.715 24.1432 171.879 24.7602C173.042 25.3771 173.362 26.7987 173.633 30.2221C173.905 33.6455 184.769 32.6097 192.191 32.6697C199.612 32.7297 194.877 28.728 185.451 28.7379C181.327 28.7569 180.873 28.0391 179.749 25.7735C178.625 23.5079 176.744 23.345 174.061 22.2203C171.378 21.0956 171.647 19.6882 169.121 16.9177C165.676 13.1826 167.388 20.4109 167.388 20.4109C167.388 20.4109 167.506 20.4137 168.4 22.4382ZM197.785 25.3808C203.084 25.5078 206.573 17.5794 206.84 16.2897C207.106 15 210.339 12.8388 214.579 12.9404C218.818 13.042 221.055 13.0956 222.993 10.9033C224.931 8.71111 222.903 9.72295 229.063 8.33883C235.223 6.9547 235.151 5.06778 235.089 2.70984C235.028 0.351897 225.134 0.232669 222.422 0.285536C219.711 0.338404 219.907 1.99263 216.918 3.8062C213.929 5.61976 196.19 3.42742 190.541 3.17424C189.952 3.16013 189.363 3.14603 188.887 3.37026C189.568 4.44699 192.035 4.74175 193.084 5.23816C194.6 5.86362 195.396 7.06093 196.672 7.91625C197.95 8.65382 199.478 8.80826 200.889 8.95987C215.689 10.8462 204.236 11.8678 203.055 11.9574C201.875 12.0469 200.008 11.2952 199.581 14.3484C199.155 17.4016 195.305 15.7777 193.301 15.8475C191.296 15.9173 192.011 15.5809 192.101 11.8128C192.192 8.04456 183.461 8.54232 179.69 8.5698C175.919 8.59728 177.373 11.8134 177.05 15.4582C176.727 19.103 177.672 19.0078 181.55 19.4541C185.309 19.8977 183.992 20.8087 184.409 23.0574C184.826 25.306 190.723 25.0938 190.723 25.0938C190.723 25.0938 192.486 25.2539 197.785 25.3808ZM241.125 6.50698C241.125 6.50698 237.733 5.48312 235.907 7.91368C234.082 10.3442 235.96 10.6249 231.836 10.6439C227.712 10.6629 227.941 10.9041 226.94 13.3544C225.939 15.8047 223.881 18.1118 220.937 18.0413C217.993 17.9708 213.308 16.7981 213.725 19.0468C214.14 21.4132 218 27.5147 219.999 27.6804C221.998 27.8461 238.882 26.3654 240.488 33.1199C242.09 39.992 238.993 51.2289 242.128 53.1892C245.262 55.1494 243.795 57.353 242.721 57.9163C241.647 58.4797 240.03 57.1449 239.948 60.5598C239.866 63.9748 240.963 62.4693 242.779 65.3406C244.595 68.2119 245.563 67.1747 245.461 71.4139C245.36 75.6531 244.849 77.2904 248.017 77.8376C251.186 78.3848 253.832 81.0403 254.266 82.5824C254.701 84.1246 257.914 82.7877 258.783 80.9233C259.653 79.059 269.745 65.9867 272.695 65.8217C275.644 65.6567 280.699 66.1313 280.879 63.5435C281.059 60.9557 279.501 57.148 283.154 57.1177C286.807 57.0874 293.752 57.3716 296.896 54.03C300.039 50.6884 306.485 47.1904 300.62 46.1072C297.923 45.5713 295.506 43.157 296.987 40.3647C297.113 40.0142 301.226 40.4662 301.818 40.3626C303.237 40.1609 305.132 39.735 305.99 38.3417C307.345 35.8999 308.699 33.458 310.172 31.019C311.515 29.0482 315.859 24.7928 310.582 23.7238C308.942 23.331 308.163 21.4272 310.566 19.4817C310.566 19.4817 314.288 11.6767 317.82 11.7614C318.88 11.7867 328.901 11.5555 327.527 9.87309C326.61 8.79071 326.611 8.79071 319.556 8.15041C318.617 8.01009 318.048 7.17169 317.232 6.79867C316.063 6.41719 314.53 6.49827 313.352 6.47006C306.985 6.67098 309.101 6.83952 306.447 4.53726C303.792 2.23501 301.201 2.17294 289.776 2.01704C278.233 1.85832 273.904 0.576369 271.019 2.98154C268.134 5.3867 269.392 6.94857 263.387 6.80468C257.381 6.6608 241.125 6.50698 241.125 6.50698ZM301.228 69.9222C301.219 70.2755 301.208 70.7465 301.199 71.0997C301.177 72.0418 301.135 73.8081 302.43 73.8392C304.314 73.8843 306.201 73.8117 308.088 73.7391C309.033 73.6439 310.081 74.1403 310.802 73.5685C312.479 72.4304 313.222 70.9165 315.468 70.6168C316.413 70.5216 318.992 71.0547 319.144 69.6445C319.158 69.0557 318.592 63.151 317.667 62.4219C315.354 60.5991 309.385 63.873 305.381 63.777C303.968 63.7432 302.566 63.2383 301.03 63.4371C299.729 63.6416 300.163 65.1837 300.376 66.1314C300.931 67.5586 301.141 68.624 301.228 69.9222ZM331.167 98.9172C331.167 98.9172 326.375 102.219 326.19 105.043C326.007 107.748 325.061 112.792 328.409 110.751C331.875 108.713 334.461 104.063 334.461 104.063C334.461 104.063 335.511 94.6618 331.167 98.9172ZM338.608 98.1529C339.166 99.4623 339.365 100.999 339.684 102.42C340.211 105.025 338.627 107.226 337.168 109.076C335.834 110.694 334.016 112.771 336.332 114.476C339.461 116.672 343.821 111.71 346.816 109.661C349.211 108.068 348.104 105.096 346.736 103.178C345.031 100.545 342.965 98.2572 341.976 95.288C341.102 92.4392 339.148 90.3894 337.438 87.992C336.182 86.3124 334.399 86.9766 333.619 90.0213C332.965 92.7156 334.816 94.1738 336.43 95.6264C337.355 96.3555 338.16 97.1995 338.608 98.1529ZM378.541 103.469C374.164 104.189 371.787 105.075 367.573 103.913C365.232 103.268 366.447 96.8168 363.985 96.2865C363.167 96.0313 361.891 95.176 361.282 95.9861C360.918 96.4487 361.122 97.7497 361.108 98.3384C361.198 99.5188 361.834 102.48 360.062 102.673C357.698 102.97 358.795 101.464 357.263 106.376C355.732 111.288 350.617 113.286 348.946 114.189C347.275 115.091 344.628 117.385 340.624 117.289C336.623 117.075 336.004 118.356 339.129 120.67C341.56 122.495 341.851 125.094 342.019 127.926C342.019 127.926 342.019 127.926 342.016 128.044C342.106 129.224 342.596 133.36 340.821 133.671C338.693 133.973 331.636 133.451 328.692 133.38C325.748 133.31 326.816 137.93 326.63 140.754C326.445 143.577 327.129 144.536 328.065 144.794C328.999 145.17 331.211 146.283 332.326 148.902C333.442 151.521 337.359 150.319 341.357 150.65C345.355 150.982 344.761 146.255 345.392 144.502C346.023 142.75 344.636 141.656 348.642 141.635C352.531 141.61 354.006 139.053 354.548 136.12C355.092 133.07 357.968 135.967 361.913 133.587C365.858 131.207 371.807 138.655 374.467 140.722C375.74 141.695 379.09 144.485 378.838 145.186C377.974 146.815 371.781 144.663 373.583 148.123C375.943 152.893 378.584 150.835 382.348 146.212C386.226 141.71 377.608 137.498 375.99 136.163C374.376 134.71 370.434 132.024 373.342 128.677C376.247 125.447 382.65 133.613 382.65 133.613C385.537 136.038 389.745 142.384 391.034 147.599C392.443 152.699 393.021 153.184 397.605 153.647C402.189 154.111 398.8 148.02 398.15 145.648C397.379 143.391 397.393 142.803 400.334 142.991C403.275 143.179 404.668 148.986 406.266 151.145C407.863 153.304 413.597 154.973 415.974 154.087C418.47 153.205 419.199 152.28 421.957 155.173C424.716 158.067 418.073 164.86 416.063 165.165C414.052 165.47 410.345 167.738 405.694 165.152C401.046 162.449 400.211 162.9 394.934 161.831C389.658 160.762 390.417 163.49 389.046 166.639C387.674 169.787 385.14 167.37 383.996 165.928C382.853 164.487 373.192 159.543 369.721 156.868C366.25 154.192 366.901 151.616 365.668 148.994C364.435 146.372 360.257 148.629 359.531 149.436C358.804 150.243 355.387 150.279 352.207 150.203C349.028 150.127 347.864 149.51 345.921 151.938C343.978 154.366 344.129 152.955 340.54 155.226C336.951 157.496 333.438 156.587 328.24 157.17C323.042 157.752 324.335 167.68 324.293 169.447C324.251 171.213 323.379 173.195 321.27 172.673C319.162 172.152 315.258 182.662 312.731 184.84C310.205 187.018 311.454 193.882 311.515 196.24C311.577 198.598 309.53 200.434 308.223 200.874C306.917 201.314 308.376 209.243 307.386 211.222C306.396 213.202 313.195 214.661 313.195 214.661C313.764 215.499 318.202 217.137 321.041 221.565C324.562 227.069 328.103 226.8 328.103 226.8C328.103 226.8 352.246 227.261 357.781 227.393C360.136 227.45 362.353 228.328 363.839 230.249C365.207 232.167 366.547 235.262 365.198 237.468C363.969 239.56 363.29 243.314 365.009 245.358C365.925 246.44 367.439 247.184 368.597 248.036C372.312 250.364 373.373 260.169 373.252 265.232C373.173 268.529 372.738 271.936 371.716 275.21C371.456 276.264 371.077 277.316 370.348 278.241C369.372 279.631 368.999 280.447 369.077 282.099C369.015 284.689 368.476 287.504 371.277 288.632C373.027 289.381 375.54 297.571 375.54 297.571C375.54 297.571 382.025 317.049 382.866 321.311C383.706 325.573 385.714 325.385 387.009 325.416C388.304 325.447 389.712 325.716 390.107 323.959C390.5 322.318 392.022 322.708 392.022 322.708C392.022 322.708 393.43 322.978 399.559 322.889C405.805 322.803 410.514 313.136 412.082 311.642C413.649 310.148 413.778 309.68 413.734 306.615C413.575 303.43 414.169 303.209 417.236 303.047C420.421 302.888 420.013 300.286 420.277 294.165C420.541 288.045 423.648 286.234 427.986 282.214C432.324 278.194 429.778 261.52 429.586 254.799C429.393 248.079 433.826 245.004 433.826 245.004C433.826 245.004 448.818 224.155 454.255 218.512C459.693 212.869 451.063 214.076 451.063 214.076C451.063 214.076 443.167 214.122 439.528 213.564C435.886 213.123 432.184 205.376 430.465 203.331C428.747 201.287 424.71 197.656 424.102 193.518C423.494 189.379 422.054 185.574 422.054 185.574C421.72 184.741 418.042 180.883 417.679 176.397C416.859 166.362 420.441 174.225 420.441 174.225C420.441 174.225 421.789 176.967 426.765 180.739C431.738 184.628 434.251 197.767 436.603 202.889C438.954 208.012 438.601 208.004 446.37 208.308C454.136 208.729 465.008 197.561 468.238 195.518C471.468 193.474 470.473 190.74 469.246 187.883C468.018 185.026 465.296 185.55 460.14 184.366C454.981 183.3 453.367 176.899 448.727 173.842C444.088 170.785 448.439 171.125 451.728 171.557C455.016 171.989 455.327 173.764 456.928 175.806C458.526 177.965 461.088 179.204 466.281 178.857C471.471 178.628 474.838 180.712 475.978 182.271C477.119 183.83 480.621 185.21 480.621 185.21C480.621 185.21 489.453 185.422 490.484 186.625C491.516 187.828 490.851 190.993 496.607 191.72C502.363 192.447 504.915 203.937 504.915 203.937C504.915 203.937 506.214 218.578 510.158 221.147C517.815 226.161 516.199 209.981 516.626 206.927C517.053 203.874 525.879 199.373 528.975 198.033C530.284 197.475 530.907 196.076 531.059 194.666C531.199 193.727 530.543 191.59 531.267 190.901C531.867 190.444 534.219 190.618 534.923 190.753C536.448 191.025 539.302 189.915 539.93 193.229C540.557 196.543 544.698 200.766 544.698 200.766C545.962 202.093 547.594 202.839 549.352 203.234C550.877 203.506 552.778 202.845 554.171 203.703C556.145 204.929 554.754 208.901 554.593 210.665C554.548 212.549 554.032 214.422 554.22 216.429C554.404 218.555 555.657 220.352 556.078 222.483C556.397 223.904 556.602 225.205 556.686 226.621C556.686 226.621 561.203 239.69 568.064 238.558C572.676 237.844 564.855 229.88 561.525 226.266C558.195 222.651 558.044 219.113 559.662 215.499C561.28 211.885 564.114 216.548 569.101 219.849C574.089 223.15 572.115 221.924 576.361 216.842C580.604 211.877 577.1 205.666 575.835 204.34C574.571 203.014 569.324 195.819 575.736 193.734C582.031 191.646 588.165 191.321 591.592 190.932C595.018 190.543 594.752 186.884 600.596 179.012C606.44 171.14 601.266 160.883 599.01 156.705C596.636 152.525 596.215 150.394 599.847 146.357C603.478 142.32 606.715 149.821 606.715 149.821C606.715 149.821 610.104 155.911 614.673 161.911C619.243 167.912 620.494 159.93 621.364 158.066C622.236 156.084 619.233 153.537 617.532 150.787C615.831 148.036 617.934 143.845 618.442 142.325C618.949 140.806 627.644 136.89 630.378 135.895C633.112 134.9 636.048 130.375 637.465 120.394C638.883 110.413 640.976 121.421 640.976 121.421C640.976 121.421 640.79 143.921 640.573 148.04C640.357 152.158 640.55 153.93 635.41 156.988C630.271 160.046 629.699 159.326 626.976 159.85C624.254 160.374 623.289 161.293 622.899 167.764C622.508 174.235 625.772 170.778 626.162 169.256C626.552 167.734 627.837 163.287 631.243 163.722C634.65 164.157 640.16 160.401 643.395 158.122C646.631 155.843 645.37 149.451 645.34 145.797C645.31 142.144 644.931 143.195 648.116 143.036C651.301 142.877 650.129 142.613 650.671 139.68C651.212 136.748 649.808 136.361 646.867 136.172C643.926 135.984 644.582 133.172 644.582 133.172C644.582 133.172 645.518 118.702 644.893 115.27C644.266 111.956 640.263 106.912 631.652 107.295C623.042 107.677 636.395 96.2149 640.618 92.0744C644.724 87.9311 648.66 90.8532 648.66 90.8532C648.66 90.8532 653.431 93.324 660.109 94.8979C666.788 96.4718 663.735 91.0966 664.644 87.5836C665.553 84.0707 668.463 85.5543 673.907 89.4551C679.352 93.3559 668.823 100.055 667.476 102.144C666.13 104.232 669.059 109.84 672.325 116.163C675.59 122.486 675.185 114.818 675.715 112.356C676.128 109.892 675.946 107.649 678.464 105.824C680.982 103.999 679.648 100.668 679.769 95.6045C679.89 90.541 683.406 91.3322 688.941 91.4648C694.472 91.7152 695.227 89.7302 696.542 88.937C697.857 88.1437 697.195 86.2427 705.464 85.3804C713.729 84.6358 697.042 63.1456 695.666 61.5809C694.289 60.0162 670.118 60.7332 664.236 60.3566C658.354 59.98 658.68 56.2175 657.536 54.7762C656.392 53.3349 643.058 54.1936 640.587 54.0166C638.117 53.8396 635.651 48.5963 633.537 48.31C631.423 48.0237 630.548 50.1236 628.383 51.9569C626.218 53.7902 626.326 49.3155 626.135 47.4257C625.945 45.536 624.664 44.9162 622.325 44.1532C619.987 43.3903 619.838 49.6313 619.669 51.7481C619.501 53.8649 600.559 52.7042 596.911 52.4989C593.264 52.2937 592.182 48.2618 591.577 44.0057C590.972 39.7495 587.097 44.134 587.097 44.134L578.136 44.3906C578.136 44.3906 563.074 43.5584 559.057 44.0513C555.157 44.547 559.172 39.2233 561.351 36.8012C563.533 34.2613 553.849 30.259 552.697 29.171C551.545 28.083 543.624 29.1892 541.99 28.561C540.473 27.9355 539.358 25.3167 538.867 26.1297C538.376 26.9427 537.728 29.4015 535.931 30.6545C534.133 31.9075 532.496 31.3969 530.132 31.6938C527.769 31.9906 529.156 33.0843 521.16 32.4214C513.161 31.8763 512.681 37.1669 510.138 40.0515C507.477 42.9333 503.243 42.5963 501.238 42.6661C499.231 42.8536 499.841 46.8743 498.84 49.3246C497.839 51.7749 494.206 46.0323 492.81 45.2919C491.417 44.4338 491.778 49.0375 491.778 49.0375C491.778 49.0375 491.333 62.6944 490.71 64.0934C490.087 65.4923 485.895 53.6095 485.96 50.9011C486.142 48.1956 484.046 42.2542 483.6 41.1831C483.27 40.2326 482.055 41.7352 480.474 43.8181C478.892 45.901 479.733 50.1628 479.309 53.0983C478.885 56.0337 477.273 54.4634 472.681 54.3534C468.088 54.2433 467.227 55.7544 465.301 57.4756C463.374 59.1968 456.438 58.5593 452.434 58.4634C448.431 58.3675 446.375 60.5569 442.671 62.7068C438.967 64.8567 439.994 61.3466 437.715 58.1108C435.321 54.7543 434.367 60.1514 433.015 62.4755C431.663 64.7995 424.983 58.3948 421.751 55.6075C418.519 52.8201 416.469 54.774 414.702 54.7317C412.936 54.6893 410.917 55.3479 409.106 52.2411C407.296 49.1343 402.342 49.3691 397.085 47.4758C391.828 45.5825 390.086 49.4289 384.386 51.2954C378.686 53.1618 377.194 56.4251 377.194 56.4251C377.194 56.4251 377.194 56.4251 376.764 59.5961C376.335 62.767 372.364 66.2066 369.818 69.209C367.272 72.2114 362.556 72.3341 359.932 73.6851C357.307 75.0361 358.873 83.4391 358.909 86.8569C358.948 90.1569 364.421 87.9315 367.954 88.0161C371.369 88.098 369.414 90.9967 368.909 92.3985C368.648 93.4527 366.887 93.1748 366.517 93.8729C366.397 93.9879 366.391 94.2234 366.5 94.5794C366.943 95.7683 368.216 96.7414 368.894 97.9359C371.044 101.64 372.789 97.6757 372.789 97.6757C372.789 97.6757 376.311 93.2828 379.485 88.6459C382.292 84.5893 377.423 81.2914 380.46 77.476C383.012 74.2381 386.144 71.3675 389.262 69.0857C394.66 65.0912 395.425 67.5839 396.899 69.9757C398.374 72.3675 389.11 75.4446 386.375 81.3881C383.641 87.3316 392.568 83.5395 389.971 88.6615C384.741 100.436 383.274 102.64 378.541 103.469ZM454.429 48.9675C456.047 50.3023 457.785 51.5222 459.644 52.6271C460.224 52.9945 462.893 54.708 462.231 52.807C461.791 51.5003 460.763 50.1796 459.964 49.1001C458.366 46.941 458.635 45.5335 458.703 42.7074C458.771 39.8813 464.479 37.6616 464.479 37.6616C484.141 28.4711 465.876 33.4534 463.042 33.7389C460.328 33.9096 457.611 34.1979 456.186 34.6351C454.762 35.0723 451.492 38.7643 449.885 41.907C449.392 42.8378 449.599 44.021 449.93 44.9715C450.266 45.6865 450.723 46.2866 451.418 46.7745C452.461 47.5065 453.622 48.2412 454.429 48.9675ZM439.925 280.615C438.366 281.756 438.631 285.415 438.364 291.653C438.322 293.419 440.26 305.955 443.308 301.668C443.311 301.551 447.333 295.992 447.527 292.815C447.723 289.521 450.511 286.288 451.624 284.076C452.738 281.864 452.219 278.906 450.098 274.025C447.976 269.143 445.191 277.206 445.191 277.206C444.453 278.485 441.484 279.474 439.925 280.615ZM560.302 247.798C561.905 249.722 563.506 251.763 565.109 253.687C565.911 254.649 566.713 255.61 567.515 256.572C568.434 257.537 569.589 258.507 570.032 259.696C570.475 260.885 570.317 262.531 571.237 263.495C572.041 264.339 573.337 264.37 574.399 264.278C578.995 264.27 583.582 264.616 588.292 264.729C615.376 265.377 594.931 263.002 593.759 262.739C592.588 262.475 590.1 263.004 587.903 261.302C585.705 259.6 575.566 259.829 575.566 259.829C575.566 259.829 572.031 259.862 572.573 256.929C573.114 253.996 571.695 254.198 567.398 246.672C563.101 239.146 563.213 244.333 556.32 236.981C549.426 229.628 553.608 237.034 554.954 239.894C556.299 242.754 559.391 246.48 559.391 246.48C559.615 246.957 559.957 247.437 560.302 247.798ZM598.973 251.67C598.466 253.19 598.432 254.603 600.184 255.234C603.458 256.255 602.895 255.181 606.243 253.141C606.84 252.801 608.632 251.784 608.534 250.957C608.433 250.247 606.902 250.211 606.322 249.843C605.745 249.358 605.17 248.755 604.463 248.738C603.524 248.598 602.582 248.576 601.637 248.671C600.457 248.76 599.86 249.099 599.484 250.033C599.237 250.498 599.105 251.084 598.973 251.67ZM588.527 250.006C589.587 250.032 590.764 250.06 591.835 249.614C592.786 249.283 593.394 248.473 594.115 247.901C595.436 246.873 595.699 245.701 595.963 244.529C596.746 241.366 596.592 237.946 596.668 234.766C596.804 229.114 595.954 230.154 595.068 227.776C594.628 226.47 590.588 227.905 588.908 229.161C587.229 230.416 588.117 232.676 587.96 234.322C587.909 236.442 585.781 236.744 584.343 237.77C582.545 239.023 580.863 240.397 579.18 241.77C577.018 243.486 578.975 245.418 579.872 247.325C580.096 247.801 580.435 248.398 580.898 248.763C581.705 249.489 582.762 249.632 583.702 249.773C583.819 249.776 583.819 249.776 583.937 249.778C585.465 249.933 586.996 249.97 588.527 250.006ZM608.109 224.436C608.891 226.222 610.026 228.017 611.047 229.691C611.613 230.647 612.871 232.209 614.072 231.295C615.631 230.154 615.325 228.144 615.362 226.613C615.447 223.08 615.924 217.908 614.57 215.401C613.099 212.891 610.306 211.411 608.596 209.013C607.226 207.213 606.042 207.42 604.434 200.784C602.708 194.144 603.099 202.401 602.647 206.514C602.195 210.627 605.884 214.015 605.884 214.015C608.519 217.141 606.663 220.867 608.109 224.436ZM636.178 257.746C637.588 257.898 638.872 258.4 639.786 259.6C640.93 261.041 641.243 262.698 642.149 264.251C642.712 265.325 643.62 266.761 645.16 266.444C646.584 266.007 648.031 264.628 649.172 266.187C650.77 268.346 651.616 267.424 651.616 267.424C652.096 267.082 655.8 264.932 657.532 266.387C667.577 274.994 663.37 268.648 660.858 265.289C658.346 261.93 651.868 256.944 648.994 253.929C646.121 250.915 640.053 253.361 636.767 252.811C633.481 252.261 634.612 249.343 632.893 247.299C631.175 245.255 624.059 247.205 622.43 246.341C620.801 245.477 619.985 245.104 620.039 242.867C620.047 242.514 619.411 239.553 618.562 240.593C618.197 241.055 618.402 242.356 618.388 242.945C618.365 243.887 618.342 244.829 618.438 245.774C618.737 248.02 620.526 247.12 623.428 248.957C626.332 250.676 627.321 253.646 627.851 256.133C628.274 258.146 630.75 258.087 632.639 257.897C633.82 257.807 635 257.718 636.178 257.746ZM650.096 345.622C649.51 345.491 648.336 345.345 648.083 346.045C647.831 346.746 649.106 347.602 649.092 348.19C649.07 349.133 648.764 352.071 651.584 352.374C654.287 352.674 654.797 351.037 655.451 348.343C655.58 347.875 655.591 347.404 655.367 346.927C655.028 346.33 654.207 346.192 653.618 346.178C653.032 346.046 652.443 346.032 651.739 345.897C651.153 345.766 650.682 345.754 650.096 345.622ZM619.686 277.263C616.498 277.54 613.506 279.471 610.761 280.937C608.972 281.837 607.06 282.97 606.188 284.952C605.442 286.583 605.492 289.412 605.214 291.173C604.81 293.284 599.321 291.267 597.193 291.57C595.064 291.872 595.72 294.009 594.997 294.699C594.155 295.385 591.231 294.491 588.747 294.902C585.789 295.421 587.078 300.636 586.795 302.632C586.511 304.628 585.757 306.613 585.238 308.604C584.205 312.349 586.451 312.05 588.313 313.037C590.174 314.024 588.278 319.398 588.561 322.351C588.849 325.068 592.32 327.743 594.535 328.738C596.049 329.482 597.941 329.174 599.59 329.213C601.474 329.258 603.355 329.421 605.133 328.992C606.91 328.564 608.239 327.182 609.796 326.159C612.193 324.449 614.804 323.686 617.742 323.992C620.798 324.301 623.733 324.725 626.792 324.916C628.441 324.956 631.281 324.435 631.701 326.566C632.018 328.105 631.743 329.748 632.059 331.287C632.687 334.601 634.952 333.477 637.661 333.542C640.369 333.607 640.436 335.729 641.095 337.748C642.19 341.191 644.669 341.015 647.731 341.088C649.85 341.139 651.97 341.19 654.092 341.123C657.751 340.857 660.076 337.26 660.076 337.26C660.076 337.26 665.102 329.133 667.536 325.892C669.97 322.652 671.09 315.256 671.228 309.486C671.366 303.715 663.553 295.398 663.553 295.398C663.553 295.398 653.156 281.835 651.32 279.788C649.484 277.741 650.721 275.297 650.068 273.042C649.533 270.791 647.679 274.399 645.663 274.94C643.647 275.481 644.515 283.513 644.487 284.691C644.459 285.869 641.991 285.574 640.736 283.894C639.48 282.215 638.647 282.548 636.788 281.443C634.93 280.338 633.8 278.308 633.641 275.123C633.599 271.941 630.276 272.922 626.511 272.714C622.746 272.506 624.248 273.72 623.494 275.705C622.992 276.989 621.576 277.073 620.395 277.162C620.042 277.154 619.804 277.266 619.686 277.263ZM698.992 355.513L698.871 355.628C697.539 357.128 693.529 362.216 695.876 362.625C698.105 363.032 700.9 364.395 702.35 362.898C703.805 361.166 703.368 359.741 707.647 358.194C709.786 357.421 711.707 350.987 711.707 350.987C711.707 350.987 711.057 348.615 709.678 347.168C708.526 346.08 705.604 350.016 704.519 351.05C702.713 352.656 700.562 353.901 698.992 355.513ZM718.238 343.956C719.122 341.503 720.854 342.958 720.897 341.192C720.939 339.425 715.834 336.122 714.104 334.549C710.642 331.52 713.79 337.84 712.926 339.469C711.821 341.328 711.703 341.325 712.474 343.582C712.695 344.177 713.216 347.017 713.8 347.266C717.186 348.526 717.352 346.527 718.238 343.956Z" stroke="#475566" stroke-opacity="0.3" stroke-width="2" mask="url(#path-1-inside-1_405_5373)"/>
</svg>
