<svg width="179" height="385" viewBox="0 0 179 385" fill="none" xmlns="http://www.w3.org/2000/svg">
<mask id="path-1-inside-1_405_5370" fill="white">
<path d="M-439.486 40.9936C-441.074 40.1508 -442.655 39.4256 -444.441 39.1856C-446.814 38.9832 -449.503 39.391 -451.812 38.3582C-453.392 37.633 -456.719 33.5965 -452.935 33.7088C-450.334 33.7787 -445.287 33.3381 -443.651 31.2271C-439.507 25.887 -432.738 37.6116 -427.766 35.9956C-425.108 35.1176 -424.745 31.5535 -421.819 33.0189C-419.988 33.9642 -418.002 35.4898 -416.604 37.0528C-414.573 39.2837 -415.783 40.6593 -418.457 41.3023C-420.903 41.8127 -423.387 41.7353 -425.973 41.9005C-428.324 42.0508 -430.66 42.4361 -432.996 42.8214C-435.332 43.2067 -437.413 42.0414 -439.486 40.9936ZM-413.441 23.7494C-413.441 23.7494 -411.802 29.0741 -409.877 29.6592C-408.068 30.2518 -407.068 31.1322 -406.05 28.5885C-405.025 26.1624 -407.796 25.2772 -409.914 23.5241C-412.033 21.7709 -415.5 17.3893 -413.441 23.7494ZM-419.994 56.0362C-423.508 54.6084 -422.005 52.2698 -423.429 48.4657C-424.852 44.6617 -427.073 48.6985 -430.249 52.5604C-433.425 56.4223 -437.262 49.9398 -439.138 48.2892C-441.014 46.6386 -439.391 46.1808 -448.495 45.9363C-457.489 45.5667 -456.798 45.2865 -460.502 50.1264C-464.206 54.9662 -456.875 53.3175 -451.665 53.5748C-446.456 53.832 -446.143 56.8808 -446.41 60.0847C-446.678 63.2886 -456.297 62.3689 -465.298 61.8818C-474.3 61.3947 -473.349 63.3404 -477.806 65.6317C-482.263 67.923 -492.24 63.2491 -496.319 62.2115C-500.398 61.1738 -527.565 64.562 -531.562 64.8174C-535.558 65.0728 -537.597 68.2718 -540.563 69.8777C-543.529 71.4836 -541.883 76.9258 -541.835 79.5194C-541.787 82.1131 -547.815 80.1376 -550.871 80.3329C-553.928 80.5282 -552.992 82.2389 -553.085 84.4873C-553.177 86.7358 -551.869 86.8883 -548.24 86.4203C-544.611 85.9524 -543.045 86.4425 -542.77 88.9035C-542.495 91.3646 -547.397 90.3795 -550.336 90.5673C-553.274 90.755 -551.768 95.8521 -550.903 100.164C-550.037 104.476 -547.261 103.59 -545.54 104.661C-543.819 105.731 -541.363 107.226 -554.858 113.99C-568.354 120.754 -555.118 117.312 -552.827 116.221C-550.537 115.13 -540.395 111.296 -537.339 111.1C-534.282 110.905 -529.806 107.078 -526.137 103.539C-522.468 99.9995 -510.263 100.754 -501.556 100.316C-492.85 99.8775 -484.11 118.44 -479.691 121.108C-475.271 123.777 -473.276 147.609 -472.943 154.67C-472.61 161.73 -467.13 166.219 -464.636 168.303C-462.142 170.386 -455.564 182.831 -448.668 191.006C-441.764 199.299 -445.401 188.555 -447.598 183.738C-449.801 178.804 -445.864 183.155 -445.864 183.155C-445.864 183.155 -433.753 195.365 -431.137 201.217C-428.52 207.069 -418.558 211.508 -412.063 211.565C-405.568 211.622 -405.573 213.393 -405.573 213.393C-405.573 213.393 -405.767 215.884 -397.949 216.329C-390.248 216.781 -391.158 222.859 -387.834 225.007C-384.51 227.155 -379.415 229.308 -375.066 229.03C-370.716 228.752 -372.275 228.38 -371.242 231.619C-370.208 234.857 -372.979 239.52 -375.062 242.013C-377.146 244.507 -377.035 249.929 -376.63 256.277C-376.224 262.625 -373.673 263.76 -373.673 263.76C-373.673 263.76 -358.875 284.768 -355.574 286.564C-352.272 288.359 -352.472 292.621 -352.472 292.621C-352.472 292.621 -350.414 324.83 -350.374 327.306C-350.334 329.782 -350.569 329.797 -352.497 332.871C-354.425 335.945 -353.659 342.388 -353.659 342.388C-353.659 342.388 -352.187 370.975 -352.051 373.091C-351.916 375.207 -348.452 377.7 -337.387 382.777C-326.322 387.853 -334.628 379.768 -335.932 377.844C-337.235 375.921 -336.742 370.696 -336.99 366.817C-337.238 362.938 -334.074 360.729 -332.932 358.296C-331.789 355.862 -333.077 354.174 -333.34 350.06C-333.603 345.945 -329.153 343.537 -329.153 343.537C-329.153 343.537 -305.635 316.303 -303.787 313.825C-301.939 311.346 -301.879 306.739 -302.279 304.168C-302.68 301.597 -295.402 293.578 -291.256 290.126C-287.109 286.674 -284.271 277.523 -284.164 275.509C-284.056 273.496 -284.232 268.904 -281.436 266.483C-278.639 264.062 -279.065 259.249 -278.212 254.12C-277.36 248.99 -286.801 249.003 -292.677 245.72C-298.552 242.436 -307.553 241.949 -308.259 241.994C-308.964 242.039 -312.931 242.765 -312.883 239.811C-312.836 236.857 -315.628 231.96 -317.196 229.582C-318.764 227.203 -320.99 227.464 -323.694 227.636C-326.397 227.809 -335.114 220.694 -338.791 218.568C-342.468 216.443 -349.518 218.782 -354.303 217.789C-359.087 216.796 -356.736 216.646 -361.043 215.741C-365.35 214.836 -366.973 220.841 -368.934 221.557C-370.895 222.272 -377.375 222.45 -379.748 222.248C-382.122 222.045 -384.148 218.044 -384.976 214.32C-385.804 210.596 -387.202 209.032 -390.489 207.472C-393.775 205.912 -394.501 201.945 -394.329 199.101C-394.156 196.257 -396.17 196.15 -398.528 196.183C-400.887 196.215 -400.709 197.148 -401.169 199.184C-401.629 201.22 -403.45 202.281 -408.557 201.781C-413.672 201.163 -416.171 195.304 -417.066 190.522C-417.962 185.74 -418.017 183.028 -414.906 179.997C-411.795 176.965 -410.757 178.433 -406.245 178.853C-401.733 179.273 -398.835 176.609 -396.091 173.365C-393.348 170.121 -389.491 175.068 -389.491 175.068C-389.491 175.068 -389.491 175.068 -384.19 182.283C-378.89 189.499 -379.966 181.895 -381.607 174.682C-383.248 167.469 -362.276 142.877 -359.077 139.368C-355.879 135.859 -356.141 137.292 -350.294 136.446C-344.446 135.601 -342.596 129.463 -339.345 126.776C-336.094 124.09 -343.962 124.711 -347.609 123.055C-351.255 121.4 -345.408 120.554 -343.359 119.361C-341.311 118.168 -336.882 117.295 -330.982 117.272C-325.082 117.249 -340.98 97.4914 -343.599 95.2981C-346.217 93.1048 -345.737 89.5333 -347.131 86.1994C-348.524 82.8656 -352.16 88.7633 -354.866 92.5952C-357.572 96.427 -357.687 92.7754 -357.36 90.512C-357.032 88.2485 -359.534 86.0477 -360.787 83.059C-362.04 80.0703 -369.503 81.4914 -372.214 81.5466C-374.926 81.6018 -374.44 81.8068 -374.97 86.4439C-375.5 91.0809 -374.019 93.937 -372.926 98.1163C-371.833 102.295 -376.167 108.356 -378.683 111.467C-381.199 114.579 -382.129 111.097 -382.435 108.166C-382.74 105.235 -384.12 105.795 -387.442 105.535C-390.763 105.276 -391.006 105.173 -392.494 102.199C-393.983 99.2256 -398.497 96.9174 -402.626 96.9452C-406.756 96.973 -405.921 89.7198 -406.006 86.5385C-406.099 83.2395 -399.994 82.7314 -398.033 82.016C-396.072 81.3005 -392.916 78.9743 -389.384 82.5256C-385.86 85.9594 -382.919 82.1125 -382.919 82.1125C-382.919 82.1125 -378.112 77.9104 -378.262 75.5594C-378.413 73.2084 -379.426 73.9813 -382.599 74.1841C-385.773 74.3869 -386.243 74.4169 -386.416 71.7133C-386.589 69.0096 -386.604 68.7745 -380.969 68.2964C-375.334 67.8184 -378.251 62.8114 -375.705 60.1701C-373.159 57.5288 -370.453 59.2443 -370.6 64.329C-370.747 69.4137 -365.117 65.159 -361.743 66.2418C-358.369 67.3245 -359.792 69.0679 -362.576 69.8359C-365.36 70.6039 -363.419 71.4241 -362.401 74.4279C-361.383 77.4316 -361.788 76.6313 -352.809 76.7657C-343.83 76.9002 -351.764 72.8039 -352.411 71.9011C-353.059 70.9982 -355.913 68.82 -347.772 68.7719C-339.631 68.7239 -345.106 62.464 -345.106 62.464C-345.106 62.464 -351.372 53.0679 -357.995 51.0125C-364.618 48.957 -362.848 48.9619 -366.527 44.9479C-370.206 40.9339 -383.127 43.766 -387.021 43.7788C-390.915 43.7915 -390.515 46.3626 -392.355 48.9589C-394.078 51.5476 -389.219 53.7157 -388.245 61.5615C-387.272 69.4073 -392.887 62.8024 -392.887 62.8024C-392.887 62.8024 -395.926 59.5737 -397.414 56.6C-398.903 53.6263 -399.478 52.0106 -397.74 49.657C-396.002 47.3034 -395.337 44.7823 -399.531 40.093C-403.726 35.4038 -407.02 33.7258 -408.681 33.5958C-410.342 33.4659 -409.661 36.7272 -409.246 39.5334C-408.83 42.3396 -407.215 41.7642 -405.111 43.2823C-403.125 44.8078 -403.753 47.9167 -404.02 51.1206C-404.288 54.3245 -404.548 52.0985 -407.794 47.4667C-411.041 42.835 -412.757 45.5412 -415.133 48.9979C-417.508 52.4545 -410.328 54.0022 -409.717 59.8647C-409.106 65.7272 -412.706 61.1179 -412.706 61.1179C-412.706 61.1179 -416.48 57.4641 -419.994 56.0362ZM-519.717 176.307C-519.717 176.307 -516.312 188.955 -513.058 188.157C-506.55 186.561 -511.758 182.644 -517.953 176.195C-518.469 175.519 -520.61 173.413 -519.717 176.307ZM-376.706 195.969C-375.986 196.159 -375.273 196.231 -374.663 196.546C-373.685 197.074 -372.912 198.087 -371.831 198.372C-370.383 198.87 -367.652 197.279 -366.264 196.836C-360.359 195.042 -376.677 190.891 -379.543 190.366C-382.409 189.841 -383.27 189.306 -389.437 192.533C-395.604 195.76 -383.834 195.244 -383.834 195.244C-381.343 195.439 -378.977 195.524 -376.706 195.969ZM-362.257 198.586C-362.212 199.292 -362.167 199.997 -362.042 200.107C-361.372 201.362 -359.756 200.787 -358.581 200.712C-357.523 200.644 -350.962 199.871 -354.094 198.891C-356.02 198.306 -358.101 197.14 -360.262 196.57C-363.386 195.708 -362.347 197.176 -362.257 198.586ZM-399.947 31.7394C-398.879 33.6777 -397.491 33.2349 -396.278 33.7476C-395.065 34.2602 -394.622 35.6483 -394.052 39.0347C-393.481 42.4211 -382.749 40.4371 -375.351 39.8463C-367.953 39.2556 -373.02 35.6844 -382.409 36.5203C-386.516 36.9008 -387.031 36.2255 -388.35 34.0672C-389.668 31.9088 -391.556 31.9115 -394.327 31.0263C-397.099 30.1411 -396.954 28.7154 -399.712 26.177C-403.472 22.7583 -401.133 29.8087 -401.133 29.8087C-401.133 29.8087 -401.015 29.8012 -399.947 31.7394ZM-370.417 32.0951C-365.127 31.7571 -362.346 23.5534 -362.194 22.2453C-362.042 20.9373 -359.01 18.501 -354.779 18.2306C-350.547 17.9602 -348.313 17.8175 -346.575 15.4639C-344.837 13.1103 -346.768 14.2959 -340.753 12.3772C-334.738 10.4584 -334.976 8.58516 -335.243 6.24167C-335.511 3.89817 -345.378 4.64665 -348.074 4.93695C-350.77 5.22726 -350.43 6.85794 -353.249 8.92652C-356.067 10.9951 -373.93 10.366 -379.58 10.609C-380.168 10.6465 -380.755 10.6841 -381.21 10.9492C-380.438 11.9621 -377.954 12.0395 -376.866 12.4421C-375.3 12.9322 -374.402 14.0551 -373.057 14.7954C-371.719 15.418 -370.183 15.4379 -368.765 15.4654C-353.856 16.0471 -365.176 18.0687 -366.344 18.2614C-367.512 18.4541 -369.437 17.8689 -369.595 20.9478C-369.752 24.0266 -373.729 22.7463 -375.72 22.9916C-377.711 23.2368 -377.028 22.8391 -377.268 19.0775C-377.509 15.3159 -386.162 16.577 -389.916 16.9349C-393.67 17.2928 -391.939 20.369 -391.942 24.0281C-391.944 27.6872 -391.011 27.5095 -387.109 27.6143C-383.325 27.7266 -384.558 28.7496 -383.945 30.953C-383.332 33.1565 -377.477 32.4282 -377.477 32.4282C-377.477 32.4282 -375.707 32.4331 -370.417 32.0951ZM-328.898 9.49515C-328.898 9.49515 -332.367 8.77257 -333.973 11.3538C-335.578 13.935 -333.682 14.0499 -337.789 14.4304C-341.896 14.8108 -341.646 15.0309 -342.428 17.5595C-343.211 20.0882 -345.059 22.5668 -347.998 22.7546C-350.937 22.9424 -355.706 22.1849 -355.093 24.3883C-354.473 26.7093 -350.093 32.4489 -348.087 32.4388C-346.081 32.4287 -329.392 29.4738 -327.201 36.0615C-325.002 42.7667 -327.102 54.2318 -323.808 55.9098C-320.514 57.5878 -321.782 59.9114 -322.802 60.5667C-323.822 61.2221 -325.551 60.0342 -325.333 63.4432C-325.115 66.8521 -324.155 65.2564 -322.094 67.9574C-320.033 70.6584 -319.16 69.5404 -318.889 73.7722C-318.619 78.004 -318.984 79.6797 -315.78 79.9471C-312.576 80.2145 -309.707 82.6279 -309.14 84.126C-308.572 85.6241 -305.488 84.0107 -304.785 82.0773C-304.083 80.144 -295.175 66.2374 -292.251 65.8145C-289.327 65.3916 -284.25 65.4213 -284.298 62.8277C-284.345 60.2341 -286.231 56.5776 -282.595 56.2272C-278.958 55.8768 -272.015 55.5512 -269.177 51.947C-266.338 48.3427 -260.224 44.2931 -266.161 43.7282C-268.895 43.4308 -271.514 41.2375 -270.283 38.3262C-270.188 37.966 -266.052 38.0558 -265.471 37.9007C-264.076 37.5754 -262.225 36.9851 -261.492 35.5219C-260.357 32.9707 -259.222 30.4195 -257.969 27.8609C-256.803 25.7799 -252.849 21.1601 -258.199 20.5577C-259.868 20.3102 -260.811 18.482 -258.587 16.3334C-258.587 16.3334 -255.564 8.23224 -252.038 8.00691C-250.98 7.93931 -241.018 6.83067 -242.534 5.2751C-243.542 4.27724 -243.542 4.27724 -250.625 4.2577C-251.573 4.20024 -252.213 3.41494 -253.058 3.11487C-254.256 2.83733 -255.777 3.05252 -256.952 3.12763C-263.278 3.88588 -261.154 3.86823 -264.001 1.80753C-266.847 -0.253166 -269.433 -0.0879257 -280.828 0.758193C-292.34 1.61183 -296.765 0.714231 -299.428 3.36305C-302.092 6.01187 -300.701 7.4574 -306.696 7.84046C-312.691 8.22352 -328.898 9.49515 -328.898 9.49515ZM-263.468 67.3983C-263.446 67.7509 -263.416 68.2211 -263.393 68.5738C-263.333 69.5142 -263.221 71.2774 -261.928 71.1948C-260.047 71.0746 -258.173 70.8369 -256.3 70.5992C-255.367 70.4215 -254.279 70.8241 -253.612 70.1913C-252.041 68.9107 -251.433 67.3374 -249.222 66.8421C-248.289 66.6644 -245.673 66.9694 -245.646 65.5513C-245.683 64.9635 -246.764 59.1311 -247.75 58.4859C-250.213 56.8728 -255.873 60.6574 -259.87 60.9127C-261.28 61.0029 -262.721 60.6228 -264.234 60.9555C-265.512 61.2733 -264.944 62.7714 -264.649 63.6967C-263.971 65.0698 -263.669 66.1127 -263.468 67.3983ZM-231.103 93.6574C-231.103 93.6574 -235.587 97.3668 -235.524 100.196C-235.469 102.907 -235.969 108.014 -232.813 105.688C-229.539 103.354 -227.371 98.4943 -227.371 98.4943C-227.371 98.4943 -227.149 89.0377 -231.103 93.6574ZM-223.757 92.2438C-223.087 93.4993 -222.754 95.0125 -222.311 96.4005C-221.558 98.9491 -222.944 101.28 -224.234 103.251C-225.422 104.979 -227.05 107.208 -224.594 108.703C-221.285 110.617 -217.376 105.292 -214.573 102.988C-212.327 101.192 -213.69 98.3283 -215.221 96.5376C-217.149 94.0642 -219.408 91.9659 -220.654 89.0948C-221.774 86.3337 -223.9 84.463 -225.814 82.2247C-227.212 80.6616 -228.93 81.4795 -229.44 84.5809C-229.855 87.3221 -227.884 88.6125 -226.148 89.918C-225.163 90.5632 -224.288 91.3335 -223.757 92.2438ZM-183.512 94.0394C-187.809 95.1402 -190.1 96.2308 -194.399 95.4433C-196.788 95.0057 -196.143 88.4729 -198.642 88.1604C-199.48 87.9779 -200.825 87.2377 -201.36 88.0981C-201.683 88.5908 -201.365 89.8688 -201.328 90.4566C-201.135 91.6246 -200.242 94.5183 -201.99 94.866C-204.319 95.3689 -203.358 93.7731 -204.453 98.8004C-205.549 103.828 -210.468 106.266 -212.054 107.312C-213.639 108.358 -216.075 110.874 -220.072 111.129C-224.076 111.267 -224.581 112.598 -221.265 114.628C-218.683 116.234 -218.166 118.797 -217.75 121.604C-217.75 121.604 -217.75 121.604 -217.743 121.721C-217.55 122.889 -216.699 126.966 -218.44 127.431C-220.533 127.919 -227.609 128.017 -230.548 128.205C-233.487 128.393 -232.018 132.902 -231.955 135.731C-231.893 138.559 -231.127 139.455 -230.172 139.63C-229.209 139.922 -226.908 140.837 -225.567 143.348C-224.226 145.859 -220.43 144.319 -216.418 144.298C-212.406 144.278 -213.412 139.621 -212.937 137.82C-212.462 136.019 -213.94 135.052 -209.951 134.679C-206.079 134.313 -204.834 131.637 -204.552 128.668C-204.277 125.582 -201.158 128.215 -197.436 125.499C-193.715 122.783 -187.136 129.68 -184.305 131.506C-182.952 132.363 -179.37 134.849 -179.56 135.57C-180.278 137.268 -186.636 135.668 -184.537 138.956C-181.768 143.501 -179.317 141.219 -175.974 136.285C-172.505 131.46 -181.459 128.019 -183.187 126.831C-184.923 125.526 -189.085 123.195 -186.482 119.606C-183.871 116.134 -176.777 123.707 -176.777 123.707C-173.688 125.87 -168.941 131.822 -167.2 136.904C-165.349 141.861 -164.731 142.294 -160.124 142.354C-155.517 142.413 -159.427 136.644 -160.282 134.338C-161.248 132.157 -161.285 131.569 -158.339 131.499C-155.393 131.429 -153.496 137.091 -151.716 139.102C-149.935 141.113 -144.077 142.273 -141.786 141.182C-139.378 140.084 -138.732 139.098 -135.731 141.739C-132.73 144.38 -138.752 151.729 -140.727 152.209C-142.703 152.69 -146.197 155.273 -151.057 153.105C-155.924 150.82 -156.717 151.342 -162.067 150.74C-167.417 150.138 -166.421 152.789 -167.511 156.045C-168.602 159.302 -171.338 157.116 -172.603 155.78C-173.869 154.445 -183.926 150.366 -187.618 148.005C-191.31 145.645 -190.887 143.021 -192.345 140.518C-193.804 138.014 -197.768 140.628 -198.421 141.496C-199.073 142.364 -202.475 142.699 -205.649 142.902C-208.822 143.105 -210.035 142.592 -211.759 145.181C-213.482 147.77 -213.454 146.351 -216.83 148.928C-220.207 151.504 -223.786 150.907 -228.913 151.942C-234.04 152.978 -231.881 162.755 -231.768 164.518C-231.656 166.281 -232.351 168.332 -234.497 167.997C-236.643 167.662 -239.611 178.475 -241.937 180.866C-244.263 183.257 -242.416 189.985 -242.149 192.328C-241.881 194.672 -243.759 196.68 -245.022 197.233C-246.285 197.786 -244.136 205.557 -244.949 207.615C-245.761 209.673 -238.861 210.531 -238.861 210.531C-238.221 211.316 -233.656 212.559 -230.439 216.72C-226.45 221.895 -222.946 221.317 -222.946 221.317C-222.946 221.317 -198.856 219.66 -193.331 219.307C-190.98 219.156 -188.694 219.836 -187.045 221.62C-185.515 223.41 -183.909 226.376 -185.059 228.693C-186.099 230.884 -186.447 234.683 -184.556 236.568C-183.548 237.566 -181.975 238.174 -180.746 238.922C-176.842 240.915 -174.926 250.589 -174.603 255.643C-174.392 258.935 -174.527 262.366 -175.257 265.718C-175.425 266.791 -175.71 267.871 -176.355 268.857C-177.205 270.327 -177.505 271.173 -177.283 272.811C-177.117 275.397 -177.407 278.248 -174.519 279.126C-172.71 279.719 -169.488 287.657 -169.488 287.657C-169.488 287.657 -161.321 306.492 -160.11 310.664C-158.9 314.835 -156.916 314.473 -155.623 314.39C-154.33 314.307 -152.904 314.452 -152.664 312.667C-152.417 310.998 -150.866 311.253 -150.866 311.253C-150.866 311.253 -149.441 311.398 -143.343 310.773C-137.128 310.139 -133.284 300.097 -131.854 298.472C-130.423 296.846 -130.336 296.368 -130.649 293.319C-131.087 290.16 -130.514 289.888 -127.473 289.457C-124.314 289.02 -124.949 286.463 -125.222 280.343C-125.495 274.223 -122.559 272.147 -118.59 267.763C-114.621 263.378 -118.619 246.991 -119.4 240.313C-120.181 233.635 -116.034 230.184 -116.034 230.184C-116.034 230.184 -102.927 208.101 -98.0057 202.003C-93.084 195.905 -101.575 197.864 -101.575 197.864C-101.575 197.864 -109.436 198.602 -113.11 198.365C-116.777 198.245 -121.144 190.852 -123.035 188.966C-124.926 187.081 -129.265 183.817 -130.234 179.748C-131.202 175.679 -132.97 172.015 -132.97 172.015C-133.376 171.214 -137.377 167.693 -138.133 163.256C-139.829 153.332 -135.572 160.85 -135.572 160.85C-135.572 160.85 -133.989 163.464 -128.701 166.785C-123.406 170.223 -119.751 183.091 -116.96 187.988C-114.168 192.885 -114.521 192.907 -106.755 192.529C-98.9818 192.269 -89.1309 180.19 -86.0922 177.872C-83.0536 175.553 -84.2842 172.917 -85.7576 170.178C-87.2309 167.44 -89.897 168.2 -95.1368 167.473C-100.369 166.863 -102.538 160.628 -107.428 157.989C-112.318 155.351 -107.953 155.308 -104.639 155.451C-101.325 155.593 -100.86 157.334 -99.0866 159.227C-97.3057 161.238 -94.6444 162.248 -89.5023 161.447C-84.3526 160.764 -80.816 162.545 -79.5428 163.998C-78.2697 165.451 -74.6606 166.518 -74.6606 166.518C-74.6606 166.518 -65.8443 165.955 -64.7112 167.063C-63.5782 168.171 -63.9631 171.382 -58.1656 171.602C-52.3681 171.822 -48.8183 183.044 -48.8183 183.044C-48.8183 183.044 -46.2412 197.515 -42.0868 199.728C-34.0205 204.052 -37.0479 188.075 -36.8906 184.996C-36.7332 181.918 -28.3349 176.66 -25.3687 175.054C-24.1132 174.383 -23.6156 172.935 -23.5882 171.517C-23.5308 170.569 -24.3713 168.498 -23.711 167.748C-23.1533 167.24 -20.7948 167.208 -20.082 167.28C-18.5388 167.418 -15.7927 166.062 -14.8771 169.308C-13.9615 172.555 -9.46683 176.398 -9.46683 176.398C-8.09113 177.609 -6.40038 178.209 -4.61459 178.449C-3.07138 178.586 -1.23563 177.761 0.227519 178.494C2.301 179.541 1.26329 183.621 1.2584 185.392C1.37858 187.272 1.02858 189.183 1.39132 191.167C1.76164 193.267 3.16738 194.948 3.77275 197.034C4.21556 198.422 4.5333 199.7 4.74099 201.103C4.74099 201.103 10.3867 213.726 17.122 211.997C21.6539 210.881 13.1647 203.634 9.53046 200.325C5.89619 197.016 5.43574 193.505 6.73103 189.763C8.02638 186.021 11.2581 190.418 16.5155 193.269C21.7729 196.12 19.6995 195.072 23.4833 189.637C27.2746 184.319 23.2399 178.44 21.8643 177.229C20.4886 176.019 14.6307 169.311 20.8356 166.672C26.9231 164.041 33.0057 163.18 36.3845 162.492C39.7634 161.804 39.1779 158.182 44.3096 149.828C49.4413 141.474 43.388 131.711 40.7742 127.747C38.0427 123.79 37.4373 121.704 40.7009 117.365C43.9645 113.025 47.8467 120.213 47.8467 120.213C47.8467 120.213 51.7562 125.983 56.8337 131.56C61.9113 137.137 62.4586 129.076 63.1613 127.142C63.8564 125.091 60.6424 122.818 58.7063 120.227C56.7703 117.636 58.4983 113.277 58.8709 111.718C59.2434 110.16 67.5617 105.498 70.1978 104.267C72.8338 103.036 75.3621 98.2716 75.8991 88.2047C76.4362 78.1379 79.4857 88.9198 79.4857 88.9198C79.4857 88.9198 81.273 111.349 81.4183 115.471C81.5636 119.593 81.9114 121.341 77.0596 124.838C72.2077 128.335 71.5749 127.667 68.9088 128.428C66.2427 129.188 65.3624 130.189 65.5404 136.669C65.7184 143.149 68.6669 139.42 68.9219 137.869C69.177 136.318 70.067 131.776 73.4985 131.911C76.93 132.046 82.0894 127.821 85.1131 125.268C88.1367 122.714 86.3205 116.456 85.9701 112.82C85.6197 109.183 85.3346 110.264 88.4935 109.826C91.6523 109.388 90.4618 109.228 90.7443 106.259C91.0267 103.29 89.5935 103.028 86.6473 103.098C83.701 103.168 84.1085 100.309 84.1085 100.309C84.1085 100.309 83.7724 85.8132 82.8492 82.4493C81.9336 79.203 77.5039 74.5287 68.9603 75.6648C60.4168 76.8008 72.7137 64.2121 76.5575 59.7174C80.2839 55.2302 84.4608 57.7961 84.4608 57.7961C84.4608 57.7961 89.4306 59.8391 96.2211 60.8216C103.012 61.8041 99.4997 56.7171 100.097 53.138C100.695 49.5589 103.724 50.7818 109.489 54.1903C115.254 57.5989 105.353 65.1954 104.195 67.3939C103.037 69.5924 106.446 74.922 110.253 80.9343C114.06 86.9467 112.985 79.3435 113.297 76.8449C113.492 74.3538 113.114 72.1353 115.462 70.0968C117.811 68.0583 116.19 64.857 115.867 59.8023C115.544 54.7477 119.116 55.2277 124.64 54.8746C130.173 54.6392 130.75 52.5957 131.991 51.6903C133.231 50.7848 132.406 48.9491 140.567 47.3653C148.735 45.8992 130.228 25.9543 128.72 24.5163C127.212 23.0783 103.197 25.9111 97.3042 26.0515C91.4117 26.192 91.4065 22.4153 90.1408 21.0799C88.8752 19.7444 75.6672 21.7686 73.1911 21.8088C70.715 21.849 67.7984 16.842 65.6675 16.7421C63.5365 16.6422 62.8489 18.8107 60.8532 20.8267C58.8575 22.8427 58.572 18.3758 58.2167 16.51C57.8615 14.6442 56.5309 14.1391 54.1348 13.584C51.7387 13.0289 52.1368 19.2591 52.1545 21.3825C52.1721 23.5059 33.2015 24.0099 29.5499 24.1252C25.8983 24.2405 24.4675 20.3189 23.4918 16.1321C22.5161 11.9454 19.0399 16.6527 19.0399 16.6527L10.1361 17.6937C10.1361 17.6937 -4.94036 18.1849 -8.89948 19.028C-12.7411 19.8637 -9.20749 14.2085 -7.2493 11.6047C-5.29861 8.88343 -15.2956 5.74524 -16.5387 4.7624C-17.7819 3.77956 -25.5751 5.57585 -27.2583 5.09325C-28.824 4.60314 -30.1648 2.09215 -30.5824 2.94505C-31 3.79794 -31.43 6.30405 -33.1107 7.70977C-34.7913 9.11548 -36.467 8.75044 -38.7955 9.25331C-41.124 9.75618 -39.6458 10.724 -47.6693 10.7645C-55.6852 10.9226 -55.6999 16.2349 -57.9806 19.3314C-60.3789 22.4354 -64.6258 22.4707 -66.6166 22.716C-68.6 23.0787 -67.6393 27.0304 -68.4219 29.559C-69.2046 32.0877 -73.3268 26.6856 -74.7824 26.0704C-76.2456 25.3377 -75.4825 29.8921 -75.4825 29.8921C-75.4825 29.8921 -74.7288 43.5355 -75.2264 44.9836C-75.724 46.4318 -80.942 34.9622 -81.1147 32.2585C-81.1699 29.5474 -83.7789 23.8126 -84.3167 22.7847C-84.7295 21.8668 -85.8074 23.4701 -87.2003 25.6836C-88.5933 27.8971 -87.3824 32.0689 -87.5473 35.0301C-87.7122 37.9914 -89.4556 36.5684 -94.04 36.8614C-98.6245 37.1543 -99.3496 38.735 -101.118 40.6185C-102.886 42.5019 -109.851 42.4748 -113.848 42.7302C-117.845 42.9856 -119.7 45.3467 -123.202 47.813C-126.703 50.2793 -125.988 46.6927 -128.542 43.6691C-131.221 40.5354 -131.698 45.9953 -132.841 48.4289C-133.984 50.8626 -141.2 45.068 -144.664 42.5747C-148.128 40.0813 -149.999 42.2074 -151.762 42.3201C-153.525 42.4327 -155.479 43.2657 -157.555 40.3296C-159.631 37.3934 -164.545 38.0616 -169.948 36.6363C-175.35 35.211 -176.748 39.1954 -182.263 41.5542C-187.777 43.9131 -188.978 47.2947 -188.978 47.2947C-188.978 47.2947 -188.978 47.2947 -189.128 50.491C-189.277 53.6874 -192.931 57.4618 -195.205 60.6758C-197.478 63.8899 -202.165 64.4254 -204.661 66.0013C-207.157 67.5771 -204.86 75.8105 -204.525 79.212C-204.197 82.4958 -198.94 79.7993 -195.413 79.574C-192.004 79.3562 -193.697 82.4151 -194.077 83.8558C-194.245 84.9287 -196.023 84.8063 -196.331 85.5341C-196.441 85.6592 -196.426 85.8943 -196.286 86.2394C-195.74 87.3849 -194.387 88.2427 -193.607 89.3731C-191.141 92.8744 -189.75 88.7726 -189.75 88.7726C-189.75 88.7726 -186.627 84.0879 -183.871 79.1906C-181.43 74.9036 -186.57 72.0452 -183.879 67.9782C-181.621 64.5291 -178.752 61.3951 -175.846 58.8488C-170.819 54.3965 -169.839 56.8125 -168.16 59.0659C-166.482 61.3192 -175.441 65.1965 -177.644 71.3568C-179.847 77.5171 -171.286 72.957 -173.424 78.287C-177.602 90.475 -178.87 92.7986 -183.512 94.0394ZM-112.693 33.096C-110.965 34.2839 -109.127 35.3467 -107.178 36.2845C-106.568 36.5996 -103.759 38.0725 -104.585 36.2368C-105.137 34.9738 -106.278 33.7483 -107.168 32.743C-108.949 30.7322 -108.804 29.3066 -108.985 26.4854C-109.165 23.6642 -103.673 20.9527 -103.673 20.9527C-84.8928 10.0742 -102.65 16.6382 -105.449 17.1711C-108.137 17.579 -110.818 18.1044 -112.199 18.6647C-113.58 19.2251 -116.513 23.1895 -117.838 26.461C-118.249 27.4314 -117.938 28.5919 -117.526 29.5098C-117.128 30.1925 -116.62 30.7502 -115.885 31.1754C-114.782 31.8131 -113.561 32.4433 -112.693 33.096ZM-106.838 265.123C-108.291 266.396 -107.705 270.018 -107.425 276.255C-107.312 278.019 -104.283 290.336 -101.622 285.799C-101.629 285.682 -98.1106 279.791 -98.1959 276.61C-98.2887 273.311 -95.7953 269.847 -94.8801 267.546C-93.9648 265.245 -94.7404 262.344 -97.2818 257.667C-99.8232 252.99 -101.891 261.266 -101.891 261.266C-102.514 262.604 -105.385 263.85 -106.838 265.123ZM10.1997 221.882C11.9656 223.657 13.7389 225.551 15.5048 227.326C16.3877 228.214 17.2707 229.102 18.1537 229.99C19.1542 230.87 20.3898 231.735 20.9351 232.881C21.4804 234.026 21.4679 235.679 22.4684 236.56C23.3438 237.33 24.6369 237.247 25.6874 237.062C30.2643 236.652 34.8638 236.594 39.5658 236.293C66.6023 234.566 46.0284 233.992 44.8379 233.832C43.6474 233.672 41.2164 234.418 38.8778 232.915C36.5391 231.412 26.4599 232.528 26.4599 232.528C26.4599 232.528 22.9409 232.871 23.2233 229.902C23.5057 226.933 22.1102 227.258 17.1701 220.138C12.23 213.018 12.7956 218.175 5.2844 211.455C-2.22677 204.735 2.58826 211.745 4.1791 214.476C5.76994 217.207 9.17667 220.649 9.17667 220.649C9.44183 221.104 9.82454 221.552 10.1997 221.882ZM49.0615 222.349C48.6889 223.908 48.7791 225.318 50.5799 225.793C53.9313 226.523 53.276 225.503 56.4322 223.177C56.9974 222.786 58.6931 221.616 58.523 220.801C58.3604 220.103 56.8322 220.2 56.2219 219.885C55.6041 219.453 54.9788 218.902 54.2735 218.948C53.3256 218.89 52.3852 218.95 51.4523 219.128C50.2843 219.32 49.7191 219.711 49.4265 220.674C49.2215 221.159 49.1415 221.754 49.0615 222.349ZM38.5094 221.607C39.5674 221.54 40.7428 221.464 41.7707 220.927C42.6886 220.514 43.2238 219.654 43.8915 219.021C45.117 217.88 45.277 216.69 45.4369 215.499C45.9395 212.28 45.4865 208.886 45.2837 205.712C44.9232 200.07 44.168 201.181 43.0773 198.89C42.5245 197.627 38.6255 199.41 37.0624 200.808C35.4993 202.207 36.5824 204.38 36.57 206.033C36.7052 208.149 34.6118 208.637 33.2688 209.785C31.5882 211.191 30.0326 212.706 28.477 214.222C26.4738 216.121 28.5923 217.874 29.6529 219.694C29.9181 220.15 30.3083 220.715 30.801 221.037C31.6689 221.69 32.7344 221.74 33.6823 221.798C33.7999 221.79 33.7999 221.79 33.9174 221.783C35.4531 221.802 36.9812 221.705 38.5094 221.607ZM55.775 194.419C56.7105 196.13 57.9987 197.818 59.1618 199.396C59.8097 200.299 61.2003 201.745 62.3158 200.729C63.7688 199.456 63.2884 197.48 63.1908 195.952C62.9654 192.426 62.9876 187.231 61.4193 184.852C59.7334 182.481 56.8221 181.251 54.9086 179.013C53.3853 177.34 52.2248 177.65 50.041 171.18C47.7396 164.717 48.8531 172.908 48.7633 177.045C48.6735 181.182 52.6455 184.233 52.6455 184.233C55.5444 187.116 54.0215 190.99 55.775 194.419ZM86.6553 225.141C88.0735 225.168 89.3966 225.556 90.4121 226.671C91.6778 228.006 92.1355 229.63 93.1736 231.098C93.8289 232.118 94.8594 233.469 96.365 233.018C97.7456 232.458 99.0661 230.957 100.339 232.41C102.12 234.421 102.883 233.428 102.883 233.428C103.331 233.045 106.832 230.579 108.685 231.877C119.445 239.57 114.698 233.617 111.902 230.491C109.105 227.365 102.214 222.966 99.0879 220.215C95.9613 217.464 90.1316 220.433 86.8101 220.173C83.4887 219.913 84.3588 216.907 82.4678 215.021C80.5769 213.136 73.6592 215.702 71.9609 214.985C70.2626 214.267 69.4172 213.967 69.2745 211.733C69.2519 211.381 68.3589 208.487 67.6036 209.598C67.281 210.09 67.5987 211.368 67.6363 211.956C67.6964 212.897 67.7565 213.837 67.9341 214.77C68.4294 216.981 70.1326 215.928 73.184 217.503C76.2279 218.961 77.4737 221.832 78.2192 224.263C78.817 226.232 81.2781 225.956 83.1438 225.601C84.3118 225.408 85.4799 225.216 86.6553 225.141ZM108.223 311.459C107.628 311.379 106.445 311.336 106.255 312.057C106.065 312.777 107.41 313.517 107.448 314.105C107.508 315.045 107.46 317.999 110.297 318.054C113.015 318.116 113.38 316.441 113.795 313.699C113.883 313.222 113.853 312.751 113.588 312.296C113.198 311.731 112.367 311.666 111.779 311.704C111.184 311.624 110.596 311.661 109.884 311.589C109.288 311.509 108.818 311.539 108.223 311.459ZM71.9379 246.028C68.7866 246.583 65.9755 248.77 63.3695 250.47C61.6663 251.524 59.8607 252.819 59.1655 254.87C58.5653 256.561 58.8632 259.375 58.7407 261.153C58.5233 263.291 52.8782 261.764 50.7849 262.251C48.6915 262.739 49.532 264.81 48.8717 265.56C48.094 266.318 45.1026 265.683 42.6641 266.311C39.7629 267.087 41.504 272.169 41.3966 274.182C41.2892 276.196 40.7116 278.239 40.3691 280.267C39.669 284.089 41.8799 283.594 43.8208 284.414C45.7617 285.234 44.344 290.754 44.8844 293.67C45.4098 296.351 49.1015 298.712 51.3951 299.51C52.9683 300.118 54.8266 299.645 56.4723 299.54C58.3531 299.419 60.2414 299.417 61.9747 298.834C63.7079 298.251 64.9107 296.758 66.3713 295.602C68.6096 293.689 71.1431 292.701 74.0969 292.748C77.1683 292.788 80.1296 292.953 83.1933 292.875C84.8391 292.77 87.6227 292.002 88.2281 294.088C88.6784 295.593 88.5484 297.254 88.9987 298.76C89.9143 302.006 92.0726 300.688 94.7763 300.515C97.4799 300.342 97.7327 302.451 98.5657 304.404C99.959 307.738 102.413 307.345 105.469 307.15C107.585 307.014 109.701 306.879 111.809 306.626C115.431 306.041 117.431 302.254 117.431 302.254C117.431 302.254 121.725 293.718 123.866 290.276C126.006 286.834 126.474 279.369 126.106 273.609C125.738 267.849 117.226 260.249 117.226 260.249C117.226 260.249 105.68 247.649 103.672 245.771C101.663 243.893 102.681 241.349 101.833 239.161C101.102 236.965 99.572 240.721 97.6112 241.437C95.6504 242.152 97.2191 250.078 97.2942 251.254C97.3693 252.429 94.8857 252.352 93.4875 250.789C92.0893 249.226 91.289 249.631 89.3406 248.693C87.3921 247.755 86.089 245.832 85.6511 242.673C85.3307 239.507 82.1069 240.775 78.3378 240.898C74.5687 241.021 76.172 242.099 75.5944 244.142C75.2068 245.465 73.8037 245.673 72.6357 245.865C72.283 245.888 72.0554 246.02 71.9379 246.028ZM157.797 317.025L157.687 317.15C156.492 318.761 152.943 324.181 155.316 324.384C157.572 324.594 160.476 325.706 161.789 324.088C163.087 322.235 162.527 320.854 166.654 318.938C168.717 317.98 170.067 311.402 170.067 311.402C170.067 311.402 169.211 309.096 167.711 307.776C166.468 306.793 163.902 310.97 162.911 312.095C161.253 313.854 159.22 315.282 157.797 317.025ZM175.957 303.826C176.622 301.305 178.475 302.603 178.362 300.84C178.25 299.076 172.875 296.233 171.014 294.817C167.3 292.104 170.989 298.124 170.271 299.822C169.334 301.771 169.216 301.778 170.182 303.959C170.454 304.532 171.222 307.315 171.825 307.513C175.309 308.471 175.299 306.465 175.957 303.826Z"/>
</mask>
<path d="M-439.486 40.9936C-441.074 40.1508 -442.655 39.4256 -444.441 39.1856C-446.814 38.9832 -449.503 39.391 -451.812 38.3582C-453.392 37.633 -456.719 33.5965 -452.935 33.7088C-450.334 33.7787 -445.287 33.3381 -443.651 31.2271C-439.507 25.887 -432.738 37.6116 -427.766 35.9956C-425.108 35.1176 -424.745 31.5535 -421.819 33.0189C-419.988 33.9642 -418.002 35.4898 -416.604 37.0528C-414.573 39.2837 -415.783 40.6593 -418.457 41.3023C-420.903 41.8127 -423.387 41.7353 -425.973 41.9005C-428.324 42.0508 -430.66 42.4361 -432.996 42.8214C-435.332 43.2067 -437.413 42.0414 -439.486 40.9936ZM-413.441 23.7494C-413.441 23.7494 -411.802 29.0741 -409.877 29.6592C-408.068 30.2518 -407.068 31.1322 -406.05 28.5885C-405.025 26.1624 -407.796 25.2772 -409.914 23.5241C-412.033 21.7709 -415.5 17.3893 -413.441 23.7494ZM-419.994 56.0362C-423.508 54.6084 -422.005 52.2698 -423.429 48.4657C-424.852 44.6617 -427.073 48.6985 -430.249 52.5604C-433.425 56.4223 -437.262 49.9398 -439.138 48.2892C-441.014 46.6386 -439.391 46.1808 -448.495 45.9363C-457.489 45.5667 -456.798 45.2865 -460.502 50.1264C-464.206 54.9662 -456.875 53.3175 -451.665 53.5748C-446.456 53.832 -446.143 56.8808 -446.41 60.0847C-446.678 63.2886 -456.297 62.3689 -465.298 61.8818C-474.3 61.3947 -473.349 63.3404 -477.806 65.6317C-482.263 67.923 -492.24 63.2491 -496.319 62.2115C-500.398 61.1738 -527.565 64.562 -531.562 64.8174C-535.558 65.0728 -537.597 68.2718 -540.563 69.8777C-543.529 71.4836 -541.883 76.9258 -541.835 79.5194C-541.787 82.1131 -547.815 80.1376 -550.871 80.3329C-553.928 80.5282 -552.992 82.2389 -553.085 84.4873C-553.177 86.7358 -551.869 86.8883 -548.24 86.4203C-544.611 85.9524 -543.045 86.4425 -542.77 88.9035C-542.495 91.3646 -547.397 90.3795 -550.336 90.5673C-553.274 90.755 -551.768 95.8521 -550.903 100.164C-550.037 104.476 -547.261 103.59 -545.54 104.661C-543.819 105.731 -541.363 107.226 -554.858 113.99C-568.354 120.754 -555.118 117.312 -552.827 116.221C-550.537 115.13 -540.395 111.296 -537.339 111.1C-534.282 110.905 -529.806 107.078 -526.137 103.539C-522.468 99.9995 -510.263 100.754 -501.556 100.316C-492.85 99.8775 -484.11 118.44 -479.691 121.108C-475.271 123.777 -473.276 147.609 -472.943 154.67C-472.61 161.73 -467.13 166.219 -464.636 168.303C-462.142 170.386 -455.564 182.831 -448.668 191.006C-441.764 199.299 -445.401 188.555 -447.598 183.738C-449.801 178.804 -445.864 183.155 -445.864 183.155C-445.864 183.155 -433.753 195.365 -431.137 201.217C-428.52 207.069 -418.558 211.508 -412.063 211.565C-405.568 211.622 -405.573 213.393 -405.573 213.393C-405.573 213.393 -405.767 215.884 -397.949 216.329C-390.248 216.781 -391.158 222.859 -387.834 225.007C-384.51 227.155 -379.415 229.308 -375.066 229.03C-370.716 228.752 -372.275 228.38 -371.242 231.619C-370.208 234.857 -372.979 239.52 -375.062 242.013C-377.146 244.507 -377.035 249.929 -376.63 256.277C-376.224 262.625 -373.673 263.76 -373.673 263.76C-373.673 263.76 -358.875 284.768 -355.574 286.564C-352.272 288.359 -352.472 292.621 -352.472 292.621C-352.472 292.621 -350.414 324.83 -350.374 327.306C-350.334 329.782 -350.569 329.797 -352.497 332.871C-354.425 335.945 -353.659 342.388 -353.659 342.388C-353.659 342.388 -352.187 370.975 -352.051 373.091C-351.916 375.207 -348.452 377.7 -337.387 382.777C-326.322 387.853 -334.628 379.768 -335.932 377.844C-337.235 375.921 -336.742 370.696 -336.99 366.817C-337.238 362.938 -334.074 360.729 -332.932 358.296C-331.789 355.862 -333.077 354.174 -333.34 350.06C-333.603 345.945 -329.153 343.537 -329.153 343.537C-329.153 343.537 -305.635 316.303 -303.787 313.825C-301.939 311.346 -301.879 306.739 -302.279 304.168C-302.68 301.597 -295.402 293.578 -291.256 290.126C-287.109 286.674 -284.271 277.523 -284.164 275.509C-284.056 273.496 -284.232 268.904 -281.436 266.483C-278.639 264.062 -279.065 259.249 -278.212 254.12C-277.36 248.99 -286.801 249.003 -292.677 245.72C-298.552 242.436 -307.553 241.949 -308.259 241.994C-308.964 242.039 -312.931 242.765 -312.883 239.811C-312.836 236.857 -315.628 231.96 -317.196 229.582C-318.764 227.203 -320.99 227.464 -323.694 227.636C-326.397 227.809 -335.114 220.694 -338.791 218.568C-342.468 216.443 -349.518 218.782 -354.303 217.789C-359.087 216.796 -356.736 216.646 -361.043 215.741C-365.35 214.836 -366.973 220.841 -368.934 221.557C-370.895 222.272 -377.375 222.45 -379.748 222.248C-382.122 222.045 -384.148 218.044 -384.976 214.32C-385.804 210.596 -387.202 209.032 -390.489 207.472C-393.775 205.912 -394.501 201.945 -394.329 199.101C-394.156 196.257 -396.17 196.15 -398.528 196.183C-400.887 196.215 -400.709 197.148 -401.169 199.184C-401.629 201.22 -403.45 202.281 -408.557 201.781C-413.672 201.163 -416.171 195.304 -417.066 190.522C-417.962 185.74 -418.017 183.028 -414.906 179.997C-411.795 176.965 -410.757 178.433 -406.245 178.853C-401.733 179.273 -398.835 176.609 -396.091 173.365C-393.348 170.121 -389.491 175.068 -389.491 175.068C-389.491 175.068 -389.491 175.068 -384.19 182.283C-378.89 189.499 -379.966 181.895 -381.607 174.682C-383.248 167.469 -362.276 142.877 -359.077 139.368C-355.879 135.859 -356.141 137.292 -350.294 136.446C-344.446 135.601 -342.596 129.463 -339.345 126.776C-336.094 124.09 -343.962 124.711 -347.609 123.055C-351.255 121.4 -345.408 120.554 -343.359 119.361C-341.311 118.168 -336.882 117.295 -330.982 117.272C-325.082 117.249 -340.98 97.4914 -343.599 95.2981C-346.217 93.1048 -345.737 89.5333 -347.131 86.1994C-348.524 82.8656 -352.16 88.7633 -354.866 92.5952C-357.572 96.427 -357.687 92.7754 -357.36 90.512C-357.032 88.2485 -359.534 86.0477 -360.787 83.059C-362.04 80.0703 -369.503 81.4914 -372.214 81.5466C-374.926 81.6018 -374.44 81.8068 -374.97 86.4439C-375.5 91.0809 -374.019 93.937 -372.926 98.1163C-371.833 102.295 -376.167 108.356 -378.683 111.467C-381.199 114.579 -382.129 111.097 -382.435 108.166C-382.74 105.235 -384.12 105.795 -387.442 105.535C-390.763 105.276 -391.006 105.173 -392.494 102.199C-393.983 99.2256 -398.497 96.9174 -402.626 96.9452C-406.756 96.973 -405.921 89.7198 -406.006 86.5385C-406.099 83.2395 -399.994 82.7314 -398.033 82.016C-396.072 81.3005 -392.916 78.9743 -389.384 82.5256C-385.86 85.9594 -382.919 82.1125 -382.919 82.1125C-382.919 82.1125 -378.112 77.9104 -378.262 75.5594C-378.413 73.2084 -379.426 73.9813 -382.599 74.1841C-385.773 74.3869 -386.243 74.4169 -386.416 71.7133C-386.589 69.0096 -386.604 68.7745 -380.969 68.2964C-375.334 67.8184 -378.251 62.8114 -375.705 60.1701C-373.159 57.5288 -370.453 59.2443 -370.6 64.329C-370.747 69.4137 -365.117 65.159 -361.743 66.2418C-358.369 67.3245 -359.792 69.0679 -362.576 69.8359C-365.36 70.6039 -363.419 71.4241 -362.401 74.4279C-361.383 77.4316 -361.788 76.6313 -352.809 76.7657C-343.83 76.9002 -351.764 72.8039 -352.411 71.9011C-353.059 70.9982 -355.913 68.82 -347.772 68.7719C-339.631 68.7239 -345.106 62.464 -345.106 62.464C-345.106 62.464 -351.372 53.0679 -357.995 51.0125C-364.618 48.957 -362.848 48.9619 -366.527 44.9479C-370.206 40.9339 -383.127 43.766 -387.021 43.7788C-390.915 43.7915 -390.515 46.3626 -392.355 48.9589C-394.078 51.5476 -389.219 53.7157 -388.245 61.5615C-387.272 69.4073 -392.887 62.8024 -392.887 62.8024C-392.887 62.8024 -395.926 59.5737 -397.414 56.6C-398.903 53.6263 -399.478 52.0106 -397.74 49.657C-396.002 47.3034 -395.337 44.7823 -399.531 40.093C-403.726 35.4038 -407.02 33.7258 -408.681 33.5958C-410.342 33.4659 -409.661 36.7272 -409.246 39.5334C-408.83 42.3396 -407.215 41.7642 -405.111 43.2823C-403.125 44.8078 -403.753 47.9167 -404.02 51.1206C-404.288 54.3245 -404.548 52.0985 -407.794 47.4667C-411.041 42.835 -412.757 45.5412 -415.133 48.9979C-417.508 52.4545 -410.328 54.0022 -409.717 59.8647C-409.106 65.7272 -412.706 61.1179 -412.706 61.1179C-412.706 61.1179 -416.48 57.4641 -419.994 56.0362ZM-519.717 176.307C-519.717 176.307 -516.312 188.955 -513.058 188.157C-506.55 186.561 -511.758 182.644 -517.953 176.195C-518.469 175.519 -520.61 173.413 -519.717 176.307ZM-376.706 195.969C-375.986 196.159 -375.273 196.231 -374.663 196.546C-373.685 197.074 -372.912 198.087 -371.831 198.372C-370.383 198.87 -367.652 197.279 -366.264 196.836C-360.359 195.042 -376.677 190.891 -379.543 190.366C-382.409 189.841 -383.27 189.306 -389.437 192.533C-395.604 195.76 -383.834 195.244 -383.834 195.244C-381.343 195.439 -378.977 195.524 -376.706 195.969ZM-362.257 198.586C-362.212 199.292 -362.167 199.997 -362.042 200.107C-361.372 201.362 -359.756 200.787 -358.581 200.712C-357.523 200.644 -350.962 199.871 -354.094 198.891C-356.02 198.306 -358.101 197.14 -360.262 196.57C-363.386 195.708 -362.347 197.176 -362.257 198.586ZM-399.947 31.7394C-398.879 33.6777 -397.491 33.2349 -396.278 33.7476C-395.065 34.2602 -394.622 35.6483 -394.052 39.0347C-393.481 42.4211 -382.749 40.4371 -375.351 39.8463C-367.953 39.2556 -373.02 35.6844 -382.409 36.5203C-386.516 36.9008 -387.031 36.2255 -388.35 34.0672C-389.668 31.9088 -391.556 31.9115 -394.327 31.0263C-397.099 30.1411 -396.954 28.7154 -399.712 26.177C-403.472 22.7583 -401.133 29.8087 -401.133 29.8087C-401.133 29.8087 -401.015 29.8012 -399.947 31.7394ZM-370.417 32.0951C-365.127 31.7571 -362.346 23.5534 -362.194 22.2453C-362.042 20.9373 -359.01 18.501 -354.779 18.2306C-350.547 17.9602 -348.313 17.8175 -346.575 15.4639C-344.837 13.1103 -346.768 14.2959 -340.753 12.3772C-334.738 10.4584 -334.976 8.58516 -335.243 6.24167C-335.511 3.89817 -345.378 4.64665 -348.074 4.93695C-350.77 5.22726 -350.43 6.85794 -353.249 8.92652C-356.067 10.9951 -373.93 10.366 -379.58 10.609C-380.168 10.6465 -380.755 10.6841 -381.21 10.9492C-380.438 11.9621 -377.954 12.0395 -376.866 12.4421C-375.3 12.9322 -374.402 14.0551 -373.057 14.7954C-371.719 15.418 -370.183 15.4379 -368.765 15.4654C-353.856 16.0471 -365.176 18.0687 -366.344 18.2614C-367.512 18.4541 -369.437 17.8689 -369.595 20.9478C-369.752 24.0266 -373.729 22.7463 -375.72 22.9916C-377.711 23.2368 -377.028 22.8391 -377.268 19.0775C-377.509 15.3159 -386.162 16.577 -389.916 16.9349C-393.67 17.2928 -391.939 20.369 -391.942 24.0281C-391.944 27.6872 -391.011 27.5095 -387.109 27.6143C-383.325 27.7266 -384.558 28.7496 -383.945 30.953C-383.332 33.1565 -377.477 32.4282 -377.477 32.4282C-377.477 32.4282 -375.707 32.4331 -370.417 32.0951ZM-328.898 9.49515C-328.898 9.49515 -332.367 8.77257 -333.973 11.3538C-335.578 13.935 -333.682 14.0499 -337.789 14.4304C-341.896 14.8108 -341.646 15.0309 -342.428 17.5595C-343.211 20.0882 -345.059 22.5668 -347.998 22.7546C-350.937 22.9424 -355.706 22.1849 -355.093 24.3883C-354.473 26.7093 -350.093 32.4489 -348.087 32.4388C-346.081 32.4287 -329.392 29.4738 -327.201 36.0615C-325.002 42.7667 -327.102 54.2318 -323.808 55.9098C-320.514 57.5878 -321.782 59.9114 -322.802 60.5667C-323.822 61.2221 -325.551 60.0342 -325.333 63.4432C-325.115 66.8521 -324.155 65.2564 -322.094 67.9574C-320.033 70.6584 -319.16 69.5404 -318.889 73.7722C-318.619 78.004 -318.984 79.6797 -315.78 79.9471C-312.576 80.2145 -309.707 82.6279 -309.14 84.126C-308.572 85.6241 -305.488 84.0107 -304.785 82.0773C-304.083 80.144 -295.175 66.2374 -292.251 65.8145C-289.327 65.3916 -284.25 65.4213 -284.298 62.8277C-284.345 60.2341 -286.231 56.5776 -282.595 56.2272C-278.958 55.8768 -272.015 55.5512 -269.177 51.947C-266.338 48.3427 -260.224 44.2931 -266.161 43.7282C-268.895 43.4308 -271.514 41.2375 -270.283 38.3262C-270.188 37.966 -266.052 38.0558 -265.471 37.9007C-264.076 37.5754 -262.225 36.9851 -261.492 35.5219C-260.357 32.9707 -259.222 30.4195 -257.969 27.8609C-256.803 25.7799 -252.849 21.1601 -258.199 20.5577C-259.868 20.3102 -260.811 18.482 -258.587 16.3334C-258.587 16.3334 -255.564 8.23224 -252.038 8.00691C-250.98 7.93931 -241.018 6.83067 -242.534 5.2751C-243.542 4.27724 -243.542 4.27724 -250.625 4.2577C-251.573 4.20024 -252.213 3.41494 -253.058 3.11487C-254.256 2.83733 -255.777 3.05252 -256.952 3.12763C-263.278 3.88588 -261.154 3.86823 -264.001 1.80753C-266.847 -0.253166 -269.433 -0.0879257 -280.828 0.758193C-292.34 1.61183 -296.765 0.714231 -299.428 3.36305C-302.092 6.01187 -300.701 7.4574 -306.696 7.84046C-312.691 8.22352 -328.898 9.49515 -328.898 9.49515ZM-263.468 67.3983C-263.446 67.7509 -263.416 68.2211 -263.393 68.5738C-263.333 69.5142 -263.221 71.2774 -261.928 71.1948C-260.047 71.0746 -258.173 70.8369 -256.3 70.5992C-255.367 70.4215 -254.279 70.8241 -253.612 70.1913C-252.041 68.9107 -251.433 67.3374 -249.222 66.8421C-248.289 66.6644 -245.673 66.9694 -245.646 65.5513C-245.683 64.9635 -246.764 59.1311 -247.75 58.4859C-250.213 56.8728 -255.873 60.6574 -259.87 60.9127C-261.28 61.0029 -262.721 60.6228 -264.234 60.9555C-265.512 61.2733 -264.944 62.7714 -264.649 63.6967C-263.971 65.0698 -263.669 66.1127 -263.468 67.3983ZM-231.103 93.6574C-231.103 93.6574 -235.587 97.3668 -235.524 100.196C-235.469 102.907 -235.969 108.014 -232.813 105.688C-229.539 103.354 -227.371 98.4943 -227.371 98.4943C-227.371 98.4943 -227.149 89.0377 -231.103 93.6574ZM-223.757 92.2438C-223.087 93.4993 -222.754 95.0125 -222.311 96.4005C-221.558 98.9491 -222.944 101.28 -224.234 103.251C-225.422 104.979 -227.05 107.208 -224.594 108.703C-221.285 110.617 -217.376 105.292 -214.573 102.988C-212.327 101.192 -213.69 98.3283 -215.221 96.5376C-217.149 94.0642 -219.408 91.9659 -220.654 89.0948C-221.774 86.3337 -223.9 84.463 -225.814 82.2247C-227.212 80.6616 -228.93 81.4795 -229.44 84.5809C-229.855 87.3221 -227.884 88.6125 -226.148 89.918C-225.163 90.5632 -224.288 91.3335 -223.757 92.2438ZM-183.512 94.0394C-187.809 95.1402 -190.1 96.2308 -194.399 95.4433C-196.788 95.0057 -196.143 88.4729 -198.642 88.1604C-199.48 87.9779 -200.825 87.2377 -201.36 88.0981C-201.683 88.5908 -201.365 89.8688 -201.328 90.4566C-201.135 91.6246 -200.242 94.5183 -201.99 94.866C-204.319 95.3689 -203.358 93.7731 -204.453 98.8004C-205.549 103.828 -210.468 106.266 -212.054 107.312C-213.639 108.358 -216.075 110.874 -220.072 111.129C-224.076 111.267 -224.581 112.598 -221.265 114.628C-218.683 116.234 -218.166 118.797 -217.75 121.604C-217.75 121.604 -217.75 121.604 -217.743 121.721C-217.55 122.889 -216.699 126.966 -218.44 127.431C-220.533 127.919 -227.609 128.017 -230.548 128.205C-233.487 128.393 -232.018 132.902 -231.955 135.731C-231.893 138.559 -231.127 139.455 -230.172 139.63C-229.209 139.922 -226.908 140.837 -225.567 143.348C-224.226 145.859 -220.43 144.319 -216.418 144.298C-212.406 144.278 -213.412 139.621 -212.937 137.82C-212.462 136.019 -213.94 135.052 -209.951 134.679C-206.079 134.313 -204.834 131.637 -204.552 128.668C-204.277 125.582 -201.158 128.215 -197.436 125.499C-193.715 122.783 -187.136 129.68 -184.305 131.506C-182.952 132.363 -179.37 134.849 -179.56 135.57C-180.278 137.268 -186.636 135.668 -184.537 138.956C-181.768 143.501 -179.317 141.219 -175.974 136.285C-172.505 131.46 -181.459 128.019 -183.187 126.831C-184.923 125.526 -189.085 123.195 -186.482 119.606C-183.871 116.134 -176.777 123.707 -176.777 123.707C-173.688 125.87 -168.941 131.822 -167.2 136.904C-165.349 141.861 -164.731 142.294 -160.124 142.354C-155.517 142.413 -159.427 136.644 -160.282 134.338C-161.248 132.157 -161.285 131.569 -158.339 131.499C-155.393 131.429 -153.496 137.091 -151.716 139.102C-149.935 141.113 -144.077 142.273 -141.786 141.182C-139.378 140.084 -138.732 139.098 -135.731 141.739C-132.73 144.38 -138.752 151.729 -140.727 152.209C-142.703 152.69 -146.197 155.273 -151.057 153.105C-155.924 150.82 -156.717 151.342 -162.067 150.74C-167.417 150.138 -166.421 152.789 -167.511 156.045C-168.602 159.302 -171.338 157.116 -172.603 155.78C-173.869 154.445 -183.926 150.366 -187.618 148.005C-191.31 145.645 -190.887 143.021 -192.345 140.518C-193.804 138.014 -197.768 140.628 -198.421 141.496C-199.073 142.364 -202.475 142.699 -205.649 142.902C-208.822 143.105 -210.035 142.592 -211.759 145.181C-213.482 147.77 -213.454 146.351 -216.83 148.928C-220.207 151.504 -223.786 150.907 -228.913 151.942C-234.04 152.978 -231.881 162.755 -231.768 164.518C-231.656 166.281 -232.351 168.332 -234.497 167.997C-236.643 167.662 -239.611 178.475 -241.937 180.866C-244.263 183.257 -242.416 189.985 -242.149 192.328C-241.881 194.672 -243.759 196.68 -245.022 197.233C-246.285 197.786 -244.136 205.557 -244.949 207.615C-245.761 209.673 -238.861 210.531 -238.861 210.531C-238.221 211.316 -233.656 212.559 -230.439 216.72C-226.45 221.895 -222.946 221.317 -222.946 221.317C-222.946 221.317 -198.856 219.66 -193.331 219.307C-190.98 219.156 -188.694 219.836 -187.045 221.62C-185.515 223.41 -183.909 226.376 -185.059 228.693C-186.099 230.884 -186.447 234.683 -184.556 236.568C-183.548 237.566 -181.975 238.174 -180.746 238.922C-176.842 240.915 -174.926 250.589 -174.603 255.643C-174.392 258.935 -174.527 262.366 -175.257 265.718C-175.425 266.791 -175.71 267.871 -176.355 268.857C-177.205 270.327 -177.505 271.173 -177.283 272.811C-177.117 275.397 -177.407 278.248 -174.519 279.126C-172.71 279.719 -169.488 287.657 -169.488 287.657C-169.488 287.657 -161.321 306.492 -160.11 310.664C-158.9 314.835 -156.916 314.473 -155.623 314.39C-154.33 314.307 -152.904 314.452 -152.664 312.667C-152.417 310.998 -150.866 311.253 -150.866 311.253C-150.866 311.253 -149.441 311.398 -143.343 310.773C-137.128 310.139 -133.284 300.097 -131.854 298.472C-130.423 296.846 -130.336 296.368 -130.649 293.319C-131.087 290.16 -130.514 289.888 -127.473 289.457C-124.314 289.02 -124.949 286.463 -125.222 280.343C-125.495 274.223 -122.559 272.147 -118.59 267.763C-114.621 263.378 -118.619 246.991 -119.4 240.313C-120.181 233.635 -116.034 230.184 -116.034 230.184C-116.034 230.184 -102.927 208.101 -98.0057 202.003C-93.084 195.905 -101.575 197.864 -101.575 197.864C-101.575 197.864 -109.436 198.602 -113.11 198.365C-116.777 198.245 -121.144 190.852 -123.035 188.966C-124.926 187.081 -129.265 183.817 -130.234 179.748C-131.202 175.679 -132.97 172.015 -132.97 172.015C-133.376 171.214 -137.377 167.693 -138.133 163.256C-139.829 153.332 -135.572 160.85 -135.572 160.85C-135.572 160.85 -133.989 163.464 -128.701 166.785C-123.406 170.223 -119.751 183.091 -116.96 187.988C-114.168 192.885 -114.521 192.907 -106.755 192.529C-98.9818 192.269 -89.1309 180.19 -86.0922 177.872C-83.0536 175.553 -84.2842 172.917 -85.7576 170.178C-87.2309 167.44 -89.897 168.2 -95.1368 167.473C-100.369 166.863 -102.538 160.628 -107.428 157.989C-112.318 155.351 -107.953 155.308 -104.639 155.451C-101.325 155.593 -100.86 157.334 -99.0866 159.227C-97.3057 161.238 -94.6444 162.248 -89.5023 161.447C-84.3526 160.764 -80.816 162.545 -79.5428 163.998C-78.2697 165.451 -74.6606 166.518 -74.6606 166.518C-74.6606 166.518 -65.8443 165.955 -64.7112 167.063C-63.5782 168.171 -63.9631 171.382 -58.1656 171.602C-52.3681 171.822 -48.8183 183.044 -48.8183 183.044C-48.8183 183.044 -46.2412 197.515 -42.0868 199.728C-34.0205 204.052 -37.0479 188.075 -36.8906 184.996C-36.7332 181.918 -28.3349 176.66 -25.3687 175.054C-24.1132 174.383 -23.6156 172.935 -23.5882 171.517C-23.5308 170.569 -24.3713 168.498 -23.711 167.748C-23.1533 167.24 -20.7948 167.208 -20.082 167.28C-18.5388 167.418 -15.7927 166.062 -14.8771 169.308C-13.9615 172.555 -9.46683 176.398 -9.46683 176.398C-8.09113 177.609 -6.40038 178.209 -4.61459 178.449C-3.07138 178.586 -1.23563 177.761 0.227519 178.494C2.301 179.541 1.26329 183.621 1.2584 185.392C1.37858 187.272 1.02858 189.183 1.39132 191.167C1.76164 193.267 3.16738 194.948 3.77275 197.034C4.21556 198.422 4.5333 199.7 4.74099 201.103C4.74099 201.103 10.3867 213.726 17.122 211.997C21.6539 210.881 13.1647 203.634 9.53046 200.325C5.89619 197.016 5.43574 193.505 6.73103 189.763C8.02638 186.021 11.2581 190.418 16.5155 193.269C21.7729 196.12 19.6995 195.072 23.4833 189.637C27.2746 184.319 23.2399 178.44 21.8643 177.229C20.4886 176.019 14.6307 169.311 20.8356 166.672C26.9231 164.041 33.0057 163.18 36.3845 162.492C39.7634 161.804 39.1779 158.182 44.3096 149.828C49.4413 141.474 43.388 131.711 40.7742 127.747C38.0427 123.79 37.4373 121.704 40.7009 117.365C43.9645 113.025 47.8467 120.213 47.8467 120.213C47.8467 120.213 51.7562 125.983 56.8337 131.56C61.9113 137.137 62.4586 129.076 63.1613 127.142C63.8564 125.091 60.6424 122.818 58.7063 120.227C56.7703 117.636 58.4983 113.277 58.8709 111.718C59.2434 110.16 67.5617 105.498 70.1978 104.267C72.8338 103.036 75.3621 98.2716 75.8991 88.2047C76.4362 78.1379 79.4857 88.9198 79.4857 88.9198C79.4857 88.9198 81.273 111.349 81.4183 115.471C81.5636 119.593 81.9114 121.341 77.0596 124.838C72.2077 128.335 71.5749 127.667 68.9088 128.428C66.2427 129.188 65.3624 130.189 65.5404 136.669C65.7184 143.149 68.6669 139.42 68.9219 137.869C69.177 136.318 70.067 131.776 73.4985 131.911C76.93 132.046 82.0894 127.821 85.1131 125.268C88.1367 122.714 86.3205 116.456 85.9701 112.82C85.6197 109.183 85.3346 110.264 88.4935 109.826C91.6523 109.388 90.4618 109.228 90.7443 106.259C91.0267 103.29 89.5935 103.028 86.6473 103.098C83.701 103.168 84.1085 100.309 84.1085 100.309C84.1085 100.309 83.7724 85.8132 82.8492 82.4493C81.9336 79.203 77.5039 74.5287 68.9603 75.6648C60.4168 76.8008 72.7137 64.2121 76.5575 59.7174C80.2839 55.2302 84.4608 57.7961 84.4608 57.7961C84.4608 57.7961 89.4306 59.8391 96.2211 60.8216C103.012 61.8041 99.4997 56.7171 100.097 53.138C100.695 49.5589 103.724 50.7818 109.489 54.1903C115.254 57.5989 105.353 65.1954 104.195 67.3939C103.037 69.5924 106.446 74.922 110.253 80.9343C114.06 86.9467 112.985 79.3435 113.297 76.8449C113.492 74.3538 113.114 72.1353 115.462 70.0968C117.811 68.0583 116.19 64.857 115.867 59.8023C115.544 54.7477 119.116 55.2277 124.64 54.8746C130.173 54.6392 130.75 52.5957 131.991 51.6903C133.231 50.7848 132.406 48.9491 140.567 47.3653C148.735 45.8992 130.228 25.9543 128.72 24.5163C127.212 23.0783 103.197 25.9111 97.3042 26.0515C91.4117 26.192 91.4065 22.4153 90.1408 21.0799C88.8752 19.7444 75.6672 21.7686 73.1911 21.8088C70.715 21.849 67.7984 16.842 65.6675 16.7421C63.5365 16.6422 62.8489 18.8107 60.8532 20.8267C58.8575 22.8427 58.572 18.3758 58.2167 16.51C57.8615 14.6442 56.5309 14.1391 54.1348 13.584C51.7387 13.0289 52.1368 19.2591 52.1545 21.3825C52.1721 23.5059 33.2015 24.0099 29.5499 24.1252C25.8983 24.2405 24.4675 20.3189 23.4918 16.1321C22.5161 11.9454 19.0399 16.6527 19.0399 16.6527L10.1361 17.6937C10.1361 17.6937 -4.94036 18.1849 -8.89948 19.028C-12.7411 19.8637 -9.20749 14.2085 -7.2493 11.6047C-5.29861 8.88343 -15.2956 5.74524 -16.5387 4.7624C-17.7819 3.77956 -25.5751 5.57585 -27.2583 5.09325C-28.824 4.60314 -30.1648 2.09215 -30.5824 2.94505C-31 3.79794 -31.43 6.30405 -33.1107 7.70977C-34.7913 9.11548 -36.467 8.75044 -38.7955 9.25331C-41.124 9.75618 -39.6458 10.724 -47.6693 10.7645C-55.6852 10.9226 -55.6999 16.2349 -57.9806 19.3314C-60.3789 22.4354 -64.6258 22.4707 -66.6166 22.716C-68.6 23.0787 -67.6393 27.0304 -68.4219 29.559C-69.2046 32.0877 -73.3268 26.6856 -74.7824 26.0704C-76.2456 25.3377 -75.4825 29.8921 -75.4825 29.8921C-75.4825 29.8921 -74.7288 43.5355 -75.2264 44.9836C-75.724 46.4318 -80.942 34.9622 -81.1147 32.2585C-81.1699 29.5474 -83.7789 23.8126 -84.3167 22.7847C-84.7295 21.8668 -85.8074 23.4701 -87.2003 25.6836C-88.5933 27.8971 -87.3824 32.0689 -87.5473 35.0301C-87.7122 37.9914 -89.4556 36.5684 -94.04 36.8614C-98.6245 37.1543 -99.3496 38.735 -101.118 40.6185C-102.886 42.5019 -109.851 42.4748 -113.848 42.7302C-117.845 42.9856 -119.7 45.3467 -123.202 47.813C-126.703 50.2793 -125.988 46.6927 -128.542 43.6691C-131.221 40.5354 -131.698 45.9953 -132.841 48.4289C-133.984 50.8626 -141.2 45.068 -144.664 42.5747C-148.128 40.0813 -149.999 42.2074 -151.762 42.3201C-153.525 42.4327 -155.479 43.2657 -157.555 40.3296C-159.631 37.3934 -164.545 38.0616 -169.948 36.6363C-175.35 35.211 -176.748 39.1954 -182.263 41.5542C-187.777 43.9131 -188.978 47.2947 -188.978 47.2947C-188.978 47.2947 -188.978 47.2947 -189.128 50.491C-189.277 53.6874 -192.931 57.4618 -195.205 60.6758C-197.478 63.8899 -202.165 64.4254 -204.661 66.0013C-207.157 67.5771 -204.86 75.8105 -204.525 79.212C-204.197 82.4958 -198.94 79.7993 -195.413 79.574C-192.004 79.3562 -193.697 82.4151 -194.077 83.8558C-194.245 84.9287 -196.023 84.8063 -196.331 85.5341C-196.441 85.6592 -196.426 85.8943 -196.286 86.2394C-195.74 87.3849 -194.387 88.2427 -193.607 89.3731C-191.141 92.8744 -189.75 88.7726 -189.75 88.7726C-189.75 88.7726 -186.627 84.0879 -183.871 79.1906C-181.43 74.9036 -186.57 72.0452 -183.879 67.9782C-181.621 64.5291 -178.752 61.3951 -175.846 58.8488C-170.819 54.3965 -169.839 56.8125 -168.16 59.0659C-166.482 61.3192 -175.441 65.1965 -177.644 71.3568C-179.847 77.5171 -171.286 72.957 -173.424 78.287C-177.602 90.475 -178.87 92.7986 -183.512 94.0394ZM-112.693 33.096C-110.965 34.2839 -109.127 35.3467 -107.178 36.2845C-106.568 36.5996 -103.759 38.0725 -104.585 36.2368C-105.137 34.9738 -106.278 33.7483 -107.168 32.743C-108.949 30.7322 -108.804 29.3066 -108.985 26.4854C-109.165 23.6642 -103.673 20.9527 -103.673 20.9527C-84.8928 10.0742 -102.65 16.6382 -105.449 17.1711C-108.137 17.579 -110.818 18.1044 -112.199 18.6647C-113.58 19.2251 -116.513 23.1895 -117.838 26.461C-118.249 27.4314 -117.938 28.5919 -117.526 29.5098C-117.128 30.1925 -116.62 30.7502 -115.885 31.1754C-114.782 31.8131 -113.561 32.4433 -112.693 33.096ZM-106.838 265.123C-108.291 266.396 -107.705 270.018 -107.425 276.255C-107.312 278.019 -104.283 290.336 -101.622 285.799C-101.629 285.682 -98.1106 279.791 -98.1959 276.61C-98.2887 273.311 -95.7953 269.847 -94.8801 267.546C-93.9648 265.245 -94.7404 262.344 -97.2818 257.667C-99.8232 252.99 -101.891 261.266 -101.891 261.266C-102.514 262.604 -105.385 263.85 -106.838 265.123ZM10.1997 221.882C11.9656 223.657 13.7389 225.551 15.5048 227.326C16.3877 228.214 17.2707 229.102 18.1537 229.99C19.1542 230.87 20.3898 231.735 20.9351 232.881C21.4804 234.026 21.4679 235.679 22.4684 236.56C23.3438 237.33 24.6369 237.247 25.6874 237.062C30.2643 236.652 34.8638 236.594 39.5658 236.293C66.6023 234.566 46.0284 233.992 44.8379 233.832C43.6474 233.672 41.2164 234.418 38.8778 232.915C36.5391 231.412 26.4599 232.528 26.4599 232.528C26.4599 232.528 22.9409 232.871 23.2233 229.902C23.5057 226.933 22.1102 227.258 17.1701 220.138C12.23 213.018 12.7956 218.175 5.2844 211.455C-2.22677 204.735 2.58826 211.745 4.1791 214.476C5.76994 217.207 9.17667 220.649 9.17667 220.649C9.44183 221.104 9.82454 221.552 10.1997 221.882ZM49.0615 222.349C48.6889 223.908 48.7791 225.318 50.5799 225.793C53.9313 226.523 53.276 225.503 56.4322 223.177C56.9974 222.786 58.6931 221.616 58.523 220.801C58.3604 220.103 56.8322 220.2 56.2219 219.885C55.6041 219.453 54.9788 218.902 54.2735 218.948C53.3256 218.89 52.3852 218.95 51.4523 219.128C50.2843 219.32 49.7191 219.711 49.4265 220.674C49.2215 221.159 49.1415 221.754 49.0615 222.349ZM38.5094 221.607C39.5674 221.54 40.7428 221.464 41.7707 220.927C42.6886 220.514 43.2238 219.654 43.8915 219.021C45.117 217.88 45.277 216.69 45.4369 215.499C45.9395 212.28 45.4865 208.886 45.2837 205.712C44.9232 200.07 44.168 201.181 43.0773 198.89C42.5245 197.627 38.6255 199.41 37.0624 200.808C35.4993 202.207 36.5824 204.38 36.57 206.033C36.7052 208.149 34.6118 208.637 33.2688 209.785C31.5882 211.191 30.0326 212.706 28.477 214.222C26.4738 216.121 28.5923 217.874 29.6529 219.694C29.9181 220.15 30.3083 220.715 30.801 221.037C31.6689 221.69 32.7344 221.74 33.6823 221.798C33.7999 221.79 33.7999 221.79 33.9174 221.783C35.4531 221.802 36.9812 221.705 38.5094 221.607ZM55.775 194.419C56.7105 196.13 57.9987 197.818 59.1618 199.396C59.8097 200.299 61.2003 201.745 62.3158 200.729C63.7688 199.456 63.2884 197.48 63.1908 195.952C62.9654 192.426 62.9876 187.231 61.4193 184.852C59.7334 182.481 56.8221 181.251 54.9086 179.013C53.3853 177.34 52.2248 177.65 50.041 171.18C47.7396 164.717 48.8531 172.908 48.7633 177.045C48.6735 181.182 52.6455 184.233 52.6455 184.233C55.5444 187.116 54.0215 190.99 55.775 194.419ZM86.6553 225.141C88.0735 225.168 89.3966 225.556 90.4121 226.671C91.6778 228.006 92.1355 229.63 93.1736 231.098C93.8289 232.118 94.8594 233.469 96.365 233.018C97.7456 232.458 99.0661 230.957 100.339 232.41C102.12 234.421 102.883 233.428 102.883 233.428C103.331 233.045 106.832 230.579 108.685 231.877C119.445 239.57 114.698 233.617 111.902 230.491C109.105 227.365 102.214 222.966 99.0879 220.215C95.9613 217.464 90.1316 220.433 86.8101 220.173C83.4887 219.913 84.3588 216.907 82.4678 215.021C80.5769 213.136 73.6592 215.702 71.9609 214.985C70.2626 214.267 69.4172 213.967 69.2745 211.733C69.2519 211.381 68.3589 208.487 67.6036 209.598C67.281 210.09 67.5987 211.368 67.6363 211.956C67.6964 212.897 67.7565 213.837 67.9341 214.77C68.4294 216.981 70.1326 215.928 73.184 217.503C76.2279 218.961 77.4737 221.832 78.2192 224.263C78.817 226.232 81.2781 225.956 83.1438 225.601C84.3118 225.408 85.4799 225.216 86.6553 225.141ZM108.223 311.459C107.628 311.379 106.445 311.336 106.255 312.057C106.065 312.777 107.41 313.517 107.448 314.105C107.508 315.045 107.46 317.999 110.297 318.054C113.015 318.116 113.38 316.441 113.795 313.699C113.883 313.222 113.853 312.751 113.588 312.296C113.198 311.731 112.367 311.666 111.779 311.704C111.184 311.624 110.596 311.661 109.884 311.589C109.288 311.509 108.818 311.539 108.223 311.459ZM71.9379 246.028C68.7866 246.583 65.9755 248.77 63.3695 250.47C61.6663 251.524 59.8607 252.819 59.1655 254.87C58.5653 256.561 58.8632 259.375 58.7407 261.153C58.5233 263.291 52.8782 261.764 50.7849 262.251C48.6915 262.739 49.532 264.81 48.8717 265.56C48.094 266.318 45.1026 265.683 42.6641 266.311C39.7629 267.087 41.504 272.169 41.3966 274.182C41.2892 276.196 40.7116 278.239 40.3691 280.267C39.669 284.089 41.8799 283.594 43.8208 284.414C45.7617 285.234 44.344 290.754 44.8844 293.67C45.4098 296.351 49.1015 298.712 51.3951 299.51C52.9683 300.118 54.8266 299.645 56.4723 299.54C58.3531 299.419 60.2414 299.417 61.9747 298.834C63.7079 298.251 64.9107 296.758 66.3713 295.602C68.6096 293.689 71.1431 292.701 74.0969 292.748C77.1683 292.788 80.1296 292.953 83.1933 292.875C84.8391 292.77 87.6227 292.002 88.2281 294.088C88.6784 295.593 88.5484 297.254 88.9987 298.76C89.9143 302.006 92.0726 300.688 94.7763 300.515C97.4799 300.342 97.7327 302.451 98.5657 304.404C99.959 307.738 102.413 307.345 105.469 307.15C107.585 307.014 109.701 306.879 111.809 306.626C115.431 306.041 117.431 302.254 117.431 302.254C117.431 302.254 121.725 293.718 123.866 290.276C126.006 286.834 126.474 279.369 126.106 273.609C125.738 267.849 117.226 260.249 117.226 260.249C117.226 260.249 105.68 247.649 103.672 245.771C101.663 243.893 102.681 241.349 101.833 239.161C101.102 236.965 99.572 240.721 97.6112 241.437C95.6504 242.152 97.2191 250.078 97.2942 251.254C97.3693 252.429 94.8857 252.352 93.4875 250.789C92.0893 249.226 91.289 249.631 89.3406 248.693C87.3921 247.755 86.089 245.832 85.6511 242.673C85.3307 239.507 82.1069 240.775 78.3378 240.898C74.5687 241.021 76.172 242.099 75.5944 244.142C75.2068 245.465 73.8037 245.673 72.6357 245.865C72.283 245.888 72.0554 246.02 71.9379 246.028ZM157.797 317.025L157.687 317.15C156.492 318.761 152.943 324.181 155.316 324.384C157.572 324.594 160.476 325.706 161.789 324.088C163.087 322.235 162.527 320.854 166.654 318.938C168.717 317.98 170.067 311.402 170.067 311.402C170.067 311.402 169.211 309.096 167.711 307.776C166.468 306.793 163.902 310.97 162.911 312.095C161.253 313.854 159.22 315.282 157.797 317.025ZM175.957 303.826C176.622 301.305 178.475 302.603 178.362 300.84C178.25 299.076 172.875 296.233 171.014 294.817C167.3 292.104 170.989 298.124 170.271 299.822C169.334 301.771 169.216 301.778 170.182 303.959C170.454 304.532 171.222 307.315 171.825 307.513C175.309 308.471 175.299 306.465 175.957 303.826Z" stroke="#475566" stroke-opacity="0.3" stroke-width="2" mask="url(#path-1-inside-1_405_5370)"/>
</svg>
