<svg width="69" height="256" viewBox="0 0 69 256" fill="none" xmlns="http://www.w3.org/2000/svg">
<mask id="path-1-inside-1_405_7894" fill="white">
<path d="M-214.828 168.758C-215.602 168.93 -216.339 169.139 -217.007 169.569C-217.861 170.18 -218.646 171.086 -219.716 171.4C-220.453 171.609 -222.724 171.207 -221.423 170.162C-220.53 169.441 -218.963 167.85 -219.019 166.674C-219.157 163.697 -213.532 165.693 -212.327 163.729C-211.687 162.674 -212.585 161.375 -211.184 161.029C-210.3 160.822 -209.197 160.766 -208.281 160.89C-206.962 161.057 -206.974 161.865 -207.687 162.845C-208.361 163.716 -209.216 164.401 -210.036 165.196C-210.782 165.919 -211.455 166.717 -212.128 167.514C-212.801 168.312 -213.833 168.516 -214.828 168.758ZM-211.026 155.523C-211.026 155.523 -208.953 156.84 -208.14 156.486C-207.364 156.167 -206.776 156.176 -207.163 155.032C-207.513 153.925 -208.696 154.421 -209.908 154.439C-211.12 154.457 -213.536 153.979 -211.026 155.523ZM-203.987 168.227C-205.574 168.753 -205.739 167.539 -207.305 166.67C-208.87 165.802 -208.46 167.791 -208.421 169.995C-208.381 172.199 -211.523 171.122 -212.624 171.105C-213.725 171.088 -213.312 170.47 -216.435 172.993C-219.557 175.442 -219.406 175.15 -219.264 177.833C-219.121 180.516 -217.134 177.866 -215.313 176.462C-213.493 175.058 -212.515 175.991 -211.689 177.142C-210.862 178.293 -214.351 180.736 -217.509 183.148C-220.668 185.56 -219.792 185.94 -220.631 187.984C-221.471 190.027 -226.154 191.314 -227.819 192.133C-229.484 192.952 -237.626 201.86 -238.893 203.09C-240.161 204.319 -239.929 205.975 -240.465 207.362C-241 208.749 -238.891 210.103 -238.133 210.959C-237.375 211.816 -239.962 212.878 -240.931 213.817C-241.9 214.757 -241.097 215.063 -240.485 215.844C-239.872 216.624 -239.39 216.301 -238.307 215.106C-237.224 213.911 -236.558 213.628 -235.762 214.374C-234.965 215.121 -236.891 216.193 -237.823 217.097C-238.755 218 -236.792 219.279 -235.268 220.477C-233.744 221.676 -233.066 220.585 -232.183 220.451C-231.3 220.318 -230.048 220.117 -232.639 226.246C-235.23 232.376 -231.776 227.435 -231.32 226.413C-230.864 225.392 -228.559 221.205 -227.59 220.265C-226.621 219.325 -226.214 216.761 -225.996 214.524C-225.778 212.288 -221.469 209.049 -218.674 206.411C-215.88 203.773 -207.638 207.499 -205.392 207.129C-203.147 206.76 -195.66 214.182 -193.528 216.455C-191.396 218.728 -188.274 218.666 -186.842 218.651C-185.409 218.636 -179.643 220.928 -174.991 221.697C-170.303 222.504 -174.597 219.941 -176.711 218.953C-178.862 217.929 -176.297 218.262 -176.297 218.262C-176.297 218.262 -168.742 218.892 -166.19 220.106C-163.638 221.321 -159.027 219.959 -156.833 218.12C-154.638 216.281 -154.133 216.877 -154.133 216.877C-154.133 216.877 -153.486 217.768 -150.736 215.68C-148.024 213.629 -146.591 215.928 -144.861 215.697C-143.132 215.467 -140.807 214.731 -139.428 213.394C-138.049 212.056 -138.678 212.377 -137.405 213.168C-136.132 213.958 -135.727 216.315 -135.712 217.747C-135.698 219.179 -134.109 220.966 -132.157 222.979C-130.205 224.992 -129.025 224.643 -129.025 224.643C-129.025 224.643 -118.052 227.456 -116.431 227.113C-114.81 226.771 -113.658 228.258 -113.658 228.258C-113.658 228.258 -103.753 238.471 -103.031 239.29C-102.309 240.109 -102.384 240.181 -102.151 241.764C-101.918 243.347 -99.8184 245.288 -99.8184 245.288C-99.8184 245.288 -91.1462 254.455 -90.4955 255.126C-89.8448 255.797 -87.9697 255.642 -82.8063 254.179C-77.6429 252.716 -82.7419 252.381 -83.7292 252.108C-84.7165 251.836 -86.0461 249.943 -87.239 248.713C-88.4319 247.483 -88.0027 245.837 -88.3156 244.694C-88.6286 243.551 -89.5435 243.353 -90.8087 242.048C-92.0739 240.744 -91.2708 238.663 -91.2708 238.663C-91.2708 238.663 -91.1741 222.801 -91.2633 221.441C-91.3526 220.081 -92.6506 218.519 -93.5204 217.771C-94.3902 217.023 -94.2435 212.252 -93.8402 209.908C-93.437 207.564 -95.1033 203.682 -95.6433 202.976C-96.1832 202.27 -97.5558 200.781 -97.3107 199.169C-97.0656 197.557 -98.5849 196.064 -99.7666 194.1C-100.948 192.136 -104.111 194.841 -107.021 195.421C-109.931 196 -113.089 198.412 -113.313 198.629C-113.536 198.846 -114.659 200.224 -115.488 199.22C-116.317 198.216 -118.655 197.372 -119.861 197.023C-121.068 196.674 -121.74 197.398 -122.597 198.229C-123.454 199.061 -128.413 199.168 -130.255 199.507C-132.096 199.846 -133.791 202.648 -135.68 203.683C-137.569 204.719 -136.823 203.996 -138.527 204.925C-140.23 205.854 -139.056 208.332 -139.509 209.133C-139.962 209.934 -142.085 211.847 -142.939 212.458C-143.793 213.07 -145.617 212.307 -146.96 211.295C-148.303 210.283 -149.219 210.159 -150.768 210.576C-152.317 210.992 -153.695 209.87 -154.451 208.867C-155.206 207.863 -155.912 208.403 -156.694 209.089C-157.476 209.775 -157.149 210.037 -156.721 210.851C-156.293 211.666 -156.6 212.542 -158.456 213.836C-160.348 215.092 -162.863 213.842 -164.531 212.494C-166.2 211.146 -166.994 210.253 -166.817 208.346C-166.641 206.439 -165.873 206.635 -164.24 205.485C-162.606 204.335 -162.396 202.612 -162.404 200.739C-162.412 198.866 -159.703 199.422 -159.703 199.422C-159.703 199.422 -159.703 199.422 -155.862 200.326C-152.02 201.229 -154.556 198.987 -157.17 197.037C-159.784 195.088 -159.785 180.84 -159.716 178.748C-159.648 176.656 -159.326 177.212 -157.606 175.255C-155.887 173.299 -157.022 170.711 -156.701 168.88C-156.379 167.048 -158.84 169.508 -160.537 169.996C-162.233 170.484 -160.514 168.527 -160.168 167.541C-159.823 166.555 -158.587 164.995 -156.615 163.299C-154.643 161.604 -165.627 159.526 -167.133 159.539C-168.638 159.553 -169.499 158.218 -170.92 157.498C-172.341 156.778 -171.874 159.797 -171.685 161.856C-171.496 163.915 -172.58 162.724 -173.117 161.871C-173.655 161.018 -175.124 160.995 -176.399 160.352C-177.674 159.708 -179.771 162.319 -180.664 163.114C-181.558 163.908 -181.336 163.838 -180.187 165.544C-179.039 167.251 -177.725 167.786 -176.163 168.874C-174.6 169.963 -174.32 173.236 -174.274 174.999C-174.227 176.762 -175.535 175.861 -176.476 174.965C-177.417 174.07 -177.72 174.652 -178.908 175.515C-180.097 176.379 -180.208 176.414 -181.557 175.842C-182.907 175.27 -185.082 175.788 -186.459 176.978C-187.836 178.169 -189.631 175.498 -190.569 174.455C-191.544 173.375 -189.642 171.458 -189.189 170.657C-188.736 169.856 -188.343 168.173 -186.143 168.354C-183.978 168.497 -184.092 166.366 -184.092 166.366C-184.092 166.366 -183.682 163.581 -184.405 162.836C-185.128 162.09 -185.247 162.639 -186.253 163.615C-187.26 164.591 -187.409 164.736 -188.24 163.878C-189.072 163.021 -189.144 162.947 -187.391 161.174C-185.638 159.402 -188.049 158.557 -187.95 156.943C-187.852 155.328 -186.454 155.13 -185.048 156.877C-183.643 158.625 -182.972 155.587 -181.531 154.985C-180.089 154.383 -180.068 155.375 -180.782 156.429C-181.496 157.482 -180.61 157.202 -179.409 157.918C-178.209 158.635 -178.573 158.482 -175.524 155.958C-172.474 153.435 -176.306 154.331 -176.782 154.213C-177.258 154.096 -178.838 154.182 -176.121 151.837C-173.405 149.491 -177.032 148.958 -177.032 148.958C-177.032 148.958 -181.821 147.6 -184.631 148.805C-187.44 150.01 -186.845 149.505 -189.227 149.212C-191.609 148.918 -195.132 153.564 -196.435 154.683C-197.737 155.801 -196.867 156.549 -196.742 157.946C-196.579 159.307 -194.329 158.644 -191.758 160.997C-189.187 163.35 -192.96 162.741 -192.96 162.741C-192.96 162.741 -194.903 162.528 -196.253 161.956C-197.603 161.385 -198.258 161.007 -198.348 159.721C-198.439 158.434 -198.937 157.398 -201.685 157.025C-204.434 156.653 -206.018 157.032 -206.613 157.464C-207.207 157.895 -206.045 158.795 -205.103 159.617C-204.161 160.439 -203.784 159.784 -202.644 159.691C-201.542 159.635 -200.863 160.857 -200.036 162.008C-199.209 163.159 -199.933 162.487 -202.347 161.862C-204.761 161.238 -204.562 162.636 -204.37 164.475C-204.178 166.314 -201.327 164.779 -199.445 166.571C-197.563 168.362 -200.089 167.846 -200.089 167.846C-200.089 167.846 -202.4 167.7 -203.987 168.227ZM-203.025 237.093C-203.025 237.093 -198.265 240.361 -197.402 239.163C-195.676 236.765 -198.543 236.942 -202.466 236.551C-202.832 236.472 -204.153 236.378 -203.025 237.093ZM-149.436 202.774C-149.14 202.632 -148.881 202.452 -148.586 202.384C-148.107 202.281 -147.558 202.399 -147.114 202.186C-146.486 201.938 -146.025 200.624 -145.686 200.078C-144.219 197.787 -150.879 201.063 -151.99 201.707C-153.102 202.351 -153.544 202.418 -154.689 205.264C-155.834 208.111 -152.034 204.571 -152.034 204.571C-151.143 203.923 -150.325 203.275 -149.436 202.774ZM-143.841 199.519C-143.625 199.742 -143.408 199.966 -143.334 199.967C-142.75 200.197 -142.373 199.541 -142 199.18C-141.665 198.855 -139.686 196.718 -141.016 197.285C-141.83 197.64 -142.861 197.845 -143.749 198.272C-145.043 198.876 -144.275 199.071 -143.841 199.519ZM-204.214 154.343C-203.302 154.687 -202.963 154.142 -202.409 153.966C-201.856 153.791 -201.31 154.13 -200.15 155.103C-198.99 156.075 -195.958 152.34 -193.646 150.025C-191.334 147.71 -194.055 147.962 -196.965 150.929C-198.233 152.231 -198.599 152.152 -199.659 151.805C-200.718 151.459 -201.351 152 -202.534 152.496C-203.716 152.992 -204.076 152.472 -205.727 152.41C-207.966 152.339 -205.164 154.034 -205.164 154.034C-205.164 154.034 -205.127 153.998 -204.214 154.343ZM-194.209 146.014C-192.531 144.387 -193.946 140.84 -194.269 140.358C-194.592 139.876 -194.272 138.191 -192.93 136.89C-191.588 135.589 -190.88 134.902 -190.97 133.615C-191.061 132.329 -191.369 133.279 -189.901 130.914C-188.432 128.55 -189.048 127.99 -189.808 127.28C-190.568 126.571 -193.663 129.645 -194.485 130.513C-195.306 131.382 -194.725 131.832 -195.079 133.332C-195.432 134.832 -201.603 139.731 -203.429 141.429C-203.615 141.61 -203.801 141.79 -203.878 142.01C-203.329 142.128 -202.474 141.444 -201.994 141.267C-201.329 140.984 -200.706 141.104 -200.043 140.967C-199.416 140.793 -198.895 140.36 -198.412 139.964C-193.245 135.894 -196.463 139.81 -196.8 140.209C-197.137 140.608 -197.95 140.962 -197.122 142.04C-196.294 143.118 -197.994 143.826 -198.592 144.478C-199.189 145.129 -199.074 144.801 -200.231 143.608C-201.387 142.415 -203.929 145.314 -205.086 146.508C-206.242 147.702 -204.782 148.238 -203.736 149.466C-202.69 150.694 -202.428 150.368 -201.089 149.286C-199.788 148.242 -199.909 148.937 -199.073 149.501C-198.237 150.065 -196.481 148.145 -196.481 148.145C-196.481 148.145 -195.886 147.641 -194.209 146.014ZM-186.749 126.556C-186.749 126.556 -188.119 127.306 -187.919 128.631C-187.719 129.956 -187.051 129.452 -188.319 130.755C-189.588 132.057 -189.441 132.06 -188.98 133.132C-188.519 134.204 -188.43 135.564 -189.362 136.467C-190.294 137.371 -192.11 138.482 -191.274 139.045C-190.402 139.646 -187.291 140.318 -186.621 139.741C-185.951 139.164 -181.199 133.398 -178.58 134.981C-175.924 136.6 -173.348 141.046 -171.763 140.667C-170.179 140.287 -169.939 141.429 -170.094 141.941C-170.249 142.453 -171.168 142.549 -170.12 143.63C-169.071 144.711 -169.206 143.901 -167.742 144.217C-166.278 144.533 -166.305 143.909 -165.004 145.251C-163.702 146.593 -163.345 147.259 -162.194 146.432C-161.043 145.605 -159.391 145.594 -158.772 145.934C-158.153 146.274 -157.58 144.851 -157.897 144.001C-158.215 143.152 -159.206 135.939 -158.346 134.961C-157.486 133.983 -155.775 132.54 -156.533 131.684C-157.291 130.828 -158.97 130.141 -157.85 128.983C-156.731 127.825 -154.495 125.73 -154.575 123.709C-154.654 121.688 -153.761 118.58 -155.914 120.09C-156.916 120.772 -158.422 120.785 -158.842 119.457C-158.914 119.309 -157.5 118.156 -157.35 117.938C-156.975 117.429 -156.523 116.702 -156.696 116.002C-157.045 114.821 -157.394 113.641 -157.706 112.424C-157.911 111.393 -157.906 108.712 -159.873 110.041C-160.503 110.435 -161.342 110.092 -161.211 108.735C-161.211 108.735 -162.515 105.153 -161.397 104.068C-161.061 103.743 -158.037 100.521 -158.991 100.433C-159.614 100.387 -159.614 100.387 -161.996 102.407C-162.33 102.659 -162.769 102.579 -163.139 102.72C-163.62 102.969 -164.068 103.477 -164.441 103.838C-166.346 105.902 -165.638 105.289 -167.183 105.412C-168.727 105.535 -169.547 106.33 -173.126 109.874C-176.743 113.454 -178.484 114.418 -178.62 116.069C-178.755 117.719 -177.875 117.806 -179.776 119.65C-181.677 121.493 -186.749 126.556 -186.749 126.556ZM-148.24 127.258C-148.131 127.37 -147.987 127.519 -147.878 127.631C-147.589 127.929 -147.047 128.488 -146.637 128.09C-146.04 127.512 -145.48 126.896 -144.92 126.281C-144.658 125.954 -144.178 125.778 -144.135 125.375C-143.974 124.496 -144.221 123.794 -143.621 122.996C-143.359 122.669 -142.394 122.023 -142.791 121.54C-142.971 121.353 -145.002 119.706 -145.518 119.772C-146.805 119.936 -147.621 122.824 -148.888 124.053C-149.335 124.487 -149.927 124.772 -150.34 125.316C-150.677 125.788 -150.058 126.128 -149.695 126.354C-149.074 126.621 -148.675 126.884 -148.24 127.258ZM-129.872 126.806C-129.872 126.806 -130.315 129.333 -129.485 130.263C-128.691 131.157 -127.397 133.013 -127.004 131.33C-126.574 129.61 -127.237 127.36 -127.237 127.36C-127.237 127.36 -129.868 124.125 -129.872 126.806ZM-127.813 124.23C-127.229 124.459 -126.685 124.872 -126.139 125.21C-125.157 125.85 -124.955 127.028 -124.824 128.058C-124.728 128.978 -124.636 130.191 -123.385 129.99C-121.728 129.685 -121.94 126.781 -121.659 125.206C-121.419 123.961 -122.696 123.391 -123.722 123.228C-125.076 122.95 -126.434 122.893 -127.673 122.286C-128.839 121.681 -130.087 121.661 -131.369 121.458C-132.285 121.334 -132.627 122.1 -131.911 123.286C-131.266 124.324 -130.236 124.193 -129.28 124.134C-128.765 124.069 -128.251 124.076 -127.813 124.23ZM-113.802 113.319C-114.928 114.917 -115.384 115.938 -117.051 116.904C-117.978 117.441 -119.63 115.065 -120.558 115.675C-120.891 115.854 -121.554 115.99 -121.487 116.432C-121.455 116.69 -120.982 117.027 -120.802 117.214C-120.403 117.55 -119.276 118.265 -119.762 118.882C-120.4 119.717 -120.534 118.907 -119.463 120.907C-118.392 122.906 -119.344 125.131 -119.577 125.936C-119.81 126.74 -119.907 128.281 -121.174 129.51C-122.478 130.701 -122.267 131.292 -120.573 131.024C-119.248 130.824 -118.341 131.536 -117.399 132.358C-117.399 132.358 -117.399 132.358 -117.363 132.396C-116.964 132.732 -115.513 133.856 -115.963 134.51C-116.526 135.273 -118.871 137.33 -119.803 138.234C-120.735 139.137 -118.952 140.23 -118.122 141.16C-117.291 142.091 -116.779 142.172 -116.408 141.958C-116.001 141.78 -114.968 141.429 -113.8 141.888C-112.632 142.346 -111.799 140.743 -110.46 139.589C-109.12 138.434 -110.79 137.16 -111.145 136.42C-111.501 135.68 -112.274 135.779 -111.043 134.512C-109.849 133.282 -110.197 132.028 -110.951 130.952C-111.742 129.838 -109.943 129.829 -109.472 127.853C-109.001 125.878 -104.821 126.309 -103.349 126.111C-102.65 126.012 -100.737 125.821 -100.595 126.117C-100.35 126.892 -102.94 128.174 -101.295 128.677C-99.0667 129.409 -98.8973 127.942 -99.1876 125.331C-99.4046 122.72 -103.392 124.128 -104.312 124.224C-105.267 124.283 -107.33 124.692 -107.484 122.743C-107.601 120.832 -103.056 121.342 -103.056 121.342C-101.401 121.184 -98.1055 121.822 -96.0677 123.028C-94.0287 124.161 -93.6978 124.13 -92.1355 122.832C-90.5733 121.534 -93.5352 120.717 -94.4818 120.189C-95.4296 119.733 -95.6103 119.547 -94.6423 118.681C-93.6742 117.814 -91.4183 119.171 -90.2458 119.336C-89.0733 119.501 -86.7768 118.214 -86.3205 117.193C-85.8269 116.135 -85.8924 115.62 -84.1302 115.647C-82.368 115.674 -82.2854 119.862 -82.8107 120.588C-83.3359 121.315 -83.7685 123.181 -86.0187 123.844C-88.305 124.47 -88.4213 124.872 -90.388 126.2C-92.3546 127.529 -91.2622 128.133 -90.6963 129.537C-90.1303 130.941 -91.6733 130.991 -92.4799 130.905C-93.2864 130.819 -97.8263 132.329 -99.7398 132.593C-101.653 132.857 -102.262 131.857 -103.468 131.434C-104.673 131.012 -105.255 133.022 -105.225 133.5C-105.196 133.978 -106.241 135.064 -107.247 136.04C-108.254 137.016 -108.807 137.191 -108.644 138.552C-108.482 139.913 -108.878 139.43 -109.274 141.26C-109.669 143.09 -111.04 143.913 -112.463 145.727C-113.887 147.541 -110.366 150.203 -109.823 150.762C-109.281 151.321 -108.928 152.208 -109.743 152.709C-110.559 153.211 -108.461 157.686 -108.557 159.154C-108.653 160.621 -106.109 162.349 -105.349 163.059C-104.588 163.768 -104.644 164.979 -104.909 165.526C-105.175 166.072 -102.231 168.064 -101.915 168.987C-101.598 169.91 -99.0386 168.223 -99.0386 168.223C-98.5992 168.303 -96.7128 167.414 -94.4434 167.89C-91.625 168.484 -90.6151 167.288 -90.6151 167.288C-90.6151 167.288 -83.0097 159.84 -81.2577 158.141C-80.5122 157.418 -79.5509 156.992 -78.4879 157.118C-77.4622 157.281 -76.0751 157.817 -75.7983 158.922C-75.5204 159.955 -74.55 161.328 -73.3763 161.42C-72.7528 161.466 -72.0513 161.22 -71.4255 161.119C-69.5459 160.671 -66.1355 163.367 -64.5811 164.97C-63.569 166.014 -62.6325 167.203 -61.9185 168.536C-61.6678 168.944 -61.4543 169.388 -61.3887 169.903C-61.2532 170.639 -61.1119 171.009 -60.5686 171.495C-59.7733 172.315 -59.0549 173.354 -57.8349 172.822C-57.0589 172.503 -53.7073 174.244 -53.7073 174.244C-53.7073 174.244 -45.5797 178.224 -43.9801 179.277C-42.3806 180.33 -41.8192 179.641 -41.4091 179.243C-40.9991 178.846 -40.4795 178.486 -40.9099 177.819C-41.3041 177.188 -40.7111 176.83 -40.7111 176.83C-40.7111 176.83 -40.1915 176.471 -38.3254 174.517C-36.4221 172.526 -38.0059 168.059 -37.9912 167.104C-37.9766 166.15 -38.0839 165.965 -39.061 165.032C-40.1116 164.097 -39.9975 163.842 -39.1006 162.828C-38.1665 161.777 -39.1108 161.102 -40.9533 159.127C-42.7957 157.153 -42.4049 155.616 -42.3281 153.01C-42.2514 150.404 -48.2802 146.052 -50.4525 144.036C-52.6248 142.02 -52.2216 139.676 -52.2216 139.676C-52.2216 139.676 -54.1433 128.52 -54.2371 125.066C-54.331 121.613 -56.6184 124.699 -56.6184 124.699C-56.6184 124.699 -59.0436 127.196 -60.3437 128.167C-61.6077 129.176 -65.1875 127.946 -66.3612 127.855C-67.5348 127.763 -69.9239 127.91 -71.4128 126.822C-72.9016 125.734 -74.543 125.012 -74.543 125.012C-74.9078 124.859 -77.2574 124.823 -78.7802 123.551C-82.1883 120.708 -78.6096 122.011 -78.6096 122.011C-78.6096 122.011 -77.3309 122.435 -74.6074 122.036C-71.8478 121.675 -66.9407 124.945 -64.6035 125.788C-62.2664 126.632 -62.3782 126.741 -59.8818 124.392C-57.3493 122.081 -57.5008 115.212 -57.145 113.565C-56.7892 111.918 -57.9561 111.386 -59.2337 110.889C-60.5113 110.392 -61.188 111.41 -63.1534 112.665C-65.0828 113.957 -67.5939 112.486 -69.9887 113C-72.3835 113.514 -70.9319 112.251 -69.7798 111.351C-68.6276 110.451 -67.9735 110.901 -66.8371 111.029C-65.6646 111.194 -64.483 110.771 -62.9875 109.032C-61.4558 107.329 -59.7603 106.915 -58.9176 107.038C-58.0749 107.161 -56.5589 106.487 -56.5589 106.487C-56.5589 106.487 -53.7632 103.776 -53.0663 103.823C-52.3693 103.87 -51.5797 105.058 -49.5724 103.473C-47.5651 101.888 -43.1641 104.636 -43.1641 104.636C-43.1641 104.636 -38.1598 108.752 -36.1333 108.306C-32.191 107.448 -37.777 102.956 -38.6051 101.879C-39.4331 100.801 -38.1206 96.6349 -37.5852 95.2477C-37.3559 94.6637 -37.6033 94.0357 -37.9998 93.5522C-38.2517 93.2178 -39.126 92.7638 -39.1193 92.3232C-39.0775 91.9934 -38.2958 91.3077 -38.036 91.1281C-37.4791 90.7327 -36.946 89.4924 -35.7102 90.3192C-34.4744 91.1461 -31.8672 91.1494 -31.8672 91.1494C-31.0596 91.1618 -30.3208 90.8794 -29.6532 90.449C-29.0963 90.0536 -28.7168 89.2516 -28.0164 89.0787C-27.0213 88.8369 -26.2022 90.502 -25.6973 91.0972C-25.1189 91.6937 -24.6897 92.4347 -24.0006 92.9961C-23.2754 93.5948 -22.3231 93.7563 -21.5233 94.2826C-20.9777 94.6215 -20.5055 94.9593 -20.0345 95.3704C-20.0345 95.3704 -14.5298 97.9887 -12.7654 95.4821C-11.5647 93.8114 -16.4853 93.8092 -18.6507 93.7392C-20.8162 93.6693 -21.9752 92.6233 -22.6112 90.9978C-23.2472 89.3723 -20.9055 89.9223 -18.3267 89.3744C-15.7478 88.8265 -16.743 89.0683 -17.0288 86.1629C-17.2785 83.2949 -20.3138 82.4771 -21.1215 82.4647C-21.9291 82.4523 -25.8127 81.8785 -24.4866 79.2183C-23.1978 76.5942 -21.4041 74.5653 -20.4677 73.3679C-19.5312 72.1705 -20.7637 71.1234 -21.4325 66.8535C-22.1013 62.5836 -26.9248 61.0407 -28.9355 60.459C-30.9835 59.9134 -31.7833 59.3871 -31.9302 56.9979C-32.0771 54.6088 -28.7187 55.9089 -28.7187 55.9089C-28.7187 55.9089 -25.7569 56.7256 -22.4584 57.1434C-19.16 57.5613 -21.2825 54.7012 -21.6 53.8517C-21.9536 52.965 -23.6819 53.1221 -25.0724 52.8069C-26.463 52.4918 -27.1306 50.5353 -27.4515 49.9061C-27.7723 49.277 -26.3163 45.3335 -25.7843 44.1666C-25.2523 42.9997 -25.7674 40.6783 -28.4673 37.1484C-31.1672 33.6184 -27.0598 36.3622 -27.0598 36.3622C-27.0598 36.3622 -20.0437 43.3734 -18.8157 44.7143C-17.5878 46.0551 -16.971 46.5419 -17.5979 49.1028C-18.2248 51.6636 -18.6281 51.6207 -19.3047 52.6385C-19.9813 53.6563 -19.9903 54.2437 -18.0767 56.3662C-16.1631 58.4886 -16.2411 56.3943 -16.5992 55.8013C-16.9573 55.2083 -17.9582 53.4303 -16.7687 52.4938C-15.5792 51.5573 -15.0574 48.6644 -14.7739 46.9429C-14.4905 45.2214 -16.8898 43.6422 -18.0477 42.5228C-19.2055 41.4034 -18.992 41.8473 -18.0579 40.7968C-17.1237 39.7462 -17.5688 40.0331 -18.3234 38.9566C-19.078 37.8801 -19.6337 38.2021 -20.6018 39.0685C-21.5698 39.935 -22.251 38.8596 -22.251 38.8596C-22.251 38.8596 -26.5109 34.0939 -27.7828 33.2298C-29.0187 32.4029 -31.8415 32.1025 -34.382 34.9277C-36.9224 37.7529 -36.3996 30.0128 -36.3963 27.4057C-36.4302 24.8347 -34.2952 24.5003 -34.2952 24.5003C-34.2952 24.5003 -32.044 23.7637 -29.4854 22.1506C-26.9269 20.5375 -29.56 19.836 -30.3836 18.4647C-31.2071 17.0934 -29.8414 16.637 -26.9327 16.1308C-24.0239 15.6247 -25.1715 21.0051 -24.9309 22.0737C-24.6902 23.1423 -22.0221 23.9544 -19.0252 24.8817C-16.0283 25.8091 -18.5644 23.5669 -19.1744 22.6395C-19.8216 21.7482 -20.583 21.1123 -20.3786 19.7568C-20.1742 18.4012 -21.6336 17.7912 -23.188 16.1884C-24.7424 14.5855 -23.4072 13.7247 -21.6552 12.0257C-19.8671 10.364 -20.258 9.51346 -20.101 8.85491C-19.944 8.19633 -20.746 7.8168 -18.462 4.95094C-16.1419 2.12234 -28.0548 0.727559 -28.972 0.676753C-29.8893 0.625948 -37.1332 8.4464 -39.0693 10.1793C-41.0054 11.9121 -42.0876 10.647 -42.8942 10.5611C-43.7007 10.4753 -47.5514 14.9328 -48.3704 15.6547C-49.1893 16.3765 -51.5999 15.5317 -52.3432 16.1078C-53.0865 16.6839 -52.6967 17.6079 -52.7893 18.855C-52.8819 20.1021 -54.2556 18.6856 -54.9085 18.1614C-55.5614 17.6373 -56.1522 17.8486 -57.1146 18.3479C-58.077 18.8472 -56.1612 20.8228 -55.5478 21.53C-54.9344 22.2371 -61.1527 27.8333 -62.3444 28.9166C-63.5362 30 -65.1379 29.094 -66.6629 27.969C-68.1879 26.8439 -68.0072 29.4172 -68.0072 29.4172L-70.6955 32.3136C-70.6955 32.3136 -75.6115 36.7914 -76.6981 38.2069C-77.7475 39.5862 -78.1802 36.6785 -78.2684 35.2451C-78.3927 33.7743 -82.6433 35.5818 -83.3414 35.6078C-84.0395 35.6338 -86.1394 38.4658 -86.842 38.7855C-87.5073 39.069 -88.6754 38.6104 -88.5714 39.016C-88.4675 39.4215 -87.8948 40.385 -88.0563 41.3373C-88.2178 42.2896 -88.8842 42.6465 -89.5213 43.4813C-90.1584 44.3161 -89.3857 44.2178 -92.0651 46.5268C-94.7083 48.8731 -93.1935 50.6589 -93.0726 52.35C-92.989 54.0771 -94.4032 55.3039 -95.0007 55.9557C-95.5621 56.6448 -94.1094 57.6953 -93.6485 58.7673C-93.1876 59.8393 -96.1156 59.2068 -96.7798 59.4169C-97.4802 59.5897 -95.9212 60.8989 -95.9212 60.8989C-95.9212 60.8989 -91.7653 65.2591 -91.5179 65.8871C-91.2705 66.5152 -96.3018 64.1612 -97.1333 63.3039C-97.9274 62.4104 -100.443 61.2334 -100.918 61.0425C-101.319 60.8527 -101.221 61.6988 -101.055 62.8397C-100.889 63.9806 -99.2896 65.0333 -98.4978 66.0737C-97.7059 67.1141 -98.6977 67.1355 -100.151 68.5453C-101.605 69.9551 -101.396 70.6927 -101.45 71.8302C-101.505 72.9678 -103.848 74.9514 -105.116 76.1805C-106.383 77.4095 -106.33 78.7323 -106.799 80.5611C-107.268 82.39 -108.054 80.9825 -109.775 80.699C-111.57 80.4144 -110.168 82.3821 -109.856 83.5253C-109.543 84.6684 -113.62 84.7894 -115.496 84.9442C-117.371 85.099 -117.39 86.3472 -117.949 86.8895C-118.508 87.4317 -118.925 88.2699 -120.461 87.8791C-121.998 87.4882 -123.455 89.1183 -125.674 90.1858C-127.894 91.2534 -127.223 92.9896 -128.398 95.3584C-129.573 97.7272 -129.008 99.2047 -129.008 99.2047C-129.008 99.2047 -129.008 99.2047 -128.143 100.32C-127.279 101.435 -127.425 103.746 -127.268 105.474C-127.111 107.202 -128.53 108.723 -128.916 109.965C-129.302 111.208 -126.177 113.312 -125.091 114.357C-124.042 115.365 -123.05 112.956 -121.931 111.872C-120.85 110.824 -120.543 112.334 -120.259 112.926C-120.008 113.334 -120.639 113.801 -120.534 114.133C-120.535 114.207 -120.463 114.281 -120.317 114.357C-119.807 114.585 -119.107 114.486 -118.522 114.642C-116.693 115.11 -117.401 113.337 -117.401 113.337C-117.401 113.337 -117.693 110.872 -118.17 108.441C-118.578 106.305 -121.119 106.817 -121.38 104.683C-121.61 102.88 -121.544 101.009 -121.298 99.3231C-120.886 96.3918 -119.866 96.9216 -118.658 97.1971C-117.451 97.4727 -119.346 101.336 -118.323 104.032C-117.299 106.729 -115.732 102.75 -114.925 105.149C-112.839 110.433 -112.6 111.575 -113.802 113.319ZM-107.485 72.6189C-106.565 72.5228 -105.645 72.3534 -104.723 72.1105C-104.428 72.0416 -103.065 71.732 -103.867 71.3525C-104.413 71.087 -105.147 71.0023 -105.733 70.9199C-106.905 70.755 -107.265 70.2354 -108.132 69.3408C-109 68.4461 -107.933 65.9655 -107.933 65.9655C-104.747 56.9444 -108.825 64.2259 -109.611 65.2053C-110.396 66.1113 -111.145 67.0545 -111.448 67.6374C-111.75 68.2203 -111.6 70.3891 -111.109 71.8655C-110.968 72.3083 -110.532 72.6088 -110.131 72.7985C-109.803 72.9137 -109.473 72.9555 -109.105 72.8877C-108.552 72.7861 -107.963 72.6482 -107.485 72.6189ZM-39.1416 148.763C-39.2647 149.606 -38.0323 150.653 -36.1537 152.665C-35.6115 153.224 -31.0715 156.488 -31.4771 154.205C-31.5133 154.168 -32.0183 151.186 -32.957 150.143C-33.9319 149.063 -34.0867 147.188 -34.438 146.155C-34.7893 145.121 -35.8794 144.37 -38.0697 143.528C-40.2601 142.687 -38.5859 146.054 -38.5859 146.054C-38.4119 146.681 -39.0185 147.92 -39.1416 148.763ZM-12.2592 100.778C-11.159 100.868 -10.0226 100.996 -8.92239 101.086C-8.37227 101.131 -7.82214 101.176 -7.27202 101.221C-6.68462 101.231 -6.02268 101.167 -5.51208 101.395C-5.00149 101.624 -4.53271 102.182 -3.94531 102.191C-3.43134 102.199 -3.0213 101.801 -2.72196 101.438C-1.30433 99.9912 0.221723 98.656 1.71279 97.21C10.2863 88.8959 3.22187 94.5893 2.77681 94.8762C2.33175 95.1632 1.72969 96.1087 0.515371 96.2736C-0.69895 96.4386 -3.76011 99.6964 -3.76011 99.6964C-3.76011 99.6964 -4.84225 100.818 -5.59686 99.7417C-6.35146 98.6652 -6.72647 99.1735 -10.4203 98.1987C-14.1142 97.224 -12.4491 98.7918 -16.8907 98.6869C-21.3323 98.5819 -17.7119 99.5556 -16.397 100.016C-15.0821 100.477 -12.9551 100.657 -12.9551 100.657C-12.736 100.734 -12.4795 100.774 -12.2592 100.778ZM0.908309 89.8168C1.22915 90.4459 1.66294 90.8933 2.40281 90.5374C3.73573 89.8235 3.22402 89.6687 3.61707 87.9856C3.69499 87.693 3.92882 86.8153 3.63852 86.5905C3.38434 86.403 2.89973 86.873 2.60492 86.9419C2.27395 86.9735 1.90683 86.9679 1.68317 87.1848C1.34881 87.4367 1.0506 87.7259 0.788537 88.0523C0.45192 88.4511 0.373989 88.7436 0.551339 89.1503C0.621375 89.3717 0.764859 89.5942 0.908309 89.8168ZM-2.84303 92.5866C-2.50755 92.2613 -2.13479 91.8998 -1.9439 91.4254C-1.75414 91.0244 -1.8208 90.5827 -1.77788 90.1794C-1.69319 89.4463 -1.98012 89.0013 -2.26705 88.5562C-3.0194 87.3329 -4.14225 86.3241 -5.11826 85.3177C-6.85338 83.5284 -6.78897 84.117 -7.81014 83.6606C-8.35689 83.3952 -9.15434 85.1088 -9.27858 86.0249C-9.40282 86.941 -8.41779 87.3601 -7.949 87.9181C-7.29833 88.5891 -7.86084 89.3516 -7.98282 90.1208C-8.14432 91.0731 -8.23242 92.0265 -8.32051 92.9799C-8.44924 94.1897 -7.23718 94.1716 -6.36059 94.4788C-6.14144 94.5556 -5.84888 94.6336 -5.59133 94.6008C-5.11349 94.5714 -4.74187 94.2834 -4.40751 94.0315C-4.37024 93.9953 -4.37024 93.9953 -4.33298 93.9592C-3.81222 93.5265 -3.32764 93.0566 -2.84303 92.5866ZM-4.83037 78.5287C-4.02722 78.8348 -3.11221 79.0325 -2.27065 79.229C-1.7951 79.3465 -0.91513 79.4335 -0.831554 78.7738C-0.708452 77.9311 -1.43479 77.4058 -1.90472 76.9212C-2.98917 75.8029 -4.46788 74.0544 -5.67432 73.7053C-6.91802 73.3925 -8.24641 73.8127 -9.52852 73.6094C-10.5181 73.484 -10.8185 73.9201 -13.402 72.3748C-16.0227 70.8657 -13.306 73.2943 -12.1526 74.7074C-10.9992 76.1206 -8.79422 76.0075 -8.79422 76.0075C-6.99701 76.1453 -6.3994 77.8804 -4.83037 78.5287ZM14.3154 79.9979C14.7989 79.6014 15.3535 79.3528 16.0132 79.4364C16.8197 79.5223 17.4376 79.9357 18.2058 80.1311C18.7175 80.2858 19.4495 80.444 19.8256 79.8622C20.1283 79.2793 20.1419 78.3982 20.9846 78.5213C22.1571 78.6862 22.1288 78.135 22.1288 78.135C22.1695 77.8786 22.6382 76.0497 23.6312 75.9548C29.4407 75.4565 26.1457 74.8183 24.3134 74.5699C22.4812 74.3214 18.9116 74.8174 17.076 74.7892C15.2404 74.761 14.1346 77.4246 12.9463 78.2877C11.7579 79.1507 11.1897 77.8935 10.0161 77.802C8.84237 77.7106 7.2565 80.5504 6.48159 80.7956C5.7067 81.0407 5.3373 81.1819 4.65048 80.4737C4.54204 80.3618 3.41467 79.6468 3.47906 80.2354C3.51184 80.4929 3.98402 80.8307 4.16477 81.017C4.45395 81.3153 4.74313 81.6135 5.06958 81.8755C5.86825 82.4753 6.1382 81.6349 7.61233 81.2903C9.05031 80.9085 10.2895 81.515 11.235 82.1171C11.9986 82.6062 12.7453 81.8098 13.2694 81.1569C13.606 80.7581 13.9426 80.3594 14.3154 79.9979ZM46.2432 102.778C46.0207 102.921 45.6117 103.246 45.7541 103.542C45.8964 103.837 46.5595 103.701 46.7402 103.887C47.0294 104.185 47.8586 105.19 48.8255 104.397C49.7551 103.64 49.3982 102.973 48.7532 101.935C48.6458 101.75 48.5013 101.601 48.2821 101.524C47.9895 101.446 47.6924 101.662 47.5061 101.843C47.2835 101.986 47.0971 102.167 46.8373 102.346C46.6148 102.49 46.4657 102.634 46.2432 102.778ZM15.3549 91.2137C14.4569 92.3016 14.1395 93.839 13.7521 95.155C13.4821 95.9954 13.2472 96.9465 13.6008 97.8333C13.8832 98.572 14.788 99.4305 15.2557 100.062C15.7946 100.841 13.4642 101.944 12.9017 102.706C12.3391 103.469 13.2135 103.923 13.2067 104.364C13.1627 104.84 11.9777 105.483 11.3395 106.391C10.5883 107.481 12.6262 108.688 13.1662 109.394C13.7061 110.1 14.097 110.95 14.5624 111.729C15.421 113.211 16.0208 112.412 16.9064 112.132C17.792 111.852 18.8957 114.109 19.9112 114.932C20.8544 115.681 22.768 115.417 23.7654 115.028C24.4669 114.782 24.9549 114.091 25.4767 113.585C26.0732 113.007 26.7057 112.466 27.1203 111.775C27.5348 111.083 27.5111 110.238 27.6703 109.433C27.8736 108.151 28.4407 107.095 29.4449 106.265C30.4863 105.4 31.5267 104.608 32.532 103.706C33.0539 103.2 33.7678 102.146 34.5676 102.672C35.1493 103.048 35.5808 103.642 36.1626 104.018C37.3984 104.845 37.7452 103.786 38.6025 102.954C39.4599 102.123 40.1478 102.758 40.986 103.175C42.4071 103.894 43.1176 103.06 44.0867 102.121C44.7577 101.47 45.4287 100.819 46.0635 100.131C47.1106 98.8988 46.6983 97.0564 46.6983 97.0564C46.6983 97.0564 45.6962 92.965 45.4296 91.1983C45.163 89.4316 43.1838 86.7941 41.4125 84.9675C39.6413 83.141 34.6123 83.027 34.6123 83.027C34.6123 83.027 27.1354 82.1043 25.9244 82.049C24.7135 81.9937 24.3271 80.8494 23.4167 80.358C22.5435 79.8305 23.1049 81.5283 22.652 82.3292C22.199 83.1301 24.9926 85.3395 25.3541 85.7123C25.7155 86.0851 24.8605 86.7696 23.9443 86.6454C23.0282 86.5212 22.8757 86.886 21.954 87.1289C21.0322 87.3718 20.045 87.0996 18.9944 86.1654C17.9811 85.1951 17.2627 86.5428 16.0337 87.6622C14.8047 88.7817 15.6508 88.6845 16.0417 89.5351C16.2902 90.0897 15.879 90.5608 15.5424 90.9596C15.4306 91.068 15.3922 91.1776 15.3549 91.2137ZM64.4623 90.4625L64.4612 90.5359C64.5211 91.4181 64.8815 94.2512 65.7355 93.6401C66.5522 93.065 67.8444 92.6075 67.8218 91.6892C67.7269 90.6962 67.144 90.3935 67.9799 88.5703C68.3978 87.6587 66.9688 85.0663 66.9688 85.0663C66.9688 85.0663 66.0222 84.5376 65.1411 84.5241C64.443 84.5501 64.7774 86.685 64.7672 87.3459C64.7142 88.41 64.4408 89.4707 64.4623 90.4625ZM66.7767 80.8404C66.2785 79.8046 67.2714 79.7096 66.7292 79.1505C66.187 78.5914 63.5708 79.1754 62.5417 79.2331C60.5197 79.3856 63.4793 80.3491 63.7245 81.124C63.9674 82.0458 63.9301 82.0819 64.8778 82.5371C65.1331 82.6512 66.1871 83.3651 66.4458 83.2589C67.8882 82.5834 67.311 81.9135 66.7767 80.8404Z"/>
</mask>
<path d="M-214.828 168.758C-215.602 168.93 -216.339 169.139 -217.007 169.569C-217.861 170.18 -218.646 171.086 -219.716 171.4C-220.453 171.609 -222.724 171.207 -221.423 170.162C-220.53 169.441 -218.963 167.85 -219.019 166.674C-219.157 163.697 -213.532 165.693 -212.327 163.729C-211.687 162.674 -212.585 161.375 -211.184 161.029C-210.3 160.822 -209.197 160.766 -208.281 160.89C-206.962 161.057 -206.974 161.865 -207.687 162.845C-208.361 163.716 -209.216 164.401 -210.036 165.196C-210.782 165.919 -211.455 166.717 -212.128 167.514C-212.801 168.312 -213.833 168.516 -214.828 168.758ZM-211.026 155.523C-211.026 155.523 -208.953 156.84 -208.14 156.486C-207.364 156.167 -206.776 156.176 -207.163 155.032C-207.513 153.925 -208.696 154.421 -209.908 154.439C-211.12 154.457 -213.536 153.979 -211.026 155.523ZM-203.987 168.227C-205.574 168.753 -205.739 167.539 -207.305 166.67C-208.87 165.802 -208.46 167.791 -208.421 169.995C-208.381 172.199 -211.523 171.122 -212.624 171.105C-213.725 171.088 -213.312 170.47 -216.435 172.993C-219.557 175.442 -219.406 175.15 -219.264 177.833C-219.121 180.516 -217.134 177.866 -215.313 176.462C-213.493 175.058 -212.515 175.991 -211.689 177.142C-210.862 178.293 -214.351 180.736 -217.509 183.148C-220.668 185.56 -219.792 185.94 -220.631 187.984C-221.471 190.027 -226.154 191.314 -227.819 192.133C-229.484 192.952 -237.626 201.86 -238.893 203.09C-240.161 204.319 -239.929 205.975 -240.465 207.362C-241 208.749 -238.891 210.103 -238.133 210.959C-237.375 211.816 -239.962 212.878 -240.931 213.817C-241.9 214.757 -241.097 215.063 -240.485 215.844C-239.872 216.624 -239.39 216.301 -238.307 215.106C-237.224 213.911 -236.558 213.628 -235.762 214.374C-234.965 215.121 -236.891 216.193 -237.823 217.097C-238.755 218 -236.792 219.279 -235.268 220.477C-233.744 221.676 -233.066 220.585 -232.183 220.451C-231.3 220.318 -230.048 220.117 -232.639 226.246C-235.23 232.376 -231.776 227.435 -231.32 226.413C-230.864 225.392 -228.559 221.205 -227.59 220.265C-226.621 219.325 -226.214 216.761 -225.996 214.524C-225.778 212.288 -221.469 209.049 -218.674 206.411C-215.88 203.773 -207.638 207.499 -205.392 207.129C-203.147 206.76 -195.66 214.182 -193.528 216.455C-191.396 218.728 -188.274 218.666 -186.842 218.651C-185.409 218.636 -179.643 220.928 -174.991 221.697C-170.303 222.504 -174.597 219.941 -176.711 218.953C-178.862 217.929 -176.297 218.262 -176.297 218.262C-176.297 218.262 -168.742 218.892 -166.19 220.106C-163.638 221.321 -159.027 219.959 -156.833 218.12C-154.638 216.281 -154.133 216.877 -154.133 216.877C-154.133 216.877 -153.486 217.768 -150.736 215.68C-148.024 213.629 -146.591 215.928 -144.861 215.697C-143.132 215.467 -140.807 214.731 -139.428 213.394C-138.049 212.056 -138.678 212.377 -137.405 213.168C-136.132 213.958 -135.727 216.315 -135.712 217.747C-135.698 219.179 -134.109 220.966 -132.157 222.979C-130.205 224.992 -129.025 224.643 -129.025 224.643C-129.025 224.643 -118.052 227.456 -116.431 227.113C-114.81 226.771 -113.658 228.258 -113.658 228.258C-113.658 228.258 -103.753 238.471 -103.031 239.29C-102.309 240.109 -102.384 240.181 -102.151 241.764C-101.918 243.347 -99.8184 245.288 -99.8184 245.288C-99.8184 245.288 -91.1462 254.455 -90.4955 255.126C-89.8448 255.797 -87.9697 255.642 -82.8063 254.179C-77.6429 252.716 -82.7419 252.381 -83.7292 252.108C-84.7165 251.836 -86.0461 249.943 -87.239 248.713C-88.4319 247.483 -88.0027 245.837 -88.3156 244.694C-88.6286 243.551 -89.5435 243.353 -90.8087 242.048C-92.0739 240.744 -91.2708 238.663 -91.2708 238.663C-91.2708 238.663 -91.1741 222.801 -91.2633 221.441C-91.3526 220.081 -92.6506 218.519 -93.5204 217.771C-94.3902 217.023 -94.2435 212.252 -93.8402 209.908C-93.437 207.564 -95.1033 203.682 -95.6433 202.976C-96.1832 202.27 -97.5558 200.781 -97.3107 199.169C-97.0656 197.557 -98.5849 196.064 -99.7666 194.1C-100.948 192.136 -104.111 194.841 -107.021 195.421C-109.931 196 -113.089 198.412 -113.313 198.629C-113.536 198.846 -114.659 200.224 -115.488 199.22C-116.317 198.216 -118.655 197.372 -119.861 197.023C-121.068 196.674 -121.74 197.398 -122.597 198.229C-123.454 199.061 -128.413 199.168 -130.255 199.507C-132.096 199.846 -133.791 202.648 -135.68 203.683C-137.569 204.719 -136.823 203.996 -138.527 204.925C-140.23 205.854 -139.056 208.332 -139.509 209.133C-139.962 209.934 -142.085 211.847 -142.939 212.458C-143.793 213.07 -145.617 212.307 -146.96 211.295C-148.303 210.283 -149.219 210.159 -150.768 210.576C-152.317 210.992 -153.695 209.87 -154.451 208.867C-155.206 207.863 -155.912 208.403 -156.694 209.089C-157.476 209.775 -157.149 210.037 -156.721 210.851C-156.293 211.666 -156.6 212.542 -158.456 213.836C-160.348 215.092 -162.863 213.842 -164.531 212.494C-166.2 211.146 -166.994 210.253 -166.817 208.346C-166.641 206.439 -165.873 206.635 -164.24 205.485C-162.606 204.335 -162.396 202.612 -162.404 200.739C-162.412 198.866 -159.703 199.422 -159.703 199.422C-159.703 199.422 -159.703 199.422 -155.862 200.326C-152.02 201.229 -154.556 198.987 -157.17 197.037C-159.784 195.088 -159.785 180.84 -159.716 178.748C-159.648 176.656 -159.326 177.212 -157.606 175.255C-155.887 173.299 -157.022 170.711 -156.701 168.88C-156.379 167.048 -158.84 169.508 -160.537 169.996C-162.233 170.484 -160.514 168.527 -160.168 167.541C-159.823 166.555 -158.587 164.995 -156.615 163.299C-154.643 161.604 -165.627 159.526 -167.133 159.539C-168.638 159.553 -169.499 158.218 -170.92 157.498C-172.341 156.778 -171.874 159.797 -171.685 161.856C-171.496 163.915 -172.58 162.724 -173.117 161.871C-173.655 161.018 -175.124 160.995 -176.399 160.352C-177.674 159.708 -179.771 162.319 -180.664 163.114C-181.558 163.908 -181.336 163.838 -180.187 165.544C-179.039 167.251 -177.725 167.786 -176.163 168.874C-174.6 169.963 -174.32 173.236 -174.274 174.999C-174.227 176.762 -175.535 175.861 -176.476 174.965C-177.417 174.07 -177.72 174.652 -178.908 175.515C-180.097 176.379 -180.208 176.414 -181.557 175.842C-182.907 175.27 -185.082 175.788 -186.459 176.978C-187.836 178.169 -189.631 175.498 -190.569 174.455C-191.544 173.375 -189.642 171.458 -189.189 170.657C-188.736 169.856 -188.343 168.173 -186.143 168.354C-183.978 168.497 -184.092 166.366 -184.092 166.366C-184.092 166.366 -183.682 163.581 -184.405 162.836C-185.128 162.09 -185.247 162.639 -186.253 163.615C-187.26 164.591 -187.409 164.736 -188.24 163.878C-189.072 163.021 -189.144 162.947 -187.391 161.174C-185.638 159.402 -188.049 158.557 -187.95 156.943C-187.852 155.328 -186.454 155.13 -185.048 156.877C-183.643 158.625 -182.972 155.587 -181.531 154.985C-180.089 154.383 -180.068 155.375 -180.782 156.429C-181.496 157.482 -180.61 157.202 -179.409 157.918C-178.209 158.635 -178.573 158.482 -175.524 155.958C-172.474 153.435 -176.306 154.331 -176.782 154.213C-177.258 154.096 -178.838 154.182 -176.121 151.837C-173.405 149.491 -177.032 148.958 -177.032 148.958C-177.032 148.958 -181.821 147.6 -184.631 148.805C-187.44 150.01 -186.845 149.505 -189.227 149.212C-191.609 148.918 -195.132 153.564 -196.435 154.683C-197.737 155.801 -196.867 156.549 -196.742 157.946C-196.579 159.307 -194.329 158.644 -191.758 160.997C-189.187 163.35 -192.96 162.741 -192.96 162.741C-192.96 162.741 -194.903 162.528 -196.253 161.956C-197.603 161.385 -198.258 161.007 -198.348 159.721C-198.439 158.434 -198.937 157.398 -201.685 157.025C-204.434 156.653 -206.018 157.032 -206.613 157.464C-207.207 157.895 -206.045 158.795 -205.103 159.617C-204.161 160.439 -203.784 159.784 -202.644 159.691C-201.542 159.635 -200.863 160.857 -200.036 162.008C-199.209 163.159 -199.933 162.487 -202.347 161.862C-204.761 161.238 -204.562 162.636 -204.37 164.475C-204.178 166.314 -201.327 164.779 -199.445 166.571C-197.563 168.362 -200.089 167.846 -200.089 167.846C-200.089 167.846 -202.4 167.7 -203.987 168.227ZM-203.025 237.093C-203.025 237.093 -198.265 240.361 -197.402 239.163C-195.676 236.765 -198.543 236.942 -202.466 236.551C-202.832 236.472 -204.153 236.378 -203.025 237.093ZM-149.436 202.774C-149.14 202.632 -148.881 202.452 -148.586 202.384C-148.107 202.281 -147.558 202.399 -147.114 202.186C-146.486 201.938 -146.025 200.624 -145.686 200.078C-144.219 197.787 -150.879 201.063 -151.99 201.707C-153.102 202.351 -153.544 202.418 -154.689 205.264C-155.834 208.111 -152.034 204.571 -152.034 204.571C-151.143 203.923 -150.325 203.275 -149.436 202.774ZM-143.841 199.519C-143.625 199.742 -143.408 199.966 -143.334 199.967C-142.75 200.197 -142.373 199.541 -142 199.18C-141.665 198.855 -139.686 196.718 -141.016 197.285C-141.83 197.64 -142.861 197.845 -143.749 198.272C-145.043 198.876 -144.275 199.071 -143.841 199.519ZM-204.214 154.343C-203.302 154.687 -202.963 154.142 -202.409 153.966C-201.856 153.791 -201.31 154.13 -200.15 155.103C-198.99 156.075 -195.958 152.34 -193.646 150.025C-191.334 147.71 -194.055 147.962 -196.965 150.929C-198.233 152.231 -198.599 152.152 -199.659 151.805C-200.718 151.459 -201.351 152 -202.534 152.496C-203.716 152.992 -204.076 152.472 -205.727 152.41C-207.966 152.339 -205.164 154.034 -205.164 154.034C-205.164 154.034 -205.127 153.998 -204.214 154.343ZM-194.209 146.014C-192.531 144.387 -193.946 140.84 -194.269 140.358C-194.592 139.876 -194.272 138.191 -192.93 136.89C-191.588 135.589 -190.88 134.902 -190.97 133.615C-191.061 132.329 -191.369 133.279 -189.901 130.914C-188.432 128.55 -189.048 127.99 -189.808 127.28C-190.568 126.571 -193.663 129.645 -194.485 130.513C-195.306 131.382 -194.725 131.832 -195.079 133.332C-195.432 134.832 -201.603 139.731 -203.429 141.429C-203.615 141.61 -203.801 141.79 -203.878 142.01C-203.329 142.128 -202.474 141.444 -201.994 141.267C-201.329 140.984 -200.706 141.104 -200.043 140.967C-199.416 140.793 -198.895 140.36 -198.412 139.964C-193.245 135.894 -196.463 139.81 -196.8 140.209C-197.137 140.608 -197.95 140.962 -197.122 142.04C-196.294 143.118 -197.994 143.826 -198.592 144.478C-199.189 145.129 -199.074 144.801 -200.231 143.608C-201.387 142.415 -203.929 145.314 -205.086 146.508C-206.242 147.702 -204.782 148.238 -203.736 149.466C-202.69 150.694 -202.428 150.368 -201.089 149.286C-199.788 148.242 -199.909 148.937 -199.073 149.501C-198.237 150.065 -196.481 148.145 -196.481 148.145C-196.481 148.145 -195.886 147.641 -194.209 146.014ZM-186.749 126.556C-186.749 126.556 -188.119 127.306 -187.919 128.631C-187.719 129.956 -187.051 129.452 -188.319 130.755C-189.588 132.057 -189.441 132.06 -188.98 133.132C-188.519 134.204 -188.43 135.564 -189.362 136.467C-190.294 137.371 -192.11 138.482 -191.274 139.045C-190.402 139.646 -187.291 140.318 -186.621 139.741C-185.951 139.164 -181.199 133.398 -178.58 134.981C-175.924 136.6 -173.348 141.046 -171.763 140.667C-170.179 140.287 -169.939 141.429 -170.094 141.941C-170.249 142.453 -171.168 142.549 -170.12 143.63C-169.071 144.711 -169.206 143.901 -167.742 144.217C-166.278 144.533 -166.305 143.909 -165.004 145.251C-163.702 146.593 -163.345 147.259 -162.194 146.432C-161.043 145.605 -159.391 145.594 -158.772 145.934C-158.153 146.274 -157.58 144.851 -157.897 144.001C-158.215 143.152 -159.206 135.939 -158.346 134.961C-157.486 133.983 -155.775 132.54 -156.533 131.684C-157.291 130.828 -158.97 130.141 -157.85 128.983C-156.731 127.825 -154.495 125.73 -154.575 123.709C-154.654 121.688 -153.761 118.58 -155.914 120.09C-156.916 120.772 -158.422 120.785 -158.842 119.457C-158.914 119.309 -157.5 118.156 -157.35 117.938C-156.975 117.429 -156.523 116.702 -156.696 116.002C-157.045 114.821 -157.394 113.641 -157.706 112.424C-157.911 111.393 -157.906 108.712 -159.873 110.041C-160.503 110.435 -161.342 110.092 -161.211 108.735C-161.211 108.735 -162.515 105.153 -161.397 104.068C-161.061 103.743 -158.037 100.521 -158.991 100.433C-159.614 100.387 -159.614 100.387 -161.996 102.407C-162.33 102.659 -162.769 102.579 -163.139 102.72C-163.62 102.969 -164.068 103.477 -164.441 103.838C-166.346 105.902 -165.638 105.289 -167.183 105.412C-168.727 105.535 -169.547 106.33 -173.126 109.874C-176.743 113.454 -178.484 114.418 -178.62 116.069C-178.755 117.719 -177.875 117.806 -179.776 119.65C-181.677 121.493 -186.749 126.556 -186.749 126.556ZM-148.24 127.258C-148.131 127.37 -147.987 127.519 -147.878 127.631C-147.589 127.929 -147.047 128.488 -146.637 128.09C-146.04 127.512 -145.48 126.896 -144.92 126.281C-144.658 125.954 -144.178 125.778 -144.135 125.375C-143.974 124.496 -144.221 123.794 -143.621 122.996C-143.359 122.669 -142.394 122.023 -142.791 121.54C-142.971 121.353 -145.002 119.706 -145.518 119.772C-146.805 119.936 -147.621 122.824 -148.888 124.053C-149.335 124.487 -149.927 124.772 -150.34 125.316C-150.677 125.788 -150.058 126.128 -149.695 126.354C-149.074 126.621 -148.675 126.884 -148.24 127.258ZM-129.872 126.806C-129.872 126.806 -130.315 129.333 -129.485 130.263C-128.691 131.157 -127.397 133.013 -127.004 131.33C-126.574 129.61 -127.237 127.36 -127.237 127.36C-127.237 127.36 -129.868 124.125 -129.872 126.806ZM-127.813 124.23C-127.229 124.459 -126.685 124.872 -126.139 125.21C-125.157 125.85 -124.955 127.028 -124.824 128.058C-124.728 128.978 -124.636 130.191 -123.385 129.99C-121.728 129.685 -121.94 126.781 -121.659 125.206C-121.419 123.961 -122.696 123.391 -123.722 123.228C-125.076 122.95 -126.434 122.893 -127.673 122.286C-128.839 121.681 -130.087 121.661 -131.369 121.458C-132.285 121.334 -132.627 122.1 -131.911 123.286C-131.266 124.324 -130.236 124.193 -129.28 124.134C-128.765 124.069 -128.251 124.076 -127.813 124.23ZM-113.802 113.319C-114.928 114.917 -115.384 115.938 -117.051 116.904C-117.978 117.441 -119.63 115.065 -120.558 115.675C-120.891 115.854 -121.554 115.99 -121.487 116.432C-121.455 116.69 -120.982 117.027 -120.802 117.214C-120.403 117.55 -119.276 118.265 -119.762 118.882C-120.4 119.717 -120.534 118.907 -119.463 120.907C-118.392 122.906 -119.344 125.131 -119.577 125.936C-119.81 126.74 -119.907 128.281 -121.174 129.51C-122.478 130.701 -122.267 131.292 -120.573 131.024C-119.248 130.824 -118.341 131.536 -117.399 132.358C-117.399 132.358 -117.399 132.358 -117.363 132.396C-116.964 132.732 -115.513 133.856 -115.963 134.51C-116.526 135.273 -118.871 137.33 -119.803 138.234C-120.735 139.137 -118.952 140.23 -118.122 141.16C-117.291 142.091 -116.779 142.172 -116.408 141.958C-116.001 141.78 -114.968 141.429 -113.8 141.888C-112.632 142.346 -111.799 140.743 -110.46 139.589C-109.12 138.434 -110.79 137.16 -111.145 136.42C-111.501 135.68 -112.274 135.779 -111.043 134.512C-109.849 133.282 -110.197 132.028 -110.951 130.952C-111.742 129.838 -109.943 129.829 -109.472 127.853C-109.001 125.878 -104.821 126.309 -103.349 126.111C-102.65 126.012 -100.737 125.821 -100.595 126.117C-100.35 126.892 -102.94 128.174 -101.295 128.677C-99.0667 129.409 -98.8973 127.942 -99.1876 125.331C-99.4046 122.72 -103.392 124.128 -104.312 124.224C-105.267 124.283 -107.33 124.692 -107.484 122.743C-107.601 120.832 -103.056 121.342 -103.056 121.342C-101.401 121.184 -98.1055 121.822 -96.0677 123.028C-94.0287 124.161 -93.6978 124.13 -92.1355 122.832C-90.5733 121.534 -93.5352 120.717 -94.4818 120.189C-95.4296 119.733 -95.6103 119.547 -94.6423 118.681C-93.6742 117.814 -91.4183 119.171 -90.2458 119.336C-89.0733 119.501 -86.7768 118.214 -86.3205 117.193C-85.8269 116.135 -85.8924 115.62 -84.1302 115.647C-82.368 115.674 -82.2854 119.862 -82.8107 120.588C-83.3359 121.315 -83.7685 123.181 -86.0187 123.844C-88.305 124.47 -88.4213 124.872 -90.388 126.2C-92.3546 127.529 -91.2622 128.133 -90.6963 129.537C-90.1303 130.941 -91.6733 130.991 -92.4799 130.905C-93.2864 130.819 -97.8263 132.329 -99.7398 132.593C-101.653 132.857 -102.262 131.857 -103.468 131.434C-104.673 131.012 -105.255 133.022 -105.225 133.5C-105.196 133.978 -106.241 135.064 -107.247 136.04C-108.254 137.016 -108.807 137.191 -108.644 138.552C-108.482 139.913 -108.878 139.43 -109.274 141.26C-109.669 143.09 -111.04 143.913 -112.463 145.727C-113.887 147.541 -110.366 150.203 -109.823 150.762C-109.281 151.321 -108.928 152.208 -109.743 152.709C-110.559 153.211 -108.461 157.686 -108.557 159.154C-108.653 160.621 -106.109 162.349 -105.349 163.059C-104.588 163.768 -104.644 164.979 -104.909 165.526C-105.175 166.072 -102.231 168.064 -101.915 168.987C-101.598 169.91 -99.0386 168.223 -99.0386 168.223C-98.5992 168.303 -96.7128 167.414 -94.4434 167.89C-91.625 168.484 -90.6151 167.288 -90.6151 167.288C-90.6151 167.288 -83.0097 159.84 -81.2577 158.141C-80.5122 157.418 -79.5509 156.992 -78.4879 157.118C-77.4622 157.281 -76.0751 157.817 -75.7983 158.922C-75.5204 159.955 -74.55 161.328 -73.3763 161.42C-72.7528 161.466 -72.0513 161.22 -71.4255 161.119C-69.5459 160.671 -66.1355 163.367 -64.5811 164.97C-63.569 166.014 -62.6325 167.203 -61.9185 168.536C-61.6678 168.944 -61.4543 169.388 -61.3887 169.903C-61.2532 170.639 -61.1119 171.009 -60.5686 171.495C-59.7733 172.315 -59.0549 173.354 -57.8349 172.822C-57.0589 172.503 -53.7073 174.244 -53.7073 174.244C-53.7073 174.244 -45.5797 178.224 -43.9801 179.277C-42.3806 180.33 -41.8192 179.641 -41.4091 179.243C-40.9991 178.846 -40.4795 178.486 -40.9099 177.819C-41.3041 177.188 -40.7111 176.83 -40.7111 176.83C-40.7111 176.83 -40.1915 176.471 -38.3254 174.517C-36.4221 172.526 -38.0059 168.059 -37.9912 167.104C-37.9766 166.15 -38.0839 165.965 -39.061 165.032C-40.1116 164.097 -39.9975 163.842 -39.1006 162.828C-38.1665 161.777 -39.1108 161.102 -40.9533 159.127C-42.7957 157.153 -42.4049 155.616 -42.3281 153.01C-42.2514 150.404 -48.2802 146.052 -50.4525 144.036C-52.6248 142.02 -52.2216 139.676 -52.2216 139.676C-52.2216 139.676 -54.1433 128.52 -54.2371 125.066C-54.331 121.613 -56.6184 124.699 -56.6184 124.699C-56.6184 124.699 -59.0436 127.196 -60.3437 128.167C-61.6077 129.176 -65.1875 127.946 -66.3612 127.855C-67.5348 127.763 -69.9239 127.91 -71.4128 126.822C-72.9016 125.734 -74.543 125.012 -74.543 125.012C-74.9078 124.859 -77.2574 124.823 -78.7802 123.551C-82.1883 120.708 -78.6096 122.011 -78.6096 122.011C-78.6096 122.011 -77.3309 122.435 -74.6074 122.036C-71.8478 121.675 -66.9407 124.945 -64.6035 125.788C-62.2664 126.632 -62.3782 126.741 -59.8818 124.392C-57.3493 122.081 -57.5008 115.212 -57.145 113.565C-56.7892 111.918 -57.9561 111.386 -59.2337 110.889C-60.5113 110.392 -61.188 111.41 -63.1534 112.665C-65.0828 113.957 -67.5939 112.486 -69.9887 113C-72.3835 113.514 -70.9319 112.251 -69.7798 111.351C-68.6276 110.451 -67.9735 110.901 -66.8371 111.029C-65.6646 111.194 -64.483 110.771 -62.9875 109.032C-61.4558 107.329 -59.7603 106.915 -58.9176 107.038C-58.0749 107.161 -56.5589 106.487 -56.5589 106.487C-56.5589 106.487 -53.7632 103.776 -53.0663 103.823C-52.3693 103.87 -51.5797 105.058 -49.5724 103.473C-47.5651 101.888 -43.1641 104.636 -43.1641 104.636C-43.1641 104.636 -38.1598 108.752 -36.1333 108.306C-32.191 107.448 -37.777 102.956 -38.6051 101.879C-39.4331 100.801 -38.1206 96.6349 -37.5852 95.2477C-37.3559 94.6637 -37.6033 94.0357 -37.9998 93.5522C-38.2517 93.2178 -39.126 92.7638 -39.1193 92.3232C-39.0775 91.9934 -38.2958 91.3077 -38.036 91.1281C-37.4791 90.7327 -36.946 89.4924 -35.7102 90.3192C-34.4744 91.1461 -31.8672 91.1494 -31.8672 91.1494C-31.0596 91.1618 -30.3208 90.8794 -29.6532 90.449C-29.0963 90.0536 -28.7168 89.2516 -28.0164 89.0787C-27.0213 88.8369 -26.2022 90.502 -25.6973 91.0972C-25.1189 91.6937 -24.6897 92.4347 -24.0006 92.9961C-23.2754 93.5948 -22.3231 93.7563 -21.5233 94.2826C-20.9777 94.6215 -20.5055 94.9593 -20.0345 95.3704C-20.0345 95.3704 -14.5298 97.9887 -12.7654 95.4821C-11.5647 93.8114 -16.4853 93.8092 -18.6507 93.7392C-20.8162 93.6693 -21.9752 92.6233 -22.6112 90.9978C-23.2472 89.3723 -20.9055 89.9223 -18.3267 89.3744C-15.7478 88.8265 -16.743 89.0683 -17.0288 86.1629C-17.2785 83.2949 -20.3138 82.4771 -21.1215 82.4647C-21.9291 82.4523 -25.8127 81.8785 -24.4866 79.2183C-23.1978 76.5942 -21.4041 74.5653 -20.4677 73.3679C-19.5312 72.1705 -20.7637 71.1234 -21.4325 66.8535C-22.1013 62.5836 -26.9248 61.0407 -28.9355 60.459C-30.9835 59.9134 -31.7833 59.3871 -31.9302 56.9979C-32.0771 54.6088 -28.7187 55.9089 -28.7187 55.9089C-28.7187 55.9089 -25.7569 56.7256 -22.4584 57.1434C-19.16 57.5613 -21.2825 54.7012 -21.6 53.8517C-21.9536 52.965 -23.6819 53.1221 -25.0724 52.8069C-26.463 52.4918 -27.1306 50.5353 -27.4515 49.9061C-27.7723 49.277 -26.3163 45.3335 -25.7843 44.1666C-25.2523 42.9997 -25.7674 40.6783 -28.4673 37.1484C-31.1672 33.6184 -27.0598 36.3622 -27.0598 36.3622C-27.0598 36.3622 -20.0437 43.3734 -18.8157 44.7143C-17.5878 46.0551 -16.971 46.5419 -17.5979 49.1028C-18.2248 51.6636 -18.6281 51.6207 -19.3047 52.6385C-19.9813 53.6563 -19.9903 54.2437 -18.0767 56.3662C-16.1631 58.4886 -16.2411 56.3943 -16.5992 55.8013C-16.9573 55.2083 -17.9582 53.4303 -16.7687 52.4938C-15.5792 51.5573 -15.0574 48.6644 -14.7739 46.9429C-14.4905 45.2214 -16.8898 43.6422 -18.0477 42.5228C-19.2055 41.4034 -18.992 41.8473 -18.0579 40.7968C-17.1237 39.7462 -17.5688 40.0331 -18.3234 38.9566C-19.078 37.8801 -19.6337 38.2021 -20.6018 39.0685C-21.5698 39.935 -22.251 38.8596 -22.251 38.8596C-22.251 38.8596 -26.5109 34.0939 -27.7828 33.2298C-29.0187 32.4029 -31.8415 32.1025 -34.382 34.9277C-36.9224 37.7529 -36.3996 30.0128 -36.3963 27.4057C-36.4302 24.8347 -34.2952 24.5003 -34.2952 24.5003C-34.2952 24.5003 -32.044 23.7637 -29.4854 22.1506C-26.9269 20.5375 -29.56 19.836 -30.3836 18.4647C-31.2071 17.0934 -29.8414 16.637 -26.9327 16.1308C-24.0239 15.6247 -25.1715 21.0051 -24.9309 22.0737C-24.6902 23.1423 -22.0221 23.9544 -19.0252 24.8817C-16.0283 25.8091 -18.5644 23.5669 -19.1744 22.6395C-19.8216 21.7482 -20.583 21.1123 -20.3786 19.7568C-20.1742 18.4012 -21.6336 17.7912 -23.188 16.1884C-24.7424 14.5855 -23.4072 13.7247 -21.6552 12.0257C-19.8671 10.364 -20.258 9.51346 -20.101 8.85491C-19.944 8.19633 -20.746 7.8168 -18.462 4.95094C-16.1419 2.12234 -28.0548 0.727559 -28.972 0.676753C-29.8893 0.625948 -37.1332 8.4464 -39.0693 10.1793C-41.0054 11.9121 -42.0876 10.647 -42.8942 10.5611C-43.7007 10.4753 -47.5514 14.9328 -48.3704 15.6547C-49.1893 16.3765 -51.5999 15.5317 -52.3432 16.1078C-53.0865 16.6839 -52.6967 17.6079 -52.7893 18.855C-52.8819 20.1021 -54.2556 18.6856 -54.9085 18.1614C-55.5614 17.6373 -56.1522 17.8486 -57.1146 18.3479C-58.077 18.8472 -56.1612 20.8228 -55.5478 21.53C-54.9344 22.2371 -61.1527 27.8333 -62.3444 28.9166C-63.5362 30 -65.1379 29.094 -66.6629 27.969C-68.1879 26.8439 -68.0072 29.4172 -68.0072 29.4172L-70.6955 32.3136C-70.6955 32.3136 -75.6115 36.7914 -76.6981 38.2069C-77.7475 39.5862 -78.1802 36.6785 -78.2684 35.2451C-78.3927 33.7743 -82.6433 35.5818 -83.3414 35.6078C-84.0395 35.6338 -86.1394 38.4658 -86.842 38.7855C-87.5073 39.069 -88.6754 38.6104 -88.5714 39.016C-88.4675 39.4215 -87.8948 40.385 -88.0563 41.3373C-88.2178 42.2896 -88.8842 42.6465 -89.5213 43.4813C-90.1584 44.3161 -89.3857 44.2178 -92.0651 46.5268C-94.7083 48.8731 -93.1935 50.6589 -93.0726 52.35C-92.989 54.0771 -94.4032 55.3039 -95.0007 55.9557C-95.5621 56.6448 -94.1094 57.6953 -93.6485 58.7673C-93.1876 59.8393 -96.1156 59.2068 -96.7798 59.4169C-97.4802 59.5897 -95.9212 60.8989 -95.9212 60.8989C-95.9212 60.8989 -91.7653 65.2591 -91.5179 65.8871C-91.2705 66.5152 -96.3018 64.1612 -97.1333 63.3039C-97.9274 62.4104 -100.443 61.2334 -100.918 61.0425C-101.319 60.8527 -101.221 61.6988 -101.055 62.8397C-100.889 63.9806 -99.2896 65.0333 -98.4978 66.0737C-97.7059 67.1141 -98.6977 67.1355 -100.151 68.5453C-101.605 69.9551 -101.396 70.6927 -101.45 71.8302C-101.505 72.9678 -103.848 74.9514 -105.116 76.1805C-106.383 77.4095 -106.33 78.7323 -106.799 80.5611C-107.268 82.39 -108.054 80.9825 -109.775 80.699C-111.57 80.4144 -110.168 82.3821 -109.856 83.5253C-109.543 84.6684 -113.62 84.7894 -115.496 84.9442C-117.371 85.099 -117.39 86.3472 -117.949 86.8895C-118.508 87.4317 -118.925 88.2699 -120.461 87.8791C-121.998 87.4882 -123.455 89.1183 -125.674 90.1858C-127.894 91.2534 -127.223 92.9896 -128.398 95.3584C-129.573 97.7272 -129.008 99.2047 -129.008 99.2047C-129.008 99.2047 -129.008 99.2047 -128.143 100.32C-127.279 101.435 -127.425 103.746 -127.268 105.474C-127.111 107.202 -128.53 108.723 -128.916 109.965C-129.302 111.208 -126.177 113.312 -125.091 114.357C-124.042 115.365 -123.05 112.956 -121.931 111.872C-120.85 110.824 -120.543 112.334 -120.259 112.926C-120.008 113.334 -120.639 113.801 -120.534 114.133C-120.535 114.207 -120.463 114.281 -120.317 114.357C-119.807 114.585 -119.107 114.486 -118.522 114.642C-116.693 115.11 -117.401 113.337 -117.401 113.337C-117.401 113.337 -117.693 110.872 -118.17 108.441C-118.578 106.305 -121.119 106.817 -121.38 104.683C-121.61 102.88 -121.544 101.009 -121.298 99.3231C-120.886 96.3918 -119.866 96.9216 -118.658 97.1971C-117.451 97.4727 -119.346 101.336 -118.323 104.032C-117.299 106.729 -115.732 102.75 -114.925 105.149C-112.839 110.433 -112.6 111.575 -113.802 113.319ZM-107.485 72.6189C-106.565 72.5228 -105.645 72.3534 -104.723 72.1105C-104.428 72.0416 -103.065 71.732 -103.867 71.3525C-104.413 71.087 -105.147 71.0023 -105.733 70.9199C-106.905 70.755 -107.265 70.2354 -108.132 69.3408C-109 68.4461 -107.933 65.9655 -107.933 65.9655C-104.747 56.9444 -108.825 64.2259 -109.611 65.2053C-110.396 66.1113 -111.145 67.0545 -111.448 67.6374C-111.75 68.2203 -111.6 70.3891 -111.109 71.8655C-110.968 72.3083 -110.532 72.6088 -110.131 72.7985C-109.803 72.9137 -109.473 72.9555 -109.105 72.8877C-108.552 72.7861 -107.963 72.6482 -107.485 72.6189ZM-39.1416 148.763C-39.2647 149.606 -38.0323 150.653 -36.1537 152.665C-35.6115 153.224 -31.0715 156.488 -31.4771 154.205C-31.5133 154.168 -32.0183 151.186 -32.957 150.143C-33.9319 149.063 -34.0867 147.188 -34.438 146.155C-34.7893 145.121 -35.8794 144.37 -38.0697 143.528C-40.2601 142.687 -38.5859 146.054 -38.5859 146.054C-38.4119 146.681 -39.0185 147.92 -39.1416 148.763ZM-12.2592 100.778C-11.159 100.868 -10.0226 100.996 -8.92239 101.086C-8.37227 101.131 -7.82214 101.176 -7.27202 101.221C-6.68462 101.231 -6.02268 101.167 -5.51208 101.395C-5.00149 101.624 -4.53271 102.182 -3.94531 102.191C-3.43134 102.199 -3.0213 101.801 -2.72196 101.438C-1.30433 99.9912 0.221723 98.656 1.71279 97.21C10.2863 88.8959 3.22187 94.5893 2.77681 94.8762C2.33175 95.1632 1.72969 96.1087 0.515371 96.2736C-0.69895 96.4386 -3.76011 99.6964 -3.76011 99.6964C-3.76011 99.6964 -4.84225 100.818 -5.59686 99.7417C-6.35146 98.6652 -6.72647 99.1735 -10.4203 98.1987C-14.1142 97.224 -12.4491 98.7918 -16.8907 98.6869C-21.3323 98.5819 -17.7119 99.5556 -16.397 100.016C-15.0821 100.477 -12.9551 100.657 -12.9551 100.657C-12.736 100.734 -12.4795 100.774 -12.2592 100.778ZM0.908309 89.8168C1.22915 90.4459 1.66294 90.8933 2.40281 90.5374C3.73573 89.8235 3.22402 89.6687 3.61707 87.9856C3.69499 87.693 3.92882 86.8153 3.63852 86.5905C3.38434 86.403 2.89973 86.873 2.60492 86.9419C2.27395 86.9735 1.90683 86.9679 1.68317 87.1848C1.34881 87.4367 1.0506 87.7259 0.788537 88.0523C0.45192 88.4511 0.373989 88.7436 0.551339 89.1503C0.621375 89.3717 0.764859 89.5942 0.908309 89.8168ZM-2.84303 92.5866C-2.50755 92.2613 -2.13479 91.8998 -1.9439 91.4254C-1.75414 91.0244 -1.8208 90.5827 -1.77788 90.1794C-1.69319 89.4463 -1.98012 89.0013 -2.26705 88.5562C-3.0194 87.3329 -4.14225 86.3241 -5.11826 85.3177C-6.85338 83.5284 -6.78897 84.117 -7.81014 83.6606C-8.35689 83.3952 -9.15434 85.1088 -9.27858 86.0249C-9.40282 86.941 -8.41779 87.3601 -7.949 87.9181C-7.29833 88.5891 -7.86084 89.3516 -7.98282 90.1208C-8.14432 91.0731 -8.23242 92.0265 -8.32051 92.9799C-8.44924 94.1897 -7.23718 94.1716 -6.36059 94.4788C-6.14144 94.5556 -5.84888 94.6336 -5.59133 94.6008C-5.11349 94.5714 -4.74187 94.2834 -4.40751 94.0315C-4.37024 93.9953 -4.37024 93.9953 -4.33298 93.9592C-3.81222 93.5265 -3.32764 93.0566 -2.84303 92.5866ZM-4.83037 78.5287C-4.02722 78.8348 -3.11221 79.0325 -2.27065 79.229C-1.7951 79.3465 -0.91513 79.4335 -0.831554 78.7738C-0.708452 77.9311 -1.43479 77.4058 -1.90472 76.9212C-2.98917 75.8029 -4.46788 74.0544 -5.67432 73.7053C-6.91802 73.3925 -8.24641 73.8127 -9.52852 73.6094C-10.5181 73.484 -10.8185 73.9201 -13.402 72.3748C-16.0227 70.8657 -13.306 73.2943 -12.1526 74.7074C-10.9992 76.1206 -8.79422 76.0075 -8.79422 76.0075C-6.99701 76.1453 -6.3994 77.8804 -4.83037 78.5287ZM14.3154 79.9979C14.7989 79.6014 15.3535 79.3528 16.0132 79.4364C16.8197 79.5223 17.4376 79.9357 18.2058 80.1311C18.7175 80.2858 19.4495 80.444 19.8256 79.8622C20.1283 79.2793 20.1419 78.3982 20.9846 78.5213C22.1571 78.6862 22.1288 78.135 22.1288 78.135C22.1695 77.8786 22.6382 76.0497 23.6312 75.9548C29.4407 75.4565 26.1457 74.8183 24.3134 74.5699C22.4812 74.3214 18.9116 74.8174 17.076 74.7892C15.2404 74.761 14.1346 77.4246 12.9463 78.2877C11.7579 79.1507 11.1897 77.8935 10.0161 77.802C8.84237 77.7106 7.2565 80.5504 6.48159 80.7956C5.7067 81.0407 5.3373 81.1819 4.65048 80.4737C4.54204 80.3618 3.41467 79.6468 3.47906 80.2354C3.51184 80.4929 3.98402 80.8307 4.16477 81.017C4.45395 81.3153 4.74313 81.6135 5.06958 81.8755C5.86825 82.4753 6.1382 81.6349 7.61233 81.2903C9.05031 80.9085 10.2895 81.515 11.235 82.1171C11.9986 82.6062 12.7453 81.8098 13.2694 81.1569C13.606 80.7581 13.9426 80.3594 14.3154 79.9979ZM46.2432 102.778C46.0207 102.921 45.6117 103.246 45.7541 103.542C45.8964 103.837 46.5595 103.701 46.7402 103.887C47.0294 104.185 47.8586 105.19 48.8255 104.397C49.7551 103.64 49.3982 102.973 48.7532 101.935C48.6458 101.75 48.5013 101.601 48.2821 101.524C47.9895 101.446 47.6924 101.662 47.5061 101.843C47.2835 101.986 47.0971 102.167 46.8373 102.346C46.6148 102.49 46.4657 102.634 46.2432 102.778ZM15.3549 91.2137C14.4569 92.3016 14.1395 93.839 13.7521 95.155C13.4821 95.9954 13.2472 96.9465 13.6008 97.8333C13.8832 98.572 14.788 99.4305 15.2557 100.062C15.7946 100.841 13.4642 101.944 12.9017 102.706C12.3391 103.469 13.2135 103.923 13.2067 104.364C13.1627 104.84 11.9777 105.483 11.3395 106.391C10.5883 107.481 12.6262 108.688 13.1662 109.394C13.7061 110.1 14.097 110.95 14.5624 111.729C15.421 113.211 16.0208 112.412 16.9064 112.132C17.792 111.852 18.8957 114.109 19.9112 114.932C20.8544 115.681 22.768 115.417 23.7654 115.028C24.4669 114.782 24.9549 114.091 25.4767 113.585C26.0732 113.007 26.7057 112.466 27.1203 111.775C27.5348 111.083 27.5111 110.238 27.6703 109.433C27.8736 108.151 28.4407 107.095 29.4449 106.265C30.4863 105.4 31.5267 104.608 32.532 103.706C33.0539 103.2 33.7678 102.146 34.5676 102.672C35.1493 103.048 35.5808 103.642 36.1626 104.018C37.3984 104.845 37.7452 103.786 38.6025 102.954C39.4599 102.123 40.1478 102.758 40.986 103.175C42.4071 103.894 43.1176 103.06 44.0867 102.121C44.7577 101.47 45.4287 100.819 46.0635 100.131C47.1106 98.8988 46.6983 97.0564 46.6983 97.0564C46.6983 97.0564 45.6962 92.965 45.4296 91.1983C45.163 89.4316 43.1838 86.7941 41.4125 84.9675C39.6413 83.141 34.6123 83.027 34.6123 83.027C34.6123 83.027 27.1354 82.1043 25.9244 82.049C24.7135 81.9937 24.3271 80.8494 23.4167 80.358C22.5435 79.8305 23.1049 81.5283 22.652 82.3292C22.199 83.1301 24.9926 85.3395 25.3541 85.7123C25.7155 86.0851 24.8605 86.7696 23.9443 86.6454C23.0282 86.5212 22.8757 86.886 21.954 87.1289C21.0322 87.3718 20.045 87.0996 18.9944 86.1654C17.9811 85.1951 17.2627 86.5428 16.0337 87.6622C14.8047 88.7817 15.6508 88.6845 16.0417 89.5351C16.2902 90.0897 15.879 90.5608 15.5424 90.9596C15.4306 91.068 15.3922 91.1776 15.3549 91.2137ZM64.4623 90.4625L64.4612 90.5359C64.5211 91.4181 64.8815 94.2512 65.7355 93.6401C66.5522 93.065 67.8444 92.6075 67.8218 91.6892C67.7269 90.6962 67.144 90.3935 67.9799 88.5703C68.3978 87.6587 66.9688 85.0663 66.9688 85.0663C66.9688 85.0663 66.0222 84.5376 65.1411 84.5241C64.443 84.5501 64.7774 86.685 64.7672 87.3459C64.7142 88.41 64.4408 89.4707 64.4623 90.4625ZM66.7767 80.8404C66.2785 79.8046 67.2714 79.7096 66.7292 79.1505C66.187 78.5914 63.5708 79.1754 62.5417 79.2331C60.5197 79.3856 63.4793 80.3491 63.7245 81.124C63.9674 82.0458 63.9301 82.0819 64.8778 82.5371C65.1331 82.6512 66.1871 83.3651 66.4458 83.2589C67.8882 82.5834 67.311 81.9135 66.7767 80.8404Z" stroke="#475566" stroke-opacity="0.3" stroke-width="2" mask="url(#path-1-inside-1_405_7894)"/>
</svg>
