<svg width="54" height="167" viewBox="0 0 54 167" fill="none" xmlns="http://www.w3.org/2000/svg">
<mask id="path-1-inside-1_405_7891" fill="white">
<path d="M257.038 10.9948C257.688 10.542 258.342 10.141 259.111 9.94154C260.139 9.72741 261.337 9.76369 262.293 9.18959C262.946 8.7886 264.189 6.84608 262.538 7.09538C261.404 7.26354 259.172 7.3377 258.344 6.50034C256.248 4.38247 253.906 9.87168 251.644 9.42742C250.435 9.18377 250.087 7.64315 248.884 8.43927C248.133 8.94981 247.344 9.72249 246.815 10.4805C246.044 11.5642 246.647 12.1023 247.851 12.2422C248.948 12.3362 250.031 12.171 251.172 12.1065C252.209 12.0479 253.251 12.093 254.294 12.1381C255.337 12.1832 256.186 11.5631 257.038 10.9948ZM244.727 4.82564C244.727 4.82564 244.292 7.24263 243.48 7.60057C242.72 7.95558 242.329 8.39376 241.749 7.33437C241.172 6.32683 242.338 5.79285 243.172 4.91355C244.006 4.03426 245.292 1.93329 244.727 4.82564ZM249.303 18.6092C250.765 17.7984 249.984 16.8544 250.406 15.1143C250.827 13.3742 252.013 15.0235 253.607 16.5456C255.201 18.0677 256.538 15.0277 257.271 14.2061C258.005 13.3846 257.271 13.2701 261.242 12.6815C265.158 12.0441 264.842 11.958 266.718 13.8802C268.595 15.8024 265.3 15.4686 263.034 15.8567C260.767 16.2449 260.792 17.5957 261.078 18.9837C261.365 20.3718 265.526 19.4605 269.439 18.7712C273.353 18.0819 273.04 18.9837 275.112 19.7507C277.183 20.5178 281.302 17.9446 283.033 17.2747C284.763 16.6048 296.832 16.6507 298.594 16.5511C300.357 16.4515 301.418 17.7437 302.801 18.2896C304.184 18.8355 303.752 21.3044 303.868 22.442C303.984 23.5796 306.518 22.3962 307.866 22.32C309.214 22.2438 308.895 23.042 309.054 24.0211C309.213 25.0002 308.649 25.1362 307.036 25.1233C305.423 25.1105 304.764 25.4078 304.773 26.4994C304.783 27.591 306.876 26.9006 308.173 26.8274C309.469 26.7541 309.079 29.0645 308.928 30.9973C308.778 32.9301 307.516 32.6894 306.819 33.2488C306.123 33.8083 305.127 34.5927 311.391 36.839C317.655 39.0853 311.68 38.2789 310.62 37.9227C309.56 37.5666 304.918 36.4247 303.571 36.5009C302.223 36.5771 300.061 35.1391 298.268 33.7842C296.475 32.4293 291.174 33.4051 287.34 33.6738C283.507 33.9425 280.664 42.5285 278.871 43.93C277.078 45.3316 277.465 55.8673 277.693 58.9749C277.92 62.0825 275.759 64.337 274.778 65.3806C273.797 66.4242 271.576 72.2186 268.991 76.1614C266.408 80.1559 267.432 75.2613 268.138 73.0371C268.841 70.761 267.349 72.8737 267.349 72.8737C267.349 72.8737 262.694 78.8576 261.859 81.5573C261.023 84.2569 256.898 86.7264 254.058 87.095C251.219 87.4635 251.315 88.2382 251.315 88.2382C251.315 88.2382 251.532 89.3181 248.133 89.9262C244.787 90.5315 245.507 93.1432 244.166 94.2592C242.825 95.3751 240.709 96.5869 238.791 96.6953C236.872 96.8037 237.535 96.5583 237.254 98.0304C236.973 99.5025 238.432 101.396 239.476 102.377C240.519 103.359 240.758 105.738 240.916 108.537C241.074 111.336 240.018 111.968 240.018 111.968C240.018 111.968 234.653 121.945 233.303 122.905C231.953 123.866 232.266 125.721 232.266 125.721C232.266 125.721 233.069 139.925 233.182 141.011C233.296 142.097 233.399 142.091 234.406 143.334C235.412 144.578 235.418 147.438 235.418 147.438C235.418 147.438 236.285 160.027 236.338 160.96C236.391 161.893 235.007 163.167 230.433 165.974C225.859 168.781 229.066 164.803 229.535 163.893C230.003 162.982 229.512 160.722 229.415 159.011C229.318 157.3 227.817 156.501 227.188 155.496C226.559 154.491 227.034 153.685 226.931 151.87C226.828 150.056 224.754 149.237 224.754 149.237C224.754 149.237 213.021 138.562 212.081 137.575C211.141 136.588 210.871 134.575 210.91 133.429C210.949 132.282 207.34 129.158 205.343 127.866C203.346 126.575 201.62 122.72 201.466 121.845C201.313 120.969 201.147 118.95 199.795 118.038C198.443 117.127 198.375 114.998 197.73 112.798C197.086 110.598 201.219 110.105 203.616 108.357C206.014 106.609 209.927 105.92 210.238 105.902C210.55 105.885 212.324 105.993 212.147 104.702C211.97 103.412 212.933 101.121 213.493 99.9975C214.054 98.8737 215.042 98.8698 216.234 98.8024C217.427 98.735 220.865 95.1602 222.362 94.0354C223.858 92.9106 227.068 93.5614 229.109 92.8739C231.151 92.1864 230.114 92.245 231.951 91.6211C233.788 90.9972 234.816 93.5395 235.712 93.7489C236.608 93.9583 239.453 93.6934 240.481 93.4793C241.509 93.2651 242.184 91.4067 242.35 89.7331C242.515 88.0595 243.044 87.3015 244.4 86.4447C245.756 85.5879 245.864 83.8136 245.638 82.5782C245.412 81.3427 246.287 81.1892 247.321 81.0788C248.355 80.9683 248.327 81.386 248.636 82.2527C248.945 83.1193 249.798 83.4872 252.006 82.9983C254.212 82.4576 254.996 79.7608 255.135 77.6206C255.274 75.4805 255.155 74.291 253.633 73.1288C252.111 71.9667 251.734 72.6641 249.782 73.0865C247.83 73.5089 246.42 72.4964 245.048 71.2218C243.676 69.9471 242.249 72.3161 242.249 72.3161C242.249 72.3161 242.249 72.3161 240.311 75.7541C238.373 79.1922 238.442 75.8078 238.779 72.5643C239.115 69.3207 228.636 59.6675 227.051 58.3009C225.465 56.9343 225.656 57.5476 223.052 57.4867C220.448 57.4259 219.314 54.8376 217.749 53.8339C216.184 52.8302 219.66 52.6857 221.169 51.7683C222.677 50.8509 220.073 50.7901 219.114 50.3762C218.154 49.9624 216.17 49.8145 213.586 50.1166C211.003 50.4186 216.916 40.931 217.946 39.8326C218.976 38.7342 218.577 37.1966 219.01 35.6638C219.444 34.1311 221.347 36.5199 222.734 38.0537C224.121 39.5876 223.978 37.9834 223.715 37.0101C223.452 36.0368 224.43 34.9414 224.821 33.5671C225.211 32.1928 228.552 32.42 229.742 32.3008C230.931 32.1816 230.73 32.297 231.207 34.2983C231.684 36.2996 231.187 37.6279 230.93 39.5148C230.672 41.4016 232.89 43.8247 234.155 45.0533C235.421 46.282 235.644 44.7091 235.623 43.4101C235.601 42.1112 236.235 42.2834 237.675 41.9939C239.115 41.7045 239.215 41.6468 239.71 40.2667C240.204 38.8865 242.057 37.6376 243.866 37.4313C245.675 37.2251 244.926 34.0949 244.795 32.6981C244.661 31.2495 241.962 31.35 241.066 31.1406C240.17 30.9312 238.666 30.0801 237.308 31.8211C235.947 33.5103 234.457 31.9823 234.457 31.9823C234.457 31.9823 232.131 30.3975 232.072 29.3606C232.013 28.3238 232.498 28.6085 233.897 28.5294C235.297 28.4502 235.504 28.4385 235.437 27.2461C235.37 26.0538 235.364 25.9501 232.872 26.0389C230.381 26.1277 231.393 23.7822 230.139 22.7609C228.885 21.7396 227.791 22.6336 228.125 24.8511C228.458 27.0686 225.769 25.5043 224.35 26.1566C222.93 26.8089 223.645 27.4966 224.904 27.6855C226.163 27.8744 225.357 28.336 225.07 29.7044C224.784 31.0728 224.919 30.7011 220.996 31.2349C217.074 31.7687 220.329 29.5563 220.565 29.1269C220.801 28.6976 221.935 27.5933 218.369 28.0029C214.804 28.4124 216.869 25.3833 216.869 25.3833C216.869 25.3833 219.114 20.9397 221.904 19.6898C224.694 18.44 223.919 18.5358 225.317 16.5845C226.715 14.6331 232.519 15.1892 234.224 14.9888C235.929 14.7884 235.89 15.9348 236.833 16.9737C237.724 18.0155 235.712 19.2214 235.701 22.7066C235.689 26.1917 237.798 23.0041 237.798 23.0041C237.798 23.0041 238.957 21.4303 239.451 20.0502C239.945 18.6701 240.111 17.9325 239.226 16.9944C238.341 16.0563 237.917 14.9881 239.504 12.714C241.092 10.44 242.445 9.53136 243.165 9.38665C243.885 9.24194 243.759 10.7052 243.726 11.9553C243.693 13.2054 242.955 13.0391 242.115 13.8147C241.327 14.5873 241.766 15.9147 242.052 17.3028C242.339 18.6908 242.335 17.7028 243.511 15.5041C244.687 13.3053 245.581 14.3989 246.803 15.786C248.026 17.1731 244.965 18.2303 245.008 20.8283C245.051 23.4262 246.382 21.2186 246.382 21.2186C246.382 21.2186 247.841 19.4199 249.303 18.6092ZM299.307 65.9704C299.307 65.9704 298.486 71.6857 297.02 71.5085C294.088 71.1542 296.159 69.1648 298.53 66.0144C298.72 65.6916 299.545 64.6568 299.307 65.9704ZM237.76 82.1393C237.455 82.2606 237.146 82.33 236.896 82.5002C236.496 82.7829 236.211 83.267 235.753 83.4489C235.146 83.7433 233.867 83.1915 233.236 83.0712C230.557 82.5985 237.478 79.9189 238.705 79.5375C239.931 79.1561 240.28 78.8764 243.15 79.9624C246.019 81.0484 240.841 81.4451 240.841 81.4451C239.761 81.6621 238.73 81.8244 237.76 82.1393ZM231.575 84.0492C231.592 84.3602 231.61 84.6713 231.561 84.7261C231.334 85.311 230.596 85.1446 230.078 85.1739C229.611 85.2003 226.7 85.2089 228.018 84.6143C228.83 84.2563 229.679 83.6362 230.595 83.2724C231.916 82.7297 231.54 83.4271 231.575 84.0492ZM239.244 9.03616C238.88 9.94093 238.249 9.82056 237.745 10.1091C237.241 10.3976 237.121 11.0285 237.05 12.5407C236.98 14.0529 232.178 13.7523 228.909 13.885C225.64 14.0178 227.669 12.1869 231.822 12.0561C233.639 12.0054 233.829 11.6826 234.292 10.6683C234.755 9.654 235.581 9.55527 236.747 9.02129C237.913 8.48731 237.774 7.87107 238.848 6.61422C240.312 4.9192 239.661 8.12847 239.661 8.12847C239.661 8.12847 239.609 8.1314 239.244 9.03616ZM226.34 10.7538C224.007 10.8856 222.356 7.4424 222.22 6.87799C222.084 6.31359 220.629 5.4077 218.762 5.5132C216.896 5.61869 215.911 5.67437 215.026 4.73625C214.141 3.79813 215.048 4.2149 212.314 3.69332C209.58 3.17175 209.585 2.33934 209.579 1.29957C209.572 0.25979 213.93 0.0654798 215.125 0.0499236C216.32 0.0343674 216.258 0.766021 217.6 1.52224C218.943 2.27846 226.728 1.05834 229.213 0.865835C229.472 0.851183 229.732 0.836531 229.945 0.928495C229.66 1.41266 228.577 1.57788 228.122 1.81162C227.463 2.10893 227.13 2.64787 226.58 3.043C226.027 3.38629 225.356 3.47622 224.737 3.56323C218.243 4.60641 223.304 4.89243 223.825 4.91497C224.347 4.9375 225.158 4.57956 225.39 5.91867C225.622 7.25779 227.295 6.48713 228.179 6.48916C229.063 6.49118 228.743 6.35324 228.649 4.69428C228.556 3.03533 232.41 3.12953 234.071 3.0876C235.733 3.04567 235.139 4.48351 235.333 6.08477C235.528 7.68602 235.11 7.65762 233.408 7.90985C231.758 8.15915 232.351 8.54165 232.2 9.53838C232.048 10.5351 229.447 10.5261 229.447 10.5261C229.447 10.5261 228.672 10.6219 226.34 10.7538ZM206.974 3.05906C206.974 3.05906 208.454 2.55934 209.293 3.60407C210.132 4.64881 209.308 4.79938 211.126 4.74866C212.943 4.69794 212.845 4.80748 213.322 5.87273C213.798 6.93798 214.738 7.92501 216.034 7.85175C217.33 7.77849 219.377 7.19469 219.226 8.19142C219.077 9.23999 217.464 11.9836 216.585 12.0852C215.707 12.1869 208.247 11.7765 207.636 14.7754C207.028 17.8262 208.554 22.7328 207.201 23.6414C205.848 24.55 206.526 25.4998 207.007 25.7327C207.488 25.9655 208.182 25.3542 208.267 26.8576C208.352 28.3611 207.847 27.7135 207.088 29.0046C206.329 30.2957 205.888 29.8526 205.993 31.7189C206.099 33.5852 206.347 34.2993 204.959 34.5858C203.571 34.8723 202.443 36.0802 202.274 36.7659C202.105 37.4515 200.67 36.9085 200.26 36.0996C199.85 35.2906 195.216 29.6756 193.914 29.6452C192.612 29.6148 190.392 29.8963 190.276 28.7587C190.159 27.6211 190.791 25.9211 189.181 25.9601C187.571 25.9991 184.515 26.2239 183.083 24.7966C181.65 23.3694 178.759 21.9205 181.328 21.3593C182.509 21.0845 183.539 19.9861 182.846 18.7771C182.786 18.6245 180.98 18.8826 180.718 18.8454C180.09 18.7768 179.249 18.6164 178.851 18.0148C178.219 16.9583 177.587 15.9019 176.903 14.8483C176.283 13.9992 174.309 12.1866 176.618 11.64C177.335 11.4434 177.651 10.5934 176.564 9.77071C176.564 9.77071 174.813 6.38518 173.257 6.4731C172.791 6.49947 168.373 6.54118 168.954 5.78022C169.342 5.2902 169.342 5.2902 172.441 4.90701C172.853 4.83172 173.091 4.45417 173.445 4.27813C173.955 4.0933 174.632 4.10705 175.15 4.07775C177.959 4.07503 177.028 4.17962 178.165 3.12722C179.302 2.07481 180.442 2.01035 185.474 1.77794C190.557 1.54261 192.446 0.91576 193.752 1.93412C195.058 2.95248 194.526 3.65867 197.17 3.50922C199.814 3.35977 206.974 3.05906 206.974 3.05906ZM181.402 31.8607C181.41 32.0163 181.422 32.2236 181.431 32.3792C181.454 32.7939 181.498 33.5715 180.928 33.6038C180.098 33.6507 179.266 33.6457 178.434 33.6407C178.016 33.6123 177.561 33.8461 177.235 33.6045C176.48 33.1271 176.131 32.4707 175.137 32.3708C174.72 32.3424 173.591 32.6143 173.504 31.9951C173.489 31.7359 173.654 29.1262 174.051 28.7917C175.044 27.9554 177.721 29.3124 179.484 29.2127C180.106 29.1776 180.716 28.935 181.396 29.0006C181.972 29.0721 181.803 29.7577 181.722 30.1783C181.498 30.8151 181.421 31.2875 181.402 31.8607ZM168.626 45.0648C168.626 45.0648 170.784 46.451 170.907 47.6923C171.026 48.8817 171.515 51.0905 170.01 50.2393C168.454 49.3912 167.248 47.379 167.248 47.379C167.248 47.379 166.651 43.2521 168.626 45.0648ZM165.336 44.8347C165.109 45.4196 165.044 46.0994 164.923 46.7303C164.729 47.8855 165.458 48.8324 166.127 49.6267C166.739 50.3203 167.569 51.2095 166.573 51.9939C165.226 53.0062 163.234 50.8824 161.885 50.0225C160.807 49.3553 161.252 48.03 161.827 47.1653C162.541 45.9809 163.418 44.9431 163.811 43.6207C164.156 42.353 164.987 41.4219 165.706 40.3411C166.236 39.583 167.031 39.8501 167.418 41.1805C167.745 42.3582 166.95 43.0272 166.26 43.6903C165.863 44.0248 165.52 44.4082 165.336 44.8347ZM147.818 47.7492C149.757 48.0036 150.817 48.3598 152.657 47.7877C153.679 47.4699 153.052 44.6449 154.129 44.376C154.486 44.2518 155.035 43.8567 155.315 44.2049C155.482 44.4035 155.411 44.9796 155.426 45.2389C155.403 45.7602 155.165 47.0738 155.949 47.1336C156.994 47.2305 156.49 46.5829 157.235 48.7251C157.98 50.8673 160.262 51.6745 161.011 52.0482C161.761 52.4219 162.96 53.3943 164.722 53.2947C166.482 53.1432 166.773 53.6988 165.429 54.7629C164.385 55.6021 164.294 56.7514 164.26 58.0015C164.26 58.0015 164.26 58.0015 164.263 58.0534C164.241 58.5747 164.084 60.4038 164.87 60.5154C165.812 60.6182 168.914 60.2868 170.21 60.2136C171.506 60.1403 171.102 62.1915 171.224 63.4328C171.346 64.6741 171.059 65.1064 170.65 65.2335C170.244 65.4125 169.285 65.9347 168.831 67.1046C168.377 68.2744 166.634 67.8008 164.878 68.0042C163.121 68.2075 163.315 66.1162 163.012 65.3532C162.708 64.5902 163.304 64.0885 161.539 64.1363C159.825 64.1811 159.138 63.0758 158.858 61.7914C158.574 60.4553 157.348 61.7727 155.576 60.7807C153.804 59.7888 151.29 63.1554 150.147 64.1041C149.6 64.5511 148.164 65.8284 148.285 66.1336C148.689 66.8389 151.387 65.8023 150.643 67.3526C149.671 69.4878 148.478 68.6191 146.754 66.6363C144.98 64.7082 148.717 62.7287 149.411 62.1174C150.101 61.4543 151.799 60.2141 150.47 58.781C149.144 57.3997 146.44 61.0891 146.44 61.0891C145.203 62.1992 143.44 65.0553 142.947 67.3715C142.399 69.6388 142.151 69.8609 140.138 70.1307C138.125 70.4005 139.531 67.6686 139.783 66.6142C140.09 65.6087 140.076 65.3495 138.783 65.4746C137.49 65.5997 136.959 68.178 136.286 69.1522C135.613 70.1264 133.111 70.9439 132.051 70.5878C130.939 70.2346 130.604 69.8375 129.43 71.152C128.256 72.4665 131.28 75.3641 132.171 75.4698C133.061 75.5755 134.726 76.5215 136.739 75.3156C138.748 74.0579 139.122 74.2447 141.432 73.6981C143.741 73.1515 143.446 74.3644 144.095 75.7319C144.745 77.0994 145.827 75.9981 146.31 75.3467C146.793 74.6953 150.979 72.3783 152.47 71.1499C153.96 69.9215 153.637 68.7956 154.142 67.6228C154.648 66.45 156.521 67.3843 156.853 67.7296C157.184 68.075 158.691 68.0418 160.091 67.9627C161.49 67.8836 161.994 67.5951 162.885 68.6369C163.776 69.6787 163.689 69.0595 165.303 70.0084C166.917 70.9574 168.452 70.5066 170.75 70.6887C173.049 70.8708 172.621 75.2637 172.665 76.0413C172.709 76.8189 173.122 77.6797 174.043 77.4196C174.965 77.1595 176.836 81.7345 177.98 82.6579C179.124 83.5814 178.672 86.6234 178.679 87.6632C178.686 88.703 179.614 89.4826 180.196 89.6578C180.778 89.8329 180.248 93.3474 180.713 94.2052C181.177 95.0631 178.203 95.8034 178.203 95.8034C177.964 96.1809 176.032 96.9662 174.845 98.9576C173.372 101.433 171.808 101.366 171.808 101.366C171.808 101.366 161.178 101.915 158.741 102.052C157.704 102.111 156.74 102.529 156.113 103.397C155.537 104.262 154.991 105.645 155.617 106.597C156.189 107.501 156.542 109.146 155.814 110.071C155.425 110.561 154.769 110.91 154.271 111.302C152.668 112.381 152.341 116.716 152.467 118.945C152.549 120.397 152.789 121.892 153.286 123.32C153.416 123.781 153.598 124.238 153.933 124.635C154.382 125.234 154.559 125.588 154.548 126.317C154.612 127.457 154.89 128.69 153.672 129.227C152.912 129.582 151.922 133.226 151.922 133.226C151.922 133.226 149.344 141.901 149.034 143.791C148.725 145.681 147.838 145.627 147.268 145.659C146.697 145.692 146.081 145.83 145.882 145.062C145.685 144.345 145.02 144.538 145.02 144.538C145.02 144.538 144.404 144.677 141.702 144.726C138.949 144.777 136.735 140.586 136.023 139.95C135.311 139.314 135.248 139.11 135.223 137.759C135.248 136.353 134.983 136.264 133.629 136.237C132.223 136.212 132.366 135.06 132.162 132.367C131.958 129.674 130.563 128.921 128.594 127.212C126.625 125.503 127.508 118.12 127.497 115.156C127.485 112.192 125.488 110.901 125.488 110.901C125.488 110.901 118.584 101.93 116.107 99.5213C113.631 97.1129 117.451 97.5211 117.451 97.5211C117.451 97.5211 120.93 97.4284 122.525 97.1302C124.124 96.8839 125.644 93.4174 126.372 92.4921C127.1 91.5669 128.826 89.909 129.035 88.077C129.243 86.2449 129.823 84.5478 129.823 84.5478C129.958 84.1762 131.523 82.4234 131.619 80.4417C131.837 76.0087 130.371 79.5241 130.371 79.5241C130.371 79.5241 129.817 80.7516 127.678 82.4848C125.543 84.2697 124.624 90.0945 123.661 92.3853C122.699 94.6761 122.854 94.6673 119.435 94.9125C116.02 95.2096 111.07 90.4446 109.617 89.5906C108.165 88.7366 108.564 87.5178 109.064 86.2414C109.564 84.9649 110.771 85.1567 113.025 84.5612C115.283 84.0175 115.902 81.1741 117.903 79.7608C119.903 78.3475 117.991 78.5596 116.548 78.7972C115.105 79.0348 114.994 79.8212 114.318 80.7436C113.645 81.7178 112.534 82.3006 110.241 82.2222C107.951 82.1956 106.497 83.1619 106.017 83.8652C105.537 84.5684 104.014 85.2266 104.014 85.2266C104.014 85.2266 100.125 85.4464 99.6882 85.9912C99.2509 86.536 99.5892 87.9211 97.0636 88.3239C94.538 88.7267 93.578 93.8257 93.578 93.8257C93.578 93.8257 93.2156 100.295 91.5145 101.484C88.213 103.802 88.6929 96.6502 88.4612 95.3111C88.2295 93.972 84.2759 92.1152 82.8929 91.5692C82.3079 91.3423 82.0136 90.7348 81.9266 90.1156C81.8513 89.7038 82.1096 88.7531 81.781 88.4596C81.51 88.2669 80.4761 88.3773 80.168 88.4468C79.4999 88.5885 78.2264 88.1405 77.9974 89.6096C77.7684 91.0788 76.0046 92.9988 76.0046 92.9988C75.4666 93.6013 74.7583 93.9533 73.9895 94.1528C73.3214 94.2946 72.4744 94.0304 71.8728 94.4285C71.0207 94.9967 71.6906 96.7272 71.7864 97.5018C71.8333 98.3313 72.0876 99.1491 72.0337 100.036C71.9828 100.975 71.4565 101.785 71.3018 102.73C71.1815 103.361 71.11 103.937 71.0934 104.562C71.0934 104.562 69.2902 110.385 66.2511 109.985C64.2087 109.736 67.5406 106.115 68.9561 104.475C70.3716 102.835 70.3874 101.273 69.6226 99.7045C68.8578 98.1355 67.676 100.231 65.5259 101.756C63.3758 103.282 64.2278 102.714 62.2844 100.535C60.3439 98.4087 61.7987 95.622 62.3367 95.0195C62.8747 94.417 65.0836 91.1717 62.2285 90.3449C59.4252 89.5152 56.7177 89.4602 55.2025 89.3379C53.6874 89.2155 53.752 87.5996 51.0643 84.2149C48.3766 80.8303 50.5094 76.2371 51.4437 74.364C52.4298 72.488 52.5844 71.5431 50.9266 69.8165C49.2687 68.0899 47.9499 71.441 47.9499 71.441C47.9499 71.441 46.5441 74.1729 44.6169 76.8822C42.6898 79.5915 42.0239 76.0926 41.6141 75.2837C41.2014 74.4229 42.4878 73.258 43.198 72.0216C43.9082 70.7853 42.9214 68.9688 42.6759 68.3066C42.4305 67.6443 38.5434 66.0438 37.3247 65.6446C36.1059 65.2454 34.7475 63.2939 33.9799 58.9166C33.2125 54.5393 32.4481 59.4192 32.4481 59.4192C32.4481 59.4192 32.8523 69.3299 33.0067 71.1415C33.1611 72.953 33.1014 73.7365 35.4097 75.0103C37.7181 76.284 37.9597 75.9583 39.1667 76.1501C40.3737 76.3419 40.8119 76.7332 41.0768 79.5787C41.3416 82.4242 39.854 80.948 39.6603 80.2828C39.4667 79.6177 38.8369 77.677 37.3423 77.9175C35.8477 78.158 33.3662 76.582 31.9079 75.6243C30.4495 74.6665 30.9134 71.8319 30.8744 70.2218C30.8354 68.6118 31.0173 69.0696 29.6117 69.045C28.2061 69.0205 28.7186 68.8875 28.438 67.6031C28.1574 66.3188 28.7707 66.1281 30.0638 66.003C31.357 65.8779 31.0274 64.6483 31.0274 64.6483C31.0274 64.6483 30.4078 58.2864 30.6338 56.7654C30.8629 55.2962 32.5542 53.0163 36.3534 53.0616C40.1525 53.1068 34.105 48.2479 32.185 46.4841C30.3169 44.7174 28.6246 46.0613 28.6246 46.0613C28.6246 46.0613 26.5576 47.2183 23.6378 48.0074C20.718 48.7965 21.9858 46.3845 21.535 44.8498C21.0842 43.315 19.8233 44.0104 17.4805 45.8071C15.1377 47.6037 19.8727 50.4046 20.4957 51.3055C21.1187 52.2064 19.9086 54.7192 18.5604 57.5518C17.2123 60.3845 17.2811 57.0001 17.0121 55.9231C16.7951 54.8432 16.8431 53.8523 15.7075 53.0844C14.572 52.3164 15.112 50.8297 14.986 48.6005C14.86 46.3712 13.3223 46.7702 10.8857 46.9079C8.45203 47.0975 8.09119 46.2338 7.50042 45.9031C6.90962 45.5724 7.17379 44.7254 3.51848 44.4639C-0.13394 44.2543 6.91049 34.5467 7.49451 33.8376C8.07853 33.1285 18.7385 33.098 21.3247 32.8478C23.911 32.5976 23.7135 30.9445 24.1967 30.2931C24.68 29.6417 30.5675 29.829 31.6532 29.7156C32.739 29.6022 33.7506 27.2567 34.6779 27.1002C35.6052 26.9438 36.0209 27.8565 37.0009 28.6332C37.981 29.4099 37.8696 27.4399 37.9264 26.6046C37.9832 25.7692 38.5388 25.4778 39.5581 25.1081C40.5773 24.7385 40.7327 27.4861 40.8373 28.4163C40.9418 29.3466 49.2709 28.5637 50.8751 28.421C52.4792 28.2784 52.898 26.4864 53.1036 24.6025C53.3091 22.7186 55.0795 24.5948 55.0795 24.5948L59.0312 24.5795C59.0312 24.5795 65.6553 23.997 67.4326 24.1566C69.158 24.3191 67.3124 22.0311 66.3178 20.9951C65.3201 19.9074 69.5293 18.0052 70.0213 17.5093C70.5134 17.0134 74.019 17.3873 74.7302 17.0871C75.3895 16.7898 75.8434 15.62 76.0713 15.9711C76.2992 16.3223 76.6199 17.3964 77.4298 17.9227C78.2397 18.449 78.9537 18.2006 79.9994 18.2975C81.045 18.3944 80.4493 18.8962 83.9628 18.4895C87.4793 18.1347 87.7667 20.4589 88.9287 21.6934C90.1425 22.925 92.0029 22.7158 92.8872 22.7178C93.7744 22.7717 93.5629 24.5519 94.0392 25.6171C94.5155 26.6824 96.0338 24.1002 96.6383 23.754C97.2399 23.3559 97.1468 25.3895 97.1468 25.3895C97.1468 25.3895 97.5386 31.4003 97.833 32.0077C98.1274 32.6152 99.8043 27.3196 99.7369 26.1272C99.6177 24.9378 100.456 22.29 100.637 21.8117C100.769 21.3881 101.326 22.0328 102.052 22.9279C102.779 23.8229 102.47 25.7127 102.699 27C102.927 28.2872 103.615 27.5723 105.637 27.458C107.659 27.3437 108.06 27.9971 108.933 28.7279C109.807 29.4586 112.854 29.0784 114.616 28.9787C116.379 28.8791 117.316 29.8143 118.979 30.7084C120.642 31.6026 120.139 30.0708 121.097 28.6124C122.103 27.0993 122.601 29.4635 123.23 30.4682C123.859 31.4728 126.71 28.5552 128.094 27.2807C129.479 26.0063 130.41 26.8378 131.187 26.7939C131.965 26.7499 132.864 27.0111 133.617 25.6164C134.371 24.2216 136.557 24.254 138.846 23.3445C141.135 22.435 141.957 24.1048 144.495 24.8454C147.034 25.5861 147.738 27.0025 147.738 27.0025C147.738 27.0025 147.738 27.0025 147.972 28.3935C148.207 29.7844 150.006 31.243 151.171 32.5294C152.336 33.8157 154.415 33.8022 155.591 34.3598C156.766 34.9175 156.197 38.6422 156.23 40.1486C156.26 41.6031 153.817 40.7011 152.262 40.789C150.758 40.874 151.661 42.1231 151.903 42.7335C152.034 43.1942 152.805 43.0466 152.978 43.3489C153.033 43.3978 153.039 43.5015 152.996 43.6599C152.818 44.1901 152.271 44.637 151.989 45.173C151.095 46.8358 150.27 45.1142 150.27 45.1142C150.27 45.1142 148.655 43.2292 147.19 41.2317C145.895 39.4846 147.993 37.9618 146.6 36.3242C145.43 34.9342 144.009 33.7143 142.602 32.7537C140.167 31.071 139.865 32.1803 139.25 33.2552C138.635 34.3301 142.76 35.5532 144.05 38.1326C145.34 40.7121 141.352 39.1693 142.57 41.3888C145.043 46.5018 145.721 47.4516 147.818 47.7492ZM113.601 24.8234C112.908 25.4347 112.159 25.9971 111.356 26.5106C111.106 26.6808 109.955 27.474 110.219 26.6269C110.394 26.0449 110.828 25.4483 111.165 24.9612C111.838 23.987 111.699 23.3707 111.629 22.1265C111.558 20.8823 109.011 19.9861 109.011 19.9861C100.217 16.2186 108.336 18.152 109.589 18.2372C110.787 18.2735 111.988 18.3616 112.622 18.5338C113.256 18.7061 114.749 20.2859 115.502 21.6475C115.733 22.0506 115.659 22.5748 115.527 22.9984C115.389 23.3182 115.196 23.5891 114.897 23.8141C114.448 24.1515 113.947 24.4919 113.601 24.8234ZM123.311 126.678C124.015 127.159 123.95 128.775 124.157 131.519C124.201 132.297 123.527 137.848 122.122 136.003C122.119 135.951 120.268 133.559 120.137 132.163C120.003 130.714 118.728 129.33 118.206 128.371C117.684 127.413 117.87 126.102 118.735 123.921C119.6 121.739 120.942 125.252 120.942 125.252C121.286 125.805 122.608 126.198 123.311 126.678ZM69.8034 113.944C69.1245 114.815 68.4485 115.737 67.7696 116.608C67.4302 117.043 67.0907 117.478 66.7513 117.914C66.36 118.352 65.865 118.796 65.6869 119.326C65.5088 119.856 65.6017 120.579 65.2104 121.017C64.8681 121.401 64.2978 121.433 63.8283 121.407C61.8035 121.47 59.7875 121.688 57.7138 121.805C45.79 122.479 54.7637 121.14 55.2763 121.007C55.7889 120.874 56.8922 121.071 57.8362 120.29C58.7802 119.508 63.2503 119.464 63.2503 119.464C63.2503 119.464 64.8085 119.428 64.5279 118.143C64.2473 116.859 64.8752 116.927 66.6606 113.55C68.446 110.173 68.4713 112.46 71.4031 109.121C74.3349 105.783 72.5984 109.106 72.0466 110.385C71.4948 111.665 70.1859 113.351 70.1859 113.351C70.094 113.564 69.9501 113.78 69.8034 113.944ZM52.8205 116.205C53.066 116.867 53.1011 117.489 52.3382 117.792C50.91 118.289 51.1429 117.808 49.6385 116.957C49.3706 116.816 48.5665 116.393 48.5978 116.027C48.6321 115.713 49.3061 115.675 49.5565 115.505C49.804 115.283 50.0485 115.009 50.3596 114.992C50.7714 114.916 51.1861 114.893 51.6038 114.921C52.1252 114.944 52.3932 115.085 52.5721 115.491C52.6876 115.692 52.754 115.948 52.8205 116.205ZM57.3993 115.322C56.9328 115.348 56.4143 115.377 55.936 115.196C55.5125 115.064 55.2328 114.716 54.9071 114.474C54.3104 114.04 54.1775 113.528 54.0445 113.015C53.6543 111.633 53.673 110.123 53.5939 108.724C53.4532 106.235 53.8425 106.681 54.1986 105.621C54.3737 105.039 56.1745 105.613 56.9325 106.143C57.6905 106.672 57.3315 107.68 57.4244 108.403C57.4771 109.336 58.419 109.439 59.0675 109.871C59.8774 110.397 60.6384 110.978 61.3993 111.559C62.3764 112.284 61.542 113.163 61.1741 114.016C61.0822 114.229 60.9413 114.497 60.7427 114.665C60.3974 114.996 59.9337 115.074 59.5219 115.15C59.4701 115.153 59.4701 115.153 59.4183 115.156C58.7472 115.246 58.0733 115.284 57.3993 115.322ZM48.4051 104.336C48.0862 105.134 47.6117 105.941 47.1861 106.694C46.9504 107.123 46.4182 107.829 45.8763 107.444C45.1731 106.963 45.2788 106.073 45.2407 105.399C45.1528 103.844 44.8683 101.572 45.4289 100.448C46.0413 99.3211 47.2503 98.6287 47.9694 97.5479C48.5475 96.7351 49.0718 96.8095 49.6853 93.8624C50.3507 90.9123 50.2967 94.5559 50.5547 96.3616C50.8128 98.1673 49.2359 99.7127 49.2359 99.7127C48.1197 101.128 48.9911 102.743 48.4051 104.336ZM36.5154 119.415C35.8963 119.502 35.3377 119.741 34.9523 120.283C34.469 120.934 34.3545 121.669 33.9779 122.366C33.745 122.848 33.3655 123.493 32.6828 123.376C32.0489 123.204 31.3916 122.617 30.9113 123.32C30.2382 124.294 29.8519 123.9 29.8519 123.9C29.6358 123.756 27.973 122.862 27.2305 123.528C22.9283 127.464 24.6911 124.608 25.7496 123.092C26.8081 121.576 29.5911 119.286 30.8139 117.917C32.0367 116.547 34.7451 117.538 36.185 117.249C37.6249 116.96 37.085 115.69 37.8128 114.765C38.5407 113.839 41.7039 114.597 42.4092 114.193C43.1145 113.789 43.4686 113.613 43.4129 112.628C43.4041 112.472 43.6419 111.159 44.0312 111.605C44.1985 111.803 44.127 112.379 44.1417 112.639C44.1651 113.053 44.1885 113.468 44.1602 113.886C44.0603 114.879 43.2592 114.509 42.0071 115.36C40.7521 116.159 40.3587 117.481 40.1611 118.584C40.0035 119.477 38.9119 119.487 38.0766 119.43C37.5552 119.408 37.0339 119.385 36.5154 119.415ZM31.6421 158.332C31.8984 158.266 32.4139 158.184 32.5352 158.49C32.6564 158.795 32.1067 159.19 32.1214 159.449C32.1448 159.864 32.3217 161.154 31.0834 161.328C29.8969 161.499 29.6485 160.785 29.3219 159.607C29.2583 159.403 29.2466 159.196 29.3385 158.982C29.4794 158.714 29.8394 158.642 30.0986 158.627C30.3549 158.561 30.6141 158.546 30.9222 158.477C31.1785 158.41 31.3858 158.398 31.6421 158.332ZM44.0612 127.777C45.4698 127.854 46.8156 128.662 48.0461 129.268C48.8472 129.639 49.706 130.111 50.1187 130.972C50.4707 131.68 50.4892 132.927 50.6369 133.699C50.8451 134.623 53.2349 133.656 54.1768 133.759C55.1188 133.861 54.8605 134.812 55.1891 135.106C55.5696 135.396 56.8451 134.96 57.9455 135.106C59.2563 135.292 58.7631 137.608 58.9166 138.484C59.0701 139.359 59.4309 140.223 59.6881 141.092C60.1967 142.728 59.2029 142.628 58.3968 143.09C57.5908 143.551 58.5032 145.892 58.4209 147.197C58.3328 148.398 56.842 149.626 55.8805 150.097C55.2241 150.446 54.3858 150.337 53.66 150.378C52.8306 150.425 52.004 150.524 51.2146 150.361C50.4253 150.197 49.8199 149.607 49.1195 149.179C48.0388 148.46 46.8777 148.161 45.5875 148.338C44.2454 148.518 42.9582 148.747 41.6132 148.875C40.8874 148.916 39.6285 148.727 39.4739 149.672C39.3565 150.355 39.5012 151.075 39.3838 151.757C39.1548 153.227 38.1405 152.764 36.9481 152.831C35.7557 152.899 35.7566 153.835 35.4954 154.734C35.0619 156.266 33.9674 156.224 32.6195 156.3C31.6863 156.353 30.7532 156.406 29.8171 156.407C28.2012 156.342 27.1253 154.791 27.1253 154.791C27.1253 154.791 24.7947 151.282 23.6758 149.889C22.5569 148.496 21.9575 145.253 21.8139 142.713C21.6704 140.173 24.9934 136.396 24.9934 136.396C24.9934 136.396 29.3799 130.272 30.1596 129.343C30.9393 128.415 30.3593 127.356 30.6147 126.353C30.8182 125.354 31.6867 126.917 32.5827 127.126C33.4786 127.335 33.2113 130.887 33.2406 131.406C33.2699 131.924 34.3527 131.759 34.882 131.001C35.4112 130.243 35.7829 130.378 36.586 129.864C37.3891 129.351 37.8577 128.44 37.8823 127.035C37.855 125.632 39.333 126.016 40.989 125.871C42.645 125.725 42.0004 126.282 42.3612 127.145C42.6008 127.704 43.2259 127.721 43.7473 127.743C43.9028 127.734 44.0094 127.78 44.0612 127.777ZM10.2408 163.39L10.2955 163.439C10.9039 164.081 12.7436 166.265 11.7156 166.479C10.7393 166.691 9.52737 167.331 8.86716 166.692C8.20109 165.95 8.3733 165.316 6.46593 164.696C5.51227 164.386 4.57347 161.578 4.57347 161.578C4.57347 161.578 4.82589 160.524 5.41284 159.867C5.9049 159.371 7.24873 161.063 7.7417 161.503C8.56036 162.185 9.52576 162.703 10.2408 163.39ZM1.5952 158.574C1.17078 157.506 0.428285 158.172 0.38433 157.394C0.340374 156.617 2.54234 155.088 3.28188 154.37C4.7639 152.986 3.46764 155.816 3.87155 156.521C4.38501 157.324 4.43687 157.321 4.12963 158.327C4.0406 158.592 3.85173 159.851 3.59836 159.969C2.12423 160.573 2.02259 159.694 1.5952 158.574Z"/>
</mask>
<path d="M257.038 10.9948C257.688 10.542 258.342 10.141 259.111 9.94154C260.139 9.72741 261.337 9.76369 262.293 9.18959C262.946 8.7886 264.189 6.84608 262.538 7.09538C261.404 7.26354 259.172 7.3377 258.344 6.50034C256.248 4.38247 253.906 9.87168 251.644 9.42742C250.435 9.18377 250.087 7.64315 248.884 8.43927C248.133 8.94981 247.344 9.72249 246.815 10.4805C246.044 11.5642 246.647 12.1023 247.851 12.2422C248.948 12.3362 250.031 12.171 251.172 12.1065C252.209 12.0479 253.251 12.093 254.294 12.1381C255.337 12.1832 256.186 11.5631 257.038 10.9948ZM244.727 4.82564C244.727 4.82564 244.292 7.24263 243.48 7.60057C242.72 7.95558 242.329 8.39376 241.749 7.33437C241.172 6.32683 242.338 5.79285 243.172 4.91355C244.006 4.03426 245.292 1.93329 244.727 4.82564ZM249.303 18.6092C250.765 17.7984 249.984 16.8544 250.406 15.1143C250.827 13.3742 252.013 15.0235 253.607 16.5456C255.201 18.0677 256.538 15.0277 257.271 14.2061C258.005 13.3846 257.271 13.2701 261.242 12.6815C265.158 12.0441 264.842 11.958 266.718 13.8802C268.595 15.8024 265.3 15.4686 263.034 15.8567C260.767 16.2449 260.792 17.5957 261.078 18.9837C261.365 20.3718 265.526 19.4605 269.439 18.7712C273.353 18.0819 273.04 18.9837 275.112 19.7507C277.183 20.5178 281.302 17.9446 283.033 17.2747C284.763 16.6048 296.832 16.6507 298.594 16.5511C300.357 16.4515 301.418 17.7437 302.801 18.2896C304.184 18.8355 303.752 21.3044 303.868 22.442C303.984 23.5796 306.518 22.3962 307.866 22.32C309.214 22.2438 308.895 23.042 309.054 24.0211C309.213 25.0002 308.649 25.1362 307.036 25.1233C305.423 25.1105 304.764 25.4078 304.773 26.4994C304.783 27.591 306.876 26.9006 308.173 26.8274C309.469 26.7541 309.079 29.0645 308.928 30.9973C308.778 32.9301 307.516 32.6894 306.819 33.2488C306.123 33.8083 305.127 34.5927 311.391 36.839C317.655 39.0853 311.68 38.2789 310.62 37.9227C309.56 37.5666 304.918 36.4247 303.571 36.5009C302.223 36.5771 300.061 35.1391 298.268 33.7842C296.475 32.4293 291.174 33.4051 287.34 33.6738C283.507 33.9425 280.664 42.5285 278.871 43.93C277.078 45.3316 277.465 55.8673 277.693 58.9749C277.92 62.0825 275.759 64.337 274.778 65.3806C273.797 66.4242 271.576 72.2186 268.991 76.1614C266.408 80.1559 267.432 75.2613 268.138 73.0371C268.841 70.761 267.349 72.8737 267.349 72.8737C267.349 72.8737 262.694 78.8576 261.859 81.5573C261.023 84.2569 256.898 86.7264 254.058 87.095C251.219 87.4635 251.315 88.2382 251.315 88.2382C251.315 88.2382 251.532 89.3181 248.133 89.9262C244.787 90.5315 245.507 93.1432 244.166 94.2592C242.825 95.3751 240.709 96.5869 238.791 96.6953C236.872 96.8037 237.535 96.5583 237.254 98.0304C236.973 99.5025 238.432 101.396 239.476 102.377C240.519 103.359 240.758 105.738 240.916 108.537C241.074 111.336 240.018 111.968 240.018 111.968C240.018 111.968 234.653 121.945 233.303 122.905C231.953 123.866 232.266 125.721 232.266 125.721C232.266 125.721 233.069 139.925 233.182 141.011C233.296 142.097 233.399 142.091 234.406 143.334C235.412 144.578 235.418 147.438 235.418 147.438C235.418 147.438 236.285 160.027 236.338 160.96C236.391 161.893 235.007 163.167 230.433 165.974C225.859 168.781 229.066 164.803 229.535 163.893C230.003 162.982 229.512 160.722 229.415 159.011C229.318 157.3 227.817 156.501 227.188 155.496C226.559 154.491 227.034 153.685 226.931 151.87C226.828 150.056 224.754 149.237 224.754 149.237C224.754 149.237 213.021 138.562 212.081 137.575C211.141 136.588 210.871 134.575 210.91 133.429C210.949 132.282 207.34 129.158 205.343 127.866C203.346 126.575 201.62 122.72 201.466 121.845C201.313 120.969 201.147 118.95 199.795 118.038C198.443 117.127 198.375 114.998 197.73 112.798C197.086 110.598 201.219 110.105 203.616 108.357C206.014 106.609 209.927 105.92 210.238 105.902C210.55 105.885 212.324 105.993 212.147 104.702C211.97 103.412 212.933 101.121 213.493 99.9975C214.054 98.8737 215.042 98.8698 216.234 98.8024C217.427 98.735 220.865 95.1602 222.362 94.0354C223.858 92.9106 227.068 93.5614 229.109 92.8739C231.151 92.1864 230.114 92.245 231.951 91.6211C233.788 90.9972 234.816 93.5395 235.712 93.7489C236.608 93.9583 239.453 93.6934 240.481 93.4793C241.509 93.2651 242.184 91.4067 242.35 89.7331C242.515 88.0595 243.044 87.3015 244.4 86.4447C245.756 85.5879 245.864 83.8136 245.638 82.5782C245.412 81.3427 246.287 81.1892 247.321 81.0788C248.355 80.9683 248.327 81.386 248.636 82.2527C248.945 83.1193 249.798 83.4872 252.006 82.9983C254.212 82.4576 254.996 79.7608 255.135 77.6206C255.274 75.4805 255.155 74.291 253.633 73.1288C252.111 71.9667 251.734 72.6641 249.782 73.0865C247.83 73.5089 246.42 72.4964 245.048 71.2218C243.676 69.9471 242.249 72.3161 242.249 72.3161C242.249 72.3161 242.249 72.3161 240.311 75.7541C238.373 79.1922 238.442 75.8078 238.779 72.5643C239.115 69.3207 228.636 59.6675 227.051 58.3009C225.465 56.9343 225.656 57.5476 223.052 57.4867C220.448 57.4259 219.314 54.8376 217.749 53.8339C216.184 52.8302 219.66 52.6857 221.169 51.7683C222.677 50.8509 220.073 50.7901 219.114 50.3762C218.154 49.9624 216.17 49.8145 213.586 50.1166C211.003 50.4186 216.916 40.931 217.946 39.8326C218.976 38.7342 218.577 37.1966 219.01 35.6638C219.444 34.1311 221.347 36.5199 222.734 38.0537C224.121 39.5876 223.978 37.9834 223.715 37.0101C223.452 36.0368 224.43 34.9414 224.821 33.5671C225.211 32.1928 228.552 32.42 229.742 32.3008C230.931 32.1816 230.73 32.297 231.207 34.2983C231.684 36.2996 231.187 37.6279 230.93 39.5148C230.672 41.4016 232.89 43.8247 234.155 45.0533C235.421 46.282 235.644 44.7091 235.623 43.4101C235.601 42.1112 236.235 42.2834 237.675 41.9939C239.115 41.7045 239.215 41.6468 239.71 40.2667C240.204 38.8865 242.057 37.6376 243.866 37.4313C245.675 37.2251 244.926 34.0949 244.795 32.6981C244.661 31.2495 241.962 31.35 241.066 31.1406C240.17 30.9312 238.666 30.0801 237.308 31.8211C235.947 33.5103 234.457 31.9823 234.457 31.9823C234.457 31.9823 232.131 30.3975 232.072 29.3606C232.013 28.3238 232.498 28.6085 233.897 28.5294C235.297 28.4502 235.504 28.4385 235.437 27.2461C235.37 26.0538 235.364 25.9501 232.872 26.0389C230.381 26.1277 231.393 23.7822 230.139 22.7609C228.885 21.7396 227.791 22.6336 228.125 24.8511C228.458 27.0686 225.769 25.5043 224.35 26.1566C222.93 26.8089 223.645 27.4966 224.904 27.6855C226.163 27.8744 225.357 28.336 225.07 29.7044C224.784 31.0728 224.919 30.7011 220.996 31.2349C217.074 31.7687 220.329 29.5563 220.565 29.1269C220.801 28.6976 221.935 27.5933 218.369 28.0029C214.804 28.4124 216.869 25.3833 216.869 25.3833C216.869 25.3833 219.114 20.9397 221.904 19.6898C224.694 18.44 223.919 18.5358 225.317 16.5845C226.715 14.6331 232.519 15.1892 234.224 14.9888C235.929 14.7884 235.89 15.9348 236.833 16.9737C237.724 18.0155 235.712 19.2214 235.701 22.7066C235.689 26.1917 237.798 23.0041 237.798 23.0041C237.798 23.0041 238.957 21.4303 239.451 20.0502C239.945 18.6701 240.111 17.9325 239.226 16.9944C238.341 16.0563 237.917 14.9881 239.504 12.714C241.092 10.44 242.445 9.53136 243.165 9.38665C243.885 9.24194 243.759 10.7052 243.726 11.9553C243.693 13.2054 242.955 13.0391 242.115 13.8147C241.327 14.5873 241.766 15.9147 242.052 17.3028C242.339 18.6908 242.335 17.7028 243.511 15.5041C244.687 13.3053 245.581 14.3989 246.803 15.786C248.026 17.1731 244.965 18.2303 245.008 20.8283C245.051 23.4262 246.382 21.2186 246.382 21.2186C246.382 21.2186 247.841 19.4199 249.303 18.6092ZM299.307 65.9704C299.307 65.9704 298.486 71.6857 297.02 71.5085C294.088 71.1542 296.159 69.1648 298.53 66.0144C298.72 65.6916 299.545 64.6568 299.307 65.9704ZM237.76 82.1393C237.455 82.2606 237.146 82.33 236.896 82.5002C236.496 82.7829 236.211 83.267 235.753 83.4489C235.146 83.7433 233.867 83.1915 233.236 83.0712C230.557 82.5985 237.478 79.9189 238.705 79.5375C239.931 79.1561 240.28 78.8764 243.15 79.9624C246.019 81.0484 240.841 81.4451 240.841 81.4451C239.761 81.6621 238.73 81.8244 237.76 82.1393ZM231.575 84.0492C231.592 84.3602 231.61 84.6713 231.561 84.7261C231.334 85.311 230.596 85.1446 230.078 85.1739C229.611 85.2003 226.7 85.2089 228.018 84.6143C228.83 84.2563 229.679 83.6362 230.595 83.2724C231.916 82.7297 231.54 83.4271 231.575 84.0492ZM239.244 9.03616C238.88 9.94093 238.249 9.82056 237.745 10.1091C237.241 10.3976 237.121 11.0285 237.05 12.5407C236.98 14.0529 232.178 13.7523 228.909 13.885C225.64 14.0178 227.669 12.1869 231.822 12.0561C233.639 12.0054 233.829 11.6826 234.292 10.6683C234.755 9.654 235.581 9.55527 236.747 9.02129C237.913 8.48731 237.774 7.87107 238.848 6.61422C240.312 4.9192 239.661 8.12847 239.661 8.12847C239.661 8.12847 239.609 8.1314 239.244 9.03616ZM226.34 10.7538C224.007 10.8856 222.356 7.4424 222.22 6.87799C222.084 6.31359 220.629 5.4077 218.762 5.5132C216.896 5.61869 215.911 5.67437 215.026 4.73625C214.141 3.79813 215.048 4.2149 212.314 3.69332C209.58 3.17175 209.585 2.33934 209.579 1.29957C209.572 0.25979 213.93 0.0654798 215.125 0.0499236C216.32 0.0343674 216.258 0.766021 217.6 1.52224C218.943 2.27846 226.728 1.05834 229.213 0.865835C229.472 0.851183 229.732 0.836531 229.945 0.928495C229.66 1.41266 228.577 1.57788 228.122 1.81162C227.463 2.10893 227.13 2.64787 226.58 3.043C226.027 3.38629 225.356 3.47622 224.737 3.56323C218.243 4.60641 223.304 4.89243 223.825 4.91497C224.347 4.9375 225.158 4.57956 225.39 5.91867C225.622 7.25779 227.295 6.48713 228.179 6.48916C229.063 6.49118 228.743 6.35324 228.649 4.69428C228.556 3.03533 232.41 3.12953 234.071 3.0876C235.733 3.04567 235.139 4.48351 235.333 6.08477C235.528 7.68602 235.11 7.65762 233.408 7.90985C231.758 8.15915 232.351 8.54165 232.2 9.53838C232.048 10.5351 229.447 10.5261 229.447 10.5261C229.447 10.5261 228.672 10.6219 226.34 10.7538ZM206.974 3.05906C206.974 3.05906 208.454 2.55934 209.293 3.60407C210.132 4.64881 209.308 4.79938 211.126 4.74866C212.943 4.69794 212.845 4.80748 213.322 5.87273C213.798 6.93798 214.738 7.92501 216.034 7.85175C217.33 7.77849 219.377 7.19469 219.226 8.19142C219.077 9.23999 217.464 11.9836 216.585 12.0852C215.707 12.1869 208.247 11.7765 207.636 14.7754C207.028 17.8262 208.554 22.7328 207.201 23.6414C205.848 24.55 206.526 25.4998 207.007 25.7327C207.488 25.9655 208.182 25.3542 208.267 26.8576C208.352 28.3611 207.847 27.7135 207.088 29.0046C206.329 30.2957 205.888 29.8526 205.993 31.7189C206.099 33.5852 206.347 34.2993 204.959 34.5858C203.571 34.8723 202.443 36.0802 202.274 36.7659C202.105 37.4515 200.67 36.9085 200.26 36.0996C199.85 35.2906 195.216 29.6756 193.914 29.6452C192.612 29.6148 190.392 29.8963 190.276 28.7587C190.159 27.6211 190.791 25.9211 189.181 25.9601C187.571 25.9991 184.515 26.2239 183.083 24.7966C181.65 23.3694 178.759 21.9205 181.328 21.3593C182.509 21.0845 183.539 19.9861 182.846 18.7771C182.786 18.6245 180.98 18.8826 180.718 18.8454C180.09 18.7768 179.249 18.6164 178.851 18.0148C178.219 16.9583 177.587 15.9019 176.903 14.8483C176.283 13.9992 174.309 12.1866 176.618 11.64C177.335 11.4434 177.651 10.5934 176.564 9.77071C176.564 9.77071 174.813 6.38518 173.257 6.4731C172.791 6.49947 168.373 6.54118 168.954 5.78022C169.342 5.2902 169.342 5.2902 172.441 4.90701C172.853 4.83172 173.091 4.45417 173.445 4.27813C173.955 4.0933 174.632 4.10705 175.15 4.07775C177.959 4.07503 177.028 4.17962 178.165 3.12722C179.302 2.07481 180.442 2.01035 185.474 1.77794C190.557 1.54261 192.446 0.91576 193.752 1.93412C195.058 2.95248 194.526 3.65867 197.17 3.50922C199.814 3.35977 206.974 3.05906 206.974 3.05906ZM181.402 31.8607C181.41 32.0163 181.422 32.2236 181.431 32.3792C181.454 32.7939 181.498 33.5715 180.928 33.6038C180.098 33.6507 179.266 33.6457 178.434 33.6407C178.016 33.6123 177.561 33.8461 177.235 33.6045C176.48 33.1271 176.131 32.4707 175.137 32.3708C174.72 32.3424 173.591 32.6143 173.504 31.9951C173.489 31.7359 173.654 29.1262 174.051 28.7917C175.044 27.9554 177.721 29.3124 179.484 29.2127C180.106 29.1776 180.716 28.935 181.396 29.0006C181.972 29.0721 181.803 29.7577 181.722 30.1783C181.498 30.8151 181.421 31.2875 181.402 31.8607ZM168.626 45.0648C168.626 45.0648 170.784 46.451 170.907 47.6923C171.026 48.8817 171.515 51.0905 170.01 50.2393C168.454 49.3912 167.248 47.379 167.248 47.379C167.248 47.379 166.651 43.2521 168.626 45.0648ZM165.336 44.8347C165.109 45.4196 165.044 46.0994 164.923 46.7303C164.729 47.8855 165.458 48.8324 166.127 49.6267C166.739 50.3203 167.569 51.2095 166.573 51.9939C165.226 53.0062 163.234 50.8824 161.885 50.0225C160.807 49.3553 161.252 48.03 161.827 47.1653C162.541 45.9809 163.418 44.9431 163.811 43.6207C164.156 42.353 164.987 41.4219 165.706 40.3411C166.236 39.583 167.031 39.8501 167.418 41.1805C167.745 42.3582 166.95 43.0272 166.26 43.6903C165.863 44.0248 165.52 44.4082 165.336 44.8347ZM147.818 47.7492C149.757 48.0036 150.817 48.3598 152.657 47.7877C153.679 47.4699 153.052 44.6449 154.129 44.376C154.486 44.2518 155.035 43.8567 155.315 44.2049C155.482 44.4035 155.411 44.9796 155.426 45.2389C155.403 45.7602 155.165 47.0738 155.949 47.1336C156.994 47.2305 156.49 46.5829 157.235 48.7251C157.98 50.8673 160.262 51.6745 161.011 52.0482C161.761 52.4219 162.96 53.3943 164.722 53.2947C166.482 53.1432 166.773 53.6988 165.429 54.7629C164.385 55.6021 164.294 56.7514 164.26 58.0015C164.26 58.0015 164.26 58.0015 164.263 58.0534C164.241 58.5747 164.084 60.4038 164.87 60.5154C165.812 60.6182 168.914 60.2868 170.21 60.2136C171.506 60.1403 171.102 62.1915 171.224 63.4328C171.346 64.6741 171.059 65.1064 170.65 65.2335C170.244 65.4125 169.285 65.9347 168.831 67.1046C168.377 68.2744 166.634 67.8008 164.878 68.0042C163.121 68.2075 163.315 66.1162 163.012 65.3532C162.708 64.5902 163.304 64.0885 161.539 64.1363C159.825 64.1811 159.138 63.0758 158.858 61.7914C158.574 60.4553 157.348 61.7727 155.576 60.7807C153.804 59.7888 151.29 63.1554 150.147 64.1041C149.6 64.5511 148.164 65.8284 148.285 66.1336C148.689 66.8389 151.387 65.8023 150.643 67.3526C149.671 69.4878 148.478 68.6191 146.754 66.6363C144.98 64.7082 148.717 62.7287 149.411 62.1174C150.101 61.4543 151.799 60.2141 150.47 58.781C149.144 57.3997 146.44 61.0891 146.44 61.0891C145.203 62.1992 143.44 65.0553 142.947 67.3715C142.399 69.6388 142.151 69.8609 140.138 70.1307C138.125 70.4005 139.531 67.6686 139.783 66.6142C140.09 65.6087 140.076 65.3495 138.783 65.4746C137.49 65.5997 136.959 68.178 136.286 69.1522C135.613 70.1264 133.111 70.9439 132.051 70.5878C130.939 70.2346 130.604 69.8375 129.43 71.152C128.256 72.4665 131.28 75.3641 132.171 75.4698C133.061 75.5755 134.726 76.5215 136.739 75.3156C138.748 74.0579 139.122 74.2447 141.432 73.6981C143.741 73.1515 143.446 74.3644 144.095 75.7319C144.745 77.0994 145.827 75.9981 146.31 75.3467C146.793 74.6953 150.979 72.3783 152.47 71.1499C153.96 69.9215 153.637 68.7956 154.142 67.6228C154.648 66.45 156.521 67.3843 156.853 67.7296C157.184 68.075 158.691 68.0418 160.091 67.9627C161.49 67.8836 161.994 67.5951 162.885 68.6369C163.776 69.6787 163.689 69.0595 165.303 70.0084C166.917 70.9574 168.452 70.5066 170.75 70.6887C173.049 70.8708 172.621 75.2637 172.665 76.0413C172.709 76.8189 173.122 77.6797 174.043 77.4196C174.965 77.1595 176.836 81.7345 177.98 82.6579C179.124 83.5814 178.672 86.6234 178.679 87.6632C178.686 88.703 179.614 89.4826 180.196 89.6578C180.778 89.8329 180.248 93.3474 180.713 94.2052C181.177 95.0631 178.203 95.8034 178.203 95.8034C177.964 96.1809 176.032 96.9662 174.845 98.9576C173.372 101.433 171.808 101.366 171.808 101.366C171.808 101.366 161.178 101.915 158.741 102.052C157.704 102.111 156.74 102.529 156.113 103.397C155.537 104.262 154.991 105.645 155.617 106.597C156.189 107.501 156.542 109.146 155.814 110.071C155.425 110.561 154.769 110.91 154.271 111.302C152.668 112.381 152.341 116.716 152.467 118.945C152.549 120.397 152.789 121.892 153.286 123.32C153.416 123.781 153.598 124.238 153.933 124.635C154.382 125.234 154.559 125.588 154.548 126.317C154.612 127.457 154.89 128.69 153.672 129.227C152.912 129.582 151.922 133.226 151.922 133.226C151.922 133.226 149.344 141.901 149.034 143.791C148.725 145.681 147.838 145.627 147.268 145.659C146.697 145.692 146.081 145.83 145.882 145.062C145.685 144.345 145.02 144.538 145.02 144.538C145.02 144.538 144.404 144.677 141.702 144.726C138.949 144.777 136.735 140.586 136.023 139.95C135.311 139.314 135.248 139.11 135.223 137.759C135.248 136.353 134.983 136.264 133.629 136.237C132.223 136.212 132.366 135.06 132.162 132.367C131.958 129.674 130.563 128.921 128.594 127.212C126.625 125.503 127.508 118.12 127.497 115.156C127.485 112.192 125.488 110.901 125.488 110.901C125.488 110.901 118.584 101.93 116.107 99.5213C113.631 97.1129 117.451 97.5211 117.451 97.5211C117.451 97.5211 120.93 97.4284 122.525 97.1302C124.124 96.8839 125.644 93.4174 126.372 92.4921C127.1 91.5669 128.826 89.909 129.035 88.077C129.243 86.2449 129.823 84.5478 129.823 84.5478C129.958 84.1762 131.523 82.4234 131.619 80.4417C131.837 76.0087 130.371 79.5241 130.371 79.5241C130.371 79.5241 129.817 80.7516 127.678 82.4848C125.543 84.2697 124.624 90.0945 123.661 92.3853C122.699 94.6761 122.854 94.6673 119.435 94.9125C116.02 95.2096 111.07 90.4446 109.617 89.5906C108.165 88.7366 108.564 87.5178 109.064 86.2414C109.564 84.9649 110.771 85.1567 113.025 84.5612C115.283 84.0175 115.902 81.1741 117.903 79.7608C119.903 78.3475 117.991 78.5596 116.548 78.7972C115.105 79.0348 114.994 79.8212 114.318 80.7436C113.645 81.7178 112.534 82.3006 110.241 82.2222C107.951 82.1956 106.497 83.1619 106.017 83.8652C105.537 84.5684 104.014 85.2266 104.014 85.2266C104.014 85.2266 100.125 85.4464 99.6882 85.9912C99.2509 86.536 99.5892 87.9211 97.0636 88.3239C94.538 88.7267 93.578 93.8257 93.578 93.8257C93.578 93.8257 93.2156 100.295 91.5145 101.484C88.213 103.802 88.6929 96.6502 88.4612 95.3111C88.2295 93.972 84.2759 92.1152 82.8929 91.5692C82.3079 91.3423 82.0136 90.7348 81.9266 90.1156C81.8513 89.7038 82.1096 88.7531 81.781 88.4596C81.51 88.2669 80.4761 88.3773 80.168 88.4468C79.4999 88.5885 78.2264 88.1405 77.9974 89.6096C77.7684 91.0788 76.0046 92.9988 76.0046 92.9988C75.4666 93.6013 74.7583 93.9533 73.9895 94.1528C73.3214 94.2946 72.4744 94.0304 71.8728 94.4285C71.0207 94.9967 71.6906 96.7272 71.7864 97.5018C71.8333 98.3313 72.0876 99.1491 72.0337 100.036C71.9828 100.975 71.4565 101.785 71.3018 102.73C71.1815 103.361 71.11 103.937 71.0934 104.562C71.0934 104.562 69.2902 110.385 66.2511 109.985C64.2087 109.736 67.5406 106.115 68.9561 104.475C70.3716 102.835 70.3874 101.273 69.6226 99.7045C68.8578 98.1355 67.676 100.231 65.5259 101.756C63.3758 103.282 64.2278 102.714 62.2844 100.535C60.3439 98.4087 61.7987 95.622 62.3367 95.0195C62.8747 94.417 65.0836 91.1717 62.2285 90.3449C59.4252 89.5152 56.7177 89.4602 55.2025 89.3379C53.6874 89.2155 53.752 87.5996 51.0643 84.2149C48.3766 80.8303 50.5094 76.2371 51.4437 74.364C52.4298 72.488 52.5844 71.5431 50.9266 69.8165C49.2687 68.0899 47.9499 71.441 47.9499 71.441C47.9499 71.441 46.5441 74.1729 44.6169 76.8822C42.6898 79.5915 42.0239 76.0926 41.6141 75.2837C41.2014 74.4229 42.4878 73.258 43.198 72.0216C43.9082 70.7853 42.9214 68.9688 42.6759 68.3066C42.4305 67.6443 38.5434 66.0438 37.3247 65.6446C36.1059 65.2454 34.7475 63.2939 33.9799 58.9166C33.2125 54.5393 32.4481 59.4192 32.4481 59.4192C32.4481 59.4192 32.8523 69.3299 33.0067 71.1415C33.1611 72.953 33.1014 73.7365 35.4097 75.0103C37.7181 76.284 37.9597 75.9583 39.1667 76.1501C40.3737 76.3419 40.8119 76.7332 41.0768 79.5787C41.3416 82.4242 39.854 80.948 39.6603 80.2828C39.4667 79.6177 38.8369 77.677 37.3423 77.9175C35.8477 78.158 33.3662 76.582 31.9079 75.6243C30.4495 74.6665 30.9134 71.8319 30.8744 70.2218C30.8354 68.6118 31.0173 69.0696 29.6117 69.045C28.2061 69.0205 28.7186 68.8875 28.438 67.6031C28.1574 66.3188 28.7707 66.1281 30.0638 66.003C31.357 65.8779 31.0274 64.6483 31.0274 64.6483C31.0274 64.6483 30.4078 58.2864 30.6338 56.7654C30.8629 55.2962 32.5542 53.0163 36.3534 53.0616C40.1525 53.1068 34.105 48.2479 32.185 46.4841C30.3169 44.7174 28.6246 46.0613 28.6246 46.0613C28.6246 46.0613 26.5576 47.2183 23.6378 48.0074C20.718 48.7965 21.9858 46.3845 21.535 44.8498C21.0842 43.315 19.8233 44.0104 17.4805 45.8071C15.1377 47.6037 19.8727 50.4046 20.4957 51.3055C21.1187 52.2064 19.9086 54.7192 18.5604 57.5518C17.2123 60.3845 17.2811 57.0001 17.0121 55.9231C16.7951 54.8432 16.8431 53.8523 15.7075 53.0844C14.572 52.3164 15.112 50.8297 14.986 48.6005C14.86 46.3712 13.3223 46.7702 10.8857 46.9079C8.45203 47.0975 8.09119 46.2338 7.50042 45.9031C6.90962 45.5724 7.17379 44.7254 3.51848 44.4639C-0.13394 44.2543 6.91049 34.5467 7.49451 33.8376C8.07853 33.1285 18.7385 33.098 21.3247 32.8478C23.911 32.5976 23.7135 30.9445 24.1967 30.2931C24.68 29.6417 30.5675 29.829 31.6532 29.7156C32.739 29.6022 33.7506 27.2567 34.6779 27.1002C35.6052 26.9438 36.0209 27.8565 37.0009 28.6332C37.981 29.4099 37.8696 27.4399 37.9264 26.6046C37.9832 25.7692 38.5388 25.4778 39.5581 25.1081C40.5773 24.7385 40.7327 27.4861 40.8373 28.4163C40.9418 29.3466 49.2709 28.5637 50.8751 28.421C52.4792 28.2784 52.898 26.4864 53.1036 24.6025C53.3091 22.7186 55.0795 24.5948 55.0795 24.5948L59.0312 24.5795C59.0312 24.5795 65.6553 23.997 67.4326 24.1566C69.158 24.3191 67.3124 22.0311 66.3178 20.9951C65.3201 19.9074 69.5293 18.0052 70.0213 17.5093C70.5134 17.0134 74.019 17.3873 74.7302 17.0871C75.3895 16.7898 75.8434 15.62 76.0713 15.9711C76.2992 16.3223 76.6199 17.3964 77.4298 17.9227C78.2397 18.449 78.9537 18.2006 79.9994 18.2975C81.045 18.3944 80.4493 18.8962 83.9628 18.4895C87.4793 18.1347 87.7667 20.4589 88.9287 21.6934C90.1425 22.925 92.0029 22.7158 92.8872 22.7178C93.7744 22.7717 93.5629 24.5519 94.0392 25.6171C94.5155 26.6824 96.0338 24.1002 96.6383 23.754C97.2399 23.3559 97.1468 25.3895 97.1468 25.3895C97.1468 25.3895 97.5386 31.4003 97.833 32.0077C98.1274 32.6152 99.8043 27.3196 99.7369 26.1272C99.6177 24.9378 100.456 22.29 100.637 21.8117C100.769 21.3881 101.326 22.0328 102.052 22.9279C102.779 23.8229 102.47 25.7127 102.699 27C102.927 28.2872 103.615 27.5723 105.637 27.458C107.659 27.3437 108.06 27.9971 108.933 28.7279C109.807 29.4586 112.854 29.0784 114.616 28.9787C116.379 28.8791 117.316 29.8143 118.979 30.7084C120.642 31.6026 120.139 30.0708 121.097 28.6124C122.103 27.0993 122.601 29.4635 123.23 30.4682C123.859 31.4728 126.71 28.5552 128.094 27.2807C129.479 26.0063 130.41 26.8378 131.187 26.7939C131.965 26.7499 132.864 27.0111 133.617 25.6164C134.371 24.2216 136.557 24.254 138.846 23.3445C141.135 22.435 141.957 24.1048 144.495 24.8454C147.034 25.5861 147.738 27.0025 147.738 27.0025C147.738 27.0025 147.738 27.0025 147.972 28.3935C148.207 29.7844 150.006 31.243 151.171 32.5294C152.336 33.8157 154.415 33.8022 155.591 34.3598C156.766 34.9175 156.197 38.6422 156.23 40.1486C156.26 41.6031 153.817 40.7011 152.262 40.789C150.758 40.874 151.661 42.1231 151.903 42.7335C152.034 43.1942 152.805 43.0466 152.978 43.3489C153.033 43.3978 153.039 43.5015 152.996 43.6599C152.818 44.1901 152.271 44.637 151.989 45.173C151.095 46.8358 150.27 45.1142 150.27 45.1142C150.27 45.1142 148.655 43.2292 147.19 41.2317C145.895 39.4846 147.993 37.9618 146.6 36.3242C145.43 34.9342 144.009 33.7143 142.602 32.7537C140.167 31.071 139.865 32.1803 139.25 33.2552C138.635 34.3301 142.76 35.5532 144.05 38.1326C145.34 40.7121 141.352 39.1693 142.57 41.3888C145.043 46.5018 145.721 47.4516 147.818 47.7492ZM113.601 24.8234C112.908 25.4347 112.159 25.9971 111.356 26.5106C111.106 26.6808 109.955 27.474 110.219 26.6269C110.394 26.0449 110.828 25.4483 111.165 24.9612C111.838 23.987 111.699 23.3707 111.629 22.1265C111.558 20.8823 109.011 19.9861 109.011 19.9861C100.217 16.2186 108.336 18.152 109.589 18.2372C110.787 18.2735 111.988 18.3616 112.622 18.5338C113.256 18.7061 114.749 20.2859 115.502 21.6475C115.733 22.0506 115.659 22.5748 115.527 22.9984C115.389 23.3182 115.196 23.5891 114.897 23.8141C114.448 24.1515 113.947 24.4919 113.601 24.8234ZM123.311 126.678C124.015 127.159 123.95 128.775 124.157 131.519C124.201 132.297 123.527 137.848 122.122 136.003C122.119 135.951 120.268 133.559 120.137 132.163C120.003 130.714 118.728 129.33 118.206 128.371C117.684 127.413 117.87 126.102 118.735 123.921C119.6 121.739 120.942 125.252 120.942 125.252C121.286 125.805 122.608 126.198 123.311 126.678ZM69.8034 113.944C69.1245 114.815 68.4485 115.737 67.7696 116.608C67.4302 117.043 67.0907 117.478 66.7513 117.914C66.36 118.352 65.865 118.796 65.6869 119.326C65.5088 119.856 65.6017 120.579 65.2104 121.017C64.8681 121.401 64.2978 121.433 63.8283 121.407C61.8035 121.47 59.7875 121.688 57.7138 121.805C45.79 122.479 54.7637 121.14 55.2763 121.007C55.7889 120.874 56.8922 121.071 57.8362 120.29C58.7802 119.508 63.2503 119.464 63.2503 119.464C63.2503 119.464 64.8085 119.428 64.5279 118.143C64.2473 116.859 64.8752 116.927 66.6606 113.55C68.446 110.173 68.4713 112.46 71.4031 109.121C74.3349 105.783 72.5984 109.106 72.0466 110.385C71.4948 111.665 70.1859 113.351 70.1859 113.351C70.094 113.564 69.9501 113.78 69.8034 113.944ZM52.8205 116.205C53.066 116.867 53.1011 117.489 52.3382 117.792C50.91 118.289 51.1429 117.808 49.6385 116.957C49.3706 116.816 48.5665 116.393 48.5978 116.027C48.6321 115.713 49.3061 115.675 49.5565 115.505C49.804 115.283 50.0485 115.009 50.3596 114.992C50.7714 114.916 51.1861 114.893 51.6038 114.921C52.1252 114.944 52.3932 115.085 52.5721 115.491C52.6876 115.692 52.754 115.948 52.8205 116.205ZM57.3993 115.322C56.9328 115.348 56.4143 115.377 55.936 115.196C55.5125 115.064 55.2328 114.716 54.9071 114.474C54.3104 114.04 54.1775 113.528 54.0445 113.015C53.6543 111.633 53.673 110.123 53.5939 108.724C53.4532 106.235 53.8425 106.681 54.1986 105.621C54.3737 105.039 56.1745 105.613 56.9325 106.143C57.6905 106.672 57.3315 107.68 57.4244 108.403C57.4771 109.336 58.419 109.439 59.0675 109.871C59.8774 110.397 60.6384 110.978 61.3993 111.559C62.3764 112.284 61.542 113.163 61.1741 114.016C61.0822 114.229 60.9413 114.497 60.7427 114.665C60.3974 114.996 59.9337 115.074 59.5219 115.15C59.4701 115.153 59.4701 115.153 59.4183 115.156C58.7472 115.246 58.0733 115.284 57.3993 115.322ZM48.4051 104.336C48.0862 105.134 47.6117 105.941 47.1861 106.694C46.9504 107.123 46.4182 107.829 45.8763 107.444C45.1731 106.963 45.2788 106.073 45.2407 105.399C45.1528 103.844 44.8683 101.572 45.4289 100.448C46.0413 99.3211 47.2503 98.6287 47.9694 97.5479C48.5475 96.7351 49.0718 96.8095 49.6853 93.8624C50.3507 90.9123 50.2967 94.5559 50.5547 96.3616C50.8128 98.1673 49.2359 99.7127 49.2359 99.7127C48.1197 101.128 48.9911 102.743 48.4051 104.336ZM36.5154 119.415C35.8963 119.502 35.3377 119.741 34.9523 120.283C34.469 120.934 34.3545 121.669 33.9779 122.366C33.745 122.848 33.3655 123.493 32.6828 123.376C32.0489 123.204 31.3916 122.617 30.9113 123.32C30.2382 124.294 29.8519 123.9 29.8519 123.9C29.6358 123.756 27.973 122.862 27.2305 123.528C22.9283 127.464 24.6911 124.608 25.7496 123.092C26.8081 121.576 29.5911 119.286 30.8139 117.917C32.0367 116.547 34.7451 117.538 36.185 117.249C37.6249 116.96 37.085 115.69 37.8128 114.765C38.5407 113.839 41.7039 114.597 42.4092 114.193C43.1145 113.789 43.4686 113.613 43.4129 112.628C43.4041 112.472 43.6419 111.159 44.0312 111.605C44.1985 111.803 44.127 112.379 44.1417 112.639C44.1651 113.053 44.1885 113.468 44.1602 113.886C44.0603 114.879 43.2592 114.509 42.0071 115.36C40.7521 116.159 40.3587 117.481 40.1611 118.584C40.0035 119.477 38.9119 119.487 38.0766 119.43C37.5552 119.408 37.0339 119.385 36.5154 119.415ZM31.6421 158.332C31.8984 158.266 32.4139 158.184 32.5352 158.49C32.6564 158.795 32.1067 159.19 32.1214 159.449C32.1448 159.864 32.3217 161.154 31.0834 161.328C29.8969 161.499 29.6485 160.785 29.3219 159.607C29.2583 159.403 29.2466 159.196 29.3385 158.982C29.4794 158.714 29.8394 158.642 30.0986 158.627C30.3549 158.561 30.6141 158.546 30.9222 158.477C31.1785 158.41 31.3858 158.398 31.6421 158.332ZM44.0612 127.777C45.4698 127.854 46.8156 128.662 48.0461 129.268C48.8472 129.639 49.706 130.111 50.1187 130.972C50.4707 131.68 50.4892 132.927 50.6369 133.699C50.8451 134.623 53.2349 133.656 54.1768 133.759C55.1188 133.861 54.8605 134.812 55.1891 135.106C55.5696 135.396 56.8451 134.96 57.9455 135.106C59.2563 135.292 58.7631 137.608 58.9166 138.484C59.0701 139.359 59.4309 140.223 59.6881 141.092C60.1967 142.728 59.2029 142.628 58.3968 143.09C57.5908 143.551 58.5032 145.892 58.4209 147.197C58.3328 148.398 56.842 149.626 55.8805 150.097C55.2241 150.446 54.3858 150.337 53.66 150.378C52.8306 150.425 52.004 150.524 51.2146 150.361C50.4253 150.197 49.8199 149.607 49.1195 149.179C48.0388 148.46 46.8777 148.161 45.5875 148.338C44.2454 148.518 42.9582 148.747 41.6132 148.875C40.8874 148.916 39.6285 148.727 39.4739 149.672C39.3565 150.355 39.5012 151.075 39.3838 151.757C39.1548 153.227 38.1405 152.764 36.9481 152.831C35.7557 152.899 35.7566 153.835 35.4954 154.734C35.0619 156.266 33.9674 156.224 32.6195 156.3C31.6863 156.353 30.7532 156.406 29.8171 156.407C28.2012 156.342 27.1253 154.791 27.1253 154.791C27.1253 154.791 24.7947 151.282 23.6758 149.889C22.5569 148.496 21.9575 145.253 21.8139 142.713C21.6704 140.173 24.9934 136.396 24.9934 136.396C24.9934 136.396 29.3799 130.272 30.1596 129.343C30.9393 128.415 30.3593 127.356 30.6147 126.353C30.8182 125.354 31.6867 126.917 32.5827 127.126C33.4786 127.335 33.2113 130.887 33.2406 131.406C33.2699 131.924 34.3527 131.759 34.882 131.001C35.4112 130.243 35.7829 130.378 36.586 129.864C37.3891 129.351 37.8577 128.44 37.8823 127.035C37.855 125.632 39.333 126.016 40.989 125.871C42.645 125.725 42.0004 126.282 42.3612 127.145C42.6008 127.704 43.2259 127.721 43.7473 127.743C43.9028 127.734 44.0094 127.78 44.0612 127.777ZM10.2408 163.39L10.2955 163.439C10.9039 164.081 12.7436 166.265 11.7156 166.479C10.7393 166.691 9.52737 167.331 8.86716 166.692C8.20109 165.95 8.3733 165.316 6.46593 164.696C5.51227 164.386 4.57347 161.578 4.57347 161.578C4.57347 161.578 4.82589 160.524 5.41284 159.867C5.9049 159.371 7.24873 161.063 7.7417 161.503C8.56036 162.185 9.52576 162.703 10.2408 163.39ZM1.5952 158.574C1.17078 157.506 0.428285 158.172 0.38433 157.394C0.340374 156.617 2.54234 155.088 3.28188 154.37C4.7639 152.986 3.46764 155.816 3.87155 156.521C4.38501 157.324 4.43687 157.321 4.12963 158.327C4.0406 158.592 3.85173 159.851 3.59836 159.969C2.12423 160.573 2.02259 159.694 1.5952 158.574Z" stroke="#475566" stroke-opacity="0.3" stroke-width="2" mask="url(#path-1-inside-1_405_7891)"/>
</svg>
