<svg width="439" height="390" viewBox="0 0 439 390" fill="none" xmlns="http://www.w3.org/2000/svg">
<mask id="path-1-inside-1_405_6493" fill="white">
<path d="M-136.888 23.0312C-138.341 21.9694 -139.802 21.0253 -141.536 20.5335C-143.857 19.9954 -146.576 20.0181 -148.714 18.6654C-150.176 17.7213 -152.895 13.2437 -149.165 13.8927C-146.601 14.3316 -141.542 14.6116 -139.623 12.7495C-134.762 8.03997 -129.729 20.6345 -124.577 19.7375C-121.821 19.244 -120.956 15.7594 -118.267 17.6291C-116.589 18.8271 -114.84 20.6228 -113.679 22.3723C-111.985 24.8743 -113.379 26.0672 -116.117 26.3253C-118.61 26.4841 -121.058 26.0545 -123.641 25.851C-125.99 25.6661 -128.357 25.7165 -130.724 25.7669C-133.091 25.8173 -134.985 24.3654 -136.888 23.0312ZM-108.657 9.62241C-108.657 9.62241 -107.792 15.1382 -105.969 15.9924C-104.263 16.8373 -103.398 17.8529 -102.029 15.4737C-100.669 13.2123 -103.286 11.9403 -105.134 9.89988C-106.982 7.85949 -109.791 3.01959 -108.657 9.62241ZM-119.732 40.7255C-123.008 38.8095 -121.188 36.7027 -122.056 32.7262C-122.924 28.7498 -125.696 32.4395 -129.389 35.8199C-133.082 39.2003 -135.958 32.2234 -137.581 30.3192C-139.203 28.415 -137.531 28.1914 -146.508 26.6554C-155.358 25.0109 -154.635 24.831 -158.989 29.1067C-163.343 33.3824 -155.853 32.7881 -150.732 33.7836C-145.612 34.779 -145.736 37.8484 -146.456 40.9892C-147.176 44.13 -156.566 41.8508 -165.407 40.0886C-174.248 38.3264 -173.584 40.392 -178.321 42.0322C-183.058 43.6723 -192.27 37.6176 -196.16 36.0084C-200.051 34.3993 -227.423 33.9014 -231.415 33.5869C-235.408 33.2724 -237.88 36.1568 -241.044 37.3287C-244.208 38.5006 -243.352 44.1341 -243.674 46.7142C-243.995 49.2943 -249.681 46.4779 -252.734 46.2375C-255.787 45.997 -255.104 47.8272 -255.515 50.0449C-255.926 52.2627 -254.653 52.5998 -250.994 52.6511C-247.336 52.7025 -245.856 53.4112 -245.933 55.8921C-246.01 58.373 -250.722 56.6991 -253.658 56.4679C-256.594 56.2366 -255.827 61.5078 -255.583 65.9088C-255.339 70.3099 -252.465 69.8257 -250.914 71.1321C-249.363 72.4386 -247.144 74.2713 -261.464 79.0648C-275.784 83.8583 -262.193 82.3233 -259.771 81.5667C-257.348 80.8101 -246.764 78.4462 -243.711 78.6867C-240.658 78.9271 -235.683 75.7662 -231.548 72.7759C-227.414 69.7856 -215.44 72.2682 -206.76 73.0704C-198.079 73.8725 -192.066 93.5313 -188.071 96.8067C-184.075 100.082 -185.488 124.012 -186.161 131.064C-186.835 138.117 -182.048 143.349 -179.876 145.771C-177.704 148.192 -172.961 161.474 -167.296 170.565C-161.642 179.774 -163.715 168.597 -165.204 163.506C-166.684 158.297 -163.406 163.174 -163.406 163.174C-163.406 163.174 -153.153 177.008 -151.395 183.187C-149.637 189.365 -140.406 195.184 -133.985 196.164C-127.564 197.143 -127.82 198.9 -127.82 198.9C-127.82 198.9 -128.367 201.343 -120.691 202.895C-113.133 204.438 -114.898 210.339 -111.913 212.943C-108.927 215.546 -104.19 218.406 -99.8457 218.749C-95.501 219.091 -96.9904 218.5 -96.428 221.86C-95.8656 225.22 -99.271 229.452 -101.687 231.631C-104.104 233.809 -104.765 239.204 -105.266 245.56C-105.767 251.916 -103.403 253.405 -103.403 253.405C-103.403 253.405 -91.7407 276.351 -88.7279 278.601C-85.715 280.852 -86.5185 285.052 -86.5185 285.052C-86.5185 285.052 -89.0588 317.301 -89.3709 319.763C-89.6831 322.226 -89.9179 322.207 -92.2634 324.983C-94.6088 327.759 -94.7664 334.26 -94.7664 334.26C-94.7664 334.26 -97.3716 362.833 -97.5385 364.951C-97.7054 367.07 -94.6307 370.036 -84.3994 376.645C-74.1681 383.253 -81.2413 374.051 -82.2579 371.958C-83.2745 369.864 -82.0446 364.75 -81.7387 360.866C-81.4327 356.982 -77.9872 355.241 -76.5101 352.988C-75.033 350.736 -76.0682 348.878 -75.7437 344.759C-75.4192 340.639 -70.6728 338.882 -70.6728 338.882C-70.6728 338.882 -43.5229 315.203 -41.3412 313.006C-39.1596 310.809 -38.4457 306.247 -38.4766 303.639C-38.5075 301.031 -30.1641 294.109 -25.5691 291.274C-20.9741 288.438 -16.8641 279.761 -16.4717 277.779C-16.0792 275.796 -15.6002 271.215 -12.4884 269.21C-9.37667 267.205 -9.11398 262.371 -7.54106 257.402C-5.96815 252.434 -15.3157 251.105 -20.6647 247.013C-26.0137 242.92 -34.8545 241.158 -35.559 241.102C-36.2636 241.047 -40.2931 241.203 -39.8265 238.279C-39.3598 235.355 -41.4271 230.1 -42.6415 227.518C-43.8559 224.935 -46.0962 224.877 -48.797 224.664C-51.4977 224.452 -59.1148 216.154 -62.4521 213.522C-65.7894 210.891 -73.1006 212.21 -77.6956 210.545C-82.2906 208.881 -79.9422 209.066 -84.0767 207.556C-88.2113 206.046 -90.6711 211.773 -92.7136 212.205C-94.7562 212.636 -101.196 211.892 -103.517 211.354C-105.837 210.816 -107.274 206.558 -107.565 202.745C-107.855 198.933 -109.017 197.183 -112.048 195.168C-115.08 193.153 -115.234 189.114 -114.659 186.317C-114.085 183.52 -116.062 183.127 -118.402 182.825C-120.741 182.522 -120.698 183.473 -121.442 185.427C-122.187 187.382 -124.14 188.176 -129.124 186.954C-134.099 185.615 -135.74 179.446 -135.947 174.574C-136.154 169.702 -135.824 167.004 -132.313 164.439C-128.803 161.873 -127.984 163.477 -123.577 164.535C-119.171 165.592 -115.923 163.361 -112.746 160.532C-109.57 157.703 -106.455 163.159 -106.455 163.159C-106.455 163.159 -106.455 163.159 -102.234 171.071C-98.0129 178.983 -97.9974 171.286 -98.5968 163.897C-99.1963 156.507 -74.9418 135.087 -71.2769 132.06C-67.612 129.033 -68.0755 130.417 -62.1672 130.409C-56.2589 130.4 -53.555 124.574 -49.955 122.37C-46.355 120.167 -54.2317 119.665 -57.6061 117.504C-60.9805 115.344 -55.0722 115.335 -52.8751 114.442C-50.678 113.55 -46.1695 113.313 -40.3261 114.128C-34.4827 114.944 -47.4116 93.0821 -49.6921 90.534C-51.9725 87.9858 -50.9899 84.5104 -51.8952 81.0047C-52.8006 77.499 -57.2381 82.834 -60.4611 86.2513C-63.6841 89.6687 -63.2793 86.0294 -62.6334 83.8301C-61.9876 81.6309 -64.1506 79.092 -64.9664 75.9486C-65.7822 72.8052 -73.3715 73.1549 -76.063 72.8245C-78.7545 72.494 -78.3033 72.7664 -79.4869 77.2919C-80.6704 81.8173 -79.6105 84.8615 -79.1223 89.1633C-78.6341 93.4652 -83.7854 98.8624 -86.7179 101.592C-89.6505 104.322 -90.0769 100.735 -89.9625 97.7837C-89.8482 94.832 -91.2944 95.1918 -94.5451 94.4621C-97.7959 93.7323 -98.0215 93.5961 -99.0721 90.4343C-100.123 87.2724 -104.264 84.3409 -108.355 83.7818C-112.446 83.2227 -110.589 76.1449 -110.221 72.9763C-109.844 69.69 -103.729 70.0533 -101.686 69.622C-99.6437 69.1908 -96.1889 67.3312 -93.1977 71.3564C-90.1972 75.264 -86.7393 71.8651 -86.7393 71.8651C-86.7393 71.8651 -81.3841 68.3788 -81.1987 66.0249C-81.0133 63.6709 -82.1257 64.2939 -85.2962 64.0442C-88.4667 63.7944 -88.9363 63.7574 -88.7231 61.0504C-88.5099 58.3434 -88.4913 58.108 -82.8457 58.4342C-77.2 58.7605 -79.3755 53.3783 -76.48 51.1194C-73.5845 48.8605 -71.1495 50.9471 -72.0179 55.9711C-72.8863 60.9951 -66.7091 57.5735 -63.5232 59.1271C-60.3373 60.6808 -61.9936 62.2083 -64.8581 62.5748C-67.7227 62.9413 -65.9181 64.0309 -65.3372 67.1558C-64.7562 70.2806 -65.0436 69.429 -56.175 70.8381C-47.3064 72.2472 -54.5773 67.0558 -55.0903 66.068C-55.6033 65.0802 -58.1186 62.5135 -50.0534 63.6225C-41.9882 64.7314 -46.5183 57.7427 -46.5183 57.7427C-46.5183 57.7427 -51.3851 47.5299 -57.6488 44.5496C-63.9124 41.5692 -62.1603 41.8257 -65.2318 37.3204C-68.3034 32.815 -81.4951 33.7893 -85.3516 33.2487C-89.208 32.7081 -89.1772 35.3159 -91.3681 37.6303C-93.4416 39.954 -88.9393 42.7956 -89.0907 50.7183C-89.2422 58.641 -93.8619 51.2899 -93.8619 51.2899C-93.8619 51.2899 -96.4112 47.6547 -97.4618 44.4928C-98.5125 41.331 -98.8524 39.6462 -96.7974 37.558C-94.7425 35.4697 -93.7258 33.0628 -97.2114 27.8143C-100.697 22.5658 -103.719 20.433 -105.345 20.0681C-106.97 19.7032 -106.76 23.0357 -106.748 25.8789C-106.735 28.7222 -105.054 28.3809 -103.188 30.1859C-101.439 31.9816 -102.502 34.977 -103.222 38.1178C-103.942 41.2586 -103.883 39.0131 -106.439 33.9563C-108.994 28.8995 -111.077 31.3409 -113.92 34.4329C-116.763 37.525 -109.875 40.0808 -110.104 45.9841C-110.332 51.8875 -113.24 46.8029 -113.24 46.8029C-113.24 46.8029 -116.457 42.6415 -119.732 40.7255ZM-235.535 145.887C-235.535 145.887 -233.962 158.919 -230.628 158.59C-223.96 157.931 -228.558 153.305 -233.774 146.026C-234.188 145.282 -236.008 142.889 -235.535 145.887ZM-96.7707 185.713C-96.0847 186.004 -95.3895 186.177 -94.8302 186.576C-93.9371 187.239 -93.316 188.353 -92.287 188.79C-90.9243 189.489 -87.9948 188.299 -86.5579 188.057C-80.458 187.116 -96.0198 180.679 -98.7824 179.751C-101.545 178.823 -102.321 178.17 -108.884 180.495C-115.447 182.821 -103.723 183.981 -103.723 183.981C-101.285 184.528 -98.9555 184.948 -96.7707 185.713ZM-82.8405 190.363C-82.8962 191.069 -82.9518 191.775 -82.8436 191.902C-82.3585 193.243 -80.6775 192.902 -79.5032 192.994C-78.4464 193.077 -71.8428 193.242 -74.8031 191.825C-76.6263 190.971 -78.5206 189.519 -80.5786 188.646C-83.5481 187.346 -82.7293 188.95 -82.8405 190.363ZM-96.4357 19.4671C-95.6539 21.5419 -94.217 21.2998 -93.0891 21.9808C-91.9613 22.6617 -91.7202 24.1019 -91.6368 27.5428C-91.5534 30.9838 -80.6484 30.54 -73.2414 31.005C-65.8344 31.47 -70.3428 27.2068 -79.7553 26.7022C-83.8744 26.4962 -84.2885 25.7531 -85.2866 23.4243C-86.2847 21.0956 -88.1542 20.8299 -90.7715 19.5579C-93.3889 18.2859 -93.0428 16.892 -95.4129 13.9815C-98.6482 10.0555 -97.3349 17.383 -97.3349 17.383C-97.3349 17.383 -97.2175 17.3922 -96.4357 19.4671ZM-67.2558 24.0155C-61.9717 24.4317 -58.0533 16.6873 -57.7165 15.4111C-57.3797 14.1349 -54.0331 12.1484 -49.8058 12.4813C-45.5785 12.8143 -43.3474 12.99 -41.2925 10.9018C-39.2376 8.8135 -41.3172 9.71554 -35.0906 8.66642C-28.864 7.61729 -28.8331 5.72489 -28.7651 3.3617C-28.6971 0.998505 -38.57 0.339305 -41.2801 0.244279C-43.9901 0.149255 -43.885 1.81551 -46.969 3.46745C-50.0529 5.11938 -67.645 1.95736 -73.2721 1.39572C-73.8592 1.34948 -74.4463 1.30323 -74.9345 1.50163C-74.3134 2.6164 -71.8661 3.04602 -70.8463 3.60005C-69.3662 4.30877 -68.6369 5.55048 -67.4102 6.47609C-66.1741 7.28401 -64.6569 7.52195 -63.257 7.75063C-48.5821 10.446 -60.0742 10.8436 -61.2578 10.8688C-62.4413 10.894 -64.2644 10.0398 -64.8578 13.0722C-65.4511 16.1046 -69.2056 14.2693 -71.211 14.2298C-73.2165 14.1903 -72.4842 13.8927 -72.1875 10.1263C-71.8908 6.36004 -80.6359 6.38181 -84.4027 6.20355C-88.1695 6.02528 -86.8934 9.32334 -87.4156 12.9535C-87.9379 16.5836 -86.9892 16.5399 -83.142 17.1982C-79.4122 17.8472 -80.7781 18.6871 -80.4845 20.9603C-80.191 23.2335 -74.292 23.3429 -74.292 23.3429C-74.292 23.3429 -72.5399 23.5993 -67.2558 24.0155ZM-22.9465 7.49124C-22.9465 7.49124 -26.2776 6.28145 -28.2336 8.61436C-30.1897 10.9473 -28.3295 11.3306 -32.4486 11.1246C-36.5677 10.9186 -36.3514 11.1725 -37.4855 13.5702C-38.6196 15.9678 -40.8012 18.1645 -43.7368 17.9333C-46.6725 17.7021 -51.286 16.2729 -50.9924 18.5461C-50.7082 20.937 -47.1886 27.2541 -45.2016 27.529C-43.2147 27.8039 -26.2747 27.2433 -25.0418 34.0908C-23.8181 41.056 -27.5264 52.1329 -24.5042 54.2658C-21.4821 56.3987 -23.0674 58.5239 -24.1705 59.0292C-25.2737 59.5344 -26.8157 58.1103 -27.0845 61.5235C-27.3534 64.9367 -26.1761 63.4899 -24.5198 66.4626C-22.8635 69.4353 -21.8407 68.45 -22.1744 72.6871C-22.5082 76.9242 -23.1077 78.535 -19.9743 79.2555C-16.841 79.976 -14.3441 82.7781 -13.995 84.3451C-13.6458 85.9122 -10.3641 84.7495 -9.3938 82.9311C-8.42347 81.1127 2.37039 68.5806 5.32455 68.5764C8.2787 68.5722 13.3001 69.323 13.6215 66.7429C13.9429 64.1628 12.5957 60.267 16.2451 60.436C19.8945 60.6051 26.8133 61.2684 30.1352 58.0957C33.4571 54.9229 40.0854 51.7738 34.2884 50.3697C31.6247 49.6862 29.3442 47.1381 30.9758 44.4243C31.121 44.0805 35.2031 44.7573 35.7995 44.6858C37.2271 44.5614 39.143 44.2386 40.0762 42.891C41.5626 40.5211 43.0489 38.1512 44.6527 35.7905C46.102 33.8914 50.6723 29.8696 45.4624 28.5118C43.8463 28.0292 43.1726 26.0813 45.6787 24.2654C45.6787 24.2654 49.8226 16.6572 53.3454 16.9347C54.4022 17.0179 64.4203 17.3333 63.141 15.5745C62.2851 14.4412 62.2851 14.4413 55.2767 13.4155C54.3466 13.2238 53.8244 12.3537 53.0302 11.9359C51.8838 11.4903 50.348 11.4878 49.1738 11.3953C42.805 11.2489 44.9094 11.5331 42.3848 9.08415C39.8602 6.63519 37.2769 6.43172 25.8774 5.65228C14.3606 4.8636 10.1086 3.34442 7.09568 5.59409C4.0828 7.84376 5.25395 9.47556 -0.734712 9.00387C-6.72334 8.53218 -22.9465 7.49124 -22.9465 7.49124ZM33.5898 74.2371C33.562 74.5901 33.5249 75.0609 33.4971 75.414C33.4229 76.3556 33.2839 78.1211 34.5755 78.2228C36.4543 78.3708 38.3424 78.4011 40.2304 78.4313C41.1791 78.3876 42.1988 78.9417 42.9497 78.4087C44.6864 77.3612 45.5114 75.8866 47.7703 75.7092C48.719 75.6655 51.2653 76.3398 51.4939 74.9367C51.5403 74.3482 51.2993 68.4079 50.4155 67.6277C48.2061 65.6772 42.066 68.628 38.0736 68.3136C36.6645 68.2026 35.2925 67.6208 33.7475 67.736C32.4372 67.8696 32.7864 69.4367 32.9471 70.3968C33.423 71.8554 33.5744 72.9331 33.5898 74.2371ZM61.8951 104.889C61.8951 104.889 56.9292 107.932 56.5893 110.748C56.2586 113.446 55.038 118.442 58.4927 116.582C62.0649 114.732 64.9017 110.218 64.9017 110.218C64.9017 110.218 66.4654 100.867 61.8951 104.889ZM69.3669 104.53C69.8521 105.871 69.9664 107.42 70.2074 108.86C70.5906 111.495 68.8879 113.611 67.3305 115.383C65.909 116.93 63.9807 118.909 66.1994 120.742C69.203 123.11 73.829 118.382 76.9315 116.495C79.4098 115.032 78.4673 111.997 77.2065 110.003C75.6491 107.275 73.7116 104.872 72.8866 101.847C72.1697 98.948 70.3311 96.7899 68.7552 94.2972C67.5933 92.5477 65.7763 93.1152 64.8307 96.1198C64.0304 98.7806 65.7979 100.341 67.3306 101.883C68.2143 102.663 68.9714 103.552 69.3669 104.53ZM108.948 112.03C104.539 112.511 102.116 113.268 97.9721 111.876C95.67 111.102 97.2367 104.712 94.8079 104.047C94.0045 103.747 92.7777 102.821 92.1257 103.599C91.7363 104.042 91.8692 105.355 91.8228 105.944C91.8475 107.13 92.3203 110.128 90.5404 110.224C88.1641 110.392 89.3414 108.946 87.543 113.778C85.7445 118.61 80.5283 120.331 78.8102 121.143C77.0921 121.955 74.3234 124.106 70.3309 123.791C66.3478 123.359 65.6586 124.608 68.653 127.094C70.9798 129.053 71.1281 131.67 71.1405 134.514C71.1405 134.514 71.1405 134.514 71.1312 134.631C71.1559 135.817 71.4185 139.983 69.6293 140.197C67.4879 140.384 60.4702 139.476 57.5346 139.245C54.599 139.014 55.4117 143.696 55.0718 146.512C54.7318 149.327 55.3622 150.324 56.283 150.634C57.1946 151.061 59.3422 152.296 60.3125 154.978C61.2828 157.659 65.2598 156.67 69.2337 157.22C73.2076 157.77 72.8739 153.006 73.6 151.287C74.3262 149.568 73.0006 148.398 77.0023 148.594C80.8865 148.782 82.4996 146.304 83.2011 143.398C83.9118 140.375 86.6249 143.431 90.6946 141.264C94.7643 139.098 100.296 146.876 102.839 149.09C104.056 150.133 107.248 153.108 106.958 153.796C106.006 155.379 99.9402 152.888 101.55 156.449C103.645 161.351 106.395 159.436 110.406 155.015C114.526 150.721 106.151 146.035 104.609 144.611C103.077 143.069 99.2883 140.165 102.375 136.974C105.453 133.9 111.398 142.422 111.398 142.422C114.149 145.007 118.002 151.587 119.003 156.876C120.131 162.058 120.681 162.575 125.233 163.289C129.784 164.002 126.735 157.722 126.215 155.313C125.57 153.012 125.616 152.423 128.542 152.772C131.469 153.121 132.541 159.009 134.018 161.257C135.495 163.505 141.128 165.488 143.551 164.731C146.091 163.984 146.87 163.098 149.465 166.145C152.061 169.191 145.056 175.627 143.032 175.823C141.008 176.018 137.182 178.086 132.68 175.244C128.187 172.285 127.328 172.691 122.118 171.333C116.908 169.975 117.517 172.747 115.975 175.823C114.433 178.899 112.035 176.342 110.972 174.837C109.909 173.332 100.533 167.857 97.2146 164.99C93.8959 162.123 94.687 159.58 93.5992 156.889C92.5115 154.198 88.2162 156.228 87.4468 156.996C86.6774 157.765 83.2628 157.614 80.0923 157.365C76.9219 157.115 75.794 156.434 73.7205 158.758C71.647 161.081 71.8757 159.678 68.1675 161.755C64.4594 163.831 61.0015 162.73 55.7793 163.029C50.5569 163.328 51.3047 173.335 51.1656 175.1C51.0265 176.866 50.0469 178.802 47.9704 178.165C45.8938 177.527 41.4193 187.833 38.7772 189.875C36.1351 191.917 37.0065 198.855 36.9385 201.218C36.8705 203.581 34.7259 205.307 33.3972 205.676C32.0684 206.045 33.0912 214.061 31.9942 215.987C30.8972 217.914 37.6058 219.745 37.6058 219.745C38.128 220.615 42.4696 222.497 45.0622 227.083C48.2759 232.784 51.8265 232.708 51.8265 232.708C51.8265 232.708 75.9077 234.486 81.4266 234.921C83.7751 235.106 85.9413 236.106 87.3195 238.109C88.5803 240.103 89.7483 243.274 88.2805 245.409C86.9393 247.435 86.0555 251.155 87.6593 253.295C88.5152 254.428 89.9861 255.254 91.0955 256.171C94.6769 258.703 95.199 268.573 94.8004 273.634C94.5408 276.93 93.9197 280.315 92.7207 283.537C92.4024 284.578 91.9667 285.609 91.1879 286.495C90.1373 287.834 89.7201 288.63 89.7078 290.287C89.5038 292.876 88.8116 295.664 91.5463 296.945C93.2521 297.79 95.3131 306.124 95.3131 306.124C95.3131 306.124 100.721 325.972 101.326 330.283C101.932 334.594 103.947 334.516 105.238 334.618C106.53 334.719 107.921 335.066 108.412 333.328C108.894 331.708 110.393 332.181 110.393 332.181C110.393 332.181 111.783 332.528 117.908 332.773C124.15 333.028 129.382 323.611 131.029 322.201C132.676 320.791 132.83 320.329 132.954 317.26C132.969 314.064 133.575 313.875 136.646 313.88C139.835 313.894 139.57 311.268 140.169 305.157C140.769 299.046 143.97 297.403 148.522 293.617C153.074 289.83 151.445 273.004 151.622 266.267C151.798 259.531 156.393 256.695 156.393 256.695C156.393 256.695 172.505 236.647 178.243 231.296C183.982 225.945 175.298 226.682 175.298 226.682C175.298 226.682 167.412 226.298 163.809 225.541C160.197 224.901 156.925 216.945 155.321 214.806C153.717 212.666 149.885 208.812 149.505 204.637C149.125 200.462 147.895 196.575 147.895 196.575C147.608 195.724 144.147 191.661 144.03 187.152C143.761 177.064 146.907 185.128 146.907 185.128C146.907 185.128 148.103 187.946 152.864 191.993C157.617 196.157 159.406 209.443 161.473 214.698C163.54 219.953 163.188 219.926 170.929 220.654C178.66 221.5 190.128 210.915 193.465 209.047C196.803 207.178 195.959 204.387 194.89 201.461C193.821 198.534 191.074 198.91 185.99 197.444C180.898 196.095 179.637 189.601 175.172 186.289C170.707 182.976 175.033 183.554 178.293 184.166C181.553 184.778 181.766 186.571 183.253 188.702C184.73 190.95 187.22 192.33 192.424 192.266C197.619 192.32 200.866 194.589 201.92 196.212C202.974 197.834 206.394 199.406 206.394 199.406C206.394 199.406 215.201 200.1 216.165 201.36C217.129 202.62 216.292 205.752 221.999 206.794C227.707 207.835 229.626 219.474 229.626 219.474C229.626 219.474 230.12 234.198 233.918 236.984C241.288 242.42 240.562 226.138 241.155 223.106C241.748 220.074 250.808 216.05 253.973 214.878C255.311 214.391 256.009 213.025 256.238 211.622C256.429 210.69 255.892 208.516 256.652 207.865C257.276 207.441 259.615 207.743 260.311 207.916C261.819 208.272 264.73 207.317 265.175 210.668C265.619 214.019 269.522 218.471 269.522 218.471C270.712 219.868 272.3 220.703 274.034 221.195C275.542 221.551 277.476 220.993 278.82 221.928C280.724 223.262 279.117 227.162 278.861 228.918C278.712 230.801 278.094 232.647 278.171 234.667C278.239 236.804 279.392 238.671 279.695 240.826C279.936 242.267 280.069 243.58 280.075 245.001C280.075 245.001 283.869 258.327 290.782 257.569C295.426 257.106 288.053 248.709 284.926 244.91C281.799 241.111 281.842 237.561 283.656 234.033C285.47 230.504 288.044 235.326 292.843 238.901C297.642 242.477 295.739 241.143 300.256 236.288C304.765 231.55 301.607 225.143 300.417 223.747C299.227 222.351 294.382 214.863 300.899 213.127C307.299 211.381 313.442 211.391 316.885 211.188C320.327 210.986 320.262 207.309 326.529 199.75C332.796 192.19 328.192 181.643 326.168 177.338C324.026 173.025 323.723 170.869 327.57 167.027C331.418 163.185 334.239 170.869 334.239 170.869C334.239 170.869 337.289 177.149 341.522 183.403C345.756 189.658 347.443 181.738 348.413 179.92C349.393 177.984 346.534 175.271 344.986 172.426C343.438 169.58 345.768 165.5 346.358 164.007C346.949 162.514 355.845 159.07 358.629 158.223C361.414 157.377 364.593 153.008 366.556 143.097C368.518 133.185 370.004 144.316 370.004 144.316C370.004 144.316 368.586 166.823 368.144 170.934C367.702 175.044 367.798 176.828 362.498 179.608C357.198 182.388 356.667 181.636 353.92 182.011C351.173 182.387 350.159 183.255 349.414 189.71C348.67 196.164 352.118 192.883 352.591 191.381C353.064 189.879 354.59 185.499 357.968 186.12C361.345 186.741 367.053 183.283 370.409 181.178C373.765 179.074 372.856 172.607 373.026 168.95C373.196 165.292 372.76 166.323 375.949 166.338C379.138 166.352 377.983 166.024 378.684 163.119C379.386 160.213 378.004 159.749 375.078 159.4C372.152 159.051 372.961 156.273 372.961 156.273C372.961 156.273 374.689 141.842 374.253 138.374C373.808 135.023 370.088 129.756 361.469 129.669C352.851 129.582 366.812 118.839 371.256 114.926C375.582 111.003 379.352 114.142 379.352 114.142C379.352 114.142 383.981 116.875 390.563 118.815C397.145 120.755 394.392 115.208 395.492 111.742C396.592 108.276 399.416 109.92 404.638 114.121C409.861 118.322 398.98 124.452 397.522 126.469C396.063 128.486 398.68 134.258 401.594 140.764C404.508 147.27 404.524 139.574 405.188 137.139C405.735 134.695 405.677 132.44 408.291 130.751C410.905 129.062 409.756 125.656 410.154 120.595C410.553 115.534 414.02 116.518 419.539 116.952C425.049 117.505 425.911 115.559 427.267 114.837C428.624 114.115 428.068 112.176 436.371 111.765C444.665 111.47 429.18 89.0522 427.892 87.4112C426.603 85.7702 402.429 85.1688 396.577 84.471C390.724 83.7732 391.255 80.0253 390.192 78.5205C389.129 77.0156 375.768 77.1475 373.311 76.8356C370.855 76.5237 368.679 71.1415 366.584 70.7396C364.489 70.3378 363.5 72.3916 361.238 74.1082C358.976 75.8249 359.328 71.3524 359.242 69.4508C359.155 67.5491 357.91 66.8589 355.617 65.9678C353.324 65.0766 352.833 71.3145 352.549 73.4238C352.264 75.5331 333.415 73.3379 329.784 72.9335C326.153 72.5291 325.294 68.4349 324.923 64.1423C324.552 59.8497 320.442 64.0262 320.442 64.0262L311.481 63.7941C311.481 63.7941 296.488 62.1395 292.449 62.4135C288.528 62.6968 292.829 57.5879 295.137 55.2828C297.455 52.8599 288.006 48.326 286.915 47.1742C285.824 46.0224 277.855 46.6974 276.257 45.9795C274.777 45.2707 273.807 42.5889 273.272 43.3758C272.737 44.1627 271.956 46.5881 270.092 47.744C268.229 48.9 266.622 48.2997 264.246 48.4678C261.869 48.6359 263.195 49.8062 255.247 48.7065C247.29 47.7245 246.521 52.9931 243.823 55.7413C241.008 58.4802 236.799 57.9119 234.794 57.8724C232.779 57.9505 233.168 62.0077 232.034 64.4054C230.9 66.803 227.587 60.8576 226.234 60.0404C224.89 59.1056 224.998 63.7327 224.998 63.7327C224.998 63.7327 223.805 77.3764 223.107 78.7425C222.408 80.1086 218.873 67.9874 219.087 65.2804C219.417 62.5826 217.65 56.522 217.263 55.4258C216.985 54.4565 215.691 55.894 213.997 57.8923C212.304 59.8907 212.909 64.2017 212.325 67.1164C211.741 70.0311 210.218 68.3716 205.638 68.0109C201.059 67.6502 200.116 69.1155 198.098 70.733C196.081 72.3504 189.19 71.334 185.197 71.0195C181.205 70.705 179.032 72.7841 175.216 74.7336C171.4 76.6831 172.617 73.2262 170.519 69.8634C168.313 66.3737 167.064 71.723 165.587 73.9752C164.11 76.2274 157.791 69.453 154.716 66.487C151.642 63.521 149.488 65.3647 147.726 65.2259C145.965 65.0872 143.913 65.6361 142.275 62.428C140.638 59.2199 135.678 59.1846 130.533 57.0029C125.388 54.8213 123.438 58.5758 117.644 60.1327C111.85 61.6896 110.182 64.8741 110.182 64.8741C110.182 64.8741 110.182 64.8741 109.579 68.0242C108.976 71.1743 104.823 74.4 102.116 77.2659C99.4092 80.1318 94.6937 79.9972 91.9992 81.2061C89.3046 82.415 90.4077 90.9103 90.2562 94.3327C90.114 97.6375 95.701 95.709 99.2237 95.9865C102.629 96.2547 100.518 99.0491 99.9375 100.424C99.6192 101.465 97.8764 101.091 97.4685 101.77C97.3418 101.878 97.3233 102.113 97.4129 102.476C97.7899 103.69 99.0074 104.733 99.6192 105.966C101.563 109.79 103.522 105.918 103.522 105.918C103.522 105.918 107.28 101.713 110.704 97.2459C113.729 93.3393 109.047 89.773 112.289 86.1202C115.014 83.0189 118.299 80.3169 121.538 78.2035C127.146 74.5003 127.773 77.0366 129.115 79.5108C130.456 81.985 121.037 84.5591 117.981 90.3582C114.925 96.1573 124.047 92.8492 121.173 97.8337C115.305 109.333 113.719 111.458 108.948 112.03ZM187.709 61.6248C189.251 63.0489 190.92 64.3646 192.715 65.5719C193.275 65.9712 195.846 67.8317 195.29 65.893C194.922 64.5614 193.967 63.1835 193.228 62.0595C191.751 59.8114 192.097 58.4176 192.32 55.5928C192.543 52.7681 198.364 50.8581 198.364 50.8581C218.5 42.733 199.99 46.7227 197.144 46.8539C194.424 46.8765 191.696 47.0169 190.25 47.3767C188.804 47.7365 185.336 51.2531 183.56 54.3107C183.016 55.2153 183.158 56.4107 183.436 57.3801C183.733 58.114 184.156 58.7395 184.823 59.2658C185.825 60.0552 186.943 60.8538 187.709 61.6248ZM160.53 292.668C158.911 293.724 158.976 297.401 158.367 303.629C158.228 305.395 159.476 318.046 162.755 313.923C162.764 313.805 167.084 308.461 167.452 305.292C167.829 302.006 170.789 298.923 172.022 296.77C173.255 294.617 172.9 291.629 171.049 286.627C169.198 281.626 165.975 289.544 165.975 289.544C165.168 290.783 162.149 291.611 160.53 292.668ZM282.525 266.393C284.021 268.405 285.507 270.536 287.003 272.548C287.75 273.555 288.498 274.561 289.246 275.567C290.111 276.583 291.211 277.617 291.588 278.831C291.965 280.045 291.718 281.683 292.583 282.699C293.34 283.588 294.632 283.689 295.698 283.655C300.287 283.898 304.848 284.494 309.545 284.864C336.553 286.991 316.269 283.499 315.113 283.171C313.958 282.843 311.445 283.237 309.344 281.414C307.243 279.59 297.107 279.266 297.107 279.266C297.107 279.266 293.575 279.106 294.277 276.2C294.978 273.295 293.551 273.419 289.673 265.653C285.795 257.887 285.621 263.084 279.142 255.349C272.662 247.615 276.431 255.254 277.618 258.19C278.805 261.126 281.688 265.024 281.688 265.024C281.885 265.513 282.201 266.012 282.525 266.393ZM320.926 272.378C320.336 273.871 320.224 275.284 321.939 276.011C325.153 277.211 324.649 276.106 328.104 274.246C328.719 273.939 330.564 273.019 330.511 272.186C330.45 271.47 328.923 271.35 328.364 270.951C327.814 270.434 327.273 269.799 326.569 269.743C325.638 269.552 324.699 269.478 323.75 269.521C322.567 269.547 321.952 269.853 321.525 270.767C321.253 271.22 321.09 271.799 320.926 272.378ZM310.586 270.143C311.643 270.226 312.817 270.318 313.911 269.931C314.879 269.652 315.531 268.874 316.282 268.341C317.657 267.383 317.984 266.225 318.312 265.067C319.267 261.944 319.301 258.512 319.551 255.335C319.996 249.685 319.091 250.68 318.337 248.252C317.969 246.92 313.856 248.136 312.11 249.301C310.364 250.466 311.127 252.776 310.88 254.415C310.713 256.533 308.572 256.72 307.079 257.668C305.216 258.824 303.461 260.107 301.705 261.39C299.453 262.989 301.301 265.029 302.092 266.987C302.289 267.476 302.595 268.092 303.037 268.482C303.804 269.253 304.851 269.454 305.781 269.646C305.899 269.655 305.899 269.655 306.016 269.664C307.533 269.902 309.06 270.022 310.586 270.143ZM331.541 245.621C332.224 247.451 333.259 249.309 334.186 251.04C334.699 252.028 335.87 253.659 337.118 252.81C338.738 251.753 338.543 249.725 338.663 248.195C338.942 244.664 339.702 239.513 338.487 236.93C337.156 234.338 334.449 232.704 332.873 230.211C331.603 228.335 330.41 228.478 329.168 221.748C327.808 215.009 327.746 223.294 327.069 227.386C326.393 231.478 329.891 235.069 329.891 235.069C332.35 238.342 330.292 241.969 331.541 245.621ZM357.741 280.489C359.141 280.717 360.396 281.29 361.243 282.541C362.306 284.046 362.528 285.721 363.347 287.325C363.851 288.431 364.679 289.917 366.233 289.684C367.679 289.324 369.2 288.023 370.253 289.646C371.73 291.894 372.626 291.017 372.626 291.017C373.124 290.701 376.94 288.751 378.59 290.302C388.148 299.463 384.295 292.883 381.971 289.384C379.647 285.885 373.452 280.542 370.748 277.368C368.044 274.194 361.851 276.312 358.601 275.582C355.35 274.853 356.638 271.993 355.035 269.854C353.431 267.714 346.219 269.278 344.64 268.324C343.061 267.371 342.266 266.953 342.442 264.717C342.47 264.364 341.998 261.366 341.092 262.361C340.703 262.804 340.836 264.117 340.789 264.705C340.715 265.647 340.641 266.588 340.684 267.539C340.86 269.803 342.696 269 345.492 270.997C348.298 272.876 349.123 275.902 349.516 278.42C349.828 280.457 352.303 280.534 354.2 280.447C355.384 280.421 356.567 280.396 357.741 280.489ZM366.823 369.195C366.245 369.031 365.08 368.821 364.789 369.509C364.499 370.197 365.726 371.122 365.679 371.711C365.605 372.652 365.138 375.576 367.938 376.034C370.62 376.482 371.22 374.871 372.02 372.21C372.175 371.749 372.212 371.278 372.014 370.789C371.708 370.172 370.895 369.99 370.308 369.944C369.731 369.78 369.143 369.733 368.448 369.56C367.87 369.396 367.401 369.359 366.823 369.195ZM340.205 299.122C337.007 299.225 333.913 300.995 331.092 302.312C329.257 303.115 327.285 304.144 326.306 306.08C325.471 307.672 325.366 310.506 324.992 312.253C324.473 314.344 319.102 312.026 316.961 312.213C314.82 312.399 315.357 314.573 314.597 315.224C313.719 315.865 310.849 314.81 308.346 315.087C305.364 315.444 306.365 320.734 305.972 322.716C305.58 324.699 304.718 326.644 304.091 328.608C302.854 332.3 305.113 332.123 306.918 333.212C308.723 334.302 306.535 339.577 306.655 342.547C306.794 345.282 310.113 348.149 312.27 349.266C313.741 350.093 315.647 349.888 317.291 350.017C319.17 350.165 321.04 350.431 322.838 350.099C324.637 349.767 326.039 348.456 327.649 347.517C330.137 345.936 332.785 345.316 335.702 345.783C338.737 346.258 341.645 346.843 344.688 347.201C346.332 347.33 349.197 346.964 349.5 349.119C349.731 350.677 349.367 352.307 349.599 353.864C350.043 357.215 352.367 356.214 355.068 356.427C357.769 356.64 357.719 358.767 358.266 360.824C359.172 364.329 361.656 364.288 364.709 364.529C366.823 364.695 368.936 364.862 371.059 364.91C374.727 364.844 377.246 361.371 377.246 361.371C377.246 361.371 382.709 353.512 385.317 350.401C387.925 347.29 389.449 339.95 389.903 334.182C390.357 328.415 383.012 319.665 383.012 319.665C383.012 319.665 373.374 305.524 371.653 303.375C369.932 301.226 371.301 298.847 370.772 296.555C370.361 294.273 368.313 297.783 366.27 298.214C364.228 298.645 364.654 306.732 364.561 307.909C364.469 309.086 362.021 308.656 360.859 306.907C359.697 305.157 358.848 305.446 357.052 304.238C355.257 303.031 354.24 300.938 354.256 297.741C354.389 294.554 351.017 295.355 347.269 294.941C343.521 294.527 344.955 295.824 344.092 297.77C343.521 299.027 342.102 299.034 340.919 299.059C340.566 299.032 340.322 299.131 340.205 299.122ZM415.103 381.762L414.976 381.87C413.564 383.299 409.281 388.172 411.601 388.71C413.805 389.239 416.521 390.756 418.051 389.336C419.599 387.682 419.24 386.233 423.597 384.918C425.776 384.26 428.047 377.926 428.047 377.926C428.047 377.926 427.528 375.516 426.23 373.993C425.139 372.841 422.006 376.621 420.866 377.597C418.975 379.106 416.759 380.234 415.103 381.762ZM434.954 371.246C435.97 368.839 437.62 370.39 437.759 368.624C437.899 366.859 432.982 363.274 431.341 361.605C428.05 358.386 430.847 364.882 429.895 366.465C428.69 368.265 428.573 368.256 429.218 370.557C429.407 371.164 429.771 374.035 430.34 374.317C433.653 375.762 433.928 373.77 434.954 371.246Z"/>
</mask>
<path d="M-136.888 23.0312C-138.341 21.9694 -139.802 21.0253 -141.536 20.5335C-143.857 19.9954 -146.576 20.0181 -148.714 18.6654C-150.176 17.7213 -152.895 13.2437 -149.165 13.8927C-146.601 14.3316 -141.542 14.6116 -139.623 12.7495C-134.762 8.03997 -129.729 20.6345 -124.577 19.7375C-121.821 19.244 -120.956 15.7594 -118.267 17.6291C-116.589 18.8271 -114.84 20.6228 -113.679 22.3723C-111.985 24.8743 -113.379 26.0672 -116.117 26.3253C-118.61 26.4841 -121.058 26.0545 -123.641 25.851C-125.99 25.6661 -128.357 25.7165 -130.724 25.7669C-133.091 25.8173 -134.985 24.3654 -136.888 23.0312ZM-108.657 9.62241C-108.657 9.62241 -107.792 15.1382 -105.969 15.9924C-104.263 16.8373 -103.398 17.8529 -102.029 15.4737C-100.669 13.2123 -103.286 11.9403 -105.134 9.89988C-106.982 7.85949 -109.791 3.01959 -108.657 9.62241ZM-119.732 40.7255C-123.008 38.8095 -121.188 36.7027 -122.056 32.7262C-122.924 28.7498 -125.696 32.4395 -129.389 35.8199C-133.082 39.2003 -135.958 32.2234 -137.581 30.3192C-139.203 28.415 -137.531 28.1914 -146.508 26.6554C-155.358 25.0109 -154.635 24.831 -158.989 29.1067C-163.343 33.3824 -155.853 32.7881 -150.732 33.7836C-145.612 34.779 -145.736 37.8484 -146.456 40.9892C-147.176 44.13 -156.566 41.8508 -165.407 40.0886C-174.248 38.3264 -173.584 40.392 -178.321 42.0322C-183.058 43.6723 -192.27 37.6176 -196.16 36.0084C-200.051 34.3993 -227.423 33.9014 -231.415 33.5869C-235.408 33.2724 -237.88 36.1568 -241.044 37.3287C-244.208 38.5006 -243.352 44.1341 -243.674 46.7142C-243.995 49.2943 -249.681 46.4779 -252.734 46.2375C-255.787 45.997 -255.104 47.8272 -255.515 50.0449C-255.926 52.2627 -254.653 52.5998 -250.994 52.6511C-247.336 52.7025 -245.856 53.4112 -245.933 55.8921C-246.01 58.373 -250.722 56.6991 -253.658 56.4679C-256.594 56.2366 -255.827 61.5078 -255.583 65.9088C-255.339 70.3099 -252.465 69.8257 -250.914 71.1321C-249.363 72.4386 -247.144 74.2713 -261.464 79.0648C-275.784 83.8583 -262.193 82.3233 -259.771 81.5667C-257.348 80.8101 -246.764 78.4462 -243.711 78.6867C-240.658 78.9271 -235.683 75.7662 -231.548 72.7759C-227.414 69.7856 -215.44 72.2682 -206.76 73.0704C-198.079 73.8725 -192.066 93.5313 -188.071 96.8067C-184.075 100.082 -185.488 124.012 -186.161 131.064C-186.835 138.117 -182.048 143.349 -179.876 145.771C-177.704 148.192 -172.961 161.474 -167.296 170.565C-161.642 179.774 -163.715 168.597 -165.204 163.506C-166.684 158.297 -163.406 163.174 -163.406 163.174C-163.406 163.174 -153.153 177.008 -151.395 183.187C-149.637 189.365 -140.406 195.184 -133.985 196.164C-127.564 197.143 -127.82 198.9 -127.82 198.9C-127.82 198.9 -128.367 201.343 -120.691 202.895C-113.133 204.438 -114.898 210.339 -111.913 212.943C-108.927 215.546 -104.19 218.406 -99.8457 218.749C-95.501 219.091 -96.9904 218.5 -96.428 221.86C-95.8656 225.22 -99.271 229.452 -101.687 231.631C-104.104 233.809 -104.765 239.204 -105.266 245.56C-105.767 251.916 -103.403 253.405 -103.403 253.405C-103.403 253.405 -91.7407 276.351 -88.7279 278.601C-85.715 280.852 -86.5185 285.052 -86.5185 285.052C-86.5185 285.052 -89.0588 317.301 -89.3709 319.763C-89.6831 322.226 -89.9179 322.207 -92.2634 324.983C-94.6088 327.759 -94.7664 334.26 -94.7664 334.26C-94.7664 334.26 -97.3716 362.833 -97.5385 364.951C-97.7054 367.07 -94.6307 370.036 -84.3994 376.645C-74.1681 383.253 -81.2413 374.051 -82.2579 371.958C-83.2745 369.864 -82.0446 364.75 -81.7387 360.866C-81.4327 356.982 -77.9872 355.241 -76.5101 352.988C-75.033 350.736 -76.0682 348.878 -75.7437 344.759C-75.4192 340.639 -70.6728 338.882 -70.6728 338.882C-70.6728 338.882 -43.5229 315.203 -41.3412 313.006C-39.1596 310.809 -38.4457 306.247 -38.4766 303.639C-38.5075 301.031 -30.1641 294.109 -25.5691 291.274C-20.9741 288.438 -16.8641 279.761 -16.4717 277.779C-16.0792 275.796 -15.6002 271.215 -12.4884 269.21C-9.37667 267.205 -9.11398 262.371 -7.54106 257.402C-5.96815 252.434 -15.3157 251.105 -20.6647 247.013C-26.0137 242.92 -34.8545 241.158 -35.559 241.102C-36.2636 241.047 -40.2931 241.203 -39.8265 238.279C-39.3598 235.355 -41.4271 230.1 -42.6415 227.518C-43.8559 224.935 -46.0962 224.877 -48.797 224.664C-51.4977 224.452 -59.1148 216.154 -62.4521 213.522C-65.7894 210.891 -73.1006 212.21 -77.6956 210.545C-82.2906 208.881 -79.9422 209.066 -84.0767 207.556C-88.2113 206.046 -90.6711 211.773 -92.7136 212.205C-94.7562 212.636 -101.196 211.892 -103.517 211.354C-105.837 210.816 -107.274 206.558 -107.565 202.745C-107.855 198.933 -109.017 197.183 -112.048 195.168C-115.08 193.153 -115.234 189.114 -114.659 186.317C-114.085 183.52 -116.062 183.127 -118.402 182.825C-120.741 182.522 -120.698 183.473 -121.442 185.427C-122.187 187.382 -124.14 188.176 -129.124 186.954C-134.099 185.615 -135.74 179.446 -135.947 174.574C-136.154 169.702 -135.824 167.004 -132.313 164.439C-128.803 161.873 -127.984 163.477 -123.577 164.535C-119.171 165.592 -115.923 163.361 -112.746 160.532C-109.57 157.703 -106.455 163.159 -106.455 163.159C-106.455 163.159 -106.455 163.159 -102.234 171.071C-98.0129 178.983 -97.9974 171.286 -98.5968 163.897C-99.1963 156.507 -74.9418 135.087 -71.2769 132.06C-67.612 129.033 -68.0755 130.417 -62.1672 130.409C-56.2589 130.4 -53.555 124.574 -49.955 122.37C-46.355 120.167 -54.2317 119.665 -57.6061 117.504C-60.9805 115.344 -55.0722 115.335 -52.8751 114.442C-50.678 113.55 -46.1695 113.313 -40.3261 114.128C-34.4827 114.944 -47.4116 93.0821 -49.6921 90.534C-51.9725 87.9858 -50.9899 84.5104 -51.8952 81.0047C-52.8006 77.499 -57.2381 82.834 -60.4611 86.2513C-63.6841 89.6687 -63.2793 86.0294 -62.6334 83.8301C-61.9876 81.6309 -64.1506 79.092 -64.9664 75.9486C-65.7822 72.8052 -73.3715 73.1549 -76.063 72.8245C-78.7545 72.494 -78.3033 72.7664 -79.4869 77.2919C-80.6704 81.8173 -79.6105 84.8615 -79.1223 89.1633C-78.6341 93.4652 -83.7854 98.8624 -86.7179 101.592C-89.6505 104.322 -90.0769 100.735 -89.9625 97.7837C-89.8482 94.832 -91.2944 95.1918 -94.5451 94.4621C-97.7959 93.7323 -98.0215 93.5961 -99.0721 90.4343C-100.123 87.2724 -104.264 84.3409 -108.355 83.7818C-112.446 83.2227 -110.589 76.1449 -110.221 72.9763C-109.844 69.69 -103.729 70.0533 -101.686 69.622C-99.6437 69.1908 -96.1889 67.3312 -93.1977 71.3564C-90.1972 75.264 -86.7393 71.8651 -86.7393 71.8651C-86.7393 71.8651 -81.3841 68.3788 -81.1987 66.0249C-81.0133 63.6709 -82.1257 64.2939 -85.2962 64.0442C-88.4667 63.7944 -88.9363 63.7574 -88.7231 61.0504C-88.5099 58.3434 -88.4913 58.108 -82.8457 58.4342C-77.2 58.7605 -79.3755 53.3783 -76.48 51.1194C-73.5845 48.8605 -71.1495 50.9471 -72.0179 55.9711C-72.8863 60.9951 -66.7091 57.5735 -63.5232 59.1271C-60.3373 60.6808 -61.9936 62.2083 -64.8581 62.5748C-67.7227 62.9413 -65.9181 64.0309 -65.3372 67.1558C-64.7562 70.2806 -65.0436 69.429 -56.175 70.8381C-47.3064 72.2472 -54.5773 67.0558 -55.0903 66.068C-55.6033 65.0802 -58.1186 62.5135 -50.0534 63.6225C-41.9882 64.7314 -46.5183 57.7427 -46.5183 57.7427C-46.5183 57.7427 -51.3851 47.5299 -57.6488 44.5496C-63.9124 41.5692 -62.1603 41.8257 -65.2318 37.3204C-68.3034 32.815 -81.4951 33.7893 -85.3516 33.2487C-89.208 32.7081 -89.1772 35.3159 -91.3681 37.6303C-93.4416 39.954 -88.9393 42.7956 -89.0907 50.7183C-89.2422 58.641 -93.8619 51.2899 -93.8619 51.2899C-93.8619 51.2899 -96.4112 47.6547 -97.4618 44.4928C-98.5125 41.331 -98.8524 39.6462 -96.7974 37.558C-94.7425 35.4697 -93.7258 33.0628 -97.2114 27.8143C-100.697 22.5658 -103.719 20.433 -105.345 20.0681C-106.97 19.7032 -106.76 23.0357 -106.748 25.8789C-106.735 28.7222 -105.054 28.3809 -103.188 30.1859C-101.439 31.9816 -102.502 34.977 -103.222 38.1178C-103.942 41.2586 -103.883 39.0131 -106.439 33.9563C-108.994 28.8995 -111.077 31.3409 -113.92 34.4329C-116.763 37.525 -109.875 40.0808 -110.104 45.9841C-110.332 51.8875 -113.24 46.8029 -113.24 46.8029C-113.24 46.8029 -116.457 42.6415 -119.732 40.7255ZM-235.535 145.887C-235.535 145.887 -233.962 158.919 -230.628 158.59C-223.96 157.931 -228.558 153.305 -233.774 146.026C-234.188 145.282 -236.008 142.889 -235.535 145.887ZM-96.7707 185.713C-96.0847 186.004 -95.3895 186.177 -94.8302 186.576C-93.9371 187.239 -93.316 188.353 -92.287 188.79C-90.9243 189.489 -87.9948 188.299 -86.5579 188.057C-80.458 187.116 -96.0198 180.679 -98.7824 179.751C-101.545 178.823 -102.321 178.17 -108.884 180.495C-115.447 182.821 -103.723 183.981 -103.723 183.981C-101.285 184.528 -98.9555 184.948 -96.7707 185.713ZM-82.8405 190.363C-82.8962 191.069 -82.9518 191.775 -82.8436 191.902C-82.3585 193.243 -80.6775 192.902 -79.5032 192.994C-78.4464 193.077 -71.8428 193.242 -74.8031 191.825C-76.6263 190.971 -78.5206 189.519 -80.5786 188.646C-83.5481 187.346 -82.7293 188.95 -82.8405 190.363ZM-96.4357 19.4671C-95.6539 21.5419 -94.217 21.2998 -93.0891 21.9808C-91.9613 22.6617 -91.7202 24.1019 -91.6368 27.5428C-91.5534 30.9838 -80.6484 30.54 -73.2414 31.005C-65.8344 31.47 -70.3428 27.2068 -79.7553 26.7022C-83.8744 26.4962 -84.2885 25.7531 -85.2866 23.4243C-86.2847 21.0956 -88.1542 20.8299 -90.7715 19.5579C-93.3889 18.2859 -93.0428 16.892 -95.4129 13.9815C-98.6482 10.0555 -97.3349 17.383 -97.3349 17.383C-97.3349 17.383 -97.2175 17.3922 -96.4357 19.4671ZM-67.2558 24.0155C-61.9717 24.4317 -58.0533 16.6873 -57.7165 15.4111C-57.3797 14.1349 -54.0331 12.1484 -49.8058 12.4813C-45.5785 12.8143 -43.3474 12.99 -41.2925 10.9018C-39.2376 8.8135 -41.3172 9.71554 -35.0906 8.66642C-28.864 7.61729 -28.8331 5.72489 -28.7651 3.3617C-28.6971 0.998505 -38.57 0.339305 -41.2801 0.244279C-43.9901 0.149255 -43.885 1.81551 -46.969 3.46745C-50.0529 5.11938 -67.645 1.95736 -73.2721 1.39572C-73.8592 1.34948 -74.4463 1.30323 -74.9345 1.50163C-74.3134 2.6164 -71.8661 3.04602 -70.8463 3.60005C-69.3662 4.30877 -68.6369 5.55048 -67.4102 6.47609C-66.1741 7.28401 -64.6569 7.52195 -63.257 7.75063C-48.5821 10.446 -60.0742 10.8436 -61.2578 10.8688C-62.4413 10.894 -64.2644 10.0398 -64.8578 13.0722C-65.4511 16.1046 -69.2056 14.2693 -71.211 14.2298C-73.2165 14.1903 -72.4842 13.8927 -72.1875 10.1263C-71.8908 6.36004 -80.6359 6.38181 -84.4027 6.20355C-88.1695 6.02528 -86.8934 9.32334 -87.4156 12.9535C-87.9379 16.5836 -86.9892 16.5399 -83.142 17.1982C-79.4122 17.8472 -80.7781 18.6871 -80.4845 20.9603C-80.191 23.2335 -74.292 23.3429 -74.292 23.3429C-74.292 23.3429 -72.5399 23.5993 -67.2558 24.0155ZM-22.9465 7.49124C-22.9465 7.49124 -26.2776 6.28145 -28.2336 8.61436C-30.1897 10.9473 -28.3295 11.3306 -32.4486 11.1246C-36.5677 10.9186 -36.3514 11.1725 -37.4855 13.5702C-38.6196 15.9678 -40.8012 18.1645 -43.7368 17.9333C-46.6725 17.7021 -51.286 16.2729 -50.9924 18.5461C-50.7082 20.937 -47.1886 27.2541 -45.2016 27.529C-43.2147 27.8039 -26.2747 27.2433 -25.0418 34.0908C-23.8181 41.056 -27.5264 52.1329 -24.5042 54.2658C-21.4821 56.3987 -23.0674 58.5239 -24.1705 59.0292C-25.2737 59.5344 -26.8157 58.1103 -27.0845 61.5235C-27.3534 64.9367 -26.1761 63.4899 -24.5198 66.4626C-22.8635 69.4353 -21.8407 68.45 -22.1744 72.6871C-22.5082 76.9242 -23.1077 78.535 -19.9743 79.2555C-16.841 79.976 -14.3441 82.7781 -13.995 84.3451C-13.6458 85.9122 -10.3641 84.7495 -9.3938 82.9311C-8.42347 81.1127 2.37039 68.5806 5.32455 68.5764C8.2787 68.5722 13.3001 69.323 13.6215 66.7429C13.9429 64.1628 12.5957 60.267 16.2451 60.436C19.8945 60.6051 26.8133 61.2684 30.1352 58.0957C33.4571 54.9229 40.0854 51.7738 34.2884 50.3697C31.6247 49.6862 29.3442 47.1381 30.9758 44.4243C31.121 44.0805 35.2031 44.7573 35.7995 44.6858C37.2271 44.5614 39.143 44.2386 40.0762 42.891C41.5626 40.5211 43.0489 38.1512 44.6527 35.7905C46.102 33.8914 50.6723 29.8696 45.4624 28.5118C43.8463 28.0292 43.1726 26.0813 45.6787 24.2654C45.6787 24.2654 49.8226 16.6572 53.3454 16.9347C54.4022 17.0179 64.4203 17.3333 63.141 15.5745C62.2851 14.4412 62.2851 14.4413 55.2767 13.4155C54.3466 13.2238 53.8244 12.3537 53.0302 11.9359C51.8838 11.4903 50.348 11.4878 49.1738 11.3953C42.805 11.2489 44.9094 11.5331 42.3848 9.08415C39.8602 6.63519 37.2769 6.43172 25.8774 5.65228C14.3606 4.8636 10.1086 3.34442 7.09568 5.59409C4.0828 7.84376 5.25395 9.47556 -0.734712 9.00387C-6.72334 8.53218 -22.9465 7.49124 -22.9465 7.49124ZM33.5898 74.2371C33.562 74.5901 33.5249 75.0609 33.4971 75.414C33.4229 76.3556 33.2839 78.1211 34.5755 78.2228C36.4543 78.3708 38.3424 78.4011 40.2304 78.4313C41.1791 78.3876 42.1988 78.9417 42.9497 78.4087C44.6864 77.3612 45.5114 75.8866 47.7703 75.7092C48.719 75.6655 51.2653 76.3398 51.4939 74.9367C51.5403 74.3482 51.2993 68.4079 50.4155 67.6277C48.2061 65.6772 42.066 68.628 38.0736 68.3136C36.6645 68.2026 35.2925 67.6208 33.7475 67.736C32.4372 67.8696 32.7864 69.4367 32.9471 70.3968C33.423 71.8554 33.5744 72.9331 33.5898 74.2371ZM61.8951 104.889C61.8951 104.889 56.9292 107.932 56.5893 110.748C56.2586 113.446 55.038 118.442 58.4927 116.582C62.0649 114.732 64.9017 110.218 64.9017 110.218C64.9017 110.218 66.4654 100.867 61.8951 104.889ZM69.3669 104.53C69.8521 105.871 69.9664 107.42 70.2074 108.86C70.5906 111.495 68.8879 113.611 67.3305 115.383C65.909 116.93 63.9807 118.909 66.1994 120.742C69.203 123.11 73.829 118.382 76.9315 116.495C79.4098 115.032 78.4673 111.997 77.2065 110.003C75.6491 107.275 73.7116 104.872 72.8866 101.847C72.1697 98.948 70.3311 96.7899 68.7552 94.2972C67.5933 92.5477 65.7763 93.1152 64.8307 96.1198C64.0304 98.7806 65.7979 100.341 67.3306 101.883C68.2143 102.663 68.9714 103.552 69.3669 104.53ZM108.948 112.03C104.539 112.511 102.116 113.268 97.9721 111.876C95.67 111.102 97.2367 104.712 94.8079 104.047C94.0045 103.747 92.7777 102.821 92.1257 103.599C91.7363 104.042 91.8692 105.355 91.8228 105.944C91.8475 107.13 92.3203 110.128 90.5404 110.224C88.1641 110.392 89.3414 108.946 87.543 113.778C85.7445 118.61 80.5283 120.331 78.8102 121.143C77.0921 121.955 74.3234 124.106 70.3309 123.791C66.3478 123.359 65.6586 124.608 68.653 127.094C70.9798 129.053 71.1281 131.67 71.1405 134.514C71.1405 134.514 71.1405 134.514 71.1312 134.631C71.1559 135.817 71.4185 139.983 69.6293 140.197C67.4879 140.384 60.4702 139.476 57.5346 139.245C54.599 139.014 55.4117 143.696 55.0718 146.512C54.7318 149.327 55.3622 150.324 56.283 150.634C57.1946 151.061 59.3422 152.296 60.3125 154.978C61.2828 157.659 65.2598 156.67 69.2337 157.22C73.2076 157.77 72.8739 153.006 73.6 151.287C74.3262 149.568 73.0006 148.398 77.0023 148.594C80.8865 148.782 82.4996 146.304 83.2011 143.398C83.9118 140.375 86.6249 143.431 90.6946 141.264C94.7643 139.098 100.296 146.876 102.839 149.09C104.056 150.133 107.248 153.108 106.958 153.796C106.006 155.379 99.9402 152.888 101.55 156.449C103.645 161.351 106.395 159.436 110.406 155.015C114.526 150.721 106.151 146.035 104.609 144.611C103.077 143.069 99.2883 140.165 102.375 136.974C105.453 133.9 111.398 142.422 111.398 142.422C114.149 145.007 118.002 151.587 119.003 156.876C120.131 162.058 120.681 162.575 125.233 163.289C129.784 164.002 126.735 157.722 126.215 155.313C125.57 153.012 125.616 152.423 128.542 152.772C131.469 153.121 132.541 159.009 134.018 161.257C135.495 163.505 141.128 165.488 143.551 164.731C146.091 163.984 146.87 163.098 149.465 166.145C152.061 169.191 145.056 175.627 143.032 175.823C141.008 176.018 137.182 178.086 132.68 175.244C128.187 172.285 127.328 172.691 122.118 171.333C116.908 169.975 117.517 172.747 115.975 175.823C114.433 178.899 112.035 176.342 110.972 174.837C109.909 173.332 100.533 167.857 97.2146 164.99C93.8959 162.123 94.687 159.58 93.5992 156.889C92.5115 154.198 88.2162 156.228 87.4468 156.996C86.6774 157.765 83.2628 157.614 80.0923 157.365C76.9219 157.115 75.794 156.434 73.7205 158.758C71.647 161.081 71.8757 159.678 68.1675 161.755C64.4594 163.831 61.0015 162.73 55.7793 163.029C50.5569 163.328 51.3047 173.335 51.1656 175.1C51.0265 176.866 50.0469 178.802 47.9704 178.165C45.8938 177.527 41.4193 187.833 38.7772 189.875C36.1351 191.917 37.0065 198.855 36.9385 201.218C36.8705 203.581 34.7259 205.307 33.3972 205.676C32.0684 206.045 33.0912 214.061 31.9942 215.987C30.8972 217.914 37.6058 219.745 37.6058 219.745C38.128 220.615 42.4696 222.497 45.0622 227.083C48.2759 232.784 51.8265 232.708 51.8265 232.708C51.8265 232.708 75.9077 234.486 81.4266 234.921C83.7751 235.106 85.9413 236.106 87.3195 238.109C88.5803 240.103 89.7483 243.274 88.2805 245.409C86.9393 247.435 86.0555 251.155 87.6593 253.295C88.5152 254.428 89.9861 255.254 91.0955 256.171C94.6769 258.703 95.199 268.573 94.8004 273.634C94.5408 276.93 93.9197 280.315 92.7207 283.537C92.4024 284.578 91.9667 285.609 91.1879 286.495C90.1373 287.834 89.7201 288.63 89.7078 290.287C89.5038 292.876 88.8116 295.664 91.5463 296.945C93.2521 297.79 95.3131 306.124 95.3131 306.124C95.3131 306.124 100.721 325.972 101.326 330.283C101.932 334.594 103.947 334.516 105.238 334.618C106.53 334.719 107.921 335.066 108.412 333.328C108.894 331.708 110.393 332.181 110.393 332.181C110.393 332.181 111.783 332.528 117.908 332.773C124.15 333.028 129.382 323.611 131.029 322.201C132.676 320.791 132.83 320.329 132.954 317.26C132.969 314.064 133.575 313.875 136.646 313.88C139.835 313.894 139.57 311.268 140.169 305.157C140.769 299.046 143.97 297.403 148.522 293.617C153.074 289.83 151.445 273.004 151.622 266.267C151.798 259.531 156.393 256.695 156.393 256.695C156.393 256.695 172.505 236.647 178.243 231.296C183.982 225.945 175.298 226.682 175.298 226.682C175.298 226.682 167.412 226.298 163.809 225.541C160.197 224.901 156.925 216.945 155.321 214.806C153.717 212.666 149.885 208.812 149.505 204.637C149.125 200.462 147.895 196.575 147.895 196.575C147.608 195.724 144.147 191.661 144.03 187.152C143.761 177.064 146.907 185.128 146.907 185.128C146.907 185.128 148.103 187.946 152.864 191.993C157.617 196.157 159.406 209.443 161.473 214.698C163.54 219.953 163.188 219.926 170.929 220.654C178.66 221.5 190.128 210.915 193.465 209.047C196.803 207.178 195.959 204.387 194.89 201.461C193.821 198.534 191.074 198.91 185.99 197.444C180.898 196.095 179.637 189.601 175.172 186.289C170.707 182.976 175.033 183.554 178.293 184.166C181.553 184.778 181.766 186.571 183.253 188.702C184.73 190.95 187.22 192.33 192.424 192.266C197.619 192.32 200.866 194.589 201.92 196.212C202.974 197.834 206.394 199.406 206.394 199.406C206.394 199.406 215.201 200.1 216.165 201.36C217.129 202.62 216.292 205.752 221.999 206.794C227.707 207.835 229.626 219.474 229.626 219.474C229.626 219.474 230.12 234.198 233.918 236.984C241.288 242.42 240.562 226.138 241.155 223.106C241.748 220.074 250.808 216.05 253.973 214.878C255.311 214.391 256.009 213.025 256.238 211.622C256.429 210.69 255.892 208.516 256.652 207.865C257.276 207.441 259.615 207.743 260.311 207.916C261.819 208.272 264.73 207.317 265.175 210.668C265.619 214.019 269.522 218.471 269.522 218.471C270.712 219.868 272.3 220.703 274.034 221.195C275.542 221.551 277.476 220.993 278.82 221.928C280.724 223.262 279.117 227.162 278.861 228.918C278.712 230.801 278.094 232.647 278.171 234.667C278.239 236.804 279.392 238.671 279.695 240.826C279.936 242.267 280.069 243.58 280.075 245.001C280.075 245.001 283.869 258.327 290.782 257.569C295.426 257.106 288.053 248.709 284.926 244.91C281.799 241.111 281.842 237.561 283.656 234.033C285.47 230.504 288.044 235.326 292.843 238.901C297.642 242.477 295.739 241.143 300.256 236.288C304.765 231.55 301.607 225.143 300.417 223.747C299.227 222.351 294.382 214.863 300.899 213.127C307.299 211.381 313.442 211.391 316.885 211.188C320.327 210.986 320.262 207.309 326.529 199.75C332.796 192.19 328.192 181.643 326.168 177.338C324.026 173.025 323.723 170.869 327.57 167.027C331.418 163.185 334.239 170.869 334.239 170.869C334.239 170.869 337.289 177.149 341.522 183.403C345.756 189.658 347.443 181.738 348.413 179.92C349.393 177.984 346.534 175.271 344.986 172.426C343.438 169.58 345.768 165.5 346.358 164.007C346.949 162.514 355.845 159.07 358.629 158.223C361.414 157.377 364.593 153.008 366.556 143.097C368.518 133.185 370.004 144.316 370.004 144.316C370.004 144.316 368.586 166.823 368.144 170.934C367.702 175.044 367.798 176.828 362.498 179.608C357.198 182.388 356.667 181.636 353.92 182.011C351.173 182.387 350.159 183.255 349.414 189.71C348.67 196.164 352.118 192.883 352.591 191.381C353.064 189.879 354.59 185.499 357.968 186.12C361.345 186.741 367.053 183.283 370.409 181.178C373.765 179.074 372.856 172.607 373.026 168.95C373.196 165.292 372.76 166.323 375.949 166.338C379.138 166.352 377.983 166.024 378.684 163.119C379.386 160.213 378.004 159.749 375.078 159.4C372.152 159.051 372.961 156.273 372.961 156.273C372.961 156.273 374.689 141.842 374.253 138.374C373.808 135.023 370.088 129.756 361.469 129.669C352.851 129.582 366.812 118.839 371.256 114.926C375.582 111.003 379.352 114.142 379.352 114.142C379.352 114.142 383.981 116.875 390.563 118.815C397.145 120.755 394.392 115.208 395.492 111.742C396.592 108.276 399.416 109.92 404.638 114.121C409.861 118.322 398.98 124.452 397.522 126.469C396.063 128.486 398.68 134.258 401.594 140.764C404.508 147.27 404.524 139.574 405.188 137.139C405.735 134.695 405.677 132.44 408.291 130.751C410.905 129.062 409.756 125.656 410.154 120.595C410.553 115.534 414.02 116.518 419.539 116.952C425.049 117.505 425.911 115.559 427.267 114.837C428.624 114.115 428.068 112.176 436.371 111.765C444.665 111.47 429.18 89.0522 427.892 87.4112C426.603 85.7702 402.429 85.1688 396.577 84.471C390.724 83.7732 391.255 80.0253 390.192 78.5205C389.129 77.0156 375.768 77.1475 373.311 76.8356C370.855 76.5237 368.679 71.1415 366.584 70.7396C364.489 70.3378 363.5 72.3916 361.238 74.1082C358.976 75.8249 359.328 71.3524 359.242 69.4508C359.155 67.5491 357.91 66.8589 355.617 65.9678C353.324 65.0766 352.833 71.3145 352.549 73.4238C352.264 75.5331 333.415 73.3379 329.784 72.9335C326.153 72.5291 325.294 68.4349 324.923 64.1423C324.552 59.8497 320.442 64.0262 320.442 64.0262L311.481 63.7941C311.481 63.7941 296.488 62.1395 292.449 62.4135C288.528 62.6968 292.829 57.5879 295.137 55.2828C297.455 52.8599 288.006 48.326 286.915 47.1742C285.824 46.0224 277.855 46.6974 276.257 45.9795C274.777 45.2707 273.807 42.5889 273.272 43.3758C272.737 44.1627 271.956 46.5881 270.092 47.744C268.229 48.9 266.622 48.2997 264.246 48.4678C261.869 48.6359 263.195 49.8062 255.247 48.7065C247.29 47.7245 246.521 52.9931 243.823 55.7413C241.008 58.4802 236.799 57.9119 234.794 57.8724C232.779 57.9505 233.168 62.0077 232.034 64.4054C230.9 66.803 227.587 60.8576 226.234 60.0404C224.89 59.1056 224.998 63.7327 224.998 63.7327C224.998 63.7327 223.805 77.3764 223.107 78.7425C222.408 80.1086 218.873 67.9874 219.087 65.2804C219.417 62.5826 217.65 56.522 217.263 55.4258C216.985 54.4565 215.691 55.894 213.997 57.8923C212.304 59.8907 212.909 64.2017 212.325 67.1164C211.741 70.0311 210.218 68.3716 205.638 68.0109C201.059 67.6502 200.116 69.1155 198.098 70.733C196.081 72.3504 189.19 71.334 185.197 71.0195C181.205 70.705 179.032 72.7841 175.216 74.7336C171.4 76.6831 172.617 73.2262 170.519 69.8634C168.313 66.3737 167.064 71.723 165.587 73.9752C164.11 76.2274 157.791 69.453 154.716 66.487C151.642 63.521 149.488 65.3647 147.726 65.2259C145.965 65.0872 143.913 65.6361 142.275 62.428C140.638 59.2199 135.678 59.1846 130.533 57.0029C125.388 54.8213 123.438 58.5758 117.644 60.1327C111.85 61.6896 110.182 64.8741 110.182 64.8741C110.182 64.8741 110.182 64.8741 109.579 68.0242C108.976 71.1743 104.823 74.4 102.116 77.2659C99.4092 80.1318 94.6937 79.9972 91.9992 81.2061C89.3046 82.415 90.4077 90.9103 90.2562 94.3327C90.114 97.6375 95.701 95.709 99.2237 95.9865C102.629 96.2547 100.518 99.0491 99.9375 100.424C99.6192 101.465 97.8764 101.091 97.4685 101.77C97.3418 101.878 97.3233 102.113 97.4129 102.476C97.7899 103.69 99.0074 104.733 99.6192 105.966C101.563 109.79 103.522 105.918 103.522 105.918C103.522 105.918 107.28 101.713 110.704 97.2459C113.729 93.3393 109.047 89.773 112.289 86.1202C115.014 83.0189 118.299 80.3169 121.538 78.2035C127.146 74.5003 127.773 77.0366 129.115 79.5108C130.456 81.985 121.037 84.5591 117.981 90.3582C114.925 96.1573 124.047 92.8492 121.173 97.8337C115.305 109.333 113.719 111.458 108.948 112.03ZM187.709 61.6248C189.251 63.0489 190.92 64.3646 192.715 65.5719C193.275 65.9712 195.846 67.8317 195.29 65.893C194.922 64.5614 193.967 63.1835 193.228 62.0595C191.751 59.8114 192.097 58.4176 192.32 55.5928C192.543 52.7681 198.364 50.8581 198.364 50.8581C218.5 42.733 199.99 46.7227 197.144 46.8539C194.424 46.8765 191.696 47.0169 190.25 47.3767C188.804 47.7365 185.336 51.2531 183.56 54.3107C183.016 55.2153 183.158 56.4107 183.436 57.3801C183.733 58.114 184.156 58.7395 184.823 59.2658C185.825 60.0552 186.943 60.8538 187.709 61.6248ZM160.53 292.668C158.911 293.724 158.976 297.401 158.367 303.629C158.228 305.395 159.476 318.046 162.755 313.923C162.764 313.805 167.084 308.461 167.452 305.292C167.829 302.006 170.789 298.923 172.022 296.77C173.255 294.617 172.9 291.629 171.049 286.627C169.198 281.626 165.975 289.544 165.975 289.544C165.168 290.783 162.149 291.611 160.53 292.668ZM282.525 266.393C284.021 268.405 285.507 270.536 287.003 272.548C287.75 273.555 288.498 274.561 289.246 275.567C290.111 276.583 291.211 277.617 291.588 278.831C291.965 280.045 291.718 281.683 292.583 282.699C293.34 283.588 294.632 283.689 295.698 283.655C300.287 283.898 304.848 284.494 309.545 284.864C336.553 286.991 316.269 283.499 315.113 283.171C313.958 282.843 311.445 283.237 309.344 281.414C307.243 279.59 297.107 279.266 297.107 279.266C297.107 279.266 293.575 279.106 294.277 276.2C294.978 273.295 293.551 273.419 289.673 265.653C285.795 257.887 285.621 263.084 279.142 255.349C272.662 247.615 276.431 255.254 277.618 258.19C278.805 261.126 281.688 265.024 281.688 265.024C281.885 265.513 282.201 266.012 282.525 266.393ZM320.926 272.378C320.336 273.871 320.224 275.284 321.939 276.011C325.153 277.211 324.649 276.106 328.104 274.246C328.719 273.939 330.564 273.019 330.511 272.186C330.45 271.47 328.923 271.35 328.364 270.951C327.814 270.434 327.273 269.799 326.569 269.743C325.638 269.552 324.699 269.478 323.75 269.521C322.567 269.547 321.952 269.853 321.525 270.767C321.253 271.22 321.09 271.799 320.926 272.378ZM310.586 270.143C311.643 270.226 312.817 270.318 313.911 269.931C314.879 269.652 315.531 268.874 316.282 268.341C317.657 267.383 317.984 266.225 318.312 265.067C319.267 261.944 319.301 258.512 319.551 255.335C319.996 249.685 319.091 250.68 318.337 248.252C317.969 246.92 313.856 248.136 312.11 249.301C310.364 250.466 311.127 252.776 310.88 254.415C310.713 256.533 308.572 256.72 307.079 257.668C305.216 258.824 303.461 260.107 301.705 261.39C299.453 262.989 301.301 265.029 302.092 266.987C302.289 267.476 302.595 268.092 303.037 268.482C303.804 269.253 304.851 269.454 305.781 269.646C305.899 269.655 305.899 269.655 306.016 269.664C307.533 269.902 309.06 270.022 310.586 270.143ZM331.541 245.621C332.224 247.451 333.259 249.309 334.186 251.04C334.699 252.028 335.87 253.659 337.118 252.81C338.738 251.753 338.543 249.725 338.663 248.195C338.942 244.664 339.702 239.513 338.487 236.93C337.156 234.338 334.449 232.704 332.873 230.211C331.603 228.335 330.41 228.478 329.168 221.748C327.808 215.009 327.746 223.294 327.069 227.386C326.393 231.478 329.891 235.069 329.891 235.069C332.35 238.342 330.292 241.969 331.541 245.621ZM357.741 280.489C359.141 280.717 360.396 281.29 361.243 282.541C362.306 284.046 362.528 285.721 363.347 287.325C363.851 288.431 364.679 289.917 366.233 289.684C367.679 289.324 369.2 288.023 370.253 289.646C371.73 291.894 372.626 291.017 372.626 291.017C373.124 290.701 376.94 288.751 378.59 290.302C388.148 299.463 384.295 292.883 381.971 289.384C379.647 285.885 373.452 280.542 370.748 277.368C368.044 274.194 361.851 276.312 358.601 275.582C355.35 274.853 356.638 271.993 355.035 269.854C353.431 267.714 346.219 269.278 344.64 268.324C343.061 267.371 342.266 266.953 342.442 264.717C342.47 264.364 341.998 261.366 341.092 262.361C340.703 262.804 340.836 264.117 340.789 264.705C340.715 265.647 340.641 266.588 340.684 267.539C340.86 269.803 342.696 269 345.492 270.997C348.298 272.876 349.123 275.902 349.516 278.42C349.828 280.457 352.303 280.534 354.2 280.447C355.384 280.421 356.567 280.396 357.741 280.489ZM366.823 369.195C366.245 369.031 365.08 368.821 364.789 369.509C364.499 370.197 365.726 371.122 365.679 371.711C365.605 372.652 365.138 375.576 367.938 376.034C370.62 376.482 371.22 374.871 372.02 372.21C372.175 371.749 372.212 371.278 372.014 370.789C371.708 370.172 370.895 369.99 370.308 369.944C369.731 369.78 369.143 369.733 368.448 369.56C367.87 369.396 367.401 369.359 366.823 369.195ZM340.205 299.122C337.007 299.225 333.913 300.995 331.092 302.312C329.257 303.115 327.285 304.144 326.306 306.08C325.471 307.672 325.366 310.506 324.992 312.253C324.473 314.344 319.102 312.026 316.961 312.213C314.82 312.399 315.357 314.573 314.597 315.224C313.719 315.865 310.849 314.81 308.346 315.087C305.364 315.444 306.365 320.734 305.972 322.716C305.58 324.699 304.718 326.644 304.091 328.608C302.854 332.3 305.113 332.123 306.918 333.212C308.723 334.302 306.535 339.577 306.655 342.547C306.794 345.282 310.113 348.149 312.27 349.266C313.741 350.093 315.647 349.888 317.291 350.017C319.17 350.165 321.04 350.431 322.838 350.099C324.637 349.767 326.039 348.456 327.649 347.517C330.137 345.936 332.785 345.316 335.702 345.783C338.737 346.258 341.645 346.843 344.688 347.201C346.332 347.33 349.197 346.964 349.5 349.119C349.731 350.677 349.367 352.307 349.599 353.864C350.043 357.215 352.367 356.214 355.068 356.427C357.769 356.64 357.719 358.767 358.266 360.824C359.172 364.329 361.656 364.288 364.709 364.529C366.823 364.695 368.936 364.862 371.059 364.91C374.727 364.844 377.246 361.371 377.246 361.371C377.246 361.371 382.709 353.512 385.317 350.401C387.925 347.29 389.449 339.95 389.903 334.182C390.357 328.415 383.012 319.665 383.012 319.665C383.012 319.665 373.374 305.524 371.653 303.375C369.932 301.226 371.301 298.847 370.772 296.555C370.361 294.273 368.313 297.783 366.27 298.214C364.228 298.645 364.654 306.732 364.561 307.909C364.469 309.086 362.021 308.656 360.859 306.907C359.697 305.157 358.848 305.446 357.052 304.238C355.257 303.031 354.24 300.938 354.256 297.741C354.389 294.554 351.017 295.355 347.269 294.941C343.521 294.527 344.955 295.824 344.092 297.77C343.521 299.027 342.102 299.034 340.919 299.059C340.566 299.032 340.322 299.131 340.205 299.122ZM415.103 381.762L414.976 381.87C413.564 383.299 409.281 388.172 411.601 388.71C413.805 389.239 416.521 390.756 418.051 389.336C419.599 387.682 419.24 386.233 423.597 384.918C425.776 384.26 428.047 377.926 428.047 377.926C428.047 377.926 427.528 375.516 426.23 373.993C425.139 372.841 422.006 376.621 420.866 377.597C418.975 379.106 416.759 380.234 415.103 381.762ZM434.954 371.246C435.97 368.839 437.62 370.39 437.759 368.624C437.899 366.859 432.982 363.274 431.341 361.605C428.05 358.386 430.847 364.882 429.895 366.465C428.69 368.265 428.573 368.256 429.218 370.557C429.407 371.164 429.771 374.035 430.34 374.317C433.653 375.762 433.928 373.77 434.954 371.246Z" stroke="#475566" stroke-opacity="0.3" stroke-width="2" mask="url(#path-1-inside-1_405_6493)"/>
</svg>
