<svg width="55" height="214" viewBox="0 0 55 214" fill="none" xmlns="http://www.w3.org/2000/svg">
<mask id="path-1-inside-1_405_7718" fill="white">
<path d="M-186.56 5.57754C-187.09 4.98895 -187.636 4.45019 -188.339 4.08151C-189.292 3.63977 -190.467 3.40331 -191.268 2.62739C-191.813 2.08864 -192.583 -0.0850609 -191.032 0.532046C-189.965 0.953193 -187.808 1.53174 -186.812 0.903894C-184.29 -0.683333 -183.254 5.19407 -180.951 5.27435C-179.718 5.3115 -179.03 3.88977 -178.039 4.93806C-177.423 5.6057 -176.83 6.53709 -176.487 7.3954C-175.982 8.62574 -176.691 9.01309 -177.895 8.87628C-178.985 8.71888 -180.002 8.31235 -181.099 7.99086C-182.095 7.69859 -183.121 7.50597 -184.147 7.31336C-185.172 7.12075 -185.859 6.32423 -186.56 5.57754ZM-173.171 2.36153C-173.171 2.36153 -173.295 4.81429 -172.585 5.34706C-171.925 5.86522 -171.644 6.38074 -170.839 5.48052C-170.048 4.63012 -171.063 3.84558 -171.676 2.79993C-172.289 1.75428 -173.064 -0.583511 -173.171 2.36153ZM-180.753 14.7479C-181.994 13.6265 -181.019 12.8844 -181.035 11.094C-181.051 9.3036 -182.579 10.641 -184.477 11.7618C-186.375 12.8826 -186.987 9.61875 -187.515 8.65216C-188.044 7.68556 -187.302 7.74067 -191.037 6.26666C-194.706 4.75743 -194.378 4.74546 -196.642 6.19183C-198.906 7.63821 -195.621 8.06058 -193.502 8.9527C-191.383 9.84482 -191.713 11.1549 -192.306 12.4418C-192.9 13.7286 -196.746 11.8972 -200.402 10.3382C-204.057 8.77911 -203.957 9.72845 -206.148 10.0056C-208.34 10.2827 -211.768 6.84222 -213.301 5.79728C-214.835 4.75233 -226.599 2.0596 -228.293 1.56275C-229.987 1.0659 -231.314 2.08373 -232.785 2.3017C-234.256 2.51967 -234.394 5.02225 -234.766 6.10382C-235.137 7.18539 -237.336 5.45819 -238.631 5.07824C-239.927 4.6983 -239.797 5.54798 -240.175 6.46546C-240.552 7.38293 -240.033 7.64333 -238.459 7.99669C-236.885 8.35006 -236.311 8.78916 -236.568 9.85013C-236.825 10.9111 -238.707 9.76386 -239.953 9.39852C-241.198 9.03319 -241.343 11.3717 -241.635 13.2883C-241.926 15.205 -240.643 15.2567 -240.091 15.9596C-239.54 16.6624 -238.748 17.6523 -245.358 18.4192C-251.968 19.1862 -245.966 19.7559 -244.853 19.6496C-243.74 19.5432 -238.96 19.4839 -237.665 19.8638C-236.369 20.2438 -233.938 19.3335 -231.884 18.4206C-229.831 17.5077 -224.889 19.6606 -221.216 20.7919C-217.544 21.9231 -216.722 30.9302 -215.294 32.7019C-213.865 34.4737 -216.633 44.6469 -217.559 47.6219C-218.486 50.5968 -216.893 53.2827 -216.174 54.5217C-215.455 55.7606 -214.606 61.9078 -212.982 66.3342C-211.373 70.8105 -211.26 65.8113 -211.443 63.4848C-211.612 61.1084 -210.637 63.5047 -210.637 63.5047C-210.637 63.5047 -207.462 70.3884 -207.26 73.2073C-207.059 76.026 -203.601 79.3669 -200.919 80.3699C-198.237 81.373 -198.506 82.1057 -198.506 82.1057C-198.506 82.1057 -198.963 83.1083 -195.791 84.4714C-192.669 85.8198 -193.963 88.2002 -192.91 89.5913C-191.857 90.9824 -190.071 92.6425 -188.227 93.1832C-186.384 93.7239 -186.973 93.3346 -187.033 94.8321C-187.094 96.3295 -188.944 97.8429 -190.183 98.5618C-191.422 99.2807 -192.194 101.543 -192.983 104.234C-193.773 106.925 -192.887 107.78 -192.887 107.78C-192.887 107.78 -189.925 118.713 -188.828 119.955C-187.731 121.197 -188.456 122.932 -188.456 122.932C-188.456 122.932 -192.46 136.584 -192.817 137.616C-193.174 138.648 -193.274 138.619 -194.536 139.601C-195.798 140.584 -196.452 143.368 -196.452 143.368C-196.452 143.368 -200.153 155.432 -200.416 156.329C-200.679 157.226 -199.62 158.781 -195.802 162.552C-191.984 166.324 -194.205 161.722 -194.455 160.729C-194.705 159.735 -193.713 157.645 -193.231 156.001C-192.749 154.357 -191.105 153.919 -190.265 153.083C-189.424 152.247 -189.703 151.354 -189.192 149.61C-188.681 147.866 -186.474 147.539 -186.474 147.539C-186.474 147.539 -172.626 139.804 -171.486 139.056C-170.347 138.308 -169.628 136.409 -169.406 135.283C-169.184 134.158 -164.96 131.933 -162.722 131.129C-160.484 130.324 -157.928 126.961 -157.58 126.143C-157.232 125.325 -156.612 123.397 -155.089 122.815C-153.566 122.234 -153.017 120.177 -151.89 118.18C-150.763 116.184 -154.676 114.766 -156.615 112.52C-158.554 110.273 -162.209 108.714 -162.508 108.627C-162.807 108.539 -164.559 108.242 -164.094 107.025C-163.629 105.809 -164.047 103.359 -164.338 102.138C-164.629 100.916 -165.591 100.688 -166.737 100.352C-167.883 100.016 -170.421 95.7541 -171.623 94.3192C-172.826 92.8843 -176.099 92.7901 -177.931 91.6574C-179.764 90.5248 -178.767 90.8171 -180.415 89.7927C-182.062 88.7684 -183.64 91.0113 -184.56 91.012C-185.48 91.0127 -188.191 90.1093 -189.144 89.6675C-190.097 89.2258 -190.333 87.2627 -190.114 85.5952C-189.896 83.9277 -190.239 83.0693 -191.365 81.9274C-192.492 80.7854 -192.194 79.0329 -191.694 77.8809C-191.194 76.7289 -192.011 76.3808 -192.993 76.0387C-193.975 75.6966 -194.042 76.1098 -194.54 76.8838C-195.037 77.6578 -195.952 77.8226 -197.992 76.8455C-200.017 75.8185 -200.169 73.0143 -199.819 70.8983C-199.469 68.7824 -199.083 67.651 -197.337 66.8643C-195.591 66.0777 -195.383 66.8423 -193.577 67.6966C-191.771 68.5509 -190.169 67.8844 -188.543 66.9543C-186.918 66.0241 -186.066 68.6549 -186.066 68.6549C-186.066 68.6549 -186.066 68.6549 -184.958 72.4429C-183.851 76.231 -183.15 72.9192 -182.742 69.6838C-182.334 66.4485 -169.939 59.4238 -168.085 58.4525C-166.23 57.4811 -166.555 58.0352 -164.005 58.5665C-161.456 59.0979 -159.764 56.8344 -158.012 56.2119C-156.26 55.5893 -159.613 54.66 -160.874 53.4244C-162.135 52.1888 -159.585 52.7201 -158.557 52.5347C-157.528 52.3493 -155.562 52.6555 -153.114 53.5357C-150.667 54.4158 -154.273 43.8343 -155.028 42.5309C-155.782 41.2275 -155.044 39.8204 -155.119 38.2293C-155.193 36.6382 -157.589 38.533 -159.287 39.7123C-160.986 40.8916 -160.483 39.3616 -160.006 38.4733C-159.529 37.5851 -160.234 36.2963 -160.302 34.8693C-160.371 33.4423 -163.676 32.9056 -164.808 32.5197C-165.939 32.1338 -165.769 32.2919 -166.688 34.1328C-167.607 35.9737 -167.424 37.3801 -167.601 39.2762C-167.778 41.1722 -170.487 43.0292 -171.999 43.9387C-173.51 44.8483 -173.371 43.2658 -173.055 42.0055C-172.74 40.7453 -173.396 40.7692 -174.733 40.1607C-176.069 39.5523 -176.154 39.4732 -176.323 38.017C-176.491 36.5607 -178.013 34.9239 -179.728 34.3127C-181.442 33.7016 -180.003 30.823 -179.558 29.4923C-179.099 28.1117 -176.494 28.8218 -175.574 28.8211C-174.654 28.8204 -172.995 28.3327 -172.068 30.3363C-171.126 32.2901 -169.327 31.14 -169.327 31.14C-169.327 31.14 -166.703 30.1241 -166.41 29.1276C-166.118 28.1311 -166.654 28.2985 -167.999 27.904C-169.345 27.5094 -169.544 27.451 -169.208 26.3049C-168.872 25.1589 -168.843 25.0593 -166.436 25.7109C-164.03 26.3625 -164.483 23.8487 -163.03 23.1384C-161.578 22.4282 -160.715 23.5469 -161.543 25.631C-162.371 27.715 -159.397 26.8014 -158.163 27.7587C-156.928 28.716 -157.781 29.2236 -159.049 29.122C-160.318 29.0204 -159.638 29.6528 -159.669 31.0506C-159.7 32.4484 -159.748 32.0557 -156.048 33.4653C-152.349 34.8749 -155.018 31.9818 -155.15 31.5101C-155.283 31.0384 -156.136 29.7058 -152.757 30.9134C-149.377 32.1211 -150.701 28.7024 -150.701 28.7024C-150.701 28.7024 -151.88 23.8654 -154.314 22.0153C-156.747 20.1652 -156.014 20.4342 -156.933 18.2167C-157.852 15.9992 -163.631 15.2241 -165.246 14.6422C-166.861 14.0603 -167.083 15.1857 -168.237 15.9837C-169.341 16.7962 -167.655 18.4271 -168.435 21.8239C-169.215 25.2207 -170.545 21.638 -170.545 21.638C-170.545 21.638 -171.317 19.8423 -171.485 18.3861C-171.653 16.9298 -171.648 16.1738 -170.573 15.4609C-169.498 14.748 -168.843 13.804 -169.873 11.229C-170.904 8.65409 -172.015 7.4623 -172.683 7.15806C-173.352 6.85382 -173.562 8.30741 -173.813 9.53247C-174.064 10.7575 -173.308 10.7628 -172.665 11.7088C-172.073 12.6402 -172.801 13.8334 -173.395 15.1202C-173.989 16.4071 -173.761 15.4458 -174.408 13.0376C-175.054 10.6294 -176.173 11.4917 -177.678 12.5654C-179.184 13.639 -176.443 15.3629 -177.074 17.8834C-177.705 20.404 -178.501 17.9519 -178.501 17.9519C-178.501 17.9519 -179.513 15.8692 -180.753 14.7479ZM-240.197 49.5322C-240.197 49.5322 -240.694 55.2847 -239.226 55.4448C-236.289 55.7649 -237.856 53.3574 -239.45 49.7514C-239.562 49.394 -240.131 48.1988 -240.197 49.5322ZM-183.922 79.2405C-183.652 79.4278 -183.367 79.5653 -183.162 79.7878C-182.837 80.1539 -182.669 80.69 -182.265 80.971C-181.74 81.3955 -180.369 81.1483 -179.727 81.1742C-177.01 81.3215 -183.144 77.1418 -184.252 76.4921C-185.36 75.8424 -185.636 75.491 -188.677 75.8977C-191.718 76.3044 -186.765 77.8654 -186.765 77.8654C-185.762 78.3217 -184.795 78.7137 -183.922 79.2405ZM-178.331 82.5035C-178.419 82.8024 -178.506 83.1014 -178.471 83.1658C-178.383 83.787 -177.627 83.7923 -177.128 83.9384C-176.68 84.0699 -173.846 84.7388 -174.995 83.8606C-175.705 83.3278 -176.391 82.5313 -177.2 81.9693C-178.364 81.1409 -178.156 81.9055 -178.331 82.5035ZM-168.786 7.70598C-168.635 8.66993 -167.994 8.69581 -167.568 9.09108C-167.143 9.48634 -167.169 10.1281 -167.443 11.6169C-167.718 13.1057 -162.973 13.902 -159.819 14.7729C-156.666 15.6437 -158.226 13.4003 -162.242 12.3308C-164 11.8692 -164.112 11.5118 -164.332 10.419C-164.553 9.32612 -165.336 9.04248 -166.35 8.25794C-167.365 7.47339 -167.09 6.9047 -167.85 5.4372C-168.891 3.45418 -168.986 6.72741 -168.986 6.72741C-168.986 6.72741 -168.936 6.74202 -168.786 7.70598ZM-156.607 12.306C-154.365 12.9636 -151.976 9.9846 -151.715 9.46574C-151.455 8.94687 -149.832 8.39473 -148.038 8.92081C-146.244 9.44689 -145.298 9.72455 -144.223 9.01166C-143.148 8.29877 -144.127 8.49878 -141.346 8.61093C-138.565 8.72309 -138.381 7.91125 -138.138 6.90011C-137.896 5.88897 -142.096 4.71127 -143.256 4.42499C-144.417 4.13871 -144.522 4.86551 -146.001 5.2974C-147.481 5.72929 -154.785 2.77527 -157.163 2.024C-157.412 1.95094 -157.661 1.87787 -157.889 1.91907C-157.722 2.45519 -156.705 2.86172 -156.315 3.19255C-155.74 3.63165 -155.537 4.23221 -155.092 4.74174C-154.631 5.20144 -153.998 5.44124 -153.415 5.66643C-147.327 8.15546 -152.321 7.28605 -152.833 7.18975C-153.346 7.09344 -154.056 6.56067 -154.585 7.81231C-155.115 9.06396 -156.569 7.93397 -157.431 7.73537C-158.292 7.53677 -157.95 7.47497 -157.482 5.88053C-157.014 4.28608 -160.789 3.50365 -162.398 3.08585C-164.007 2.66805 -163.754 4.20334 -164.307 5.71873C-164.859 7.23412 -164.446 7.3012 -162.846 7.93292C-161.295 8.55003 -161.96 8.78789 -162.038 9.79305C-162.117 10.7982 -159.582 11.3794 -159.582 11.3794C-159.582 11.3794 -158.849 11.6484 -156.607 12.306ZM-136 9.20462C-136 9.20462 -137.328 8.38222 -138.383 9.20938C-139.437 10.0365 -138.669 10.37 -140.427 9.90836C-142.186 9.44672 -142.115 9.5756 -142.821 10.505C-143.526 11.4345 -144.666 12.1826 -145.911 11.8173C-147.157 11.4519 -149.019 10.4189 -149.097 11.4241C-149.19 12.4791 -148.241 15.5171 -147.409 15.8153C-146.576 16.1136 -139.217 17.4061 -139.303 20.4654C-139.403 23.5745 -142.002 28.0071 -140.89 29.1989C-139.779 30.3907 -140.654 31.162 -141.176 31.2796C-141.697 31.3973 -142.234 30.6446 -142.658 32.0895C-143.082 33.5345 -142.443 33.0183 -141.997 34.4479C-141.55 35.8776 -141.02 35.546 -141.546 37.3398C-142.072 39.1335 -142.476 39.7727 -141.189 40.3665C-139.903 40.9604 -139.078 42.3927 -139.069 43.0989C-139.059 43.8051 -137.539 43.6017 -136.956 42.9068C-136.373 42.2119 -130.587 37.7944 -129.312 38.0601C-128.037 38.3258 -125.938 39.1036 -125.567 38.022C-125.195 36.9405 -125.425 35.1414 -123.866 35.5446C-122.307 35.9478 -119.382 36.8598 -117.663 35.7948C-115.943 34.7298 -112.8 33.9743 -115.174 32.845C-116.262 32.3096 -117.016 31.0062 -116.067 29.9857C-115.973 29.8509 -114.273 30.5118 -114.01 30.5351C-113.382 30.6108 -112.527 30.6453 -112.003 30.1496C-111.148 29.264 -110.293 28.3784 -109.388 27.5074C-108.591 26.8211 -106.257 25.5036 -108.382 24.4474C-109.036 24.0934 -109.151 23.1938 -107.906 22.6391C-107.906 22.6391 -105.432 19.7391 -103.937 20.1775C-103.489 20.309 -99.1951 21.3518 -99.5884 20.4789C-99.8555 19.9136 -99.8555 19.9136 -102.787 18.8375C-103.171 18.6707 -103.317 18.2489 -103.622 17.9971C-104.077 17.7015 -104.739 17.5614 -105.237 17.4152C-107.972 16.7756 -107.09 17.0884 -107.958 15.8056C-108.826 14.5228 -109.923 14.2013 -114.77 12.8337C-119.668 11.4514 -121.365 10.4124 -122.868 11.1081C-124.371 11.8037 -124.013 12.6122 -126.554 11.8669C-129.095 11.1216 -136 9.20462 -136 9.20462ZM-117.628 43.0561C-117.672 43.2056 -117.73 43.4049 -117.774 43.5543C-117.891 43.953 -118.11 44.7004 -117.562 44.8611C-116.765 45.0949 -115.953 45.2789 -115.141 45.4629C-114.728 45.53 -114.338 45.8608 -113.966 45.6993C-113.122 45.4057 -112.633 44.8456 -111.643 44.9738C-111.229 45.0409 -110.192 45.5617 -109.966 44.9784C-109.893 44.7292 -109.462 42.1502 -109.773 41.7344C-110.55 40.6947 -113.465 41.409 -115.159 40.9121C-115.757 40.7368 -116.296 40.3621 -116.973 40.2718C-117.551 40.2107 -117.541 40.9169 -117.559 41.3447C-117.485 42.0157 -117.517 42.4934 -117.628 43.0561ZM-108.18 58.8139C-108.18 58.8139 -110.597 59.6743 -110.997 60.8555C-111.383 61.9869 -112.361 64.0272 -110.702 63.5395C-108.994 63.0664 -107.363 61.3802 -107.363 61.3802C-107.363 61.3802 -105.846 57.4964 -108.18 58.8139ZM-104.924 59.3359C-104.836 59.9571 -104.926 60.634 -104.952 61.2758C-105.024 62.4451 -105.95 63.2018 -106.781 63.8236C-107.534 64.3605 -108.544 65.0381 -107.753 66.028C-106.67 67.3194 -104.248 65.703 -102.739 65.1714C-101.538 64.7661 -101.671 63.3743 -102.035 62.4017C-102.461 61.0864 -103.08 59.8766 -103.164 58.4994C-103.211 57.1867 -103.81 56.0912 -104.265 54.8755C-104.609 54.0172 -105.444 54.0969 -106.123 55.3047C-106.708 56.3777 -106.086 57.2094 -105.564 58.0119C-105.253 58.4278 -105.006 58.8789 -104.924 59.3359ZM-88.5238 66.148C-90.4697 65.9561 -91.5831 66.0625 -93.2453 65.088C-94.1688 64.5466 -92.9166 61.9376 -93.9045 61.4314C-94.2241 61.2295 -94.6699 60.72 -95.0213 60.9957C-95.2292 61.1511 -95.2903 61.7285 -95.3634 61.9776C-95.4597 62.4905 -95.5261 63.8238 -96.3027 63.7043C-97.3431 63.5615 -96.7047 63.0453 -97.9163 64.9626C-99.128 66.8799 -101.534 67.1484 -102.348 67.3425C-103.163 67.5365 -104.551 68.2115 -106.245 67.7147C-107.925 67.168 -108.334 67.643 -107.267 68.9843C-106.44 70.0386 -106.612 71.1786 -106.863 72.4036C-106.863 72.4036 -106.863 72.4036 -106.877 72.4535C-106.974 72.9663 -107.236 74.7833 -108.027 74.7136C-108.968 74.6 -111.914 73.5738 -113.159 73.2084C-114.405 72.8431 -114.477 74.9325 -114.877 76.1137C-115.278 77.2949 -115.096 77.7812 -114.726 77.9977C-114.372 78.2641 -113.556 78.9902 -113.38 80.2325C-113.203 81.4749 -111.398 81.409 -109.733 82.0055C-108.068 82.602 -107.782 80.5213 -107.314 79.847C-106.846 79.1726 -107.312 78.5488 -105.603 78.9959C-103.945 79.4283 -103.025 78.5074 -102.461 77.3202C-101.881 76.0832 -100.986 77.6444 -99.0352 77.0803C-97.0841 76.5162 -95.3991 80.3653 -94.5015 81.5484C-94.0704 82.1078 -92.9615 83.6776 -93.1488 83.9473C-93.7022 84.5426 -96.0946 82.921 -95.7211 84.5998C-95.2593 86.8998 -93.9001 86.3244 -91.7709 84.7843C-89.6066 83.3087 -92.7969 80.5332 -93.3337 79.7806C-93.8559 78.9781 -95.2285 77.385 -93.6089 76.2908C-92.0039 75.2464 -90.2073 79.4529 -90.2073 79.4529C-89.2539 80.8148 -88.1849 83.9963 -88.2299 86.364C-88.2106 88.6965 -88.0199 88.9689 -86.1205 89.6883C-84.2211 90.4077 -84.9706 87.4281 -84.9773 86.3439C-85.0484 85.2949 -84.9754 85.0458 -83.7443 85.4609C-82.5133 85.8761 -82.5816 88.5076 -82.1471 89.609C-81.7125 90.7105 -79.461 92.0743 -78.3476 91.9679C-77.1843 91.8762 -76.7685 91.5653 -75.9233 93.1118C-75.0782 94.6584 -78.6809 96.7944 -79.5718 96.6955C-80.4627 96.5965 -82.2995 97.14 -83.9857 95.5091C-85.6573 93.8284 -86.0645 93.9254 -88.1898 92.8692C-90.3151 91.813 -90.3024 93.0613 -91.245 94.2459C-92.1877 95.4305 -92.9916 94.1124 -93.3145 93.3684C-93.6374 92.6243 -97.1885 89.4184 -98.3618 87.8838C-99.5351 86.3492 -98.9644 85.3261 -99.191 84.0692C-99.4176 82.8122 -101.454 83.2973 -101.855 83.5584C-102.256 83.8195 -103.716 83.4455 -105.061 83.051C-106.407 82.6564 -106.832 82.2612 -107.936 83.0737C-109.04 83.8862 -108.815 83.3029 -110.602 83.8611C-112.389 84.4192 -113.781 83.632 -116.061 83.288C-118.341 82.9439 -118.921 87.3193 -119.14 88.0667C-119.36 88.8141 -119.957 89.5589 -120.795 89.0965C-121.634 88.6342 -124.493 92.6655 -125.818 93.3054C-127.142 93.9452 -127.391 97.0105 -127.634 98.0216C-127.876 99.0328 -128.957 99.5816 -129.563 99.6201C-130.17 99.6587 -130.452 103.202 -131.099 103.932C-131.746 104.662 -129.016 106.058 -129.016 106.058C-128.87 106.479 -127.166 107.682 -126.461 109.891C-125.589 112.636 -124.05 112.925 -124.05 112.925C-124.05 112.925 -113.821 115.871 -111.479 116.558C-110.483 116.85 -109.638 117.477 -109.224 118.464C-108.86 119.437 -108.642 120.907 -109.468 121.693C-110.229 122.444 -110.946 123.965 -110.447 125.032C-110.18 125.597 -109.62 126.086 -109.224 126.581C-107.907 127.995 -108.572 132.292 -109.2 134.434C-109.61 135.829 -110.183 137.23 -110.991 138.509C-111.222 138.928 -111.503 139.332 -111.919 139.643C-112.493 140.124 -112.744 140.429 -112.899 141.141C-113.221 142.238 -113.771 143.375 -112.706 144.174C-112.047 144.692 -111.909 148.466 -111.909 148.466C-111.909 148.466 -111.366 157.5 -111.493 159.411C-111.621 161.322 -110.745 161.47 -110.196 161.631C-109.648 161.792 -109.08 162.067 -108.711 161.363C-108.357 160.71 -107.753 161.049 -107.753 161.049C-107.753 161.049 -107.184 161.324 -104.564 161.984C-101.894 162.659 -98.7878 159.079 -97.9501 158.621C-97.1124 158.163 -97.0041 157.979 -96.674 156.668C-96.3791 155.294 -96.1007 155.267 -94.776 155.548C-93.4015 155.843 -93.2793 154.688 -92.4696 152.112C-91.6598 149.535 -90.1305 149.118 -87.8253 147.9C-85.5201 146.682 -84.7053 139.291 -84.0218 136.407C-83.3383 133.523 -81.1002 132.719 -81.1002 132.719C-81.1002 132.719 -72.3411 125.548 -69.3829 123.764C-66.4246 121.98 -70.2373 121.511 -70.2373 121.511C-70.2373 121.511 -73.6049 120.631 -75.0911 119.979C-76.5919 119.377 -77.2862 115.656 -77.7852 114.589C-78.2842 113.523 -79.5897 111.517 -79.3772 109.685C-79.1647 107.854 -79.3448 106.069 -79.3448 106.069C-79.392 105.677 -80.5188 103.615 -80.1628 101.663C-79.3691 97.296 -78.7392 101.052 -78.7392 101.052C-78.7392 101.052 -78.4773 102.374 -76.7878 104.547C-75.1129 106.769 -75.5392 112.651 -75.1212 115.1C-74.7032 117.55 -74.8527 117.506 -71.5787 118.52C-68.3194 119.584 -62.4176 116.066 -60.8092 115.564C-59.2009 115.062 -59.3132 113.784 -59.5106 112.428C-59.7079 111.071 -60.927 110.984 -62.9879 109.893C-65.0633 108.851 -65.0216 105.941 -66.6493 104.111C-68.277 102.281 -66.4627 102.921 -65.1114 103.48C-63.7601 104.038 -63.8298 104.83 -63.3807 105.881C-62.9461 106.983 -61.9961 107.803 -59.7453 108.246C-57.5091 108.74 -56.3125 110.011 -56.0042 110.804C-55.6959 111.598 -54.3619 112.585 -54.3619 112.585C-54.3619 112.585 -50.6249 113.681 -50.3226 114.311C-50.0203 114.94 -50.664 116.213 -48.2956 117.178C-45.9272 118.143 -46.1488 123.327 -46.1488 123.327C-46.1488 123.327 -47.2633 129.71 -45.8761 131.253C-43.1867 134.26 -42.0317 127.186 -41.5023 125.934C-40.9729 124.683 -36.7012 123.771 -35.2303 123.553C-34.6092 123.465 -34.1847 122.94 -33.9595 122.356C-33.7928 121.972 -33.8287 120.988 -33.4421 120.777C-33.1345 120.65 -32.1525 120.992 -31.8682 121.13C-31.2497 121.42 -29.9077 121.272 -30.0179 122.755C-30.1282 124.238 -28.8459 126.508 -28.8459 126.508C-28.4585 127.216 -27.8486 127.72 -27.1451 128.089C-26.5266 128.378 -25.6417 128.313 -25.146 128.837C-24.4451 129.584 -25.4901 131.117 -25.7591 131.85C-25.9929 132.647 -26.426 133.386 -26.5748 134.262C-26.7382 135.189 -26.4093 136.097 -26.473 137.052C-26.4989 137.694 -26.56 138.271 -26.6855 138.884C-26.6855 138.884 -26.2501 144.964 -23.1995 145.263C-21.1539 145.484 -23.5777 141.202 -24.5842 139.283C-25.5908 137.365 -25.252 135.841 -24.1513 134.486C-23.0505 133.132 -22.3748 135.44 -20.6268 137.414C-18.8788 139.387 -19.5797 138.641 -17.1928 136.96C-14.8205 135.329 -15.6053 132.285 -15.9926 131.576C-16.38 130.867 -17.7951 127.205 -14.8269 127.048C-11.9084 126.876 -9.25901 127.436 -7.75559 127.661C-6.25217 127.885 -5.94863 126.297 -2.56326 123.61C0.822112 120.923 -0.213144 115.966 -0.698215 113.93C-1.2331 111.879 -1.16936 110.924 0.83691 109.618C2.84316 108.313 3.36748 111.875 3.36748 111.875C3.36748 111.875 4.11697 114.855 5.37935 117.931C6.64176 121.007 8.08393 117.75 8.66651 117.055C9.26371 116.31 8.2751 114.884 7.86381 113.519C7.45253 112.154 8.82569 110.608 9.21497 110.019C9.60425 109.43 13.753 108.753 15.0306 108.64C16.3081 108.528 18.0738 106.935 19.8142 102.846C21.5546 98.7571 21.1921 103.683 21.1921 103.683C21.1921 103.683 18.5504 113.244 17.9891 114.973C17.4278 116.703 17.3083 117.479 14.7712 118.196C12.2341 118.913 12.0727 118.541 10.8536 118.454C9.63452 118.367 9.11899 118.649 8.2156 121.36C7.31222 124.071 9.09593 122.971 9.4354 122.367C9.77484 121.763 10.8284 120.016 12.2295 120.589C13.6307 121.162 16.4049 120.19 18.0425 119.588C19.6801 118.986 19.8713 116.12 20.2745 114.561C20.6776 113.002 20.3966 113.407 21.7712 113.702C23.1457 113.996 22.6767 113.751 23.2413 112.563C23.806 111.376 23.2519 111.051 22.0208 110.636C20.7898 110.221 21.3897 109.098 21.3897 109.098C21.3897 109.098 23.4362 103.043 23.5611 101.51C23.6713 100.027 22.5411 97.4231 18.8307 96.6055C15.1203 95.7878 22.1124 92.4273 24.3824 91.145C26.6026 89.8481 27.946 91.5408 27.946 91.5408C27.946 91.5408 29.6966 93.1364 32.3613 94.5673C35.026 95.9982 34.3384 93.3614 35.1255 91.9689C35.9127 90.5764 36.983 91.5397 38.8572 93.821C40.7314 96.1022 35.4845 97.756 34.6734 98.4922C33.8623 99.2283 34.4709 101.95 35.1414 105.015C35.8118 108.079 36.5126 104.767 37.0188 103.78C37.4751 102.777 37.6531 101.801 38.9333 101.311C40.2134 100.82 40.0247 99.2499 40.6531 97.1074C41.2815 94.9649 42.6886 95.7022 45.0304 96.3891C47.3577 97.1257 47.905 96.3663 48.5554 96.1783C49.2058 95.9903 49.1406 95.1054 52.76 95.6799C56.3647 96.3042 51.7059 85.2517 51.298 84.4286C50.89 83.6055 40.5148 81.1578 38.0528 80.3275C35.5907 79.4972 36.158 77.932 35.8351 77.188C35.5122 76.4439 29.7357 75.2909 28.7039 74.9342C27.6722 74.5774 27.219 72.0636 26.3513 71.7009C25.4837 71.3382 24.8719 72.1328 23.7412 72.667C22.6105 73.2011 23.1658 71.3077 23.3 70.4813C23.4341 69.6548 22.9591 69.245 22.0502 68.6537C21.1414 68.0625 20.3669 70.7033 20.054 71.5856C19.7411 72.4678 11.8068 69.8161 10.2768 69.3133C8.74676 68.8104 8.74537 66.9702 8.97249 65.0888C9.19961 63.2074 7.04985 64.6331 7.04985 64.6331L3.20461 63.7218C3.20461 63.7218 -3.11472 61.652 -4.88189 61.4043C-6.59923 61.1712 -4.28274 59.3614 -3.07899 58.5781C-1.86061 57.7449 -5.52857 54.9376 -5.89532 54.343C-6.26207 53.7484 -9.76118 53.3174 -10.3857 52.8637C-10.9604 52.4246 -11.1371 51.1823 -11.4387 51.4726C-11.7403 51.763 -12.2963 52.7363 -13.2045 53.0651C-14.1126 53.394 -14.7517 52.9901 -15.7921 52.8474C-16.8325 52.7046 -16.3661 53.3284 -19.6958 52.1353C-23.0402 50.9922 -23.8473 53.1905 -25.2589 54.1293C-26.7204 55.0535 -28.485 54.4277 -29.3466 54.2291C-30.2229 54.0803 -30.4208 55.8621 -31.1263 56.7916C-31.8318 57.721 -32.7248 54.8617 -33.235 54.3874C-33.7307 53.8633 -34.1013 55.8649 -34.1013 55.8649C-34.1013 55.8649 -35.8462 61.6302 -36.2707 62.155C-36.6952 62.6799 -37.1273 57.1419 -36.7912 55.9959C-36.4053 54.8645 -36.6213 52.0956 -36.6891 51.5887C-36.7216 51.1462 -37.4099 51.6478 -38.3207 52.3547C-39.2314 53.0616 -39.3589 54.9723 -39.8737 56.1741C-40.3885 57.3759 -40.8961 56.5236 -42.8394 55.9537C-44.7826 55.3838 -45.3213 55.9292 -46.3378 56.4428C-47.3542 56.9564 -50.2355 55.8949 -51.9296 55.398C-53.6237 54.9012 -54.7484 55.5994 -56.5707 56.0931C-58.3929 56.5868 -57.5559 55.2089 -58.1579 53.5714C-58.7951 51.8693 -59.8161 54.0591 -60.6564 54.8948C-61.4968 55.7306 -63.6122 52.2422 -64.6712 50.6871C-65.7303 49.1319 -66.8257 49.7305 -67.5731 49.5113C-68.3205 49.2921 -69.2553 49.3426 -69.6725 47.8133C-70.0898 46.284 -72.2264 45.8198 -74.2493 44.4148C-76.2723 43.0098 -77.4521 44.4494 -80.0922 44.595C-82.7323 44.7407 -83.7394 45.9604 -83.7394 45.9604C-83.7394 45.9604 -83.7394 45.9604 -84.2835 47.2619C-84.8275 48.5634 -86.9102 49.5759 -88.3365 50.5645C-89.7628 51.5531 -91.785 51.0683 -93.0566 51.3447C-94.3281 51.6211 -94.6183 55.378 -94.9923 56.8376C-95.3516 58.2473 -92.7673 57.923 -91.2725 58.3614C-89.8276 58.7852 -90.9901 59.797 -91.3648 60.3365C-91.5959 60.7557 -92.3141 60.4368 -92.5513 60.692C-92.6157 60.7272 -92.6449 60.8268 -92.639 60.9909C-92.5858 61.5476 -92.1546 62.107 -92.0018 62.6929C-91.5081 64.5152 -90.3137 63.0257 -90.3137 63.0257C-90.3137 63.0257 -88.3134 61.5561 -86.4334 59.943C-84.7759 58.5352 -86.474 56.5761 -84.7462 55.2972C-83.2906 54.2089 -81.6298 53.3432 -80.0421 52.7266C-77.2884 51.6403 -77.2465 52.7889 -76.891 53.9754C-76.5356 55.1619 -80.8312 55.4172 -82.6726 57.6369C-84.5141 59.8565 -80.2803 59.2584 -81.9696 61.1439C-85.5383 65.5626 -86.4138 66.334 -88.5238 66.148ZM-49.9985 51.5813C-49.4617 52.334 -48.8604 53.0514 -48.1947 53.7337C-47.9894 53.9562 -47.048 54.9899 -47.1132 54.105C-47.1517 53.4985 -47.4394 52.8188 -47.6567 52.2681C-48.0912 51.1667 -47.8162 50.598 -47.4655 49.4021C-47.1148 48.2063 -44.4308 47.9112 -44.4308 47.9112C-35.0112 46.2367 -43.3567 46.2782 -44.5963 46.077C-45.7716 45.8405 -46.9614 45.6539 -47.6178 45.6778C-48.2741 45.7018 -50.0871 46.9017 -51.1294 48.057C-51.4456 48.3972 -51.4921 48.9246 -51.4595 49.3671C-51.3977 49.7099 -51.2715 50.0175 -51.031 50.3045C-50.6702 50.7349 -50.2596 51.18 -49.9985 51.5813ZM-82.559 148.579C-83.3529 148.887 -83.6564 150.476 -84.4808 153.102C-84.7 153.849 -85.3023 159.408 -83.5159 157.93C-83.5013 157.88 -81.1556 155.971 -80.7112 154.64C-80.2522 153.26 -78.697 152.201 -77.971 151.385C-77.2449 150.57 -77.1287 149.252 -77.4762 146.931C-77.8238 144.61 -79.9283 147.727 -79.9283 147.727C-80.388 148.187 -81.7652 148.271 -82.559 148.579ZM-27.5574 148.314C-27.0937 149.316 -26.6445 150.367 -26.1808 151.369C-25.9489 151.87 -25.717 152.371 -25.4851 152.872C-25.2034 153.387 -24.8221 153.932 -24.7689 154.489C-24.7157 155.046 -24.9701 155.729 -24.6884 156.244C-24.442 156.695 -23.8939 156.856 -23.4308 156.938C-21.473 157.458 -19.559 158.127 -17.5659 158.712C-6.10584 162.073 -14.5418 158.733 -15.0109 158.487C-15.4799 158.241 -16.5993 158.184 -17.3414 157.208C-18.0835 156.233 -22.4271 155.176 -22.4271 155.176C-22.4271 155.176 -23.9365 154.787 -23.3718 153.6C-22.8072 152.413 -23.4343 152.337 -24.4071 148.643C-25.3798 144.948 -25.9232 147.17 -28.0213 143.254C-30.1195 139.337 -29.182 142.967 -28.9348 144.339C-28.6876 145.71 -27.7953 147.649 -27.7953 147.649C-27.7541 147.878 -27.6631 148.121 -27.5574 148.314ZM-11.5299 154.367C-11.9191 154.957 -12.0945 155.555 -11.4202 156.023C-10.142 156.831 -10.2596 156.309 -8.6014 155.822C-8.30844 155.745 -7.4295 155.516 -7.37702 155.153C-7.33918 154.839 -7.98694 154.649 -8.19223 154.426C-8.38289 154.154 -8.55894 153.832 -8.85791 153.744C-9.24191 153.577 -9.64052 153.461 -10.0538 153.393C-10.5666 153.297 -10.8596 153.374 -11.126 153.728C-11.2841 153.898 -11.407 154.133 -11.5299 154.367ZM-15.789 152.469C-15.3406 152.6 -14.8424 152.747 -14.3355 152.679C-13.893 152.646 -13.5416 152.371 -13.1696 152.209C-12.49 151.921 -12.2442 151.452 -11.9984 150.983C-11.3049 149.726 -10.9807 148.251 -10.5862 146.906C-9.88474 144.514 -10.365 144.861 -10.4714 143.747C-10.5099 143.141 -12.394 143.292 -13.2523 143.635C-14.1106 143.979 -13.9897 145.042 -14.2441 145.725C-14.5072 146.622 -15.4479 146.508 -16.1773 146.782C-17.0854 147.11 -17.9584 147.504 -18.8313 147.897C-19.9474 148.381 -19.3341 149.427 -19.1693 150.341C-19.1281 150.57 -19.0517 150.863 -18.8963 151.071C-18.6351 151.472 -18.2013 151.653 -17.8173 151.82C-17.7675 151.835 -17.7675 151.835 -17.7177 151.849C-17.0845 152.089 -16.4368 152.279 -15.789 152.469ZM-4.53747 143.81C-4.40789 144.66 -4.1288 145.553 -3.88496 146.382C-3.75274 146.854 -3.39464 147.663 -2.77946 147.41C-1.98559 147.102 -1.88663 146.211 -1.69666 145.563C-1.25826 144.068 -0.465802 141.92 -0.756845 140.698C-1.0977 139.462 -2.11815 138.513 -2.57328 137.297C-2.952 136.375 -3.4795 136.328 -3.40853 133.319C-3.38742 130.295 -4.16123 133.856 -4.82217 135.556C-5.48313 137.256 -4.29784 139.118 -4.29784 139.118C-3.53179 140.75 -4.7468 142.125 -4.53747 143.81ZM3.62209 161.192C4.20539 161.417 4.69505 161.777 4.94753 162.393C5.27041 163.137 5.21529 163.878 5.42393 164.643C5.54156 165.164 5.76479 165.879 6.45636 165.92C7.11274 165.896 7.88602 165.473 8.19431 166.267C8.62885 167.368 9.09453 167.072 9.09453 167.072C9.33768 166.981 11.16 166.487 11.732 167.305C15.0293 172.114 13.9603 168.932 13.2733 167.215C12.5863 165.499 10.3951 162.638 9.5148 161.027C8.63448 159.416 5.77185 159.766 4.43515 159.158C3.09848 158.55 3.91225 157.435 3.41328 156.369C2.91429 155.303 -0.338302 155.323 -0.933586 154.77C-1.52884 154.216 -1.8338 153.964 -1.55615 153.018C-1.51231 152.868 -1.44594 151.535 -1.92626 151.881C-2.13418 152.037 -2.19527 152.614 -2.26834 152.863C-2.38524 153.262 -2.50215 153.66 -2.56924 154.073C-2.6974 155.064 -1.83311 154.885 -0.806651 155.997C0.234419 157.06 0.317542 158.437 0.25978 159.557C0.21066 160.462 1.27163 160.719 2.09808 160.853C2.61094 160.95 3.12382 161.046 3.62209 161.192ZM-0.459241 200.201C-0.693748 200.078 -1.1774 199.882 -1.36474 200.152C-1.55207 200.421 -1.10629 200.931 -1.17935 201.18C-1.29626 201.579 -1.76125 202.795 -0.59466 203.245C0.522117 203.681 0.926043 203.042 1.51127 201.969C1.61954 201.784 1.67802 201.585 1.63682 201.357C1.56039 201.064 1.22623 200.911 0.977111 200.838C0.742576 200.715 0.493422 200.642 0.209075 200.505C-0.0254318 200.382 -0.224706 200.324 -0.459241 200.201ZM-5.62394 167.625C-7.01309 167.38 -8.50718 167.862 -9.84315 168.174C-10.7075 168.353 -11.6508 168.618 -12.248 169.362C-12.7516 169.972 -13.0525 171.183 -13.3713 171.901C-13.7838 172.754 -15.8919 171.27 -16.8326 171.156C-17.7733 171.043 -17.7374 172.027 -18.124 172.239C-18.5605 172.435 -19.7039 171.721 -20.8087 171.614C-22.1274 171.497 -22.1725 173.865 -22.5206 174.683C-22.8686 175.501 -23.416 176.26 -23.8637 177.049C-24.73 178.526 -23.7394 178.654 -23.0591 179.287C-22.3788 179.919 -23.7984 181.992 -24.0143 183.282C-24.2009 184.471 -23.0276 186.006 -22.1978 186.682C-21.6377 187.171 -20.7967 187.255 -20.0991 187.46C-19.3019 187.694 -18.5193 187.978 -17.7134 187.997C-16.9076 188.017 -16.1842 187.58 -15.4049 187.322C-14.1892 186.867 -12.9907 186.839 -11.7742 187.304C-10.508 187.784 -9.30616 188.299 -8.02527 188.728C-7.32772 188.933 -6.05881 189.035 -6.12255 189.99C-6.16303 190.682 -6.46729 191.35 -6.5078 192.041C-6.61802 193.524 -5.52519 193.304 -4.37918 193.64C-3.23318 193.976 -3.44638 194.887 -3.39584 195.822C-3.32136 197.413 -2.24579 197.62 -0.950316 198C-0.0534317 198.263 0.843452 198.526 1.75495 198.74C3.34341 199.043 4.74312 197.776 4.74312 197.776C4.74312 197.776 7.80892 194.888 9.21463 193.785C10.6203 192.682 11.9396 189.66 12.6556 187.218C13.3717 184.777 10.9918 180.345 10.9918 180.345C10.9918 180.345 8.10893 173.385 7.56013 172.304C7.01133 171.223 7.81651 170.323 7.7952 169.288C7.82373 168.269 6.6233 169.594 5.70319 169.595C4.78308 169.595 4.2378 173.115 4.09167 173.613C3.94553 174.112 2.92841 173.705 2.58491 172.847C2.24139 171.989 1.84878 172.036 1.18307 171.353C0.517357 170.671 0.267545 169.678 0.562452 168.304C0.907173 166.944 -0.619472 166.983 -2.19929 166.465C-3.77914 165.948 -3.27753 166.636 -3.82489 167.396C-4.18495 167.885 -4.79751 167.76 -5.3104 167.663C-5.45986 167.619 -5.57413 167.64 -5.62394 167.625ZM19.2369 209.982L19.1725 210.017C18.4345 210.504 16.1472 212.214 17.0999 212.656C18.0027 213.083 19.0378 213.982 19.8257 213.509C20.6428 212.937 20.6189 212.281 22.6172 212.109C23.6164 212.024 25.1675 209.502 25.1675 209.502C25.1675 209.502 25.1608 208.418 24.7383 207.645C24.3715 207.05 22.6789 208.394 22.0989 208.711C21.1469 209.189 20.0893 209.474 19.2369 209.982ZM28.7496 207.252C29.4052 206.308 29.9773 207.125 30.1965 206.378C30.4157 205.63 28.6179 203.642 28.0605 202.775C26.931 201.091 27.5516 204.141 26.9982 204.736C26.316 205.402 26.2662 205.387 26.3373 206.436C26.3639 206.715 26.2623 207.984 26.4822 208.156C27.781 209.078 28.0793 208.246 28.7496 207.252Z"/>
</mask>
<path d="M-186.56 5.57754C-187.09 4.98895 -187.636 4.45019 -188.339 4.08151C-189.292 3.63977 -190.467 3.40331 -191.268 2.62739C-191.813 2.08864 -192.583 -0.0850609 -191.032 0.532046C-189.965 0.953193 -187.808 1.53174 -186.812 0.903894C-184.29 -0.683333 -183.254 5.19407 -180.951 5.27435C-179.718 5.3115 -179.03 3.88977 -178.039 4.93806C-177.423 5.6057 -176.83 6.53709 -176.487 7.3954C-175.982 8.62574 -176.691 9.01309 -177.895 8.87628C-178.985 8.71888 -180.002 8.31235 -181.099 7.99086C-182.095 7.69859 -183.121 7.50597 -184.147 7.31336C-185.172 7.12075 -185.859 6.32423 -186.56 5.57754ZM-173.171 2.36153C-173.171 2.36153 -173.295 4.81429 -172.585 5.34706C-171.925 5.86522 -171.644 6.38074 -170.839 5.48052C-170.048 4.63012 -171.063 3.84558 -171.676 2.79993C-172.289 1.75428 -173.064 -0.583511 -173.171 2.36153ZM-180.753 14.7479C-181.994 13.6265 -181.019 12.8844 -181.035 11.094C-181.051 9.3036 -182.579 10.641 -184.477 11.7618C-186.375 12.8826 -186.987 9.61875 -187.515 8.65216C-188.044 7.68556 -187.302 7.74067 -191.037 6.26666C-194.706 4.75743 -194.378 4.74546 -196.642 6.19183C-198.906 7.63821 -195.621 8.06058 -193.502 8.9527C-191.383 9.84482 -191.713 11.1549 -192.306 12.4418C-192.9 13.7286 -196.746 11.8972 -200.402 10.3382C-204.057 8.77911 -203.957 9.72845 -206.148 10.0056C-208.34 10.2827 -211.768 6.84222 -213.301 5.79728C-214.835 4.75233 -226.599 2.0596 -228.293 1.56275C-229.987 1.0659 -231.314 2.08373 -232.785 2.3017C-234.256 2.51967 -234.394 5.02225 -234.766 6.10382C-235.137 7.18539 -237.336 5.45819 -238.631 5.07824C-239.927 4.6983 -239.797 5.54798 -240.175 6.46546C-240.552 7.38293 -240.033 7.64333 -238.459 7.99669C-236.885 8.35006 -236.311 8.78916 -236.568 9.85013C-236.825 10.9111 -238.707 9.76386 -239.953 9.39852C-241.198 9.03319 -241.343 11.3717 -241.635 13.2883C-241.926 15.205 -240.643 15.2567 -240.091 15.9596C-239.54 16.6624 -238.748 17.6523 -245.358 18.4192C-251.968 19.1862 -245.966 19.7559 -244.853 19.6496C-243.74 19.5432 -238.96 19.4839 -237.665 19.8638C-236.369 20.2438 -233.938 19.3335 -231.884 18.4206C-229.831 17.5077 -224.889 19.6606 -221.216 20.7919C-217.544 21.9231 -216.722 30.9302 -215.294 32.7019C-213.865 34.4737 -216.633 44.6469 -217.559 47.6219C-218.486 50.5968 -216.893 53.2827 -216.174 54.5217C-215.455 55.7606 -214.606 61.9078 -212.982 66.3342C-211.373 70.8105 -211.26 65.8113 -211.443 63.4848C-211.612 61.1084 -210.637 63.5047 -210.637 63.5047C-210.637 63.5047 -207.462 70.3884 -207.26 73.2073C-207.059 76.026 -203.601 79.3669 -200.919 80.3699C-198.237 81.373 -198.506 82.1057 -198.506 82.1057C-198.506 82.1057 -198.963 83.1083 -195.791 84.4714C-192.669 85.8198 -193.963 88.2002 -192.91 89.5913C-191.857 90.9824 -190.071 92.6425 -188.227 93.1832C-186.384 93.7239 -186.973 93.3346 -187.033 94.8321C-187.094 96.3295 -188.944 97.8429 -190.183 98.5618C-191.422 99.2807 -192.194 101.543 -192.983 104.234C-193.773 106.925 -192.887 107.78 -192.887 107.78C-192.887 107.78 -189.925 118.713 -188.828 119.955C-187.731 121.197 -188.456 122.932 -188.456 122.932C-188.456 122.932 -192.46 136.584 -192.817 137.616C-193.174 138.648 -193.274 138.619 -194.536 139.601C-195.798 140.584 -196.452 143.368 -196.452 143.368C-196.452 143.368 -200.153 155.432 -200.416 156.329C-200.679 157.226 -199.62 158.781 -195.802 162.552C-191.984 166.324 -194.205 161.722 -194.455 160.729C-194.705 159.735 -193.713 157.645 -193.231 156.001C-192.749 154.357 -191.105 153.919 -190.265 153.083C-189.424 152.247 -189.703 151.354 -189.192 149.61C-188.681 147.866 -186.474 147.539 -186.474 147.539C-186.474 147.539 -172.626 139.804 -171.486 139.056C-170.347 138.308 -169.628 136.409 -169.406 135.283C-169.184 134.158 -164.96 131.933 -162.722 131.129C-160.484 130.324 -157.928 126.961 -157.58 126.143C-157.232 125.325 -156.612 123.397 -155.089 122.815C-153.566 122.234 -153.017 120.177 -151.89 118.18C-150.763 116.184 -154.676 114.766 -156.615 112.52C-158.554 110.273 -162.209 108.714 -162.508 108.627C-162.807 108.539 -164.559 108.242 -164.094 107.025C-163.629 105.809 -164.047 103.359 -164.338 102.138C-164.629 100.916 -165.591 100.688 -166.737 100.352C-167.883 100.016 -170.421 95.7541 -171.623 94.3192C-172.826 92.8843 -176.099 92.7901 -177.931 91.6574C-179.764 90.5248 -178.767 90.8171 -180.415 89.7927C-182.062 88.7684 -183.64 91.0113 -184.56 91.012C-185.48 91.0127 -188.191 90.1093 -189.144 89.6675C-190.097 89.2258 -190.333 87.2627 -190.114 85.5952C-189.896 83.9277 -190.239 83.0693 -191.365 81.9274C-192.492 80.7854 -192.194 79.0329 -191.694 77.8809C-191.194 76.7289 -192.011 76.3808 -192.993 76.0387C-193.975 75.6966 -194.042 76.1098 -194.54 76.8838C-195.037 77.6578 -195.952 77.8226 -197.992 76.8455C-200.017 75.8185 -200.169 73.0143 -199.819 70.8983C-199.469 68.7824 -199.083 67.651 -197.337 66.8643C-195.591 66.0777 -195.383 66.8423 -193.577 67.6966C-191.771 68.5509 -190.169 67.8844 -188.543 66.9543C-186.918 66.0241 -186.066 68.6549 -186.066 68.6549C-186.066 68.6549 -186.066 68.6549 -184.958 72.4429C-183.851 76.231 -183.15 72.9192 -182.742 69.6838C-182.334 66.4485 -169.939 59.4238 -168.085 58.4525C-166.23 57.4811 -166.555 58.0352 -164.005 58.5665C-161.456 59.0979 -159.764 56.8344 -158.012 56.2119C-156.26 55.5893 -159.613 54.66 -160.874 53.4244C-162.135 52.1888 -159.585 52.7201 -158.557 52.5347C-157.528 52.3493 -155.562 52.6555 -153.114 53.5357C-150.667 54.4158 -154.273 43.8343 -155.028 42.5309C-155.782 41.2275 -155.044 39.8204 -155.119 38.2293C-155.193 36.6382 -157.589 38.533 -159.287 39.7123C-160.986 40.8916 -160.483 39.3616 -160.006 38.4733C-159.529 37.5851 -160.234 36.2963 -160.302 34.8693C-160.371 33.4423 -163.676 32.9056 -164.808 32.5197C-165.939 32.1338 -165.769 32.2919 -166.688 34.1328C-167.607 35.9737 -167.424 37.3801 -167.601 39.2762C-167.778 41.1722 -170.487 43.0292 -171.999 43.9387C-173.51 44.8483 -173.371 43.2658 -173.055 42.0055C-172.74 40.7453 -173.396 40.7692 -174.733 40.1607C-176.069 39.5523 -176.154 39.4732 -176.323 38.017C-176.491 36.5607 -178.013 34.9239 -179.728 34.3127C-181.442 33.7016 -180.003 30.823 -179.558 29.4923C-179.099 28.1117 -176.494 28.8218 -175.574 28.8211C-174.654 28.8204 -172.995 28.3327 -172.068 30.3363C-171.126 32.2901 -169.327 31.14 -169.327 31.14C-169.327 31.14 -166.703 30.1241 -166.41 29.1276C-166.118 28.1311 -166.654 28.2985 -167.999 27.904C-169.345 27.5094 -169.544 27.451 -169.208 26.3049C-168.872 25.1589 -168.843 25.0593 -166.436 25.7109C-164.03 26.3625 -164.483 23.8487 -163.03 23.1384C-161.578 22.4282 -160.715 23.5469 -161.543 25.631C-162.371 27.715 -159.397 26.8014 -158.163 27.7587C-156.928 28.716 -157.781 29.2236 -159.049 29.122C-160.318 29.0204 -159.638 29.6528 -159.669 31.0506C-159.7 32.4484 -159.748 32.0557 -156.048 33.4653C-152.349 34.8749 -155.018 31.9818 -155.15 31.5101C-155.283 31.0384 -156.136 29.7058 -152.757 30.9134C-149.377 32.1211 -150.701 28.7024 -150.701 28.7024C-150.701 28.7024 -151.88 23.8654 -154.314 22.0153C-156.747 20.1652 -156.014 20.4342 -156.933 18.2167C-157.852 15.9992 -163.631 15.2241 -165.246 14.6422C-166.861 14.0603 -167.083 15.1857 -168.237 15.9837C-169.341 16.7962 -167.655 18.4271 -168.435 21.8239C-169.215 25.2207 -170.545 21.638 -170.545 21.638C-170.545 21.638 -171.317 19.8423 -171.485 18.3861C-171.653 16.9298 -171.648 16.1738 -170.573 15.4609C-169.498 14.748 -168.843 13.804 -169.873 11.229C-170.904 8.65409 -172.015 7.4623 -172.683 7.15806C-173.352 6.85382 -173.562 8.30741 -173.813 9.53247C-174.064 10.7575 -173.308 10.7628 -172.665 11.7088C-172.073 12.6402 -172.801 13.8334 -173.395 15.1202C-173.989 16.4071 -173.761 15.4458 -174.408 13.0376C-175.054 10.6294 -176.173 11.4917 -177.678 12.5654C-179.184 13.639 -176.443 15.3629 -177.074 17.8834C-177.705 20.404 -178.501 17.9519 -178.501 17.9519C-178.501 17.9519 -179.513 15.8692 -180.753 14.7479ZM-240.197 49.5322C-240.197 49.5322 -240.694 55.2847 -239.226 55.4448C-236.289 55.7649 -237.856 53.3574 -239.45 49.7514C-239.562 49.394 -240.131 48.1988 -240.197 49.5322ZM-183.922 79.2405C-183.652 79.4278 -183.367 79.5653 -183.162 79.7878C-182.837 80.1539 -182.669 80.69 -182.265 80.971C-181.74 81.3955 -180.369 81.1483 -179.727 81.1742C-177.01 81.3215 -183.144 77.1418 -184.252 76.4921C-185.36 75.8424 -185.636 75.491 -188.677 75.8977C-191.718 76.3044 -186.765 77.8654 -186.765 77.8654C-185.762 78.3217 -184.795 78.7137 -183.922 79.2405ZM-178.331 82.5035C-178.419 82.8024 -178.506 83.1014 -178.471 83.1658C-178.383 83.787 -177.627 83.7923 -177.128 83.9384C-176.68 84.0699 -173.846 84.7388 -174.995 83.8606C-175.705 83.3278 -176.391 82.5313 -177.2 81.9693C-178.364 81.1409 -178.156 81.9055 -178.331 82.5035ZM-168.786 7.70598C-168.635 8.66993 -167.994 8.69581 -167.568 9.09108C-167.143 9.48634 -167.169 10.1281 -167.443 11.6169C-167.718 13.1057 -162.973 13.902 -159.819 14.7729C-156.666 15.6437 -158.226 13.4003 -162.242 12.3308C-164 11.8692 -164.112 11.5118 -164.332 10.419C-164.553 9.32612 -165.336 9.04248 -166.35 8.25794C-167.365 7.47339 -167.09 6.9047 -167.85 5.4372C-168.891 3.45418 -168.986 6.72741 -168.986 6.72741C-168.986 6.72741 -168.936 6.74202 -168.786 7.70598ZM-156.607 12.306C-154.365 12.9636 -151.976 9.9846 -151.715 9.46574C-151.455 8.94687 -149.832 8.39473 -148.038 8.92081C-146.244 9.44689 -145.298 9.72455 -144.223 9.01166C-143.148 8.29877 -144.127 8.49878 -141.346 8.61093C-138.565 8.72309 -138.381 7.91125 -138.138 6.90011C-137.896 5.88897 -142.096 4.71127 -143.256 4.42499C-144.417 4.13871 -144.522 4.86551 -146.001 5.2974C-147.481 5.72929 -154.785 2.77527 -157.163 2.024C-157.412 1.95094 -157.661 1.87787 -157.889 1.91907C-157.722 2.45519 -156.705 2.86172 -156.315 3.19255C-155.74 3.63165 -155.537 4.23221 -155.092 4.74174C-154.631 5.20144 -153.998 5.44124 -153.415 5.66643C-147.327 8.15546 -152.321 7.28605 -152.833 7.18975C-153.346 7.09344 -154.056 6.56067 -154.585 7.81231C-155.115 9.06396 -156.569 7.93397 -157.431 7.73537C-158.292 7.53677 -157.95 7.47497 -157.482 5.88053C-157.014 4.28608 -160.789 3.50365 -162.398 3.08585C-164.007 2.66805 -163.754 4.20334 -164.307 5.71873C-164.859 7.23412 -164.446 7.3012 -162.846 7.93292C-161.295 8.55003 -161.96 8.78789 -162.038 9.79305C-162.117 10.7982 -159.582 11.3794 -159.582 11.3794C-159.582 11.3794 -158.849 11.6484 -156.607 12.306ZM-136 9.20462C-136 9.20462 -137.328 8.38222 -138.383 9.20938C-139.437 10.0365 -138.669 10.37 -140.427 9.90836C-142.186 9.44672 -142.115 9.5756 -142.821 10.505C-143.526 11.4345 -144.666 12.1826 -145.911 11.8173C-147.157 11.4519 -149.019 10.4189 -149.097 11.4241C-149.19 12.4791 -148.241 15.5171 -147.409 15.8153C-146.576 16.1136 -139.217 17.4061 -139.303 20.4654C-139.403 23.5745 -142.002 28.0071 -140.89 29.1989C-139.779 30.3907 -140.654 31.162 -141.176 31.2796C-141.697 31.3973 -142.234 30.6446 -142.658 32.0895C-143.082 33.5345 -142.443 33.0183 -141.997 34.4479C-141.55 35.8776 -141.02 35.546 -141.546 37.3398C-142.072 39.1335 -142.476 39.7727 -141.189 40.3665C-139.903 40.9604 -139.078 42.3927 -139.069 43.0989C-139.059 43.8051 -137.539 43.6017 -136.956 42.9068C-136.373 42.2119 -130.587 37.7944 -129.312 38.0601C-128.037 38.3258 -125.938 39.1036 -125.567 38.022C-125.195 36.9405 -125.425 35.1414 -123.866 35.5446C-122.307 35.9478 -119.382 36.8598 -117.663 35.7948C-115.943 34.7298 -112.8 33.9743 -115.174 32.845C-116.262 32.3096 -117.016 31.0062 -116.067 29.9857C-115.973 29.8509 -114.273 30.5118 -114.01 30.5351C-113.382 30.6108 -112.527 30.6453 -112.003 30.1496C-111.148 29.264 -110.293 28.3784 -109.388 27.5074C-108.591 26.8211 -106.257 25.5036 -108.382 24.4474C-109.036 24.0934 -109.151 23.1938 -107.906 22.6391C-107.906 22.6391 -105.432 19.7391 -103.937 20.1775C-103.489 20.309 -99.1951 21.3518 -99.5884 20.4789C-99.8555 19.9136 -99.8555 19.9136 -102.787 18.8375C-103.171 18.6707 -103.317 18.2489 -103.622 17.9971C-104.077 17.7015 -104.739 17.5614 -105.237 17.4152C-107.972 16.7756 -107.09 17.0884 -107.958 15.8056C-108.826 14.5228 -109.923 14.2013 -114.77 12.8337C-119.668 11.4514 -121.365 10.4124 -122.868 11.1081C-124.371 11.8037 -124.013 12.6122 -126.554 11.8669C-129.095 11.1216 -136 9.20462 -136 9.20462ZM-117.628 43.0561C-117.672 43.2056 -117.73 43.4049 -117.774 43.5543C-117.891 43.953 -118.11 44.7004 -117.562 44.8611C-116.765 45.0949 -115.953 45.2789 -115.141 45.4629C-114.728 45.53 -114.338 45.8608 -113.966 45.6993C-113.122 45.4057 -112.633 44.8456 -111.643 44.9738C-111.229 45.0409 -110.192 45.5617 -109.966 44.9784C-109.893 44.7292 -109.462 42.1502 -109.773 41.7344C-110.55 40.6947 -113.465 41.409 -115.159 40.9121C-115.757 40.7368 -116.296 40.3621 -116.973 40.2718C-117.551 40.2107 -117.541 40.9169 -117.559 41.3447C-117.485 42.0157 -117.517 42.4934 -117.628 43.0561ZM-108.18 58.8139C-108.18 58.8139 -110.597 59.6743 -110.997 60.8555C-111.383 61.9869 -112.361 64.0272 -110.702 63.5395C-108.994 63.0664 -107.363 61.3802 -107.363 61.3802C-107.363 61.3802 -105.846 57.4964 -108.18 58.8139ZM-104.924 59.3359C-104.836 59.9571 -104.926 60.634 -104.952 61.2758C-105.024 62.4451 -105.95 63.2018 -106.781 63.8236C-107.534 64.3605 -108.544 65.0381 -107.753 66.028C-106.67 67.3194 -104.248 65.703 -102.739 65.1714C-101.538 64.7661 -101.671 63.3743 -102.035 62.4017C-102.461 61.0864 -103.08 59.8766 -103.164 58.4994C-103.211 57.1867 -103.81 56.0912 -104.265 54.8755C-104.609 54.0172 -105.444 54.0969 -106.123 55.3047C-106.708 56.3777 -106.086 57.2094 -105.564 58.0119C-105.253 58.4278 -105.006 58.8789 -104.924 59.3359ZM-88.5238 66.148C-90.4697 65.9561 -91.5831 66.0625 -93.2453 65.088C-94.1688 64.5466 -92.9166 61.9376 -93.9045 61.4314C-94.2241 61.2295 -94.6699 60.72 -95.0213 60.9957C-95.2292 61.1511 -95.2903 61.7285 -95.3634 61.9776C-95.4597 62.4905 -95.5261 63.8238 -96.3027 63.7043C-97.3431 63.5615 -96.7047 63.0453 -97.9163 64.9626C-99.128 66.8799 -101.534 67.1484 -102.348 67.3425C-103.163 67.5365 -104.551 68.2115 -106.245 67.7147C-107.925 67.168 -108.334 67.643 -107.267 68.9843C-106.44 70.0386 -106.612 71.1786 -106.863 72.4036C-106.863 72.4036 -106.863 72.4036 -106.877 72.4535C-106.974 72.9663 -107.236 74.7833 -108.027 74.7136C-108.968 74.6 -111.914 73.5738 -113.159 73.2084C-114.405 72.8431 -114.477 74.9325 -114.877 76.1137C-115.278 77.2949 -115.096 77.7812 -114.726 77.9977C-114.372 78.2641 -113.556 78.9902 -113.38 80.2325C-113.203 81.4749 -111.398 81.409 -109.733 82.0055C-108.068 82.602 -107.782 80.5213 -107.314 79.847C-106.846 79.1726 -107.312 78.5488 -105.603 78.9959C-103.945 79.4283 -103.025 78.5074 -102.461 77.3202C-101.881 76.0832 -100.986 77.6444 -99.0352 77.0803C-97.0841 76.5162 -95.3991 80.3653 -94.5015 81.5484C-94.0704 82.1078 -92.9615 83.6776 -93.1488 83.9473C-93.7022 84.5426 -96.0946 82.921 -95.7211 84.5998C-95.2593 86.8998 -93.9001 86.3244 -91.7709 84.7843C-89.6066 83.3087 -92.7969 80.5332 -93.3337 79.7806C-93.8559 78.9781 -95.2285 77.385 -93.6089 76.2908C-92.0039 75.2464 -90.2073 79.4529 -90.2073 79.4529C-89.2539 80.8148 -88.1849 83.9963 -88.2299 86.364C-88.2106 88.6965 -88.0199 88.9689 -86.1205 89.6883C-84.2211 90.4077 -84.9706 87.4281 -84.9773 86.3439C-85.0484 85.2949 -84.9754 85.0458 -83.7443 85.4609C-82.5133 85.8761 -82.5816 88.5076 -82.1471 89.609C-81.7125 90.7105 -79.461 92.0743 -78.3476 91.9679C-77.1843 91.8762 -76.7685 91.5653 -75.9233 93.1118C-75.0782 94.6584 -78.6809 96.7944 -79.5718 96.6955C-80.4627 96.5965 -82.2995 97.14 -83.9857 95.5091C-85.6573 93.8284 -86.0645 93.9254 -88.1898 92.8692C-90.3151 91.813 -90.3024 93.0613 -91.245 94.2459C-92.1877 95.4305 -92.9916 94.1124 -93.3145 93.3684C-93.6374 92.6243 -97.1885 89.4184 -98.3618 87.8838C-99.5351 86.3492 -98.9644 85.3261 -99.191 84.0692C-99.4176 82.8122 -101.454 83.2973 -101.855 83.5584C-102.256 83.8195 -103.716 83.4455 -105.061 83.051C-106.407 82.6564 -106.832 82.2612 -107.936 83.0737C-109.04 83.8862 -108.815 83.3029 -110.602 83.8611C-112.389 84.4192 -113.781 83.632 -116.061 83.288C-118.341 82.9439 -118.921 87.3193 -119.14 88.0667C-119.36 88.8141 -119.957 89.5589 -120.795 89.0965C-121.634 88.6342 -124.493 92.6655 -125.818 93.3054C-127.142 93.9452 -127.391 97.0105 -127.634 98.0216C-127.876 99.0328 -128.957 99.5816 -129.563 99.6201C-130.17 99.6587 -130.452 103.202 -131.099 103.932C-131.746 104.662 -129.016 106.058 -129.016 106.058C-128.87 106.479 -127.166 107.682 -126.461 109.891C-125.589 112.636 -124.05 112.925 -124.05 112.925C-124.05 112.925 -113.821 115.871 -111.479 116.558C-110.483 116.85 -109.638 117.477 -109.224 118.464C-108.86 119.437 -108.642 120.907 -109.468 121.693C-110.229 122.444 -110.946 123.965 -110.447 125.032C-110.18 125.597 -109.62 126.086 -109.224 126.581C-107.907 127.995 -108.572 132.292 -109.2 134.434C-109.61 135.829 -110.183 137.23 -110.991 138.509C-111.222 138.928 -111.503 139.332 -111.919 139.643C-112.493 140.124 -112.744 140.429 -112.899 141.141C-113.221 142.238 -113.771 143.375 -112.706 144.174C-112.047 144.692 -111.909 148.466 -111.909 148.466C-111.909 148.466 -111.366 157.5 -111.493 159.411C-111.621 161.322 -110.745 161.47 -110.196 161.631C-109.648 161.792 -109.08 162.067 -108.711 161.363C-108.357 160.71 -107.753 161.049 -107.753 161.049C-107.753 161.049 -107.184 161.324 -104.564 161.984C-101.894 162.659 -98.7878 159.079 -97.9501 158.621C-97.1124 158.163 -97.0041 157.979 -96.674 156.668C-96.3791 155.294 -96.1007 155.267 -94.776 155.548C-93.4015 155.843 -93.2793 154.688 -92.4696 152.112C-91.6598 149.535 -90.1305 149.118 -87.8253 147.9C-85.5201 146.682 -84.7053 139.291 -84.0218 136.407C-83.3383 133.523 -81.1002 132.719 -81.1002 132.719C-81.1002 132.719 -72.3411 125.548 -69.3829 123.764C-66.4246 121.98 -70.2373 121.511 -70.2373 121.511C-70.2373 121.511 -73.6049 120.631 -75.0911 119.979C-76.5919 119.377 -77.2862 115.656 -77.7852 114.589C-78.2842 113.523 -79.5897 111.517 -79.3772 109.685C-79.1647 107.854 -79.3448 106.069 -79.3448 106.069C-79.392 105.677 -80.5188 103.615 -80.1628 101.663C-79.3691 97.296 -78.7392 101.052 -78.7392 101.052C-78.7392 101.052 -78.4773 102.374 -76.7878 104.547C-75.1129 106.769 -75.5392 112.651 -75.1212 115.1C-74.7032 117.55 -74.8527 117.506 -71.5787 118.52C-68.3194 119.584 -62.4176 116.066 -60.8092 115.564C-59.2009 115.062 -59.3132 113.784 -59.5106 112.428C-59.7079 111.071 -60.927 110.984 -62.9879 109.893C-65.0633 108.851 -65.0216 105.941 -66.6493 104.111C-68.277 102.281 -66.4627 102.921 -65.1114 103.48C-63.7601 104.038 -63.8298 104.83 -63.3807 105.881C-62.9461 106.983 -61.9961 107.803 -59.7453 108.246C-57.5091 108.74 -56.3125 110.011 -56.0042 110.804C-55.6959 111.598 -54.3619 112.585 -54.3619 112.585C-54.3619 112.585 -50.6249 113.681 -50.3226 114.311C-50.0203 114.94 -50.664 116.213 -48.2956 117.178C-45.9272 118.143 -46.1488 123.327 -46.1488 123.327C-46.1488 123.327 -47.2633 129.71 -45.8761 131.253C-43.1867 134.26 -42.0317 127.186 -41.5023 125.934C-40.9729 124.683 -36.7012 123.771 -35.2303 123.553C-34.6092 123.465 -34.1847 122.94 -33.9595 122.356C-33.7928 121.972 -33.8287 120.988 -33.4421 120.777C-33.1345 120.65 -32.1525 120.992 -31.8682 121.13C-31.2497 121.42 -29.9077 121.272 -30.0179 122.755C-30.1282 124.238 -28.8459 126.508 -28.8459 126.508C-28.4585 127.216 -27.8486 127.72 -27.1451 128.089C-26.5266 128.378 -25.6417 128.313 -25.146 128.837C-24.4451 129.584 -25.4901 131.117 -25.7591 131.85C-25.9929 132.647 -26.426 133.386 -26.5748 134.262C-26.7382 135.189 -26.4093 136.097 -26.473 137.052C-26.4989 137.694 -26.56 138.271 -26.6855 138.884C-26.6855 138.884 -26.2501 144.964 -23.1995 145.263C-21.1539 145.484 -23.5777 141.202 -24.5842 139.283C-25.5908 137.365 -25.252 135.841 -24.1513 134.486C-23.0505 133.132 -22.3748 135.44 -20.6268 137.414C-18.8788 139.387 -19.5797 138.641 -17.1928 136.96C-14.8205 135.329 -15.6053 132.285 -15.9926 131.576C-16.38 130.867 -17.7951 127.205 -14.8269 127.048C-11.9084 126.876 -9.25901 127.436 -7.75559 127.661C-6.25217 127.885 -5.94863 126.297 -2.56326 123.61C0.822112 120.923 -0.213144 115.966 -0.698215 113.93C-1.2331 111.879 -1.16936 110.924 0.83691 109.618C2.84316 108.313 3.36748 111.875 3.36748 111.875C3.36748 111.875 4.11697 114.855 5.37935 117.931C6.64176 121.007 8.08393 117.75 8.66651 117.055C9.26371 116.31 8.2751 114.884 7.86381 113.519C7.45253 112.154 8.82569 110.608 9.21497 110.019C9.60425 109.43 13.753 108.753 15.0306 108.64C16.3081 108.528 18.0738 106.935 19.8142 102.846C21.5546 98.7571 21.1921 103.683 21.1921 103.683C21.1921 103.683 18.5504 113.244 17.9891 114.973C17.4278 116.703 17.3083 117.479 14.7712 118.196C12.2341 118.913 12.0727 118.541 10.8536 118.454C9.63452 118.367 9.11899 118.649 8.2156 121.36C7.31222 124.071 9.09593 122.971 9.4354 122.367C9.77484 121.763 10.8284 120.016 12.2295 120.589C13.6307 121.162 16.4049 120.19 18.0425 119.588C19.6801 118.986 19.8713 116.12 20.2745 114.561C20.6776 113.002 20.3966 113.407 21.7712 113.702C23.1457 113.996 22.6767 113.751 23.2413 112.563C23.806 111.376 23.2519 111.051 22.0208 110.636C20.7898 110.221 21.3897 109.098 21.3897 109.098C21.3897 109.098 23.4362 103.043 23.5611 101.51C23.6713 100.027 22.5411 97.4231 18.8307 96.6055C15.1203 95.7878 22.1124 92.4273 24.3824 91.145C26.6026 89.8481 27.946 91.5408 27.946 91.5408C27.946 91.5408 29.6966 93.1364 32.3613 94.5673C35.026 95.9982 34.3384 93.3614 35.1255 91.9689C35.9127 90.5764 36.983 91.5397 38.8572 93.821C40.7314 96.1022 35.4845 97.756 34.6734 98.4922C33.8623 99.2283 34.4709 101.95 35.1414 105.015C35.8118 108.079 36.5126 104.767 37.0188 103.78C37.4751 102.777 37.6531 101.801 38.9333 101.311C40.2134 100.82 40.0247 99.2499 40.6531 97.1074C41.2815 94.9649 42.6886 95.7022 45.0304 96.3891C47.3577 97.1257 47.905 96.3663 48.5554 96.1783C49.2058 95.9903 49.1406 95.1054 52.76 95.6799C56.3647 96.3042 51.7059 85.2517 51.298 84.4286C50.89 83.6055 40.5148 81.1578 38.0528 80.3275C35.5907 79.4972 36.158 77.932 35.8351 77.188C35.5122 76.4439 29.7357 75.2909 28.7039 74.9342C27.6722 74.5774 27.219 72.0636 26.3513 71.7009C25.4837 71.3382 24.8719 72.1328 23.7412 72.667C22.6105 73.2011 23.1658 71.3077 23.3 70.4813C23.4341 69.6548 22.9591 69.245 22.0502 68.6537C21.1414 68.0625 20.3669 70.7033 20.054 71.5856C19.7411 72.4678 11.8068 69.8161 10.2768 69.3133C8.74676 68.8104 8.74537 66.9702 8.97249 65.0888C9.19961 63.2074 7.04985 64.6331 7.04985 64.6331L3.20461 63.7218C3.20461 63.7218 -3.11472 61.652 -4.88189 61.4043C-6.59923 61.1712 -4.28274 59.3614 -3.07899 58.5781C-1.86061 57.7449 -5.52857 54.9376 -5.89532 54.343C-6.26207 53.7484 -9.76118 53.3174 -10.3857 52.8637C-10.9604 52.4246 -11.1371 51.1823 -11.4387 51.4726C-11.7403 51.763 -12.2963 52.7363 -13.2045 53.0651C-14.1126 53.394 -14.7517 52.9901 -15.7921 52.8474C-16.8325 52.7046 -16.3661 53.3284 -19.6958 52.1353C-23.0402 50.9922 -23.8473 53.1905 -25.2589 54.1293C-26.7204 55.0535 -28.485 54.4277 -29.3466 54.2291C-30.2229 54.0803 -30.4208 55.8621 -31.1263 56.7916C-31.8318 57.721 -32.7248 54.8617 -33.235 54.3874C-33.7307 53.8633 -34.1013 55.8649 -34.1013 55.8649C-34.1013 55.8649 -35.8462 61.6302 -36.2707 62.155C-36.6952 62.6799 -37.1273 57.1419 -36.7912 55.9959C-36.4053 54.8645 -36.6213 52.0956 -36.6891 51.5887C-36.7216 51.1462 -37.4099 51.6478 -38.3207 52.3547C-39.2314 53.0616 -39.3589 54.9723 -39.8737 56.1741C-40.3885 57.3759 -40.8961 56.5236 -42.8394 55.9537C-44.7826 55.3838 -45.3213 55.9292 -46.3378 56.4428C-47.3542 56.9564 -50.2355 55.8949 -51.9296 55.398C-53.6237 54.9012 -54.7484 55.5994 -56.5707 56.0931C-58.3929 56.5868 -57.5559 55.2089 -58.1579 53.5714C-58.7951 51.8693 -59.8161 54.0591 -60.6564 54.8948C-61.4968 55.7306 -63.6122 52.2422 -64.6712 50.6871C-65.7303 49.1319 -66.8257 49.7305 -67.5731 49.5113C-68.3205 49.2921 -69.2553 49.3426 -69.6725 47.8133C-70.0898 46.284 -72.2264 45.8198 -74.2493 44.4148C-76.2723 43.0098 -77.4521 44.4494 -80.0922 44.595C-82.7323 44.7407 -83.7394 45.9604 -83.7394 45.9604C-83.7394 45.9604 -83.7394 45.9604 -84.2835 47.2619C-84.8275 48.5634 -86.9102 49.5759 -88.3365 50.5645C-89.7628 51.5531 -91.785 51.0683 -93.0566 51.3447C-94.3281 51.6211 -94.6183 55.378 -94.9923 56.8376C-95.3516 58.2473 -92.7673 57.923 -91.2725 58.3614C-89.8276 58.7852 -90.9901 59.797 -91.3648 60.3365C-91.5959 60.7557 -92.3141 60.4368 -92.5513 60.692C-92.6157 60.7272 -92.6449 60.8268 -92.639 60.9909C-92.5858 61.5476 -92.1546 62.107 -92.0018 62.6929C-91.5081 64.5152 -90.3137 63.0257 -90.3137 63.0257C-90.3137 63.0257 -88.3134 61.5561 -86.4334 59.943C-84.7759 58.5352 -86.474 56.5761 -84.7462 55.2972C-83.2906 54.2089 -81.6298 53.3432 -80.0421 52.7266C-77.2884 51.6403 -77.2465 52.7889 -76.891 53.9754C-76.5356 55.1619 -80.8312 55.4172 -82.6726 57.6369C-84.5141 59.8565 -80.2803 59.2584 -81.9696 61.1439C-85.5383 65.5626 -86.4138 66.334 -88.5238 66.148ZM-49.9985 51.5813C-49.4617 52.334 -48.8604 53.0514 -48.1947 53.7337C-47.9894 53.9562 -47.048 54.9899 -47.1132 54.105C-47.1517 53.4985 -47.4394 52.8188 -47.6567 52.2681C-48.0912 51.1667 -47.8162 50.598 -47.4655 49.4021C-47.1148 48.2063 -44.4308 47.9112 -44.4308 47.9112C-35.0112 46.2367 -43.3567 46.2782 -44.5963 46.077C-45.7716 45.8405 -46.9614 45.6539 -47.6178 45.6778C-48.2741 45.7018 -50.0871 46.9017 -51.1294 48.057C-51.4456 48.3972 -51.4921 48.9246 -51.4595 49.3671C-51.3977 49.7099 -51.2715 50.0175 -51.031 50.3045C-50.6702 50.7349 -50.2596 51.18 -49.9985 51.5813ZM-82.559 148.579C-83.3529 148.887 -83.6564 150.476 -84.4808 153.102C-84.7 153.849 -85.3023 159.408 -83.5159 157.93C-83.5013 157.88 -81.1556 155.971 -80.7112 154.64C-80.2522 153.26 -78.697 152.201 -77.971 151.385C-77.2449 150.57 -77.1287 149.252 -77.4762 146.931C-77.8238 144.61 -79.9283 147.727 -79.9283 147.727C-80.388 148.187 -81.7652 148.271 -82.559 148.579ZM-27.5574 148.314C-27.0937 149.316 -26.6445 150.367 -26.1808 151.369C-25.9489 151.87 -25.717 152.371 -25.4851 152.872C-25.2034 153.387 -24.8221 153.932 -24.7689 154.489C-24.7157 155.046 -24.9701 155.729 -24.6884 156.244C-24.442 156.695 -23.8939 156.856 -23.4308 156.938C-21.473 157.458 -19.559 158.127 -17.5659 158.712C-6.10584 162.073 -14.5418 158.733 -15.0109 158.487C-15.4799 158.241 -16.5993 158.184 -17.3414 157.208C-18.0835 156.233 -22.4271 155.176 -22.4271 155.176C-22.4271 155.176 -23.9365 154.787 -23.3718 153.6C-22.8072 152.413 -23.4343 152.337 -24.4071 148.643C-25.3798 144.948 -25.9232 147.17 -28.0213 143.254C-30.1195 139.337 -29.182 142.967 -28.9348 144.339C-28.6876 145.71 -27.7953 147.649 -27.7953 147.649C-27.7541 147.878 -27.6631 148.121 -27.5574 148.314ZM-11.5299 154.367C-11.9191 154.957 -12.0945 155.555 -11.4202 156.023C-10.142 156.831 -10.2596 156.309 -8.6014 155.822C-8.30844 155.745 -7.4295 155.516 -7.37702 155.153C-7.33918 154.839 -7.98694 154.649 -8.19223 154.426C-8.38289 154.154 -8.55894 153.832 -8.85791 153.744C-9.24191 153.577 -9.64052 153.461 -10.0538 153.393C-10.5666 153.297 -10.8596 153.374 -11.126 153.728C-11.2841 153.898 -11.407 154.133 -11.5299 154.367ZM-15.789 152.469C-15.3406 152.6 -14.8424 152.747 -14.3355 152.679C-13.893 152.646 -13.5416 152.371 -13.1696 152.209C-12.49 151.921 -12.2442 151.452 -11.9984 150.983C-11.3049 149.726 -10.9807 148.251 -10.5862 146.906C-9.88474 144.514 -10.365 144.861 -10.4714 143.747C-10.5099 143.141 -12.394 143.292 -13.2523 143.635C-14.1106 143.979 -13.9897 145.042 -14.2441 145.725C-14.5072 146.622 -15.4479 146.508 -16.1773 146.782C-17.0854 147.11 -17.9584 147.504 -18.8313 147.897C-19.9474 148.381 -19.3341 149.427 -19.1693 150.341C-19.1281 150.57 -19.0517 150.863 -18.8963 151.071C-18.6351 151.472 -18.2013 151.653 -17.8173 151.82C-17.7675 151.835 -17.7675 151.835 -17.7177 151.849C-17.0845 152.089 -16.4368 152.279 -15.789 152.469ZM-4.53747 143.81C-4.40789 144.66 -4.1288 145.553 -3.88496 146.382C-3.75274 146.854 -3.39464 147.663 -2.77946 147.41C-1.98559 147.102 -1.88663 146.211 -1.69666 145.563C-1.25826 144.068 -0.465802 141.92 -0.756845 140.698C-1.0977 139.462 -2.11815 138.513 -2.57328 137.297C-2.952 136.375 -3.4795 136.328 -3.40853 133.319C-3.38742 130.295 -4.16123 133.856 -4.82217 135.556C-5.48313 137.256 -4.29784 139.118 -4.29784 139.118C-3.53179 140.75 -4.7468 142.125 -4.53747 143.81ZM3.62209 161.192C4.20539 161.417 4.69505 161.777 4.94753 162.393C5.27041 163.137 5.21529 163.878 5.42393 164.643C5.54156 165.164 5.76479 165.879 6.45636 165.92C7.11274 165.896 7.88602 165.473 8.19431 166.267C8.62885 167.368 9.09453 167.072 9.09453 167.072C9.33768 166.981 11.16 166.487 11.732 167.305C15.0293 172.114 13.9603 168.932 13.2733 167.215C12.5863 165.499 10.3951 162.638 9.5148 161.027C8.63448 159.416 5.77185 159.766 4.43515 159.158C3.09848 158.55 3.91225 157.435 3.41328 156.369C2.91429 155.303 -0.338302 155.323 -0.933586 154.77C-1.52884 154.216 -1.8338 153.964 -1.55615 153.018C-1.51231 152.868 -1.44594 151.535 -1.92626 151.881C-2.13418 152.037 -2.19527 152.614 -2.26834 152.863C-2.38524 153.262 -2.50215 153.66 -2.56924 154.073C-2.6974 155.064 -1.83311 154.885 -0.806651 155.997C0.234419 157.06 0.317542 158.437 0.25978 159.557C0.21066 160.462 1.27163 160.719 2.09808 160.853C2.61094 160.95 3.12382 161.046 3.62209 161.192ZM-0.459241 200.201C-0.693748 200.078 -1.1774 199.882 -1.36474 200.152C-1.55207 200.421 -1.10629 200.931 -1.17935 201.18C-1.29626 201.579 -1.76125 202.795 -0.59466 203.245C0.522117 203.681 0.926043 203.042 1.51127 201.969C1.61954 201.784 1.67802 201.585 1.63682 201.357C1.56039 201.064 1.22623 200.911 0.977111 200.838C0.742576 200.715 0.493422 200.642 0.209075 200.505C-0.0254318 200.382 -0.224706 200.324 -0.459241 200.201ZM-5.62394 167.625C-7.01309 167.38 -8.50718 167.862 -9.84315 168.174C-10.7075 168.353 -11.6508 168.618 -12.248 169.362C-12.7516 169.972 -13.0525 171.183 -13.3713 171.901C-13.7838 172.754 -15.8919 171.27 -16.8326 171.156C-17.7733 171.043 -17.7374 172.027 -18.124 172.239C-18.5605 172.435 -19.7039 171.721 -20.8087 171.614C-22.1274 171.497 -22.1725 173.865 -22.5206 174.683C-22.8686 175.501 -23.416 176.26 -23.8637 177.049C-24.73 178.526 -23.7394 178.654 -23.0591 179.287C-22.3788 179.919 -23.7984 181.992 -24.0143 183.282C-24.2009 184.471 -23.0276 186.006 -22.1978 186.682C-21.6377 187.171 -20.7967 187.255 -20.0991 187.46C-19.3019 187.694 -18.5193 187.978 -17.7134 187.997C-16.9076 188.017 -16.1842 187.58 -15.4049 187.322C-14.1892 186.867 -12.9907 186.839 -11.7742 187.304C-10.508 187.784 -9.30616 188.299 -8.02527 188.728C-7.32772 188.933 -6.05881 189.035 -6.12255 189.99C-6.16303 190.682 -6.46729 191.35 -6.5078 192.041C-6.61802 193.524 -5.52519 193.304 -4.37918 193.64C-3.23318 193.976 -3.44638 194.887 -3.39584 195.822C-3.32136 197.413 -2.24579 197.62 -0.950316 198C-0.0534317 198.263 0.843452 198.526 1.75495 198.74C3.34341 199.043 4.74312 197.776 4.74312 197.776C4.74312 197.776 7.80892 194.888 9.21463 193.785C10.6203 192.682 11.9396 189.66 12.6556 187.218C13.3717 184.777 10.9918 180.345 10.9918 180.345C10.9918 180.345 8.10893 173.385 7.56013 172.304C7.01133 171.223 7.81651 170.323 7.7952 169.288C7.82373 168.269 6.6233 169.594 5.70319 169.595C4.78308 169.595 4.2378 173.115 4.09167 173.613C3.94553 174.112 2.92841 173.705 2.58491 172.847C2.24139 171.989 1.84878 172.036 1.18307 171.353C0.517357 170.671 0.267545 169.678 0.562452 168.304C0.907173 166.944 -0.619472 166.983 -2.19929 166.465C-3.77914 165.948 -3.27753 166.636 -3.82489 167.396C-4.18495 167.885 -4.79751 167.76 -5.3104 167.663C-5.45986 167.619 -5.57413 167.64 -5.62394 167.625ZM19.2369 209.982L19.1725 210.017C18.4345 210.504 16.1472 212.214 17.0999 212.656C18.0027 213.083 19.0378 213.982 19.8257 213.509C20.6428 212.937 20.6189 212.281 22.6172 212.109C23.6164 212.024 25.1675 209.502 25.1675 209.502C25.1675 209.502 25.1608 208.418 24.7383 207.645C24.3715 207.05 22.6789 208.394 22.0989 208.711C21.1469 209.189 20.0893 209.474 19.2369 209.982ZM28.7496 207.252C29.4052 206.308 29.9773 207.125 30.1965 206.378C30.4157 205.63 28.6179 203.642 28.0605 202.775C26.931 201.091 27.5516 204.141 26.9982 204.736C26.316 205.402 26.2662 205.387 26.3373 206.436C26.3639 206.715 26.2623 207.984 26.4822 208.156C27.781 209.078 28.0793 208.246 28.7496 207.252Z" stroke="#475566" stroke-opacity="0.3" stroke-width="2" mask="url(#path-1-inside-1_405_7718)"/>
</svg>
