<svg width="46" height="64" viewBox="0 0 46 64" fill="none" xmlns="http://www.w3.org/2000/svg">
<g id="Frame" clip-path="url(#clip0_405_7755)">
<path id="Vector" opacity="0.08" d="M10.0332 42.7448V0H34.8856L45.9996 10.4713V42.823L10.0332 42.7448Z" fill="#BCC9DA"/>
<path id="Vector_2" d="M0 64.0001V21.5679H24.698L35.7349 32.0392V64.0001H0ZM1.08054 63.2187H34.5772V32.6643H23.9262V22.5837H1.08054V63.2187ZM24.8524 31.414H33.8826L24.8524 23.1308V31.414Z" fill="#F3F3F3"/>
<path id="Vector_3" d="M6.40658 50.4811C6.02067 50.4811 5.78913 50.2467 5.78913 49.856C5.78913 49.4653 6.02067 49.2308 6.40658 49.2308H21.3797C21.7656 49.2308 21.9972 49.6215 21.9972 49.856C21.9972 50.2467 21.7656 50.4811 21.3797 50.4811H6.40658ZM6.40658 45.6362C6.02067 45.6362 5.78913 45.4018 5.78913 45.011C5.78913 44.6203 6.02067 44.3859 6.40658 44.3859H21.3797C21.7656 44.3859 21.9972 44.6203 21.9972 45.011C21.9972 45.4018 21.7656 45.6362 21.3797 45.6362H6.40658ZM6.40658 40.7131C6.02067 40.7131 5.78913 40.4787 5.78913 40.088C5.78913 39.6972 6.02067 39.4628 6.40658 39.4628H21.3797C21.7656 39.4628 21.9972 39.6972 21.9972 40.088C21.9972 40.4787 21.7656 40.7131 21.3797 40.7131H6.40658ZM6.40658 35.8682C6.02067 35.8682 5.78913 35.6338 5.78913 35.243C5.78913 34.8523 6.02067 34.6179 6.40658 34.6179H21.3797C21.7656 34.6179 21.9972 35.0086 21.9972 35.243C21.9972 35.6338 21.7656 35.8682 21.3797 35.8682H6.40658ZM6.40658 31.0233C6.02067 31.0233 5.63477 30.7888 5.63477 30.3981C5.63477 29.9292 6.02067 29.7729 6.40658 29.7729H12.3495C12.7354 29.7729 12.967 30.0074 12.967 30.3981C12.967 30.7888 12.7354 31.0233 12.3495 31.0233H6.40658Z" fill="#9FCCFF"/>
</g>
<defs>
<clipPath id="clip0_405_7755">
<rect width="46" height="64" fill="white"/>
</clipPath>
</defs>
</svg>
