<svg width="10" height="10" viewBox="0 0 10 10" fill="none" xmlns="http://www.w3.org/2000/svg">
<path id="Vector" d="M9.6875 7.1875C9.6875 7.1875 7.6875 5.75 7.125 5.8125C6.875 5.875 6.6875 6.0625 6.4375 6.375C6.375 6.4375 6.25 6.5625 6.1875 6.6875C6 6.625 5.8125 6.5625 5.625 6.4375C4.6875 6.0625 3.9375 5.3125 3.5 4.375C3.4375 4.1875 3.3125 4 3.25 3.8125C3.375 3.75 3.5 3.625 3.5625 3.5625C3.9375 3.3125 4.125 3.125 4.125 2.875C4.25 2.3125 2.8125 0.3125 2.75 0.3125C2.6875 0.125 2.4375 0 2.25 0C1.625 0 0 2.125 0 2.5C0 2.5 0 4.625 2.6875 7.3125C5.3125 10 7.5 10 7.5 10C7.875 10 10 8.375 10 7.75C10 7.5625 9.875 7.3125 9.6875 7.1875Z" fill="white"/>
</svg>
