<svg width="116" height="232" viewBox="0 0 116 232" fill="none" xmlns="http://www.w3.org/2000/svg">
<g opacity="0.4">
<path d="M96.7282 13.3977L101.489 13.8208C101.689 13.8407 101.823 13.9324 101.904 14.0677C102.05 14.1312 102.16 14.2793 102.186 14.4583L103.036 19.0508C103.075 19.2016 103.013 19.3425 102.935 19.4425L102.008 20.4482C101.755 20.7074 101.279 20.6014 101.139 20.2053L99.2925 16.8567L95.708 15.335C95.332 15.2389 95.1453 14.7891 95.4101 14.5018L96.337 13.4961C96.4325 13.4369 96.5695 13.3623 96.7282 13.3977Z" fill="#475566"/>
<path d="M109.454 6.34908C109.564 6.49715 109.682 6.78334 109.738 6.97505L112.512 17.5306C112.567 17.7223 112.498 17.9605 112.395 18.1169L111.845 18.817C111.742 18.9734 111.542 18.9535 111.432 18.8054L105.041 10.8704C104.932 10.7224 104.705 10.5235 104.542 10.4191L95.8925 5.02376C95.7292 4.91936 95.7029 4.74034 95.8645 4.60937L96.3865 4.13191C96.5189 3.98824 96.7854 3.93626 96.9857 3.95613L108.613 5.88342C108.813 5.90329 109.089 5.98944 109.252 6.09384L109.454 6.34908Z" fill="#475566"/>
<path d="M110.437 15.4236L111.633 16.5124L112.734 15.3476C113.04 15.0447 112.779 14.7641 112.46 14.458C112.141 14.152 111.844 13.9559 111.537 14.2587L110.437 15.4236Z" fill="#475566"/>
<path d="M109.553 12.0235L110.749 13.1123L111.85 11.9475C112.157 11.6446 111.896 11.364 111.577 11.0579C111.258 10.7519 110.96 10.5558 110.654 10.8586L109.553 12.0235Z" fill="#475566"/>
<path d="M99.7894 5.91003L98.5932 4.82117L99.694 3.65632C100 3.35348 100.298 3.54958 100.617 3.85564C100.936 4.16169 101.209 4.41415 100.89 4.74515L99.7894 5.91003Z" fill="#475566"/>
<path d="M103.416 6.37753L102.22 5.28867L103.321 4.12379C103.627 3.82097 103.871 4.06074 104.19 4.36679C104.509 4.67285 104.807 4.86895 104.517 5.21266L103.416 6.37753Z" fill="#475566"/>
<path d="M100.272 14.5332L97.9158 17.9354C97.7711 18.1072 97.8021 18.3553 97.9701 18.5288C98.1505 18.6741 98.4216 18.6912 98.5663 18.5193L101.846 15.9535C102.231 15.5507 101.519 15.1076 101.339 14.9624C101.141 14.7762 100.628 14.1176 100.272 14.5332Z" fill="#475566"/>
<path d="M109.292 2.89308L99.3112 14.8201C98.9679 15.2074 99.0052 15.76 99.3536 16.0787L100.306 16.9278C100.655 17.2466 101.222 17.2244 101.623 16.8624C101.623 16.8624 112.831 6.27238 112.951 6.15689C113.606 5.53577 114.15 4.76657 114.537 3.96204C114.721 3.53933 114.877 3.10394 114.961 2.67131C115.135 1.87511 115.579 0.458934 114.319 0.314343C113.388 0.212245 112.258 0.727335 111.489 1.13134C110.637 1.56629 109.895 2.14931 109.292 2.89308Z" fill="#475566"/>
<path d="M0.399005 217.138C0.412999 217.345 0.581037 217.518 0.793641 217.51C1.00625 217.502 1.18024 217.343 1.16624 217.135C1.17517 216.637 1.15482 216.125 1.16375 215.626C1.14975 215.419 0.981714 215.245 0.769109 215.254C0.556511 215.262 0.382515 215.421 0.367232 215.616C0.39989 216.099 0.420239 216.611 0.399005 217.138ZM0.491828 220.195C0.512178 220.706 0.532535 221.218 0.552885 221.73C0.566879 221.937 0.734917 222.11 0.947515 222.102C1.16012 222.094 1.34642 221.906 1.32011 221.727C1.29976 221.216 1.26711 220.732 1.24676 220.221C1.23276 220.014 1.06473 219.84 0.852121 219.848C0.634853 219.788 0.490142 219.959 0.491828 220.195ZM0.474699 212.578C0.488701 212.786 0.627454 212.946 0.869343 212.951C1.06963 212.971 1.28521 212.796 1.27122 212.589C1.28015 212.09 1.30138 211.563 1.33959 211.076C1.36718 210.854 1.19915 210.68 0.957263 210.676C0.756966 210.656 0.553693 210.803 0.555386 211.038C0.517175 211.524 0.495941 212.051 0.474699 212.578ZM0.770468 224.74C0.820102 225.265 0.840452 225.776 0.902386 226.273C0.916387 226.48 1.12601 226.638 1.33861 226.629C1.55121 226.621 1.73752 226.434 1.69424 226.214C1.6323 225.718 1.61195 225.206 1.55001 224.71C1.53601 224.503 1.32639 224.345 1.11378 224.353C0.901186 224.361 0.756474 224.533 0.770468 224.74ZM1.22012 229.293C1.22012 229.293 1.20781 229.321 1.2371 229.334C1.29903 229.83 1.34867 230.354 1.43988 230.863C1.45388 231.071 1.66351 231.229 1.88842 231.192C2.10102 231.184 2.25803 230.984 2.21476 230.764C2.15282 230.268 2.09088 229.771 2.04125 229.247C2.02726 229.04 1.81763 228.882 1.60503 228.89C1.35084 228.914 1.20613 229.086 1.22012 229.293ZM0.750699 208.039C0.764693 208.246 0.903453 208.407 1.10374 208.427C1.30404 208.446 1.50731 208.3 1.5349 208.077C1.58542 207.563 1.62363 207.077 1.67415 206.562C1.68943 206.368 1.5337 206.166 1.33341 206.146C1.10383 206.114 0.929836 206.273 0.914553 206.467C0.864035 206.982 0.825824 207.468 0.775313 207.982C0.733722 207.998 0.763006 208.011 0.750699 208.039ZM1.26857 203.504C1.2656 203.67 1.43363 203.843 1.59234 203.879C1.82192 203.911 1.99591 203.752 2.04047 203.57C2.12027 203.069 2.20006 202.567 2.26756 202.093C2.31212 201.912 2.16869 201.682 1.93912 201.649C1.70954 201.617 1.51858 201.735 1.49099 201.958C1.41119 202.459 1.3314 202.961 1.2516 203.463C1.2516 203.463 1.2516 203.463 1.26857 203.504ZM2.01603 199.001C2.01304 199.167 2.15181 199.328 2.3398 199.376C2.55706 199.437 2.76034 199.29 2.78793 199.068C2.89701 198.579 2.9768 198.077 3.08587 197.588C3.14275 197.378 2.98702 197.176 2.79903 197.128C2.58176 197.068 2.37849 197.214 2.33392 197.396C2.22485 197.885 2.11577 198.374 2.03597 198.876C1.99905 198.96 2.01603 199.001 2.01603 199.001ZM3.0393 194.585C3.03633 194.751 3.1458 194.899 3.33379 194.947C3.55106 195.008 3.74203 194.889 3.7989 194.679C3.93725 194.203 4.04633 193.714 4.19699 193.21C4.25387 193 4.12742 192.811 3.92246 192.722C3.70518 192.661 3.51422 192.779 3.42807 192.977C3.28972 193.453 3.13905 193.957 3.02997 194.446C3.03463 194.515 3.02233 194.544 3.0393 194.585ZM4.30913 190.242C4.30616 190.408 4.41563 190.556 4.57434 190.591C4.79161 190.652 5.01185 190.546 5.05642 190.365C5.22405 189.901 5.37472 189.397 5.54235 188.933C5.59923 188.723 5.51436 188.519 5.2971 188.458C5.09213 188.369 4.87189 188.475 4.81501 188.684C4.64738 189.148 4.46744 189.64 4.32908 190.116C4.31678 190.144 4.30446 190.172 4.30913 190.242ZM5.86709 185.957C5.87643 186.095 5.95663 186.23 6.10302 186.294C6.30798 186.382 6.52823 186.277 6.61438 186.08L6.67591 185.939C6.86052 185.516 7.00355 185.109 7.18816 184.686C7.27431 184.489 7.16016 184.272 6.98448 184.195C6.77952 184.107 6.55928 184.212 6.48544 184.381C6.30083 184.804 6.12852 185.198 5.97319 185.634L5.91165 185.775C5.87473 185.859 5.85012 185.916 5.86709 185.957ZM7.70555 181.827C7.71488 181.965 7.79508 182.1 7.94148 182.164C8.14644 182.253 8.38366 182.188 8.46981 181.991C8.696 181.553 8.93451 181.086 9.1607 180.648C9.24685 180.451 9.1743 180.218 8.99862 180.142C8.79366 180.053 8.55644 180.118 8.4826 180.287C8.2564 180.725 8.0179 181.191 7.7917 181.629C7.7255 181.701 7.73017 181.77 7.70555 181.827ZM9.8784 177.808C9.88773 177.947 9.93864 178.069 10.085 178.133C10.2777 178.25 10.5149 178.185 10.6303 178.001C10.8858 177.575 11.1413 177.15 11.4091 176.696C11.5245 176.511 11.452 176.279 11.2886 176.174C11.0959 176.057 10.8587 176.122 10.7556 176.278C10.5001 176.704 10.2323 177.158 9.97685 177.583C9.89834 177.683 9.87373 177.739 9.8784 177.808ZM12.3487 173.986C12.358 174.124 12.4213 174.219 12.5261 174.298C12.7187 174.415 12.9436 174.379 13.0591 174.194C13.3438 173.781 13.6286 173.368 13.9426 172.968C14.0873 172.797 14.0148 172.564 13.8637 172.431C13.6711 172.314 13.4461 172.351 13.3137 172.494C12.9997 172.894 12.7149 173.307 12.4179 173.748C12.3394 173.848 12.344 173.917 12.3487 173.986ZM15.0579 170.335C15.0503 170.432 15.1012 170.555 15.206 170.634C15.3864 170.779 15.6113 170.743 15.756 170.571C16.07 170.171 16.401 169.812 16.7151 169.411C16.8598 169.24 16.8165 169.02 16.6654 168.887C16.4851 168.742 16.2602 168.778 16.1278 168.922C15.7845 169.309 15.4704 169.709 15.1564 170.109C15.0902 170.181 15.0533 170.266 15.0579 170.335ZM18.0816 166.92C18.0739 167.018 18.1372 167.112 18.2004 167.207C18.3514 167.339 18.5933 167.344 18.7673 167.185C19.0983 166.825 19.4709 166.451 19.8312 166.104C19.9636 165.96 19.9619 165.725 19.8232 165.564C19.6721 165.432 19.4302 165.427 19.2685 165.558C18.9083 165.905 18.5649 166.292 18.1923 166.667C18.0969 166.726 18.0769 166.851 18.0816 166.92ZM18.0904 144.332C18.1044 144.539 18.2725 144.712 18.4851 144.704C18.6977 144.696 18.8717 144.537 18.8577 144.329C18.8373 143.818 18.8463 143.319 18.8552 142.82C18.8412 142.613 18.6732 142.439 18.4729 142.419C18.2603 142.428 18.0863 142.587 18.071 142.781C18.0913 143.293 18.0701 143.82 18.0904 144.332ZM18.1956 147.361C18.2159 147.872 18.2656 148.397 18.2859 148.908C18.2999 149.115 18.5095 149.273 18.7221 149.265C18.9347 149.257 19.0795 149.085 19.0778 148.85C19.0451 148.366 18.9955 147.842 18.9751 147.33C18.9611 147.123 18.7931 146.949 18.5805 146.958C18.3556 146.994 18.1816 147.153 18.1956 147.361ZM18.1662 139.772C18.1801 139.979 18.3189 140.14 18.5192 140.16C18.7195 140.18 18.9228 140.034 18.9211 139.798C18.9593 139.312 18.9805 138.785 19.0187 138.299C19.0463 138.076 18.8783 137.902 18.6487 137.87C18.4484 137.85 18.2451 137.996 18.2176 138.219C18.2379 138.731 18.1997 139.217 18.1662 139.772C18.1785 139.744 18.1785 139.744 18.1662 139.772ZM18.6036 151.929C18.6036 151.929 18.5913 151.957 18.6206 151.97C18.6826 152.466 18.7615 153.003 18.8234 153.499C18.8374 153.706 19.047 153.864 19.2719 153.828C19.4845 153.819 19.6416 153.619 19.5983 153.4C19.5363 152.903 19.4451 152.394 19.3832 151.898C19.3692 151.691 19.1596 151.533 18.947 151.541C18.7636 151.562 18.5896 151.722 18.6036 151.929ZM18.5839 135.227C18.5809 135.393 18.7489 135.567 18.9369 135.615C19.1665 135.648 19.3405 135.488 19.3558 135.294C19.4356 134.792 19.4738 134.306 19.5536 133.804C19.5812 133.582 19.4547 133.393 19.2251 133.36C18.9956 133.328 18.8046 133.446 18.777 133.669C18.6972 134.17 18.6174 134.672 18.5669 135.186L18.5839 135.227ZM19.3075 156.458C19.2952 156.486 19.3245 156.499 19.3122 156.527C19.4034 157.036 19.4946 157.545 19.6274 158.038C19.6707 158.258 19.8926 158.388 20.0882 158.338C20.3131 158.302 20.4409 158.089 20.3853 157.897C20.2818 157.417 20.1906 156.908 20.0993 156.399C20.0561 156.179 19.8634 156.062 19.6508 156.07C19.4259 156.107 19.3228 156.263 19.3075 156.458ZM19.319 130.753C19.316 130.919 19.4548 131.08 19.6428 131.128C19.8601 131.189 20.0633 131.042 20.1202 130.832C20.2293 130.343 20.3384 129.854 20.4474 129.365C20.5043 129.155 20.3486 128.954 20.1606 128.906C19.9433 128.845 19.74 128.991 19.6955 129.173C19.5864 129.662 19.465 130.179 19.3559 130.668C19.3144 130.684 19.3313 130.725 19.319 130.753ZM20.3194 160.919C20.3071 160.947 20.3241 160.988 20.3241 160.988C20.4569 161.482 20.5897 161.975 20.7225 162.468C20.7781 162.66 21 162.79 21.1956 162.741C21.3913 162.692 21.519 162.479 21.4634 162.287C21.3306 161.794 21.1978 161.3 21.065 160.807C21.0094 160.615 20.7875 160.485 20.5919 160.535C20.4255 160.597 20.3224 160.753 20.3194 160.919ZM20.4132 126.334C20.4102 126.5 20.5197 126.648 20.7077 126.696C20.9249 126.757 21.1452 126.651 21.202 126.441C21.3404 125.965 21.4788 125.489 21.6587 124.997C21.7156 124.787 21.6014 124.57 21.4134 124.522C21.1962 124.461 20.9759 124.567 20.9314 124.748C20.793 125.225 20.6131 125.716 20.4747 126.193C20.4085 126.264 20.4255 126.305 20.4132 126.334ZM21.3488 163.746C21.3412 163.843 21.3751 163.925 21.4506 163.991C21.5894 164.152 21.8313 164.156 21.993 164.025C22.3825 163.692 22.7428 163.345 23.1201 163.039C23.2818 162.908 23.2801 162.673 23.1413 162.512C23.0026 162.352 22.7314 162.334 22.599 162.478C22.2094 162.812 21.8199 163.146 21.4303 163.479C21.4057 163.536 21.3564 163.649 21.3488 163.746ZM21.6564 165.354C21.6441 165.382 21.6611 165.423 21.678 165.464C21.8524 165.942 22.0145 166.448 22.1889 166.926C22.2738 167.13 22.4787 167.219 22.6744 167.17C22.8823 167.093 22.9685 166.896 22.9129 166.704C22.7385 166.226 22.5641 165.748 22.3897 165.27C22.3341 165.078 22.1122 164.949 21.9042 165.026C21.7625 165.031 21.6301 165.175 21.6564 165.354ZM21.871 122.039C21.8803 122.177 21.9898 122.325 22.1362 122.388C22.3412 122.477 22.5614 122.372 22.6476 122.174C22.8152 121.711 23.0244 121.232 23.2213 120.781C23.3075 120.584 23.1933 120.366 23.0177 120.29C22.8127 120.201 22.5925 120.307 22.5186 120.476C22.3094 120.955 22.1417 121.419 21.9325 121.898C21.8786 121.941 21.8956 121.982 21.871 122.039ZM23.2845 169.681C23.3015 169.722 23.2769 169.778 23.3231 169.832C23.5268 170.322 23.7428 170.785 23.9464 171.275C24.0313 171.48 24.2778 171.553 24.4442 171.491C24.6521 171.414 24.7213 171.176 24.6241 170.999C24.4082 170.537 24.2045 170.046 24.0178 169.597C23.9329 169.392 23.6987 169.291 23.52 169.381C23.3783 169.386 23.2875 169.514 23.2845 169.681ZM23.7217 117.881C23.7311 118.019 23.8113 118.154 23.9577 118.218C24.1626 118.307 24.3999 118.242 24.486 118.045C24.7122 117.606 24.9507 117.14 25.1769 116.702C25.2923 116.517 25.1905 116.272 25.0148 116.196C24.8222 116.079 24.5726 116.172 24.4988 116.341C24.2726 116.779 24.0341 117.245 23.8079 117.683C23.7417 117.755 23.7171 117.812 23.7217 117.881ZM24.9059 160.864C24.9105 160.934 24.9445 161.015 24.9784 161.097C25.1172 161.258 25.3467 161.29 25.5377 161.172C25.9442 160.879 26.3508 160.586 26.7696 160.265C26.9313 160.134 26.9882 159.924 26.8617 159.735C26.723 159.575 26.4934 159.542 26.3148 159.632C25.9082 159.925 25.4601 160.233 25.0828 160.539C24.9458 160.614 24.8965 160.726 24.9059 160.864ZM25.216 173.871C25.2207 173.94 25.2377 173.981 25.2546 174.022C25.4999 174.497 25.7282 174.931 25.9734 175.406C26.0706 175.582 26.3048 175.684 26.4958 175.566C26.6745 175.476 26.7729 175.25 26.6465 175.061C26.3889 174.614 26.1729 174.152 25.9569 173.689C25.8598 173.513 25.6255 173.412 25.4469 173.502C25.2975 173.604 25.2067 173.733 25.216 173.871ZM25.9408 113.916C25.9502 114.054 26.0011 114.177 26.1182 114.228C26.3109 114.345 26.5481 114.28 26.6512 114.124C26.9067 113.698 27.1914 113.285 27.4762 112.873C27.5916 112.688 27.5484 112.468 27.3557 112.351C27.163 112.234 26.9381 112.27 26.8227 112.455C26.538 112.868 26.2409 113.309 25.9854 113.734C25.9608 113.791 25.9362 113.847 25.9408 113.916ZM27.4386 177.953C27.4433 178.022 27.448 178.091 27.4942 178.144C27.7518 178.591 28.0386 179.051 28.3085 179.47C28.435 179.659 28.6522 179.719 28.8432 179.601C29.0342 179.483 29.0618 179.26 28.9646 179.084C28.6947 178.665 28.4371 178.218 28.1503 177.759C28.0531 177.582 27.8066 177.509 27.6156 177.627C27.5201 177.686 27.4586 177.827 27.4386 177.953ZM28.6942 158.251C28.6988 158.32 28.7035 158.389 28.7498 158.443C28.8762 158.632 29.1058 158.664 29.2844 158.574C29.7203 158.294 30.1438 158.042 30.5966 157.803C30.7752 157.713 30.8444 157.474 30.718 157.286C30.5915 157.097 30.3742 157.036 30.1833 157.154C29.7305 157.393 29.2947 157.674 28.8588 157.954C28.7633 158.013 28.7018 158.154 28.6942 158.251ZM29.9893 181.841C29.994 181.91 30.0279 181.992 30.0742 182.046C30.3733 182.477 30.6725 182.909 30.9839 183.312C31.1104 183.501 31.34 183.534 31.5309 183.415C31.6926 183.284 31.7202 183.062 31.623 182.885C31.3116 182.482 31.0124 182.051 30.7425 181.632C30.6161 181.443 30.3865 181.41 30.1956 181.529C30.0292 181.591 29.9677 181.731 29.9893 181.841ZM28.5868 110.17C28.5792 110.267 28.6301 110.39 28.7349 110.469C28.9153 110.614 29.1279 110.606 29.2726 110.434L29.3388 110.362C29.6282 110.019 29.9299 109.647 30.2317 109.275C30.3641 109.131 30.3331 108.883 30.182 108.75C30.0017 108.605 29.7768 108.642 29.6444 108.785C29.3426 109.157 29.0409 109.529 28.7392 109.901C28.6314 109.988 28.5945 110.073 28.5868 110.17ZM32.7848 185.568C32.7895 185.637 32.8111 185.747 32.8574 185.801C33.1981 186.217 33.5219 186.592 33.8626 187.008C34.0014 187.169 34.231 187.201 34.4342 187.055C34.5959 186.924 34.5942 186.689 34.4555 186.528C34.1024 186.14 33.791 185.737 33.4672 185.362C33.3284 185.201 33.0989 185.168 32.9079 185.287C32.854 185.33 32.8048 185.443 32.7848 185.568ZM31.5689 106.771C31.5613 106.868 31.6245 106.963 31.6877 107.057C31.8388 107.19 32.0807 107.194 32.2423 107.063C32.6026 106.717 32.9629 106.37 33.3232 106.024C33.4849 105.893 33.4955 105.629 33.3152 105.484C33.1764 105.323 32.9345 105.319 32.7605 105.478C32.4002 105.825 32.0277 106.199 31.6674 106.546C31.5842 106.577 31.5765 106.674 31.5689 106.771ZM32.7231 156.044C32.7278 156.113 32.7447 156.154 32.7494 156.223C32.8466 156.399 33.0931 156.472 33.2718 156.382C33.7246 156.143 34.1943 155.945 34.6348 155.734C34.8135 155.643 34.9119 155.418 34.8148 155.242C34.7176 155.066 34.4833 154.964 34.3047 155.054C33.8226 155.281 33.3821 155.492 32.9 155.718C32.7753 155.765 32.7138 155.906 32.7231 156.044ZM35.9037 189.033C35.8961 189.131 35.93 189.212 36.0056 189.279C36.3586 189.666 36.724 190.026 37.1186 190.398C37.2697 190.531 37.5115 190.535 37.6732 190.404C37.8056 190.261 37.8039 190.025 37.6652 189.865C37.2998 189.505 36.9345 189.145 36.5814 188.758C36.4427 188.597 36.2008 188.592 36.0391 188.723C35.9483 188.852 35.9114 188.936 35.9037 189.033ZM34.9579 103.716C34.9503 103.814 34.9842 103.895 35.0598 103.962C35.1985 104.122 35.4281 104.155 35.6191 104.037C36.0086 103.703 36.4152 103.41 36.8217 103.117C36.9834 102.986 37.011 102.763 36.8845 102.575C36.7458 102.414 36.5162 102.381 36.3252 102.499C35.9064 102.821 35.4998 103.113 35.1103 103.447C34.9855 103.494 34.9363 103.606 34.9579 103.716ZM36.9463 154.189C36.9633 154.23 36.9387 154.286 36.9849 154.34C37.0698 154.544 37.304 154.646 37.4827 154.556L37.7738 154.447C38.1481 154.308 38.5517 154.182 38.926 154.042C39.1339 153.965 39.22 153.768 39.1352 153.563C39.0503 153.359 38.8454 153.27 38.6374 153.347C38.2339 153.474 37.8596 153.613 37.4437 153.768L37.1526 153.876C37.0401 153.894 36.9493 154.023 36.9463 154.189ZM39.3044 192.252C39.2967 192.349 39.3477 192.472 39.4232 192.538C39.8301 192.882 40.2078 193.214 40.6148 193.558C40.7951 193.703 41.02 193.667 41.1524 193.523C41.2848 193.379 41.2538 193.131 41.1028 192.999C40.6835 192.683 40.3059 192.351 39.8989 192.007C39.7479 191.874 39.506 191.87 39.3613 192.042C39.349 192.07 39.2997 192.183 39.3044 192.252ZM38.6707 101.037C38.6754 101.106 38.68 101.175 38.7556 101.241C38.882 101.43 39.1116 101.463 39.3026 101.344C39.7384 101.064 40.1619 100.812 40.5977 100.532C40.7887 100.414 40.8163 100.191 40.7191 100.015C40.5926 99.8258 40.3631 99.7932 40.1844 99.8833C39.7486 100.163 39.2958 100.403 38.86 100.683C38.7106 100.786 38.6614 100.898 38.6707 101.037ZM41.3686 152.756C41.3563 152.784 41.3733 152.825 41.3902 152.866C41.4458 153.057 41.6677 153.187 41.8634 153.138C42.3671 153.021 42.8415 152.892 43.3452 152.775C43.5409 152.726 43.6979 152.526 43.613 152.322C43.5574 152.13 43.3355 152 43.1399 152.049C42.6362 152.166 42.1325 152.283 41.6164 152.427C41.4747 152.433 41.3716 152.589 41.3686 152.756ZM42.9822 195.155C43.0038 195.265 43.0547 195.387 43.1595 195.466C43.5788 195.782 44.0104 196.07 44.4712 196.371C44.6638 196.488 44.8888 196.451 45.0042 196.267C45.1196 196.082 45.0763 195.862 44.8837 195.745C44.4521 195.457 44.0206 195.17 43.6013 194.854C43.4087 194.737 43.1838 194.773 43.0514 194.917C43.0144 195.001 42.9775 195.086 42.9822 195.155ZM42.6657 98.7475C42.6703 98.8166 42.6873 98.8575 42.7212 98.9393C42.8184 99.1155 43.065 99.189 43.2436 99.0989C43.6964 98.8596 44.1662 98.6611 44.619 98.4218C44.7976 98.3317 44.8961 98.1063 44.7989 97.9301C44.7018 97.7538 44.4675 97.6522 44.2889 97.7423C43.8068 97.9689 43.3663 98.18 42.8842 98.4066C42.7471 98.4812 42.6563 98.6094 42.6657 98.7475ZM46.9617 197.686C46.971 197.824 47.0219 197.947 47.1683 198.01C47.6122 198.27 48.0977 198.514 48.5538 198.746C48.7588 198.834 48.996 198.77 49.0699 198.601C49.1853 198.416 49.0835 198.171 48.9078 198.095C48.4516 197.863 48.0077 197.604 47.5516 197.372C47.3589 197.255 47.1217 197.32 47.0063 197.504C46.9816 197.561 46.957 197.617 46.9617 197.686ZM45.936 151.788C45.9237 151.816 45.9529 151.828 45.9406 151.857C45.9839 152.077 46.1766 152.194 46.4015 152.157C46.9222 152.081 47.4136 151.993 47.922 151.945C48.1469 151.909 48.2623 151.724 48.2483 151.517C48.205 151.297 48.0247 151.152 47.7998 151.188C47.2791 151.264 46.7584 151.34 46.2377 151.416C46.0421 151.465 45.9389 151.621 45.936 151.788ZM46.8889 96.8927C46.9059 96.9336 46.8813 96.9899 46.9275 97.0435C47.0124 97.2479 47.2466 97.3496 47.4253 97.2595C47.8951 97.0611 48.3818 96.9036 48.8685 96.746C49.0765 96.6686 49.1626 96.4714 49.107 96.2797C49.0222 96.0752 48.8172 95.9863 48.6216 96.0355C48.1348 96.193 47.6358 96.3788 47.1367 96.5645C46.9827 96.5982 46.8919 96.7264 46.8889 96.8927ZM51.1797 199.751C51.189 199.889 51.2692 200.024 51.4156 200.088C51.9134 200.304 52.3942 200.479 52.892 200.695C53.0969 200.784 53.3172 200.678 53.4033 200.481C53.4602 200.271 53.3753 200.067 53.1704 199.978C52.6896 199.802 52.2211 199.599 51.7233 199.383C51.5184 199.294 51.2981 199.4 51.2243 199.569C51.1874 199.654 51.175 199.682 51.1797 199.751ZM50.5776 151.287C50.5653 151.316 50.5653 151.316 50.5776 151.287C50.5793 151.523 50.7889 151.681 51.0015 151.673C51.5099 151.625 52.0352 151.618 52.5606 151.612C52.7732 151.603 52.9472 151.444 52.9332 151.237C52.9192 151.03 52.7512 150.856 52.5386 150.865C52.0132 150.871 51.4755 150.906 50.9795 150.925C50.7253 150.949 50.5806 151.121 50.5776 151.287ZM51.3281 95.5003C51.3158 95.5285 51.3328 95.5694 51.3498 95.6102C51.4054 95.802 51.6273 95.9318 51.8229 95.8826C52.3266 95.7659 52.8304 95.6493 53.3341 95.5326C53.5297 95.4834 53.6867 95.2834 53.6311 95.0917C53.5756 94.8999 53.3659 94.742 53.1703 94.7912C52.6666 94.9078 52.1629 95.0245 51.6592 95.1411C51.4343 95.1776 51.3311 95.334 51.3281 95.5003ZM55.6193 201.308C55.6163 201.475 55.7258 201.623 55.9138 201.671C56.4069 201.818 56.9415 201.949 57.4469 202.068C57.6642 202.128 57.8675 201.982 57.912 201.8C57.9689 201.59 57.8132 201.389 57.6252 201.341C57.1198 201.222 56.6267 201.075 56.1213 200.956C55.904 200.895 55.7131 201.014 55.6269 201.211C55.6146 201.239 55.6316 201.28 55.6193 201.308ZM55.2519 151.271C55.2659 151.478 55.4339 151.651 55.6465 151.643C56.1595 151.665 56.6726 151.686 57.2026 151.748C57.4029 151.768 57.6062 151.622 57.6045 151.387C57.6321 151.164 57.464 150.99 57.2222 150.986C56.6798 150.952 56.1668 150.93 55.6537 150.909C55.4534 150.889 55.2795 151.048 55.2519 151.271ZM55.9002 94.6013C55.8879 94.6295 55.9172 94.6422 55.9049 94.6704C55.9481 94.8902 56.1285 95.0355 56.3534 94.999C56.8741 94.9233 57.3825 94.8757 57.8908 94.8281C58.1034 94.8198 58.2605 94.6197 58.2465 94.4125C58.2325 94.2054 58.0228 94.0474 57.8102 94.0557C57.3018 94.1033 56.7519 94.1663 56.2312 94.2421C56.0186 94.2504 55.9155 94.4068 55.9002 94.6013ZM60.2218 202.333C60.2188 202.499 60.3869 202.673 60.5456 202.708C61.0633 202.799 61.5933 202.861 62.1233 202.924C62.3236 202.943 62.5269 202.797 62.5422 202.602C62.5574 202.408 62.4017 202.206 62.2014 202.186C61.6714 202.124 61.183 202.046 60.6529 201.984C60.4234 201.951 60.2494 202.11 60.2048 202.292C60.2341 202.305 60.2218 202.333 60.2218 202.333ZM59.9418 151.697C59.9389 151.863 60.1069 152.037 60.2949 152.085C60.8126 152.175 61.3133 152.225 61.831 152.315C62.0606 152.348 62.2516 152.23 62.2792 152.007C62.3068 151.784 62.1803 151.595 61.9507 151.563C61.433 151.472 60.9153 151.382 60.3853 151.319C60.1557 151.287 59.9817 151.446 59.9664 151.64C59.9541 151.669 59.9541 151.669 59.9418 151.697ZM60.5804 94.252C60.5944 94.4592 60.7624 94.6327 60.9751 94.6243C61.1877 94.616 61.4003 94.6077 61.6006 94.6276C61.9133 94.6292 62.2261 94.6308 62.5265 94.6606C62.7391 94.6523 62.9131 94.4931 62.9284 94.2987C62.9144 94.0915 62.7463 93.918 62.5337 93.9263C62.221 93.9247 61.9082 93.9231 61.5955 93.9215C61.3829 93.9298 61.1703 93.9381 60.97 93.9182C60.7404 93.8857 60.5664 94.0448 60.5804 94.252ZM64.8994 202.787C64.9134 202.994 65.0815 203.168 65.2941 203.16L65.7778 203.168C66.1615 203.167 66.5158 203.153 66.8994 203.152C67.112 203.144 67.2567 202.972 67.272 202.778C67.258 202.57 67.09 202.397 66.8774 202.405C66.523 202.419 66.1687 202.433 65.7974 202.406L65.3429 202.41C65.0717 202.393 64.8978 202.552 64.8994 202.787C64.9118 202.759 64.9118 202.759 64.8994 202.787ZM64.5643 152.596C64.5613 152.762 64.7001 152.923 64.8588 152.959C65.3642 153.077 65.8573 153.224 66.3504 153.371C66.5677 153.432 66.7586 153.314 66.8448 153.116C66.9016 152.906 66.7752 152.717 66.5702 152.628C66.0771 152.482 65.5424 152.35 65.037 152.231C64.8198 152.171 64.6288 152.289 64.5719 152.499C64.5596 152.527 64.5473 152.555 64.5643 152.596ZM63.8321 98.2104C63.8478 98.653 63.8635 99.0955 63.8792 99.5381C63.8932 99.7453 64.1028 99.9033 64.3154 99.895C64.528 99.8866 64.702 99.7275 64.671 99.4794C64.643 99.065 64.6273 98.6225 64.6117 98.1799L64.5977 97.9727C64.5837 97.7655 64.4156 97.592 64.203 97.6004C63.9904 97.6087 63.8164 97.7678 63.8011 97.9623L63.8321 98.2104ZM63.9256 94.966C63.9396 95.1732 64.0783 95.3339 64.2786 95.3538C64.4789 95.3736 64.6822 95.2272 64.7098 95.0045C64.748 94.5183 64.7985 94.0039 64.849 93.4895C64.8643 93.295 64.7086 93.0934 64.5083 93.0735C64.2787 93.0409 64.1047 93.2001 64.0894 93.3946C64.0389 93.909 63.9884 94.4234 63.9502 94.9096C63.9379 94.9378 63.9256 94.966 63.9256 94.966ZM64.3386 102.553C64.3263 102.581 64.3556 102.594 64.3433 102.622C64.4638 103.144 64.5966 103.637 64.7587 104.143C64.8143 104.335 65.0362 104.465 65.2441 104.387C65.4398 104.338 65.5675 104.125 65.4827 103.921C65.3375 103.456 65.2047 102.962 65.0719 102.469C65.0287 102.249 64.8067 102.119 64.6111 102.169C64.457 102.202 64.3539 102.359 64.3386 102.553ZM64.502 90.4562C64.499 90.6225 64.6378 90.7833 64.8258 90.8313C65.0554 90.8639 65.2463 90.7456 65.2739 90.523L65.5426 89.0306C65.5872 88.8488 65.4437 88.6189 65.2142 88.5864C64.9969 88.5256 64.7936 88.6721 64.766 88.8947L64.4974 90.3871C64.5266 90.3998 64.5143 90.428 64.502 90.4562ZM65.2564 94.4707C65.2704 94.6779 65.4091 94.8387 65.6094 94.8586C66.1395 94.9209 66.6279 94.9988 67.1579 95.0611C67.3875 95.0937 67.5492 94.9627 67.606 94.7527C67.6336 94.5301 67.5072 94.3411 67.2776 94.3086C66.7599 94.218 66.2299 94.1557 65.6998 94.0933C65.4703 94.0607 65.2963 94.2199 65.281 94.4144C65.2564 94.4707 65.2564 94.4707 65.2564 94.4707ZM65.3373 85.9917C65.3343 86.158 65.4731 86.3188 65.6611 86.3668C65.8783 86.4276 66.0816 86.2811 66.1385 86.0712C66.2476 85.5822 66.3274 85.0805 66.4364 84.5915C66.4933 84.3815 66.3376 84.1799 66.1496 84.1318C65.9323 84.0711 65.7291 84.2175 65.6845 84.3993C65.5754 84.8883 65.4663 85.3773 65.3865 85.879C65.3619 85.9353 65.3496 85.9635 65.3373 85.9917ZM66.0329 106.808C66.0376 106.877 66.0423 106.946 66.0885 107C66.3754 107.459 66.6745 107.891 67.003 108.335C67.1417 108.496 67.3713 108.528 67.5623 108.41C67.7239 108.279 67.7515 108.056 67.6251 107.867C67.3136 107.464 67.0314 107.074 66.7739 106.627C66.6767 106.45 66.4301 106.377 66.2392 106.495C66.1021 106.57 66.0529 106.682 66.0329 106.808ZM66.3436 81.5344C66.3406 81.7007 66.4794 81.8614 66.6381 81.8968C66.8554 81.9575 67.0586 81.8111 67.1032 81.6293C67.2123 81.1403 67.3214 80.6513 67.4597 80.175C67.5166 79.9651 67.3901 79.7761 67.1729 79.7154C66.9556 79.6546 66.7646 79.7729 66.7078 79.9829C66.5987 80.4718 66.4603 80.9481 66.339 81.4653C66.3267 81.4935 66.3143 81.5217 66.3436 81.5344ZM69.5551 202.494C69.5428 202.522 69.572 202.535 69.5597 202.563C69.603 202.783 69.7833 202.929 70.0083 202.892C70.5289 202.816 71.0496 202.741 71.5703 202.665C71.7952 202.628 71.923 202.416 71.8674 202.224C71.8241 202.004 71.6022 201.874 71.4065 201.923C70.9151 202.012 70.3944 202.088 69.8738 202.163C69.7027 202.156 69.558 202.328 69.5551 202.494ZM69.0777 153.985C69.0747 154.151 69.1842 154.299 69.3429 154.334C69.8237 154.509 70.3045 154.684 70.8022 154.9C71.0072 154.989 71.2274 154.884 71.3136 154.687C71.3998 154.489 71.2856 154.272 71.0807 154.183C70.5829 153.967 70.1021 153.792 69.592 153.604C69.3871 153.515 69.1668 153.621 69.0807 153.818C69.0853 153.887 69.0607 153.944 69.0777 153.985ZM67.4255 77.1433C67.4225 77.3097 67.532 77.4577 67.72 77.5057C67.9372 77.5665 68.1282 77.4482 68.1851 77.2383C68.3234 76.762 68.4325 76.273 68.5832 75.7685C68.64 75.5585 68.5136 75.3696 68.3086 75.2807C68.0913 75.2199 67.9004 75.3382 67.8142 75.5354C67.6759 76.0117 67.5545 76.5289 67.4161 77.0052C67.4208 77.0743 67.4378 77.1152 67.4255 77.1433ZM69.2303 110.173C69.2397 110.311 69.2906 110.434 69.4077 110.484C69.8809 110.757 70.3663 111.001 70.8641 111.217C71.069 111.306 71.2893 111.2 71.3754 111.003C71.4616 110.806 71.3474 110.589 71.1425 110.5C70.674 110.296 70.2178 110.065 69.8032 109.818C69.6106 109.701 69.3734 109.766 69.2702 109.922C69.2503 110.047 69.2257 110.104 69.2303 110.173ZM68.6783 72.7595C68.6753 72.9258 68.7848 73.0738 68.9728 73.1219C69.1901 73.1826 69.4103 73.0771 69.4672 72.8671C69.6055 72.3908 69.7562 71.8863 69.9239 71.4227C69.9807 71.2128 69.8666 70.9957 69.6493 70.9349C69.432 70.8742 69.2118 70.9797 69.1549 71.1897C69.0166 71.666 68.8659 72.1704 68.7275 72.6467C68.6737 72.6904 68.6613 72.7186 68.6783 72.7595ZM69.8912 95.342C69.8882 95.5083 70.0269 95.6691 70.1857 95.7044C70.6911 95.8231 71.1842 95.97 71.6772 96.1169C71.8945 96.1777 72.1148 96.0721 72.1716 95.8622C72.2285 95.6522 72.1144 95.4351 71.8971 95.3743C71.3747 95.2147 70.8816 95.0678 70.3762 94.9491C70.159 94.8883 69.968 95.0066 69.9111 95.2166C69.8865 95.2729 69.8742 95.3011 69.8912 95.342ZM70.019 68.4137C70.016 68.58 70.1255 68.7281 70.2842 68.7634C70.5015 68.8242 70.7217 68.7186 70.7663 68.5368C70.9339 68.0732 71.0846 67.5687 71.2522 67.1052C71.3384 66.9079 71.2242 66.6908 71.007 66.63C70.7897 66.5693 70.5818 66.6467 70.5249 66.8566C70.3573 67.3202 70.2066 67.8247 70.039 68.2883C70.0143 68.3446 70.0313 68.3855 70.019 68.4137ZM74.1394 201.567C74.1271 201.595 74.1441 201.636 74.161 201.677C74.2166 201.869 74.4386 201.999 74.6465 201.921C75.1625 201.776 75.6493 201.619 76.136 201.461C76.3439 201.384 76.4301 201.187 76.3745 200.995C76.2896 200.791 76.0847 200.702 75.8767 200.779C75.39 200.937 74.9033 201.094 74.4288 201.223C74.2455 201.244 74.1131 201.388 74.1394 201.567ZM73.3819 155.852C73.3912 155.99 73.4714 156.126 73.6178 156.189C74.074 156.421 74.5301 156.652 75.0033 156.924C75.1959 157.041 75.4332 156.977 75.5486 156.792C75.664 156.608 75.5915 156.375 75.3865 156.286C74.9426 156.026 74.4572 155.782 73.9717 155.538C73.7668 155.449 73.5296 155.514 73.4434 155.711C73.4018 155.727 73.3772 155.783 73.3819 155.852ZM71.5061 64.1314C71.5031 64.2978 71.6126 64.4458 71.7713 64.4812C71.9763 64.5701 72.1965 64.4645 72.2827 64.2673L72.7979 62.8483C72.884 62.6511 72.7699 62.4339 72.5649 62.345C72.36 62.2561 72.1397 62.3616 72.0536 62.5589L71.5384 63.9778C71.5137 64.0342 71.5184 64.1033 71.5061 64.1314ZM73.6775 111.633C73.6915 111.84 73.8303 112.001 74.0306 112.021C74.4312 112.061 74.8441 112.072 75.257 112.084C75.3987 112.078 75.5281 112.101 75.6406 112.083C75.8532 112.074 76.0272 111.915 76.0132 111.708C75.9992 111.501 75.8311 111.327 75.6185 111.336C75.5061 111.354 75.3767 111.331 75.2349 111.337C74.8513 111.338 74.48 111.311 74.1087 111.284C73.9084 111.264 73.7051 111.41 73.6775 111.633C73.6482 111.62 73.6482 111.62 73.6775 111.633ZM73.1103 59.9C73.1197 60.0381 73.1998 60.1735 73.3755 60.2497C73.5805 60.3387 73.8007 60.2331 73.8869 60.0358C74.0545 59.5722 74.2638 59.0932 74.4607 58.6423C74.5468 58.445 74.4327 58.2279 74.2277 58.139C74.0228 58.05 73.8025 58.1556 73.7164 58.3529C73.5194 58.8038 73.3395 59.2955 73.1426 59.7464C73.118 59.8028 73.1349 59.8436 73.1103 59.9ZM74.3553 96.8431C74.3647 96.9813 74.4449 97.1166 74.562 97.1674L74.6205 97.1928C75.0597 97.3834 75.5282 97.5867 75.9551 97.8054C76.1601 97.8943 76.3973 97.8297 76.4834 97.6324C76.5696 97.4351 76.497 97.2025 76.2921 97.1136C75.8359 96.8822 75.3381 96.6662 74.8697 96.4629C74.6647 96.374 74.4152 96.4669 74.3413 96.6359C74.363 96.7459 74.3676 96.815 74.3553 96.8431ZM74.844 55.6912C74.8533 55.8293 74.9335 55.9647 75.0799 56.0282C75.2849 56.1172 75.5051 56.0116 75.5789 55.8425C75.7759 55.3916 75.9851 54.9126 76.182 54.4617C76.2681 54.2644 76.1833 54.06 75.9783 53.9711C75.7734 53.8821 75.5654 53.9595 75.4793 54.1568C75.2824 54.6077 75.0731 55.0867 74.8762 55.5376C74.8516 55.594 74.8686 55.6349 74.844 55.6912ZM77.4645 158.227C77.4738 158.365 77.5371 158.459 77.6419 158.538C78.0734 158.826 78.505 159.114 78.9243 159.43C79.1046 159.575 79.3418 159.511 79.4742 159.367C79.6189 159.195 79.5464 158.962 79.3953 158.83C78.9761 158.514 78.5445 158.226 78.0837 157.926C77.891 157.809 77.6661 157.845 77.5507 158.03C77.4675 158.061 77.4598 158.158 77.4645 158.227ZM78.4645 199.958C78.4692 200.027 78.4861 200.068 78.5031 200.108C78.6003 200.285 78.8345 200.386 79.0132 200.296C79.4953 200.07 79.9357 199.858 80.4301 199.604C80.6088 199.514 80.678 199.275 80.5808 199.099C80.4836 198.923 80.2371 198.85 80.0584 198.94C79.6056 199.179 79.1651 199.39 78.6831 199.617C78.546 199.691 78.4552 199.819 78.4645 199.958ZM76.724 51.5459C76.7333 51.6841 76.8135 51.8194 76.9599 51.8829C77.1649 51.9719 77.3728 51.8945 77.4883 51.7099C77.6852 51.2591 77.9237 50.7927 78.1206 50.3418C78.2068 50.1445 78.1219 49.9401 77.9292 49.823C77.7243 49.7341 77.4871 49.7988 77.4009 49.996C77.1747 50.4342 76.9655 50.9133 76.7686 51.3642C76.7316 51.4487 76.707 51.5051 76.724 51.5459ZM78.2776 111.149C78.2945 111.189 78.2822 111.218 78.2869 111.287C78.3718 111.491 78.606 111.593 78.7847 111.503C79.313 111.33 79.7951 111.103 80.2602 110.836C80.4511 110.717 80.508 110.507 80.3815 110.318C80.2551 110.129 80.0378 110.069 79.8469 110.187C79.4357 110.411 78.9952 110.622 78.5377 110.792C78.3714 110.854 78.2682 111.01 78.2776 111.149ZM78.4456 99.1206C78.438 99.2179 78.4889 99.3405 78.5937 99.4195C79.013 99.7355 79.4199 100.08 79.7683 100.398C79.9193 100.531 80.1612 100.535 80.3229 100.404C80.4553 100.261 80.4536 100.025 80.3149 99.8646C79.9495 99.505 79.5426 99.1608 79.094 98.8321C78.9137 98.6868 78.6888 98.7233 78.5441 98.8952C78.4779 98.967 78.4409 99.0516 78.4456 99.1206ZM81.1962 161.086C81.1886 161.183 81.2395 161.306 81.315 161.372C81.4198 161.451 81.4953 161.518 81.5879 161.625C81.89 161.89 82.1628 162.142 82.4527 162.436C82.6037 162.568 82.8456 162.573 83.0073 162.442C83.1397 162.298 83.138 162.063 82.9992 161.902C82.6971 161.637 82.4073 161.343 82.1344 161.091C82.0296 161.012 81.9371 160.905 81.8323 160.826C81.652 160.681 81.4394 160.689 81.2946 160.861C81.2115 160.892 81.1746 160.976 81.1962 161.086ZM78.6796 47.467C78.6889 47.6051 78.7691 47.7405 78.9155 47.804C79.1205 47.8929 79.3577 47.8282 79.4438 47.6309C79.67 47.1928 79.9085 46.7264 80.1347 46.2882C80.2209 46.091 80.1483 45.8584 79.9434 45.7694C79.7384 45.6805 79.5012 45.7452 79.415 45.9424C79.1889 46.3806 78.9503 46.847 78.7241 47.2852C78.6995 47.3415 78.6749 47.3979 78.6796 47.467ZM82.4764 197.709C82.4811 197.778 82.515 197.86 82.549 197.942C82.6754 198.131 82.905 198.163 83.096 198.045C83.5318 197.765 83.9507 197.444 84.3279 197.138C84.4896 197.007 84.5172 196.785 84.3907 196.596C84.252 196.435 84.0224 196.402 83.8314 196.521C83.4542 196.826 83.0476 197.119 82.6118 197.399C82.5163 197.459 82.4671 197.571 82.4764 197.709ZM81.5768 102.557C81.5815 102.627 81.5984 102.667 81.6324 102.749C81.89 103.196 82.0767 103.646 82.2048 104.07C82.2604 104.262 82.4823 104.392 82.6779 104.342C82.8736 104.293 83.0013 104.081 82.9457 103.889C82.7836 103.383 82.58 102.892 82.3054 102.404C82.2083 102.228 81.9617 102.155 81.7831 102.245C81.6583 102.291 81.5675 102.419 81.5768 102.557ZM81.8147 108.393C81.824 108.531 81.9042 108.666 82.0213 108.717C82.214 108.834 82.4512 108.769 82.5373 108.572C82.8051 108.118 82.9974 107.598 83.0895 107.069C83.1464 106.859 82.9906 106.657 82.8026 106.609C82.5854 106.548 82.3821 106.695 82.3375 106.876C82.2408 107.337 82.0854 107.773 81.8423 108.17C81.8346 108.267 81.81 108.324 81.8147 108.393ZM80.7939 43.4233C80.8032 43.5615 80.8834 43.6968 81.0005 43.7476C81.1932 43.8647 81.4427 43.7719 81.5165 43.6028C81.7427 43.1646 82.0105 42.711 82.2367 42.2728C82.3521 42.0882 82.2796 41.8556 82.0746 41.7667C81.882 41.6496 81.6448 41.7143 81.5586 41.9115C81.3324 42.3497 81.0646 42.8034 80.8384 43.2415C80.7845 43.2852 80.7769 43.3824 80.7939 43.4233ZM84.5014 164.364C84.4937 164.461 84.5277 164.543 84.6032 164.609C84.9563 164.997 85.2677 165.4 85.5792 165.804C85.718 165.964 85.9475 165.997 86.1385 165.879C86.3002 165.748 86.3278 165.525 86.2013 165.336C85.8899 164.933 85.5491 164.517 85.1961 164.129C85.0573 163.968 84.7984 163.923 84.6245 164.082C84.5583 164.154 84.509 164.267 84.5014 164.364ZM85.9872 194.774C85.9796 194.872 86.0428 194.966 86.106 195.061C86.2571 195.193 86.499 195.198 86.6607 195.067C87.0333 194.692 87.3766 194.305 87.7199 193.917C87.8646 193.745 87.8213 193.526 87.6703 193.393C87.4899 193.248 87.265 193.284 87.1326 193.428C86.8016 193.787 86.4583 194.174 86.1273 194.534C86.0025 194.58 85.9949 194.677 85.9872 194.774ZM82.9837 39.446C82.993 39.5841 83.0439 39.7068 83.1903 39.7703C83.383 39.8874 83.6202 39.8227 83.7356 39.6382C83.9911 39.2127 84.2589 38.759 84.4851 38.3208C84.6005 38.1363 84.528 37.9037 84.3353 37.7866C84.1427 37.6694 83.9054 37.7341 83.79 37.9187C83.5345 38.3442 83.2668 38.7978 83.0406 39.236C83.0036 39.3205 82.979 39.3769 82.9837 39.446ZM87.2846 168.119C87.2893 168.188 87.2939 168.257 87.3402 168.311C87.6101 168.729 87.8676 169.176 88.1252 169.623C88.2224 169.8 88.4689 169.873 88.6476 169.783C88.8262 169.693 88.8954 169.455 88.7982 169.279C88.5407 168.832 88.2831 168.385 87.9962 167.925C87.8698 167.736 87.6525 167.675 87.4616 167.793C87.3661 167.853 87.2753 167.981 87.2846 168.119ZM88.8013 191.202C88.8106 191.34 88.8615 191.463 89.0079 191.526C89.2006 191.643 89.4378 191.579 89.5532 191.394C89.821 190.941 90.0765 190.515 90.315 190.049C90.4304 189.864 90.3286 189.619 90.1236 189.53C89.9187 189.441 89.6814 189.506 89.5953 189.703C89.3691 190.141 89.1429 190.579 88.8581 190.992C88.7919 191.064 88.7966 191.133 88.8013 191.202ZM85.3076 35.5603C85.3169 35.6984 85.3678 35.8211 85.5142 35.8846C85.7069 36.0017 85.9441 35.9371 86.0595 35.7525C86.315 35.327 86.5705 34.9015 86.8676 34.4606C86.983 34.276 86.9104 34.0434 86.7471 33.939C86.5544 33.8219 86.3172 33.8866 86.2141 34.043C85.9586 34.4685 85.6615 34.9094 85.406 35.3349C85.3398 35.4067 85.3029 35.4913 85.3076 35.5603ZM89.4779 172.188C89.4949 172.229 89.4996 172.298 89.5166 172.339C89.7325 172.801 89.9069 173.279 90.0813 173.757C90.1662 173.961 90.3711 174.05 90.5668 174.001C90.7747 173.924 90.8609 173.727 90.8053 173.535C90.6309 173.057 90.4272 172.566 90.2235 172.076C90.1387 171.871 89.9044 171.77 89.7258 171.86C89.5717 171.893 89.4686 172.05 89.4779 172.188ZM90.669 187.085C90.666 187.251 90.7755 187.399 90.9342 187.435C91.1515 187.495 91.3717 187.39 91.4163 187.208C91.4978 186.942 91.5793 186.675 91.6607 186.409C91.7299 186.171 91.7868 185.961 91.8267 185.71C91.8836 185.5 91.7278 185.298 91.5398 185.25C91.3226 185.19 91.1193 185.336 91.0747 185.518C91.0179 185.728 90.978 185.979 90.9211 186.189C90.8519 186.427 90.7704 186.693 90.6889 186.96C90.6643 187.016 90.6813 187.057 90.669 187.085ZM90.9397 176.576C90.9274 176.605 90.9567 176.617 90.9444 176.646C91.0479 177.126 91.1391 177.635 91.2426 178.116C91.2859 178.336 91.4662 178.481 91.6912 178.444C91.9161 178.408 92.0315 178.223 92.0175 178.016C91.9263 177.507 91.8351 176.998 91.7146 176.477C91.6713 176.257 91.4494 176.127 91.2537 176.176C91.0581 176.226 90.9134 176.397 90.9397 176.576ZM87.7486 31.7255C87.758 31.8636 87.8212 31.9581 87.926 32.0371C88.1187 32.1542 88.3436 32.1177 88.459 31.9331C88.7437 31.5204 88.9992 31.0949 89.284 30.6821C89.3994 30.4976 89.3561 30.2777 89.1635 30.1605C88.9708 30.0434 88.7459 30.0799 88.6305 30.2645C88.3457 30.6773 88.061 31.0901 87.7932 31.5437C87.7809 31.5719 87.744 31.6564 87.7486 31.7255ZM91.475 182.608C91.489 182.815 91.6278 182.976 91.8281 182.996C92.0284 183.015 92.2316 182.869 92.2299 182.634C92.2512 182.106 92.2601 181.608 92.2521 181.068C92.2381 180.861 92.07 180.687 91.8574 180.695C91.6448 180.704 91.4708 180.863 91.4848 181.07C91.5345 181.594 91.5255 182.093 91.475 182.608ZM90.3068 27.9415C90.3161 28.0796 90.3793 28.1741 90.4841 28.2531C90.6768 28.3702 90.9017 28.3337 91.0171 28.1491C91.3019 27.7363 91.5867 27.3236 91.9007 26.9235C92.0161 26.739 91.9728 26.5191 91.7925 26.3738C91.5998 26.2567 91.3749 26.2932 91.2302 26.465C90.9455 26.8778 90.6607 27.2905 90.3467 27.6906C90.339 27.7879 90.3021 27.8724 90.3068 27.9415ZM92.9574 24.2646C92.9791 24.3746 93.03 24.4972 93.1348 24.5762C93.3275 24.6933 93.5524 24.6568 93.6848 24.5132C93.9988 24.1131 94.2836 23.7003 94.5976 23.3003C94.7423 23.1284 94.6698 22.8958 94.5187 22.7632C94.3383 22.6179 94.1011 22.6826 93.9687 22.8263C93.6547 23.2263 93.3699 23.6391 93.0559 24.0392C92.9897 24.111 92.9651 24.1674 92.9574 24.2646ZM95.7545 20.6513C95.7468 20.7486 95.7978 20.8712 95.9026 20.9502C96.0829 21.0955 96.3078 21.059 96.4525 20.8871L97.1345 20.0433C97.2792 19.8715 97.236 19.6516 97.0556 19.5063C96.8753 19.361 96.6504 19.3975 96.5056 19.5694L95.8237 20.4132C95.7575 20.485 95.7205 20.5695 95.7545 20.6513Z" fill="#475566"/>
</g>
</svg>
