<svg width="46" height="64" viewBox="0 0 46 64" fill="none" xmlns="http://www.w3.org/2000/svg">
<g id="Frame" clip-path="url(#clip0_405_7786)">
<path id="Vector" opacity="0.08" d="M25.2727 42.1978C13.7149 42.1978 4.3916 32.8205 4.3916 21.177C4.3916 9.45543 13.7149 0 25.2727 0C36.7534 0 45.9996 9.45543 45.9996 21.177C45.9996 32.8205 36.7534 42.1978 25.2727 42.1978Z" fill="#BCC9DA"/>
<path id="Vector_2" d="M18.4925 63.9998C8.32161 63.9998 0 55.6384 0 45.4016C0 35.0865 8.32161 26.647 18.4925 26.647C28.5863 26.647 36.8308 35.0865 36.8308 45.4016C36.8308 55.6384 28.5863 63.9998 18.4925 63.9998ZM18.4925 27.741C9.01507 27.741 1.00167 35.868 1.00167 45.4797C1.00167 55.1696 8.86097 62.984 18.4925 62.984C28.0469 62.984 35.7521 55.0914 35.7521 45.4797C35.7521 35.7117 27.9698 27.741 18.4925 27.741Z" fill="#F3F3F3"/>
<path id="Vector_3" d="M18.4154 53.138C15.4104 53.138 12.5595 51.2626 11.5578 48.4494C11.4807 48.215 11.4807 48.1368 11.5578 47.9805C11.6348 47.7461 11.7889 47.7461 11.943 47.7461C12.0201 47.7461 12.0201 47.7461 12.1742 47.7461C12.4824 47.7461 12.6365 47.9805 12.7906 48.1368C13.5611 50.4811 15.9497 51.9659 18.4154 51.9659C20.8811 51.9659 23.1926 50.403 24.0402 48.1368C24.1173 47.8242 24.3484 47.7461 24.6566 47.7461C24.7337 47.7461 24.7337 47.7461 24.8878 47.7461C25.1189 47.8242 25.196 47.9805 25.273 47.9805C25.3501 48.215 25.3501 48.2931 25.273 48.4494C24.1943 51.1844 21.4975 53.138 18.4154 53.138Z" fill="#9FCCFF"/>
<path id="Vector_4" d="M14.1773 40.6348C13.5608 40.6348 13.0215 40.0878 13.0215 39.4627C13.0215 38.8375 13.5608 38.2905 14.1773 38.2905C14.7937 38.2905 15.333 38.8375 15.333 39.4627C15.333 40.166 14.7937 40.6348 14.1773 40.6348Z" fill="#9FCCFF"/>
<path id="Vector_5" d="M22.6528 40.6348C22.0364 40.6348 21.4971 40.0878 21.4971 39.4627C21.4971 38.8375 22.0364 38.2905 22.6528 38.2905C23.2693 38.2905 23.8086 38.8375 23.8086 39.4627C23.8086 40.166 23.3463 40.6348 22.6528 40.6348Z" fill="#9FCCFF"/>
</g>
<defs>
<clipPath id="clip0_405_7786">
<rect width="46" height="64" fill="white"/>
</clipPath>
</defs>
</svg>
