<svg width="46" height="64" viewBox="0 0 46 64" fill="none" xmlns="http://www.w3.org/2000/svg">
<g id="Frame" clip-path="url(#clip0_405_7776)">
<path id="Vector" opacity="0.08" d="M27.1001 46.8864C21.5551 46.8864 17.0254 42.3541 17.0254 36.8059C17.0254 33.7582 18.3531 31.0232 20.696 29.1477V6.40781C20.696 2.96947 23.5857 0 27.022 0C30.4583 0 33.348 2.96948 33.348 6.32967V28.9914C35.6909 31.1013 37.0186 33.9145 37.0186 36.8059C37.0967 42.3541 32.567 46.8864 27.1001 46.8864ZM39.8301 27.3504C39.3616 27.3504 39.0492 26.8816 39.0492 26.569C39.0492 26.2564 39.5177 25.7875 39.8301 25.7875H45.2189C45.6875 25.7875 45.9999 26.2564 45.9999 26.569C45.9999 26.8816 45.5313 27.3504 45.2189 27.3504H39.8301ZM39.5958 21.8803C39.1273 21.8803 38.8149 21.4115 38.8149 21.0989C38.8149 20.7863 39.2835 20.3175 39.5958 20.3175H43.2665C43.5789 20.3175 43.8913 20.3956 43.9694 20.63C44.0475 20.7082 44.0475 20.9426 44.0475 21.177C44.0475 21.6459 43.5789 21.9585 43.2665 21.9585H39.5958V21.8803ZM39.8301 16.254C39.3616 16.254 39.0492 15.7851 39.0492 15.4725C39.0492 15.0037 39.5177 14.6911 39.8301 14.6911H45.2189C45.6875 14.6911 45.9999 15.1599 45.9999 15.4725C45.9999 15.9414 45.5313 16.254 45.2189 16.254H39.8301ZM39.5958 10.862C39.1273 10.862 38.8149 10.3932 38.8149 10.0806C38.8149 9.61172 39.2835 9.29914 39.5958 9.29914H43.2665C43.5789 9.29914 43.8913 9.37729 43.9694 9.61172C44.0475 9.68987 44.0475 9.9243 44.0475 10.1587C44.0475 10.6276 43.5789 10.9402 43.2665 10.9402H39.5958V10.862ZM39.8301 5.23565C39.3616 5.23565 39.0492 4.76679 39.0492 4.45421C39.0492 4.14164 39.5177 3.67277 39.8301 3.67277H45.2189C45.6875 3.75092 45.9999 4.21978 45.9999 4.6105C45.9999 5.07936 45.5313 5.39194 45.2189 5.39194L39.8301 5.23565Z" fill="#BCC9DA"/>
<path id="Vector_2" d="M8.74703 64C3.90492 64 0 60.0147 0 55.0916C0 52.3565 1.24958 49.7778 3.28014 48.293V27.5849C3.28014 24.5372 5.77929 21.9585 8.74703 21.9585C11.7148 21.9585 14.2139 24.5373 14.2139 27.5067V47.9805C16.3226 49.8559 17.4941 52.4347 17.4941 55.0134C17.4941 57.4359 16.635 59.6239 14.9168 61.3431C13.2767 63.0623 11.09 64 8.74703 64ZM8.98133 23.2088C6.56027 23.2088 4.60781 25.2405 4.60781 27.663V48.6838C4.60781 48.9963 4.52971 48.9963 4.37351 49.0745C2.26486 50.6374 1.09338 52.8254 1.09338 55.326C1.09338 59.5458 4.52971 62.9841 8.74703 62.9841C12.8862 62.9841 16.3226 59.5458 16.5569 55.1697C16.5569 52.7473 15.4635 50.4811 13.511 48.9182C13.511 48.8401 13.2767 48.5275 13.2767 48.4493V27.5067C13.2767 25.2405 11.2462 23.2088 8.98133 23.2088ZM20.2275 46.3394C19.9932 46.3394 19.6808 45.9487 19.6808 45.7924C19.6808 45.558 20.0713 45.2454 20.2275 45.2454H25.0696C25.3039 45.2454 25.6163 45.6361 25.6163 45.7924C25.6163 46.0269 25.2258 46.3394 25.0696 46.3394H20.2275ZM20.0713 41.4164C19.837 41.4164 19.5246 41.0256 19.5246 40.8694C19.5246 40.6349 19.9151 40.3223 20.0713 40.3223H23.3514C23.6638 40.3223 23.82 40.4005 23.82 40.4786C23.8981 40.5568 23.8981 40.7912 23.8981 40.8694C23.8981 41.1038 23.5076 41.4164 23.3514 41.4164H20.0713ZM20.2275 36.337C19.9932 36.337 19.6808 35.9463 19.6808 35.79C19.6808 35.5556 20.0713 35.243 20.2275 35.243H25.0696C25.3039 35.243 25.6163 35.6337 25.6163 35.79C25.6163 36.0244 25.2258 36.337 25.0696 36.337H20.2275ZM20.0713 31.4139C19.837 31.4139 19.5246 31.0232 19.5246 30.8669C19.5246 30.6325 19.9151 30.3199 20.0713 30.3199H23.3514C23.6638 30.3199 23.82 30.3981 23.82 30.4762C23.8981 30.5543 23.8981 30.7888 23.8981 30.8669C23.8981 31.1014 23.5076 31.4139 23.3514 31.4139H20.0713ZM20.3837 26.4127V26.3346H20.2275C19.9932 26.3346 19.6808 25.9438 19.6808 25.7876C19.6808 25.5531 20.0713 25.2405 20.2275 25.2405H25.0696C25.3039 25.3187 25.6163 25.5531 25.6163 25.8657C25.6163 26.1001 25.2258 26.4127 25.0696 26.4127H20.3837Z" fill="#F3F3F3"/>
<path id="Vector_3" d="M8.90289 59.233C6.63804 59.233 4.76367 57.4357 4.76367 55.1695C4.76367 53.2941 6.16944 51.5749 8.04381 51.1842H8.2V27.4284C8.2 27.0377 8.3562 26.8032 8.82479 26.7251C9.13719 26.7251 9.52768 27.194 9.52768 27.4284V51.2623H9.68388C11.5582 51.5749 12.964 53.2159 13.0421 55.1695C13.0421 57.4357 11.2458 59.233 8.90289 59.233ZM8.82479 52.2782C7.26282 52.2782 5.93515 53.6067 5.93515 55.1695C5.93515 56.8106 7.18472 58.0609 8.82479 58.0609C10.3868 58.0609 11.7144 56.7324 11.7144 55.1695C11.7144 53.5285 10.4649 52.2782 8.82479 52.2782Z" fill="#9FCCFF"/>
</g>
<defs>
<clipPath id="clip0_405_7776">
<rect width="46" height="64" fill="white"/>
</clipPath>
</defs>
</svg>
