<svg width="527" height="229" viewBox="0 0 527 229" fill="none" xmlns="http://www.w3.org/2000/svg">
<rect x="2.01562" y="228" width="524" height="1" fill="#BCC9DA" fill-opacity="0.36"/>
<rect x="2" y="228" width="94" height="1" fill="#227CE4"/>
<rect x="96" y="228" width="185" height="1" fill="#9FCCFF"/>
<rect x="2" y="64" width="1" height="165" fill="#227CE4"/>
<circle cx="2.5" cy="61.5927" r="2.5" fill="#227CE4"/>
<rect x="96" y="143" width="1" height="86" fill="#227CE4"/>
<circle cx="96.5" cy="141.5" r="2.5" fill="#227CE4"/>
<rect x="280" y="166" width="0.999999" height="63" fill="#9FCCFF"/>
<circle cx="280.5" cy="164.5" r="2.5" fill="#9FCCFF"/>
<path d="M10.296 15.57L10.296 18.937H8.736V17H1.755L1.755 18.937H0.182L0.195 15.57H0.585C1.157 15.544 1.55567 15.1237 1.781 14.309C2.015 13.4857 2.158 12.3113 2.21 10.786L2.314 7.9L8.983 7.9V15.57H10.296ZM3.692 10.942C3.64867 12.1207 3.55333 13.1043 3.406 13.893C3.25867 14.673 3.02467 15.232 2.704 15.57L7.319 15.57L7.319 9.33L3.757 9.33L3.692 10.942ZM18.0783 13.568C18.0783 13.6807 18.0697 13.841 18.0523 14.049L12.6053 14.049C12.7007 14.5603 12.9477 14.9677 13.3463 15.271C13.7537 15.5657 14.2563 15.713 14.8543 15.713C15.617 15.713 16.2453 15.4617 16.7393 14.959L17.6103 15.96C17.2983 16.3327 16.904 16.6143 16.4273 16.805C15.9507 16.9957 15.4133 17.091 14.8153 17.091C14.0527 17.091 13.381 16.9393 12.8003 16.636C12.2197 16.3327 11.769 15.9123 11.4483 15.375C11.1363 14.829 10.9803 14.2137 10.9803 13.529C10.9803 12.853 11.132 12.2463 11.4353 11.709C11.7473 11.163 12.1763 10.7383 12.7223 10.435C13.2683 10.1317 13.8837 9.98 14.5683 9.98C15.2443 9.98 15.8467 10.1317 16.3753 10.435C16.9127 10.7297 17.3287 11.15 17.6233 11.696C17.9267 12.2333 18.0783 12.8573 18.0783 13.568ZM14.5683 11.28C14.0483 11.28 13.6063 11.436 13.2423 11.748C12.887 12.0513 12.6703 12.4587 12.5923 12.97H16.5313C16.462 12.4673 16.2497 12.06 15.8943 11.748C15.539 11.436 15.097 11.28 14.5683 11.28ZM19.8557 10.058H21.4807L21.4807 12.879H24.9777L24.9777 10.058H26.6027L26.6027 17H24.9777V14.257H21.4807V17H19.8557L19.8557 10.058ZM32.2645 12.346C33.1485 12.346 33.8245 12.5453 34.2925 12.944C34.7691 13.3427 35.0075 13.906 35.0075 14.634C35.0075 15.3967 34.7475 15.986 34.2275 16.402C33.7075 16.818 32.9751 17.0217 32.0305 17.013L28.7805 17L28.7805 10.058H30.4055L30.4055 12.333L32.2645 12.346ZM31.8875 15.817C32.3641 15.8257 32.7281 15.726 32.9795 15.518C33.2308 15.31 33.3565 15.0067 33.3565 14.608C33.3565 14.218 33.2351 13.932 32.9925 13.75C32.7498 13.568 32.3815 13.4727 31.8875 13.464L30.4055 13.451V15.804L31.8875 15.817ZM44.1755 13.386C44.6089 13.5073 44.9425 13.7067 45.1765 13.984C45.4192 14.2527 45.5405 14.5777 45.5405 14.959C45.5405 15.3837 45.3975 15.7607 45.1115 16.09C44.8255 16.4107 44.4312 16.662 43.9285 16.844C43.4259 17.026 42.8539 17.117 42.2125 17.117C41.6752 17.117 41.1509 17.0563 40.6395 16.935C40.1282 16.805 39.6645 16.623 39.2485 16.389L39.7165 15.18C40.0545 15.3707 40.4359 15.518 40.8605 15.622C41.2852 15.726 41.7099 15.778 42.1345 15.778C42.6805 15.778 43.1052 15.6957 43.4085 15.531C43.7205 15.3577 43.8765 15.1237 43.8765 14.829C43.8765 14.5603 43.7552 14.3523 43.5125 14.205C43.2785 14.0577 42.9449 13.984 42.5115 13.984H41.1595V12.892H42.3815C42.7889 12.892 43.1052 12.8227 43.3305 12.684C43.5645 12.5453 43.6815 12.3503 43.6815 12.099C43.6815 11.8477 43.5429 11.6483 43.2655 11.501C42.9882 11.3537 42.6069 11.28 42.1215 11.28C41.4282 11.28 40.6959 11.449 39.9245 11.787L39.5085 10.591C40.4185 10.1663 41.3372 9.954 42.2645 9.954C42.8539 9.954 43.3825 10.0363 43.8505 10.201C44.3185 10.357 44.6825 10.5823 44.9425 10.877C45.2112 11.163 45.3455 11.4923 45.3455 11.865C45.3455 12.203 45.2415 12.5063 45.0335 12.775C44.8255 13.035 44.5395 13.2387 44.1755 13.386ZM49.8138 9.98C50.8364 9.98 51.6164 10.227 52.1538 10.721C52.6998 11.2063 52.9728 11.943 52.9728 12.931V17H51.4388V16.155C51.2394 16.4583 50.9534 16.6923 50.5808 16.857C50.2168 17.013 49.7748 17.091 49.2548 17.091C48.7348 17.091 48.2798 17.0043 47.8898 16.831C47.4998 16.649 47.1964 16.402 46.9798 16.09C46.7718 15.7693 46.6678 15.4097 46.6678 15.011C46.6678 14.387 46.8974 13.8887 47.3568 13.516C47.8248 13.1347 48.5571 12.944 49.5538 12.944L51.3478 12.944V12.84C51.3478 12.3547 51.2004 11.982 50.9058 11.722C50.6198 11.462 50.1908 11.332 49.6188 11.332C49.2288 11.332 48.8431 11.3927 48.4618 11.514C48.0891 11.6353 47.7728 11.8043 47.5128 12.021L46.8758 10.838C47.2398 10.5607 47.6774 10.3483 48.1888 10.201C48.7001 10.0537 49.2418 9.98 49.8138 9.98ZM49.5928 15.908C50.0001 15.908 50.3598 15.817 50.6718 15.635C50.9924 15.4443 51.2178 15.1757 51.3478 14.829V14.023L49.6708 14.023C48.7348 14.023 48.2668 14.3307 48.2668 14.946C48.2668 15.2407 48.3838 15.4747 48.6178 15.648C48.8518 15.8213 49.1768 15.908 49.5928 15.908ZM57.8696 14.218H56.6086V17L54.9836 17V10.058H56.6086V12.866H57.9086L59.9626 10.058L61.7046 10.058L59.1826 13.399L61.8736 17H59.9626L57.8696 14.218ZM65.4798 9.98C66.5024 9.98 67.2824 10.227 67.8198 10.721C68.3658 11.2063 68.6388 11.943 68.6388 12.931V17H67.1048V16.155C66.9054 16.4583 66.6194 16.6923 66.2468 16.857C65.8828 17.013 65.4408 17.091 64.9208 17.091C64.4008 17.091 63.9458 17.0043 63.5558 16.831C63.1658 16.649 62.8624 16.402 62.6458 16.09C62.4378 15.7693 62.3338 15.4097 62.3338 15.011C62.3338 14.387 62.5634 13.8887 63.0228 13.516C63.4908 13.1347 64.2231 12.944 65.2198 12.944H67.0138V12.84C67.0138 12.3547 66.8664 11.982 66.5718 11.722C66.2858 11.462 65.8568 11.332 65.2848 11.332C64.8948 11.332 64.5091 11.3927 64.1278 11.514C63.7551 11.6353 63.4388 11.8043 63.1788 12.021L62.5418 10.838C62.9058 10.5607 63.3434 10.3483 63.8548 10.201C64.3661 10.0537 64.9078 9.98 65.4798 9.98ZM65.2588 15.908C65.6661 15.908 66.0258 15.817 66.3378 15.635C66.6584 15.4443 66.8838 15.1757 67.0138 14.829V14.023H65.3368C64.4008 14.023 63.9328 14.3307 63.9328 14.946C63.9328 15.2407 64.0498 15.4747 64.2838 15.648C64.5178 15.8213 64.8428 15.908 65.2588 15.908ZM74.7078 13.386C75.1411 13.5073 75.4748 13.7067 75.7088 13.984C75.9514 14.2527 76.0728 14.5777 76.0728 14.959C76.0728 15.3837 75.9298 15.7607 75.6438 16.09C75.3578 16.4107 74.9634 16.662 74.4608 16.844C73.9581 17.026 73.3861 17.117 72.7448 17.117C72.2074 17.117 71.6831 17.0563 71.1718 16.935C70.6604 16.805 70.1968 16.623 69.7808 16.389L70.2488 15.18C70.5868 15.3707 70.9681 15.518 71.3928 15.622C71.8174 15.726 72.2421 15.778 72.6668 15.778C73.2128 15.778 73.6374 15.6957 73.9408 15.531C74.2528 15.3577 74.4088 15.1237 74.4088 14.829C74.4088 14.5603 74.2874 14.3523 74.0448 14.205C73.8108 14.0577 73.4771 13.984 73.0438 13.984L71.6918 13.984V12.892L72.9138 12.892C73.3211 12.892 73.6374 12.8227 73.8628 12.684C74.0968 12.5453 74.2138 12.3503 74.2138 12.099C74.2138 11.8477 74.0751 11.6483 73.7978 11.501C73.5204 11.3537 73.1391 11.28 72.6538 11.28C71.9604 11.28 71.2281 11.449 70.4568 11.787L70.0408 10.591C70.9508 10.1663 71.8694 9.954 72.7968 9.954C73.3861 9.954 73.9148 10.0363 74.3828 10.201C74.8508 10.357 75.2148 10.5823 75.4748 10.877C75.7434 11.163 75.8778 11.4923 75.8778 11.865C75.8778 12.203 75.7738 12.5063 75.5658 12.775C75.3578 13.035 75.0718 13.2387 74.7078 13.386ZM80.346 9.98C81.3687 9.98 82.1487 10.227 82.686 10.721C83.232 11.2063 83.505 11.943 83.505 12.931V17H81.971V16.155C81.7717 16.4583 81.4857 16.6923 81.113 16.857C80.749 17.013 80.307 17.091 79.787 17.091C79.267 17.091 78.812 17.0043 78.422 16.831C78.032 16.649 77.7287 16.402 77.512 16.09C77.304 15.7693 77.2 15.4097 77.2 15.011C77.2 14.387 77.4297 13.8887 77.889 13.516C78.357 13.1347 79.0893 12.944 80.086 12.944H81.88V12.84C81.88 12.3547 81.7327 11.982 81.438 11.722C81.152 11.462 80.723 11.332 80.151 11.332C79.761 11.332 79.3753 11.3927 78.994 11.514C78.6213 11.6353 78.305 11.8043 78.045 12.021L77.408 10.838C77.772 10.5607 78.2097 10.3483 78.721 10.201C79.2323 10.0537 79.774 9.98 80.346 9.98ZM80.125 15.908C80.5323 15.908 80.892 15.817 81.204 15.635C81.5247 15.4443 81.75 15.1757 81.88 14.829V14.023H80.203C79.267 14.023 78.799 14.3307 78.799 14.946C78.799 15.2407 78.916 15.4747 79.15 15.648C79.384 15.8213 79.709 15.908 80.125 15.908Z" fill="white"/>
<path d="M91.628 91.165H89.938V95H88.274V85.9H89.938V89.709H91.68L94.293 85.9H96.087L92.98 90.307L96.204 95H94.293L91.628 91.165ZM100.174 95.091C99.4723 95.091 98.8396 94.9393 98.2763 94.636C97.7129 94.3327 97.2709 93.9123 96.9503 93.375C96.6383 92.829 96.4823 92.2137 96.4823 91.529C96.4823 90.8443 96.6383 90.2333 96.9503 89.696C97.2709 89.1587 97.7129 88.7383 98.2763 88.435C98.8396 88.1317 99.4723 87.98 100.174 87.98C100.885 87.98 101.522 88.1317 102.085 88.435C102.649 88.7383 103.086 89.1587 103.398 89.696C103.719 90.2333 103.879 90.8443 103.879 91.529C103.879 92.2137 103.719 92.829 103.398 93.375C103.086 93.9123 102.649 94.3327 102.085 94.636C101.522 94.9393 100.885 95.091 100.174 95.091ZM100.174 93.7C100.772 93.7 101.266 93.5007 101.656 93.102C102.046 92.7033 102.241 92.179 102.241 91.529C102.241 90.879 102.046 90.3547 101.656 89.956C101.266 89.5573 100.772 89.358 100.174 89.358C99.5763 89.358 99.0823 89.5573 98.6923 89.956C98.3109 90.3547 98.1203 90.879 98.1203 91.529C98.1203 92.179 98.3109 92.7033 98.6923 93.102C99.0823 93.5007 99.5763 93.7 100.174 93.7ZM105.485 88.058H107.11V90.879H110.607V88.058H112.232V95H110.607V92.257H107.11V95H105.485V88.058ZM120.909 91.568C120.909 91.6807 120.901 91.841 120.883 92.049H115.436C115.532 92.5603 115.779 92.9677 116.177 93.271C116.585 93.5657 117.087 93.713 117.685 93.713C118.448 93.713 119.076 93.4617 119.57 92.959L120.441 93.96C120.129 94.3327 119.735 94.6143 119.258 94.805C118.782 94.9957 118.244 95.091 117.646 95.091C116.884 95.091 116.212 94.9393 115.631 94.636C115.051 94.3327 114.6 93.9123 114.279 93.375C113.967 92.829 113.811 92.2137 113.811 91.529C113.811 90.853 113.963 90.2463 114.266 89.709C114.578 89.163 115.007 88.7383 115.553 88.435C116.099 88.1317 116.715 87.98 117.399 87.98C118.075 87.98 118.678 88.1317 119.206 88.435C119.744 88.7297 120.16 89.15 120.454 89.696C120.758 90.2333 120.909 90.8573 120.909 91.568ZM117.399 89.28C116.879 89.28 116.437 89.436 116.073 89.748C115.718 90.0513 115.501 90.4587 115.423 90.97H119.362C119.293 90.4673 119.081 90.06 118.725 89.748C118.37 89.436 117.928 89.28 117.399 89.28ZM130.305 93.622V96.599H128.784V95H122.687V88.058H124.312V93.622H127.627V88.058H129.252V93.622H130.305ZM138.503 95.091C137.784 95.091 137.138 94.9393 136.566 94.636C135.994 94.3327 135.548 93.9123 135.227 93.375C134.906 92.829 134.746 92.2137 134.746 91.529C134.746 90.8443 134.906 90.2333 135.227 89.696C135.548 89.1587 135.99 88.7383 136.553 88.435C137.125 88.1317 137.775 87.98 138.503 87.98C139.188 87.98 139.786 88.1187 140.297 88.396C140.817 88.6733 141.207 89.072 141.467 89.592L140.219 90.32C140.02 89.9993 139.768 89.761 139.465 89.605C139.17 89.4403 138.845 89.358 138.49 89.358C137.883 89.358 137.381 89.5573 136.982 89.956C136.583 90.346 136.384 90.8703 136.384 91.529C136.384 92.1877 136.579 92.7163 136.969 93.115C137.368 93.505 137.875 93.7 138.49 93.7C138.845 93.7 139.17 93.622 139.465 93.466C139.768 93.3013 140.02 93.0587 140.219 92.738L141.467 93.466C141.198 93.986 140.804 94.389 140.284 94.675C139.773 94.9523 139.179 95.091 138.503 95.091ZM146.591 88.396C147.25 88.396 147.831 88.539 148.333 88.825C148.836 89.1023 149.226 89.4923 149.503 89.995C149.789 90.4977 149.932 91.074 149.932 91.724C149.932 92.3913 149.776 92.985 149.464 93.505C149.152 94.0163 148.715 94.415 148.151 94.701C147.588 94.987 146.947 95.13 146.227 95.13C145.023 95.13 144.091 94.7313 143.432 93.934C142.774 93.1367 142.444 91.9883 142.444 90.489C142.444 89.0937 142.743 87.9887 143.341 87.174C143.939 86.3593 144.854 85.822 146.084 85.562L149.308 84.873L149.542 86.329L146.617 86.927C145.777 87.1003 145.148 87.395 144.732 87.811C144.316 88.227 144.074 88.812 144.004 89.566C144.316 89.1933 144.693 88.9073 145.135 88.708C145.577 88.5 146.063 88.396 146.591 88.396ZM146.266 93.817C146.864 93.817 147.345 93.6263 147.709 93.245C148.082 92.855 148.268 92.361 148.268 91.763C148.268 91.165 148.082 90.684 147.709 90.32C147.345 89.956 146.864 89.774 146.266 89.774C145.66 89.774 145.17 89.956 144.797 90.32C144.425 90.684 144.238 91.165 144.238 91.763C144.238 92.3697 144.425 92.8637 144.797 93.245C145.179 93.6263 145.668 93.817 146.266 93.817ZM154.599 95.091C153.897 95.091 153.264 94.9393 152.701 94.636C152.138 94.3327 151.696 93.9123 151.375 93.375C151.063 92.829 150.907 92.2137 150.907 91.529C150.907 90.8443 151.063 90.2333 151.375 89.696C151.696 89.1587 152.138 88.7383 152.701 88.435C153.264 88.1317 153.897 87.98 154.599 87.98C155.31 87.98 155.947 88.1317 156.51 88.435C157.073 88.7383 157.511 89.1587 157.823 89.696C158.144 90.2333 158.304 90.8443 158.304 91.529C158.304 92.2137 158.144 92.829 157.823 93.375C157.511 93.9123 157.073 94.3327 156.51 94.636C155.947 94.9393 155.31 95.091 154.599 95.091ZM154.599 93.7C155.197 93.7 155.691 93.5007 156.081 93.102C156.471 92.7033 156.666 92.179 156.666 91.529C156.666 90.879 156.471 90.3547 156.081 89.956C155.691 89.5573 155.197 89.358 154.599 89.358C154.001 89.358 153.507 89.5573 153.117 89.956C152.736 90.3547 152.545 90.879 152.545 91.529C152.545 92.179 152.736 92.7033 153.117 93.102C153.507 93.5007 154.001 93.7 154.599 93.7ZM163.757 87.98C164.433 87.98 165.036 88.1273 165.564 88.422C166.102 88.7167 166.522 89.1327 166.825 89.67C167.129 90.2073 167.28 90.827 167.28 91.529C167.28 92.231 167.129 92.855 166.825 93.401C166.522 93.9383 166.102 94.3543 165.564 94.649C165.036 94.9437 164.433 95.091 163.757 95.091C162.821 95.091 162.08 94.779 161.534 94.155V97.522H159.909V88.058H161.456V88.968C161.725 88.6387 162.054 88.3917 162.444 88.227C162.843 88.0623 163.281 87.98 163.757 87.98ZM163.575 93.7C164.173 93.7 164.663 93.5007 165.044 93.102C165.434 92.7033 165.629 92.179 165.629 91.529C165.629 90.879 165.434 90.3547 165.044 89.956C164.663 89.5573 164.173 89.358 163.575 89.358C163.185 89.358 162.834 89.449 162.522 89.631C162.21 89.8043 161.963 90.0557 161.781 90.385C161.599 90.7143 161.508 91.0957 161.508 91.529C161.508 91.9623 161.599 92.3437 161.781 92.673C161.963 93.0023 162.21 93.258 162.522 93.44C162.834 93.6133 163.185 93.7 163.575 93.7ZM171.396 87.98C172.418 87.98 173.198 88.227 173.736 88.721C174.282 89.2063 174.555 89.943 174.555 90.931V95H173.021V94.155C172.821 94.4583 172.535 94.6923 172.163 94.857C171.799 95.013 171.357 95.091 170.837 95.091C170.317 95.091 169.862 95.0043 169.472 94.831C169.082 94.649 168.778 94.402 168.562 94.09C168.354 93.7693 168.25 93.4097 168.25 93.011C168.25 92.387 168.479 91.8887 168.939 91.516C169.407 91.1347 170.139 90.944 171.136 90.944H172.93V90.84C172.93 90.3547 172.782 89.982 172.488 89.722C172.202 89.462 171.773 89.332 171.201 89.332C170.811 89.332 170.425 89.3927 170.044 89.514C169.671 89.6353 169.355 89.8043 169.095 90.021L168.458 88.838C168.822 88.5607 169.259 88.3483 169.771 88.201C170.282 88.0537 170.824 87.98 171.396 87.98ZM171.175 93.908C171.582 93.908 171.942 93.817 172.254 93.635C172.574 93.4443 172.8 93.1757 172.93 92.829V92.023H171.253C170.317 92.023 169.849 92.3307 169.849 92.946C169.849 93.2407 169.966 93.4747 170.2 93.648C170.434 93.8213 170.759 93.908 171.175 93.908ZM184.305 91.386C184.739 91.5073 185.072 91.7067 185.306 91.984C185.549 92.2527 185.67 92.5777 185.67 92.959C185.67 93.3837 185.527 93.7607 185.241 94.09C184.955 94.4107 184.561 94.662 184.058 94.844C183.556 95.026 182.984 95.117 182.342 95.117C181.805 95.117 181.281 95.0563 180.769 94.935C180.258 94.805 179.794 94.623 179.378 94.389L179.846 93.18C180.184 93.3707 180.566 93.518 180.99 93.622C181.415 93.726 181.84 93.778 182.264 93.778C182.81 93.778 183.235 93.6957 183.538 93.531C183.85 93.3577 184.006 93.1237 184.006 92.829C184.006 92.5603 183.885 92.3523 183.642 92.205C183.408 92.0577 183.075 91.984 182.641 91.984H181.289V90.892H182.511C182.919 90.892 183.235 90.8227 183.46 90.684C183.694 90.5453 183.811 90.3503 183.811 90.099C183.811 89.8477 183.673 89.6483 183.395 89.501C183.118 89.3537 182.737 89.28 182.251 89.28C181.558 89.28 180.826 89.449 180.054 89.787L179.638 88.591C180.548 88.1663 181.467 87.954 182.394 87.954C182.984 87.954 183.512 88.0363 183.98 88.201C184.448 88.357 184.812 88.5823 185.072 88.877C185.341 89.163 185.475 89.4923 185.475 89.865C185.475 90.203 185.371 90.5063 185.163 90.775C184.955 91.035 184.669 91.2387 184.305 91.386ZM189.944 87.98C190.966 87.98 191.746 88.227 192.284 88.721C192.83 89.2063 193.103 89.943 193.103 90.931V95H191.569V94.155C191.369 94.4583 191.083 94.6923 190.711 94.857C190.347 95.013 189.905 95.091 189.385 95.091C188.865 95.091 188.41 95.0043 188.02 94.831C187.63 94.649 187.326 94.402 187.11 94.09C186.902 93.7693 186.798 93.4097 186.798 93.011C186.798 92.387 187.027 91.8887 187.487 91.516C187.955 91.1347 188.687 90.944 189.684 90.944H191.478V90.84C191.478 90.3547 191.33 89.982 191.036 89.722C190.75 89.462 190.321 89.332 189.749 89.332C189.359 89.332 188.973 89.3927 188.592 89.514C188.219 89.6353 187.903 89.8043 187.643 90.021L187.006 88.838C187.37 88.5607 187.807 88.3483 188.319 88.201C188.83 88.0537 189.372 87.98 189.944 87.98ZM189.723 93.908C190.13 93.908 190.49 93.817 190.802 93.635C191.122 93.4443 191.348 93.1757 191.478 92.829V92.023H189.801C188.865 92.023 188.397 92.3307 188.397 92.946C188.397 93.2407 188.514 93.4747 188.748 93.648C188.982 93.8213 189.307 93.908 189.723 93.908ZM197.999 92.218H196.738V95H195.113V88.058H196.738V90.866H198.038L200.092 88.058H201.834L199.312 91.399L202.003 95H200.092L197.999 92.218ZM205.61 87.98C206.632 87.98 207.412 88.227 207.95 88.721C208.496 89.2063 208.769 89.943 208.769 90.931V95H207.235V94.155C207.035 94.4583 206.749 94.6923 206.377 94.857C206.013 95.013 205.571 95.091 205.051 95.091C204.531 95.091 204.076 95.0043 203.686 94.831C203.296 94.649 202.992 94.402 202.776 94.09C202.568 93.7693 202.464 93.4097 202.464 93.011C202.464 92.387 202.693 91.8887 203.153 91.516C203.621 91.1347 204.353 90.944 205.35 90.944H207.144V90.84C207.144 90.3547 206.996 89.982 206.702 89.722C206.416 89.462 205.987 89.332 205.415 89.332C205.025 89.332 204.639 89.3927 204.258 89.514C203.885 89.6353 203.569 89.8043 203.309 90.021L202.672 88.838C203.036 88.5607 203.473 88.3483 203.985 88.201C204.496 88.0537 205.038 87.98 205.61 87.98ZM205.389 93.908C205.796 93.908 206.156 93.817 206.468 93.635C206.788 93.4443 207.014 93.1757 207.144 92.829V92.023H205.467C204.531 92.023 204.063 92.3307 204.063 92.946C204.063 93.2407 204.18 93.4747 204.414 93.648C204.648 93.8213 204.973 93.908 205.389 93.908ZM214.838 91.386C215.271 91.5073 215.605 91.7067 215.839 91.984C216.081 92.2527 216.203 92.5777 216.203 92.959C216.203 93.3837 216.06 93.7607 215.774 94.09C215.488 94.4107 215.093 94.662 214.591 94.844C214.088 95.026 213.516 95.117 212.875 95.117C212.337 95.117 211.813 95.0563 211.302 94.935C210.79 94.805 210.327 94.623 209.911 94.389L210.379 93.18C210.717 93.3707 211.098 93.518 211.523 93.622C211.947 93.726 212.372 93.778 212.797 93.778C213.343 93.778 213.767 93.6957 214.071 93.531C214.383 93.3577 214.539 93.1237 214.539 92.829C214.539 92.5603 214.417 92.3523 214.175 92.205C213.941 92.0577 213.607 91.984 213.174 91.984H211.822V90.892H213.044C213.451 90.892 213.767 90.8227 213.993 90.684C214.227 90.5453 214.344 90.3503 214.344 90.099C214.344 89.8477 214.205 89.6483 213.928 89.501C213.65 89.3537 213.269 89.28 212.784 89.28C212.09 89.28 211.358 89.449 210.587 89.787L210.171 88.591C211.081 88.1663 211.999 87.954 212.927 87.954C213.516 87.954 214.045 88.0363 214.513 88.201C214.981 88.357 215.345 88.5823 215.605 88.877C215.873 89.163 216.008 89.4923 216.008 89.865C216.008 90.203 215.904 90.5063 215.696 90.775C215.488 91.035 215.202 91.2387 214.838 91.386ZM220.983 95.091C220.281 95.091 219.648 94.9393 219.085 94.636C218.522 94.3327 218.08 93.9123 217.759 93.375C217.447 92.829 217.291 92.2137 217.291 91.529C217.291 90.8443 217.447 90.2333 217.759 89.696C218.08 89.1587 218.522 88.7383 219.085 88.435C219.648 88.1317 220.281 87.98 220.983 87.98C221.694 87.98 222.331 88.1317 222.894 88.435C223.457 88.7383 223.895 89.1587 224.207 89.696C224.528 90.2333 224.688 90.8443 224.688 91.529C224.688 92.2137 224.528 92.829 224.207 93.375C223.895 93.9123 223.457 94.3327 222.894 94.636C222.331 94.9393 221.694 95.091 220.983 95.091ZM220.983 93.7C221.581 93.7 222.075 93.5007 222.465 93.102C222.855 92.7033 223.05 92.179 223.05 91.529C223.05 90.879 222.855 90.3547 222.465 89.956C222.075 89.5573 221.581 89.358 220.983 89.358C220.385 89.358 219.891 89.5573 219.501 89.956C219.12 90.3547 218.929 90.879 218.929 91.529C218.929 92.179 219.12 92.7033 219.501 93.102C219.891 93.5007 220.385 93.7 220.983 93.7ZM231.324 91.386C232.182 91.646 232.611 92.2007 232.611 93.05C232.611 93.674 232.377 94.155 231.909 94.493C231.441 94.831 230.748 95 229.829 95H226.293V88.058H229.686C230.536 88.058 231.199 88.214 231.675 88.526C232.152 88.838 232.39 89.28 232.39 89.852C232.39 90.2073 232.295 90.515 232.104 90.775C231.922 91.035 231.662 91.2387 231.324 91.386ZM227.84 90.957H229.543C230.384 90.957 230.804 90.6667 230.804 90.086C230.804 89.5227 230.384 89.241 229.543 89.241H227.84V90.957ZM229.699 93.817C230.592 93.817 231.038 93.5267 231.038 92.946C231.038 92.6427 230.934 92.4173 230.726 92.27C230.518 92.114 230.193 92.036 229.751 92.036H227.84V93.817H229.699Z" fill="white"/>
<path d="M285.296 127.57V130.937H283.736V129H276.755V130.937H275.182L275.195 127.57H275.585C276.157 127.544 276.556 127.124 276.781 126.309C277.015 125.486 277.158 124.311 277.21 122.786L277.314 119.9H283.983V127.57H285.296ZM278.692 122.942C278.649 124.121 278.553 125.104 278.406 125.893C278.259 126.673 278.025 127.232 277.704 127.57H282.319V121.33H278.757L278.692 122.942ZM293.078 125.568C293.078 125.681 293.07 125.841 293.052 126.049H287.605C287.701 126.56 287.948 126.968 288.346 127.271C288.754 127.566 289.256 127.713 289.854 127.713C290.617 127.713 291.245 127.462 291.739 126.959L292.61 127.96C292.298 128.333 291.904 128.614 291.427 128.805C290.951 128.996 290.413 129.091 289.815 129.091C289.053 129.091 288.381 128.939 287.8 128.636C287.22 128.333 286.769 127.912 286.448 127.375C286.136 126.829 285.98 126.214 285.98 125.529C285.98 124.853 286.132 124.246 286.435 123.709C286.747 123.163 287.176 122.738 287.722 122.435C288.268 122.132 288.884 121.98 289.568 121.98C290.244 121.98 290.847 122.132 291.375 122.435C291.913 122.73 292.329 123.15 292.623 123.696C292.927 124.233 293.078 124.857 293.078 125.568ZM289.568 123.28C289.048 123.28 288.606 123.436 288.242 123.748C287.887 124.051 287.67 124.459 287.592 124.97H291.531C291.462 124.467 291.25 124.06 290.894 123.748C290.539 123.436 290.097 123.28 289.568 123.28ZM294.856 122.058H296.481V124.879H299.978V122.058H301.603V129H299.978V126.257H296.481V129H294.856V122.058ZM307.264 124.346C308.148 124.346 308.824 124.545 309.292 124.944C309.769 125.343 310.007 125.906 310.007 126.634C310.007 127.397 309.747 127.986 309.227 128.402C308.707 128.818 307.975 129.022 307.03 129.013L303.78 129V122.058H305.405V124.333L307.264 124.346ZM306.887 127.817C307.364 127.826 307.728 127.726 307.979 127.518C308.231 127.31 308.356 127.007 308.356 126.608C308.356 126.218 308.235 125.932 307.992 125.75C307.75 125.568 307.381 125.473 306.887 125.464L305.405 125.451V127.804L306.887 127.817ZM321.685 122.058V129H320.073V123.436H316.654V129H315.029V122.058H321.685ZM326.971 129.091C326.269 129.091 325.636 128.939 325.073 128.636C324.51 128.333 324.068 127.912 323.747 127.375C323.435 126.829 323.279 126.214 323.279 125.529C323.279 124.844 323.435 124.233 323.747 123.696C324.068 123.159 324.51 122.738 325.073 122.435C325.636 122.132 326.269 121.98 326.971 121.98C327.682 121.98 328.319 122.132 328.882 122.435C329.445 122.738 329.883 123.159 330.195 123.696C330.516 124.233 330.676 124.844 330.676 125.529C330.676 126.214 330.516 126.829 330.195 127.375C329.883 127.912 329.445 128.333 328.882 128.636C328.319 128.939 327.682 129.091 326.971 129.091ZM326.971 127.7C327.569 127.7 328.063 127.501 328.453 127.102C328.843 126.703 329.038 126.179 329.038 125.529C329.038 124.879 328.843 124.355 328.453 123.956C328.063 123.557 327.569 123.358 326.971 123.358C326.373 123.358 325.879 123.557 325.489 123.956C325.108 124.355 324.917 124.879 324.917 125.529C324.917 126.179 325.108 126.703 325.489 127.102C325.879 127.501 326.373 127.7 326.971 127.7ZM335.44 129.091C334.721 129.091 334.075 128.939 333.503 128.636C332.931 128.333 332.485 127.912 332.164 127.375C331.844 126.829 331.683 126.214 331.683 125.529C331.683 124.844 331.844 124.233 332.164 123.696C332.485 123.159 332.927 122.738 333.49 122.435C334.062 122.132 334.712 121.98 335.44 121.98C336.125 121.98 336.723 122.119 337.234 122.396C337.754 122.673 338.144 123.072 338.404 123.592L337.156 124.32C336.957 123.999 336.706 123.761 336.402 123.605C336.108 123.44 335.783 123.358 335.427 123.358C334.821 123.358 334.318 123.557 333.919 123.956C333.521 124.346 333.321 124.87 333.321 125.529C333.321 126.188 333.516 126.716 333.906 127.115C334.305 127.505 334.812 127.7 335.427 127.7C335.783 127.7 336.108 127.622 336.402 127.466C336.706 127.301 336.957 127.059 337.156 126.738L338.404 127.466C338.136 127.986 337.741 128.389 337.221 128.675C336.71 128.952 336.116 129.091 335.44 129.091ZM345.271 123.436H342.84V129H341.215V123.436H338.771V122.058H345.271V123.436ZM349.036 121.98C350.059 121.98 350.839 122.227 351.376 122.721C351.922 123.206 352.195 123.943 352.195 124.931V129H350.661V128.155C350.462 128.458 350.176 128.692 349.803 128.857C349.439 129.013 348.997 129.091 348.477 129.091C347.957 129.091 347.502 129.004 347.112 128.831C346.722 128.649 346.419 128.402 346.202 128.09C345.994 127.769 345.89 127.41 345.89 127.011C345.89 126.387 346.12 125.889 346.579 125.516C347.047 125.135 347.78 124.944 348.776 124.944H350.57V124.84C350.57 124.355 350.423 123.982 350.128 123.722C349.842 123.462 349.413 123.332 348.841 123.332C348.451 123.332 348.066 123.393 347.684 123.514C347.312 123.635 346.995 123.804 346.735 124.021L346.098 122.838C346.462 122.561 346.9 122.348 347.411 122.201C347.923 122.054 348.464 121.98 349.036 121.98ZM348.815 127.908C349.223 127.908 349.582 127.817 349.894 127.635C350.215 127.444 350.44 127.176 350.57 126.829V126.023H348.893C347.957 126.023 347.489 126.331 347.489 126.946C347.489 127.241 347.606 127.475 347.84 127.648C348.074 127.821 348.399 127.908 348.815 127.908ZM359.237 125.386C360.095 125.646 360.524 126.201 360.524 127.05C360.524 127.674 360.29 128.155 359.822 128.493C359.354 128.831 358.661 129 357.742 129H354.206V122.058H357.599C358.449 122.058 359.112 122.214 359.588 122.526C360.065 122.838 360.303 123.28 360.303 123.852C360.303 124.207 360.208 124.515 360.017 124.775C359.835 125.035 359.575 125.239 359.237 125.386ZM355.753 124.957H357.456C358.297 124.957 358.717 124.667 358.717 124.086C358.717 123.523 358.297 123.241 357.456 123.241H355.753V124.957ZM357.612 127.817C358.505 127.817 358.951 127.527 358.951 126.946C358.951 126.643 358.847 126.417 358.639 126.27C358.431 126.114 358.106 126.036 357.664 126.036H355.753V127.817H357.612ZM365.141 126.218H363.88V129H362.255V122.058H363.88V124.866H365.18L367.234 122.058H368.976L366.454 125.399L369.145 129H367.234L365.141 126.218ZM370.291 122.058H371.916V126.634L375.751 122.058H377.233V129L375.608 129V124.424L371.786 129H370.291V122.058Z" fill="white"/>
<path d="M11.24 203.06C10.5467 203.06 9.92 202.907 9.36 202.6C8.80667 202.293 8.37 201.87 8.05 201.33C7.73667 200.783 7.58 200.173 7.58 199.5C7.58 198.827 7.73667 198.22 8.05 197.68C8.37 197.133 8.81 196.707 9.37 196.4C9.93 196.093 10.5567 195.94 11.25 195.94C11.77 195.94 12.25 196.027 12.69 196.2C13.13 196.373 13.5033 196.627 13.81 196.96L13.34 197.43C12.7933 196.877 12.1033 196.6 11.27 196.6C10.7167 196.6 10.2133 196.727 9.76 196.98C9.30667 197.233 8.95 197.58 8.69 198.02C8.43667 198.46 8.31 198.953 8.31 199.5C8.31 200.047 8.43667 200.54 8.69 200.98C8.95 201.42 9.30667 201.767 9.76 202.02C10.2133 202.273 10.7167 202.4 11.27 202.4C12.11 202.4 12.8 202.12 13.34 201.56L13.81 202.03C13.5033 202.363 13.1267 202.62 12.68 202.8C12.24 202.973 11.76 203.06 11.24 203.06ZM17.5717 197.87C18.0584 197.87 18.4917 197.98 18.8717 198.2C19.2584 198.413 19.5584 198.717 19.7717 199.11C19.9851 199.497 20.0917 199.94 20.0917 200.44C20.0917 200.953 19.9784 201.41 19.7517 201.81C19.5317 202.203 19.2217 202.51 18.8217 202.73C18.4217 202.95 17.9617 203.06 17.4417 203.06C16.5684 203.06 15.8917 202.753 15.4117 202.14C14.9317 201.527 14.6917 200.68 14.6917 199.6C14.6917 198.473 14.9051 197.61 15.3317 197.01C15.7651 196.41 16.4384 196.003 17.3517 195.79L19.7117 195.25L19.8317 195.9L17.6117 196.41C16.8584 196.577 16.3051 196.873 15.9517 197.3C15.5984 197.72 15.4051 198.343 15.3717 199.17C15.5851 198.763 15.8817 198.447 16.2617 198.22C16.6417 197.987 17.0784 197.87 17.5717 197.87ZM17.4617 202.47C17.8284 202.47 18.1551 202.387 18.4417 202.22C18.7351 202.047 18.9617 201.807 19.1217 201.5C19.2884 201.193 19.3717 200.847 19.3717 200.46C19.3717 200.073 19.2917 199.733 19.1317 199.44C18.9717 199.147 18.7451 198.92 18.4517 198.76C18.1651 198.593 17.8351 198.51 17.4617 198.51C17.0884 198.51 16.7551 198.593 16.4617 198.76C16.1751 198.92 15.9484 199.147 15.7817 199.44C15.6217 199.733 15.5417 200.073 15.5417 200.46C15.5417 200.847 15.6217 201.193 15.7817 201.5C15.9484 201.807 16.1784 202.047 16.4717 202.22C16.7651 202.387 17.0951 202.47 17.4617 202.47ZM23.7835 203.05C23.2768 203.05 22.8202 202.937 22.4135 202.71C22.0068 202.477 21.6868 202.157 21.4535 201.75C21.2202 201.343 21.1035 200.883 21.1035 200.37C21.1035 199.857 21.2202 199.397 21.4535 198.99C21.6868 198.583 22.0068 198.267 22.4135 198.04C22.8202 197.813 23.2768 197.7 23.7835 197.7C24.2902 197.7 24.7468 197.813 25.1535 198.04C25.5602 198.267 25.8768 198.583 26.1035 198.99C26.3368 199.397 26.4535 199.857 26.4535 200.37C26.4535 200.883 26.3368 201.343 26.1035 201.75C25.8768 202.157 25.5602 202.477 25.1535 202.71C24.7468 202.937 24.2902 203.05 23.7835 203.05ZM23.7835 202.42C24.1568 202.42 24.4902 202.337 24.7835 202.17C25.0835 201.997 25.3168 201.753 25.4835 201.44C25.6502 201.127 25.7335 200.77 25.7335 200.37C25.7335 199.97 25.6502 199.613 25.4835 199.3C25.3168 198.987 25.0835 198.747 24.7835 198.58C24.4902 198.407 24.1568 198.32 23.7835 198.32C23.4102 198.32 23.0735 198.407 22.7735 198.58C22.4802 198.747 22.2468 198.987 22.0735 199.3C21.9068 199.613 21.8235 199.97 21.8235 200.37C21.8235 200.77 21.9068 201.127 22.0735 201.44C22.2468 201.753 22.4802 201.997 22.7735 202.17C23.0735 202.337 23.4102 202.42 23.7835 202.42ZM30.6809 197.7C31.1743 197.7 31.6209 197.813 32.0209 198.04C32.4209 198.26 32.7343 198.573 32.9609 198.98C33.1876 199.387 33.3009 199.85 33.3009 200.37C33.3009 200.897 33.1876 201.363 32.9609 201.77C32.7343 202.177 32.4209 202.493 32.0209 202.72C31.6276 202.94 31.1809 203.05 30.6809 203.05C30.2543 203.05 29.8676 202.963 29.5209 202.79C29.1809 202.61 28.9009 202.35 28.6809 202.01V204.94H27.9709L27.9709 197.74H28.6509V198.78C28.8643 198.433 29.1443 198.167 29.4909 197.98C29.8443 197.793 30.2409 197.7 30.6809 197.7ZM30.6309 202.42C30.9976 202.42 31.3309 202.337 31.6309 202.17C31.9309 201.997 32.1643 201.753 32.3309 201.44C32.5043 201.127 32.5909 200.77 32.5909 200.37C32.5909 199.97 32.5043 199.617 32.3309 199.31C32.1643 198.997 31.9309 198.753 31.6309 198.58C31.3309 198.407 30.9976 198.32 30.6309 198.32C30.2576 198.32 29.9209 198.407 29.6209 198.58C29.3276 198.753 29.0943 198.997 28.9209 199.31C28.7543 199.617 28.6709 199.97 28.6709 200.37C28.6709 200.77 28.7543 201.127 28.9209 201.44C29.0943 201.753 29.3276 201.997 29.6209 202.17C29.9209 202.337 30.2576 202.42 30.6309 202.42ZM40.0036 200.26C40.3769 200.347 40.6636 200.497 40.8636 200.71C41.0703 200.923 41.1736 201.183 41.1736 201.49C41.1736 201.797 41.0669 202.07 40.8536 202.31C40.6469 202.55 40.3636 202.737 40.0036 202.87C39.6436 202.997 39.2469 203.06 38.8136 203.06C38.4336 203.06 38.0603 203.007 37.6936 202.9C37.3269 202.787 37.0069 202.623 36.7336 202.41L36.9736 201.88C37.2136 202.06 37.4936 202.2 37.8136 202.3C38.1336 202.4 38.4569 202.45 38.7836 202.45C39.2703 202.45 39.6669 202.36 39.9736 202.18C40.2869 201.993 40.4436 201.743 40.4436 201.43C40.4436 201.15 40.3169 200.933 40.0636 200.78C39.8103 200.62 39.4636 200.54 39.0236 200.54H38.1236V200.02H38.9836C39.3769 200.02 39.6936 199.947 39.9336 199.8C40.1736 199.647 40.2936 199.443 40.2936 199.19C40.2936 198.91 40.1569 198.69 39.8836 198.53C39.6169 198.37 39.2669 198.29 38.8336 198.29C38.2669 198.29 37.7069 198.433 37.1536 198.72L36.9536 198.17C37.5803 197.843 38.2303 197.68 38.9036 197.68C39.3036 197.68 39.6636 197.74 39.9836 197.86C40.3103 197.973 40.5636 198.137 40.7436 198.35C40.9303 198.563 41.0236 198.81 41.0236 199.09C41.0236 199.357 40.9303 199.593 40.7436 199.8C40.5636 200.007 40.3169 200.16 40.0036 200.26ZM44.5954 197.7C45.2821 197.7 45.8087 197.873 46.1754 198.22C46.5421 198.56 46.7254 199.067 46.7254 199.74V203H46.0454V202.18C45.8854 202.453 45.6487 202.667 45.3354 202.82C45.0287 202.973 44.6621 203.05 44.2354 203.05C43.6487 203.05 43.1821 202.91 42.8354 202.63C42.4887 202.35 42.3154 201.98 42.3154 201.52C42.3154 201.073 42.4754 200.713 42.7954 200.44C43.1221 200.167 43.6387 200.03 44.3454 200.03H46.0154V199.71C46.0154 199.257 45.8887 198.913 45.6354 198.68C45.3821 198.44 45.0121 198.32 44.5254 198.32C44.1921 198.32 43.8721 198.377 43.5654 198.49C43.2587 198.597 42.9954 198.747 42.7754 198.94L42.4554 198.41C42.7221 198.183 43.0421 198.01 43.4154 197.89C43.7887 197.763 44.1821 197.7 44.5954 197.7ZM44.3454 202.49C44.7454 202.49 45.0887 202.4 45.3754 202.22C45.6621 202.033 45.8754 201.767 46.0154 201.42V200.56H44.3654C43.4654 200.56 43.0154 200.873 43.0154 201.5C43.0154 201.807 43.1321 202.05 43.3654 202.23C43.5987 202.403 43.9254 202.49 44.3454 202.49ZM50.5255 200.66H49.3255V203H48.6155V197.74H49.3255V200.05H50.5355L52.3855 197.74H53.1555L51.0855 200.29L53.3055 203H52.4655L50.5255 200.66ZM56.1384 197.7C56.825 197.7 57.3517 197.873 57.7184 198.22C58.085 198.56 58.2684 199.067 58.2684 199.74V203H57.5884V202.18C57.4284 202.453 57.1917 202.667 56.8784 202.82C56.5717 202.973 56.205 203.05 55.7784 203.05C55.1917 203.05 54.725 202.91 54.3784 202.63C54.0317 202.35 53.8584 201.98 53.8584 201.52C53.8584 201.073 54.0184 200.713 54.3384 200.44C54.665 200.167 55.1817 200.03 55.8884 200.03H57.5584V199.71C57.5584 199.257 57.4317 198.913 57.1784 198.68C56.925 198.44 56.555 198.32 56.0684 198.32C55.735 198.32 55.415 198.377 55.1084 198.49C54.8017 198.597 54.5384 198.747 54.3184 198.94L53.9984 198.41C54.265 198.183 54.585 198.01 54.9584 197.89C55.3317 197.763 55.725 197.7 56.1384 197.7ZM55.8884 202.49C56.2884 202.49 56.6317 202.4 56.9184 202.22C57.205 202.033 57.4184 201.767 57.5584 201.42V200.56H55.9084C55.0084 200.56 54.5584 200.873 54.5584 201.5C54.5584 201.807 54.675 202.05 54.9084 202.23C55.1417 202.403 55.4684 202.49 55.8884 202.49ZM62.611 200.26C62.9843 200.347 63.271 200.497 63.471 200.71C63.6777 200.923 63.781 201.183 63.781 201.49C63.781 201.797 63.6743 202.07 63.461 202.31C63.2543 202.55 62.971 202.737 62.611 202.87C62.251 202.997 61.8543 203.06 61.421 203.06C61.041 203.06 60.6677 203.007 60.301 202.9C59.9343 202.787 59.6143 202.623 59.341 202.41L59.581 201.88C59.821 202.06 60.101 202.2 60.421 202.3C60.741 202.4 61.0643 202.45 61.391 202.45C61.8777 202.45 62.2743 202.36 62.581 202.18C62.8943 201.993 63.051 201.743 63.051 201.43C63.051 201.15 62.9243 200.933 62.671 200.78C62.4177 200.62 62.071 200.54 61.631 200.54H60.731V200.02H61.591C61.9843 200.02 62.301 199.947 62.541 199.8C62.781 199.647 62.901 199.443 62.901 199.19C62.901 198.91 62.7643 198.69 62.491 198.53C62.2243 198.37 61.8743 198.29 61.441 198.29C60.8743 198.29 60.3143 198.433 59.761 198.72L59.561 198.17C60.1877 197.843 60.8377 197.68 61.511 197.68C61.911 197.68 62.271 197.74 62.591 197.86C62.9177 197.973 63.171 198.137 63.351 198.35C63.5377 198.563 63.631 198.81 63.631 199.09C63.631 199.357 63.5377 199.593 63.351 199.8C63.171 200.007 62.9243 200.16 62.611 200.26ZM67.5628 203.05C67.0561 203.05 66.5995 202.937 66.1928 202.71C65.7861 202.477 65.4661 202.157 65.2328 201.75C64.9995 201.343 64.8828 200.883 64.8828 200.37C64.8828 199.857 64.9995 199.397 65.2328 198.99C65.4661 198.583 65.7861 198.267 66.1928 198.04C66.5995 197.813 67.0561 197.7 67.5628 197.7C68.0695 197.7 68.5261 197.813 68.9328 198.04C69.3395 198.267 69.6561 198.583 69.8828 198.99C70.1161 199.397 70.2328 199.857 70.2328 200.37C70.2328 200.883 70.1161 201.343 69.8828 201.75C69.6561 202.157 69.3395 202.477 68.9328 202.71C68.5261 202.937 68.0695 203.05 67.5628 203.05ZM67.5628 202.42C67.9361 202.42 68.2695 202.337 68.5628 202.17C68.8628 201.997 69.0961 201.753 69.2628 201.44C69.4295 201.127 69.5128 200.77 69.5128 200.37C69.5128 199.97 69.4295 199.613 69.2628 199.3C69.0961 198.987 68.8628 198.747 68.5628 198.58C68.2695 198.407 67.9361 198.32 67.5628 198.32C67.1895 198.32 66.8528 198.407 66.5528 198.58C66.2595 198.747 66.0261 198.987 65.8528 199.3C65.6861 199.613 65.6028 199.97 65.6028 200.37C65.6028 200.77 65.6861 201.127 65.8528 201.44C66.0261 201.753 66.2595 201.997 66.5528 202.17C66.8528 202.337 67.1895 202.42 67.5628 202.42ZM75.1002 200.28C75.8136 200.447 76.1702 200.877 76.1702 201.57C76.1702 202.03 76.0002 202.383 75.6602 202.63C75.3202 202.877 74.8136 203 74.1402 203H71.7502V197.74H74.0702C74.6702 197.74 75.1402 197.857 75.4802 198.09C75.8202 198.323 75.9902 198.657 75.9902 199.09C75.9902 199.377 75.9102 199.623 75.7502 199.83C75.5969 200.03 75.3802 200.18 75.1002 200.28ZM72.4402 200.08H74.0202C74.4269 200.08 74.7369 200.003 74.9502 199.85C75.1702 199.697 75.2802 199.473 75.2802 199.18C75.2802 198.887 75.1702 198.667 74.9502 198.52C74.7369 198.373 74.4269 198.3 74.0202 198.3H72.4402V200.08ZM74.1102 202.44C74.5636 202.44 74.9036 202.367 75.1302 202.22C75.3569 202.073 75.4702 201.843 75.4702 201.53C75.4702 201.217 75.3669 200.987 75.1602 200.84C74.9536 200.687 74.6269 200.61 74.1802 200.61H72.4402V202.44H74.1102Z" fill="white"/>
<g clip-path="url(#clip0_405_6806)">
<path d="M6.98424 223.738C6.7469 223.738 6.60449 223.523 6.60449 223.308V207.169C6.65196 206.953 6.79437 206.738 6.98424 206.738H21.1773C21.4146 206.738 21.557 206.953 21.557 207.169V223.254C21.557 223.523 21.3672 223.684 21.1773 223.684H6.98424V223.738ZM7.41145 222.824H20.845V207.599H16.2406V212.763C16.2406 212.979 16.0507 213.194 15.8608 213.194C15.8134 213.194 15.7184 213.194 15.6709 213.14L14.152 212.226L12.6804 213.14C12.538 213.194 12.4906 213.194 12.4431 213.194C12.3482 213.194 12.2532 213.14 12.1583 213.086C12.1108 213.032 12.0159 212.925 12.0159 212.763V207.599H7.41145V222.824ZM14.1045 211.365C14.152 211.365 14.2469 211.365 14.2944 211.419L15.4336 212.118V207.599H12.7754V212.064L13.9146 211.365C14.0096 211.365 14.057 211.365 14.1045 211.365ZM9.12031 220.726C8.88297 220.726 8.74057 220.51 8.74057 220.295C8.74057 220.08 8.93044 219.865 9.12031 219.865H13.2026C13.4399 219.865 13.5823 220.08 13.5823 220.295C13.5823 220.51 13.4399 220.726 13.2026 220.726H9.12031ZM9.12031 218.789C8.88297 218.789 8.74057 218.574 8.74057 218.358C8.74057 218.143 8.93044 217.928 9.12031 217.928H12.3482C12.5855 217.928 12.7279 218.143 12.7279 218.358C12.7279 218.574 12.538 218.789 12.3482 218.789H9.12031Z" fill="#227CE4"/>
</g>
<path d="M108.61 202.36V204.57H107.92V203H101.81L101.8 204.57H101.11L101.12 202.36H101.47C101.93 202.333 102.25 201.97 102.43 201.27C102.61 200.563 102.72 199.563 102.76 198.27L102.84 196H107.56V202.36H108.61ZM103.42 198.34C103.387 199.407 103.303 200.287 103.17 200.98C103.043 201.667 102.827 202.127 102.52 202.36H106.83V196.64H103.48L103.42 198.34ZM111.973 203.05C111.466 203.05 111.01 202.937 110.603 202.71C110.196 202.477 109.876 202.157 109.643 201.75C109.41 201.343 109.293 200.883 109.293 200.37C109.293 199.857 109.41 199.397 109.643 198.99C109.876 198.583 110.196 198.267 110.603 198.04C111.01 197.813 111.466 197.7 111.973 197.7C112.48 197.7 112.936 197.813 113.343 198.04C113.75 198.267 114.066 198.583 114.293 198.99C114.526 199.397 114.643 199.857 114.643 200.37C114.643 200.883 114.526 201.343 114.293 201.75C114.066 202.157 113.75 202.477 113.343 202.71C112.936 202.937 112.48 203.05 111.973 203.05ZM111.973 202.42C112.346 202.42 112.68 202.337 112.973 202.17C113.273 201.997 113.506 201.753 113.673 201.44C113.84 201.127 113.923 200.77 113.923 200.37C113.923 199.97 113.84 199.613 113.673 199.3C113.506 198.987 113.273 198.747 112.973 198.58C112.68 198.407 112.346 198.32 111.973 198.32C111.6 198.32 111.263 198.407 110.963 198.58C110.67 198.747 110.436 198.987 110.263 199.3C110.096 199.613 110.013 199.97 110.013 200.37C110.013 200.77 110.096 201.127 110.263 201.44C110.436 201.753 110.67 201.997 110.963 202.17C111.263 202.337 111.6 202.42 111.973 202.42ZM118.36 203.05C117.84 203.05 117.374 202.937 116.96 202.71C116.554 202.483 116.234 202.167 116 201.76C115.767 201.347 115.65 200.883 115.65 200.37C115.65 199.857 115.767 199.397 116 198.99C116.234 198.583 116.554 198.267 116.96 198.04C117.374 197.813 117.84 197.7 118.36 197.7C118.814 197.7 119.217 197.79 119.57 197.97C119.93 198.143 120.214 198.4 120.42 198.74L119.89 199.1C119.717 198.84 119.497 198.647 119.23 198.52C118.964 198.387 118.674 198.32 118.36 198.32C117.98 198.32 117.637 198.407 117.33 198.58C117.03 198.747 116.794 198.987 116.62 199.3C116.454 199.613 116.37 199.97 116.37 200.37C116.37 200.777 116.454 201.137 116.62 201.45C116.794 201.757 117.03 201.997 117.33 202.17C117.637 202.337 117.98 202.42 118.36 202.42C118.674 202.42 118.964 202.357 119.23 202.23C119.497 202.103 119.717 201.91 119.89 201.65L120.42 202.01C120.214 202.35 119.93 202.61 119.57 202.79C119.21 202.963 118.807 203.05 118.36 203.05ZM125.398 198.37H123.408V203H122.698V198.37H120.708V197.74H125.398V198.37ZM128.234 197.7C128.921 197.7 129.447 197.873 129.814 198.22C130.181 198.56 130.364 199.067 130.364 199.74V203H129.684V202.18C129.524 202.453 129.287 202.667 128.974 202.82C128.667 202.973 128.301 203.05 127.874 203.05C127.287 203.05 126.821 202.91 126.474 202.63C126.127 202.35 125.954 201.98 125.954 201.52C125.954 201.073 126.114 200.713 126.434 200.44C126.761 200.167 127.277 200.03 127.984 200.03H129.654V199.71C129.654 199.257 129.527 198.913 129.274 198.68C129.021 198.44 128.651 198.32 128.164 198.32C127.831 198.32 127.511 198.377 127.204 198.49C126.897 198.597 126.634 198.747 126.414 198.94L126.094 198.41C126.361 198.183 126.681 198.01 127.054 197.89C127.427 197.763 127.821 197.7 128.234 197.7ZM127.984 202.49C128.384 202.49 128.727 202.4 129.014 202.22C129.301 202.033 129.514 201.767 129.654 201.42V200.56H128.004C127.104 200.56 126.654 200.873 126.654 201.5C126.654 201.807 126.771 202.05 127.004 202.23C127.237 202.403 127.564 202.49 127.984 202.49ZM135.604 200.28C136.317 200.447 136.674 200.877 136.674 201.57C136.674 202.03 136.504 202.383 136.164 202.63C135.824 202.877 135.317 203 134.644 203H132.254V197.74H134.574C135.174 197.74 135.644 197.857 135.984 198.09C136.324 198.323 136.494 198.657 136.494 199.09C136.494 199.377 136.414 199.623 136.254 199.83C136.101 200.03 135.884 200.18 135.604 200.28ZM132.944 200.08H134.524C134.931 200.08 135.241 200.003 135.454 199.85C135.674 199.697 135.784 199.473 135.784 199.18C135.784 198.887 135.674 198.667 135.454 198.52C135.241 198.373 134.931 198.3 134.524 198.3H132.944V200.08ZM134.614 202.44C135.067 202.44 135.407 202.367 135.634 202.22C135.861 202.073 135.974 201.843 135.974 201.53C135.974 201.217 135.871 200.987 135.664 200.84C135.457 200.687 135.131 200.61 134.684 200.61H132.944V202.44H134.614ZM140.248 200.66H139.048V203H138.338V197.74H139.048V200.05H140.258L142.108 197.74H142.878L140.808 200.29L143.028 203H142.188L140.248 200.66ZM145.861 197.7C146.548 197.7 147.074 197.873 147.441 198.22C147.808 198.56 147.991 199.067 147.991 199.74V203H147.311V202.18C147.151 202.453 146.914 202.667 146.601 202.82C146.294 202.973 145.928 203.05 145.501 203.05C144.914 203.05 144.448 202.91 144.101 202.63C143.754 202.35 143.581 201.98 143.581 201.52C143.581 201.073 143.741 200.713 144.061 200.44C144.388 200.167 144.904 200.03 145.611 200.03H147.281V199.71C147.281 199.257 147.154 198.913 146.901 198.68C146.648 198.44 146.278 198.32 145.791 198.32C145.458 198.32 145.138 198.377 144.831 198.49C144.524 198.597 144.261 198.747 144.041 198.94L143.721 198.41C143.988 198.183 144.308 198.01 144.681 197.89C145.054 197.763 145.448 197.7 145.861 197.7ZM145.611 202.49C146.011 202.49 146.354 202.4 146.641 202.22C146.928 202.033 147.141 201.767 147.281 201.42V200.56H145.631C144.731 200.56 144.281 200.873 144.281 201.5C144.281 201.807 144.398 202.05 144.631 202.23C144.864 202.403 145.191 202.49 145.611 202.49ZM156.948 196V196.51L154.018 203H153.238L156.118 196.64H152.518V197.95H151.808V196H156.948ZM166.134 202.38V204.27H165.464V203H160.754V204.27H160.084V202.38H160.384C160.737 202.36 160.977 202.1 161.104 201.6C161.231 201.1 161.317 200.4 161.364 199.5L161.434 197.74H165.314V202.38H166.134ZM162.014 199.54C161.981 200.287 161.917 200.903 161.824 201.39C161.731 201.87 161.564 202.2 161.324 202.38H164.604V198.37H162.074L162.014 199.54ZM167.518 197.74H168.228V200.07H171.538V197.74H172.248V203H171.538V200.68H168.228V203H167.518V197.74ZM178.866 200.59H174.466C174.506 201.137 174.716 201.58 175.096 201.92C175.476 202.253 175.956 202.42 176.536 202.42C176.863 202.42 177.163 202.363 177.436 202.25C177.709 202.13 177.946 201.957 178.146 201.73L178.546 202.19C178.313 202.47 178.019 202.683 177.666 202.83C177.319 202.977 176.936 203.05 176.516 203.05C175.976 203.05 175.496 202.937 175.076 202.71C174.663 202.477 174.339 202.157 174.106 201.75C173.873 201.343 173.756 200.883 173.756 200.37C173.756 199.857 173.866 199.397 174.086 198.99C174.313 198.583 174.619 198.267 175.006 198.04C175.399 197.813 175.839 197.7 176.326 197.7C176.813 197.7 177.249 197.813 177.636 198.04C178.023 198.267 178.326 198.583 178.546 198.99C178.766 199.39 178.876 199.85 178.876 200.37L178.866 200.59ZM176.326 198.31C175.819 198.31 175.393 198.473 175.046 198.8C174.706 199.12 174.513 199.54 174.466 200.06H178.196C178.149 199.54 177.953 199.12 177.606 198.8C177.266 198.473 176.839 198.31 176.326 198.31ZM180.448 197.74H181.158V201.92L184.668 197.74H185.298V203H184.588V198.82L181.088 203H180.448V197.74ZM182.838 196.98C182.384 196.98 182.024 196.867 181.758 196.64C181.491 196.413 181.354 196.093 181.348 195.68H181.858C181.864 195.94 181.958 196.15 182.138 196.31C182.318 196.463 182.551 196.54 182.838 196.54C183.124 196.54 183.358 196.463 183.538 196.31C183.724 196.15 183.821 195.94 183.828 195.68H184.338C184.331 196.093 184.191 196.413 183.918 196.64C183.651 196.867 183.291 196.98 182.838 196.98Z" fill="white"/>
<g clip-path="url(#clip1_405_6806)">
<path d="M107.51 224C107.37 224 107.3 223.927 107.23 223.855C107.16 223.782 107.16 223.636 107.16 223.491L108.98 218.327H104.01C102.33 218.327 101 216.873 101 215.055V209.818C101 209.309 101.35 208.945 101.84 208.945C102.75 208.945 103.59 209.6 103.87 210.545L104.64 213.309C104.71 213.527 104.92 213.673 105.13 213.673H108.98L107.16 208.509C107.09 208.364 107.16 208.218 107.23 208.145C107.3 208.073 107.44 208 107.51 208H109.19C109.96 208 110.59 208.436 111.01 209.091L113.67 213.673H117.59C119.34 213.673 120.95 214.618 121.86 216.218C122 216.436 122.07 216.655 122.07 216.945C122.07 217.673 121.51 218.327 120.81 218.327H113.81L111.08 222.982C110.66 223.636 110.03 224.073 109.26 224.073H107.51V224ZM110.17 215.636C110.24 215.636 110.24 215.636 110.31 215.636C110.38 215.709 110.45 215.782 110.52 215.855C110.59 215.927 110.59 216.073 110.52 216.145L108.07 223.2H109.19C109.68 223.2 110.1 222.909 110.38 222.473L114.3 215.782C114.37 215.636 114.51 215.564 114.58 215.564C114.65 215.564 114.72 215.564 114.79 215.636C114.86 215.709 114.93 215.782 114.93 215.855C114.93 215.927 114.93 216.073 114.86 216.145L114.09 217.455H120.67C121.02 217.455 121.16 217.164 121.16 216.873C121.16 216.8 121.16 216.655 121.09 216.582C120.32 215.2 118.92 214.4 117.45 214.4H105.13C104.57 214.4 104.08 214.036 103.94 213.455L103.17 210.764C102.96 210.182 102.47 209.745 101.84 209.745H101.77V209.818V215.055C101.77 216.436 102.82 217.527 104.01 217.527H109.26L109.82 215.855C109.89 215.709 110.03 215.636 110.17 215.636ZM109.75 213.673H112.76L110.31 209.455C110.03 209.018 109.61 208.727 109.12 208.727H108L109.75 213.673Z" fill="#9FCCFF"/>
</g>
<defs>
<clipPath id="clip0_405_6806">
<rect width="15" height="17" fill="white" transform="translate(7 207)"/>
</clipPath>
<clipPath id="clip1_405_6806">
<rect width="23" height="16" fill="white" transform="translate(100 208)"/>
</clipPath>
</defs>
</svg>
