<svg width="783" height="329" viewBox="0 0 783 329" fill="none" xmlns="http://www.w3.org/2000/svg">
<rect x="3" y="328" width="780" height="1" fill="#BCC9DA" fill-opacity="0.36"/>
<rect x="3" y="327.585" width="130" height="1" fill="#227CE4"/>
<rect x="133" y="327.585" width="258" height="1" fill="#9FCCFF"/>
<rect x="3" y="77.5854" width="1" height="250" fill="#227CE4"/>
<circle cx="3.5" cy="74.0854" r="3.5" fill="#227CE4"/>
<rect x="132" y="197.585" width="1" height="130" fill="#227CE4"/>
<circle cx="132.5" cy="194.085" r="3.5" fill="#227CE4"/>
<rect x="390" y="197.585" width="1" height="130" fill="#9FCCFF"/>
<circle cx="390.5" cy="194.085" r="3.5" fill="#9FCCFF"/>
<path d="M9.752 18.7454C8.87733 18.7454 8.072 18.6014 7.336 18.3134C6.6 18.0254 5.96 17.6254 5.416 17.1134C4.872 16.5908 4.45067 15.9828 4.152 15.2894C3.85333 14.5854 3.704 13.8174 3.704 12.9854C3.704 12.1534 3.85333 11.3908 4.152 10.6974C4.45067 9.99345 4.872 9.38545 5.416 8.87345C5.96 8.35078 6.6 7.94545 7.336 7.65745C8.072 7.36945 8.872 7.22545 9.736 7.22545C10.6107 7.22545 11.4107 7.36945 12.136 7.65745C12.872 7.94545 13.512 8.35078 14.056 8.87345C14.6 9.38545 15.0213 9.99345 15.32 10.6974C15.6187 11.3908 15.768 12.1534 15.768 12.9854C15.768 13.8174 15.6187 14.5854 15.32 15.2894C15.0213 15.9934 14.6 16.6014 14.056 17.1134C13.512 17.6254 12.872 18.0254 12.136 18.3134C11.4107 18.6014 10.616 18.7454 9.752 18.7454ZM9.736 16.9214C10.3013 16.9214 10.824 16.8254 11.304 16.6334C11.784 16.4414 12.2 16.1694 12.552 15.8174C12.904 15.4548 13.176 15.0388 13.368 14.5694C13.5707 14.0894 13.672 13.5614 13.672 12.9854C13.672 12.4094 13.5707 11.8868 13.368 11.4174C13.176 10.9374 12.904 10.5214 12.552 10.1694C12.2 9.80678 11.784 9.52945 11.304 9.33745C10.824 9.14545 10.3013 9.04945 9.736 9.04945C9.17067 9.04945 8.648 9.14545 8.168 9.33745C7.69867 9.52945 7.28267 9.80678 6.92 10.1694C6.568 10.5214 6.29067 10.9374 6.088 11.4174C5.896 11.8868 5.8 12.4094 5.8 12.9854C5.8 13.5508 5.896 14.0734 6.088 14.5534C6.29067 15.0334 6.568 15.4548 6.92 15.8174C7.272 16.1694 7.688 16.4414 8.168 16.6334C8.648 16.8254 9.17067 16.9214 9.736 16.9214ZM17.7808 18.5854L17.7808 10.0414L19.6848 10.0414L19.6848 12.3934L19.4608 11.7054C19.7168 11.1294 20.1168 10.6921 20.6608 10.3934C21.2154 10.0948 21.9034 9.94545 22.7248 9.94545L22.7248 11.8494C22.6394 11.8281 22.5594 11.8174 22.4848 11.8174C22.4101 11.8068 22.3354 11.8014 22.2608 11.8014C21.5034 11.8014 20.9008 12.0254 20.4528 12.4734C20.0048 12.9108 19.7808 13.5668 19.7808 14.4414V18.5854H17.7808ZM27.9593 18.6974C27.1379 18.6974 26.3966 18.5161 25.7353 18.1534C25.0846 17.7801 24.5726 17.2681 24.1993 16.6174C23.8259 15.9668 23.6393 15.1988 23.6393 14.3134C23.6393 13.4281 23.8259 12.6601 24.1993 12.0094C24.5726 11.3588 25.0846 10.8521 25.7353 10.4894C26.3966 10.1268 27.1379 9.94545 27.9593 9.94545C28.6739 9.94545 29.3139 10.1054 29.8793 10.4254C30.4446 10.7348 30.8926 11.2094 31.2233 11.8494C31.5539 12.4894 31.7193 13.3108 31.7193 14.3134C31.7193 15.3054 31.5593 16.1268 31.2393 16.7774C30.9193 17.4174 30.4766 17.8974 29.9113 18.2174C29.3459 18.5374 28.6953 18.6974 27.9593 18.6974ZM28.1993 16.9854C28.6793 16.9854 29.1059 16.8788 29.4793 16.6654C29.8633 16.4521 30.1673 16.1428 30.3913 15.7374C30.6259 15.3321 30.7433 14.8574 30.7433 14.3134C30.7433 13.7588 30.6259 13.2841 30.3913 12.8894C30.1673 12.4841 29.8633 12.1748 29.4793 11.9614C29.1059 11.7481 28.6793 11.6414 28.1993 11.6414C27.7193 11.6414 27.2873 11.7481 26.9033 11.9614C26.5299 12.1748 26.2259 12.4841 25.9913 12.8894C25.7673 13.2841 25.6553 13.7588 25.6553 14.3134C25.6553 14.8574 25.7673 15.3321 25.9913 15.7374C26.2259 16.1428 26.5299 16.4521 26.9033 16.6654C27.2873 16.8788 27.7193 16.9854 28.1993 16.9854ZM30.7913 18.5854V16.5694L30.8713 14.2974L30.7113 12.0254L30.7113 6.71345H32.6953V18.5854H30.7913ZM39.3436 18.6974C38.3943 18.6974 37.5623 18.5108 36.8476 18.1374C36.1436 17.7534 35.5943 17.2308 35.1996 16.5694C34.8156 15.9081 34.6236 15.1561 34.6236 14.3134C34.6236 13.4601 34.8103 12.7081 35.1836 12.0574C35.5676 11.3961 36.0903 10.8788 36.7516 10.5054C37.4236 10.1321 38.1863 9.94545 39.0396 9.94545C39.8716 9.94545 40.613 10.1268 41.2636 10.4894C41.9143 10.8521 42.4263 11.3641 42.7996 12.0254C43.173 12.6868 43.3596 13.4654 43.3596 14.3614C43.3596 14.4468 43.3543 14.5428 43.3436 14.6494C43.3436 14.7561 43.3383 14.8574 43.3276 14.9534L36.2076 14.9534V13.6254L42.2716 13.6254L41.4876 14.0414C41.4983 13.5508 41.397 13.1188 41.1836 12.7454C40.9703 12.3721 40.677 12.0788 40.3036 11.8654C39.941 11.6521 39.5196 11.5454 39.0396 11.5454C38.549 11.5454 38.117 11.6521 37.7436 11.8654C37.381 12.0788 37.093 12.3774 36.8796 12.7614C36.677 13.1348 36.5756 13.5774 36.5756 14.0894V14.4094C36.5756 14.9214 36.693 15.3748 36.9276 15.7694C37.1623 16.1641 37.493 16.4681 37.9196 16.6814C38.3463 16.8948 38.837 17.0014 39.3916 17.0014C39.8716 17.0014 40.3036 16.9268 40.6876 16.7774C41.0716 16.6281 41.413 16.3934 41.7116 16.0734L42.7836 17.3054C42.3996 17.7534 41.9143 18.1001 41.3276 18.3454C40.7516 18.5801 40.0903 18.6974 39.3436 18.6974ZM45.2808 18.5854V10.0414H47.1848V12.3934L46.9608 11.7054C47.2168 11.1294 47.6168 10.6921 48.1608 10.3934C48.7154 10.0948 49.4034 9.94545 50.2248 9.94545V11.8494C50.1394 11.8281 50.0594 11.8174 49.9848 11.8174C49.9101 11.8068 49.8354 11.8014 49.7608 11.8014C49.0034 11.8014 48.4008 12.0254 47.9528 12.4734C47.5048 12.9108 47.2808 13.5668 47.2808 14.4414V18.5854H45.2808ZM56.6134 18.5854V7.38545L61.5094 7.38545C62.7254 7.38545 63.792 7.62012 64.7094 8.08945C65.6267 8.55878 66.3414 9.20945 66.8534 10.0414C67.3654 10.8734 67.6214 11.8548 67.6214 12.9854C67.6214 14.1054 67.3654 15.0868 66.8534 15.9294C66.3414 16.7614 65.6267 17.4121 64.7094 17.8814C63.792 18.3508 62.7254 18.5854 61.5094 18.5854L56.6134 18.5854ZM58.6934 16.8254H61.4134C62.256 16.8254 62.9814 16.6654 63.5894 16.3454C64.208 16.0254 64.6827 15.5774 65.0134 15.0014C65.3547 14.4254 65.5254 13.7534 65.5254 12.9854C65.5254 12.2068 65.3547 11.5348 65.0134 10.9694C64.6827 10.3934 64.208 9.94545 63.5894 9.62545C62.9814 9.30545 62.256 9.14545 61.4134 9.14545H58.6934V16.8254ZM74.9041 18.5854V16.8574L74.7921 16.4894V13.4654C74.7921 12.8788 74.6161 12.4254 74.2641 12.1054C73.9121 11.7748 73.3788 11.6094 72.6641 11.6094C72.1841 11.6094 71.7095 11.6841 71.2401 11.8334C70.7815 11.9828 70.3921 12.1908 70.0721 12.4574L69.2881 11.0014C69.7468 10.6494 70.2908 10.3881 70.9201 10.2174C71.5601 10.0361 72.2215 9.94545 72.9041 9.94545C74.1415 9.94545 75.0961 10.2441 75.7681 10.8414C76.4508 11.4281 76.7921 12.3401 76.7921 13.5774V18.5854H74.9041ZM72.2161 18.6974C71.5761 18.6974 71.0161 18.5908 70.5361 18.3774C70.0561 18.1534 69.6828 17.8494 69.4161 17.4654C69.1601 17.0708 69.0321 16.6281 69.0321 16.1374C69.0321 15.6574 69.1441 15.2254 69.3681 14.8414C69.6028 14.4574 69.9815 14.1534 70.5041 13.9294C71.0268 13.7054 71.7201 13.5934 72.5841 13.5934L75.0641 13.5934V14.9214L72.7281 14.9214C72.0455 14.9214 71.5868 15.0334 71.3521 15.2574C71.1175 15.4708 71.0001 15.7374 71.0001 16.0574C71.0001 16.4201 71.1441 16.7081 71.4321 16.9214C71.7201 17.1348 72.1201 17.2414 72.6321 17.2414C73.1228 17.2414 73.5601 17.1294 73.9441 16.9054C74.3388 16.6814 74.6215 16.3508 74.7921 15.9134L75.1281 17.1134C74.9361 17.6148 74.5895 18.0041 74.0881 18.2814C73.5975 18.5588 72.9735 18.6974 72.2161 18.6974ZM82.5749 18.6974C81.6362 18.6974 80.9109 18.4574 80.3989 17.9774C79.8869 17.4868 79.6309 16.7668 79.6309 15.8174V8.15345H81.6309V15.7694C81.6309 16.1748 81.7322 16.4894 81.9349 16.7134C82.1482 16.9374 82.4415 17.0494 82.8149 17.0494C83.2629 17.0494 83.6362 16.9321 83.9349 16.6974L84.4949 18.1214C84.2602 18.3134 83.9722 18.4574 83.6309 18.5534C83.2895 18.6494 82.9375 18.6974 82.5749 18.6974ZM78.2229 11.7054V10.1054H83.9189V11.7054H78.2229ZM89.8749 18.6974C88.9255 18.6974 88.0935 18.5108 87.3789 18.1374C86.6749 17.7534 86.1255 17.2308 85.7309 16.5694C85.3469 15.9081 85.1549 15.1561 85.1549 14.3134C85.1549 13.4601 85.3415 12.7081 85.7149 12.0574C86.0989 11.3961 86.6215 10.8788 87.2829 10.5054C87.9549 10.1321 88.7175 9.94545 89.5709 9.94545C90.4029 9.94545 91.1442 10.1268 91.7949 10.4894C92.4455 10.8521 92.9575 11.3641 93.3309 12.0254C93.7042 12.6868 93.8909 13.4654 93.8909 14.3614C93.8909 14.4468 93.8855 14.5428 93.8749 14.6494C93.8749 14.7561 93.8695 14.8574 93.8589 14.9534H86.7389V13.6254H92.8029L92.0189 14.0414C92.0295 13.5508 91.9282 13.1188 91.7149 12.7454C91.5015 12.3721 91.2082 12.0788 90.8349 11.8654C90.4722 11.6521 90.0509 11.5454 89.5709 11.5454C89.0802 11.5454 88.6482 11.6521 88.2749 11.8654C87.9122 12.0788 87.6242 12.3774 87.4109 12.7614C87.2082 13.1348 87.1069 13.5774 87.1069 14.0894V14.4094C87.1069 14.9214 87.2242 15.3748 87.4589 15.7694C87.6935 16.1641 88.0242 16.4681 88.4509 16.6814C88.8775 16.8948 89.3682 17.0014 89.9229 17.0014C90.4029 17.0014 90.8349 16.9268 91.2189 16.7774C91.6029 16.6281 91.9442 16.3934 92.2429 16.0734L93.3149 17.3054C92.9309 17.7534 92.4455 18.1001 91.8589 18.3454C91.2829 18.5801 90.6215 18.6974 89.8749 18.6974Z" fill="white"/>
<path d="M135.424 132.041H140.992V133.753H135.424V132.041ZM135.584 136.841H141.904V138.585H133.504V127.385H141.68V129.129H135.584V136.841ZM148.879 129.945C149.561 129.945 150.169 130.079 150.703 130.345C151.247 130.612 151.673 131.023 151.983 131.577C152.292 132.121 152.447 132.825 152.447 133.689V138.585H150.447V133.945C150.447 133.188 150.265 132.623 149.903 132.249C149.551 131.876 149.055 131.689 148.415 131.689C147.945 131.689 147.529 131.785 147.167 131.977C146.804 132.169 146.521 132.457 146.319 132.841C146.127 133.215 146.031 133.689 146.031 134.265V138.585H144.031V130.041H145.935V132.345L145.599 131.641C145.897 131.097 146.329 130.681 146.895 130.393C147.471 130.095 148.132 129.945 148.879 129.945ZM158.616 138.697C157.794 138.697 157.053 138.516 156.392 138.153C155.741 137.78 155.229 137.268 154.856 136.617C154.482 135.967 154.296 135.199 154.296 134.313C154.296 133.428 154.482 132.66 154.856 132.009C155.229 131.359 155.741 130.852 156.392 130.489C157.053 130.127 157.794 129.945 158.616 129.945C159.33 129.945 159.97 130.105 160.536 130.425C161.101 130.735 161.549 131.209 161.88 131.849C162.21 132.489 162.376 133.311 162.376 134.313C162.376 135.305 162.216 136.127 161.896 136.777C161.576 137.417 161.133 137.897 160.568 138.217C160.002 138.537 159.352 138.697 158.616 138.697ZM158.856 136.985C159.336 136.985 159.762 136.879 160.136 136.665C160.52 136.452 160.824 136.143 161.048 135.737C161.282 135.332 161.4 134.857 161.4 134.313C161.4 133.759 161.282 133.284 161.048 132.889C160.824 132.484 160.52 132.175 160.136 131.961C159.762 131.748 159.336 131.641 158.856 131.641C158.376 131.641 157.944 131.748 157.56 131.961C157.186 132.175 156.882 132.484 156.648 132.889C156.424 133.284 156.312 133.759 156.312 134.313C156.312 134.857 156.424 135.332 156.648 135.737C156.882 136.143 157.186 136.452 157.56 136.665C157.944 136.879 158.376 136.985 158.856 136.985ZM161.448 138.585V136.569L161.528 134.297L161.368 132.025V126.713H163.352V138.585H161.448ZM174.246 138.697C173.371 138.697 172.592 138.511 171.91 138.137C171.227 137.753 170.688 137.231 170.294 136.569C169.899 135.908 169.702 135.156 169.702 134.313C169.702 133.46 169.899 132.708 170.294 132.057C170.688 131.396 171.227 130.879 171.91 130.505C172.592 130.132 173.371 129.945 174.246 129.945C175.131 129.945 175.915 130.132 176.598 130.505C177.291 130.879 177.83 131.391 178.214 132.041C178.608 132.692 178.806 133.449 178.806 134.313C178.806 135.156 178.608 135.908 178.214 136.569C177.83 137.231 177.291 137.753 176.598 138.137C175.915 138.511 175.131 138.697 174.246 138.697ZM174.246 136.985C174.736 136.985 175.174 136.879 175.558 136.665C175.942 136.452 176.24 136.143 176.454 135.737C176.678 135.332 176.79 134.857 176.79 134.313C176.79 133.759 176.678 133.284 176.454 132.889C176.24 132.484 175.942 132.175 175.558 131.961C175.174 131.748 174.742 131.641 174.262 131.641C173.771 131.641 173.334 131.748 172.95 131.961C172.576 132.175 172.278 132.484 172.054 132.889C171.83 133.284 171.718 133.759 171.718 134.313C171.718 134.857 171.83 135.332 172.054 135.737C172.278 136.143 172.576 136.452 172.95 136.665C173.334 136.879 173.766 136.985 174.246 136.985ZM180.99 138.585V129.561C180.99 128.665 181.252 127.951 181.774 127.417C182.308 126.873 183.065 126.601 184.046 126.601C184.398 126.601 184.729 126.639 185.038 126.713C185.358 126.788 185.625 126.905 185.838 127.065L185.294 128.569C185.145 128.452 184.974 128.367 184.782 128.313C184.59 128.249 184.393 128.217 184.19 128.217C183.774 128.217 183.46 128.335 183.246 128.569C183.033 128.793 182.926 129.135 182.926 129.593V130.553L182.99 131.449V138.585H180.99ZM179.582 131.705V130.105H185.278V131.705H179.582ZM196.486 138.745C195.612 138.745 194.806 138.601 194.07 138.313C193.334 138.025 192.694 137.625 192.15 137.113C191.606 136.591 191.185 135.983 190.886 135.289C190.588 134.585 190.438 133.817 190.438 132.985C190.438 132.153 190.588 131.391 190.886 130.697C191.185 129.993 191.606 129.385 192.15 128.873C192.694 128.351 193.334 127.945 194.07 127.657C194.806 127.369 195.606 127.225 196.47 127.225C197.345 127.225 198.145 127.369 198.87 127.657C199.606 127.945 200.246 128.351 200.79 128.873C201.334 129.385 201.756 129.993 202.054 130.697C202.353 131.391 202.502 132.153 202.502 132.985C202.502 133.817 202.353 134.585 202.054 135.289C201.756 135.993 201.334 136.601 200.79 137.113C200.246 137.625 199.606 138.025 198.87 138.313C198.145 138.601 197.35 138.745 196.486 138.745ZM196.47 136.921C197.036 136.921 197.558 136.825 198.038 136.633C198.518 136.441 198.934 136.169 199.286 135.817C199.638 135.455 199.91 135.039 200.102 134.569C200.305 134.089 200.406 133.561 200.406 132.985C200.406 132.409 200.305 131.887 200.102 131.417C199.91 130.937 199.638 130.521 199.286 130.169C198.934 129.807 198.518 129.529 198.038 129.337C197.558 129.145 197.036 129.049 196.47 129.049C195.905 129.049 195.382 129.145 194.902 129.337C194.433 129.529 194.017 129.807 193.654 130.169C193.302 130.521 193.025 130.937 192.822 131.417C192.63 131.887 192.534 132.409 192.534 132.985C192.534 133.551 192.63 134.073 192.822 134.553C193.025 135.033 193.302 135.455 193.654 135.817C194.006 136.169 194.422 136.441 194.902 136.633C195.382 136.825 195.905 136.921 196.47 136.921ZM204.515 138.585V130.041H206.419V132.393L206.195 131.705C206.451 131.129 206.851 130.692 207.395 130.393C207.95 130.095 208.638 129.945 209.459 129.945V131.849C209.374 131.828 209.294 131.817 209.219 131.817C209.144 131.807 209.07 131.801 208.995 131.801C208.238 131.801 207.635 132.025 207.187 132.473C206.739 132.911 206.515 133.567 206.515 134.441V138.585H204.515ZM214.694 138.697C213.872 138.697 213.131 138.516 212.47 138.153C211.819 137.78 211.307 137.268 210.934 136.617C210.56 135.967 210.374 135.199 210.374 134.313C210.374 133.428 210.56 132.66 210.934 132.009C211.307 131.359 211.819 130.852 212.47 130.489C213.131 130.127 213.872 129.945 214.694 129.945C215.408 129.945 216.048 130.105 216.614 130.425C217.179 130.735 217.627 131.209 217.958 131.849C218.288 132.489 218.454 133.311 218.454 134.313C218.454 135.305 218.294 136.127 217.974 136.777C217.654 137.417 217.211 137.897 216.646 138.217C216.08 138.537 215.43 138.697 214.694 138.697ZM214.934 136.985C215.414 136.985 215.84 136.879 216.214 136.665C216.598 136.452 216.902 136.143 217.126 135.737C217.36 135.332 217.478 134.857 217.478 134.313C217.478 133.759 217.36 133.284 217.126 132.889C216.902 132.484 216.598 132.175 216.214 131.961C215.84 131.748 215.414 131.641 214.934 131.641C214.454 131.641 214.022 131.748 213.638 131.961C213.264 132.175 212.96 132.484 212.726 132.889C212.502 133.284 212.39 133.759 212.39 134.313C212.39 134.857 212.502 135.332 212.726 135.737C212.96 136.143 213.264 136.452 213.638 136.665C214.022 136.879 214.454 136.985 214.934 136.985ZM217.526 138.585V136.569L217.606 134.297L217.446 132.025V126.713H219.43V138.585H217.526ZM226.078 138.697C225.129 138.697 224.297 138.511 223.582 138.137C222.878 137.753 222.329 137.231 221.934 136.569C221.55 135.908 221.358 135.156 221.358 134.313C221.358 133.46 221.545 132.708 221.918 132.057C222.302 131.396 222.825 130.879 223.486 130.505C224.158 130.132 224.921 129.945 225.774 129.945C226.606 129.945 227.347 130.127 227.998 130.489C228.649 130.852 229.161 131.364 229.534 132.025C229.907 132.687 230.094 133.465 230.094 134.361C230.094 134.447 230.089 134.543 230.078 134.649C230.078 134.756 230.073 134.857 230.062 134.953L222.942 134.953V133.625L229.006 133.625L228.222 134.041C228.233 133.551 228.131 133.119 227.918 132.745C227.705 132.372 227.411 132.079 227.038 131.865C226.675 131.652 226.254 131.545 225.774 131.545C225.283 131.545 224.851 131.652 224.478 131.865C224.115 132.079 223.827 132.377 223.614 132.761C223.411 133.135 223.31 133.577 223.31 134.089V134.409C223.31 134.921 223.427 135.375 223.662 135.769C223.897 136.164 224.227 136.468 224.654 136.681C225.081 136.895 225.571 137.001 226.126 137.001C226.606 137.001 227.038 136.927 227.422 136.777C227.806 136.628 228.147 136.393 228.446 136.073L229.518 137.305C229.134 137.753 228.649 138.1 228.062 138.345C227.486 138.58 226.825 138.697 226.078 138.697ZM232.015 138.585V130.041H233.919V132.393L233.695 131.705C233.951 131.129 234.351 130.692 234.895 130.393C235.45 130.095 236.138 129.945 236.959 129.945V131.849C236.874 131.828 236.794 131.817 236.719 131.817C236.644 131.807 236.57 131.801 236.495 131.801C235.738 131.801 235.135 132.025 234.687 132.473C234.239 132.911 234.015 133.567 234.015 134.441V138.585H232.015ZM248.532 138.745C247.678 138.745 246.884 138.607 246.148 138.329C245.422 138.041 244.788 137.641 244.244 137.129C243.71 136.607 243.294 135.993 242.996 135.289C242.697 134.585 242.548 133.817 242.548 132.985C242.548 132.153 242.697 131.385 242.996 130.681C243.294 129.977 243.716 129.369 244.26 128.857C244.804 128.335 245.438 127.935 246.164 127.657C246.889 127.369 247.684 127.225 248.548 127.225C249.465 127.225 250.302 127.385 251.06 127.705C251.817 128.015 252.457 128.479 252.98 129.097L251.636 130.361C251.23 129.924 250.777 129.599 250.276 129.385C249.774 129.161 249.23 129.049 248.644 129.049C248.057 129.049 247.518 129.145 247.028 129.337C246.548 129.529 246.126 129.801 245.764 130.153C245.412 130.505 245.134 130.921 244.932 131.401C244.74 131.881 244.644 132.409 244.644 132.985C244.644 133.561 244.74 134.089 244.932 134.569C245.134 135.049 245.412 135.465 245.764 135.817C246.126 136.169 246.548 136.441 247.028 136.633C247.518 136.825 248.057 136.921 248.644 136.921C249.23 136.921 249.774 136.815 250.276 136.601C250.777 136.377 251.23 136.041 251.636 135.593L252.98 136.873C252.457 137.481 251.817 137.945 251.06 138.265C250.302 138.585 249.46 138.745 248.532 138.745ZM258.293 138.697C257.418 138.697 256.639 138.511 255.957 138.137C255.274 137.753 254.735 137.231 254.341 136.569C253.946 135.908 253.749 135.156 253.749 134.313C253.749 133.46 253.946 132.708 254.341 132.057C254.735 131.396 255.274 130.879 255.957 130.505C256.639 130.132 257.418 129.945 258.293 129.945C259.178 129.945 259.962 130.132 260.645 130.505C261.338 130.879 261.877 131.391 262.261 132.041C262.655 132.692 262.853 133.449 262.853 134.313C262.853 135.156 262.655 135.908 262.261 136.569C261.877 137.231 261.338 137.753 260.645 138.137C259.962 138.511 259.178 138.697 258.293 138.697ZM258.293 136.985C258.783 136.985 259.221 136.879 259.605 136.665C259.989 136.452 260.287 136.143 260.501 135.737C260.725 135.332 260.837 134.857 260.837 134.313C260.837 133.759 260.725 133.284 260.501 132.889C260.287 132.484 259.989 132.175 259.605 131.961C259.221 131.748 258.789 131.641 258.309 131.641C257.818 131.641 257.381 131.748 256.997 131.961C256.623 132.175 256.325 132.484 256.101 132.889C255.877 133.284 255.765 133.759 255.765 134.313C255.765 134.857 255.877 135.332 256.101 135.737C256.325 136.143 256.623 136.452 256.997 136.665C257.381 136.879 257.813 136.985 258.293 136.985ZM264.765 138.585V126.713H266.765V138.585H264.765ZM269.39 138.585V126.713H271.39V138.585H269.39ZM278.031 138.697C277.082 138.697 276.25 138.511 275.535 138.137C274.831 137.753 274.282 137.231 273.887 136.569C273.503 135.908 273.311 135.156 273.311 134.313C273.311 133.46 273.498 132.708 273.871 132.057C274.255 131.396 274.778 130.879 275.439 130.505C276.111 130.132 276.874 129.945 277.727 129.945C278.559 129.945 279.3 130.127 279.951 130.489C280.602 130.852 281.114 131.364 281.487 132.025C281.86 132.687 282.047 133.465 282.047 134.361C282.047 134.447 282.042 134.543 282.031 134.649C282.031 134.756 282.026 134.857 282.015 134.953H274.895V133.625H280.959L280.175 134.041C280.186 133.551 280.084 133.119 279.871 132.745C279.658 132.372 279.364 132.079 278.991 131.865C278.628 131.652 278.207 131.545 277.727 131.545C277.236 131.545 276.804 131.652 276.431 131.865C276.068 132.079 275.78 132.377 275.567 132.761C275.364 133.135 275.263 133.577 275.263 134.089V134.409C275.263 134.921 275.38 135.375 275.615 135.769C275.85 136.164 276.18 136.468 276.607 136.681C277.034 136.895 277.524 137.001 278.079 137.001C278.559 137.001 278.991 136.927 279.375 136.777C279.759 136.628 280.1 136.393 280.399 136.073L281.471 137.305C281.087 137.753 280.602 138.1 280.015 138.345C279.439 138.58 278.778 138.697 278.031 138.697ZM287.888 138.697C286.992 138.697 286.192 138.511 285.488 138.137C284.795 137.753 284.251 137.231 283.856 136.569C283.462 135.908 283.264 135.156 283.264 134.313C283.264 133.46 283.462 132.708 283.856 132.057C284.251 131.396 284.795 130.879 285.488 130.505C286.192 130.132 286.992 129.945 287.888 129.945C288.72 129.945 289.451 130.116 290.08 130.457C290.72 130.788 291.206 131.279 291.536 131.929L290 132.825C289.744 132.42 289.43 132.121 289.056 131.929C288.694 131.737 288.299 131.641 287.872 131.641C287.382 131.641 286.939 131.748 286.544 131.961C286.15 132.175 285.84 132.484 285.616 132.889C285.392 133.284 285.28 133.759 285.28 134.313C285.28 134.868 285.392 135.348 285.616 135.753C285.84 136.148 286.15 136.452 286.544 136.665C286.939 136.879 287.382 136.985 287.872 136.985C288.299 136.985 288.694 136.889 289.056 136.697C289.43 136.505 289.744 136.207 290 135.801L291.536 136.697C291.206 137.337 290.72 137.833 290.08 138.185C289.451 138.527 288.72 138.697 287.888 138.697ZM296.591 138.697C295.652 138.697 294.927 138.457 294.414 137.977C293.903 137.487 293.647 136.767 293.647 135.817V128.153H295.647V135.769C295.647 136.175 295.748 136.489 295.951 136.713C296.164 136.937 296.457 137.049 296.831 137.049C297.279 137.049 297.652 136.932 297.951 136.697L298.511 138.121C298.276 138.313 297.988 138.457 297.647 138.553C297.305 138.649 296.953 138.697 296.591 138.697ZM292.239 131.705V130.105H297.935V131.705H292.239ZM300.156 138.585V130.041H302.156V138.585H300.156ZM301.164 128.633C300.79 128.633 300.481 128.516 300.236 128.281C300.001 128.047 299.884 127.764 299.884 127.433C299.884 127.092 300.001 126.809 300.236 126.585C300.481 126.351 300.79 126.233 301.164 126.233C301.537 126.233 301.841 126.345 302.076 126.569C302.321 126.783 302.444 127.055 302.444 127.385C302.444 127.737 302.326 128.036 302.092 128.281C301.857 128.516 301.548 128.633 301.164 128.633ZM308.621 138.697C307.746 138.697 306.967 138.511 306.285 138.137C305.602 137.753 305.063 137.231 304.669 136.569C304.274 135.908 304.077 135.156 304.077 134.313C304.077 133.46 304.274 132.708 304.669 132.057C305.063 131.396 305.602 130.879 306.285 130.505C306.967 130.132 307.746 129.945 308.621 129.945C309.506 129.945 310.29 130.132 310.973 130.505C311.666 130.879 312.205 131.391 312.589 132.041C312.983 132.692 313.181 133.449 313.181 134.313C313.181 135.156 312.983 135.908 312.589 136.569C312.205 137.231 311.666 137.753 310.973 138.137C310.29 138.511 309.506 138.697 308.621 138.697ZM308.621 136.985C309.111 136.985 309.549 136.879 309.933 136.665C310.317 136.452 310.615 136.143 310.829 135.737C311.053 135.332 311.165 134.857 311.165 134.313C311.165 133.759 311.053 133.284 310.829 132.889C310.615 132.484 310.317 132.175 309.933 131.961C309.549 131.748 309.117 131.641 308.637 131.641C308.146 131.641 307.709 131.748 307.325 131.961C306.951 132.175 306.653 132.484 306.429 132.889C306.205 133.284 306.093 133.759 306.093 134.313C306.093 134.857 306.205 135.332 306.429 135.737C306.653 136.143 306.951 136.452 307.325 136.665C307.709 136.879 308.141 136.985 308.621 136.985ZM319.941 129.945C320.624 129.945 321.232 130.079 321.765 130.345C322.309 130.612 322.736 131.023 323.045 131.577C323.355 132.121 323.509 132.825 323.509 133.689V138.585H321.509V133.945C321.509 133.188 321.328 132.623 320.965 132.249C320.613 131.876 320.117 131.689 319.477 131.689C319.008 131.689 318.592 131.785 318.229 131.977C317.867 132.169 317.584 132.457 317.381 132.841C317.189 133.215 317.093 133.689 317.093 134.265V138.585H315.093V130.041H316.997V132.345L316.661 131.641C316.96 131.097 317.392 130.681 317.957 130.393C318.533 130.095 319.195 129.945 319.941 129.945Z" fill="white"/>
<path d="M391.504 138.585V127.385H396.4C397.616 127.385 398.683 127.62 399.6 128.089C400.517 128.559 401.232 129.209 401.744 130.041C402.256 130.873 402.512 131.855 402.512 132.985C402.512 134.105 402.256 135.087 401.744 135.929C401.232 136.761 400.517 137.412 399.6 137.881C398.683 138.351 397.616 138.585 396.4 138.585H391.504ZM393.584 136.825H396.304C397.147 136.825 397.872 136.665 398.48 136.345C399.099 136.025 399.573 135.577 399.904 135.001C400.245 134.425 400.416 133.753 400.416 132.985C400.416 132.207 400.245 131.535 399.904 130.969C399.573 130.393 399.099 129.945 398.48 129.625C397.872 129.305 397.147 129.145 396.304 129.145H393.584V136.825ZM408.547 138.697C407.597 138.697 406.765 138.511 406.051 138.137C405.347 137.753 404.797 137.231 404.403 136.569C404.019 135.908 403.827 135.156 403.827 134.313C403.827 133.46 404.013 132.708 404.387 132.057C404.771 131.396 405.293 130.879 405.955 130.505C406.627 130.132 407.389 129.945 408.243 129.945C409.075 129.945 409.816 130.127 410.467 130.489C411.117 130.852 411.629 131.364 412.003 132.025C412.376 132.687 412.563 133.465 412.563 134.361C412.563 134.447 412.557 134.543 412.547 134.649C412.547 134.756 412.541 134.857 412.531 134.953H405.411V133.625H411.475L410.691 134.041C410.701 133.551 410.6 133.119 410.387 132.745C410.173 132.372 409.88 132.079 409.507 131.865C409.144 131.652 408.723 131.545 408.243 131.545C407.752 131.545 407.32 131.652 406.947 131.865C406.584 132.079 406.296 132.377 406.083 132.761C405.88 133.135 405.779 133.577 405.779 134.089V134.409C405.779 134.921 405.896 135.375 406.131 135.769C406.365 136.164 406.696 136.468 407.123 136.681C407.549 136.895 408.04 137.001 408.595 137.001C409.075 137.001 409.507 136.927 409.891 136.777C410.275 136.628 410.616 136.393 410.915 136.073L411.987 137.305C411.603 137.753 411.117 138.1 410.531 138.345C409.955 138.58 409.293 138.697 408.547 138.697ZM414.484 138.585V126.713H416.484V138.585H414.484ZM419.109 138.585V130.041H421.109V138.585H419.109ZM420.117 128.633C419.744 128.633 419.434 128.516 419.189 128.281C418.954 128.047 418.837 127.764 418.837 127.433C418.837 127.092 418.954 126.809 419.189 126.585C419.434 126.351 419.744 126.233 420.117 126.233C420.49 126.233 420.794 126.345 421.029 126.569C421.274 126.783 421.397 127.055 421.397 127.385C421.397 127.737 421.28 128.036 421.045 128.281C420.81 128.516 420.501 128.633 420.117 128.633ZM426.006 138.585L422.342 130.041H424.422L427.574 137.577H426.55L429.814 130.041H431.734L428.07 138.585H426.006ZM436.766 138.697C435.816 138.697 434.984 138.511 434.27 138.137C433.566 137.753 433.016 137.231 432.622 136.569C432.238 135.908 432.046 135.156 432.046 134.313C432.046 133.46 432.232 132.708 432.606 132.057C432.99 131.396 433.512 130.879 434.174 130.505C434.846 130.132 435.608 129.945 436.462 129.945C437.294 129.945 438.035 130.127 438.686 130.489C439.336 130.852 439.848 131.364 440.222 132.025C440.595 132.687 440.782 133.465 440.782 134.361C440.782 134.447 440.776 134.543 440.766 134.649C440.766 134.756 440.76 134.857 440.75 134.953H433.63V133.625H439.694L438.91 134.041C438.92 133.551 438.819 133.119 438.606 132.745C438.392 132.372 438.099 132.079 437.726 131.865C437.363 131.652 436.942 131.545 436.462 131.545C435.971 131.545 435.539 131.652 435.166 131.865C434.803 132.079 434.515 132.377 434.302 132.761C434.099 133.135 433.998 133.577 433.998 134.089V134.409C433.998 134.921 434.115 135.375 434.35 135.769C434.584 136.164 434.915 136.468 435.342 136.681C435.768 136.895 436.259 137.001 436.814 137.001C437.294 137.001 437.726 136.927 438.11 136.777C438.494 136.628 438.835 136.393 439.134 136.073L440.206 137.305C439.822 137.753 439.336 138.1 438.75 138.345C438.174 138.58 437.512 138.697 436.766 138.697ZM442.703 138.585V130.041H444.607V132.393L444.383 131.705C444.639 131.129 445.039 130.692 445.583 130.393C446.137 130.095 446.825 129.945 447.647 129.945V131.849C447.561 131.828 447.481 131.817 447.407 131.817C447.332 131.807 447.257 131.801 447.183 131.801C446.425 131.801 445.823 132.025 445.375 132.473C444.927 132.911 444.703 133.567 444.703 134.441V138.585H442.703ZM450.36 141.801C449.944 141.801 449.528 141.732 449.112 141.593C448.696 141.455 448.349 141.263 448.072 141.017L448.872 139.545C449.074 139.727 449.304 139.871 449.56 139.977C449.816 140.084 450.077 140.137 450.344 140.137C450.706 140.137 451 140.047 451.224 139.865C451.448 139.684 451.656 139.38 451.848 138.953L452.344 137.833L452.504 137.593L455.736 130.041H457.656L453.656 139.273C453.389 139.913 453.09 140.42 452.76 140.793C452.44 141.167 452.077 141.428 451.672 141.577C451.277 141.727 450.84 141.801 450.36 141.801ZM452.12 138.889L448.264 130.041H450.344L453.48 137.417L452.12 138.889ZM463.52 138.585V127.385H468.416C469.632 127.385 470.698 127.62 471.616 128.089C472.533 128.559 473.248 129.209 473.76 130.041C474.272 130.873 474.528 131.855 474.528 132.985C474.528 134.105 474.272 135.087 473.76 135.929C473.248 136.761 472.533 137.412 471.616 137.881C470.698 138.351 469.632 138.585 468.416 138.585H463.52ZM465.6 136.825H468.32C469.162 136.825 469.888 136.665 470.496 136.345C471.114 136.025 471.589 135.577 471.92 135.001C472.261 134.425 472.432 133.753 472.432 132.985C472.432 132.207 472.261 131.535 471.92 130.969C471.589 130.393 471.114 129.945 470.496 129.625C469.888 129.305 469.162 129.145 468.32 129.145H465.6V136.825ZM481.81 138.585V136.857L481.698 136.489V133.465C481.698 132.879 481.522 132.425 481.17 132.105C480.818 131.775 480.285 131.609 479.57 131.609C479.09 131.609 478.616 131.684 478.146 131.833C477.688 131.983 477.298 132.191 476.978 132.457L476.194 131.001C476.653 130.649 477.197 130.388 477.826 130.217C478.466 130.036 479.128 129.945 479.81 129.945C481.048 129.945 482.002 130.244 482.674 130.841C483.357 131.428 483.698 132.34 483.698 133.577V138.585H481.81ZM479.122 138.697C478.482 138.697 477.922 138.591 477.442 138.377C476.962 138.153 476.589 137.849 476.322 137.465C476.066 137.071 475.938 136.628 475.938 136.137C475.938 135.657 476.05 135.225 476.274 134.841C476.509 134.457 476.888 134.153 477.41 133.929C477.933 133.705 478.626 133.593 479.49 133.593H481.97V134.921H479.634C478.952 134.921 478.493 135.033 478.258 135.257C478.024 135.471 477.906 135.737 477.906 136.057C477.906 136.42 478.05 136.708 478.338 136.921C478.626 137.135 479.026 137.241 479.538 137.241C480.029 137.241 480.466 137.129 480.85 136.905C481.245 136.681 481.528 136.351 481.698 135.913L482.034 137.113C481.842 137.615 481.496 138.004 480.994 138.281C480.504 138.559 479.88 138.697 479.122 138.697ZM486.813 141.801C486.397 141.801 485.981 141.732 485.565 141.593C485.149 141.455 484.802 141.263 484.525 141.017L485.325 139.545C485.528 139.727 485.757 139.871 486.013 139.977C486.269 140.084 486.53 140.137 486.797 140.137C487.16 140.137 487.453 140.047 487.677 139.865C487.901 139.684 488.109 139.38 488.301 138.953L488.797 137.833L488.957 137.593L492.189 130.041H494.109L490.109 139.273C489.842 139.913 489.544 140.42 489.213 140.793C488.893 141.167 488.53 141.428 488.125 141.577C487.73 141.727 487.293 141.801 486.813 141.801ZM488.573 138.889L484.717 130.041H486.797L489.933 137.417L488.573 138.889Z" fill="white"/>
<path d="M15.04 282.657C14.408 282.657 13.82 282.553 13.276 282.345C12.74 282.129 12.272 281.829 11.872 281.445C11.48 281.053 11.172 280.601 10.948 280.089C10.732 279.569 10.624 279.001 10.624 278.385C10.624 277.769 10.732 277.205 10.948 276.693C11.172 276.173 11.48 275.721 11.872 275.337C12.272 274.945 12.74 274.645 13.276 274.437C13.812 274.221 14.4 274.113 15.04 274.113C15.672 274.113 16.256 274.221 16.792 274.437C17.328 274.645 17.792 274.941 18.184 275.325C18.584 275.709 18.892 276.161 19.108 276.681C19.332 277.201 19.444 277.769 19.444 278.385C19.444 279.001 19.332 279.569 19.108 280.089C18.892 280.609 18.584 281.061 18.184 281.445C17.792 281.829 17.328 282.129 16.792 282.345C16.256 282.553 15.672 282.657 15.04 282.657ZM15.04 281.865C15.544 281.865 16.008 281.781 16.432 281.613C16.864 281.437 17.236 281.193 17.548 280.881C17.868 280.561 18.116 280.193 18.292 279.777C18.468 279.353 18.556 278.889 18.556 278.385C18.556 277.881 18.468 277.421 18.292 277.005C18.116 276.581 17.868 276.213 17.548 275.901C17.236 275.581 16.864 275.337 16.432 275.169C16.008 274.993 15.544 274.905 15.04 274.905C14.536 274.905 14.068 274.993 13.636 275.169C13.204 275.337 12.828 275.581 12.508 275.901C12.196 276.213 11.948 276.581 11.764 277.005C11.588 277.421 11.5 277.881 11.5 278.385C11.5 278.881 11.588 279.341 11.764 279.765C11.948 280.189 12.196 280.561 12.508 280.881C12.828 281.193 13.204 281.437 13.636 281.613C14.068 281.781 14.536 281.865 15.04 281.865ZM21.2544 282.585V276.285H22.0704V278.001L21.9864 277.701C22.1624 277.221 22.4584 276.857 22.8744 276.609C23.2904 276.353 23.8064 276.225 24.4224 276.225V277.053C24.3904 277.053 24.3584 277.053 24.3264 277.053C24.2944 277.045 24.2624 277.041 24.2304 277.041C23.5664 277.041 23.0464 277.245 22.6704 277.653C22.2944 278.053 22.1064 278.625 22.1064 279.369V282.585H21.2544ZM28.4265 282.645C27.8265 282.645 27.2865 282.509 26.8065 282.237C26.3345 281.965 25.9625 281.589 25.6905 281.109C25.4185 280.621 25.2825 280.061 25.2825 279.429C25.2825 278.789 25.4185 278.229 25.6905 277.749C25.9625 277.269 26.3345 276.897 26.8065 276.633C27.2865 276.361 27.8265 276.225 28.4265 276.225C28.9785 276.225 29.4705 276.349 29.9025 276.597C30.3425 276.845 30.6905 277.209 30.9465 277.689C31.2105 278.161 31.3425 278.741 31.3425 279.429C31.3425 280.109 31.2145 280.689 30.9585 281.169C30.7025 281.649 30.3545 282.017 29.9145 282.273C29.4825 282.521 28.9865 282.645 28.4265 282.645ZM28.4865 281.889C28.9345 281.889 29.3345 281.789 29.6865 281.589C30.0465 281.381 30.3265 281.093 30.5265 280.725C30.7345 280.349 30.8385 279.917 30.8385 279.429C30.8385 278.933 30.7345 278.501 30.5265 278.133C30.3265 277.765 30.0465 277.481 29.6865 277.281C29.3345 277.073 28.9345 276.969 28.4865 276.969C28.0465 276.969 27.6505 277.073 27.2985 277.281C26.9465 277.481 26.6665 277.765 26.4585 278.133C26.2505 278.501 26.1465 278.933 26.1465 279.429C26.1465 279.917 26.2505 280.349 26.4585 280.725C26.6665 281.093 26.9465 281.381 27.2985 281.589C27.6505 281.789 28.0465 281.889 28.4865 281.889ZM30.8625 282.585L30.8625 280.689L30.9465 279.417L30.8265 278.145V273.681H31.6785L31.6785 282.585H30.8625ZM36.7273 282.645C36.0713 282.645 35.4953 282.509 34.9993 282.237C34.5033 281.957 34.1153 281.577 33.8353 281.097C33.5553 280.609 33.4153 280.053 33.4153 279.429C33.4153 278.805 33.5473 278.253 33.8113 277.773C34.0833 277.293 34.4513 276.917 34.9153 276.645C35.3873 276.365 35.9153 276.225 36.4993 276.225C37.0913 276.225 37.6153 276.361 38.0713 276.633C38.5353 276.897 38.8993 277.273 39.1633 277.761C39.4273 278.241 39.5593 278.797 39.5593 279.429C39.5593 279.469 39.5553 279.513 39.5473 279.561C39.5473 279.601 39.5473 279.645 39.5473 279.693H34.0633V279.057H39.0913L38.7553 279.309C38.7553 278.853 38.6553 278.449 38.4553 278.097C38.2633 277.737 37.9993 277.457 37.6633 277.257C37.3273 277.057 36.9393 276.957 36.4993 276.957C36.0673 276.957 35.6793 277.057 35.3353 277.257C34.9913 277.457 34.7233 277.737 34.5313 278.097C34.3393 278.457 34.2433 278.869 34.2433 279.333V279.465C34.2433 279.945 34.3473 280.369 34.5553 280.737C34.7713 281.097 35.0673 281.381 35.4433 281.589C35.8273 281.789 36.2633 281.889 36.7513 281.889C37.1353 281.889 37.4913 281.821 37.8193 281.685C38.1553 281.549 38.4433 281.341 38.6833 281.061L39.1633 281.613C38.8833 281.949 38.5313 282.205 38.1073 282.381C37.6913 282.557 37.2313 282.645 36.7273 282.645ZM41.2935 282.585V276.285H42.1095V278.001L42.0255 277.701C42.2015 277.221 42.4975 276.857 42.9135 276.609C43.3295 276.353 43.8455 276.225 44.4615 276.225V277.053C44.4295 277.053 44.3975 277.053 44.3655 277.053C44.3335 277.045 44.3015 277.041 44.2695 277.041C43.6055 277.041 43.0855 277.245 42.7095 277.653C42.3335 278.053 42.1455 278.625 42.1455 279.369V282.585H41.2935ZM53.0785 282.657C52.4465 282.657 51.8625 282.553 51.3265 282.345C50.7905 282.129 50.3265 281.829 49.9345 281.445C49.5425 281.061 49.2345 280.609 49.0105 280.089C48.7945 279.569 48.6865 279.001 48.6865 278.385C48.6865 277.769 48.7945 277.201 49.0105 276.681C49.2345 276.161 49.5425 275.709 49.9345 275.325C50.3345 274.941 50.8025 274.645 51.3385 274.437C51.8745 274.221 52.4585 274.113 53.0905 274.113C53.6985 274.113 54.2705 274.217 54.8065 274.425C55.3425 274.625 55.7945 274.929 56.1625 275.337L55.5985 275.901C55.2545 275.549 54.8745 275.297 54.4585 275.145C54.0425 274.985 53.5945 274.905 53.1145 274.905C52.6105 274.905 52.1425 274.993 51.7105 275.169C51.2785 275.337 50.9025 275.581 50.5825 275.901C50.2625 276.213 50.0105 276.581 49.8265 277.005C49.6505 277.421 49.5625 277.881 49.5625 278.385C49.5625 278.889 49.6505 279.353 49.8265 279.777C50.0105 280.193 50.2625 280.561 50.5825 280.881C50.9025 281.193 51.2785 281.437 51.7105 281.613C52.1425 281.781 52.6105 281.865 53.1145 281.865C53.5945 281.865 54.0425 281.785 54.4585 281.625C54.8745 281.465 55.2545 281.209 55.5985 280.857L56.1625 281.421C55.7945 281.829 55.3425 282.137 54.8065 282.345C54.2705 282.553 53.6945 282.657 53.0785 282.657ZM60.1623 282.645C59.5543 282.645 59.0063 282.509 58.5183 282.237C58.0383 281.957 57.6583 281.577 57.3783 281.097C57.0983 280.609 56.9583 280.053 56.9583 279.429C56.9583 278.797 57.0983 278.241 57.3783 277.761C57.6583 277.281 58.0383 276.905 58.5183 276.633C58.9983 276.361 59.5463 276.225 60.1623 276.225C60.7863 276.225 61.3383 276.361 61.8183 276.633C62.3063 276.905 62.6863 277.281 62.9583 277.761C63.2383 278.241 63.3783 278.797 63.3783 279.429C63.3783 280.053 63.2383 280.609 62.9583 281.097C62.6863 281.577 62.3063 281.957 61.8183 282.237C61.3303 282.509 60.7783 282.645 60.1623 282.645ZM60.1623 281.889C60.6183 281.889 61.0223 281.789 61.3743 281.589C61.7263 281.381 62.0023 281.093 62.2023 280.725C62.4103 280.349 62.5143 279.917 62.5143 279.429C62.5143 278.933 62.4103 278.501 62.2023 278.133C62.0023 277.765 61.7263 277.481 61.3743 277.281C61.0223 277.073 60.6223 276.969 60.1743 276.969C59.7263 276.969 59.3263 277.073 58.9743 277.281C58.6223 277.481 58.3423 277.765 58.1343 278.133C57.9263 278.501 57.8223 278.933 57.8223 279.429C57.8223 279.917 57.9263 280.349 58.1343 280.725C58.3423 281.093 58.6223 281.381 58.9743 281.589C59.3263 281.789 59.7223 281.889 60.1623 281.889ZM65.1177 282.585V273.681H65.9697V282.585H65.1177ZM68.3403 282.585V273.681H69.1923V282.585H68.3403ZM74.239 282.645C73.583 282.645 73.007 282.509 72.511 282.237C72.015 281.957 71.627 281.577 71.347 281.097C71.067 280.609 70.927 280.053 70.927 279.429C70.927 278.805 71.059 278.253 71.323 277.773C71.595 277.293 71.963 276.917 72.427 276.645C72.899 276.365 73.427 276.225 74.011 276.225C74.603 276.225 75.127 276.361 75.583 276.633C76.047 276.897 76.411 277.273 76.675 277.761C76.939 278.241 77.071 278.797 77.071 279.429C77.071 279.469 77.067 279.513 77.059 279.561C77.059 279.601 77.059 279.645 77.059 279.693H71.575V279.057H76.603L76.267 279.309C76.267 278.853 76.167 278.449 75.967 278.097C75.775 277.737 75.511 277.457 75.175 277.257C74.839 277.057 74.451 276.957 74.011 276.957C73.579 276.957 73.191 277.057 72.847 277.257C72.503 277.457 72.235 277.737 72.043 278.097C71.851 278.457 71.755 278.869 71.755 279.333V279.465C71.755 279.945 71.859 280.369 72.067 280.737C72.283 281.097 72.579 281.381 72.955 281.589C73.339 281.789 73.775 281.889 74.263 281.889C74.647 281.889 75.003 281.821 75.331 281.685C75.667 281.549 75.955 281.341 76.195 281.061L76.675 281.613C76.395 281.949 76.043 282.205 75.619 282.381C75.203 282.557 74.743 282.645 74.239 282.645ZM81.4212 282.645C80.7972 282.645 80.2372 282.509 79.7412 282.237C79.2532 281.957 78.8692 281.577 78.5892 281.097C78.3092 280.609 78.1692 280.053 78.1692 279.429C78.1692 278.797 78.3092 278.241 78.5892 277.761C78.8692 277.281 79.2532 276.905 79.7412 276.633C80.2372 276.361 80.7972 276.225 81.4212 276.225C81.9572 276.225 82.4412 276.329 82.8732 276.537C83.3052 276.745 83.6452 277.057 83.8932 277.473L83.2572 277.905C83.0412 277.585 82.7732 277.349 82.4532 277.197C82.1332 277.045 81.7852 276.969 81.4092 276.969C80.9612 276.969 80.5572 277.073 80.1972 277.281C79.8372 277.481 79.5532 277.765 79.3452 278.133C79.1372 278.501 79.0332 278.933 79.0332 279.429C79.0332 279.925 79.1372 280.357 79.3452 280.725C79.5532 281.093 79.8372 281.381 80.1972 281.589C80.5572 281.789 80.9612 281.889 81.4092 281.889C81.7852 281.889 82.1332 281.813 82.4532 281.661C82.7732 281.509 83.0412 281.277 83.2572 280.965L83.8932 281.397C83.6452 281.805 83.3052 282.117 82.8732 282.333C82.4412 282.541 81.9572 282.645 81.4212 282.645ZM87.6292 282.645C87.0372 282.645 86.5812 282.485 86.2612 282.165C85.9412 281.845 85.7812 281.393 85.7812 280.809V274.893H86.6332V280.761C86.6332 281.129 86.7252 281.413 86.9092 281.613C87.1012 281.813 87.3732 281.913 87.7252 281.913C88.1012 281.913 88.4132 281.805 88.6612 281.589L88.9612 282.201C88.7932 282.353 88.5892 282.465 88.3492 282.537C88.1172 282.609 87.8772 282.645 87.6292 282.645ZM84.6532 276.993V276.285H88.5532V276.993H84.6532ZM90.5122 282.585V276.285H91.3642V282.585H90.5122ZM90.9442 274.893C90.7682 274.893 90.6202 274.833 90.5002 274.713C90.3802 274.593 90.3202 274.449 90.3202 274.281C90.3202 274.113 90.3802 273.973 90.5002 273.861C90.6202 273.741 90.7682 273.681 90.9442 273.681C91.1202 273.681 91.2682 273.737 91.3882 273.849C91.5082 273.961 91.5682 274.101 91.5682 274.269C91.5682 274.445 91.5082 274.593 91.3882 274.713C91.2762 274.833 91.1282 274.893 90.9442 274.893ZM96.3029 282.645C95.6949 282.645 95.1469 282.509 94.6589 282.237C94.1789 281.957 93.7989 281.577 93.5189 281.097C93.2389 280.609 93.0989 280.053 93.0989 279.429C93.0989 278.797 93.2389 278.241 93.5189 277.761C93.7989 277.281 94.1789 276.905 94.6589 276.633C95.1389 276.361 95.6869 276.225 96.3029 276.225C96.9269 276.225 97.4789 276.361 97.9589 276.633C98.4469 276.905 98.8269 277.281 99.0989 277.761C99.3789 278.241 99.5189 278.797 99.5189 279.429C99.5189 280.053 99.3789 280.609 99.0989 281.097C98.8269 281.577 98.4469 281.957 97.9589 282.237C97.4709 282.509 96.9189 282.645 96.3029 282.645ZM96.3029 281.889C96.7589 281.889 97.1629 281.789 97.5149 281.589C97.8669 281.381 98.1429 281.093 98.3429 280.725C98.5509 280.349 98.6549 279.917 98.6549 279.429C98.6549 278.933 98.5509 278.501 98.3429 278.133C98.1429 277.765 97.8669 277.481 97.5149 277.281C97.1629 277.073 96.7629 276.969 96.3149 276.969C95.8669 276.969 95.4669 277.073 95.1149 277.281C94.7629 277.481 94.4829 277.765 94.2749 278.133C94.0669 278.501 93.9629 278.933 93.9629 279.429C93.9629 279.917 94.0669 280.349 94.2749 280.725C94.4829 281.093 94.7629 281.381 95.1149 281.589C95.4669 281.789 95.8629 281.889 96.3029 281.889ZM104.474 276.225C104.986 276.225 105.434 276.325 105.818 276.525C106.21 276.717 106.514 277.013 106.73 277.413C106.954 277.813 107.066 278.317 107.066 278.925V282.585H106.214V279.009C106.214 278.345 106.046 277.845 105.71 277.509C105.382 277.165 104.918 276.993 104.318 276.993C103.87 276.993 103.478 277.085 103.142 277.269C102.814 277.445 102.558 277.705 102.374 278.049C102.198 278.385 102.11 278.793 102.11 279.273V282.585H101.258V276.285H102.074V278.013L101.942 277.689C102.142 277.233 102.462 276.877 102.902 276.621C103.342 276.357 103.866 276.225 104.474 276.225Z" fill="white"/>
<g clip-path="url(#clip0_405_5380)">
<path d="M11.557 320.585C11.2089 320.585 11 320.307 11 320.028V299.142C11.0696 298.864 11.2785 298.585 11.557 298.585H32.3734C32.7215 298.585 32.9304 298.864 32.9304 299.142V319.959C32.9304 320.307 32.6519 320.516 32.3734 320.516H11.557V320.585ZM12.1835 319.402H31.8861V299.699H25.1329V306.383C25.1329 306.661 24.8544 306.94 24.5759 306.94C24.5063 306.94 24.3671 306.94 24.2975 306.87L22.0696 305.687L19.9114 306.87C19.7025 306.94 19.6329 306.94 19.5633 306.94C19.4241 306.94 19.2848 306.87 19.1456 306.801C19.0759 306.731 18.9367 306.592 18.9367 306.383V299.699H12.1835V319.402ZM22 304.573C22.0696 304.573 22.2089 304.573 22.2785 304.642L23.9494 305.547V299.699H20.0506V305.478L21.7215 304.573C21.8608 304.573 21.9304 304.573 22 304.573ZM14.6899 316.687C14.3418 316.687 14.1329 316.408 14.1329 316.13C14.1329 315.851 14.4114 315.573 14.6899 315.573H20.6772C21.0253 315.573 21.2342 315.851 21.2342 316.13C21.2342 316.408 21.0253 316.687 20.6772 316.687H14.6899ZM14.6899 314.18C14.3418 314.18 14.1329 313.902 14.1329 313.623C14.1329 313.345 14.4114 313.066 14.6899 313.066H19.4241C19.7722 313.066 19.981 313.345 19.981 313.623C19.981 313.902 19.7025 314.18 19.4241 314.18H14.6899Z" fill="#227CE4"/>
</g>
<path d="M145.241 282.585L148.865 274.569L149.129 274.953H143.933L144.377 274.533V276.525H143.525V274.185H149.693V274.797L146.177 282.585H145.241ZM157.044 282.645C156.444 282.645 155.904 282.509 155.424 282.237C154.952 281.965 154.58 281.589 154.308 281.109C154.036 280.621 153.9 280.061 153.9 279.429C153.9 278.789 154.036 278.229 154.308 277.749C154.58 277.269 154.952 276.897 155.424 276.633C155.904 276.361 156.444 276.225 157.044 276.225C157.596 276.225 158.088 276.349 158.52 276.597C158.96 276.845 159.308 277.209 159.564 277.689C159.828 278.161 159.96 278.741 159.96 279.429C159.96 280.109 159.832 280.689 159.576 281.169C159.32 281.649 158.972 282.017 158.532 282.273C158.1 282.521 157.604 282.645 157.044 282.645ZM157.104 281.889C157.552 281.889 157.952 281.789 158.304 281.589C158.664 281.381 158.944 281.093 159.144 280.725C159.352 280.349 159.456 279.917 159.456 279.429C159.456 278.933 159.352 278.501 159.144 278.133C158.944 277.765 158.664 277.481 158.304 277.281C157.952 277.073 157.552 276.969 157.104 276.969C156.664 276.969 156.268 277.073 155.916 277.281C155.564 277.481 155.284 277.765 155.076 278.133C154.868 278.501 154.764 278.933 154.764 279.429C154.764 279.917 154.868 280.349 155.076 280.725C155.284 281.093 155.564 281.381 155.916 281.589C156.268 281.789 156.664 281.889 157.104 281.889ZM159.48 282.585V280.689L159.564 279.417L159.444 278.145V273.681H160.296V282.585H159.48ZM166.616 282.585V281.193L166.58 280.965V278.637C166.58 278.101 166.428 277.689 166.124 277.401C165.828 277.113 165.384 276.969 164.792 276.969C164.384 276.969 163.996 277.037 163.628 277.173C163.26 277.309 162.948 277.489 162.692 277.713L162.308 277.077C162.628 276.805 163.012 276.597 163.46 276.453C163.908 276.301 164.38 276.225 164.876 276.225C165.692 276.225 166.32 276.429 166.76 276.837C167.208 277.237 167.432 277.849 167.432 278.673V282.585H166.616ZM164.444 282.645C163.972 282.645 163.56 282.569 163.208 282.417C162.864 282.257 162.6 282.041 162.416 281.769C162.232 281.489 162.14 281.169 162.14 280.809C162.14 280.481 162.216 280.185 162.368 279.921C162.528 279.649 162.784 279.433 163.136 279.273C163.496 279.105 163.976 279.021 164.576 279.021H166.748V279.657H164.6C163.992 279.657 163.568 279.765 163.328 279.981C163.096 280.197 162.98 280.465 162.98 280.785C162.98 281.145 163.12 281.433 163.4 281.649C163.68 281.865 164.072 281.973 164.576 281.973C165.056 281.973 165.468 281.865 165.812 281.649C166.164 281.425 166.42 281.105 166.58 280.689L166.772 281.277C166.612 281.693 166.332 282.025 165.932 282.273C165.54 282.521 165.044 282.645 164.444 282.645ZM169.677 284.973C169.381 284.973 169.097 284.925 168.825 284.829C168.561 284.733 168.333 284.589 168.141 284.397L168.537 283.761C168.697 283.913 168.869 284.029 169.053 284.109C169.245 284.197 169.457 284.241 169.689 284.241C169.969 284.241 170.209 284.161 170.409 284.001C170.617 283.849 170.813 283.577 170.997 283.185L171.405 282.261L171.501 282.129L174.093 276.285H174.933L171.777 283.341C171.601 283.749 171.405 284.073 171.189 284.313C170.981 284.553 170.753 284.721 170.505 284.817C170.257 284.921 169.981 284.973 169.677 284.973ZM171.357 282.765L168.453 276.285H169.341L171.909 282.069L171.357 282.765ZM177.755 282.645C177.235 282.645 176.743 282.573 176.279 282.429C175.815 282.277 175.451 282.089 175.187 281.865L175.571 281.193C175.827 281.385 176.155 281.553 176.555 281.697C176.955 281.833 177.375 281.901 177.815 281.901C178.415 281.901 178.847 281.809 179.111 281.625C179.375 281.433 179.507 281.181 179.507 280.869C179.507 280.637 179.431 280.457 179.279 280.329C179.135 280.193 178.943 280.093 178.703 280.029C178.463 279.957 178.195 279.897 177.899 279.849C177.603 279.801 177.307 279.745 177.011 279.681C176.723 279.617 176.459 279.525 176.219 279.405C175.979 279.277 175.783 279.105 175.631 278.889C175.487 278.673 175.415 278.385 175.415 278.025C175.415 277.681 175.511 277.373 175.703 277.101C175.895 276.829 176.175 276.617 176.543 276.465C176.919 276.305 177.375 276.225 177.911 276.225C178.319 276.225 178.727 276.281 179.135 276.393C179.543 276.497 179.879 276.637 180.143 276.813L179.771 277.497C179.491 277.305 179.191 277.169 178.871 277.089C178.551 277.001 178.231 276.957 177.911 276.957C177.343 276.957 176.923 277.057 176.651 277.257C176.387 277.449 176.255 277.697 176.255 278.001C176.255 278.241 176.327 278.429 176.471 278.565C176.623 278.701 176.819 278.809 177.059 278.889C177.307 278.961 177.575 279.021 177.863 279.069C178.159 279.117 178.451 279.177 178.739 279.249C179.035 279.313 179.303 279.405 179.543 279.525C179.791 279.637 179.987 279.801 180.131 280.017C180.283 280.225 180.359 280.501 180.359 280.845C180.359 281.213 180.255 281.533 180.047 281.805C179.847 282.069 179.551 282.277 179.159 282.429C178.775 282.573 178.307 282.645 177.755 282.645ZM185.243 282.585V274.185H188.663C189.559 274.185 190.343 274.365 191.015 274.725C191.695 275.077 192.223 275.569 192.599 276.201C192.975 276.833 193.163 277.561 193.163 278.385C193.163 279.209 192.975 279.937 192.599 280.569C192.223 281.201 191.695 281.697 191.015 282.057C190.343 282.409 189.559 282.585 188.663 282.585H185.243ZM186.131 281.817H188.615C189.359 281.817 190.003 281.673 190.547 281.385C191.099 281.089 191.527 280.685 191.831 280.173C192.135 279.653 192.287 279.057 192.287 278.385C192.287 277.705 192.135 277.109 191.831 276.597C191.527 276.085 191.099 275.685 190.547 275.397C190.003 275.101 189.359 274.953 188.615 274.953H186.131V281.817ZM197.653 282.645C196.997 282.645 196.421 282.509 195.925 282.237C195.429 281.957 195.041 281.577 194.761 281.097C194.481 280.609 194.341 280.053 194.341 279.429C194.341 278.805 194.473 278.253 194.737 277.773C195.009 277.293 195.377 276.917 195.841 276.645C196.313 276.365 196.841 276.225 197.425 276.225C198.017 276.225 198.541 276.361 198.997 276.633C199.461 276.897 199.825 277.273 200.089 277.761C200.353 278.241 200.485 278.797 200.485 279.429C200.485 279.469 200.481 279.513 200.473 279.561C200.473 279.601 200.473 279.645 200.473 279.693H194.989V279.057H200.017L199.681 279.309C199.681 278.853 199.581 278.449 199.381 278.097C199.189 277.737 198.925 277.457 198.589 277.257C198.253 277.057 197.865 276.957 197.425 276.957C196.993 276.957 196.605 277.057 196.261 277.257C195.917 277.457 195.649 277.737 195.457 278.097C195.265 278.457 195.169 278.869 195.169 279.333V279.465C195.169 279.945 195.273 280.369 195.481 280.737C195.697 281.097 195.993 281.381 196.369 281.589C196.753 281.789 197.189 281.889 197.677 281.889C198.061 281.889 198.417 281.821 198.745 281.685C199.081 281.549 199.369 281.341 199.609 281.061L200.089 281.613C199.809 281.949 199.457 282.205 199.033 282.381C198.617 282.557 198.157 282.645 197.653 282.645ZM202.219 282.585V273.681H203.071V282.585H202.219ZM205.442 282.585V276.285H206.294V282.585H205.442ZM205.874 274.893C205.698 274.893 205.55 274.833 205.43 274.713C205.31 274.593 205.25 274.449 205.25 274.281C205.25 274.113 205.31 273.973 205.43 273.861C205.55 273.741 205.698 273.681 205.874 273.681C206.05 273.681 206.198 273.737 206.318 273.849C206.438 273.961 206.498 274.101 206.498 274.269C206.498 274.445 206.438 274.593 206.318 274.713C206.206 274.833 206.058 274.893 205.874 274.893ZM210.285 282.585L207.489 276.285H208.377L210.945 282.129H210.525L213.129 276.285H213.969L211.161 282.585H210.285ZM217.669 282.645C217.013 282.645 216.437 282.509 215.941 282.237C215.445 281.957 215.057 281.577 214.777 281.097C214.497 280.609 214.357 280.053 214.357 279.429C214.357 278.805 214.489 278.253 214.753 277.773C215.025 277.293 215.393 276.917 215.857 276.645C216.329 276.365 216.857 276.225 217.441 276.225C218.033 276.225 218.557 276.361 219.013 276.633C219.477 276.897 219.841 277.273 220.105 277.761C220.369 278.241 220.501 278.797 220.501 279.429C220.501 279.469 220.497 279.513 220.489 279.561C220.489 279.601 220.489 279.645 220.489 279.693H215.005V279.057H220.033L219.697 279.309C219.697 278.853 219.597 278.449 219.397 278.097C219.205 277.737 218.941 277.457 218.605 277.257C218.269 277.057 217.881 276.957 217.441 276.957C217.009 276.957 216.621 277.057 216.277 277.257C215.933 277.457 215.665 277.737 215.473 278.097C215.281 278.457 215.185 278.869 215.185 279.333V279.465C215.185 279.945 215.289 280.369 215.497 280.737C215.713 281.097 216.009 281.381 216.385 281.589C216.769 281.789 217.205 281.889 217.693 281.889C218.077 281.889 218.433 281.821 218.761 281.685C219.097 281.549 219.385 281.341 219.625 281.061L220.105 281.613C219.825 281.949 219.473 282.205 219.049 282.381C218.633 282.557 218.173 282.645 217.669 282.645ZM222.235 282.585V276.285H223.051V278.001L222.967 277.701C223.143 277.221 223.439 276.857 223.855 276.609C224.271 276.353 224.787 276.225 225.403 276.225V277.053C225.371 277.053 225.339 277.053 225.307 277.053C225.275 277.045 225.243 277.041 225.211 277.041C224.547 277.041 224.027 277.245 223.651 277.653C223.275 278.053 223.087 278.625 223.087 279.369V282.585H222.235ZM227.275 284.973C226.979 284.973 226.695 284.925 226.423 284.829C226.159 284.733 225.931 284.589 225.739 284.397L226.135 283.761C226.295 283.913 226.467 284.029 226.651 284.109C226.843 284.197 227.055 284.241 227.287 284.241C227.567 284.241 227.807 284.161 228.007 284.001C228.215 283.849 228.411 283.577 228.595 283.185L229.003 282.261L229.099 282.129L231.691 276.285H232.531L229.375 283.341C229.199 283.749 229.003 284.073 228.787 284.313C228.579 284.553 228.351 284.721 228.103 284.817C227.855 284.921 227.579 284.973 227.275 284.973ZM228.955 282.765L226.051 276.285H226.939L229.507 282.069L228.955 282.765Z" fill="white"/>
<g clip-path="url(#clip1_405_5380)">
<path d="M149.3 320.585C149.1 320.585 149 320.485 148.9 320.385C148.8 320.285 148.8 320.085 148.8 319.885L151.4 312.785H144.3C141.9 312.785 140 310.785 140 308.285V301.085C140 300.385 140.5 299.885 141.2 299.885C142.5 299.885 143.7 300.785 144.1 302.085L145.2 305.885C145.3 306.185 145.6 306.385 145.9 306.385H151.4L148.8 299.285C148.7 299.085 148.8 298.885 148.9 298.785C149 298.685 149.2 298.585 149.3 298.585H151.7C152.8 298.585 153.7 299.185 154.3 300.085L158.1 306.385H163.7C166.2 306.385 168.5 307.685 169.8 309.885C170 310.185 170.1 310.485 170.1 310.885C170.1 311.885 169.3 312.785 168.3 312.785H158.3L154.4 319.185C153.8 320.085 152.9 320.685 151.8 320.685H149.3V320.585ZM153.1 309.085C153.2 309.085 153.2 309.085 153.3 309.085C153.4 309.185 153.5 309.285 153.6 309.385C153.7 309.485 153.7 309.685 153.6 309.785L150.1 319.485H151.7C152.4 319.485 153 319.085 153.4 318.485L159 309.285C159.1 309.085 159.3 308.985 159.4 308.985C159.5 308.985 159.6 308.985 159.7 309.085C159.8 309.185 159.9 309.285 159.9 309.385C159.9 309.485 159.9 309.685 159.8 309.785L158.7 311.585H168.1C168.6 311.585 168.8 311.185 168.8 310.785C168.8 310.685 168.8 310.485 168.7 310.385C167.6 308.485 165.6 307.385 163.5 307.385H145.9C145.1 307.385 144.4 306.885 144.2 306.085L143.1 302.385C142.8 301.585 142.1 300.985 141.2 300.985H141.1V301.085V308.285C141.1 310.185 142.6 311.685 144.3 311.685H151.8L152.6 309.385C152.7 309.185 152.9 309.085 153.1 309.085ZM152.5 306.385H156.8L153.3 300.585C152.9 299.985 152.3 299.585 151.6 299.585H150L152.5 306.385Z" fill="#9FCCFF"/>
</g>
<defs>
<clipPath id="clip0_405_5380">
<rect width="22" height="22" fill="white" transform="translate(11 298.585)"/>
</clipPath>
<clipPath id="clip1_405_5380">
<rect width="30" height="22" fill="white" transform="translate(140 298.585)"/>
</clipPath>
</defs>
</svg>
