<svg width="783" height="357" viewBox="0 0 783 357" fill="none" xmlns="http://www.w3.org/2000/svg">
<rect x="3" y="328" width="780" height="1" fill="#BCC9DA" fill-opacity="0.36"/>
<rect x="3" y="327.585" width="130" height="1" fill="#227CE4"/>
<rect x="133" y="327.585" width="258" height="1" fill="#9FCCFF"/>
<rect x="3" y="77.5854" width="1" height="250" fill="#227CE4"/>
<circle cx="3.5" cy="74.0854" r="3.5" fill="#227CE4"/>
<rect x="132" y="197.585" width="1" height="130" fill="#227CE4"/>
<circle cx="132.5" cy="194.085" r="3.5" fill="#227CE4"/>
<rect x="390" y="197.585" width="1" height="130" fill="#9FCCFF"/>
<circle cx="390.5" cy="194.085" r="3.5" fill="#9FCCFF"/>
<path d="M15.672 16.8254L15.672 20.9694L13.752 20.9694V18.5854H5.16V20.9694H3.224L3.24 16.8254H3.72C4.424 16.7934 4.91467 16.2761 5.192 15.2734C5.48 14.2601 5.656 12.8148 5.72 10.9374L5.848 7.38545L14.056 7.38545V16.8254H15.672ZM7.544 11.1294C7.49067 12.5801 7.37333 13.7908 7.192 14.7614C7.01067 15.7214 6.72267 16.4094 6.328 16.8254H12.008V9.14545L7.624 9.14545L7.544 11.1294ZM25.2503 14.3614C25.2503 14.5001 25.2396 14.6974 25.2183 14.9534L18.5143 14.9534C18.6316 15.5828 18.9356 16.0841 19.4263 16.4574C19.9276 16.8201 20.5463 17.0014 21.2823 17.0014C22.2209 17.0014 22.9943 16.6921 23.6023 16.0734L24.6743 17.3054C24.2903 17.7641 23.8049 18.1108 23.2183 18.3454C22.6316 18.5801 21.9703 18.6974 21.2343 18.6974C20.2956 18.6974 19.4689 18.5108 18.7543 18.1374C18.0396 17.7641 17.4849 17.2468 17.0903 16.5854C16.7063 15.9134 16.5143 15.1561 16.5143 14.3134C16.5143 13.4814 16.7009 12.7348 17.0743 12.0734C17.4583 11.4014 17.9863 10.8788 18.6583 10.5054C19.3303 10.1321 20.0876 9.94545 20.9303 9.94545C21.7623 9.94545 22.5036 10.1321 23.1543 10.5054C23.8156 10.8681 24.3276 11.3854 24.6903 12.0574C25.0636 12.7188 25.2503 13.4868 25.2503 14.3614ZM20.9303 11.5454C20.2903 11.5454 19.7463 11.7374 19.2983 12.1214C18.8609 12.4948 18.5943 12.9961 18.4983 13.6254L23.3463 13.6254C23.2609 13.0068 22.9996 12.5054 22.5623 12.1214C22.1249 11.7374 21.5809 11.5454 20.9303 11.5454ZM27.4378 10.0414H29.4378L29.4378 13.5134L33.7418 13.5134V10.0414H35.7418V18.5854H33.7418V15.2094L29.4378 15.2094V18.5854H27.4378L27.4378 10.0414ZM42.7101 12.8574C43.7981 12.8574 44.6301 13.1028 45.2061 13.5934C45.7928 14.0841 46.0861 14.7774 46.0861 15.6734C46.0861 16.6121 45.7661 17.3374 45.1261 17.8494C44.4861 18.3614 43.5848 18.6121 42.4221 18.6014L38.4221 18.5854V10.0414H40.4221V12.8414L42.7101 12.8574ZM42.2461 17.1294C42.8328 17.1401 43.2808 17.0174 43.5901 16.7614C43.8995 16.5054 44.0541 16.1321 44.0541 15.6414C44.0541 15.1614 43.9048 14.8094 43.6061 14.5854C43.3075 14.3614 42.8541 14.2441 42.2461 14.2334L40.4221 14.2174V17.1134L42.2461 17.1294ZM57.3699 14.1374C57.9032 14.2868 58.3139 14.5321 58.6019 14.8734C58.9005 15.2041 59.0499 15.6041 59.0499 16.0734C59.0499 16.5961 58.8739 17.0601 58.5219 17.4654C58.1699 17.8601 57.6845 18.1694 57.0659 18.3934C56.4472 18.6174 55.7432 18.7294 54.9539 18.7294C54.2925 18.7294 53.6472 18.6548 53.0179 18.5054C52.3885 18.3454 51.8179 18.1214 51.3059 17.8334L51.8819 16.3454C52.2979 16.5801 52.7672 16.7614 53.2899 16.8894C53.8125 17.0174 54.3352 17.0814 54.8579 17.0814C55.5299 17.0814 56.0525 16.9801 56.4259 16.7774C56.8099 16.5641 57.0019 16.2761 57.0019 15.9134C57.0019 15.5828 56.8525 15.3268 56.5539 15.1454C56.2659 14.9641 55.8552 14.8734 55.3219 14.8734H53.6579V13.5294H55.1619C55.6632 13.5294 56.0525 13.4441 56.3299 13.2734C56.6179 13.1028 56.7619 12.8628 56.7619 12.5534C56.7619 12.2441 56.5912 11.9988 56.2499 11.8174C55.9085 11.6361 55.4392 11.5454 54.8419 11.5454C53.9885 11.5454 53.0872 11.7534 52.1379 12.1694L51.6259 10.6974C52.7459 10.1748 53.8765 9.91345 55.0179 9.91345C55.7432 9.91345 56.3939 10.0148 56.9699 10.2174C57.5459 10.4094 57.9939 10.6868 58.3139 11.0494C58.6445 11.4014 58.8099 11.8068 58.8099 12.2654C58.8099 12.6814 58.6819 13.0548 58.4259 13.3854C58.1699 13.7054 57.8179 13.9561 57.3699 14.1374ZM64.3093 9.94545C65.5679 9.94545 66.5279 10.2494 67.1893 10.8574C67.8613 11.4548 68.1973 12.3614 68.1973 13.5774V18.5854H66.3093V17.5454C66.0639 17.9188 65.7119 18.2068 65.2533 18.4094C64.8053 18.6014 64.2613 18.6974 63.6213 18.6974C62.9813 18.6974 62.4213 18.5908 61.9413 18.3774C61.4613 18.1534 61.0879 17.8494 60.8213 17.4654C60.5653 17.0708 60.4373 16.6281 60.4373 16.1374C60.4373 15.3694 60.7199 14.7561 61.2853 14.2974C61.8613 13.8281 62.7626 13.5934 63.9893 13.5934H66.1973V13.4654C66.1973 12.8681 66.0159 12.4094 65.6533 12.0894C65.3013 11.7694 64.7733 11.6094 64.0693 11.6094C63.5893 11.6094 63.1146 11.6841 62.6453 11.8334C62.1866 11.9828 61.7973 12.1908 61.4773 12.4574L60.6933 11.0014C61.1413 10.6601 61.6799 10.3988 62.3093 10.2174C62.9386 10.0361 63.6053 9.94545 64.3093 9.94545ZM64.0373 17.2414C64.5386 17.2414 64.9813 17.1294 65.3653 16.9054C65.7599 16.6708 66.0373 16.3401 66.1973 15.9134V14.9214H64.1333C62.9813 14.9214 62.4053 15.3001 62.4053 16.0574C62.4053 16.4201 62.5493 16.7081 62.8373 16.9214C63.1253 17.1348 63.5253 17.2414 64.0373 17.2414ZM74.2241 15.1614H72.6721V18.5854H70.6721V10.0414H72.6721V13.4974H74.2721L76.8001 10.0414H78.9441L75.8401 14.1534L79.1521 18.5854H76.8001L74.2241 15.1614ZM83.5905 9.94545C84.8492 9.94545 85.8092 10.2494 86.4705 10.8574C87.1425 11.4548 87.4785 12.3614 87.4785 13.5774V18.5854H85.5905V17.5454C85.3452 17.9188 84.9932 18.2068 84.5345 18.4094C84.0865 18.6014 83.5425 18.6974 82.9025 18.6974C82.2625 18.6974 81.7025 18.5908 81.2225 18.3774C80.7425 18.1534 80.3692 17.8494 80.1025 17.4654C79.8465 17.0708 79.7185 16.6281 79.7185 16.1374C79.7185 15.3694 80.0012 14.7561 80.5665 14.2974C81.1425 13.8281 82.0438 13.5934 83.2705 13.5934H85.4785V13.4654C85.4785 12.8681 85.2972 12.4094 84.9345 12.0894C84.5825 11.7694 84.0545 11.6094 83.3505 11.6094C82.8705 11.6094 82.3958 11.6841 81.9265 11.8334C81.4678 11.9828 81.0785 12.1908 80.7585 12.4574L79.9745 11.0014C80.4225 10.6601 80.9612 10.3988 81.5905 10.2174C82.2198 10.0361 82.8865 9.94545 83.5905 9.94545ZM83.3185 17.2414C83.8198 17.2414 84.2625 17.1294 84.6465 16.9054C85.0412 16.6708 85.3185 16.3401 85.4785 15.9134V14.9214H83.4145C82.2625 14.9214 81.6865 15.3001 81.6865 16.0574C81.6865 16.4201 81.8305 16.7081 82.1185 16.9214C82.4065 17.1348 82.8065 17.2414 83.3185 17.2414ZM94.948 14.1374C95.4813 14.2868 95.892 14.5321 96.18 14.8734C96.4787 15.2041 96.628 15.6041 96.628 16.0734C96.628 16.5961 96.452 17.0601 96.1 17.4654C95.748 17.8601 95.2627 18.1694 94.644 18.3934C94.0253 18.6174 93.3213 18.7294 92.532 18.7294C91.8707 18.7294 91.2253 18.6548 90.596 18.5054C89.9667 18.3454 89.396 18.1214 88.884 17.8334L89.46 16.3454C89.876 16.5801 90.3453 16.7614 90.868 16.8894C91.3907 17.0174 91.9133 17.0814 92.436 17.0814C93.108 17.0814 93.6307 16.9801 94.004 16.7774C94.388 16.5641 94.58 16.2761 94.58 15.9134C94.58 15.5828 94.4307 15.3268 94.132 15.1454C93.844 14.9641 93.4333 14.8734 92.9 14.8734H91.236V13.5294H92.74C93.2413 13.5294 93.6307 13.4441 93.908 13.2734C94.196 13.1028 94.34 12.8628 94.34 12.5534C94.34 12.2441 94.1693 11.9988 93.828 11.8174C93.4867 11.6361 93.0173 11.5454 92.42 11.5454C91.5667 11.5454 90.6653 11.7534 89.716 12.1694L89.204 10.6974C90.324 10.1748 91.4547 9.91345 92.596 9.91345C93.3213 9.91345 93.972 10.0148 94.548 10.2174C95.124 10.4094 95.572 10.6868 95.892 11.0494C96.2227 11.4014 96.388 11.8068 96.388 12.2654C96.388 12.6814 96.26 13.0548 96.004 13.3854C95.748 13.7054 95.396 13.9561 94.948 14.1374ZM101.887 9.94545C103.146 9.94545 104.106 10.2494 104.767 10.8574C105.439 11.4548 105.775 12.3614 105.775 13.5774V18.5854H103.887V17.5454C103.642 17.9188 103.29 18.2068 102.831 18.4094C102.383 18.6014 101.839 18.6974 101.199 18.6974C100.559 18.6974 99.9994 18.5908 99.5194 18.3774C99.0394 18.1534 98.666 17.8494 98.3994 17.4654C98.1434 17.0708 98.0154 16.6281 98.0154 16.1374C98.0154 15.3694 98.298 14.7561 98.8634 14.2974C99.4394 13.8281 100.341 13.5934 101.567 13.5934H103.775V13.4654C103.775 12.8681 103.594 12.4094 103.231 12.0894C102.879 11.7694 102.351 11.6094 101.647 11.6094C101.167 11.6094 100.693 11.6841 100.223 11.8334C99.7647 11.9828 99.3754 12.1908 99.0554 12.4574L98.2714 11.0014C98.7194 10.6601 99.258 10.3988 99.8874 10.2174C100.517 10.0361 101.183 9.94545 101.887 9.94545ZM101.615 17.2414C102.117 17.2414 102.559 17.1294 102.943 16.9054C103.338 16.6708 103.615 16.3401 103.775 15.9134V14.9214H101.711C100.559 14.9214 99.9834 15.3001 99.9834 16.0574C99.9834 16.4201 100.127 16.7081 100.415 16.9214C100.703 17.1348 101.103 17.2414 101.615 17.2414Z" fill="white"/>
<path d="M137.696 133.865H135.616V138.585H133.568V127.385H135.616V132.073H137.76L140.976 127.385H143.184L139.36 132.809L143.328 138.585H140.976L137.696 133.865ZM148.215 138.697C147.351 138.697 146.572 138.511 145.879 138.137C145.185 137.764 144.641 137.247 144.247 136.585C143.863 135.913 143.671 135.156 143.671 134.313C143.671 133.471 143.863 132.719 144.247 132.057C144.641 131.396 145.185 130.879 145.879 130.505C146.572 130.132 147.351 129.945 148.215 129.945C149.089 129.945 149.873 130.132 150.567 130.505C151.26 130.879 151.799 131.396 152.183 132.057C152.577 132.719 152.775 133.471 152.775 134.313C152.775 135.156 152.577 135.913 152.183 136.585C151.799 137.247 151.26 137.764 150.567 138.137C149.873 138.511 149.089 138.697 148.215 138.697ZM148.215 136.985C148.951 136.985 149.559 136.74 150.039 136.249C150.519 135.759 150.759 135.113 150.759 134.313C150.759 133.513 150.519 132.868 150.039 132.377C149.559 131.887 148.951 131.641 148.215 131.641C147.479 131.641 146.871 131.887 146.391 132.377C145.921 132.868 145.687 133.513 145.687 134.313C145.687 135.113 145.921 135.759 146.391 136.249C146.871 136.74 147.479 136.985 148.215 136.985ZM154.75 130.041H156.75V133.513H161.054V130.041H163.054V138.585H161.054V135.209H156.75V138.585H154.75V130.041ZM173.735 134.361C173.735 134.5 173.724 134.697 173.703 134.953H166.999C167.116 135.583 167.42 136.084 167.911 136.457C168.412 136.82 169.031 137.001 169.767 137.001C170.705 137.001 171.479 136.692 172.087 136.073L173.159 137.305C172.775 137.764 172.289 138.111 171.703 138.345C171.116 138.58 170.455 138.697 169.719 138.697C168.78 138.697 167.953 138.511 167.239 138.137C166.524 137.764 165.969 137.247 165.575 136.585C165.191 135.913 164.999 135.156 164.999 134.313C164.999 133.481 165.185 132.735 165.559 132.073C165.943 131.401 166.471 130.879 167.143 130.505C167.815 130.132 168.572 129.945 169.415 129.945C170.247 129.945 170.988 130.132 171.639 130.505C172.3 130.868 172.812 131.385 173.175 132.057C173.548 132.719 173.735 133.487 173.735 134.361ZM169.415 131.545C168.775 131.545 168.231 131.737 167.783 132.121C167.345 132.495 167.079 132.996 166.983 133.625H171.831C171.745 133.007 171.484 132.505 171.047 132.121C170.609 131.737 170.065 131.545 169.415 131.545ZM185.298 136.889V140.553H183.426V138.585H175.922V130.041H177.922V136.889H182.002V130.041H184.002V136.889H185.298ZM195.388 138.697C194.503 138.697 193.708 138.511 193.004 138.137C192.3 137.764 191.751 137.247 191.356 136.585C190.962 135.913 190.764 135.156 190.764 134.313C190.764 133.471 190.962 132.719 191.356 132.057C191.751 131.396 192.295 130.879 192.988 130.505C193.692 130.132 194.492 129.945 195.388 129.945C196.231 129.945 196.967 130.116 197.596 130.457C198.236 130.799 198.716 131.289 199.036 131.929L197.5 132.825C197.255 132.431 196.946 132.137 196.572 131.945C196.21 131.743 195.81 131.641 195.372 131.641C194.626 131.641 194.007 131.887 193.516 132.377C193.026 132.857 192.78 133.503 192.78 134.313C192.78 135.124 193.02 135.775 193.5 136.265C193.991 136.745 194.615 136.985 195.372 136.985C195.81 136.985 196.21 136.889 196.572 136.697C196.946 136.495 197.255 136.196 197.5 135.801L199.036 136.697C198.706 137.337 198.22 137.833 197.58 138.185C196.951 138.527 196.22 138.697 195.388 138.697ZM205.343 130.457C206.154 130.457 206.868 130.633 207.487 130.985C208.106 131.327 208.586 131.807 208.927 132.425C209.279 133.044 209.455 133.753 209.455 134.553C209.455 135.375 209.263 136.105 208.879 136.745C208.495 137.375 207.956 137.865 207.263 138.217C206.57 138.569 205.78 138.745 204.895 138.745C203.412 138.745 202.266 138.255 201.455 137.273C200.644 136.292 200.239 134.879 200.239 133.033C200.239 131.316 200.607 129.956 201.343 128.953C202.079 127.951 203.204 127.289 204.719 126.969L208.687 126.121L208.975 127.913L205.375 128.649C204.34 128.863 203.567 129.225 203.055 129.737C202.543 130.249 202.244 130.969 202.159 131.897C202.543 131.439 203.007 131.087 203.551 130.841C204.095 130.585 204.692 130.457 205.343 130.457ZM204.943 137.129C205.679 137.129 206.271 136.895 206.719 136.425C207.178 135.945 207.407 135.337 207.407 134.601C207.407 133.865 207.178 133.273 206.719 132.825C206.271 132.377 205.679 132.153 204.943 132.153C204.196 132.153 203.594 132.377 203.135 132.825C202.676 133.273 202.447 133.865 202.447 134.601C202.447 135.348 202.676 135.956 203.135 136.425C203.604 136.895 204.207 137.129 204.943 137.129ZM215.199 138.697C214.335 138.697 213.556 138.511 212.863 138.137C212.17 137.764 211.626 137.247 211.231 136.585C210.847 135.913 210.655 135.156 210.655 134.313C210.655 133.471 210.847 132.719 211.231 132.057C211.626 131.396 212.17 130.879 212.863 130.505C213.556 130.132 214.335 129.945 215.199 129.945C216.074 129.945 216.858 130.132 217.551 130.505C218.244 130.879 218.783 131.396 219.167 132.057C219.562 132.719 219.759 133.471 219.759 134.313C219.759 135.156 219.562 135.913 219.167 136.585C218.783 137.247 218.244 137.764 217.551 138.137C216.858 138.511 216.074 138.697 215.199 138.697ZM215.199 136.985C215.935 136.985 216.543 136.74 217.023 136.249C217.503 135.759 217.743 135.113 217.743 134.313C217.743 133.513 217.503 132.868 217.023 132.377C216.543 131.887 215.935 131.641 215.199 131.641C214.463 131.641 213.855 131.887 213.375 132.377C212.906 132.868 212.671 133.513 212.671 134.313C212.671 135.113 212.906 135.759 213.375 136.249C213.855 136.74 214.463 136.985 215.199 136.985ZM226.471 129.945C227.303 129.945 228.044 130.127 228.695 130.489C229.356 130.852 229.873 131.364 230.247 132.025C230.62 132.687 230.807 133.449 230.807 134.313C230.807 135.177 230.62 135.945 230.247 136.617C229.873 137.279 229.356 137.791 228.695 138.153C228.044 138.516 227.303 138.697 226.471 138.697C225.319 138.697 224.407 138.313 223.735 137.545V141.689H221.735V130.041H223.639V131.161C223.969 130.756 224.375 130.452 224.855 130.249C225.345 130.047 225.884 129.945 226.471 129.945ZM226.247 136.985C226.983 136.985 227.585 136.74 228.055 136.249C228.535 135.759 228.775 135.113 228.775 134.313C228.775 133.513 228.535 132.868 228.055 132.377C227.585 131.887 226.983 131.641 226.247 131.641C225.767 131.641 225.335 131.753 224.951 131.977C224.567 132.191 224.263 132.5 224.039 132.905C223.815 133.311 223.703 133.78 223.703 134.313C223.703 134.847 223.815 135.316 224.039 135.721C224.263 136.127 224.567 136.441 224.951 136.665C225.335 136.879 225.767 136.985 226.247 136.985ZM235.872 129.945C237.13 129.945 238.09 130.249 238.752 130.857C239.424 131.455 239.76 132.361 239.76 133.577V138.585H237.872V137.545C237.626 137.919 237.274 138.207 236.816 138.409C236.368 138.601 235.824 138.697 235.184 138.697C234.544 138.697 233.984 138.591 233.504 138.377C233.024 138.153 232.65 137.849 232.384 137.465C232.128 137.071 232 136.628 232 136.137C232 135.369 232.282 134.756 232.848 134.297C233.424 133.828 234.325 133.593 235.552 133.593H237.76V133.465C237.76 132.868 237.578 132.409 237.216 132.089C236.864 131.769 236.336 131.609 235.632 131.609C235.152 131.609 234.677 131.684 234.208 131.833C233.749 131.983 233.36 132.191 233.04 132.457L232.256 131.001C232.704 130.66 233.242 130.399 233.872 130.217C234.501 130.036 235.168 129.945 235.872 129.945ZM235.6 137.241C236.101 137.241 236.544 137.129 236.928 136.905C237.322 136.671 237.6 136.34 237.76 135.913V134.921H235.696C234.544 134.921 233.968 135.3 233.968 136.057C233.968 136.42 234.112 136.708 234.4 136.921C234.688 137.135 235.088 137.241 235.6 137.241ZM251.761 134.137C252.294 134.287 252.705 134.532 252.993 134.873C253.291 135.204 253.441 135.604 253.441 136.073C253.441 136.596 253.265 137.06 252.913 137.465C252.561 137.86 252.075 138.169 251.457 138.393C250.838 138.617 250.134 138.729 249.345 138.729C248.683 138.729 248.038 138.655 247.409 138.505C246.779 138.345 246.209 138.121 245.697 137.833L246.273 136.345C246.689 136.58 247.158 136.761 247.681 136.889C248.203 137.017 248.726 137.081 249.249 137.081C249.921 137.081 250.443 136.98 250.817 136.777C251.201 136.564 251.393 136.276 251.393 135.913C251.393 135.583 251.243 135.327 250.945 135.145C250.657 134.964 250.246 134.873 249.713 134.873H248.049V133.529H249.553C250.054 133.529 250.443 133.444 250.721 133.273C251.009 133.103 251.153 132.863 251.153 132.553C251.153 132.244 250.982 131.999 250.641 131.817C250.299 131.636 249.83 131.545 249.233 131.545C248.379 131.545 247.478 131.753 246.529 132.169L246.017 130.697C247.137 130.175 248.267 129.913 249.409 129.913C250.134 129.913 250.785 130.015 251.361 130.217C251.937 130.409 252.385 130.687 252.705 131.049C253.035 131.401 253.201 131.807 253.201 132.265C253.201 132.681 253.073 133.055 252.817 133.385C252.561 133.705 252.209 133.956 251.761 134.137ZM258.7 129.945C259.959 129.945 260.919 130.249 261.58 130.857C262.252 131.455 262.588 132.361 262.588 133.577V138.585H260.7V137.545C260.455 137.919 260.103 138.207 259.644 138.409C259.196 138.601 258.652 138.697 258.012 138.697C257.372 138.697 256.812 138.591 256.332 138.377C255.852 138.153 255.479 137.849 255.212 137.465C254.956 137.071 254.828 136.628 254.828 136.137C254.828 135.369 255.111 134.756 255.676 134.297C256.252 133.828 257.153 133.593 258.38 133.593H260.588V133.465C260.588 132.868 260.407 132.409 260.044 132.089C259.692 131.769 259.164 131.609 258.46 131.609C257.98 131.609 257.505 131.684 257.036 131.833C256.577 131.983 256.188 132.191 255.868 132.457L255.084 131.001C255.532 130.66 256.071 130.399 256.7 130.217C257.329 130.036 257.996 129.945 258.7 129.945ZM258.428 137.241C258.929 137.241 259.372 137.129 259.756 136.905C260.151 136.671 260.428 136.34 260.588 135.913V134.921H258.524C257.372 134.921 256.796 135.3 256.796 136.057C256.796 136.42 256.94 136.708 257.228 136.921C257.516 137.135 257.916 137.241 258.428 137.241ZM268.615 135.161H267.063V138.585H265.063V130.041H267.063V133.497H268.663L271.191 130.041H273.335L270.231 134.153L273.543 138.585H271.191L268.615 135.161ZM277.981 129.945C279.24 129.945 280.2 130.249 280.861 130.857C281.533 131.455 281.869 132.361 281.869 133.577V138.585H279.981V137.545C279.736 137.919 279.384 138.207 278.925 138.409C278.477 138.601 277.933 138.697 277.293 138.697C276.653 138.697 276.093 138.591 275.613 138.377C275.133 138.153 274.76 137.849 274.493 137.465C274.237 137.071 274.109 136.628 274.109 136.137C274.109 135.369 274.392 134.756 274.957 134.297C275.533 133.828 276.434 133.593 277.661 133.593H279.869V133.465C279.869 132.868 279.688 132.409 279.325 132.089C278.973 131.769 278.445 131.609 277.741 131.609C277.261 131.609 276.786 131.684 276.317 131.833C275.858 131.983 275.469 132.191 275.149 132.457L274.365 131.001C274.813 130.66 275.352 130.399 275.981 130.217C276.61 130.036 277.277 129.945 277.981 129.945ZM277.709 137.241C278.21 137.241 278.653 137.129 279.037 136.905C279.432 136.671 279.709 136.34 279.869 135.913V134.921H277.805C276.653 134.921 276.077 135.3 276.077 136.057C276.077 136.42 276.221 136.708 276.509 136.921C276.797 137.135 277.197 137.241 277.709 137.241ZM289.339 134.137C289.872 134.287 290.283 134.532 290.571 134.873C290.869 135.204 291.019 135.604 291.019 136.073C291.019 136.596 290.843 137.06 290.491 137.465C290.139 137.86 289.653 138.169 289.035 138.393C288.416 138.617 287.712 138.729 286.923 138.729C286.261 138.729 285.616 138.655 284.987 138.505C284.357 138.345 283.787 138.121 283.275 137.833L283.851 136.345C284.267 136.58 284.736 136.761 285.259 136.889C285.781 137.017 286.304 137.081 286.827 137.081C287.499 137.081 288.021 136.98 288.395 136.777C288.779 136.564 288.971 136.276 288.971 135.913C288.971 135.583 288.821 135.327 288.523 135.145C288.235 134.964 287.824 134.873 287.291 134.873H285.627V133.529H287.131C287.632 133.529 288.021 133.444 288.299 133.273C288.587 133.103 288.731 132.863 288.731 132.553C288.731 132.244 288.56 131.999 288.219 131.817C287.877 131.636 287.408 131.545 286.811 131.545C285.957 131.545 285.056 131.753 284.107 132.169L283.595 130.697C284.715 130.175 285.845 129.913 286.987 129.913C287.712 129.913 288.363 130.015 288.939 130.217C289.515 130.409 289.963 130.687 290.283 131.049C290.613 131.401 290.779 131.807 290.779 132.265C290.779 132.681 290.651 133.055 290.395 133.385C290.139 133.705 289.787 133.956 289.339 134.137ZM296.902 138.697C296.038 138.697 295.259 138.511 294.566 138.137C293.873 137.764 293.329 137.247 292.934 136.585C292.55 135.913 292.358 135.156 292.358 134.313C292.358 133.471 292.55 132.719 292.934 132.057C293.329 131.396 293.873 130.879 294.566 130.505C295.259 130.132 296.038 129.945 296.902 129.945C297.777 129.945 298.561 130.132 299.254 130.505C299.947 130.879 300.486 131.396 300.87 132.057C301.265 132.719 301.462 133.471 301.462 134.313C301.462 135.156 301.265 135.913 300.87 136.585C300.486 137.247 299.947 137.764 299.254 138.137C298.561 138.511 297.777 138.697 296.902 138.697ZM296.902 136.985C297.638 136.985 298.246 136.74 298.726 136.249C299.206 135.759 299.446 135.113 299.446 134.313C299.446 133.513 299.206 132.868 298.726 132.377C298.246 131.887 297.638 131.641 296.902 131.641C296.166 131.641 295.558 131.887 295.078 132.377C294.609 132.868 294.374 133.513 294.374 134.313C294.374 135.113 294.609 135.759 295.078 136.249C295.558 136.74 296.166 136.985 296.902 136.985ZM309.63 134.137C310.686 134.457 311.214 135.14 311.214 136.185C311.214 136.953 310.926 137.545 310.35 137.961C309.774 138.377 308.92 138.585 307.79 138.585H303.438V130.041H307.614C308.659 130.041 309.475 130.233 310.062 130.617C310.648 131.001 310.942 131.545 310.942 132.249C310.942 132.687 310.824 133.065 310.59 133.385C310.366 133.705 310.046 133.956 309.63 134.137ZM305.342 133.609H307.438C308.472 133.609 308.99 133.252 308.99 132.537C308.99 131.844 308.472 131.497 307.438 131.497H305.342V133.609ZM307.63 137.129C308.728 137.129 309.278 136.772 309.278 136.057C309.278 135.684 309.15 135.407 308.894 135.225C308.638 135.033 308.238 134.937 307.694 134.937H305.342V137.129H307.63Z" fill="white"/>
<path d="M402.672 136.825V140.969H400.752V138.585H392.16V140.969H390.224L390.24 136.825H390.72C391.424 136.793 391.915 136.276 392.192 135.273C392.48 134.26 392.656 132.815 392.72 130.937L392.848 127.385H401.056V136.825H402.672ZM394.544 131.129C394.491 132.58 394.373 133.791 394.192 134.761C394.011 135.721 393.723 136.409 393.328 136.825H399.008V129.145H394.624L394.544 131.129ZM412.25 134.361C412.25 134.5 412.24 134.697 412.218 134.953H405.514C405.632 135.583 405.936 136.084 406.426 136.457C406.928 136.82 407.546 137.001 408.282 137.001C409.221 137.001 409.994 136.692 410.602 136.073L411.674 137.305C411.29 137.764 410.805 138.111 410.218 138.345C409.632 138.58 408.97 138.697 408.234 138.697C407.296 138.697 406.469 138.511 405.754 138.137C405.04 137.764 404.485 137.247 404.09 136.585C403.706 135.913 403.514 135.156 403.514 134.313C403.514 133.481 403.701 132.735 404.074 132.073C404.458 131.401 404.986 130.879 405.658 130.505C406.33 130.132 407.088 129.945 407.93 129.945C408.762 129.945 409.504 130.132 410.154 130.505C410.816 130.868 411.328 131.385 411.69 132.057C412.064 132.719 412.25 133.487 412.25 134.361ZM407.93 131.545C407.29 131.545 406.746 131.737 406.298 132.121C405.861 132.495 405.594 132.996 405.498 133.625H410.346C410.261 133.007 410 132.505 409.562 132.121C409.125 131.737 408.581 131.545 407.93 131.545ZM414.438 130.041H416.438V133.513H420.742V130.041H422.742V138.585H420.742V135.209H416.438V138.585H414.438V130.041ZM429.71 132.857C430.798 132.857 431.63 133.103 432.206 133.593C432.793 134.084 433.086 134.777 433.086 135.673C433.086 136.612 432.766 137.337 432.126 137.849C431.486 138.361 430.585 138.612 429.422 138.601L425.422 138.585V130.041H427.422V132.841L429.71 132.857ZM429.246 137.129C429.833 137.14 430.281 137.017 430.59 136.761C430.899 136.505 431.054 136.132 431.054 135.641C431.054 135.161 430.905 134.809 430.606 134.585C430.307 134.361 429.854 134.244 429.246 134.233L427.422 134.217V137.113L429.246 137.129ZM447.458 130.041V138.585H445.474V131.737H441.266V138.585H439.266V130.041H447.458ZM453.965 138.697C453.101 138.697 452.322 138.511 451.629 138.137C450.935 137.764 450.391 137.247 449.997 136.585C449.613 135.913 449.421 135.156 449.421 134.313C449.421 133.471 449.613 132.719 449.997 132.057C450.391 131.396 450.935 130.879 451.629 130.505C452.322 130.132 453.101 129.945 453.965 129.945C454.839 129.945 455.623 130.132 456.317 130.505C457.01 130.879 457.549 131.396 457.933 132.057C458.327 132.719 458.525 133.471 458.525 134.313C458.525 135.156 458.327 135.913 457.933 136.585C457.549 137.247 457.01 137.764 456.317 138.137C455.623 138.511 454.839 138.697 453.965 138.697ZM453.965 136.985C454.701 136.985 455.309 136.74 455.789 136.249C456.269 135.759 456.509 135.113 456.509 134.313C456.509 133.513 456.269 132.868 455.789 132.377C455.309 131.887 454.701 131.641 453.965 131.641C453.229 131.641 452.621 131.887 452.141 132.377C451.671 132.868 451.437 133.513 451.437 134.313C451.437 135.113 451.671 135.759 452.141 136.249C452.621 136.74 453.229 136.985 453.965 136.985ZM464.388 138.697C463.503 138.697 462.708 138.511 462.004 138.137C461.3 137.764 460.751 137.247 460.356 136.585C459.962 135.913 459.764 135.156 459.764 134.313C459.764 133.471 459.962 132.719 460.356 132.057C460.751 131.396 461.295 130.879 461.988 130.505C462.692 130.132 463.492 129.945 464.388 129.945C465.231 129.945 465.967 130.116 466.596 130.457C467.236 130.799 467.716 131.289 468.036 131.929L466.5 132.825C466.255 132.431 465.946 132.137 465.572 131.945C465.21 131.743 464.81 131.641 464.372 131.641C463.626 131.641 463.007 131.887 462.516 132.377C462.026 132.857 461.78 133.503 461.78 134.313C461.78 135.124 462.02 135.775 462.5 136.265C462.991 136.745 463.615 136.985 464.372 136.985C464.81 136.985 465.21 136.889 465.572 136.697C465.946 136.495 466.255 136.196 466.5 135.801L468.036 136.697C467.706 137.337 467.22 137.833 466.58 138.185C465.951 138.527 465.22 138.697 464.388 138.697ZM476.487 131.737H473.495V138.585H471.495V131.737H468.487V130.041H476.487V131.737ZM481.122 129.945C482.38 129.945 483.34 130.249 484.002 130.857C484.674 131.455 485.01 132.361 485.01 133.577V138.585H483.122V137.545C482.876 137.919 482.524 138.207 482.066 138.409C481.618 138.601 481.074 138.697 480.434 138.697C479.794 138.697 479.234 138.591 478.754 138.377C478.274 138.153 477.9 137.849 477.634 137.465C477.378 137.071 477.25 136.628 477.25 136.137C477.25 135.369 477.532 134.756 478.098 134.297C478.674 133.828 479.575 133.593 480.802 133.593H483.01V133.465C483.01 132.868 482.828 132.409 482.466 132.089C482.114 131.769 481.586 131.609 480.882 131.609C480.402 131.609 479.927 131.684 479.458 131.833C478.999 131.983 478.61 132.191 478.29 132.457L477.506 131.001C477.954 130.66 478.492 130.399 479.122 130.217C479.751 130.036 480.418 129.945 481.122 129.945ZM480.85 137.241C481.351 137.241 481.794 137.129 482.178 136.905C482.572 136.671 482.85 136.34 483.01 135.913V134.921H480.946C479.794 134.921 479.218 135.3 479.218 136.057C479.218 136.42 479.362 136.708 479.65 136.921C479.938 137.135 480.338 137.241 480.85 137.241ZM493.677 134.137C494.733 134.457 495.261 135.14 495.261 136.185C495.261 136.953 494.973 137.545 494.397 137.961C493.821 138.377 492.967 138.585 491.837 138.585L487.485 138.585V130.041H491.661C492.706 130.041 493.522 130.233 494.109 130.617C494.695 131.001 494.989 131.545 494.989 132.249C494.989 132.687 494.871 133.065 494.637 133.385C494.413 133.705 494.093 133.956 493.677 134.137ZM489.389 133.609H491.485C492.519 133.609 493.037 133.252 493.037 132.537C493.037 131.844 492.519 131.497 491.485 131.497H489.389V133.609ZM491.677 137.129C492.775 137.129 493.325 136.772 493.325 136.057C493.325 135.684 493.197 135.407 492.941 135.225C492.685 135.033 492.285 134.937 491.741 134.937H489.389V137.129L491.677 137.129ZM500.943 135.161H499.391V138.585H497.391V130.041H499.391V133.497H500.991L503.519 130.041H505.663L502.559 134.153L505.871 138.585H503.519L500.943 135.161ZM507.282 130.041H509.282V135.673L514.002 130.041H515.826V138.585H513.826V132.953L509.122 138.585H507.282V130.041Z" fill="white"/>
<path d="M15.088 282.657C14.256 282.657 13.504 282.473 12.832 282.105C12.168 281.737 11.644 281.229 11.26 280.581C10.884 279.925 10.696 279.193 10.696 278.385C10.696 277.577 10.884 276.849 11.26 276.201C11.644 275.545 12.172 275.033 12.844 274.665C13.516 274.297 14.268 274.113 15.1 274.113C15.724 274.113 16.3 274.217 16.828 274.425C17.356 274.633 17.804 274.937 18.172 275.337L17.608 275.901C16.952 275.237 16.124 274.905 15.124 274.905C14.46 274.905 13.856 275.057 13.312 275.361C12.768 275.665 12.34 276.081 12.028 276.609C11.724 277.137 11.572 277.729 11.572 278.385C11.572 279.041 11.724 279.633 12.028 280.161C12.34 280.689 12.768 281.105 13.312 281.409C13.856 281.713 14.46 281.865 15.124 281.865C16.132 281.865 16.96 281.529 17.608 280.857L18.172 281.421C17.804 281.821 17.352 282.129 16.816 282.345C16.288 282.553 15.712 282.657 15.088 282.657ZM22.6861 276.429C23.2701 276.429 23.7901 276.561 24.2461 276.825C24.7101 277.081 25.0701 277.445 25.3261 277.917C25.5821 278.381 25.7101 278.913 25.7101 279.513C25.7101 280.129 25.5741 280.677 25.3021 281.157C25.0381 281.629 24.6661 281.997 24.1861 282.261C23.7061 282.525 23.1541 282.657 22.5301 282.657C21.4821 282.657 20.6701 282.289 20.0941 281.553C19.5181 280.817 19.2301 279.801 19.2301 278.505C19.2301 277.153 19.4861 276.117 19.9981 275.397C20.5181 274.677 21.3261 274.189 22.4221 273.933L25.2541 273.285L25.3981 274.065L22.7341 274.677C21.8301 274.877 21.1661 275.233 20.7421 275.745C20.3181 276.249 20.0861 276.997 20.0461 277.989C20.3021 277.501 20.6581 277.121 21.1141 276.849C21.5701 276.569 22.0941 276.429 22.6861 276.429ZM22.5541 281.949C22.9941 281.949 23.3861 281.849 23.7301 281.649C24.0821 281.441 24.3541 281.153 24.5461 280.785C24.7461 280.417 24.8461 280.001 24.8461 279.537C24.8461 279.073 24.7501 278.665 24.5581 278.313C24.3661 277.961 24.0941 277.689 23.7421 277.497C23.3981 277.297 23.0021 277.197 22.5541 277.197C22.1061 277.197 21.7061 277.297 21.3541 277.497C21.0101 277.689 20.7381 277.961 20.5381 278.313C20.3461 278.665 20.2501 279.073 20.2501 279.537C20.2501 280.001 20.3461 280.417 20.5381 280.785C20.7381 281.153 21.0141 281.441 21.3661 281.649C21.7181 281.849 22.1141 281.949 22.5541 281.949ZM30.1402 282.645C29.5322 282.645 28.9842 282.509 28.4962 282.237C28.0082 281.957 27.6242 281.573 27.3442 281.085C27.0642 280.597 26.9242 280.045 26.9242 279.429C26.9242 278.813 27.0642 278.261 27.3442 277.773C27.6242 277.285 28.0082 276.905 28.4962 276.633C28.9842 276.361 29.5322 276.225 30.1402 276.225C30.7482 276.225 31.2962 276.361 31.7842 276.633C32.2722 276.905 32.6522 277.285 32.9242 277.773C33.2042 278.261 33.3442 278.813 33.3442 279.429C33.3442 280.045 33.2042 280.597 32.9242 281.085C32.6522 281.573 32.2722 281.957 31.7842 282.237C31.2962 282.509 30.7482 282.645 30.1402 282.645ZM30.1402 281.889C30.5882 281.889 30.9882 281.789 31.3402 281.589C31.7002 281.381 31.9802 281.089 32.1802 280.713C32.3802 280.337 32.4802 279.909 32.4802 279.429C32.4802 278.949 32.3802 278.521 32.1802 278.145C31.9802 277.769 31.7002 277.481 31.3402 277.281C30.9882 277.073 30.5882 276.969 30.1402 276.969C29.6922 276.969 29.2882 277.073 28.9282 277.281C28.5762 277.481 28.2962 277.769 28.0882 278.145C27.8882 278.521 27.7882 278.949 27.7882 279.429C27.7882 279.909 27.8882 280.337 28.0882 280.713C28.2962 281.089 28.5762 281.381 28.9282 281.589C29.2882 281.789 29.6922 281.889 30.1402 281.889ZM38.4171 276.225C39.0091 276.225 39.5451 276.361 40.0251 276.633C40.5051 276.897 40.8811 277.273 41.1531 277.761C41.4251 278.249 41.5611 278.805 41.5611 279.429C41.5611 280.061 41.4251 280.621 41.1531 281.109C40.8811 281.597 40.5051 281.977 40.0251 282.249C39.5531 282.513 39.0171 282.645 38.4171 282.645C37.9051 282.645 37.4411 282.541 37.0251 282.333C36.6171 282.117 36.2811 281.805 36.0171 281.397V284.913H35.1651V276.273H35.9811V277.521C36.2371 277.105 36.5731 276.785 36.9891 276.561C37.4131 276.337 37.8891 276.225 38.4171 276.225ZM38.3571 281.889C38.7971 281.889 39.1971 281.789 39.5571 281.589C39.9171 281.381 40.1971 281.089 40.3971 280.713C40.6051 280.337 40.7091 279.909 40.7091 279.429C40.7091 278.949 40.6051 278.525 40.3971 278.157C40.1971 277.781 39.9171 277.489 39.5571 277.281C39.1971 277.073 38.7971 276.969 38.3571 276.969C37.9091 276.969 37.5051 277.073 37.1451 277.281C36.7931 277.489 36.5131 277.781 36.3051 278.157C36.1051 278.525 36.0051 278.949 36.0051 279.429C36.0051 279.909 36.1051 280.337 36.3051 280.713C36.5131 281.089 36.7931 281.381 37.1451 281.589C37.5051 281.789 37.9091 281.889 38.3571 281.889ZM49.6043 279.297C50.0523 279.401 50.3963 279.581 50.6363 279.837C50.8843 280.093 51.0083 280.405 51.0083 280.773C51.0083 281.141 50.8803 281.469 50.6243 281.757C50.3763 282.045 50.0363 282.269 49.6043 282.429C49.1723 282.581 48.6963 282.657 48.1763 282.657C47.7203 282.657 47.2723 282.593 46.8323 282.465C46.3923 282.329 46.0083 282.133 45.6803 281.877L45.9683 281.241C46.2563 281.457 46.5923 281.625 46.9763 281.745C47.3603 281.865 47.7483 281.925 48.1403 281.925C48.7243 281.925 49.2003 281.817 49.5683 281.601C49.9443 281.377 50.1323 281.077 50.1323 280.701C50.1323 280.365 49.9803 280.105 49.6763 279.921C49.3723 279.729 48.9563 279.633 48.4283 279.633H47.3483V279.009H48.3803C48.8523 279.009 49.2323 278.921 49.5203 278.745C49.8083 278.561 49.9523 278.317 49.9523 278.013C49.9523 277.677 49.7883 277.413 49.4603 277.221C49.1403 277.029 48.7203 276.933 48.2003 276.933C47.5203 276.933 46.8483 277.105 46.1843 277.449L45.9443 276.789C46.6963 276.397 47.4763 276.201 48.2843 276.201C48.7643 276.201 49.1963 276.273 49.5803 276.417C49.9723 276.553 50.2763 276.749 50.4923 277.005C50.7163 277.261 50.8283 277.557 50.8283 277.893C50.8283 278.213 50.7163 278.497 50.4923 278.745C50.2763 278.993 49.9803 279.177 49.6043 279.297ZM55.1145 276.225C55.9385 276.225 56.5705 276.433 57.0105 276.849C57.4505 277.257 57.6705 277.865 57.6705 278.673V282.585H56.8545V281.601C56.6625 281.929 56.3785 282.185 56.0025 282.369C55.6345 282.553 55.1945 282.645 54.6825 282.645C53.9785 282.645 53.4185 282.477 53.0025 282.141C52.5865 281.805 52.3785 281.361 52.3785 280.809C52.3785 280.273 52.5705 279.841 52.9545 279.513C53.3465 279.185 53.9665 279.021 54.8145 279.021H56.8185V278.637C56.8185 278.093 56.6665 277.681 56.3625 277.401C56.0585 277.113 55.6145 276.969 55.0305 276.969C54.6305 276.969 54.2465 277.037 53.8785 277.173C53.5105 277.301 53.1945 277.481 52.9305 277.713L52.5465 277.077C52.8665 276.805 53.2505 276.597 53.6985 276.453C54.1465 276.301 54.6185 276.225 55.1145 276.225ZM54.8145 281.973C55.2945 281.973 55.7065 281.865 56.0505 281.649C56.3945 281.425 56.6505 281.105 56.8185 280.689V279.657H54.8385C53.7585 279.657 53.2185 280.033 53.2185 280.785C53.2185 281.153 53.3585 281.445 53.6385 281.661C53.9185 281.869 54.3105 281.973 54.8145 281.973ZM62.2306 279.777H60.7906V282.585H59.9386V276.273H60.7906V279.045H62.2426L64.4626 276.273H65.3866L62.9026 279.333L65.5666 282.585H64.5586L62.2306 279.777ZM68.966 276.225C69.79 276.225 70.422 276.433 70.862 276.849C71.302 277.257 71.522 277.865 71.522 278.673V282.585H70.706V281.601C70.514 281.929 70.23 282.185 69.854 282.369C69.486 282.553 69.046 282.645 68.534 282.645C67.83 282.645 67.27 282.477 66.854 282.141C66.438 281.805 66.23 281.361 66.23 280.809C66.23 280.273 66.422 279.841 66.806 279.513C67.198 279.185 67.818 279.021 68.666 279.021H70.67V278.637C70.67 278.093 70.518 277.681 70.214 277.401C69.91 277.113 69.466 276.969 68.882 276.969C68.482 276.969 68.098 277.037 67.73 277.173C67.362 277.301 67.046 277.481 66.782 277.713L66.398 277.077C66.718 276.805 67.102 276.597 67.55 276.453C67.998 276.301 68.47 276.225 68.966 276.225ZM68.666 281.973C69.146 281.973 69.558 281.865 69.902 281.649C70.246 281.425 70.502 281.105 70.67 280.689V279.657H68.69C67.61 279.657 67.07 280.033 67.07 280.785C67.07 281.153 67.21 281.445 67.49 281.661C67.77 281.869 68.162 281.973 68.666 281.973ZM76.7332 279.297C77.1812 279.401 77.5252 279.581 77.7652 279.837C78.0132 280.093 78.1372 280.405 78.1372 280.773C78.1372 281.141 78.0092 281.469 77.7532 281.757C77.5052 282.045 77.1652 282.269 76.7332 282.429C76.3012 282.581 75.8252 282.657 75.3052 282.657C74.8492 282.657 74.4012 282.593 73.9612 282.465C73.5212 282.329 73.1372 282.133 72.8092 281.877L73.0972 281.241C73.3852 281.457 73.7212 281.625 74.1052 281.745C74.4892 281.865 74.8772 281.925 75.2692 281.925C75.8532 281.925 76.3292 281.817 76.6972 281.601C77.0732 281.377 77.2612 281.077 77.2612 280.701C77.2612 280.365 77.1092 280.105 76.8052 279.921C76.5012 279.729 76.0852 279.633 75.5572 279.633H74.4772V279.009H75.5092C75.9812 279.009 76.3612 278.921 76.6492 278.745C76.9372 278.561 77.0812 278.317 77.0812 278.013C77.0812 277.677 76.9172 277.413 76.5892 277.221C76.2692 277.029 75.8492 276.933 75.3292 276.933C74.6492 276.933 73.9772 277.105 73.3132 277.449L73.0732 276.789C73.8252 276.397 74.6052 276.201 75.4132 276.201C75.8932 276.201 76.3252 276.273 76.7092 276.417C77.1012 276.553 77.4052 276.749 77.6212 277.005C77.8452 277.261 77.9572 277.557 77.9572 277.893C77.9572 278.213 77.8452 278.497 77.6212 278.745C77.4052 278.993 77.1092 279.177 76.7332 279.297ZM82.6754 282.645C82.0674 282.645 81.5194 282.509 81.0314 282.237C80.5434 281.957 80.1594 281.573 79.8794 281.085C79.5994 280.597 79.4594 280.045 79.4594 279.429C79.4594 278.813 79.5994 278.261 79.8794 277.773C80.1594 277.285 80.5434 276.905 81.0314 276.633C81.5194 276.361 82.0674 276.225 82.6754 276.225C83.2834 276.225 83.8314 276.361 84.3194 276.633C84.8074 276.905 85.1874 277.285 85.4594 277.773C85.7394 278.261 85.8794 278.813 85.8794 279.429C85.8794 280.045 85.7394 280.597 85.4594 281.085C85.1874 281.573 84.8074 281.957 84.3194 282.237C83.8314 282.509 83.2834 282.645 82.6754 282.645ZM82.6754 281.889C83.1234 281.889 83.5234 281.789 83.8754 281.589C84.2354 281.381 84.5154 281.089 84.7154 280.713C84.9154 280.337 85.0154 279.909 85.0154 279.429C85.0154 278.949 84.9154 278.521 84.7154 278.145C84.5154 277.769 84.2354 277.481 83.8754 277.281C83.5234 277.073 83.1234 276.969 82.6754 276.969C82.2274 276.969 81.8234 277.073 81.4634 277.281C81.1114 277.481 80.8314 277.769 80.6234 278.145C80.4234 278.521 80.3234 278.949 80.3234 279.429C80.3234 279.909 80.4234 280.337 80.6234 280.713C80.8314 281.089 81.1114 281.381 81.4634 281.589C81.8234 281.789 82.2274 281.889 82.6754 281.889ZM91.7203 279.321C92.5763 279.521 93.0043 280.037 93.0043 280.869C93.0043 281.421 92.8003 281.845 92.3923 282.141C91.9843 282.437 91.3763 282.585 90.5683 282.585H87.7003V276.273H90.4843C91.2043 276.273 91.7683 276.413 92.1763 276.693C92.5843 276.973 92.7883 277.373 92.7883 277.893C92.7883 278.237 92.6923 278.533 92.5003 278.781C92.3163 279.021 92.0563 279.201 91.7203 279.321ZM88.5283 279.081H90.4243C90.9123 279.081 91.2843 278.989 91.5403 278.805C91.8043 278.621 91.9363 278.353 91.9363 278.001C91.9363 277.649 91.8043 277.385 91.5403 277.209C91.2843 277.033 90.9123 276.945 90.4243 276.945H88.5283V279.081ZM90.5323 281.913C91.0763 281.913 91.4843 281.825 91.7563 281.649C92.0283 281.473 92.1643 281.197 92.1643 280.821C92.1643 280.445 92.0403 280.169 91.7923 279.993C91.5443 279.809 91.1523 279.717 90.6163 279.717H88.5283V281.913H90.5323Z" fill="white"/>
<g clip-path="url(#clip0_405_5380)">
<path d="M11.557 320.585C11.2089 320.585 11 320.307 11 320.028V299.142C11.0696 298.864 11.2785 298.585 11.557 298.585H32.3734C32.7215 298.585 32.9304 298.864 32.9304 299.142V319.959C32.9304 320.307 32.6519 320.516 32.3734 320.516H11.557V320.585ZM12.1835 319.402H31.8861V299.699H25.1329V306.383C25.1329 306.661 24.8544 306.94 24.5759 306.94C24.5063 306.94 24.3671 306.94 24.2975 306.87L22.0696 305.687L19.9114 306.87C19.7025 306.94 19.6329 306.94 19.5633 306.94C19.4241 306.94 19.2848 306.87 19.1456 306.801C19.0759 306.731 18.9367 306.592 18.9367 306.383V299.699H12.1835V319.402ZM22 304.573C22.0696 304.573 22.2089 304.573 22.2785 304.642L23.9494 305.547V299.699H20.0506V305.478L21.7215 304.573C21.8608 304.573 21.9304 304.573 22 304.573ZM14.6899 316.687C14.3418 316.687 14.1329 316.408 14.1329 316.13C14.1329 315.851 14.4114 315.573 14.6899 315.573H20.6772C21.0253 315.573 21.2342 315.851 21.2342 316.13C21.2342 316.408 21.0253 316.687 20.6772 316.687H14.6899ZM14.6899 314.18C14.3418 314.18 14.1329 313.902 14.1329 313.623C14.1329 313.345 14.4114 313.066 14.6899 313.066H19.4241C19.7722 313.066 19.981 313.345 19.981 313.623C19.981 313.902 19.7025 314.18 19.4241 314.18H14.6899Z" fill="#227CE4"/>
</g>
<path d="M149.132 281.817V284.469H148.304V282.585H140.972L140.96 284.469H140.132L140.144 281.817H140.564C141.116 281.785 141.5 281.349 141.716 280.509C141.932 279.661 142.064 278.461 142.112 276.909L142.208 274.185H147.872V281.817H149.132ZM142.904 276.993C142.864 278.273 142.764 279.329 142.604 280.161C142.452 280.985 142.192 281.537 141.824 281.817H146.996V274.953H142.976L142.904 276.993ZM153.168 282.645C152.56 282.645 152.012 282.509 151.524 282.237C151.036 281.957 150.652 281.573 150.372 281.085C150.092 280.597 149.952 280.045 149.952 279.429C149.952 278.813 150.092 278.261 150.372 277.773C150.652 277.285 151.036 276.905 151.524 276.633C152.012 276.361 152.56 276.225 153.168 276.225C153.776 276.225 154.324 276.361 154.812 276.633C155.3 276.905 155.68 277.285 155.952 277.773C156.232 278.261 156.372 278.813 156.372 279.429C156.372 280.045 156.232 280.597 155.952 281.085C155.68 281.573 155.3 281.957 154.812 282.237C154.324 282.509 153.776 282.645 153.168 282.645ZM153.168 281.889C153.616 281.889 154.016 281.789 154.368 281.589C154.728 281.381 155.008 281.089 155.208 280.713C155.408 280.337 155.508 279.909 155.508 279.429C155.508 278.949 155.408 278.521 155.208 278.145C155.008 277.769 154.728 277.481 154.368 277.281C154.016 277.073 153.616 276.969 153.168 276.969C152.72 276.969 152.316 277.073 151.956 277.281C151.604 277.481 151.324 277.769 151.116 278.145C150.916 278.521 150.816 278.949 150.816 279.429C150.816 279.909 150.916 280.337 151.116 280.713C151.324 281.089 151.604 281.381 151.956 281.589C152.316 281.789 152.72 281.889 153.168 281.889ZM160.832 282.645C160.208 282.645 159.648 282.509 159.152 282.237C158.664 281.965 158.28 281.585 158 281.097C157.72 280.601 157.58 280.045 157.58 279.429C157.58 278.813 157.72 278.261 158 277.773C158.28 277.285 158.664 276.905 159.152 276.633C159.648 276.361 160.208 276.225 160.832 276.225C161.376 276.225 161.86 276.333 162.284 276.549C162.716 276.757 163.056 277.065 163.304 277.473L162.668 277.905C162.46 277.593 162.196 277.361 161.876 277.209C161.556 277.049 161.208 276.969 160.832 276.969C160.376 276.969 159.964 277.073 159.596 277.281C159.236 277.481 158.952 277.769 158.744 278.145C158.544 278.521 158.444 278.949 158.444 279.429C158.444 279.917 158.544 280.349 158.744 280.725C158.952 281.093 159.236 281.381 159.596 281.589C159.964 281.789 160.376 281.889 160.832 281.889C161.208 281.889 161.556 281.813 161.876 281.661C162.196 281.509 162.46 281.277 162.668 280.965L163.304 281.397C163.056 281.805 162.716 282.117 162.284 282.333C161.852 282.541 161.368 282.645 160.832 282.645ZM169.277 277.029H166.889V282.585H166.037V277.029H163.649V276.273H169.277V277.029ZM172.681 276.225C173.505 276.225 174.137 276.433 174.577 276.849C175.017 277.257 175.237 277.865 175.237 278.673V282.585H174.421V281.601C174.229 281.929 173.945 282.185 173.569 282.369C173.201 282.553 172.761 282.645 172.249 282.645C171.545 282.645 170.985 282.477 170.569 282.141C170.153 281.805 169.945 281.361 169.945 280.809C169.945 280.273 170.137 279.841 170.521 279.513C170.913 279.185 171.533 279.021 172.381 279.021H174.385V278.637C174.385 278.093 174.233 277.681 173.929 277.401C173.625 277.113 173.181 276.969 172.597 276.969C172.197 276.969 171.813 277.037 171.445 277.173C171.077 277.301 170.761 277.481 170.497 277.713L170.113 277.077C170.433 276.805 170.817 276.597 171.265 276.453C171.713 276.301 172.185 276.225 172.681 276.225ZM172.381 281.973C172.861 281.973 173.273 281.865 173.617 281.649C173.961 281.425 174.217 281.105 174.385 280.689V279.657H172.405C171.325 279.657 170.785 280.033 170.785 280.785C170.785 281.153 170.925 281.445 171.205 281.661C171.485 281.869 171.877 281.973 172.381 281.973ZM181.525 279.321C182.381 279.521 182.809 280.037 182.809 280.869C182.809 281.421 182.605 281.845 182.197 282.141C181.789 282.437 181.181 282.585 180.373 282.585H177.505V276.273H180.289C181.009 276.273 181.573 276.413 181.981 276.693C182.389 276.973 182.593 277.373 182.593 277.893C182.593 278.237 182.497 278.533 182.305 278.781C182.121 279.021 181.861 279.201 181.525 279.321ZM178.333 279.081H180.229C180.717 279.081 181.089 278.989 181.345 278.805C181.609 278.621 181.741 278.353 181.741 278.001C181.741 277.649 181.609 277.385 181.345 277.209C181.089 277.033 180.717 276.945 180.229 276.945H178.333V279.081ZM180.337 281.913C180.881 281.913 181.289 281.825 181.561 281.649C181.833 281.473 181.969 281.197 181.969 280.821C181.969 280.445 181.845 280.169 181.597 279.993C181.349 279.809 180.957 279.717 180.421 279.717H178.333V281.913H180.337ZM187.098 279.777H185.658V282.585H184.806V276.273H185.658V279.045H187.11L189.33 276.273H190.254L187.77 279.333L190.434 282.585H189.426L187.098 279.777ZM193.833 276.225C194.657 276.225 195.289 276.433 195.729 276.849C196.169 277.257 196.389 277.865 196.389 278.673V282.585H195.573V281.601C195.381 281.929 195.097 282.185 194.721 282.369C194.353 282.553 193.913 282.645 193.401 282.645C192.697 282.645 192.137 282.477 191.721 282.141C191.305 281.805 191.097 281.361 191.097 280.809C191.097 280.273 191.289 279.841 191.673 279.513C192.065 279.185 192.685 279.021 193.533 279.021H195.537V278.637C195.537 278.093 195.385 277.681 195.081 277.401C194.777 277.113 194.333 276.969 193.749 276.969C193.349 276.969 192.965 277.037 192.597 277.173C192.229 277.301 191.913 277.481 191.649 277.713L191.265 277.077C191.585 276.805 191.969 276.597 192.417 276.453C192.865 276.301 193.337 276.225 193.833 276.225ZM193.533 281.973C194.013 281.973 194.425 281.865 194.769 281.649C195.113 281.425 195.369 281.105 195.537 280.689V279.657H193.557C192.477 279.657 191.937 280.033 191.937 280.785C191.937 281.153 192.077 281.445 192.357 281.661C192.637 281.869 193.029 281.973 193.533 281.973ZM207.138 274.185V274.797L203.622 282.585H202.686L206.142 274.953H201.822V276.525H200.97V274.185H207.138ZM218.161 281.841V284.109H217.357V282.585H211.705V284.109H210.901V281.841H211.261C211.685 281.817 211.973 281.505 212.125 280.905C212.277 280.305 212.381 279.465 212.437 278.385L212.521 276.273H217.177V281.841H218.161ZM213.217 278.433C213.177 279.329 213.101 280.069 212.989 280.653C212.877 281.229 212.677 281.625 212.389 281.841H216.325V277.029H213.289L213.217 278.433ZM219.821 276.273H220.673V279.069H224.645V276.273H225.497V282.585H224.645V279.801H220.673V282.585H219.821V276.273ZM233.439 279.693H228.159C228.207 280.349 228.459 280.881 228.915 281.289C229.371 281.689 229.947 281.889 230.643 281.889C231.035 281.889 231.395 281.821 231.723 281.685C232.051 281.541 232.335 281.333 232.575 281.061L233.055 281.613C232.775 281.949 232.423 282.205 231.999 282.381C231.583 282.557 231.123 282.645 230.619 282.645C229.971 282.645 229.395 282.509 228.891 282.237C228.395 281.957 228.007 281.573 227.727 281.085C227.447 280.597 227.307 280.045 227.307 279.429C227.307 278.813 227.439 278.261 227.703 277.773C227.975 277.285 228.343 276.905 228.807 276.633C229.279 276.361 229.807 276.225 230.391 276.225C230.975 276.225 231.499 276.361 231.963 276.633C232.427 276.905 232.791 277.285 233.055 277.773C233.319 278.253 233.451 278.805 233.451 279.429L233.439 279.693ZM230.391 276.957C229.783 276.957 229.271 277.153 228.855 277.545C228.447 277.929 228.215 278.433 228.159 279.057H232.635C232.579 278.433 232.343 277.929 231.927 277.545C231.519 277.153 231.007 276.957 230.391 276.957ZM235.337 276.273H236.189V281.289L240.401 276.273H241.157V282.585H240.305V277.569L236.105 282.585H235.337V276.273ZM238.205 275.361C237.661 275.361 237.229 275.225 236.909 274.953C236.589 274.681 236.425 274.297 236.417 273.801H237.029C237.037 274.113 237.149 274.365 237.365 274.557C237.581 274.741 237.861 274.833 238.205 274.833C238.549 274.833 238.829 274.741 239.045 274.557C239.269 274.365 239.385 274.113 239.393 273.801H240.005C239.997 274.297 239.829 274.681 239.501 274.953C239.181 275.225 238.749 275.361 238.205 275.361Z" fill="white"/>
<g clip-path="url(#clip1_405_5380)">
<path d="M149.3 320.585C149.1 320.585 149 320.485 148.9 320.385C148.8 320.285 148.8 320.085 148.8 319.885L151.4 312.785H144.3C141.9 312.785 140 310.785 140 308.285V301.085C140 300.385 140.5 299.885 141.2 299.885C142.5 299.885 143.7 300.785 144.1 302.085L145.2 305.885C145.3 306.185 145.6 306.385 145.9 306.385H151.4L148.8 299.285C148.7 299.085 148.8 298.885 148.9 298.785C149 298.685 149.2 298.585 149.3 298.585H151.7C152.8 298.585 153.7 299.185 154.3 300.085L158.1 306.385H163.7C166.2 306.385 168.5 307.685 169.8 309.885C170 310.185 170.1 310.485 170.1 310.885C170.1 311.885 169.3 312.785 168.3 312.785H158.3L154.4 319.185C153.8 320.085 152.9 320.685 151.8 320.685H149.3V320.585ZM153.1 309.085C153.2 309.085 153.2 309.085 153.3 309.085C153.4 309.185 153.5 309.285 153.6 309.385C153.7 309.485 153.7 309.685 153.6 309.785L150.1 319.485H151.7C152.4 319.485 153 319.085 153.4 318.485L159 309.285C159.1 309.085 159.3 308.985 159.4 308.985C159.5 308.985 159.6 308.985 159.7 309.085C159.8 309.185 159.9 309.285 159.9 309.385C159.9 309.485 159.9 309.685 159.8 309.785L158.7 311.585H168.1C168.6 311.585 168.8 311.185 168.8 310.785C168.8 310.685 168.8 310.485 168.7 310.385C167.6 308.485 165.6 307.385 163.5 307.385H145.9C145.1 307.385 144.4 306.885 144.2 306.085L143.1 302.385C142.8 301.585 142.1 300.985 141.2 300.985H141.1V301.085V308.285C141.1 310.185 142.6 311.685 144.3 311.685H151.8L152.6 309.385C152.7 309.185 152.9 309.085 153.1 309.085ZM152.5 306.385H156.8L153.3 300.585C152.9 299.985 152.3 299.585 151.6 299.585H150L152.5 306.385Z" fill="#9FCCFF"/>
</g>
<path d="M9.62 345.585L9.62 352.585H8.64L8.64 346.455H4.58L4.58 352.585H3.59L3.59 345.585H9.62ZM17.8229 345.585V352.585H16.8229V349.465H12.8029V352.585H11.8029L11.8029 345.585H12.8029L12.8029 348.595H16.8229V345.585H17.8229Z" fill="#227CE4"/>
<path d="M54.95 348.955C55.4233 349.069 55.78 349.272 56.02 349.565C56.2667 349.852 56.39 350.222 56.39 350.675C56.39 351.282 56.1667 351.752 55.72 352.085C55.28 352.419 54.6367 352.585 53.79 352.585H50.59V345.585H53.6C54.3667 345.585 54.9633 345.742 55.39 346.055C55.8233 346.362 56.04 346.805 56.04 347.385C56.04 347.765 55.9433 348.089 55.75 348.355C55.5633 348.622 55.2967 348.822 54.95 348.955ZM51.58 348.665H53.53C54.0167 348.665 54.3867 348.569 54.64 348.375C54.9 348.182 55.03 347.899 55.03 347.525C55.03 347.152 54.9 346.869 54.64 346.675C54.38 346.475 54.01 346.375 53.53 346.375H51.58V348.665ZM53.77 351.795C54.8433 351.795 55.38 351.395 55.38 350.595C55.38 350.195 55.2433 349.902 54.97 349.715C54.7033 349.522 54.3033 349.425 53.77 349.425H51.58V351.795H53.77ZM62.773 346.455H60.373V352.585H59.393V346.455H57.003V345.585H62.773V346.455Z" fill="#BCC9DA" fill-opacity="0.36"/>
<path d="M97.72 352.665C97.02 352.665 96.3867 352.512 95.82 352.205C95.26 351.892 94.82 351.465 94.5 350.925C94.18 350.379 94.02 349.765 94.02 349.085C94.02 348.405 94.18 347.795 94.5 347.255C94.82 346.709 95.2633 346.282 95.83 345.975C96.3967 345.662 97.03 345.505 97.73 345.505C98.2767 345.505 98.7767 345.599 99.23 345.785C99.6833 345.965 100.07 346.235 100.39 346.595L99.74 347.225C99.2133 346.672 98.5567 346.395 97.77 346.395C97.25 346.395 96.78 346.512 96.36 346.745C95.94 346.979 95.61 347.302 95.37 347.715C95.1367 348.122 95.02 348.579 95.02 349.085C95.02 349.592 95.1367 350.052 95.37 350.465C95.61 350.872 95.94 351.192 96.36 351.425C96.78 351.659 97.25 351.775 97.77 351.775C98.55 351.775 99.2067 351.495 99.74 350.935L100.39 351.565C100.07 351.925 99.68 352.199 99.22 352.385C98.7667 352.572 98.2667 352.665 97.72 352.665ZM104.498 345.585C105.404 345.585 106.118 345.802 106.638 346.235C107.158 346.669 107.418 347.265 107.418 348.025C107.418 348.785 107.158 349.382 106.638 349.815C106.118 350.249 105.404 350.465 104.498 350.465H102.768V352.585H101.768V345.585H104.498ZM104.468 349.595C105.101 349.595 105.584 349.462 105.918 349.195C106.251 348.922 106.418 348.532 106.418 348.025C106.418 347.519 106.251 347.132 105.918 346.865C105.584 346.592 105.101 346.455 104.468 346.455H102.768V349.595H104.468Z" fill="#BCC9DA" fill-opacity="0.36"/>
<path d="M144.77 345.585V352.585H143.78V349.815C143.04 350.102 142.357 350.245 141.73 350.245C140.877 350.245 140.213 350.039 139.74 349.625C139.273 349.212 139.04 348.622 139.04 347.855V345.585H140.02V347.745C140.02 348.265 140.177 348.665 140.49 348.945C140.81 349.225 141.26 349.365 141.84 349.365C142.487 349.365 143.133 349.219 143.78 348.925V345.585H144.77ZM151.763 346.455H149.363V352.585H148.383V346.455H145.993V345.585H151.763V346.455Z" fill="#227CE4"/>
<path d="M189.62 345.585V352.585H188.64V346.455H184.58V352.585H183.59V345.585H189.62ZM196.613 346.455H194.213V352.585H193.233V346.455H190.843V345.585H196.613V346.455Z" fill="#BCC9DA" fill-opacity="0.8"/>
<path d="M231.72 352.665C231.02 352.665 230.387 352.512 229.82 352.205C229.26 351.892 228.82 351.465 228.5 350.925C228.18 350.379 228.02 349.765 228.02 349.085C228.02 348.405 228.18 347.795 228.5 347.255C228.82 346.709 229.263 346.282 229.83 345.975C230.397 345.662 231.03 345.505 231.73 345.505C232.277 345.505 232.777 345.599 233.23 345.785C233.683 345.965 234.07 346.235 234.39 346.595L233.74 347.225C233.213 346.672 232.557 346.395 231.77 346.395C231.25 346.395 230.78 346.512 230.36 346.745C229.94 346.979 229.61 347.302 229.37 347.715C229.137 348.122 229.02 348.579 229.02 349.085C229.02 349.592 229.137 350.052 229.37 350.465C229.61 350.872 229.94 351.192 230.36 351.425C230.78 351.659 231.25 351.775 231.77 351.775C232.55 351.775 233.207 351.495 233.74 350.935L234.39 351.565C234.07 351.925 233.68 352.199 233.22 352.385C232.767 352.572 232.267 352.665 231.72 352.665ZM235.768 345.585H241.048V346.435H236.758V348.435H238.938C239.771 348.435 240.404 348.609 240.838 348.955C241.271 349.302 241.488 349.802 241.488 350.455C241.488 351.142 241.251 351.669 240.778 352.035C240.311 352.402 239.641 352.585 238.768 352.585H235.768V345.585ZM238.728 351.795C239.301 351.795 239.738 351.685 240.038 351.465C240.338 351.245 240.488 350.922 240.488 350.495C240.488 349.649 239.901 349.225 238.728 349.225H236.758V351.795H238.728Z" fill="#BCC9DA" fill-opacity="0.36"/>
<path d="M277.95 348.955C278.423 349.069 278.78 349.272 279.02 349.565C279.267 349.852 279.39 350.222 279.39 350.675C279.39 351.282 279.167 351.752 278.72 352.085C278.28 352.419 277.637 352.585 276.79 352.585H273.59V345.585H276.6C277.367 345.585 277.963 345.742 278.39 346.055C278.823 346.362 279.04 346.805 279.04 347.385C279.04 347.765 278.943 348.089 278.75 348.355C278.563 348.622 278.297 348.822 277.95 348.955ZM274.58 348.665H276.53C277.017 348.665 277.387 348.569 277.64 348.375C277.9 348.182 278.03 347.899 278.03 347.525C278.03 347.152 277.9 346.869 277.64 346.675C277.38 346.475 277.01 346.375 276.53 346.375H274.58V348.665ZM276.77 351.795C277.843 351.795 278.38 351.395 278.38 350.595C278.38 350.195 278.243 349.902 277.97 349.715C277.703 349.522 277.303 349.425 276.77 349.425H274.58V351.795H276.77ZM284.191 352.665C283.491 352.665 282.857 352.512 282.291 352.205C281.731 351.892 281.291 351.465 280.971 350.925C280.651 350.379 280.491 349.765 280.491 349.085C280.491 348.405 280.651 347.795 280.971 347.255C281.291 346.709 281.734 346.282 282.301 345.975C282.867 345.662 283.501 345.505 284.201 345.505C284.747 345.505 285.247 345.599 285.701 345.785C286.154 345.965 286.541 346.235 286.861 346.595L286.211 347.225C285.684 346.672 285.027 346.395 284.241 346.395C283.721 346.395 283.251 346.512 282.831 346.745C282.411 346.979 282.081 347.302 281.841 347.715C281.607 348.122 281.491 348.579 281.491 349.085C281.491 349.592 281.607 350.052 281.841 350.465C282.081 350.872 282.411 351.192 282.831 351.425C283.251 351.659 283.721 351.775 284.241 351.775C285.021 351.775 285.677 351.495 286.211 350.935L286.861 351.565C286.541 351.925 286.151 352.199 285.691 352.385C285.237 352.572 284.737 352.665 284.191 352.665Z" fill="#BCC9DA" fill-opacity="0.36"/>
<path d="M324.62 345.585V352.585H323.64V346.455H319.58V352.585H318.59V345.585H324.62ZM332.823 345.585V352.585H331.823V349.465H327.803V352.585H326.803V345.585H327.803V348.595H331.823V345.585H332.823Z" fill="#BCC9DA" fill-opacity="0.36"/>
<path d="M369.95 348.955C370.423 349.069 370.78 349.272 371.02 349.565C371.267 349.852 371.39 350.222 371.39 350.675C371.39 351.282 371.167 351.752 370.72 352.085C370.28 352.419 369.637 352.585 368.79 352.585H365.59V345.585H368.6C369.367 345.585 369.963 345.742 370.39 346.055C370.823 346.362 371.04 346.805 371.04 347.385C371.04 347.765 370.943 348.089 370.75 348.355C370.563 348.622 370.297 348.822 369.95 348.955ZM366.58 348.665H368.53C369.017 348.665 369.387 348.569 369.64 348.375C369.9 348.182 370.03 347.899 370.03 347.525C370.03 347.152 369.9 346.869 369.64 346.675C369.38 346.475 369.01 346.375 368.53 346.375H366.58V348.665ZM368.77 351.795C369.843 351.795 370.38 351.395 370.38 350.595C370.38 350.195 370.243 349.902 369.97 349.715C369.703 349.522 369.303 349.425 368.77 349.425H366.58V351.795H368.77ZM377.773 346.455H375.373V352.585H374.393V346.455H372.003V345.585H377.773V346.455Z" fill="#BCC9DA" fill-opacity="0.36"/>
<path d="M412.72 352.665C412.02 352.665 411.387 352.512 410.82 352.205C410.26 351.892 409.82 351.465 409.5 350.925C409.18 350.379 409.02 349.765 409.02 349.085C409.02 348.405 409.18 347.795 409.5 347.255C409.82 346.709 410.263 346.282 410.83 345.975C411.397 345.662 412.03 345.505 412.73 345.505C413.277 345.505 413.777 345.599 414.23 345.785C414.683 345.965 415.07 346.235 415.39 346.595L414.74 347.225C414.213 346.672 413.557 346.395 412.77 346.395C412.25 346.395 411.78 346.512 411.36 346.745C410.94 346.979 410.61 347.302 410.37 347.715C410.137 348.122 410.02 348.579 410.02 349.085C410.02 349.592 410.137 350.052 410.37 350.465C410.61 350.872 410.94 351.192 411.36 351.425C411.78 351.659 412.25 351.775 412.77 351.775C413.55 351.775 414.207 351.495 414.74 350.935L415.39 351.565C415.07 351.925 414.68 352.199 414.22 352.385C413.767 352.572 413.267 352.665 412.72 352.665ZM419.498 345.585C420.404 345.585 421.118 345.802 421.638 346.235C422.158 346.669 422.418 347.265 422.418 348.025C422.418 348.785 422.158 349.382 421.638 349.815C421.118 350.249 420.404 350.465 419.498 350.465H417.768V352.585H416.768V345.585H419.498ZM419.468 349.595C420.101 349.595 420.584 349.462 420.918 349.195C421.251 348.922 421.418 348.532 421.418 348.025C421.418 347.519 421.251 347.132 420.918 346.865C420.584 346.592 420.101 346.455 419.468 346.455H417.768V349.595H419.468Z" fill="#9FCCFF"/>
<path d="M459.77 345.585V352.585H458.78V349.815C458.04 350.102 457.357 350.245 456.73 350.245C455.877 350.245 455.213 350.039 454.74 349.625C454.273 349.212 454.04 348.622 454.04 347.855V345.585H455.02V347.745C455.02 348.265 455.177 348.665 455.49 348.945C455.81 349.225 456.26 349.365 456.84 349.365C457.487 349.365 458.133 349.219 458.78 348.925V345.585H459.77ZM466.763 346.455H464.363V352.585H463.383V346.455H460.993V345.585H466.763V346.455Z" fill="#BCC9DA" fill-opacity="0.36"/>
<path d="M504.62 345.585V352.585H503.64V346.455H499.58V352.585H498.59V345.585H504.62ZM511.613 346.455H509.213V352.585H508.233V346.455H505.843V345.585H511.613V346.455Z" fill="#BCC9DA" fill-opacity="0.36"/>
<path d="M546.72 352.665C546.02 352.665 545.387 352.512 544.82 352.205C544.26 351.892 543.82 351.465 543.5 350.925C543.18 350.379 543.02 349.765 543.02 349.085C543.02 348.405 543.18 347.795 543.5 347.255C543.82 346.709 544.263 346.282 544.83 345.975C545.397 345.662 546.03 345.505 546.73 345.505C547.277 345.505 547.777 345.599 548.23 345.785C548.683 345.965 549.07 346.235 549.39 346.595L548.74 347.225C548.213 346.672 547.557 346.395 546.77 346.395C546.25 346.395 545.78 346.512 545.36 346.745C544.94 346.979 544.61 347.302 544.37 347.715C544.137 348.122 544.02 348.579 544.02 349.085C544.02 349.592 544.137 350.052 544.37 350.465C544.61 350.872 544.94 351.192 545.36 351.425C545.78 351.659 546.25 351.775 546.77 351.775C547.55 351.775 548.207 351.495 548.74 350.935L549.39 351.565C549.07 351.925 548.68 352.199 548.22 352.385C547.767 352.572 547.267 352.665 546.72 352.665ZM550.768 345.585H556.048V346.435H551.758V348.435H553.938C554.771 348.435 555.404 348.609 555.838 348.955C556.271 349.302 556.488 349.802 556.488 350.455C556.488 351.142 556.251 351.669 555.778 352.035C555.311 352.402 554.641 352.585 553.768 352.585H550.768V345.585ZM553.728 351.795C554.301 351.795 554.738 351.685 555.038 351.465C555.338 351.245 555.488 350.922 555.488 350.495C555.488 349.649 554.901 349.225 553.728 349.225H551.758V351.795H553.728Z" fill="#BCC9DA" fill-opacity="0.36"/>
<path d="M592.95 348.955C593.423 349.069 593.78 349.272 594.02 349.565C594.267 349.852 594.39 350.222 594.39 350.675C594.39 351.282 594.167 351.752 593.72 352.085C593.28 352.419 592.637 352.585 591.79 352.585H588.59V345.585H591.6C592.367 345.585 592.963 345.742 593.39 346.055C593.823 346.362 594.04 346.805 594.04 347.385C594.04 347.765 593.943 348.089 593.75 348.355C593.563 348.622 593.297 348.822 592.95 348.955ZM589.58 348.665H591.53C592.017 348.665 592.387 348.569 592.64 348.375C592.9 348.182 593.03 347.899 593.03 347.525C593.03 347.152 592.9 346.869 592.64 346.675C592.38 346.475 592.01 346.375 591.53 346.375H589.58V348.665ZM591.77 351.795C592.843 351.795 593.38 351.395 593.38 350.595C593.38 350.195 593.243 349.902 592.97 349.715C592.703 349.522 592.303 349.425 591.77 349.425H589.58V351.795H591.77ZM599.191 352.665C598.491 352.665 597.857 352.512 597.291 352.205C596.731 351.892 596.291 351.465 595.971 350.925C595.651 350.379 595.491 349.765 595.491 349.085C595.491 348.405 595.651 347.795 595.971 347.255C596.291 346.709 596.734 346.282 597.301 345.975C597.867 345.662 598.501 345.505 599.201 345.505C599.747 345.505 600.247 345.599 600.701 345.785C601.154 345.965 601.541 346.235 601.861 346.595L601.211 347.225C600.684 346.672 600.027 346.395 599.241 346.395C598.721 346.395 598.251 346.512 597.831 346.745C597.411 346.979 597.081 347.302 596.841 347.715C596.607 348.122 596.491 348.579 596.491 349.085C596.491 349.592 596.607 350.052 596.841 350.465C597.081 350.872 597.411 351.192 597.831 351.425C598.251 351.659 598.721 351.775 599.241 351.775C600.021 351.775 600.677 351.495 601.211 350.935L601.861 351.565C601.541 351.925 601.151 352.199 600.691 352.385C600.237 352.572 599.737 352.665 599.191 352.665Z" fill="#BCC9DA" fill-opacity="0.36"/>
<path d="M639.62 345.585V352.585H638.64V346.455H634.58V352.585H633.59V345.585H639.62ZM647.823 345.585V352.585H646.823V349.465H642.803V352.585H641.803V345.585H642.803V348.595H646.823V345.585H647.823Z" fill="#BCC9DA" fill-opacity="0.36"/>
<path d="M684.95 348.955C685.423 349.069 685.78 349.272 686.02 349.565C686.267 349.852 686.39 350.222 686.39 350.675C686.39 351.282 686.167 351.752 685.72 352.085C685.28 352.419 684.637 352.585 683.79 352.585H680.59V345.585H683.6C684.367 345.585 684.963 345.742 685.39 346.055C685.823 346.362 686.04 346.805 686.04 347.385C686.04 347.765 685.943 348.089 685.75 348.355C685.563 348.622 685.297 348.822 684.95 348.955ZM681.58 348.665H683.53C684.017 348.665 684.387 348.569 684.64 348.375C684.9 348.182 685.03 347.899 685.03 347.525C685.03 347.152 684.9 346.869 684.64 346.675C684.38 346.475 684.01 346.375 683.53 346.375H681.58V348.665ZM683.77 351.795C684.843 351.795 685.38 351.395 685.38 350.595C685.38 350.195 685.243 349.902 684.97 349.715C684.703 349.522 684.303 349.425 683.77 349.425H681.58V351.795H683.77ZM692.773 346.455H690.373V352.585H689.393V346.455H687.003V345.585H692.773V346.455Z" fill="#BCC9DA" fill-opacity="0.36"/>
<path d="M727.72 352.665C727.02 352.665 726.387 352.512 725.82 352.205C725.26 351.892 724.82 351.465 724.5 350.925C724.18 350.379 724.02 349.765 724.02 349.085C724.02 348.405 724.18 347.795 724.5 347.255C724.82 346.709 725.263 346.282 725.83 345.975C726.397 345.662 727.03 345.505 727.73 345.505C728.277 345.505 728.777 345.599 729.23 345.785C729.683 345.965 730.07 346.235 730.39 346.595L729.74 347.225C729.213 346.672 728.557 346.395 727.77 346.395C727.25 346.395 726.78 346.512 726.36 346.745C725.94 346.979 725.61 347.302 725.37 347.715C725.137 348.122 725.02 348.579 725.02 349.085C725.02 349.592 725.137 350.052 725.37 350.465C725.61 350.872 725.94 351.192 726.36 351.425C726.78 351.659 727.25 351.775 727.77 351.775C728.55 351.775 729.207 351.495 729.74 350.935L730.39 351.565C730.07 351.925 729.68 352.199 729.22 352.385C728.767 352.572 728.267 352.665 727.72 352.665ZM734.498 345.585C735.404 345.585 736.118 345.802 736.638 346.235C737.158 346.669 737.418 347.265 737.418 348.025C737.418 348.785 737.158 349.382 736.638 349.815C736.118 350.249 735.404 350.465 734.498 350.465H732.768V352.585H731.768V345.585H734.498ZM734.468 349.595C735.101 349.595 735.584 349.462 735.918 349.195C736.251 348.922 736.418 348.532 736.418 348.025C736.418 347.519 736.251 347.132 735.918 346.865C735.584 346.592 735.101 346.455 734.468 346.455H732.768V349.595H734.468Z" fill="#BCC9DA" fill-opacity="0.36"/>
<path d="M774.77 345.585V352.585H773.78V349.815C773.04 350.102 772.357 350.245 771.73 350.245C770.877 350.245 770.213 350.039 769.74 349.625C769.273 349.212 769.04 348.622 769.04 347.855V345.585H770.02V347.745C770.02 348.265 770.177 348.665 770.49 348.945C770.81 349.225 771.26 349.365 771.84 349.365C772.487 349.365 773.133 349.219 773.78 348.925V345.585H774.77ZM781.763 346.455H779.363V352.585H778.383V346.455H775.993V345.585H781.763V346.455Z" fill="#BCC9DA" fill-opacity="0.36"/>
<defs>
<clipPath id="clip0_405_5380">
<rect width="22" height="22" fill="white" transform="translate(11 298.585)"/>
</clipPath>
<clipPath id="clip1_405_5380">
<rect width="30" height="22" fill="white" transform="translate(140 298.585)"/>
</clipPath>
</defs>
</svg>
