<svg width="46" height="64" viewBox="0 0 46 64" fill="none" xmlns="http://www.w3.org/2000/svg">
<g id="Frame" clip-path="url(#clip0_405_7744)">
<path id="Vector" opacity="0.08" d="M45.9995 0.703297V41.8852C45.9995 42.3541 45.6923 42.5885 45.3084 42.5885H8.13975V42.7448C7.83257 42.6667 7.52539 42.3541 7.52539 42.0415V0.703297C7.52539 0.312576 7.83257 0 8.21654 0H45.2316C45.6923 0 45.9995 0.39072 45.9995 0.703297Z" fill="#BCC9DA"/>
<path id="Vector_2" d="M0.383973 64.0001C0.153589 63.8438 0 63.6875 0 63.4531V22.1149C0 21.8023 0.307179 21.5679 0.537563 21.5679H37.5526C37.9366 21.5679 38.1669 21.8804 38.1669 22.1149V63.2968C38.1669 63.6875 37.8598 63.8438 37.6294 63.8438L0.383973 64.0001ZM1.15192 62.7498H37.2454V22.6619H24.1135V36.4152C24.1135 36.7278 23.8063 36.9623 23.576 36.9623C23.4992 36.9623 23.4224 36.9623 23.2688 36.8841L19.2755 34.6179L14.8982 36.806C14.8214 36.8841 14.7446 36.8841 14.591 36.8841C14.4374 36.8841 14.3606 36.806 14.2838 36.7278C14.207 36.6497 14.0534 36.4152 14.0534 36.3371V22.6619H1.15192V62.7498ZM19.1219 33.2113C19.1987 33.2113 19.1987 33.2113 19.3523 33.2895L23.1152 35.5557V22.6619H14.975V35.3994H15.2821L18.8147 33.3676C18.8915 33.3676 18.8915 33.3676 18.9683 33.2895H19.0451L19.1219 33.2113Z" fill="#F3F3F3"/>
<path id="Vector_3" d="M5.60619 47.1209C5.14542 47.1209 4.91504 46.8865 4.91504 46.4177C4.91504 45.9488 5.14542 45.7144 5.60619 45.7144H14.2072C14.668 45.7144 14.8983 45.9488 14.8983 46.4177C14.8983 46.8865 14.668 47.1209 14.2072 47.1209H5.60619Z" fill="#9FCCFF"/>
<path id="Vector_4" d="M5.60619 51.3407C5.14542 51.3407 4.91504 51.1062 4.91504 50.6374C4.91504 50.1685 5.14542 49.9341 5.60619 49.9341H16.3574C16.8182 49.9341 17.0486 50.1685 17.0486 50.6374C17.0486 51.1062 16.8182 51.3407 16.3574 51.3407H5.60619Z" fill="#9FCCFF"/>
</g>
<defs>
<clipPath id="clip0_405_7744">
<rect width="46" height="64" fill="white"/>
</clipPath>
</defs>
</svg>
