<svg width="15" height="17" viewBox="0 0 15 17" fill="none" xmlns="http://www.w3.org/2000/svg">
<path id="Icon 1" d="M9.16667 0H5.83333C2.62821 0 0 2.53683 0 5.63052V8.04359C0 10.2092 1.28205 12.1891 3.33333 13.1172V15.8397C3.33333 16.0872 3.65385 16.2109 3.78205 16.0253L6.21795 13.6741H9.16667C12.3718 13.6741 15 11.1373 15 8.04359V5.63052C15 2.53683 12.3718 0 9.16667 0ZM11.3462 10.5804L10.5128 11.3848C9.61539 12.251 7.30769 11.261 5.25641 9.28107C3.20513 7.30111 2.30769 4.9499 3.14103 4.14554L3.97436 3.34118C4.29487 3.03182 4.80769 3.03182 5.19231 3.34118L6.41026 4.51679C6.85897 4.9499 6.66667 5.69239 6.08974 5.81614C5.70513 5.93988 5.44872 6.373 5.57692 6.74424C5.76923 7.61048 6.92308 8.7242 7.82051 8.9717C8.20513 9.03357 8.65385 8.84795 8.78205 8.47671C8.97436 7.91984 9.74359 7.7961 10.1282 8.16734L11.3462 9.34294C11.6667 9.71418 11.6667 10.2092 11.3462 10.5804ZM8.26923 3.83617C8.20513 3.83617 8.07692 3.83617 8.01282 3.83617C7.82051 3.83617 7.69231 3.71243 7.69231 3.58868C7.69231 3.46493 7.82051 3.27931 7.94872 3.27931C8.07692 3.27931 8.14103 3.27931 8.26923 3.27931C9.80769 3.27931 11.0256 4.45491 11.0256 5.93988C11.0256 6.06363 11.0256 6.12551 11.0256 6.24925C11.0256 6.373 10.8333 6.49675 10.7051 6.49675C10.5769 6.49675 10.4487 6.31113 10.4487 6.18738C10.4487 6.1255 10.4487 6.00176 10.4487 5.93988C10.4487 4.76428 9.48718 3.83617 8.26923 3.83617ZM9.9359 5.93988C9.9359 6.06363 9.80769 6.18738 9.67949 6.18738C9.55128 6.18738 9.42308 6.06363 9.42308 5.93988C9.42308 5.38302 8.91026 4.88803 8.33333 4.88803C8.20513 4.88803 8.07692 4.76428 8.07692 4.64053C8.07692 4.51679 8.20513 4.39304 8.33333 4.39304C9.16667 4.33116 9.9359 5.07365 9.9359 5.93988ZM12.0513 6.80612C11.9872 6.92986 11.859 7.05361 11.6667 6.99174C11.5385 6.92986 11.4103 6.80612 11.4744 6.68237C11.5385 6.43487 11.5385 6.18738 11.5385 5.93988C11.5385 4.14554 10.0641 2.72245 8.20513 2.72245C8.14103 2.72245 8.01282 2.72245 7.94872 2.72245C7.82051 2.72245 7.62821 2.5987 7.62821 2.47495C7.62821 2.3512 7.75641 2.16558 7.88462 2.16558C8.01282 2.16558 8.07692 2.16558 8.20513 2.16558C10.3205 2.16558 12.1154 3.83617 12.1154 5.93988C12.1154 6.24925 12.1154 6.55862 12.0513 6.80612Z" fill="#9FCCFF"/>
</svg>
