<svg width="160" height="155" viewBox="0 0 160 155" fill="none" xmlns="http://www.w3.org/2000/svg">
<path d="M159.41 1.2098V154.72C159.33 154.726 159.24 154.77 159.14 154.85C159.02 154.95 158.883 155 158.73 155L0.769962 154.99C0.687745 154.99 0.608895 154.957 0.550758 154.899C0.492622 154.841 0.459961 154.762 0.459961 154.68L0.479961 1.3498C0.479961 1.20393 0.537907 1.06404 0.641052 0.960892C0.744197 0.857747 0.884092 0.799805 1.02996 0.799805H158.85C159.01 0.799805 159.137 0.859805 159.23 0.979805L159.41 1.2098ZM70.25 54.9898H101.55C102.619 54.9898 103.651 54.5946 104.45 53.8798L122.25 37.8098C123.59 36.5965 123.357 35.9898 121.55 35.9898H70.63C69.5158 35.9897 68.4437 36.3993 67.62 37.1398L48.32 54.4398C47.9865 54.7388 47.7198 55.1043 47.5372 55.5127C47.3545 55.921 47.2601 56.363 47.26 56.8098V118.65C47.26 119.616 47.7433 120.093 48.71 120.08L68.61 119.77C69.0233 119.763 69.23 119.553 69.23 119.14V87.8798C69.23 87.5775 69.3501 87.2875 69.5639 87.0737C69.7776 86.8599 70.0676 86.7398 70.37 86.7398L102.3 86.7298C102.443 86.7298 102.581 86.674 102.682 86.5746C102.783 86.4752 102.84 86.3404 102.84 86.1998V69.0498C102.84 68.0298 102.33 67.5198 101.31 67.5198L70.26 67.5298C69.9868 67.5298 69.7248 67.4223 69.5316 67.231C69.3385 67.0398 69.23 66.7803 69.23 66.5098L69.24 55.9998C69.24 55.7319 69.3464 55.475 69.5358 55.2856C69.7252 55.0962 69.9821 54.9898 70.25 54.9898Z" fill="#F1F1F1"/>
<path d="M70.2498 54.9902C69.9819 54.9902 69.725 55.0966 69.5356 55.2861C69.3462 55.4755 69.2398 55.7324 69.2398 56.0002L69.2298 66.5102C69.2298 66.7808 69.3383 67.0402 69.5314 67.2315C69.7246 67.4228 69.9866 67.5302 70.2598 67.5302L101.31 67.5202C102.33 67.5202 102.84 68.0302 102.84 69.0502V86.2002C102.84 86.3408 102.783 86.4756 102.682 86.575C102.58 86.6744 102.443 86.7302 102.3 86.7302L70.3698 86.7402C70.0674 86.7402 69.7775 86.8603 69.5637 87.0741C69.3499 87.2879 69.2298 87.5779 69.2298 87.8802V119.14C69.2298 119.554 69.0231 119.764 68.6098 119.77L48.7098 120.08C47.7431 120.094 47.2598 119.617 47.2598 118.65V56.8102C47.2599 56.3634 47.3543 55.9215 47.537 55.5131C47.7196 55.1048 47.9863 54.7392 48.3198 54.4402L67.6198 37.1402C68.4435 36.3998 69.5156 35.9902 70.6298 35.9902H121.55C123.356 35.9902 123.59 36.5969 122.25 37.8102L104.45 53.8802C103.651 54.595 102.618 54.9902 101.55 54.9902H70.2498Z" fill="#1A2633"/>
</svg>
